<svg width="10" height="15" viewBox="0 0 10 15" fill="none" xmlns="http://www.w3.org/2000/svg">
<path d="M9.26202 0.636244C8.30687 -0.238243 6.79051 -0.207453 5.87513 0.705014L0.665998 5.89754C-0.249386 6.81001 -0.217156 8.25862 0.737986 9.13311C1.69313 10.0076 3.20949 9.97681 4.12487 9.06434L9.334 3.87181C10.2494 2.95934 10.2172 1.51073 9.26202 0.636244Z" fill="#343B54"/>
<path d="M9.26202 14.3638C8.30687 15.2382 6.79051 15.2075 5.87513 14.295L0.665998 9.10246C-0.249386 8.18999 -0.217156 6.74138 0.737986 5.86689C1.69313 4.9924 3.20949 5.02319 4.12487 5.93566L9.334 11.1282C10.2494 12.0407 10.2172 13.4893 9.26202 14.3638Z" fill="#343B54"/>
</svg>
