<svg width="315" height="264" viewBox="0 0 315 264" fill="none" xmlns="http://www.w3.org/2000/svg">
<ellipse cx="158.275" cy="142.819" rx="73.4304" ry="11.4524" fill="#31384F" stroke="#3C4666" stroke-width="2"/>
<path d="M157.793 150.903C105.515 152.52 92.8953 144.391 93.1199 140.124C98.5093 137.429 97.8356 130.693 93.1199 122.609C89.3473 116.141 94.6918 106.889 97.8356 103.072C93.3445 95.437 85.5748 74.7777 90.4252 53.2202C97.9704 13.8777 138.481 1.34735 157.793 0V150.903Z" fill="#5C2095"/>
<path d="M157.793 150.903C210.07 152.52 222.69 144.391 222.465 140.124C217.076 137.429 217.749 130.693 222.465 122.609C226.238 116.141 220.893 106.889 217.749 103.072C222.241 95.437 230.01 74.7777 225.16 53.2202C217.615 13.8777 177.104 1.34735 157.793 0V150.903Z" fill="#5C2095"/>
<mask id="mask0_45_7083" style="mask-type:alpha" maskUnits="userSpaceOnUse" x="88" y="0" width="139" height="152">
<path d="M157.793 150.903C105.515 152.52 92.8953 144.391 93.1199 140.124C98.5093 137.429 97.8356 130.693 93.1199 122.609C89.3473 116.141 94.6918 106.889 97.8356 103.072C93.3445 95.437 85.5748 74.7777 90.4252 53.2202C97.9704 13.8777 138.481 1.34735 157.793 0V150.903Z" fill="#5C2095"/>
<path d="M157.793 150.903C210.07 152.52 222.69 144.391 222.465 140.124C217.076 137.429 217.749 130.693 222.465 122.609C226.238 116.141 220.893 106.889 217.749 103.072C222.241 95.437 230.01 74.7777 225.16 53.2202C217.615 13.8777 177.104 1.34735 157.793 0V150.903Z" fill="#5C2095"/>
</mask>
<g mask="url(#mask0_45_7083)">
<circle cx="119.202" cy="20.2102" r="7.4104" fill="#954A83"/>
<circle cx="134.022" cy="25.5996" r="4.71571" fill="#954A83"/>
<circle cx="113.812" cy="33.6836" r="4.71571" fill="#954A83"/>
<circle cx="2.02102" cy="2.02102" r="2.02102" transform="matrix(-1 0 0 1 127.96 28.9679)" fill="#954A83"/>
<circle cx="0.673673" cy="0.673673" r="0.673673" transform="matrix(-1 0 0 1 134.696 18.1892)" fill="#954A83"/>
<circle cx="0.673673" cy="0.673673" r="0.673673" transform="matrix(-1 0 0 1 134.696 12.7998)" fill="#954A83"/>
<circle cx="2.02102" cy="2.02102" r="2.02102" transform="matrix(-1 0 0 1 110.444 41.0941)" fill="#954A83"/>
<circle cx="2.02102" cy="2.02102" r="2.02102" transform="matrix(-1 0 0 1 121.223 38.3994)" fill="#954A83"/>
<path d="M214.864 47.8308C153.964 17.1113 112.242 44.0133 98.9927 61.3042C93.1542 71.6339 80.534 100.243 76.7614 132.04C72.9889 163.837 173.546 161.457 224.296 156.292C246.527 132.938 275.764 78.5503 214.864 47.8308Z" fill="#58218C"/>
<path d="M106.402 152.924C124.142 144.615 169.728 133.387 210.148 154.945C207.992 157.101 140.086 154.496 106.402 152.924Z" fill="#5E2A8E"/>
<path d="M206.781 83.5355C170.133 98.0868 116.508 77.4724 94.2771 65.3463L92.9298 63.9989C86.6421 63.5498 75.8185 68.5799 82.8247 92.2932C89.8309 116.007 171.525 117.893 211.496 115.872C225.194 99.0299 243.428 68.9841 206.781 83.5355Z" fill="#542481"/>
<path d="M137.392 -1.34736C120.101 11.0033 90.5039 42.4414 110.445 69.3883C117.181 78.8197 103.708 84.2091 112.466 91.6195C118.699 96.8937 122.202 103.874 130.747 109.16C135.742 110.959 140.384 112.855 144.128 114.524C138.496 113.165 134.208 111.302 130.747 109.16C113.572 102.975 92.2272 97.9288 88.8871 107.114C84.5756 118.971 82.5995 67.5919 82.1504 40.4204C92.2555 28.0697 112.87 3.36836 114.487 3.36836C116.104 3.36836 129.532 -0.673683 136.044 -2.6947L137.392 -1.34736Z" fill="#4F227A"/>
<path d="M177.812 -0.67365C195.103 11.677 224.699 43.1151 204.758 70.062C198.022 79.4935 211.495 84.8828 202.737 92.2932C196.504 97.5674 193.001 104.548 184.456 109.834C179.461 111.633 174.819 113.529 171.075 115.198C176.707 113.839 180.995 111.975 184.456 109.834C201.631 103.649 222.976 98.6025 226.316 107.788C230.628 119.644 232.604 68.2656 233.053 41.0941C222.948 28.7434 202.333 4.04206 200.716 4.04206C199.1 4.04206 185.671 2.3365e-05 179.159 -2.021L177.812 -0.67365Z" fill="#4F227A"/>
<circle cx="2.02102" cy="2.02102" r="2.02102" transform="matrix(-1 0 0 1 133.35 37.052)" fill="#954A83"/>
<circle cx="2.02102" cy="2.02102" r="2.02102" transform="matrix(-1 0 0 1 129.307 10.1051)" fill="#954A83"/>
<circle cx="3.36837" cy="3.36837" r="3.36837" transform="matrix(-1 0 0 1 132.002 43.7887)" fill="#954A83"/>
<circle cx="3.36837" cy="3.36837" r="3.36837" transform="matrix(-1 0 0 1 134.696 2.021)" fill="#954A83"/>
<circle cx="3.36837" cy="3.36837" r="3.36837" transform="matrix(-1 0 0 1 117.181 46.4834)" fill="#954A83"/>
<circle cx="0.673673" cy="0.673673" r="0.673673" transform="matrix(-1 0 0 1 107.75 47.8308)" fill="#954A83"/>
<circle cx="0.673673" cy="0.673673" r="0.673673" transform="matrix(-1 0 0 1 130.654 18.1892)" fill="#954A83"/>
<circle cx="0.673673" cy="0.673673" r="0.673673" transform="matrix(-1 0 0 1 107.75 54.5675)" fill="#954A83"/>
</g>
<path d="M101.013 93.6406C101.013 93.6406 139.413 114.524 157.602 114.524V135.408C123.918 134.061 104.382 144.84 104.382 144.84C104.382 144.84 98.3579 129.972 97.645 119.914C96.9137 109.595 101.013 93.6406 101.013 93.6406Z" fill="#3E304A"/>
<path d="M214.19 93.6406C214.19 93.6406 177.812 115.872 157.602 114.524V135.408C191.286 134.061 210.822 144.84 210.822 144.84C210.822 144.84 216.846 129.972 217.559 119.914C218.29 109.595 214.19 93.6406 214.19 93.6406Z" fill="#3E304A"/>
<mask id="mask1_45_7083" style="mask-type:alpha" maskUnits="userSpaceOnUse" x="97" y="93" width="121" height="52">
<path d="M101.013 93.6405C101.013 93.6405 139.413 114.524 157.602 114.524V135.408C123.918 134.061 104.382 144.84 104.382 144.84C104.382 144.84 98.3579 129.972 97.645 119.914C96.9137 109.595 101.013 93.6405 101.013 93.6405Z" fill="#3E304A"/>
<path d="M214.19 93.6405C214.19 93.6405 177.812 115.872 157.602 114.524V135.408C191.286 134.061 210.822 144.84 210.822 144.84C210.822 144.84 216.846 129.972 217.559 119.914C218.29 109.595 214.19 93.6405 214.19 93.6405Z" fill="#3E304A"/>
</mask>
<g mask="url(#mask1_45_7083)">
<path d="M119.202 111.156C106.806 106.306 98.3179 115.423 95.6232 120.587L94.9496 121.261L92.2549 115.872L98.9916 86.9038L158.275 109.809V130.019C158.275 130.019 179.832 126.651 156.254 130.019C132.675 133.387 134.696 117.219 119.202 111.156Z" fill="#3A2A47"/>
<path d="M196.674 111.156C209.07 106.306 217.558 115.423 220.253 120.587L220.926 121.261L223.621 115.872L216.884 86.9038L157.601 109.809V130.019C157.601 130.019 136.044 126.651 159.622 130.019C183.201 133.387 181.18 117.219 196.674 111.156Z" fill="#3A2A47"/>
</g>
<path d="M133.906 128.615C130.248 119.966 119.228 104.962 104.417 114.14C104.868 121.61 111.398 134.963 133.906 128.615Z" fill="#372B41"/>
<path d="M131.315 127.067C128.316 120.135 119.235 108.131 106.897 115.57C107.238 121.569 112.6 132.266 131.315 127.067Z" fill="#C09808"/>
<path d="M181.907 128.615C185.566 119.966 196.586 104.962 211.397 114.14C210.945 121.61 204.416 134.963 181.907 128.615Z" fill="#372B41"/>
<path d="M184.498 127.067C187.497 120.135 196.579 108.131 208.916 115.57C208.575 121.569 203.214 132.266 184.498 127.067Z" fill="#C09808"/>
<path d="M133.906 130.09C130.248 121.441 119.228 106.437 104.417 115.615C104.868 123.085 111.398 136.438 133.906 130.09Z" fill="#302639"/>
<path d="M131.315 128.541C128.316 121.61 119.235 109.606 106.897 117.045C107.238 123.044 112.6 133.741 131.315 128.541Z" fill="#120F02"/>
<path d="M181.907 130.09C185.566 121.441 196.586 106.437 211.397 115.615C210.945 123.085 204.416 136.438 181.907 130.09Z" fill="#302639"/>
<path d="M184.498 128.541C187.497 121.61 196.579 109.606 208.916 117.045C208.575 123.044 203.214 133.741 184.498 128.541Z" fill="#120F02"/>
<path d="M133.906 128.615C130.248 119.966 119.228 104.962 104.417 114.14C104.868 121.61 111.398 134.963 133.906 128.615Z" fill="#372B41"/>
<path d="M131.315 127.067C128.316 120.135 119.235 108.131 106.897 115.57C107.238 121.569 112.6 132.266 131.315 127.067Z" fill="#C09808"/>
<path d="M181.907 128.615C185.566 119.966 196.586 104.962 211.397 114.14C210.945 121.61 204.416 134.963 181.907 128.615Z" fill="#372B41"/>
<path d="M184.498 127.067C187.497 120.135 196.579 108.131 208.916 115.57C208.575 121.569 203.214 132.266 184.498 127.067Z" fill="#C09808"/>
<ellipse cx="14.1471" cy="4.71571" rx="14.1471" ry="4.71571" transform="matrix(-1 0 0 1 71.3701 83.5355)" fill="#31384F" stroke="#3C4666" stroke-width="2"/>
<path d="M49.0794 88.9502C56.9651 92.4199 64.4565 90.396 67.2165 88.9502C66.5593 86.4531 62.0907 83.8245 63.6679 75.5446C64.8133 69.5318 92.4117 54.4879 88.5078 38.4819C84.565 22.3163 60.5137 25.0763 58.9365 34.9334C57.6748 42.819 63.4051 45.3162 66.4279 45.5791C61.6965 41.6808 61.3022 30.9906 71.1593 34.1448C83.7763 40.8476 69.9765 51.8876 56.9651 60.9561C43.9537 70.0246 48.6851 88.556 49.0794 88.9502Z" fill="#431D67"/>
<mask id="mask2_45_7083" style="mask-type:alpha" maskUnits="userSpaceOnUse" x="47" y="26" width="42" height="65">
<path d="M49.0794 88.9502C56.9651 92.4199 64.4565 90.396 67.2165 88.9502C66.5593 86.4531 62.0907 83.8245 63.6679 75.5446C64.8133 69.5318 92.4117 54.4879 88.5078 38.4819C84.565 22.3163 60.5137 25.0763 58.9365 34.9334C57.6748 42.819 63.4051 45.3162 66.4279 45.5791C61.6965 41.6808 61.3022 30.9906 71.1593 34.1448C83.7763 40.8476 69.9765 51.8876 56.9651 60.9561C43.9537 70.0246 48.6851 88.556 49.0794 88.9502Z" fill="#5C2095"/>
</mask>
<g mask="url(#mask2_45_7083)">
<ellipse cx="1.97142" cy="1.18285" rx="1.97142" ry="1.18285" transform="matrix(-0.979379 -0.202032 -0.202032 0.979379 52.0215 84.9349)" fill="#623557"/>
<ellipse cx="1.97142" cy="1.18285" rx="1.97142" ry="1.18285" transform="matrix(-0.993434 0.114408 0.114408 0.993434 51.5527 77.4152)" fill="#623557"/>
<ellipse cx="1.97142" cy="1.18285" rx="1.97142" ry="1.18285" transform="matrix(-0.993434 0.114408 0.114408 0.993434 57.0732 71.1066)" fill="#623557"/>
<ellipse cx="1.97142" cy="1.18285" rx="1.97142" ry="1.18285" transform="matrix(-0.885506 -0.464628 -0.464628 0.885506 54.9785 68.2073)" fill="#623557"/>
<ellipse cx="2.78562" cy="1.67137" rx="2.78562" ry="1.67137" transform="matrix(-0.885506 -0.464628 -0.464628 0.885506 62.0742 67.3867)" fill="#623557"/>
<ellipse cx="2.57739" cy="1.54644" rx="2.57739" ry="1.54644" transform="matrix(-0.984784 -0.17378 -0.17378 0.984784 59.708 60.9626)" fill="#623557"/>
<ellipse cx="1.61142" cy="0.966852" rx="1.61142" ry="0.966852" transform="matrix(-0.984784 -0.17378 -0.17378 0.984784 66.0176 62.2039)" fill="#623557"/>
<ellipse cx="0.678573" cy="0.407144" rx="0.678573" ry="0.407144" transform="matrix(-0.984784 -0.17378 -0.17378 0.984784 65.2295 60.3026)" fill="#623557"/>
<ellipse cx="0.678573" cy="0.407144" rx="0.678573" ry="0.407144" transform="matrix(-0.984784 -0.17378 -0.17378 0.984784 66.0176 57.9369)" fill="#623557"/>
<ellipse cx="0.678573" cy="0.407144" rx="0.678573" ry="0.407144" transform="matrix(-0.984784 -0.17378 -0.17378 0.984784 61.2861 65.0339)" fill="#623557"/>
<ellipse cx="0.678573" cy="0.407144" rx="0.678573" ry="0.407144" transform="matrix(-0.984784 -0.17378 -0.17378 0.984784 61.2861 61.0911)" fill="#623557"/>
<ellipse cx="1.61142" cy="0.966852" rx="1.61142" ry="0.966852" transform="matrix(-0.984784 -0.17378 -0.17378 0.984784 63.6514 57.4724)" fill="#623557"/>
<ellipse cx="1.61142" cy="0.966852" rx="1.61142" ry="0.966852" transform="matrix(-0.960533 -0.278166 -0.278166 0.960533 69.9609 59.386)" fill="#623557"/>
<ellipse cx="2.84663" cy="1.70798" rx="2.84663" ry="1.70798" transform="matrix(-0.960533 -0.278166 -0.278166 0.960533 69.1709 53.7648)" fill="#623557"/>
<ellipse cx="2.84663" cy="1.70798" rx="2.84663" ry="1.70798" transform="matrix(-0.99549 -0.0948635 -0.0948635 0.99549 73.5312 48.3431)" fill="#623557"/>
<ellipse cx="2.84663" cy="1.70798" rx="2.84663" ry="1.70798" transform="matrix(-0.99549 -0.0948635 -0.0948635 0.99549 77.5303 42.7693)" fill="#623557"/>
<ellipse cx="2.30966" cy="1.3858" rx="2.30966" ry="1.3858" transform="matrix(-0.99549 -0.0948635 -0.0948635 0.99549 78.0693 38.7968)" fill="#623557"/>
<ellipse cx="2.30966" cy="1.3858" rx="2.30966" ry="1.3858" transform="matrix(-0.880771 0.473542 0.473542 0.880771 75.7451 34.0439)" fill="#623557"/>
<ellipse cx="2.30966" cy="1.3858" rx="2.30966" ry="1.3858" transform="matrix(-0.880771 0.473542 0.473542 0.880771 81.2646 30.1011)" fill="#623557"/>
<ellipse cx="2.84663" cy="1.70798" rx="2.84663" ry="1.70798" transform="matrix(-0.960533 -0.278166 -0.278166 0.960533 76.2686 56.1305)" fill="#623557"/>
<ellipse cx="2.84663" cy="1.70798" rx="2.84663" ry="1.70798" transform="matrix(-0.99549 -0.0948635 -0.0948635 0.99549 80.9443 49.349)" fill="#623557"/>
<ellipse cx="2.84663" cy="1.70798" rx="2.84663" ry="1.70798" transform="matrix(-0.99549 -0.0948635 -0.0948635 0.99549 84.9434 43.7753)" fill="#623557"/>
<ellipse cx="2.84663" cy="1.70798" rx="2.84663" ry="1.70798" transform="matrix(-0.941516 0.336969 0.336969 0.941516 84.5801 36.4098)" fill="#623557"/>
<ellipse cx="1.02917" cy="0.617504" rx="1.02917" ry="0.617504" transform="matrix(-0.960533 -0.278166 -0.278166 0.960533 71.5371 52.7535)" fill="#623557"/>
<ellipse cx="1.02917" cy="0.617504" rx="1.02917" ry="0.617504" transform="matrix(-0.99549 -0.0948635 -0.0948635 0.99549 75.6689 46.91)" fill="#623557"/>
<ellipse cx="1.02917" cy="0.617504" rx="1.02917" ry="0.617504" transform="matrix(-0.99549 -0.0948635 -0.0948635 0.99549 79.4229 46.0677)" fill="#623557"/>
<ellipse cx="1.02917" cy="0.617504" rx="1.02917" ry="0.617504" transform="matrix(-0.99549 -0.0948635 -0.0948635 0.99549 80.2119 42.125)" fill="#623557"/>
<ellipse cx="1.02917" cy="0.617504" rx="1.02917" ry="0.617504" transform="matrix(-0.941516 0.336969 0.336969 0.941516 79.5957 36.9253)" fill="#623557"/>
<ellipse cx="1.02917" cy="0.93272" rx="1.02917" ry="0.93272" transform="matrix(-0.941516 0.336969 0.336969 0.941516 76.4287 31.6783)" fill="#623557"/>
<ellipse cx="1.61452" cy="1.46321" rx="1.61452" ry="1.46321" transform="matrix(-0.941516 0.336969 0.336969 0.941516 75.2236 27.0388)" fill="#623557"/>
<ellipse cx="1.61452" cy="1.46321" rx="1.61452" ry="1.46321" transform="matrix(-0.941516 0.336969 0.336969 0.941516 71.3398 31.6783)" fill="#623557"/>
<ellipse cx="0.958293" cy="0.868483" rx="0.958293" ry="0.868483" transform="matrix(-0.941516 0.336969 0.336969 0.941516 69.375 29.3125)" fill="#623557"/>
<ellipse cx="0.958293" cy="0.868483" rx="0.958293" ry="0.868483" transform="matrix(-0.941516 0.336969 0.336969 0.941516 65.4316 28.524)" fill="#623557"/>
<ellipse cx="0.958293" cy="0.868483" rx="0.958293" ry="0.868483" transform="matrix(-0.941516 0.336969 0.336969 0.941516 67.0098 32.4669)" fill="#623557"/>
<ellipse cx="0.958293" cy="0.868483" rx="0.958293" ry="0.868483" transform="matrix(-0.941516 0.336969 0.336969 0.941516 64.6436 31.6783)" fill="#623557"/>
<ellipse cx="0.958293" cy="0.868483" rx="0.958293" ry="0.868483" transform="matrix(-0.941516 0.336969 0.336969 0.941516 64.6436 34.8326)" fill="#623557"/>
<ellipse cx="0.50786" cy="0.460264" rx="0.50786" ry="0.460264" transform="matrix(-0.941516 0.336969 0.336969 0.941516 62.5527 34.0439)" fill="#623557"/>
<ellipse cx="0.50786" cy="0.460264" rx="0.50786" ry="0.460264" transform="matrix(-0.941516 0.336969 0.336969 0.941516 60.9756 37.1984)" fill="#623557"/>
<ellipse cx="0.50786" cy="0.460264" rx="0.50786" ry="0.460264" transform="matrix(-0.941516 0.336969 0.336969 0.941516 63.3408 37.9868)" fill="#623557"/>
<ellipse cx="0.50786" cy="0.460264" rx="0.50786" ry="0.460264" transform="matrix(-0.941516 0.336969 0.336969 0.941516 62.5527 40.3525)" fill="#623557"/>
<ellipse cx="0.50786" cy="0.460264" rx="0.50786" ry="0.460264" transform="matrix(-0.941516 0.336969 0.336969 0.941516 64.1309 41.9297)" fill="#623557"/>
<ellipse cx="0.50786" cy="0.460264" rx="0.50786" ry="0.460264" transform="matrix(-0.941516 0.336969 0.336969 0.941516 64.9189 43.5068)" fill="#623557"/>
<ellipse cx="1.21561" cy="0.729366" rx="1.21561" ry="0.729366" transform="matrix(-0.993434 0.114408 0.114408 0.993434 54.8105 78.2036)" fill="#623557"/>
<ellipse cx="1.21561" cy="0.729366" rx="1.21561" ry="0.729366" transform="matrix(-0.954482 -0.298269 -0.298269 0.954482 52.6123 71.0432)" fill="#623557"/>
<ellipse cx="3.23118" cy="1.93871" rx="3.23118" ry="1.93871" transform="matrix(-0.979379 -0.202032 -0.202032 0.979379 56.5547 81.0864)" fill="#623557"/>
<ellipse cx="3.23118" cy="1.93871" rx="3.23118" ry="1.93871" transform="matrix(-0.986159 0.165801 0.165801 0.986159 52.7568 72.6838)" fill="#623557"/>
<path d="M60.1428 70.7123C54.1497 76.39 58.1714 86.4836 60.9314 90.8207L70.7884 89.6379C66.1884 87.535 60.0639 80.8059 72.3656 70.7123C84.6672 60.6186 88.794 48.8953 89.3197 44.2953C89.714 40.3524 88.4523 29.3914 77.097 26.5525C65.7416 23.7137 60.4056 30.4953 58.9599 35.2267C60.9313 29.8382 68.3439 23.1617 80.6455 31.6782C96.0226 42.3239 67.6342 63.6152 60.1428 70.7123Z" fill="#34194C"/>
</g>
<path d="M72.61 27.3815C76.0445 27.1909 83.6716 28.6717 86.7042 36.1198C85.1314 33.788 80.1106 28.7758 72.61 27.3815Z" fill="#441E69"/>
<ellipse cx="11.9927" cy="3.48176" rx="11.9927" ry="3.48176" transform="matrix(-1 0 0 1 28.8008 141.245)" fill="#31384F" stroke="#3C4666" stroke-width="2"/>
<path d="M5.40537 145.07C14.945 149.267 24.0076 146.819 27.3464 145.07C26.5515 142.049 21.1456 138.869 23.0536 128.852C24.4392 121.579 57.826 103.379 53.1033 84.0164C48.3336 64.4602 19.2378 67.7991 17.3299 79.7235C15.8035 89.2631 22.7356 92.284 26.3925 92.602C20.6687 87.8861 20.1917 74.9538 32.1162 78.7696C47.3795 86.8783 30.6853 100.234 14.945 111.204C-0.795357 122.175 4.92839 144.593 5.40537 145.07Z" fill="#5C2095"/>
<mask id="mask3_45_7083" style="mask-type:alpha" maskUnits="userSpaceOnUse" x="4" y="70" width="50" height="78">
<path d="M5.4044 145.07C14.944 149.267 24.0066 146.819 27.3454 145.07C26.5505 142.049 21.1446 138.869 23.0526 128.852C24.4382 121.579 57.825 103.379 53.1023 84.0164C48.3326 64.4602 19.2368 67.7991 17.3289 79.7235C15.8026 89.2631 22.7346 92.284 26.3915 92.602C20.6677 87.8861 20.1907 74.9538 32.1152 78.7696C47.3785 86.8783 30.6843 100.234 14.944 111.204C-0.796333 122.175 4.92742 144.593 5.4044 145.07Z" fill="#5C2095"/>
</mask>
<g mask="url(#mask3_45_7083)">
<ellipse cx="2.3849" cy="1.43094" rx="2.3849" ry="1.43094" transform="matrix(-0.979379 -0.202032 -0.202032 0.979379 8.96387 140.212)" fill="#954A83"/>
<ellipse cx="2.3849" cy="1.43094" rx="2.3849" ry="1.43094" transform="matrix(-0.993434 0.114408 0.114408 0.993434 8.39746 131.115)" fill="#954A83"/>
<ellipse cx="2.3849" cy="1.43094" rx="2.3849" ry="1.43094" transform="matrix(-0.993434 0.114408 0.114408 0.993434 15.0742 123.484)" fill="#954A83"/>
<ellipse cx="2.3849" cy="1.43094" rx="2.3849" ry="1.43094" transform="matrix(-0.885506 -0.464628 -0.464628 0.885506 12.54 119.976)" fill="#954A83"/>
<ellipse cx="3.36987" cy="2.02192" rx="3.36987" ry="2.02192" transform="matrix(-0.885506 -0.464628 -0.464628 0.885506 21.126 118.983)" fill="#954A83"/>
<ellipse cx="3.11797" cy="1.87078" rx="3.11797" ry="1.87078" transform="matrix(-0.984784 -0.17378 -0.17378 0.984784 18.2637 111.212)" fill="#954A83"/>
<ellipse cx="1.94939" cy="1.16964" rx="1.94939" ry="1.16964" transform="matrix(-0.984784 -0.17378 -0.17378 0.984784 25.8955 112.714)" fill="#954A83"/>
<ellipse cx="0.820895" cy="0.492537" rx="0.820895" ry="0.492537" transform="matrix(-0.984784 -0.17378 -0.17378 0.984784 24.9414 110.413)" fill="#954A83"/>
<ellipse cx="0.820895" cy="0.492537" rx="0.820895" ry="0.492537" transform="matrix(-0.984784 -0.17378 -0.17378 0.984784 25.8955 107.552)" fill="#954A83"/>
<ellipse cx="0.820895" cy="0.492537" rx="0.820895" ry="0.492537" transform="matrix(-0.984784 -0.17378 -0.17378 0.984784 20.1719 116.137)" fill="#954A83"/>
<ellipse cx="0.820895" cy="0.492537" rx="0.820895" ry="0.492537" transform="matrix(-0.984784 -0.17378 -0.17378 0.984784 20.1719 111.367)" fill="#954A83"/>
<ellipse cx="1.94939" cy="1.16964" rx="1.94939" ry="1.16964" transform="matrix(-0.984784 -0.17378 -0.17378 0.984784 23.0332 106.99)" fill="#954A83"/>
<ellipse cx="1.94939" cy="1.16964" rx="1.94939" ry="1.16964" transform="matrix(-0.960533 -0.278166 -0.278166 0.960533 30.665 109.305)" fill="#954A83"/>
<ellipse cx="3.44368" cy="2.06621" rx="3.44368" ry="2.06621" transform="matrix(-0.960533 -0.278166 -0.278166 0.960533 29.7109 102.505)" fill="#954A83"/>
<ellipse cx="3.44368" cy="2.06621" rx="3.44368" ry="2.06621" transform="matrix(-0.99549 -0.0948635 -0.0948635 0.99549 34.9844 95.9459)" fill="#954A83"/>
<ellipse cx="3.44368" cy="2.06621" rx="3.44368" ry="2.06621" transform="matrix(-0.99549 -0.0948635 -0.0948635 0.99549 39.8232 89.203)" fill="#954A83"/>
<ellipse cx="2.79408" cy="1.67645" rx="2.79408" ry="1.67645" transform="matrix(-0.99549 -0.0948635 -0.0948635 0.99549 40.4756 84.3971)" fill="#954A83"/>
<ellipse cx="2.79408" cy="1.67645" rx="2.79408" ry="1.67645" transform="matrix(-0.880771 0.473542 0.473542 0.880771 37.6641 78.6476)" fill="#954A83"/>
<ellipse cx="2.79408" cy="1.67645" rx="2.79408" ry="1.67645" transform="matrix(-0.880771 0.473542 0.473542 0.880771 44.3408 73.8777)" fill="#954A83"/>
<ellipse cx="3.44368" cy="2.06621" rx="3.44368" ry="2.06621" transform="matrix(-0.960533 -0.278166 -0.278166 0.960533 38.2969 105.366)" fill="#954A83"/>
<ellipse cx="3.44368" cy="2.06621" rx="3.44368" ry="2.06621" transform="matrix(-0.99549 -0.0948635 -0.0948635 0.99549 43.9531 97.1627)" fill="#954A83"/>
<ellipse cx="3.44368" cy="2.06621" rx="3.44368" ry="2.06621" transform="matrix(-0.99549 -0.0948635 -0.0948635 0.99549 48.79 90.42)" fill="#954A83"/>
<ellipse cx="3.44368" cy="2.06621" rx="3.44368" ry="2.06621" transform="matrix(-0.941516 0.336969 0.336969 0.941516 48.3516 81.5096)" fill="#954A83"/>
<ellipse cx="1.24503" cy="0.747017" rx="1.24503" ry="0.747017" transform="matrix(-0.960533 -0.278166 -0.278166 0.960533 32.5732 101.281)" fill="#954A83"/>
<ellipse cx="1.24503" cy="0.747017" rx="1.24503" ry="0.747017" transform="matrix(-0.99549 -0.0948635 -0.0948635 0.99549 37.5703 94.2123)" fill="#954A83"/>
<ellipse cx="1.24503" cy="0.747017" rx="1.24503" ry="0.747017" transform="matrix(-0.99549 -0.0948635 -0.0948635 0.99549 42.1123 93.1934)" fill="#954A83"/>
<ellipse cx="1.24503" cy="0.747017" rx="1.24503" ry="0.747017" transform="matrix(-0.99549 -0.0948635 -0.0948635 0.99549 43.0664 88.4233)" fill="#954A83"/>
<ellipse cx="1.24503" cy="0.747017" rx="1.24503" ry="0.747017" transform="matrix(-0.941516 0.336969 0.336969 0.941516 42.3213 82.1332)" fill="#954A83"/>
<ellipse cx="1.24503" cy="1.12835" rx="1.24503" ry="1.12835" transform="matrix(-0.941516 0.336969 0.336969 0.941516 38.4902 75.7858)" fill="#954A83"/>
<ellipse cx="1.95315" cy="1.7701" rx="1.95315" ry="1.7701" transform="matrix(-0.941516 0.336969 0.336969 0.941516 37.0332 70.1732)" fill="#954A83"/>
<ellipse cx="1.95315" cy="1.7701" rx="1.95315" ry="1.7701" transform="matrix(-0.941516 0.336969 0.336969 0.941516 32.335 75.7858)" fill="#954A83"/>
<ellipse cx="1.15928" cy="1.05064" rx="1.15928" ry="1.05064" transform="matrix(-0.941516 0.336969 0.336969 0.941516 29.957 72.9238)" fill="#954A83"/>
<ellipse cx="1.15928" cy="1.05064" rx="1.15928" ry="1.05064" transform="matrix(-0.941516 0.336969 0.336969 0.941516 25.1875 71.9698)" fill="#954A83"/>
<ellipse cx="1.15928" cy="1.05064" rx="1.15928" ry="1.05064" transform="matrix(-0.941516 0.336969 0.336969 0.941516 27.0957 76.7397)" fill="#954A83"/>
<ellipse cx="1.15928" cy="1.05064" rx="1.15928" ry="1.05064" transform="matrix(-0.941516 0.336969 0.336969 0.941516 24.2334 75.7858)" fill="#954A83"/>
<ellipse cx="1.15928" cy="1.05064" rx="1.15928" ry="1.05064" transform="matrix(-0.941516 0.336969 0.336969 0.941516 24.2334 79.6014)" fill="#954A83"/>
<ellipse cx="0.614377" cy="0.556799" rx="0.614377" ry="0.556799" transform="matrix(-0.941516 0.336969 0.336969 0.941516 21.7051 78.6476)" fill="#954A83"/>
<ellipse cx="0.614377" cy="0.556799" rx="0.614377" ry="0.556799" transform="matrix(-0.941516 0.336969 0.336969 0.941516 19.7969 82.4636)" fill="#954A83"/>
<ellipse cx="0.614377" cy="0.556799" rx="0.614377" ry="0.556799" transform="matrix(-0.941516 0.336969 0.336969 0.941516 22.6582 83.4176)" fill="#954A83"/>
<ellipse cx="0.614377" cy="0.556799" rx="0.614377" ry="0.556799" transform="matrix(-0.941516 0.336969 0.336969 0.941516 21.7051 86.2793)" fill="#954A83"/>
<ellipse cx="0.614377" cy="0.556799" rx="0.614377" ry="0.556799" transform="matrix(-0.941516 0.336969 0.336969 0.941516 23.6123 88.1874)" fill="#954A83"/>
<ellipse cx="0.614377" cy="0.556799" rx="0.614377" ry="0.556799" transform="matrix(-0.941516 0.336969 0.336969 0.941516 24.5664 90.0952)" fill="#954A83"/>
<ellipse cx="1.47057" cy="0.88234" rx="1.47057" ry="0.88234" transform="matrix(-0.993434 0.114408 0.114408 0.993434 12.3379 132.069)" fill="#954A83"/>
<ellipse cx="1.47057" cy="0.88234" rx="1.47057" ry="0.88234" transform="matrix(-0.954482 -0.298269 -0.298269 0.954482 9.67871 123.407)" fill="#954A83"/>
<ellipse cx="3.90888" cy="2.34533" rx="3.90888" ry="2.34533" transform="matrix(-0.979379 -0.202032 -0.202032 0.979379 14.4482 135.557)" fill="#954A83"/>
<ellipse cx="3.90888" cy="2.34533" rx="3.90888" ry="2.34533" transform="matrix(-0.986159 0.165801 0.165801 0.986159 9.85449 125.391)" fill="#954A83"/>
<path d="M18.7888 123.007C11.5387 129.875 16.4039 142.086 19.7427 147.333L31.6672 145.902C26.1024 143.358 18.6933 135.217 33.5751 123.007C48.4569 110.796 53.4492 96.6139 54.0852 91.0491C54.5622 86.2793 53.0359 73.0193 39.2988 69.585C25.5618 66.1508 19.1067 74.3548 17.3578 80.0786C19.7427 73.5599 28.7099 65.483 43.5917 75.7858C62.1939 88.6642 27.8514 114.421 18.7888 123.007Z" fill="#4F227A"/>
</g>
<path d="M33.8717 70.5876C38.0266 70.357 47.2535 72.1484 50.9221 81.1587C49.0194 78.3378 42.9456 72.2743 33.8717 70.5876Z" fill="#7330B3"/>
<ellipse cx="299.446" cy="144.726" rx="11.9927" ry="3.48176" fill="#31384F" stroke="#3C4666" stroke-width="2"/>
<path d="M310.849 145.07C301.309 149.267 292.246 146.819 288.907 145.07C289.702 142.049 295.108 138.869 293.2 128.852C291.815 121.579 258.428 103.379 263.151 84.0164C267.92 64.4602 297.016 67.7991 298.924 79.7235C300.45 89.2631 293.518 92.284 289.861 92.602C295.585 87.8861 296.062 74.9538 284.138 78.7696C268.874 86.8783 285.569 100.234 301.309 111.204C317.049 122.175 311.326 144.593 310.849 145.07Z" fill="#5C2095"/>
<mask id="mask4_45_7083" style="mask-type:alpha" maskUnits="userSpaceOnUse" x="262" y="70" width="51" height="78">
<path d="M310.85 145.07C301.31 149.267 292.247 146.819 288.908 145.07C289.703 142.049 295.109 138.869 293.201 128.852C291.816 121.579 258.429 103.379 263.152 84.0164C267.921 64.4602 297.017 67.7991 298.925 79.7235C300.451 89.2631 293.519 92.284 289.862 92.602C295.586 87.8861 296.063 74.9538 284.139 78.7696C268.875 86.8783 285.57 100.234 301.31 111.204C317.05 122.175 311.326 144.593 310.85 145.07Z" fill="#5C2095"/>
</mask>
<g mask="url(#mask4_45_7083)">
<ellipse cx="309.915" cy="141.132" rx="2.3849" ry="1.43094" transform="rotate(-11.6558 309.915 141.132)" fill="#954A83"/>
<ellipse cx="310.062" cy="132.81" rx="2.3849" ry="1.43094" transform="rotate(6.56946 310.062 132.81)" fill="#954A83"/>
<ellipse cx="303.385" cy="125.178" rx="2.3849" ry="1.43094" transform="rotate(6.56946 303.385 125.178)" fill="#954A83"/>
<ellipse cx="306.491" cy="120.135" rx="2.3849" ry="1.43094" transform="rotate(-27.6861 306.491 120.135)" fill="#954A83"/>
<ellipse cx="299.051" cy="119.208" rx="3.36987" ry="2.02192" transform="rotate(-27.6861 299.051 119.208)" fill="#954A83"/>
<ellipse cx="301.386" cy="112.513" rx="3.11797" ry="1.87078" transform="rotate(-10.0077 301.386 112.513)" fill="#954A83"/>
<ellipse cx="292.481" cy="113.527" rx="1.94939" ry="1.16964" transform="rotate(-10.0077 292.481 113.527)" fill="#954A83"/>
<ellipse cx="292.207" cy="110.756" rx="0.820895" ry="0.492537" transform="rotate(-10.0077 292.207 110.756)" fill="#954A83"/>
<ellipse cx="291.252" cy="107.894" rx="0.820895" ry="0.492537" transform="rotate(-10.0077 291.252 107.894)" fill="#954A83"/>
<ellipse cx="296.976" cy="116.48" rx="0.820895" ry="0.492537" transform="rotate(-10.0077 296.976 116.48)" fill="#954A83"/>
<ellipse cx="296.976" cy="111.71" rx="0.820895" ry="0.492537" transform="rotate(-10.0077 296.976 111.71)" fill="#954A83"/>
<ellipse cx="295.344" cy="107.803" rx="1.94939" ry="1.16964" transform="rotate(-10.0077 295.344 107.803)" fill="#954A83"/>
<ellipse cx="287.787" cy="109.886" rx="1.94939" ry="1.16964" transform="rotate(-16.1508 287.787 109.886)" fill="#954A83"/>
<ellipse cx="290.425" cy="103.531" rx="3.44368" ry="2.06621" transform="rotate(-16.1508 290.425 103.531)" fill="#954A83"/>
<ellipse cx="284.894" cy="97.6761" rx="3.44368" ry="2.06621" transform="rotate(-5.44346 284.894 97.6761)" fill="#954A83"/>
<ellipse cx="280.055" cy="90.9332" rx="3.44368" ry="2.06621" transform="rotate(-5.44346 280.055 90.9332)" fill="#954A83"/>
<ellipse cx="278.719" cy="85.8009" rx="2.79408" ry="1.67645" transform="rotate(-5.44346 278.719 85.8009)" fill="#954A83"/>
<ellipse cx="280.257" cy="81.4473" rx="2.79408" ry="1.67645" transform="rotate(28.2645 280.257 81.4473)" fill="#954A83"/>
<ellipse cx="273.58" cy="76.6774" rx="2.79408" ry="1.67645" transform="rotate(28.2645 273.58 76.6774)" fill="#954A83"/>
<ellipse cx="281.84" cy="106.393" rx="3.44368" ry="2.06621" transform="rotate(-16.1508 281.84 106.393)" fill="#954A83"/>
<ellipse cx="275.925" cy="98.8929" rx="3.44368" ry="2.06621" transform="rotate(-5.44346 275.925 98.8929)" fill="#954A83"/>
<ellipse cx="271.088" cy="92.1503" rx="3.44368" ry="2.06621" transform="rotate(-5.44346 271.088 92.1503)" fill="#954A83"/>
<ellipse cx="270.448" cy="84.6154" rx="3.44368" ry="2.06621" transform="rotate(19.6923 270.448 84.6154)" fill="#954A83"/>
<ellipse cx="285.084" cy="101.652" rx="1.24503" ry="0.747017" transform="rotate(-16.1508 285.084 101.652)" fill="#954A83"/>
<ellipse cx="279.994" cy="94.8378" rx="1.24503" ry="0.747017" transform="rotate(-5.44346 279.994 94.8378)" fill="#954A83"/>
<ellipse cx="275.452" cy="93.8189" rx="1.24503" ry="0.747017" transform="rotate(-5.44346 275.452 93.8189)" fill="#954A83"/>
<ellipse cx="274.498" cy="89.0489" rx="1.24503" ry="0.747017" transform="rotate(-5.44346 274.498 89.0489)" fill="#954A83"/>
<ellipse cx="274.853" cy="83.256" rx="1.24503" ry="0.747017" transform="rotate(19.6923 274.853 83.256)" fill="#954A83"/>
<ellipse cx="278.556" cy="77.2677" rx="1.24503" ry="1.12835" transform="rotate(19.6923 278.556 77.2677)" fill="#954A83"/>
<ellipse cx="280.463" cy="72.4979" rx="1.95315" ry="1.7701" transform="rotate(19.6923 280.463 72.4979)" fill="#954A83"/>
<ellipse cx="285.161" cy="78.1105" rx="1.95315" ry="1.7701" transform="rotate(19.6923 285.161 78.1105)" fill="#954A83"/>
<ellipse cx="287.034" cy="74.3037" rx="1.15928" ry="1.05064" transform="rotate(19.6923 287.034 74.3037)" fill="#954A83"/>
<ellipse cx="291.804" cy="73.3497" rx="1.15928" ry="1.05064" transform="rotate(19.6923 291.804 73.3497)" fill="#954A83"/>
<ellipse cx="289.896" cy="78.1196" rx="1.15928" ry="1.05064" transform="rotate(19.6923 289.896 78.1196)" fill="#954A83"/>
<ellipse cx="292.758" cy="77.1656" rx="1.15928" ry="1.05064" transform="rotate(19.6923 292.758 77.1656)" fill="#954A83"/>
<ellipse cx="292.758" cy="80.9813" rx="1.15928" ry="1.05064" transform="rotate(19.6923 292.758 80.9813)" fill="#954A83"/>
<ellipse cx="294.94" cy="79.3788" rx="0.614377" ry="0.556799" transform="rotate(19.6923 294.94 79.3788)" fill="#954A83"/>
<ellipse cx="296.848" cy="83.1949" rx="0.614377" ry="0.556799" transform="rotate(19.6923 296.848 83.1949)" fill="#954A83"/>
<ellipse cx="293.987" cy="84.1489" rx="0.614377" ry="0.556799" transform="rotate(19.6923 293.987 84.1489)" fill="#954A83"/>
<ellipse cx="294.94" cy="87.0106" rx="0.614377" ry="0.556799" transform="rotate(19.6923 294.94 87.0106)" fill="#954A83"/>
<ellipse cx="293.032" cy="88.9186" rx="0.614377" ry="0.556799" transform="rotate(19.6923 293.032 88.9186)" fill="#954A83"/>
<ellipse cx="292.078" cy="90.8265" rx="0.614377" ry="0.556799" transform="rotate(19.6923 292.078 90.8265)" fill="#954A83"/>
<ellipse cx="305.276" cy="133.114" rx="1.47057" ry="0.88234" transform="rotate(6.56946 305.276 133.114)" fill="#954A83"/>
<ellipse cx="308.242" cy="123.811" rx="1.47057" ry="0.88234" transform="rotate(-17.3536 308.242 123.811)" fill="#954A83"/>
<ellipse cx="306.108" cy="137.064" rx="3.90888" ry="2.34533" transform="rotate(-11.6558 306.108 137.064)" fill="#954A83"/>
<ellipse cx="309.865" cy="128.352" rx="3.90888" ry="2.34533" transform="rotate(9.54376 309.865 128.352)" fill="#954A83"/>
<path d="M297.465 123.007C304.715 129.875 299.85 142.086 296.511 147.333L284.587 145.902C290.151 143.358 297.561 135.217 282.679 123.007C267.797 110.796 262.805 96.6139 262.169 91.0491C261.692 86.2793 263.218 73.0193 276.955 69.585C290.692 66.1508 297.147 74.3548 298.896 80.0786C296.511 73.5599 287.544 65.483 272.662 75.7858C254.06 88.6642 288.403 114.421 297.465 123.007Z" fill="#4F227A"/>
</g>
<path d="M282.382 70.5876C278.227 70.357 269 72.1484 265.332 81.1587C267.234 78.3378 273.308 72.2743 282.382 70.5876Z" fill="#7330B3"/>
<ellipse cx="14.1471" cy="4.71571" rx="14.1471" ry="4.71571" transform="matrix(-1 0 0 1 274.018 82.1881)" fill="#31384F" stroke="#3C4666" stroke-width="2"/>
<path d="M267.468 87.603C259.583 91.0727 252.091 89.0487 249.331 87.603C249.989 85.1058 254.457 82.4773 252.88 74.1973C251.735 68.1845 224.136 53.1406 228.04 37.1346C231.983 20.969 256.034 23.729 257.611 33.5861C258.873 41.4718 253.143 43.9689 250.12 44.2318C254.851 40.3335 255.246 29.6433 245.389 32.7975C232.772 39.5004 246.571 50.5403 259.583 59.6088C272.594 68.6773 267.863 87.2087 267.468 87.603Z" fill="#431D67"/>
<mask id="mask5_45_7083" style="mask-type:alpha" maskUnits="userSpaceOnUse" x="227" y="25" width="42" height="65">
<path d="M267.468 87.603C259.583 91.0727 252.091 89.0487 249.331 87.603C249.989 85.1058 254.457 82.4773 252.88 74.1973C251.735 68.1845 224.136 53.1406 228.04 37.1346C231.983 20.969 256.034 23.729 257.611 33.5861C258.873 41.4718 253.143 43.9689 250.12 44.2318C254.851 40.3335 255.246 29.6433 245.389 32.7975C232.772 39.5004 246.571 50.5403 259.583 59.6088C272.594 68.6773 267.863 87.2087 267.468 87.603Z" fill="#5C2095"/>
</mask>
<g mask="url(#mask5_45_7083)">
<ellipse cx="266.696" cy="84.3478" rx="1.97142" ry="1.18285" transform="rotate(-11.6558 266.696 84.3478)" fill="#623557"/>
<ellipse cx="266.818" cy="77.4685" rx="1.97142" ry="1.18285" transform="rotate(6.56946 266.818 77.4685)" fill="#623557"/>
<ellipse cx="261.298" cy="71.1599" rx="1.97142" ry="1.18285" transform="rotate(6.56946 261.298 71.1599)" fill="#623557"/>
<ellipse cx="263.865" cy="66.9914" rx="1.97142" ry="1.18285" transform="rotate(-27.6861 263.865 66.9914)" fill="#623557"/>
<ellipse cx="257.717" cy="66.2252" rx="2.78562" ry="1.67137" transform="rotate(-27.6861 257.717 66.2252)" fill="#623557"/>
<ellipse cx="259.647" cy="60.6904" rx="2.57739" ry="1.54644" transform="rotate(-10.0077 259.647 60.6904)" fill="#623557"/>
<ellipse cx="252.285" cy="61.5287" rx="1.61142" ry="0.966852" transform="rotate(-10.0077 252.285 61.5287)" fill="#623557"/>
<ellipse cx="252.057" cy="59.2383" rx="0.678573" ry="0.407144" transform="rotate(-10.0077 252.057 59.2383)" fill="#623557"/>
<ellipse cx="251.269" cy="56.8726" rx="0.678573" ry="0.407144" transform="rotate(-10.0077 251.269 56.8726)" fill="#623557"/>
<ellipse cx="256.001" cy="63.9697" rx="0.678573" ry="0.407144" transform="rotate(-10.0077 256.001 63.9697)" fill="#623557"/>
<ellipse cx="256.001" cy="60.0268" rx="0.678573" ry="0.407144" transform="rotate(-10.0077 256.001 60.0268)" fill="#623557"/>
<ellipse cx="254.651" cy="56.7972" rx="1.61142" ry="0.966852" transform="rotate(-10.0077 254.651 56.7972)" fill="#623557"/>
<ellipse cx="248.404" cy="58.5191" rx="1.61142" ry="0.966852" transform="rotate(-16.1508 248.404 58.5191)" fill="#623557"/>
<ellipse cx="250.586" cy="53.2662" rx="2.84663" ry="1.70798" transform="rotate(-16.1508 250.586 53.2662)" fill="#623557"/>
<ellipse cx="246.012" cy="48.4261" rx="2.84663" ry="1.70798" transform="rotate(-5.44346 246.012 48.4261)" fill="#623557"/>
<ellipse cx="242.013" cy="42.8522" rx="2.84663" ry="1.70798" transform="rotate(-5.44346 242.013 42.8522)" fill="#623557"/>
<ellipse cx="240.909" cy="38.6099" rx="2.30966" ry="1.3858" transform="rotate(-5.44346 240.909 38.6099)" fill="#623557"/>
<ellipse cx="242.181" cy="35.0109" rx="2.30966" ry="1.3858" transform="rotate(28.2645 242.181 35.0109)" fill="#623557"/>
<ellipse cx="236.661" cy="31.0681" rx="2.30966" ry="1.3858" transform="rotate(28.2645 236.661 31.0681)" fill="#623557"/>
<ellipse cx="243.489" cy="55.6319" rx="2.84663" ry="1.70798" transform="rotate(-16.1508 243.489 55.6319)" fill="#623557"/>
<ellipse cx="238.599" cy="49.4319" rx="2.84663" ry="1.70798" transform="rotate(-5.44346 238.599 49.4319)" fill="#623557"/>
<ellipse cx="234.6" cy="43.8582" rx="2.84663" ry="1.70798" transform="rotate(-5.44346 234.6 43.8582)" fill="#623557"/>
<ellipse cx="234.072" cy="37.6298" rx="2.84663" ry="1.70798" transform="rotate(19.6923 234.072 37.6298)" fill="#623557"/>
<ellipse cx="246.171" cy="51.7131" rx="1.02917" ry="0.617504" transform="rotate(-16.1508 246.171 51.7131)" fill="#623557"/>
<ellipse cx="241.962" cy="46.0798" rx="1.02917" ry="0.617504" transform="rotate(-5.44346 241.962 46.0798)" fill="#623557"/>
<ellipse cx="238.208" cy="45.2375" rx="1.02917" ry="0.617504" transform="rotate(-5.44346 238.208 45.2375)" fill="#623557"/>
<ellipse cx="237.419" cy="41.2947" rx="1.02917" ry="0.617504" transform="rotate(-5.44346 237.419 41.2947)" fill="#623557"/>
<ellipse cx="237.713" cy="36.5063" rx="1.02917" ry="0.617504" transform="rotate(19.6923 237.713 36.5063)" fill="#623557"/>
<ellipse cx="240.774" cy="31.556" rx="1.02917" ry="0.93272" transform="rotate(19.6923 240.774 31.556)" fill="#623557"/>
<ellipse cx="242.351" cy="27.6132" rx="1.61452" ry="1.46321" transform="rotate(19.6923 242.351 27.6132)" fill="#623557"/>
<ellipse cx="246.235" cy="32.2527" rx="1.61452" ry="1.46321" transform="rotate(19.6923 246.235 32.2527)" fill="#623557"/>
<ellipse cx="247.782" cy="29.1058" rx="0.958293" ry="0.868483" transform="rotate(19.6923 247.782 29.1058)" fill="#623557"/>
<ellipse cx="251.726" cy="28.3174" rx="0.958293" ry="0.868483" transform="rotate(19.6923 251.726 28.3174)" fill="#623557"/>
<ellipse cx="250.148" cy="32.2602" rx="0.958293" ry="0.868483" transform="rotate(19.6923 250.148 32.2602)" fill="#623557"/>
<ellipse cx="252.514" cy="31.4717" rx="0.958293" ry="0.868483" transform="rotate(19.6923 252.514 31.4717)" fill="#623557"/>
<ellipse cx="252.514" cy="34.626" rx="0.958293" ry="0.868483" transform="rotate(19.6923 252.514 34.626)" fill="#623557"/>
<ellipse cx="254.318" cy="33.3011" rx="0.50786" ry="0.460264" transform="rotate(19.6923 254.318 33.3011)" fill="#623557"/>
<ellipse cx="255.895" cy="36.4556" rx="0.50786" ry="0.460264" transform="rotate(19.6923 255.895 36.4556)" fill="#623557"/>
<ellipse cx="253.53" cy="37.244" rx="0.50786" ry="0.460264" transform="rotate(19.6923 253.53 37.244)" fill="#623557"/>
<ellipse cx="254.318" cy="39.6099" rx="0.50786" ry="0.460264" transform="rotate(19.6923 254.318 39.6099)" fill="#623557"/>
<ellipse cx="252.74" cy="41.1869" rx="0.50786" ry="0.460264" transform="rotate(19.6923 252.74 41.1869)" fill="#623557"/>
<ellipse cx="251.952" cy="42.764" rx="0.50786" ry="0.460264" transform="rotate(19.6923 251.952 42.764)" fill="#623557"/>
<ellipse cx="262.861" cy="77.72" rx="1.21561" ry="0.729366" transform="rotate(6.56946 262.861 77.72)" fill="#623557"/>
<ellipse cx="265.313" cy="70.0295" rx="1.21561" ry="0.729366" transform="rotate(-17.3536 265.313 70.0295)" fill="#623557"/>
<ellipse cx="263.549" cy="80.9851" rx="3.23118" ry="1.93871" transform="rotate(-11.6558 263.549 80.9851)" fill="#623557"/>
<ellipse cx="266.656" cy="73.7842" rx="3.23118" ry="1.93871" transform="rotate(9.54376 266.656 73.7842)" fill="#623557"/>
<path d="M256.405 69.365C262.398 75.0427 258.376 85.1363 255.616 89.4735L245.759 88.2906C250.359 86.1877 256.484 79.4586 244.182 69.365C231.881 59.2714 227.754 47.548 227.228 42.948C226.834 39.0051 228.096 28.0441 239.451 25.2052C250.806 22.3664 256.142 29.148 257.588 33.8794C255.617 28.4909 248.204 21.8144 235.902 30.3309C220.525 40.9766 248.914 62.2679 256.405 69.365Z" fill="#34194C"/>
</g>
<path d="M243.938 26.0342C240.503 25.8436 232.876 27.3244 229.844 34.7725C231.416 32.4407 236.437 27.4285 243.938 26.0342Z" fill="#441E69"/>
<g clip-path="url(#clip0_45_7083)">
<path d="M74.7531 141.646L100.329 153.893C103.507 155.415 103.714 158.247 100.791 160.215L61.9797 186.336C59.0566 188.304 54.1048 188.665 50.9268 187.144L25.351 174.897L23.5996 149.912C23.4198 147.45 26.7634 145.2 31.0675 144.885L74.7531 141.646Z" fill="#363B54"/>
<path d="M74.7527 141.646L100.328 153.893C103.506 155.415 103.713 158.247 100.79 160.215L81.3797 173.279L76.9093 171.173L74.7527 141.646Z" fill="#596284"/>
<path d="M25.2803 174.944L50.8561 187.191C54.034 188.712 58.9859 188.351 61.909 186.383L81.3194 173.319L76.9091 171.173L25.2803 174.944Z" fill="#7781A4"/>
<path d="M25.2803 174.944L50.8561 187.191C54.034 188.712 58.9859 188.351 61.909 186.383L81.3194 173.319L76.9091 171.173L25.2803 174.944Z" fill="#596284"/>
<path d="M102.847 156.875C102.93 157.872 102.418 158.918 101.329 159.827L61.7893 186.464C60.3435 187.375 58.44 187.916 56.5178 188.057L54.8246 164.875C54.6448 162.414 57.9983 160.157 62.3125 159.836L102.847 156.875Z" fill="#7781A4"/>
</g>
<ellipse cx="20.8839" cy="6.06306" rx="20.8839" ry="6.06306" transform="matrix(-1 0 0 1 121.29 176.502)" fill="#31384F" stroke="#3C4666" stroke-width="2"/>
<path d="M118.848 183.163C102.236 190.473 86.4542 186.209 80.6399 183.163C82.0243 177.903 91.4379 172.366 88.1154 154.923C85.7026 142.256 27.5635 110.565 35.7874 76.8463C44.0934 42.7917 94.7602 48.6059 98.0826 69.3709C100.741 85.983 88.6691 91.2435 82.3011 91.7972C92.2684 83.585 93.0991 61.0649 72.3339 67.7097C45.7548 81.83 74.8257 105.087 102.236 124.191C129.645 143.295 119.678 182.333 118.848 183.163Z" fill="#5C2095"/>
<mask id="mask6_45_7083" style="mask-type:alpha" maskUnits="userSpaceOnUse" x="34" y="52" width="88" height="136">
<path d="M118.848 183.163C102.236 190.473 86.4542 186.209 80.6399 183.163C82.0243 177.903 91.4379 172.366 88.1154 154.923C85.7026 142.256 27.5635 110.565 35.7874 76.8463C44.0934 42.7917 94.7602 48.6059 98.0826 69.3709C100.741 85.983 88.6691 91.2435 82.3011 91.7972C92.2684 83.585 93.0991 61.0649 72.3339 67.7097C45.7548 81.83 74.8257 105.087 102.236 124.191C129.645 143.295 119.678 182.333 118.848 183.163Z" fill="#5C2095"/>
</mask>
<g mask="url(#mask6_45_7083)">
<ellipse cx="117.222" cy="176.306" rx="4.15301" ry="2.49181" transform="rotate(-11.6558 117.222 176.306)" fill="#954A83"/>
<ellipse cx="117.479" cy="161.814" rx="4.15301" ry="2.49181" transform="rotate(6.56946 117.479 161.814)" fill="#954A83"/>
<ellipse cx="105.851" cy="148.525" rx="4.15301" ry="2.49181" transform="rotate(6.56946 105.851 148.525)" fill="#954A83"/>
<ellipse cx="111.259" cy="139.743" rx="4.15301" ry="2.49181" transform="rotate(-27.6861 111.259 139.743)" fill="#954A83"/>
<ellipse cx="98.3049" cy="138.129" rx="5.86822" ry="3.52093" transform="rotate(-27.6861 98.3049 138.129)" fill="#954A83"/>
<ellipse cx="102.369" cy="126.469" rx="5.42957" ry="3.25774" transform="rotate(-10.0077 102.369 126.469)" fill="#954A83"/>
<ellipse cx="86.8639" cy="128.235" rx="3.39464" ry="2.03678" transform="rotate(-10.0077 86.8639 128.235)" fill="#954A83"/>
<ellipse cx="86.3849" cy="123.41" rx="1.42949" ry="0.857694" transform="rotate(-10.0077 86.3849 123.41)" fill="#954A83"/>
<ellipse cx="84.7238" cy="118.427" rx="1.42949" ry="0.857694" transform="rotate(-10.0077 84.7238 118.427)" fill="#954A83"/>
<ellipse cx="94.6906" cy="133.377" rx="1.42949" ry="0.857694" transform="rotate(-10.0077 94.6906 133.377)" fill="#954A83"/>
<ellipse cx="94.6906" cy="125.071" rx="1.42949" ry="0.857694" transform="rotate(-10.0077 94.6906 125.071)" fill="#954A83"/>
<ellipse cx="91.8473" cy="118.268" rx="3.39464" ry="2.03678" transform="rotate(-10.0077 91.8473 118.268)" fill="#954A83"/>
<ellipse cx="78.6876" cy="121.895" rx="3.39463" ry="2.03678" transform="rotate(-16.1508 78.6876 121.895)" fill="#954A83"/>
<ellipse cx="83.2834" cy="110.829" rx="5.99675" ry="3.59805" transform="rotate(-16.1508 83.2834 110.829)" fill="#954A83"/>
<ellipse cx="73.6479" cy="100.633" rx="5.99675" ry="3.59805" transform="rotate(-5.44346 73.6479 100.633)" fill="#954A83"/>
<ellipse cx="65.2261" cy="88.8914" rx="5.99675" ry="3.59805" transform="rotate(-5.44346 65.2261 88.8914)" fill="#954A83"/>
<ellipse cx="62.8989" cy="79.954" rx="4.86556" ry="2.91934" transform="rotate(-5.44346 62.8989 79.954)" fill="#954A83"/>
<ellipse cx="65.5788" cy="72.3727" rx="4.86556" ry="2.91934" transform="rotate(28.2645 65.5788 72.3727)" fill="#954A83"/>
<ellipse cx="53.9499" cy="64.0666" rx="4.86556" ry="2.91934" transform="rotate(28.2645 53.9499 64.0666)" fill="#954A83"/>
<ellipse cx="68.3322" cy="115.813" rx="5.99675" ry="3.59805" transform="rotate(-16.1508 68.3322 115.813)" fill="#954A83"/>
<ellipse cx="58.0317" cy="102.752" rx="5.99675" ry="3.59805" transform="rotate(-5.44346 58.0317 102.752)" fill="#954A83"/>
<ellipse cx="49.6089" cy="91.0104" rx="5.99675" ry="3.59805" transform="rotate(-5.44346 49.6089 91.0104)" fill="#954A83"/>
<ellipse cx="48.4951" cy="77.8894" rx="5.99675" ry="3.59805" transform="rotate(19.6923 48.4951 77.8894)" fill="#954A83"/>
<ellipse cx="73.9824" cy="107.558" rx="2.16807" ry="1.30084" transform="rotate(-16.1508 73.9824 107.558)" fill="#954A83"/>
<ellipse cx="65.1176" cy="95.6905" rx="2.16807" ry="1.30084" transform="rotate(-5.44346 65.1176 95.6905)" fill="#954A83"/>
<ellipse cx="57.2085" cy="93.9161" rx="2.16807" ry="1.30084" transform="rotate(-5.44346 57.2085 93.9161)" fill="#954A83"/>
<ellipse cx="55.5463" cy="85.6102" rx="2.16807" ry="1.30084" transform="rotate(-5.44346 55.5463 85.6102)" fill="#954A83"/>
<ellipse cx="56.1644" cy="75.5226" rx="2.16807" ry="1.30084" transform="rotate(19.6923 56.1644 75.5226)" fill="#954A83"/>
<ellipse cx="62.6135" cy="65.0943" rx="2.16807" ry="1.96488" transform="rotate(19.6923 62.6135 65.0943)" fill="#954A83"/>
<ellipse cx="65.9351" cy="56.7881" rx="3.40117" ry="3.08242" transform="rotate(19.6923 65.9351 56.7881)" fill="#954A83"/>
<ellipse cx="74.1177" cy="66.562" rx="3.40117" ry="3.08242" transform="rotate(19.6923 74.1177 66.562)" fill="#954A83"/>
<ellipse cx="77.3779" cy="59.933" rx="2.01875" ry="1.82956" transform="rotate(19.6923 77.3779 59.933)" fill="#954A83"/>
<ellipse cx="85.6846" cy="58.2718" rx="2.01875" ry="1.82956" transform="rotate(19.6923 85.6846 58.2718)" fill="#954A83"/>
<ellipse cx="82.3623" cy="66.5777" rx="2.01875" ry="1.82956" transform="rotate(19.6923 82.3623 66.5777)" fill="#954A83"/>
<ellipse cx="87.3447" cy="64.9166" rx="2.01875" ry="1.82956" transform="rotate(19.6923 87.3447 64.9166)" fill="#954A83"/>
<ellipse cx="87.3447" cy="71.5614" rx="2.01875" ry="1.82956" transform="rotate(19.6923 87.3447 71.5614)" fill="#954A83"/>
<ellipse cx="91.1454" cy="68.7708" rx="1.06986" ry="0.969598" transform="rotate(19.6923 91.1454 68.7708)" fill="#954A83"/>
<ellipse cx="94.4677" cy="75.4156" rx="1.06986" ry="0.969598" transform="rotate(19.6923 94.4677 75.4156)" fill="#954A83"/>
<ellipse cx="89.4843" cy="77.0767" rx="1.06986" ry="0.969598" transform="rotate(19.6923 89.4843 77.0767)" fill="#954A83"/>
<ellipse cx="91.1454" cy="82.0604" rx="1.06986" ry="0.969598" transform="rotate(19.6923 91.1454 82.0604)" fill="#954A83"/>
<ellipse cx="87.8232" cy="85.3829" rx="1.06986" ry="0.969598" transform="rotate(19.6923 87.8232 85.3829)" fill="#954A83"/>
<ellipse cx="86.162" cy="88.7052" rx="1.06986" ry="0.969598" transform="rotate(19.6923 86.162 88.7052)" fill="#954A83"/>
<ellipse cx="109.143" cy="162.344" rx="2.56082" ry="1.53649" transform="rotate(6.56946 109.143 162.344)" fill="#954A83"/>
<ellipse cx="114.31" cy="146.143" rx="2.56082" ry="1.53649" transform="rotate(-17.3536 114.31 146.143)" fill="#954A83"/>
<ellipse cx="110.593" cy="169.222" rx="6.80685" ry="4.08411" transform="rotate(-11.6558 110.593 169.222)" fill="#954A83"/>
<ellipse cx="117.136" cy="154.053" rx="6.80685" ry="4.08411" transform="rotate(9.54376 117.136 154.053)" fill="#954A83"/>
<path d="M95.5418 144.743C108.167 156.704 99.6948 177.968 93.8806 187.104L73.1156 184.612C82.8059 180.182 95.7079 166.007 69.7932 144.743C43.8784 123.48 35.1847 98.7834 34.0773 89.093C33.2467 80.787 35.9046 57.6963 59.8259 51.716C83.7473 45.7356 94.9881 60.0219 98.0336 69.9892C93.8806 58.6376 78.2653 44.5728 52.3505 62.5138C19.957 84.9401 79.7603 129.793 95.5418 144.743Z" fill="#4F227A"/>
</g>
<path d="M69.2766 53.4619C62.0415 53.0604 45.974 56.18 39.5855 71.8703C42.8988 66.958 53.4757 56.3992 69.2766 53.4619Z" fill="#7330B3"/>
<ellipse cx="22.9995" cy="6.06306" rx="22.9995" ry="6.06306" transform="matrix(-0.998512 -0.0545332 -0.0545332 0.998512 235.762 228.747)" fill="#31384F" stroke="#3C4666" stroke-width="2"/>
<path d="M194.652 231.07C208.331 242.998 225.256 236.327 231.714 235.153C231.96 229.719 224.625 221.627 232.995 205.967C239.073 194.595 304.015 181.671 306.213 147.033C308.433 112.051 258.336 102.501 248.976 121.333C241.489 136.398 251.444 145.017 257.357 147.443C250.29 136.634 256.209 114.889 274.05 127.42C295.213 148.82 260.532 162.357 228.675 172.424C196.817 182.491 194.107 230.03 194.652 231.07Z" fill="#5C2095"/>
<mask id="mask7_45_7083" style="mask-type:alpha" maskUnits="userSpaceOnUse" x="194" y="111" width="113" height="128">
<path d="M194.651 231.07C208.33 242.998 225.256 236.327 231.714 235.153C231.96 229.719 224.625 221.627 232.995 205.968C239.073 194.595 304.015 181.671 306.213 147.033C308.433 112.051 258.336 102.501 248.976 121.333C241.489 136.398 251.444 145.017 257.357 147.443C250.29 136.634 256.209 114.889 274.05 127.42C295.213 148.82 260.532 162.357 228.675 172.424C196.817 182.491 194.106 230.03 194.651 231.07Z" fill="#5C2095"/>
</mask>
<g mask="url(#mask7_45_7083)">
<ellipse cx="4.15301" cy="2.49181" rx="4.15301" ry="2.49181" transform="matrix(-0.874667 -0.484725 -0.484725 0.874667 203.678 217.539)" fill="#954A83"/>
<ellipse cx="4.15301" cy="2.49181" rx="4.15301" ry="2.49181" transform="matrix(-0.982388 -0.186853 -0.186853 0.982388 207.457 202.123)" fill="#954A83"/>
<ellipse cx="4.15301" cy="2.49181" rx="4.15301" ry="2.49181" transform="matrix(-0.982388 -0.186853 -0.186853 0.982388 222.518 192.903)" fill="#954A83"/>
<ellipse cx="4.15301" cy="2.49181" rx="4.15301" ry="2.49181" transform="matrix(-0.706801 -0.707413 -0.707413 0.706801 220.124 185.757)" fill="#954A83"/>
<ellipse cx="5.86822" cy="3.52093" rx="5.86822" ry="3.52093" transform="matrix(-0.706801 -0.707413 -0.707413 0.706801 234.91 188.562)" fill="#954A83"/>
<ellipse cx="5.42957" cy="3.25774" rx="5.42957" ry="3.25774" transform="matrix(-0.888246 -0.459368 -0.459368 0.888246 234.187 174.159)" fill="#954A83"/>
<ellipse cx="3.39463" cy="2.03678" rx="3.39463" ry="2.03678" transform="matrix(-0.888246 -0.459368 -0.459368 0.888246 246.093 180.616)" fill="#954A83"/>
<ellipse cx="1.42949" cy="0.857694" rx="1.42949" ry="0.857694" transform="matrix(-0.888246 -0.459368 -0.459368 0.888246 245.701 176.297)" fill="#954A83"/>
<ellipse cx="1.42949" cy="0.857694" rx="1.42949" ry="0.857694" transform="matrix(-0.888246 -0.459368 -0.459368 0.888246 248.772 172.035)" fill="#954A83"/>
<ellipse cx="1.42949" cy="0.857694" rx="1.42949" ry="0.857694" transform="matrix(-0.888246 -0.459368 -0.459368 0.888246 234.803 183.336)" fill="#954A83"/>
<ellipse cx="1.42949" cy="0.857694" rx="1.42949" ry="0.857694" transform="matrix(-0.888246 -0.459368 -0.459368 0.888246 237.277 175.408)" fill="#954A83"/>
<ellipse cx="3.39463" cy="2.03678" rx="3.39463" ry="2.03678" transform="matrix(-0.888246 -0.459368 -0.459368 0.888246 244.307 169.616)" fill="#954A83"/>
<ellipse cx="3.39463" cy="2.03678" rx="3.39463" ry="2.03678" transform="matrix(-0.833987 -0.551783 -0.551783 0.833987 255.792 177.425)" fill="#954A83"/>
<ellipse cx="5.99675" cy="3.59805" rx="5.99675" ry="3.59805" transform="matrix(-0.833987 -0.551783 -0.551783 0.833987 257.735 165.626)" fill="#954A83"/>
<ellipse cx="5.99675" cy="3.59805" rx="5.99675" ry="3.59805" transform="matrix(-0.921984 -0.387228 -0.387228 0.921984 269.906 157.461)" fill="#954A83"/>
<ellipse cx="5.99675" cy="3.59805" rx="5.99675" ry="3.59805" transform="matrix(-0.921984 -0.387228 -0.387228 0.921984 281.445 148.763)" fill="#954A83"/>
<ellipse cx="4.86556" cy="2.91934" rx="4.86556" ry="2.91934" transform="matrix(-0.921984 -0.387228 -0.387228 0.921984 285.024 141.113)" fill="#954A83"/>
<ellipse cx="4.86556" cy="2.91934" rx="4.86556" ry="2.91934" transform="matrix(-0.981873 0.189538 0.189538 0.981873 283.333 130.097)" fill="#954A83"/>
<ellipse cx="4.86556" cy="2.91934" rx="4.86556" ry="2.91934" transform="matrix(-0.981873 0.189538 0.189538 0.981873 296.908 125.633)" fill="#954A83"/>
<ellipse cx="5.99675" cy="3.59805" rx="5.99675" ry="3.59805" transform="matrix(-0.833987 -0.551783 -0.551783 0.833987 270.521 174.839)" fill="#954A83"/>
<ellipse cx="5.99675" cy="3.59805" rx="5.99675" ry="3.59805" transform="matrix(-0.921984 -0.387228 -0.387228 0.921984 284.181 164.138)" fill="#954A83"/>
<ellipse cx="5.99675" cy="3.59805" rx="5.99675" ry="3.59805" transform="matrix(-0.921984 -0.387228 -0.387228 0.921984 295.72 155.44)" fill="#954A83"/>
<ellipse cx="5.99675" cy="3.59805" rx="5.99675" ry="3.59805" transform="matrix(-0.999156 0.0410678 0.0410678 0.999156 299.616 140.401)" fill="#954A83"/>
<ellipse cx="2.16807" cy="1.30084" rx="2.16807" ry="1.30084" transform="matrix(-0.833987 -0.551783 -0.551783 0.833987 263.127 165.078)" fill="#954A83"/>
<ellipse cx="2.16807" cy="1.30084" rx="2.16807" ry="1.30084" transform="matrix(-0.921984 -0.387228 -0.387228 0.921984 275.102 155.921)" fill="#954A83"/>
<ellipse cx="2.16807" cy="1.30084" rx="2.16807" ry="1.30084" transform="matrix(-0.921984 -0.387228 -0.387228 0.921984 283.181 156.584)" fill="#954A83"/>
<ellipse cx="2.16807" cy="1.30084" rx="2.16807" ry="1.30084" transform="matrix(-0.921984 -0.387228 -0.387228 0.921984 287.242 149.151)" fill="#954A83"/>
<ellipse cx="2.16807" cy="1.30084" rx="2.16807" ry="1.30084" transform="matrix(-0.999156 0.0410678 0.0410678 0.999156 289.269 138.308)" fill="#954A83"/>
<ellipse cx="2.16807" cy="1.96488" rx="2.16807" ry="1.96488" transform="matrix(-0.999156 0.0410678 0.0410678 0.999156 286.193 125.769)" fill="#954A83"/>
<ellipse cx="3.40117" cy="3.08242" rx="3.40117" ry="3.08242" transform="matrix(-0.999156 0.0410678 0.0410678 0.999156 286.684 115.683)" fill="#954A83"/>
<ellipse cx="3.40117" cy="3.08242" rx="3.40117" ry="3.08242" transform="matrix(-0.999156 0.0410678 0.0410678 0.999156 275.961 122.574)" fill="#954A83"/>
<ellipse cx="2.01875" cy="1.82956" rx="2.01875" ry="1.82956" transform="matrix(-0.999156 0.0410678 0.0410678 0.999156 273.494 116.583)" fill="#954A83"/>
<ellipse cx="2.01875" cy="1.82956" rx="2.01875" ry="1.82956" transform="matrix(-0.999156 0.0410678 0.0410678 0.999156 266.062 112.522)" fill="#954A83"/>
<ellipse cx="2.01875" cy="1.82956" rx="2.01875" ry="1.82956" transform="matrix(-0.999156 0.0410678 0.0410678 0.999156 266.757 121.441)" fill="#954A83"/>
<ellipse cx="2.01875" cy="1.82956" rx="2.01875" ry="1.82956" transform="matrix(-0.999156 0.0410678 0.0410678 0.999156 262.495 118.37)" fill="#954A83"/>
<ellipse cx="2.01875" cy="1.82956" rx="2.01875" ry="1.82956" transform="matrix(-0.999156 0.0410678 0.0410678 0.999156 260.516 124.713)" fill="#954A83"/>
<ellipse cx="1.06986" cy="0.969598" rx="1.06986" ry="0.969598" transform="matrix(-0.999156 0.0410678 0.0410678 0.999156 256.806 121.815)" fill="#954A83"/>
<ellipse cx="1.06986" cy="0.969598" rx="1.06986" ry="0.969598" transform="matrix(-0.999156 0.0410678 0.0410678 0.999156 251.653 127.167)" fill="#954A83"/>
<ellipse cx="1.06986" cy="0.969598" rx="1.06986" ry="0.969598" transform="matrix(-0.999156 0.0410678 0.0410678 0.999156 255.917 130.238)" fill="#954A83"/>
<ellipse cx="1.06986" cy="0.969598" rx="1.06986" ry="0.969598" transform="matrix(-0.999156 0.0410678 0.0410678 0.999156 252.846 134.5)" fill="#954A83"/>
<ellipse cx="1.06986" cy="0.969598" rx="1.06986" ry="0.969598" transform="matrix(-0.999156 0.0410678 0.0410678 0.999156 255.027 138.662)" fill="#954A83"/>
<ellipse cx="1.06986" cy="0.969598" rx="1.06986" ry="0.969598" transform="matrix(-0.999156 0.0410678 0.0410678 0.999156 255.622 142.328)" fill="#954A83"/>
<ellipse cx="2.56082" cy="1.53649" rx="2.56082" ry="1.53649" transform="matrix(-0.982388 -0.186853 -0.186853 0.982388 213.514 205.754)" fill="#954A83"/>
<ellipse cx="2.56082" cy="1.53649" rx="2.56082" ry="1.53649" transform="matrix(-0.82222 -0.569169 -0.569169 0.82222 213.587 189.975)" fill="#954A83"/>
<ellipse cx="6.80685" cy="4.08411" rx="6.80685" ry="4.08411" transform="matrix(-0.874667 -0.484725 -0.484725 0.874667 215.211 212.646)" fill="#954A83"/>
<ellipse cx="6.80685" cy="4.08411" rx="6.80685" ry="4.08411" transform="matrix(-0.99076 -0.135627 -0.135627 0.99076 212.851 193.365)" fill="#954A83"/>
<path d="M228.939 194.038C213.323 201.692 215.074 224.514 217.901 234.969L238.465 238.778C230.535 231.662 222.444 214.285 253.518 201.711C284.592 189.137 300.251 168.154 304.196 159.234C307.464 151.553 311.808 128.719 290.756 115.881C269.704 103.044 254.716 113.331 248.839 121.938C256.186 112.34 275.283 103.567 294.674 128.416C318.912 159.477 248.459 184.469 228.939 194.038Z" fill="#4F227A"/>
</g>
<path d="M281.214 114.731C288.24 116.504 302.647 124.271 304.07 141.152C302.371 135.475 295.421 122.244 281.214 114.731Z" fill="#7330B3"/>
<path d="M179.337 162.399C169.935 161.948 174.84 115.326 178.468 92.0712L278.949 108.253L264.04 176.502L235.072 176.502L130.652 175.778L179.337 162.399Z" fill="#D9D9D9"/>
<mask id="mask8_45_7083" style="mask-type:alpha" maskUnits="userSpaceOnUse" x="130" y="92" width="149" height="85">
<path d="M179.335 162.399C169.933 161.948 174.838 115.326 178.466 92.0712L278.947 108.253L264.039 176.502L235.07 176.502L130.65 175.778L179.335 162.399Z" fill="#D9D9D9"/>
</mask>
<g mask="url(#mask8_45_7083)">
<path d="M178.483 162.355H165.683L128.631 158.313C124.364 164.825 115.831 178.119 115.831 179.197C115.831 180.275 128.406 187.281 134.694 190.65L185.893 196.713L277.513 183.913L290.312 99.03H265.386C259.773 110.932 249.218 137.564 251.913 148.882C254.608 160.2 244.053 162.58 238.44 162.355H178.483Z" fill="#B8B8B8"/>
</g>
<g clip-path="url(#clip1_45_7083)">
<path d="M194.652 231.07C208.331 242.998 225.256 236.327 231.714 235.153C231.96 229.719 224.625 221.627 232.995 205.967C239.073 194.595 304.015 181.671 306.213 147.033C308.433 112.051 258.336 102.501 248.976 121.333C241.489 136.398 251.444 145.017 257.357 147.443C250.29 136.634 256.209 114.889 274.05 127.42C295.213 148.82 260.532 162.357 228.675 172.424C196.817 182.491 194.107 230.03 194.652 231.07Z" fill="#5C2095"/>
<mask id="mask9_45_7083" style="mask-type:alpha" maskUnits="userSpaceOnUse" x="194" y="111" width="113" height="128">
<path d="M194.651 231.07C208.33 242.998 225.256 236.327 231.714 235.153C231.96 229.719 224.625 221.627 232.995 205.968C239.073 194.595 304.015 181.671 306.213 147.033C308.433 112.051 258.336 102.501 248.976 121.333C241.489 136.398 251.444 145.017 257.357 147.443C250.29 136.634 256.209 114.889 274.05 127.42C295.213 148.82 260.532 162.357 228.675 172.424C196.817 182.491 194.106 230.03 194.651 231.07Z" fill="#5C2095"/>
</mask>
<g mask="url(#mask9_45_7083)">
<ellipse cx="5.99675" cy="3.59805" rx="5.99675" ry="3.59805" transform="matrix(-0.921984 -0.387228 -0.387228 0.921984 269.906 157.461)" fill="#954A83"/>
<ellipse cx="5.99675" cy="3.59805" rx="5.99675" ry="3.59805" transform="matrix(-0.921984 -0.387228 -0.387228 0.921984 281.445 148.763)" fill="#954A83"/>
<ellipse cx="4.86556" cy="2.91934" rx="4.86556" ry="2.91934" transform="matrix(-0.921984 -0.387228 -0.387228 0.921984 285.024 141.113)" fill="#954A83"/>
<ellipse cx="4.86556" cy="2.91934" rx="4.86556" ry="2.91934" transform="matrix(-0.981873 0.189538 0.189538 0.981873 283.333 130.097)" fill="#954A83"/>
<ellipse cx="4.86556" cy="2.91934" rx="4.86556" ry="2.91934" transform="matrix(-0.981873 0.189538 0.189538 0.981873 296.908 125.633)" fill="#954A83"/>
<ellipse cx="5.99675" cy="3.59805" rx="5.99675" ry="3.59805" transform="matrix(-0.921984 -0.387228 -0.387228 0.921984 295.72 155.44)" fill="#954A83"/>
<ellipse cx="5.99675" cy="3.59805" rx="5.99675" ry="3.59805" transform="matrix(-0.999156 0.0410678 0.0410678 0.999156 299.616 140.401)" fill="#954A83"/>
<ellipse cx="2.16807" cy="1.30084" rx="2.16807" ry="1.30084" transform="matrix(-0.921984 -0.387228 -0.387228 0.921984 275.102 155.921)" fill="#954A83"/>
<ellipse cx="2.16807" cy="1.30084" rx="2.16807" ry="1.30084" transform="matrix(-0.921984 -0.387228 -0.387228 0.921984 283.181 156.584)" fill="#954A83"/>
<ellipse cx="2.16807" cy="1.30084" rx="2.16807" ry="1.30084" transform="matrix(-0.921984 -0.387228 -0.387228 0.921984 287.242 149.151)" fill="#954A83"/>
<ellipse cx="2.16807" cy="1.30084" rx="2.16807" ry="1.30084" transform="matrix(-0.999156 0.0410678 0.0410678 0.999156 289.269 138.308)" fill="#954A83"/>
<ellipse cx="2.16807" cy="1.96488" rx="2.16807" ry="1.96488" transform="matrix(-0.999156 0.0410678 0.0410678 0.999156 286.193 125.769)" fill="#954A83"/>
<ellipse cx="3.40117" cy="3.08242" rx="3.40117" ry="3.08242" transform="matrix(-0.999156 0.0410678 0.0410678 0.999156 286.684 115.683)" fill="#954A83"/>
<ellipse cx="3.40117" cy="3.08242" rx="3.40117" ry="3.08242" transform="matrix(-0.999156 0.0410678 0.0410678 0.999156 275.961 122.574)" fill="#954A83"/>
<ellipse cx="2.01875" cy="1.82956" rx="2.01875" ry="1.82956" transform="matrix(-0.999156 0.0410678 0.0410678 0.999156 273.494 116.583)" fill="#954A83"/>
<ellipse cx="2.01875" cy="1.82956" rx="2.01875" ry="1.82956" transform="matrix(-0.999156 0.0410678 0.0410678 0.999156 266.062 112.522)" fill="#954A83"/>
<ellipse cx="2.01875" cy="1.82956" rx="2.01875" ry="1.82956" transform="matrix(-0.999156 0.0410678 0.0410678 0.999156 266.757 121.441)" fill="#954A83"/>
<ellipse cx="2.01875" cy="1.82956" rx="2.01875" ry="1.82956" transform="matrix(-0.999156 0.0410678 0.0410678 0.999156 262.495 118.37)" fill="#954A83"/>
<ellipse cx="2.01875" cy="1.82956" rx="2.01875" ry="1.82956" transform="matrix(-0.999156 0.0410678 0.0410678 0.999156 260.516 124.713)" fill="#954A83"/>
<ellipse cx="1.06986" cy="0.969598" rx="1.06986" ry="0.969598" transform="matrix(-0.999156 0.0410678 0.0410678 0.999156 256.806 121.815)" fill="#954A83"/>
<ellipse cx="1.06986" cy="0.969598" rx="1.06986" ry="0.969598" transform="matrix(-0.999156 0.0410678 0.0410678 0.999156 251.653 127.167)" fill="#954A83"/>
<ellipse cx="1.06986" cy="0.969598" rx="1.06986" ry="0.969598" transform="matrix(-0.999156 0.0410678 0.0410678 0.999156 255.917 130.238)" fill="#954A83"/>
<ellipse cx="1.06986" cy="0.969598" rx="1.06986" ry="0.969598" transform="matrix(-0.999156 0.0410678 0.0410678 0.999156 252.846 134.5)" fill="#954A83"/>
<ellipse cx="1.06986" cy="0.969598" rx="1.06986" ry="0.969598" transform="matrix(-0.999156 0.0410678 0.0410678 0.999156 255.027 138.662)" fill="#954A83"/>
<ellipse cx="1.06986" cy="0.969598" rx="1.06986" ry="0.969598" transform="matrix(-0.999156 0.0410678 0.0410678 0.999156 255.622 142.328)" fill="#954A83"/>
<path d="M228.939 194.038C213.323 201.692 215.074 224.514 217.901 234.969L238.465 238.778C230.535 231.662 222.444 214.285 253.518 201.711C284.592 189.137 300.251 168.154 304.196 159.234C307.464 151.553 311.808 128.719 290.756 115.881C269.704 103.044 254.716 113.331 248.839 121.938C256.186 112.34 275.283 103.567 294.674 128.416C318.912 159.477 248.459 184.469 228.939 194.038Z" fill="#4F227A"/>
</g>
<path d="M281.214 114.731C288.24 116.504 302.647 124.271 304.07 141.152C302.371 135.475 295.421 122.244 281.214 114.731Z" fill="#7330B3"/>
</g>
<defs>
<clipPath id="clip0_45_7083">
<rect width="61.7818" height="61.7818" fill="white" transform="matrix(0.829598 -0.558361 0.901927 0.431889 0 163.864)"/>
</clipPath>
<clipPath id="clip1_45_7083">
<rect width="128" height="57" fill="white" transform="translate(186.502 98)"/>
</clipPath>
</defs>
</svg>
