<svg width="352" height="150" viewBox="0 0 352 150" fill="none" xmlns="http://www.w3.org/2000/svg">
<path d="M62.1449 139.103C56.5805 139.103 51.4948 138.449 47.759 137.362C45.8997 136.822 44.3017 136.153 43.1396 135.354C42.0182 134.583 41.0249 133.488 41.0249 132.051C41.0249 130.614 42.0182 129.519 43.1396 128.749C44.3017 127.95 45.8997 127.281 47.759 126.741C51.4948 125.654 56.5805 125 62.1449 125C67.7092 125 72.7949 125.654 76.5307 126.741C78.39 127.281 79.988 127.95 81.1501 128.749C82.2715 129.519 83.2649 130.614 83.2649 132.051C83.2649 133.488 82.2715 134.583 81.1501 135.354C79.988 136.153 78.39 136.822 76.5307 137.362C72.7949 138.449 67.7092 139.103 62.1449 139.103Z" fill="#31384F" stroke="#3C4666" stroke-width="2"/>
<path d="M289.985 139.103C284.421 139.103 279.334 138.449 275.599 137.362C273.739 136.822 272.142 136.153 270.98 135.354C269.859 134.583 268.865 133.488 268.865 132.051C268.865 130.614 269.859 129.519 270.98 128.749C272.142 127.95 273.739 127.281 275.599 126.741C279.334 125.654 284.421 125 289.985 125C295.549 125 300.635 125.654 304.371 126.741C306.23 127.281 307.828 127.95 308.991 128.749C310.112 129.519 311.105 130.614 311.105 132.051C311.105 133.488 310.112 134.583 308.991 135.354C307.828 136.153 306.23 136.822 304.371 137.362C300.635 138.449 295.549 139.103 289.985 139.103Z" fill="#31384F" stroke="#3C4666" stroke-width="2"/>
<path d="M255.36 126.282C259.171 126.282 262.674 125.768 265.269 124.902C266.559 124.471 267.696 123.93 268.536 123.266C269.362 122.614 270.08 121.694 270.08 120.513C270.08 119.332 269.362 118.411 268.536 117.759C267.696 117.096 266.559 116.555 265.269 116.124C262.674 115.257 259.171 114.744 255.36 114.744C251.55 114.744 248.046 115.257 245.452 116.124C244.161 116.555 243.025 117.096 242.184 117.759C241.358 118.411 240.64 119.332 240.64 120.513C240.64 121.694 241.358 122.614 242.184 123.266C243.025 123.93 244.161 124.471 245.452 124.902C248.046 125.768 251.55 126.282 255.36 126.282Z" fill="#31384F" stroke="#3C4666" stroke-width="2"/>
<path d="M95.3599 125C99.1706 125 102.674 124.486 105.268 123.62C106.559 123.189 107.696 122.648 108.536 121.984C109.362 121.332 110.08 120.412 110.08 119.231C110.08 118.05 109.362 117.129 108.536 116.477C107.696 115.814 106.559 115.272 105.268 114.842C102.674 113.975 99.1706 113.462 95.3599 113.462C91.5492 113.462 88.0462 113.975 85.4517 114.842C84.161 115.272 83.0241 115.814 82.1838 116.477C81.3578 117.129 80.6399 118.05 80.6399 119.231C80.6399 120.412 81.3578 121.332 82.1838 121.984C83.0241 122.648 84.161 123.189 85.4517 123.62C88.0462 124.486 91.5492 125 95.3599 125Z" fill="#31384F" stroke="#3C4666" stroke-width="2"/>
<path d="M174.72 148.077C194.029 148.077 211.538 146.855 224.244 144.869C230.588 143.879 235.794 142.69 239.441 141.342C241.257 140.672 242.763 139.935 243.839 139.113C244.887 138.313 245.76 137.246 245.76 135.897C245.76 134.549 244.887 133.482 243.839 132.682C242.763 131.86 241.257 131.123 239.441 130.453C235.794 129.105 230.588 127.916 224.244 126.925C211.538 124.94 194.029 123.718 174.72 123.718C155.411 123.718 137.902 124.94 125.195 126.925C118.851 127.916 113.647 129.105 109.999 130.453C108.183 131.123 106.677 131.86 105.601 132.682C104.553 133.482 103.68 134.549 103.68 135.897C103.68 137.246 104.553 138.313 105.601 139.113C106.677 139.935 108.183 140.672 109.999 141.342C113.647 142.69 118.851 143.879 125.195 144.869C137.902 146.855 155.411 148.077 174.72 148.077Z" fill="#31384F" stroke="#3C4666" stroke-width="2"/>
<path d="M174.262 143.59C124.598 145.128 112.608 137.394 112.822 133.333C117.942 130.769 117.302 124.359 112.822 116.667C109.238 110.513 114.315 101.709 117.302 98.0769C113.035 90.8119 105.654 71.1538 110.262 50.641C117.43 13.2051 155.916 1.28205 174.262 0V143.59Z" fill="#5C2095"/>
<path d="M174.262 143.59C223.926 145.128 235.915 137.394 235.702 133.333C230.582 130.769 231.222 124.359 235.702 116.667C239.286 110.513 234.208 101.709 231.222 98.0769C235.488 90.8119 242.87 71.1538 238.262 50.641C231.094 13.2051 192.608 1.28205 174.262 0V143.59Z" fill="#5C2095"/>
<mask id="mask0_45_72" style="mask-type:alpha" maskUnits="userSpaceOnUse" x="108" y="0" width="132" height="144">
<path d="M174.262 143.59C124.598 145.128 112.608 137.394 112.822 133.333C117.942 130.769 117.302 124.359 112.822 116.667C109.238 110.513 114.315 101.709 117.302 98.0769C113.035 90.8119 105.654 71.1538 110.262 50.641C117.43 13.2051 155.916 1.28205 174.262 0V143.59Z" fill="#5C2095"/>
<path d="M174.262 143.59C223.926 145.128 235.915 137.394 235.702 133.333C230.582 130.769 231.222 124.359 235.702 116.667C239.286 110.513 234.208 101.709 231.222 98.0769C235.488 90.8119 242.87 71.1538 238.262 50.641C231.094 13.2051 192.608 1.28205 174.262 0V143.59Z" fill="#5C2095"/>
</mask>
<g mask="url(#mask0_45_72)">
<path d="M137.6 26.282C141.488 26.282 144.64 23.125 144.64 19.2307C144.64 15.3364 141.488 12.1794 137.6 12.1794C133.712 12.1794 130.56 15.3364 130.56 19.2307C130.56 23.125 133.712 26.282 137.6 26.282Z" fill="#954A83"/>
<path d="M151.68 28.8462C154.154 28.8462 156.16 26.8372 156.16 24.359C156.16 21.8808 154.154 19.8718 151.68 19.8718C149.206 19.8718 147.2 21.8808 147.2 24.359C147.2 26.8372 149.206 28.8462 151.68 28.8462Z" fill="#954A83"/>
<path d="M132.48 36.5384C134.954 36.5384 136.96 34.5295 136.96 32.0513C136.96 29.5731 134.954 27.5641 132.48 27.5641C130.006 27.5641 128 29.5731 128 32.0513C128 34.5295 130.006 36.5384 132.48 36.5384Z" fill="#954A83"/>
<path d="M144 31.4102C142.94 31.4102 142.08 30.5493 142.08 29.4872C142.08 28.4251 142.94 27.5641 144 27.5641C145.06 27.5641 145.92 28.4251 145.92 29.4872C145.92 30.5493 145.06 31.4102 144 31.4102Z" fill="#954A83"/>
<path d="M151.68 18.5898C151.327 18.5898 151.04 18.3028 151.04 17.9488C151.04 17.5947 151.327 17.3077 151.68 17.3077C152.034 17.3077 152.32 17.5947 152.32 17.9488C152.32 18.3028 152.034 18.5898 151.68 18.5898Z" fill="#954A83"/>
<path d="M151.68 13.4615C151.327 13.4615 151.04 13.1745 151.04 12.8205C151.04 12.4664 151.327 12.1794 151.68 12.1794C152.034 12.1794 152.32 12.4664 152.32 12.8205C152.32 13.1745 152.034 13.4615 151.68 13.4615Z" fill="#954A83"/>
<path d="M127.36 42.9487C126.3 42.9487 125.44 42.0877 125.44 41.0256C125.44 39.9635 126.3 39.1025 127.36 39.1025C128.42 39.1025 129.28 39.9635 129.28 41.0256C129.28 42.0877 128.42 42.9487 127.36 42.9487Z" fill="#954A83"/>
<path d="M137.6 40.3846C136.54 40.3846 135.68 39.5236 135.68 38.4615C135.68 37.3994 136.54 36.5385 137.6 36.5385C138.66 36.5385 139.52 37.3994 139.52 38.4615C139.52 39.5236 138.66 40.3846 137.6 40.3846Z" fill="#954A83"/>
<path d="M228.48 45.5128C170.624 16.2821 130.986 41.8804 118.4 58.3333C112.853 68.1625 100.864 95.3846 97.28 125.641C93.696 155.897 189.226 153.632 237.44 148.718C258.56 126.496 286.336 74.7436 228.48 45.5128Z" fill="#58218C"/>
<path d="M125.44 145.513C142.294 137.606 185.6 126.923 224 147.436C221.952 149.487 157.44 147.009 125.44 145.513Z" fill="#5E2A8E"/>
<path d="M220.8 79.4872C185.984 93.3333 135.04 73.7179 113.92 62.1795L112.64 60.8974C106.667 60.4701 96.384 65.2564 103.04 87.8205C109.696 110.385 187.306 112.179 225.28 110.256C238.294 94.2307 255.616 65.641 220.8 79.4872Z" fill="#542481"/>
<path d="M154.88 -1.28204C138.454 10.4701 110.336 40.3846 129.28 66.0257C135.68 75 122.88 80.1282 131.2 87.1795C137.121 92.1981 140.449 98.8401 148.567 103.87C153.313 105.582 157.723 107.386 161.28 108.974C155.93 107.681 151.855 105.908 148.567 103.87C132.251 97.9846 111.973 93.183 108.8 101.923C104.704 113.205 102.827 64.3163 102.4 38.4616C112 26.7094 131.584 3.20514 133.12 3.20514C134.656 3.20514 147.414 -0.64101 153.6 -2.56409L154.88 -1.28204Z" fill="#4F227A"/>
<path d="M193.28 -0.641044C209.706 11.1111 237.824 41.0256 218.88 66.6667C212.48 75.641 225.28 80.7692 216.96 87.8205C211.039 92.8391 207.711 99.4811 199.593 104.511C194.847 106.223 190.437 108.027 186.88 109.615C192.23 108.322 196.305 106.549 199.593 104.511C215.909 98.6256 236.187 93.824 239.36 102.564C243.456 113.846 245.334 64.9573 245.76 39.1025C236.16 27.3504 216.576 3.84614 215.04 3.84614C213.504 3.84614 200.746 -1.87159e-05 194.56 -1.9231L193.28 -0.641044Z" fill="#4F227A"/>
<path d="M149.12 39.1026C148.06 39.1026 147.2 38.2416 147.2 37.1795C147.2 36.1175 148.06 35.2565 149.12 35.2565C150.18 35.2565 151.04 36.1175 151.04 37.1795C151.04 38.2416 150.18 39.1026 149.12 39.1026Z" fill="#954A83"/>
<path d="M145.28 13.4615C144.22 13.4615 143.36 12.6005 143.36 11.5384C143.36 10.4763 144.22 9.61536 145.28 9.61536C146.34 9.61536 147.2 10.4763 147.2 11.5384C147.2 12.6005 146.34 13.4615 145.28 13.4615Z" fill="#954A83"/>
<path d="M146.56 48.0769C144.793 48.0769 143.36 46.6419 143.36 44.8718C143.36 43.1016 144.793 41.6666 146.56 41.6666C148.327 41.6666 149.76 43.1016 149.76 44.8718C149.76 46.6419 148.327 48.0769 146.56 48.0769Z" fill="#954A83"/>
<path d="M149.12 8.33335C147.353 8.33335 145.92 6.89837 145.92 5.12822C145.92 3.35808 147.353 1.9231 149.12 1.9231C150.887 1.9231 152.32 3.35808 152.32 5.12822C152.32 6.89837 150.887 8.33335 149.12 8.33335Z" fill="#954A83"/>
<path d="M132.48 50.6411C130.713 50.6411 129.28 49.2061 129.28 47.436C129.28 45.6658 130.713 44.2308 132.48 44.2308C134.247 44.2308 135.68 45.6658 135.68 47.436C135.68 49.2061 134.247 50.6411 132.48 50.6411Z" fill="#954A83"/>
<path d="M126.08 46.7949C125.727 46.7949 125.44 46.5079 125.44 46.1538C125.44 45.7998 125.727 45.5128 126.08 45.5128C126.433 45.5128 126.72 45.7998 126.72 46.1538C126.72 46.5079 126.433 46.7949 126.08 46.7949Z" fill="#954A83"/>
<path d="M147.84 18.5898C147.487 18.5898 147.2 18.3028 147.2 17.9488C147.2 17.5947 147.487 17.3077 147.84 17.3077C148.193 17.3077 148.48 17.5947 148.48 17.9488C148.48 18.3028 148.193 18.5898 147.84 18.5898Z" fill="#954A83"/>
<path d="M126.08 53.2051C125.727 53.2051 125.44 52.9182 125.44 52.5641C125.44 52.2101 125.727 51.9231 126.08 51.9231C126.433 51.9231 126.72 52.2101 126.72 52.5641C126.72 52.9182 126.433 53.2051 126.08 53.2051Z" fill="#954A83"/>
</g>
<path d="M120.32 89.1025C120.32 89.1025 156.8 108.974 174.08 108.974V128.846C142.08 127.564 123.52 137.82 123.52 137.82C123.52 137.82 117.797 123.673 117.12 114.103C116.425 104.284 120.32 89.1025 120.32 89.1025Z" fill="#3E304A"/>
<path d="M227.84 89.1025C227.84 89.1025 193.28 110.256 174.08 108.974V128.846C206.08 127.564 224.64 137.82 224.64 137.82C224.64 137.82 230.363 123.673 231.04 114.103C231.735 104.284 227.84 89.1025 227.84 89.1025Z" fill="#3E304A"/>
<mask id="mask1_45_72" style="mask-type:alpha" maskUnits="userSpaceOnUse" x="117" y="89" width="115" height="49">
<path d="M120.32 89.1025C120.32 89.1025 156.8 108.974 174.08 108.974V128.846C142.08 127.564 123.52 137.82 123.52 137.82C123.52 137.82 117.797 123.673 117.12 114.103C116.425 104.284 120.32 89.1025 120.32 89.1025Z" fill="#3E304A"/>
<path d="M227.84 89.1025C227.84 89.1025 193.28 110.256 174.08 108.974V128.846C206.08 127.564 224.64 137.82 224.64 137.82C224.64 137.82 230.363 123.673 231.04 114.103C231.735 104.284 227.84 89.1025 227.84 89.1025Z" fill="#3E304A"/>
</mask>
<g mask="url(#mask1_45_72)">
<path d="M137.6 105.769C125.824 101.154 117.76 109.829 115.2 114.744L114.56 115.385L112 110.256L118.4 82.6923L174.72 104.487V123.718C174.72 123.718 195.2 120.513 172.8 123.718C150.4 126.923 152.32 111.538 137.6 105.769Z" fill="#3A2A47"/>
<path d="M211.2 105.769C222.976 101.154 231.04 109.829 233.6 114.744L234.24 115.385L236.8 110.256L230.4 82.6923L174.08 104.487V123.718C174.08 123.718 153.6 120.513 176 123.718C198.4 126.923 196.48 111.538 211.2 105.769Z" fill="#3A2A47"/>
</g>
<path d="M151.57 122.382C148.093 114.152 137.625 99.8752 123.554 108.609C123.983 115.717 130.186 128.422 151.57 122.382Z" fill="#372B41"/>
<path d="M149.108 120.909C146.259 114.313 137.631 102.891 125.911 109.97C126.235 115.677 131.328 125.856 149.108 120.909Z" fill="#C09808"/>
<path d="M197.17 122.382C200.646 114.152 211.114 99.8752 225.185 108.609C224.756 115.717 218.554 128.422 197.17 122.382Z" fill="#372B41"/>
<path d="M199.631 120.909C202.481 114.313 211.109 102.891 222.829 109.97C222.505 115.677 217.412 125.856 199.631 120.909Z" fill="#C09808"/>
<path d="M151.57 123.786C148.093 115.556 137.625 101.279 123.554 110.012C123.983 117.12 130.186 129.826 151.57 123.786Z" fill="#302639"/>
<path d="M149.108 122.312C146.259 115.716 137.631 104.294 125.911 111.373C126.235 117.081 131.328 127.259 149.108 122.312Z" fill="#120F02"/>
<path d="M197.17 123.786C200.646 115.556 211.114 101.279 225.185 110.012C224.756 117.12 218.554 129.826 197.17 123.786Z" fill="#302639"/>
<path d="M199.631 122.312C202.481 115.716 211.109 104.294 222.829 111.373C222.505 117.081 217.412 127.259 199.631 122.312Z" fill="#120F02"/>
<path d="M151.57 122.382C148.093 114.152 137.625 99.8752 123.554 108.609C123.983 115.717 130.186 128.422 151.57 122.382Z" fill="#372B41"/>
<path d="M149.108 120.909C146.259 114.313 137.631 102.891 125.911 109.97C126.235 115.677 131.328 125.856 149.108 120.909Z" fill="#C09808"/>
<path d="M197.17 122.382C200.646 114.152 211.114 99.8752 225.185 108.609C224.756 115.717 218.554 128.422 197.17 122.382Z" fill="#372B41"/>
<path d="M199.631 120.909C202.481 114.313 211.109 102.891 222.829 109.97C222.505 115.677 217.412 125.856 199.631 120.909Z" fill="#C09808"/>
<path d="M103.097 119.896C95.6052 123.198 88.4882 121.272 85.8662 119.896C86.4905 117.52 90.7358 115.019 89.2374 107.14C88.1493 101.419 61.9304 87.1037 65.6391 71.8735C69.3849 56.4913 92.234 59.1175 93.7323 68.497C94.931 76.0004 89.4871 78.3766 86.6153 78.6267C91.1103 74.9173 91.485 64.7452 82.1205 67.7466C70.1341 74.1245 83.2442 84.6295 95.6052 93.2585C107.966 101.888 103.471 119.521 103.097 119.896Z" fill="#431D67"/>
<mask id="mask2_45_72" style="mask-type:alpha" maskUnits="userSpaceOnUse" x="65" y="60" width="40" height="62">
<path d="M103.097 119.896C95.6052 123.198 88.4882 121.272 85.8662 119.896C86.4905 117.52 90.7358 115.019 89.2374 107.14C88.1493 101.419 61.9304 87.1037 65.6391 71.8735C69.3849 56.4913 92.234 59.1175 93.7323 68.497C94.931 76.0004 89.4871 78.3766 86.6153 78.6267C91.1103 74.9173 91.485 64.7452 82.1205 67.7466C70.1341 74.1245 83.2442 84.6295 95.6052 93.2585C107.966 101.888 103.471 119.521 103.097 119.896Z" fill="#5C2095"/>
</mask>
<g mask="url(#mask2_45_72)">
<path d="M102.59 117.901C103.603 117.692 104.322 117.028 104.197 116.42C104.072 115.811 103.149 115.487 102.136 115.696C101.123 115.906 100.403 116.569 100.529 117.178C100.654 117.786 101.577 118.11 102.59 117.901Z" fill="#623557"/>
<path d="M102.351 111.371C103.378 111.489 104.269 111.085 104.34 110.467C104.411 109.85 103.635 109.253 102.608 109.135C101.58 109.016 100.69 109.421 100.619 110.038C100.548 110.656 101.323 111.252 102.351 111.371Z" fill="#623557"/>
<path d="M97.1066 105.368C98.1342 105.487 99.0248 105.082 99.0958 104.464C99.1668 103.847 98.3913 103.25 97.3638 103.132C96.3362 103.013 95.4456 103.418 95.3746 104.035C95.3036 104.653 96.0791 105.249 97.1066 105.368Z" fill="#623557"/>
<path d="M100.196 101.28C101.112 100.798 101.621 99.962 101.332 99.4116C101.044 98.8611 100.068 98.8051 99.1519 99.2865C98.2359 99.7679 97.7272 100.604 98.0155 101.155C98.3039 101.705 99.2801 101.761 100.196 101.28Z" fill="#623557"/>
<path d="M94.5699 100.962C95.8641 100.282 96.583 99.1003 96.1755 98.3225C95.7681 97.5447 94.3886 97.4656 93.0944 98.1458C91.8001 98.8259 91.0813 100.008 91.4887 100.786C91.8962 101.563 93.2756 101.643 94.5699 100.962Z" fill="#623557"/>
<path d="M95.9205 95.7367C97.2522 95.5013 98.2175 94.6617 98.0764 93.8614C97.9354 93.061 96.7416 92.6031 95.4098 92.8385C94.0781 93.0738 93.1128 93.9134 93.2538 94.7137C93.3948 95.5141 94.5887 95.972 95.9205 95.7367Z" fill="#623557"/>
<path d="M88.832 95.9913C89.6646 95.8442 90.2681 95.3192 90.1799 94.8189C90.0918 94.3185 89.3453 94.0322 88.5127 94.1793C87.6801 94.3265 87.0766 94.8514 87.1647 95.3518C87.2529 95.8522 87.9993 96.1385 88.832 95.9913Z" fill="#623557"/>
<path d="M88.5237 93.2875C88.8743 93.2256 89.1284 93.0045 89.0913 92.7938C89.0542 92.5831 88.7399 92.4625 88.3892 92.5245C88.0386 92.5865 87.7845 92.8075 87.8216 93.0182C87.8587 93.2289 88.1731 93.3495 88.5237 93.2875Z" fill="#623557"/>
<path d="M87.7744 91.0363C88.125 90.9744 88.3792 90.7533 88.342 90.5426C88.3049 90.3319 87.9906 90.2113 87.64 90.2733C87.2894 90.3353 87.0352 90.5563 87.0723 90.767C87.1095 90.9777 87.4238 91.0983 87.7744 91.0363Z" fill="#623557"/>
<path d="M92.2695 97.7895C92.6201 97.7275 92.8743 97.5065 92.8372 97.2958C92.8 97.0851 92.4857 96.9645 92.1351 97.0265C91.7845 97.0884 91.5303 97.3095 91.5675 97.5202C91.6046 97.7309 91.9189 97.8515 92.2695 97.7895Z" fill="#623557"/>
<path d="M92.2695 94.0378C92.6201 93.9758 92.8743 93.7548 92.8372 93.5441C92.8 93.3334 92.4857 93.2128 92.1351 93.2748C91.7845 93.3367 91.5303 93.5578 91.5675 93.7685C91.6046 93.9792 91.9189 94.0998 92.2695 94.0378Z" fill="#623557"/>
<path d="M91.0795 91.4893C91.9121 91.3421 92.5156 90.8172 92.4275 90.3168C92.3393 89.8164 91.5929 89.5301 90.7603 89.6773C89.9277 89.8244 89.3242 90.3494 89.4123 90.8497C89.5005 91.3501 90.2469 91.6364 91.0795 91.4893Z" fill="#623557"/>
<path d="M85.241 93.1054C86.0531 92.8698 86.5971 92.2832 86.456 91.7952C86.3148 91.3071 85.5421 91.1024 84.73 91.338C83.9179 91.5736 83.3739 92.1602 83.515 92.6482C83.6561 93.1363 84.4289 93.3409 85.241 93.1054Z" fill="#623557"/>
<path d="M87.5089 88.7843C88.9435 88.3682 89.9044 87.3319 89.6551 86.4698C89.4058 85.6076 88.0408 85.2461 86.6062 85.6622C85.1715 86.0783 84.2106 87.1146 84.4599 87.9767C84.7092 88.8389 86.0742 89.2004 87.5089 88.7843Z" fill="#623557"/>
<path d="M82.8667 84.2356C84.3535 84.0937 85.4899 83.2543 85.4049 82.3608C85.3199 81.4673 84.0457 80.858 82.5588 80.9999C81.072 81.1418 79.9356 81.9812 80.0206 82.8747C80.1056 83.7682 81.3799 84.3775 82.8667 84.2356Z" fill="#623557"/>
<path d="M79.0684 78.9319C80.5552 78.79 81.6916 77.9506 81.6066 77.0571C81.5216 76.1636 80.2473 75.5543 78.7605 75.6962C77.2737 75.8381 76.1373 76.6775 76.2223 77.571C76.3073 78.4645 77.5815 79.0738 79.0684 78.9319Z" fill="#623557"/>
<path d="M77.9898 74.5899C79.1961 74.4747 80.1182 73.7937 80.0492 73.0687C79.9802 72.3437 78.9463 71.8493 77.74 71.9645C76.5336 72.0796 75.6116 72.7607 75.6806 73.4857C75.7495 74.2107 76.7834 74.705 77.9898 74.5899Z" fill="#623557"/>
<path d="M78.4496 71.0141C79.517 71.5888 80.6614 71.5348 81.0057 70.8934C81.35 70.2519 80.7639 69.266 79.6965 68.6912C78.6292 68.1165 77.4848 68.1705 77.1405 68.8119C76.7962 69.4534 77.3823 70.4393 78.4496 71.0141Z" fill="#623557"/>
<path d="M73.2058 67.2624C74.2731 67.8371 75.4175 67.7831 75.7618 67.1417C76.1061 66.5002 75.52 65.5143 74.4526 64.9395C73.3853 64.3647 72.2409 64.4188 71.8966 65.0602C71.5523 65.7017 72.1384 66.6876 73.2058 67.2624Z" fill="#623557"/>
<path d="M80.7667 91.0354C82.2013 90.6193 83.1622 89.583 82.9129 88.7209C82.6637 87.8587 81.2986 87.4972 79.864 87.9133C78.4293 88.3294 77.4684 89.3657 77.7177 90.2278C77.967 91.09 79.3321 91.4515 80.7667 91.0354Z" fill="#623557"/>
<path d="M75.824 85.1928C77.3108 85.0509 78.4472 84.2115 78.3622 83.318C78.2772 82.4244 77.003 81.8151 75.5161 81.957C74.0293 82.0989 72.8929 82.9383 72.9779 83.8319C73.0629 84.7254 74.3371 85.3347 75.824 85.1928Z" fill="#623557"/>
<path d="M72.0256 79.8892C73.5125 79.7473 74.6489 78.9079 74.5639 78.0144C74.4789 77.1208 73.2046 76.5115 71.7178 76.6534C70.231 76.7954 69.0945 77.6348 69.1796 78.5283C69.2646 79.4218 70.5388 80.0311 72.0256 79.8892Z" fill="#623557"/>
<path d="M70.8228 73.8747C72.229 74.3788 73.6137 74.1023 73.9157 73.2572C74.2177 72.4122 73.3225 71.3184 71.9163 70.8144C70.5101 70.3103 69.1253 70.5867 68.8234 71.4318C68.5214 72.2768 69.4165 73.3706 70.8228 73.8747Z" fill="#623557"/>
<path d="M83.0267 86.3099C83.5454 86.1594 83.8928 85.7848 83.8027 85.4731C83.7126 85.1614 83.219 85.0306 82.7004 85.1811C82.1817 85.3315 81.8343 85.7062 81.9244 86.0179C82.0145 86.3296 82.5081 86.4603 83.0267 86.3099Z" fill="#623557"/>
<path d="M78.9213 80.97C79.4588 80.9187 79.8697 80.6152 79.839 80.2922C79.8082 79.9692 79.3475 79.7489 78.81 79.8002C78.2724 79.8515 77.8616 80.155 77.8923 80.478C77.9231 80.801 78.3837 81.0213 78.9213 80.97Z" fill="#623557"/>
<path d="M75.3544 80.1686C75.892 80.1173 76.3028 79.8138 76.2721 79.4908C76.2413 79.1678 75.7807 78.9475 75.2431 78.9988C74.7055 79.0501 74.2947 79.3536 74.3254 79.6766C74.3562 79.9996 74.8169 80.2199 75.3544 80.1686Z" fill="#623557"/>
<path d="M74.6051 76.4168C75.1427 76.3655 75.5535 76.062 75.5228 75.739C75.4921 75.4159 75.0314 75.1956 74.4938 75.2469C73.9563 75.2983 73.5454 75.6017 73.5762 75.9248C73.6069 76.2478 74.0676 76.4681 74.6051 76.4168Z" fill="#623557"/>
<path d="M74.6304 71.8286C75.1388 72.0109 75.6395 71.9109 75.7486 71.6054C75.8578 71.2999 75.5342 70.9045 75.0258 70.7222C74.5174 70.54 74.0167 70.6399 73.9075 70.9454C73.7984 71.251 74.122 71.6464 74.6304 71.8286Z" fill="#623557"/>
<path d="M77.4376 67.4008C77.946 67.583 78.4919 67.3566 78.6568 66.8951C78.8217 66.4336 78.5432 65.9118 78.0348 65.7295C77.5264 65.5473 76.9806 65.7737 76.8157 66.2351C76.6508 66.6966 76.9292 67.2185 77.4376 67.4008Z" fill="#623557"/>
<path d="M78.7663 64.1242C79.5639 64.4101 80.4202 64.055 80.6789 63.331C80.9376 62.607 80.5007 61.7883 79.7032 61.5024C78.9056 61.2165 78.0493 61.5716 77.7906 62.2956C77.5319 63.0196 77.9688 63.8383 78.7663 64.1242Z" fill="#623557"/>
<path d="M82.4563 68.539C83.2538 68.8249 84.1101 68.4698 84.3688 67.7458C84.6275 67.0218 84.1907 66.2031 83.3931 65.9172C82.5955 65.6313 81.7393 65.9864 81.4806 66.7104C81.2219 67.4344 81.6587 68.2531 82.4563 68.539Z" fill="#623557"/>
<path d="M84.1165 65.012C84.5899 65.1816 85.0982 64.9709 85.2517 64.5412C85.4053 64.1114 85.146 63.6255 84.6726 63.4558C84.1992 63.2861 83.691 63.4969 83.5374 63.9266C83.3839 64.3563 83.6431 64.8423 84.1165 65.012Z" fill="#623557"/>
<path d="M87.8624 64.2616C88.3358 64.4313 88.844 64.2205 88.9976 63.7908C89.1511 63.3611 88.8918 62.8752 88.4184 62.7055C87.945 62.5358 87.4368 62.7465 87.2833 63.1763C87.1297 63.606 87.389 64.0919 87.8624 64.2616Z" fill="#623557"/>
<path d="M86.3641 68.0133C86.8375 68.183 87.3457 67.9722 87.4993 67.5425C87.6528 67.1128 87.3935 66.6269 86.9201 66.4572C86.4467 66.2875 85.9385 66.4983 85.785 66.928C85.6314 67.3577 85.8907 67.8436 86.3641 68.0133Z" fill="#623557"/>
<path d="M88.6116 67.2629C89.085 67.4326 89.5933 67.2218 89.7468 66.7921C89.9004 66.3624 89.6411 65.8765 89.1677 65.7068C88.6943 65.5371 88.1861 65.7479 88.0325 66.1776C87.879 66.6073 88.1383 67.0932 88.6116 67.2629Z" fill="#623557"/>
<path d="M88.6116 70.2644C89.085 70.4341 89.5933 70.2233 89.7468 69.7936C89.9004 69.3639 89.6411 68.878 89.1677 68.7083C88.6943 68.5386 88.1861 68.7494 88.0325 69.1791C87.879 69.6088 88.1383 70.0947 88.6116 70.2644Z" fill="#623557"/>
<path d="M90.456 68.6382C90.7068 68.7281 90.9762 68.6164 91.0576 68.3887C91.1389 68.1609 91.0015 67.9034 90.7506 67.8135C90.4998 67.7235 90.2304 67.8352 90.149 68.063C90.0677 68.2907 90.2051 68.5482 90.456 68.6382Z" fill="#623557"/>
<path d="M91.9542 71.6395C92.2051 71.7294 92.4745 71.6177 92.5559 71.39C92.6372 71.1623 92.4998 70.9047 92.2489 70.8148C91.9981 70.7249 91.7287 70.8366 91.6473 71.0643C91.566 71.2921 91.7034 71.5496 91.9542 71.6395Z" fill="#623557"/>
<path d="M89.7072 72.3899C89.9581 72.4798 90.2274 72.3681 90.3088 72.1404C90.3902 71.9126 90.2527 71.6551 90.0019 71.5652C89.751 71.4752 89.4816 71.587 89.4003 71.8147C89.3189 72.0424 89.4563 72.2999 89.7072 72.3899Z" fill="#623557"/>
<path d="M90.456 74.641C90.7068 74.7309 90.9762 74.6192 91.0576 74.3915C91.1389 74.1637 91.0015 73.9062 90.7506 73.8163C90.4998 73.7263 90.2304 73.8381 90.149 74.0658C90.0677 74.2935 90.2051 74.551 90.456 74.641Z" fill="#623557"/>
<path d="M88.9577 76.1416C89.2086 76.2315 89.4779 76.1198 89.5593 75.8921C89.6406 75.6643 89.5032 75.4068 89.2524 75.3169C89.0015 75.227 88.7321 75.3387 88.6508 75.5664C88.5694 75.7941 88.7068 76.0517 88.9577 76.1416Z" fill="#623557"/>
<path d="M88.2084 77.6423C88.4593 77.7322 88.7286 77.6205 88.81 77.3928C88.8914 77.1651 88.754 76.9076 88.5031 76.8176C88.2522 76.7277 87.9829 76.8394 87.9015 77.0671C87.8201 77.2949 87.9575 77.5524 88.2084 77.6423Z" fill="#623557"/>
<path d="M98.6406 111.182C99.2742 111.255 99.8233 111.005 99.8671 110.624C99.9109 110.244 99.4327 109.876 98.7991 109.803C98.1655 109.73 97.6164 109.979 97.5726 110.36C97.5288 110.741 98.007 111.108 98.6406 111.182Z" fill="#623557"/>
<path d="M101.256 103.837C101.865 103.646 102.266 103.195 102.152 102.829C102.038 102.463 101.452 102.321 100.843 102.512C100.234 102.702 99.8333 103.153 99.9474 103.519C100.062 103.885 100.648 104.027 101.256 103.837Z" fill="#623557"/>
<path d="M99.7457 115.406C101.406 115.063 102.585 113.976 102.38 112.978C102.174 111.98 100.662 111.449 99.0015 111.792C97.3411 112.135 96.1617 113.222 96.3672 114.22C96.5727 115.218 98.0853 115.749 99.7457 115.406Z" fill="#623557"/>
<path d="M102.019 108.566C103.691 108.848 105.183 108.261 105.352 107.257C105.52 106.252 104.302 105.209 102.63 104.928C100.958 104.646 99.4658 105.232 99.2972 106.237C99.1285 107.242 100.347 108.285 102.019 108.566Z" fill="#623557"/>
<path d="M92.5859 102.542C98.2794 107.944 94.4588 117.549 91.8368 121.676L82.4725 120.55C86.8425 118.549 92.6609 112.146 80.9741 102.542C69.2873 92.9374 65.3668 81.7822 64.8673 77.4051C64.4928 73.6535 65.6914 63.2235 76.4792 60.5223C87.267 57.821 92.3363 64.274 93.7097 68.7762C91.8368 63.6487 84.7948 57.2958 73.108 65.3995C58.4996 75.5292 85.4689 95.7888 92.5859 102.542Z" fill="#34194C"/>
</g>
<path d="M80.7413 61.3109C77.4784 61.1294 70.2326 62.5386 67.3516 69.6257C68.8457 67.4069 73.6156 62.6376 80.7413 61.3109Z" fill="#441E69"/>
<path d="M248.141 121.178C255.633 124.48 262.749 122.554 265.372 121.178C264.748 118.802 260.502 116.301 262.001 108.422C263.089 102.701 289.307 88.3857 285.599 73.1555C281.853 57.7733 259.004 60.3995 257.505 69.7789C256.307 77.2824 261.751 79.6586 264.622 79.9087C260.128 76.1993 259.753 66.0271 269.117 69.0286C281.103 75.4065 267.994 85.9115 255.633 94.5405C243.272 103.17 247.767 120.803 248.141 121.178Z" fill="#431D67"/>
<mask id="mask3_45_72" style="mask-type:alpha" maskUnits="userSpaceOnUse" x="247" y="62" width="39" height="62">
<path d="M248.141 121.178C255.633 124.48 262.749 122.554 265.372 121.178C264.748 118.802 260.502 116.301 262.001 108.422C263.089 102.701 289.307 88.3857 285.599 73.1555C281.853 57.7733 259.004 60.3995 257.505 69.7789C256.307 77.2824 261.751 79.6586 264.622 79.9087C260.128 76.1993 259.753 66.0271 269.117 69.0286C281.103 75.4065 267.994 85.9115 255.633 94.5405C243.272 103.17 247.767 120.803 248.141 121.178Z" fill="#5C2095"/>
</mask>
<g mask="url(#mask3_45_72)">
<path d="M248.648 119.183C247.635 118.974 246.915 118.31 247.041 117.702C247.166 117.093 248.089 116.769 249.102 116.978C250.115 117.188 250.835 117.851 250.709 118.46C250.584 119.068 249.661 119.392 248.648 119.183Z" fill="#623557"/>
<path d="M248.888 112.653C247.86 112.771 246.969 112.367 246.898 111.749C246.827 111.132 247.603 110.535 248.63 110.417C249.658 110.298 250.549 110.703 250.62 111.32C250.691 111.938 249.915 112.534 248.888 112.653Z" fill="#623557"/>
<path d="M254.132 106.65C253.104 106.769 252.214 106.364 252.142 105.746C252.071 105.129 252.847 104.532 253.875 104.414C254.902 104.295 255.793 104.7 255.864 105.317C255.935 105.935 255.159 106.531 254.132 106.65Z" fill="#623557"/>
<path d="M251.042 102.562C250.126 102.081 249.617 101.244 249.906 100.694C250.194 100.143 251.17 100.087 252.086 100.569C253.002 101.05 253.511 101.886 253.223 102.437C252.934 102.987 251.958 103.043 251.042 102.562Z" fill="#623557"/>
<path d="M256.667 102.244C255.373 101.564 254.654 100.382 255.062 99.6045C255.469 98.8267 256.849 98.7476 258.143 99.4277C259.437 100.108 260.156 101.29 259.749 102.068C259.341 102.845 257.962 102.924 256.667 102.244Z" fill="#623557"/>
<path d="M255.318 97.0186C253.986 96.7833 253.021 95.9437 253.162 95.1433C253.303 94.343 254.497 93.8851 255.829 94.1204C257.16 94.3558 258.126 95.1954 257.985 95.9957C257.844 96.796 256.65 97.254 255.318 97.0186Z" fill="#623557"/>
<path d="M262.406 97.2733C261.573 97.1262 260.97 96.6012 261.058 96.1009C261.146 95.6005 261.893 95.3142 262.725 95.4613C263.558 95.6085 264.161 96.1334 264.073 96.6338C263.985 97.1341 263.239 97.4205 262.406 97.2733Z" fill="#623557"/>
<path d="M262.714 94.5695C262.363 94.5076 262.109 94.2865 262.146 94.0758C262.183 93.8651 262.497 93.7445 262.848 93.8065C263.199 93.8685 263.453 94.0895 263.416 94.3002C263.379 94.5109 263.064 94.6315 262.714 94.5695Z" fill="#623557"/>
<path d="M263.464 92.3183C263.113 92.2563 262.859 92.0353 262.896 91.8246C262.933 91.6139 263.247 91.4933 263.598 91.5553C263.949 91.6172 264.203 91.8383 264.166 92.049C264.129 92.2597 263.814 92.3803 263.464 92.3183Z" fill="#623557"/>
<path d="M258.968 99.0715C258.618 99.0095 258.364 98.7885 258.401 98.5778C258.438 98.3671 258.752 98.2465 259.103 98.3084C259.453 98.3704 259.707 98.5915 259.67 98.8022C259.633 99.0129 259.319 99.1335 258.968 99.0715Z" fill="#623557"/>
<path d="M258.968 95.3199C258.618 95.2579 258.364 95.0369 258.401 94.8262C258.438 94.6155 258.752 94.4949 259.103 94.5569C259.453 94.6188 259.707 94.8399 259.67 95.0506C259.633 95.2613 259.319 95.3819 258.968 95.3199Z" fill="#623557"/>
<path d="M260.159 92.7712C259.326 92.6241 258.722 92.0991 258.811 91.5988C258.899 91.0984 259.645 90.8121 260.478 90.9592C261.31 91.1064 261.914 91.6313 261.826 92.1317C261.738 92.6321 260.991 92.9184 260.159 92.7712Z" fill="#623557"/>
<path d="M265.997 94.3875C265.185 94.1519 264.641 93.5653 264.782 93.0773C264.923 92.5892 265.696 92.3845 266.508 92.6201C267.32 92.8557 267.864 93.4423 267.723 93.9303C267.582 94.4184 266.809 94.623 265.997 94.3875Z" fill="#623557"/>
<path d="M263.729 90.0663C262.295 89.6502 261.334 88.6139 261.583 87.7518C261.832 86.8896 263.197 86.528 264.632 86.9442C266.067 87.3603 267.027 88.3965 266.778 89.2587C266.529 90.1208 265.164 90.4824 263.729 90.0663Z" fill="#623557"/>
<path d="M268.372 85.5175C266.885 85.3756 265.748 84.5362 265.833 83.6427C265.918 82.7491 267.193 82.1398 268.679 82.2817C270.166 82.4237 271.303 83.263 271.218 84.1566C271.133 85.0501 269.858 85.6594 268.372 85.5175Z" fill="#623557"/>
<path d="M272.169 80.214C270.682 80.0721 269.546 79.2327 269.631 78.3392C269.716 77.4457 270.99 76.8364 272.477 76.9783C273.964 77.1202 275.1 77.9596 275.015 78.8531C274.93 79.7466 273.656 80.3559 272.169 80.214Z" fill="#623557"/>
<path d="M273.249 75.8719C272.042 75.7567 271.12 75.0757 271.189 74.3507C271.258 73.6257 272.292 73.1313 273.498 73.2465C274.705 73.3616 275.627 74.0427 275.558 74.7676C275.489 75.4926 274.455 75.987 273.249 75.8719Z" fill="#623557"/>
<path d="M272.787 72.2962C271.72 72.8709 270.576 72.8169 270.231 72.1755C269.887 71.534 270.473 70.5481 271.541 69.9733C272.608 69.3986 273.752 69.4526 274.097 70.094C274.441 70.7355 273.855 71.7214 272.787 72.2962Z" fill="#623557"/>
<path d="M278.032 68.5443C276.964 69.1191 275.82 69.0651 275.476 68.4236C275.131 67.7822 275.718 66.7963 276.785 66.2215C277.852 65.6467 278.997 65.7008 279.341 66.3422C279.685 66.9836 279.099 67.9696 278.032 68.5443Z" fill="#623557"/>
<path d="M270.471 92.3173C269.036 91.9011 268.075 90.8649 268.325 90.0027C268.574 89.1406 269.939 88.779 271.374 89.1951C272.808 89.6113 273.769 90.6475 273.52 91.5097C273.271 92.3718 271.905 92.7334 270.471 92.3173Z" fill="#623557"/>
<path d="M275.414 86.4746C273.927 86.3327 272.791 85.4933 272.876 84.5998C272.961 83.7063 274.235 83.097 275.722 83.2389C277.209 83.3808 278.345 84.2202 278.26 85.1137C278.175 86.0073 276.901 86.6166 275.414 86.4746Z" fill="#623557"/>
<path d="M279.212 81.1712C277.725 81.0293 276.589 80.1899 276.674 79.2963C276.759 78.4028 278.033 77.7935 279.52 77.9354C281.007 78.0773 282.143 78.9167 282.058 79.8103C281.973 80.7038 280.699 81.3131 279.212 81.1712Z" fill="#623557"/>
<path d="M280.415 75.1566C279.009 75.6607 277.624 75.3843 277.322 74.5392C277.02 73.6942 277.915 72.6004 279.321 72.0963C280.727 71.5922 282.112 71.8687 282.414 72.7138C282.716 73.5588 281.821 74.6526 280.415 75.1566Z" fill="#623557"/>
<path d="M268.212 87.5918C267.693 87.4414 267.345 87.0668 267.436 86.755C267.526 86.4433 268.019 86.3126 268.538 86.4631C269.057 86.6135 269.404 86.9882 269.314 87.2999C269.224 87.6116 268.73 87.7423 268.212 87.5918Z" fill="#623557"/>
<path d="M272.317 82.2521C271.779 82.2008 271.369 81.8973 271.399 81.5743C271.43 81.2513 271.891 81.031 272.428 81.0823C272.966 81.1336 273.377 81.4371 273.346 81.7601C273.315 82.0831 272.855 82.3034 272.317 82.2521Z" fill="#623557"/>
<path d="M275.883 81.4506C275.346 81.3993 274.935 81.0958 274.965 80.7728C274.996 80.4497 275.457 80.2295 275.994 80.2808C276.532 80.3321 276.943 80.6355 276.912 80.9586C276.881 81.2816 276.421 81.5019 275.883 81.4506Z" fill="#623557"/>
<path d="M276.633 77.6988C276.096 77.6475 275.685 77.344 275.715 77.021C275.746 76.6979 276.207 76.4776 276.744 76.5289C277.282 76.5802 277.693 76.8837 277.662 77.2068C277.631 77.5298 277.171 77.7501 276.633 77.6988Z" fill="#623557"/>
<path d="M276.608 73.1106C276.099 73.2929 275.599 73.1929 275.489 72.8874C275.38 72.5819 275.704 72.1864 276.212 72.0042C276.721 71.8219 277.221 71.9219 277.33 72.2274C277.44 72.5329 277.116 72.9284 276.608 73.1106Z" fill="#623557"/>
<path d="M273.8 68.6829C273.292 68.8651 272.746 68.6387 272.581 68.1772C272.416 67.7157 272.695 67.1939 273.203 67.0116C273.711 66.8294 274.257 67.0558 274.422 67.5173C274.587 67.9788 274.309 68.5006 273.8 68.6829Z" fill="#623557"/>
<path d="M272.472 65.4063C271.674 65.6922 270.818 65.3371 270.559 64.6131C270.301 63.8891 270.738 63.0704 271.535 62.7845C272.333 62.4986 273.189 62.8537 273.448 63.5777C273.706 64.3017 273.27 65.1204 272.472 65.4063Z" fill="#623557"/>
<path d="M268.782 69.8211C267.984 70.107 267.128 69.7519 266.869 69.0279C266.611 68.3039 267.047 67.4852 267.845 67.1993C268.643 66.9134 269.499 67.2685 269.757 67.9925C270.016 68.7165 269.579 69.5352 268.782 69.8211Z" fill="#623557"/>
<path d="M267.122 66.2938C266.648 66.4635 266.14 66.2527 265.986 65.823C265.833 65.3933 266.092 64.9074 266.565 64.7377C267.039 64.568 267.547 64.7788 267.701 65.2085C267.854 65.6382 267.595 66.1241 267.122 66.2938Z" fill="#623557"/>
<path d="M263.375 65.5434C262.902 65.7131 262.393 65.5024 262.24 65.0726C262.086 64.6429 262.345 64.157 262.819 63.9873C263.292 63.8176 263.801 64.0284 263.954 64.4581C264.108 64.8878 263.848 65.3737 263.375 65.5434Z" fill="#623557"/>
<path d="M264.874 69.2953C264.401 69.465 263.892 69.2542 263.739 68.8245C263.585 68.3948 263.845 67.9088 264.318 67.7392C264.791 67.5695 265.3 67.7802 265.453 68.2099C265.607 68.6397 265.347 69.1256 264.874 69.2953Z" fill="#623557"/>
<path d="M262.626 68.545C262.153 68.7147 261.645 68.5039 261.491 68.0742C261.337 67.6445 261.597 67.1586 262.07 66.9889C262.543 66.8192 263.052 67.03 263.205 67.4597C263.359 67.8894 263.1 68.3753 262.626 68.545Z" fill="#623557"/>
<path d="M262.626 71.5463C262.153 71.716 261.645 71.5052 261.491 71.0755C261.337 70.6457 261.597 70.1598 262.07 69.9901C262.543 69.8204 263.052 70.0312 263.205 70.4609C263.359 70.8906 263.1 71.3766 262.626 71.5463Z" fill="#623557"/>
<path d="M260.781 69.9201C260.53 70.0101 260.261 69.8984 260.179 69.6706C260.098 69.4429 260.236 69.1854 260.486 69.0955C260.737 69.0055 261.007 69.1172 261.088 69.345C261.169 69.5727 261.032 69.8302 260.781 69.9201Z" fill="#623557"/>
<path d="M259.284 72.9216C259.033 73.0115 258.763 72.8998 258.682 72.6721C258.601 72.4444 258.738 72.1869 258.989 72.0969C259.24 72.007 259.509 72.1187 259.59 72.3464C259.672 72.5742 259.534 72.8317 259.284 72.9216Z" fill="#623557"/>
<path d="M261.531 73.6719C261.28 73.7618 261.011 73.6501 260.93 73.4224C260.848 73.1946 260.986 72.9371 261.237 72.8472C261.488 72.7572 261.757 72.8689 261.838 73.0967C261.92 73.3244 261.782 73.5819 261.531 73.6719Z" fill="#623557"/>
<path d="M260.781 75.9228C260.53 76.0128 260.261 75.9011 260.179 75.6733C260.098 75.4456 260.236 75.1881 260.486 75.0981C260.737 75.0082 261.007 75.1199 261.088 75.3476C261.169 75.5754 261.032 75.8329 260.781 75.9228Z" fill="#623557"/>
<path d="M262.28 77.4236C262.029 77.5135 261.76 77.4018 261.679 77.1741C261.597 76.9463 261.735 76.6888 261.985 76.5989C262.236 76.5089 262.506 76.6206 262.587 76.8484C262.668 77.0761 262.531 77.3336 262.28 77.4236Z" fill="#623557"/>
<path d="M263.029 78.9243C262.778 79.0142 262.509 78.9025 262.427 78.6748C262.346 78.4471 262.483 78.1895 262.734 78.0996C262.985 78.0097 263.254 78.1214 263.336 78.3491C263.417 78.5768 263.28 78.8344 263.029 78.9243Z" fill="#623557"/>
<path d="M252.597 112.464C251.964 112.537 251.414 112.287 251.371 111.906C251.327 111.526 251.805 111.158 252.439 111.085C253.072 111.012 253.621 111.261 253.665 111.642C253.709 112.023 253.231 112.39 252.597 112.464Z" fill="#623557"/>
<path d="M249.981 105.119C249.372 104.928 248.971 104.477 249.086 104.111C249.2 103.745 249.786 103.603 250.395 103.794C251.003 103.984 251.404 104.435 251.29 104.801C251.176 105.167 250.59 105.309 249.981 105.119Z" fill="#623557"/>
<path d="M251.492 116.688C249.831 116.345 248.652 115.258 248.857 114.26C249.063 113.262 250.575 112.731 252.236 113.074C253.896 113.417 255.076 114.504 254.87 115.502C254.665 116.5 253.152 117.031 251.492 116.688Z" fill="#623557"/>
<path d="M249.219 109.848C247.547 110.13 246.055 109.543 245.886 108.539C245.718 107.534 246.936 106.491 248.608 106.21C250.28 105.928 251.772 106.514 251.941 107.519C252.109 108.524 250.891 109.567 249.219 109.848Z" fill="#623557"/>
<path d="M258.652 103.824C252.959 109.226 256.78 118.831 259.401 122.958L268.765 121.832C264.396 119.831 258.577 113.428 270.264 103.824C281.951 94.2194 285.871 83.0642 286.371 78.6871C286.746 74.9354 285.546 64.5054 274.758 61.8043C263.971 59.103 258.902 65.556 257.528 70.0581C259.401 64.9307 266.444 58.5778 278.13 66.6815C292.739 76.8112 265.769 97.0708 258.652 103.824Z" fill="#34194C"/>
</g>
<path d="M270.496 62.593C273.76 62.4115 281.005 63.8207 283.886 70.9078C282.392 68.689 277.622 63.9198 270.496 62.593Z" fill="#441E69"/>
<path d="M79.6649 132.621C63.8833 139.576 48.8906 135.518 43.367 132.621C44.6821 127.615 53.6252 122.346 50.4687 105.749C48.1766 93.6957 -7.05646 63.5399 0.756409 31.4555C8.64717 -0.948698 56.7814 4.58369 59.9378 24.3425C62.4628 40.1494 50.9948 45.155 44.9451 45.682C54.4142 37.8677 55.2034 16.439 35.4761 22.7617C10.2256 36.1977 37.8434 58.3275 63.8833 76.5055C89.9229 94.6835 80.454 131.83 79.6649 132.621Z" fill="#5C2095"/>
<mask id="mask4_45_72" style="mask-type:alpha" maskUnits="userSpaceOnUse" x="0" y="8" width="82" height="129">
<path d="M79.6649 132.621C63.8833 139.576 48.8906 135.518 43.367 132.621C44.6821 127.615 53.6252 122.346 50.4687 105.749C48.1766 93.6957 -7.05646 63.5399 0.756409 31.4555C8.64717 -0.948698 56.7814 4.58369 59.9378 24.3425C62.4628 40.1494 50.9948 45.155 44.9451 45.682C54.4142 37.8677 55.2034 16.439 35.4761 22.7617C10.2256 36.1977 37.8434 58.3275 63.8833 76.5055C89.9229 94.6835 80.454 131.83 79.6649 132.621Z" fill="#5C2095"/>
</mask>
<g mask="url(#mask4_45_72)">
<path d="M78.5974 128.418C80.7315 127.977 82.2474 126.58 81.9832 125.297C81.7191 124.015 79.775 123.332 77.6409 123.773C75.5069 124.214 73.991 125.611 74.2551 126.894C74.5193 128.176 76.4634 128.859 78.5974 128.418Z" fill="#954A83"/>
<path d="M78.0934 114.661C80.2581 114.911 82.1342 114.059 82.2838 112.758C82.4333 111.457 80.7998 110.2 78.6351 109.95C76.4704 109.701 74.5943 110.553 74.4447 111.854C74.2952 113.155 75.9287 114.412 78.0934 114.661Z" fill="#954A83"/>
<path d="M67.0463 102.016C69.211 102.265 71.0871 101.413 71.2367 100.112C71.3862 98.8113 69.7527 97.5543 67.588 97.3046C65.4233 97.055 63.5472 97.9071 63.3976 99.208C63.248 100.509 64.8816 101.766 67.0463 102.016Z" fill="#954A83"/>
<path d="M73.5546 93.4036C75.4841 92.3896 76.5558 90.6275 75.9484 89.4679C75.3409 88.3084 73.2843 88.1904 71.3548 89.2044C69.4253 90.2185 68.3535 91.9805 68.961 93.1401C69.5684 94.2997 71.6251 94.4176 73.5546 93.4036Z" fill="#954A83"/>
<path d="M61.7026 92.7348C64.429 91.3019 65.9434 88.8121 65.0851 87.1737C64.2267 85.5352 61.3207 85.3685 58.5943 86.8014C55.8679 88.2342 54.3535 90.724 55.2119 92.3625C56.0702 94.0009 58.9762 94.1676 61.7026 92.7348Z" fill="#954A83"/>
<path d="M64.5474 81.726C67.3529 81.2301 69.3863 79.4614 69.0893 77.7755C68.7923 76.0895 66.2772 75.1248 63.4718 75.6206C60.6663 76.1165 58.6329 77.8852 58.9299 79.5711C59.227 81.2571 61.742 82.2218 64.5474 81.726Z" fill="#954A83"/>
<path d="M49.6153 82.2627C51.3693 81.9527 52.6406 80.8468 52.4549 79.7928C52.2692 78.7387 50.6967 78.1355 48.9427 78.4455C47.1887 78.7555 45.9174 79.8613 46.1031 80.9154C46.2888 81.9695 47.8613 82.5727 49.6153 82.2627Z" fill="#954A83"/>
<path d="M48.9655 76.5666C49.7042 76.436 50.2395 75.9704 50.1613 75.5265C50.0831 75.0826 49.421 74.8286 48.6823 74.9592C47.9437 75.0897 47.4084 75.5554 47.4866 75.9993C47.5648 76.4431 48.2269 76.6971 48.9655 76.5666Z" fill="#954A83"/>
<path d="M47.3874 71.8244C48.126 71.6939 48.6614 71.2282 48.5832 70.7843C48.505 70.3404 47.8428 70.0864 47.1042 70.217C46.3656 70.3475 45.8302 70.8132 45.9084 71.2571C45.9866 71.701 46.6488 71.955 47.3874 71.8244Z" fill="#954A83"/>
<path d="M56.8564 86.0507C57.595 85.9202 58.1304 85.4545 58.0522 85.0106C57.974 84.5668 57.3118 84.3128 56.5732 84.4433C55.8346 84.5739 55.2992 85.0395 55.3774 85.4834C55.4556 85.9273 56.1178 86.1813 56.8564 86.0507Z" fill="#954A83"/>
<path d="M56.8564 78.1473C57.595 78.0167 58.1304 77.5511 58.0522 77.1072C57.974 76.6633 57.3118 76.4093 56.5732 76.5399C55.8346 76.6704 55.2992 77.1361 55.3774 77.58C55.4556 78.0238 56.1178 78.2778 56.8564 78.1473Z" fill="#954A83"/>
<path d="M54.3499 72.7785C56.1039 72.4685 57.3752 71.3627 57.1895 70.3086C57.0038 69.2545 55.4314 68.6514 53.6774 68.9614C51.9234 69.2714 50.652 70.3772 50.8377 71.4313C51.0234 72.4854 52.5959 73.0886 54.3499 72.7785Z" fill="#954A83"/>
<path d="M42.0501 76.1831C43.7609 75.6868 44.9068 74.4511 44.6096 73.423C44.3123 72.3948 42.6845 71.9637 40.9737 72.4599C39.2629 72.9561 38.117 74.1919 38.4142 75.22C38.7115 76.2481 40.3393 76.6793 42.0501 76.1831Z" fill="#954A83"/>
<path d="M46.8279 67.0802C49.8501 66.2036 51.8744 64.0206 51.3492 62.2044C50.8241 60.3882 47.9484 59.6265 44.9263 60.5031C41.9041 61.3797 39.8798 63.5627 40.4049 65.3789C40.9301 67.1951 43.8057 67.9568 46.8279 67.0802Z" fill="#954A83"/>
<path d="M37.0486 57.4978C40.1808 57.1989 42.5747 55.4306 42.3957 53.5483C42.2166 51.666 39.5323 50.3824 36.4001 50.6814C33.2679 50.9803 30.8739 52.7486 31.053 54.6309C31.2321 56.5132 33.9164 57.7968 37.0486 57.4978Z" fill="#954A83"/>
<path d="M29.0467 46.3251C32.1788 46.0261 34.5728 44.2579 34.3937 42.3756C34.2146 40.4932 31.5303 39.2097 28.3981 39.5086C25.2659 39.8076 22.872 41.5758 23.0511 43.4582C23.2302 45.3405 25.9145 46.6241 29.0467 46.3251Z" fill="#954A83"/>
<path d="M26.7749 37.1781C29.3163 36.9356 31.2586 35.5009 31.1133 33.9736C30.968 32.4464 28.7901 31.4049 26.2487 31.6475C23.7074 31.89 21.765 33.3247 21.9103 34.852C22.0556 36.3793 24.2336 37.4207 26.7749 37.1781Z" fill="#954A83"/>
<path d="M27.7439 29.6454C29.9924 30.8562 32.4031 30.7424 33.1285 29.3911C33.8538 28.0399 32.619 25.9629 30.3706 24.7521C28.1221 23.5413 25.7113 23.6551 24.986 25.0064C24.2607 26.3576 25.4954 28.4346 27.7439 29.6454Z" fill="#954A83"/>
<path d="M16.6965 21.742C18.945 22.9528 21.3558 22.8389 22.0811 21.4877C22.8064 20.1364 21.5717 18.0595 19.3232 16.8486C17.0747 15.6378 14.664 15.7517 13.9386 17.1029C13.2133 18.4542 14.4481 20.5311 16.6965 21.742Z" fill="#954A83"/>
<path d="M32.6243 71.8223C35.6465 70.9456 37.6708 68.7627 37.1456 66.9464C36.6205 65.1302 33.7448 64.3685 30.7226 65.2451C27.7005 66.1218 25.6762 68.3047 26.2013 70.121C26.7264 71.9372 29.6021 72.6989 32.6243 71.8223Z" fill="#954A83"/>
<path d="M22.2127 59.5142C25.3449 59.2152 27.7388 57.447 27.5597 55.5646C27.3806 53.6823 24.6963 52.3988 21.5641 52.6977C18.432 52.9967 16.038 54.7649 16.2171 56.6473C16.3962 58.5296 19.0805 59.8131 22.2127 59.5142Z" fill="#954A83"/>
<path d="M14.2105 48.3415C17.3427 48.0425 19.7366 46.2742 19.5575 44.3919C19.3784 42.5096 16.6941 41.226 13.5619 41.525C10.4298 41.8239 8.0358 43.5922 8.21489 45.4745C8.39397 47.3568 11.0783 48.6404 14.2105 48.3415Z" fill="#954A83"/>
<path d="M11.6766 35.6714C14.639 36.7334 17.5561 36.1511 18.1923 34.3708C18.8284 32.5905 16.9426 30.2865 13.9803 29.2245C11.0179 28.1626 8.10076 28.7449 7.46463 30.5252C6.82849 32.3055 8.71427 34.6095 11.6766 35.6714Z" fill="#954A83"/>
<path d="M37.3857 61.8676C38.4783 61.5507 39.2102 60.7615 39.0203 60.1048C38.8305 59.4482 37.7908 59.1728 36.6981 59.4897C35.6055 59.8067 34.8736 60.5959 35.0635 61.2525C35.2533 61.9092 36.293 62.1846 37.3857 61.8676Z" fill="#954A83"/>
<path d="M28.7375 50.6188C29.8699 50.5107 30.7354 49.8714 30.6707 49.1909C30.6059 48.5104 29.6355 48.0463 28.503 48.1544C27.3706 48.2625 26.5051 48.9018 26.5699 49.5823C26.6346 50.2628 27.6051 50.7269 28.7375 50.6188Z" fill="#954A83"/>
<path d="M21.2229 48.9304C22.3553 48.8223 23.2208 48.183 23.156 47.5024C23.0913 46.8219 22.1208 46.3578 20.9884 46.4659C19.856 46.574 18.9905 47.2133 19.0552 47.8938C19.12 48.5744 20.0905 49.0384 21.2229 48.9304Z" fill="#954A83"/>
<path d="M19.6447 41.0268C20.7772 40.9187 21.6427 40.2794 21.5779 39.5989C21.5132 38.9183 20.5427 38.4543 19.4103 38.5624C18.2779 38.6704 17.4124 39.3097 17.4771 39.9903C17.5418 40.6708 18.5123 41.1349 19.6447 41.0268Z" fill="#954A83"/>
<path d="M19.6979 31.3614C20.7689 31.7454 21.8236 31.5348 22.0536 30.8912C22.2836 30.2476 21.6018 29.4145 20.5308 29.0306C19.4598 28.6467 18.4051 28.8572 18.1751 29.5009C17.9451 30.1445 18.6269 30.9775 19.6979 31.3614Z" fill="#954A83"/>
<path d="M25.6116 22.0334C26.6827 22.4173 27.8325 21.9405 28.1799 20.9683C28.5273 19.9961 27.9407 18.8967 26.8697 18.5128C25.7986 18.1289 24.6488 18.6057 24.3014 19.5779C23.954 20.5501 24.5406 21.6495 25.6116 22.0334Z" fill="#954A83"/>
<path d="M28.4102 15.1311C30.0904 15.7334 31.8942 14.9853 32.4392 13.4602C32.9842 11.935 32.0639 10.2104 30.3837 9.60813C28.7036 9.00583 26.8998 9.75395 26.3548 11.2791C25.8098 12.8042 26.7301 14.5288 28.4102 15.1311Z" fill="#954A83"/>
<path d="M36.1837 24.4312C37.8638 25.0335 39.6676 24.2854 40.2126 22.7602C40.7576 21.2351 39.8373 19.5105 38.1572 18.9082C36.477 18.3059 34.6732 19.054 34.1282 20.5791C33.5833 22.1043 34.5035 23.8289 36.1837 24.4312Z" fill="#954A83"/>
<path d="M39.6817 17.0009C40.6789 17.3584 41.7496 16.9143 42.073 16.0091C42.3965 15.1039 41.8503 14.0802 40.853 13.7227C39.8558 13.3652 38.7851 13.8093 38.4617 14.7145C38.1382 15.6198 38.6844 16.6434 39.6817 17.0009Z" fill="#954A83"/>
<path d="M47.5723 15.4202C48.5696 15.7777 49.6402 15.3337 49.9637 14.4284C50.2871 13.5232 49.7409 12.4995 48.7437 12.142C47.7464 11.7846 46.6758 12.2286 46.3523 13.1338C46.0288 14.0391 46.575 15.0627 47.5723 15.4202Z" fill="#954A83"/>
<path d="M44.416 23.3238C45.4133 23.6813 46.484 23.2372 46.8074 22.332C47.1309 21.4267 46.5847 20.4031 45.5874 20.0456C44.5902 19.6881 43.5195 20.1322 43.196 21.0374C42.8726 21.9426 43.4188 22.9663 44.416 23.3238Z" fill="#954A83"/>
<path d="M49.1507 21.7431C50.1479 22.1006 51.2186 21.6565 51.542 20.7513C51.8655 19.8461 51.3193 18.8224 50.322 18.4649C49.3248 18.1074 48.2541 18.5515 47.9307 19.4567C47.6072 20.3619 48.1534 21.3856 49.1507 21.7431Z" fill="#954A83"/>
<path d="M49.1507 28.0658C50.1479 28.4233 51.2186 27.9793 51.542 27.074C51.8655 26.1688 51.3193 25.1452 50.322 24.7877C49.3248 24.4302 48.2541 24.8742 47.9307 25.7795C47.6072 26.6847 48.1534 27.7083 49.1507 28.0658Z" fill="#954A83"/>
<path d="M53.0364 24.64C53.5649 24.8295 54.1323 24.5942 54.3037 24.1144C54.4751 23.6347 54.1857 23.0922 53.6571 22.9027C53.1286 22.7133 52.5612 22.9486 52.3898 23.4283C52.2184 23.9081 52.5079 24.4506 53.0364 24.64Z" fill="#954A83"/>
<path d="M56.1926 30.9628C56.7211 31.1522 57.2885 30.9169 57.4599 30.4372C57.6314 29.9574 57.3419 29.4149 56.8134 29.2255C56.2849 29.036 55.7175 29.2714 55.5461 29.7511C55.3746 30.2308 55.6641 30.7733 56.1926 30.9628Z" fill="#954A83"/>
<path d="M51.4582 32.5436C51.9867 32.7331 52.5541 32.4977 52.7256 32.018C52.897 31.5382 52.6075 30.9958 52.079 30.8063C51.5505 30.6168 50.9831 30.8522 50.8117 31.3319C50.6403 31.8117 50.9297 32.3541 51.4582 32.5436Z" fill="#954A83"/>
<path d="M53.0364 37.2857C53.5649 37.4751 54.1323 37.2398 54.3037 36.7601C54.4751 36.2803 54.1857 35.7378 53.6571 35.5484C53.1286 35.3589 52.5612 35.5942 52.3898 36.074C52.2184 36.5537 52.5079 37.0962 53.0364 37.2857Z" fill="#954A83"/>
<path d="M49.8801 40.447C50.4086 40.6365 50.976 40.4012 51.1474 39.9214C51.3189 39.4417 51.0294 38.8992 50.5009 38.7097C49.9724 38.5203 49.405 38.7556 49.2336 39.2354C49.0621 39.7151 49.3516 40.2576 49.8801 40.447Z" fill="#954A83"/>
<path d="M48.302 43.6084C48.8305 43.7979 49.3979 43.5626 49.5693 43.0828C49.7407 42.6031 49.4513 42.0606 48.9228 41.8711C48.3943 41.6817 47.8269 41.917 47.6554 42.3967C47.484 42.8765 47.7735 43.419 48.302 43.6084Z" fill="#954A83"/>
<path d="M70.2782 114.262C71.6129 114.416 72.7698 113.891 72.862 113.089C72.9542 112.287 71.9469 111.512 70.6122 111.358C69.2774 111.204 68.1205 111.729 68.0283 112.531C67.9361 113.333 68.9434 114.109 70.2782 114.262Z" fill="#954A83"/>
<path d="M75.7885 98.7896C77.071 98.3882 77.9157 97.4381 77.6752 96.6674C77.4348 95.8967 76.2002 95.5973 74.9178 95.9987C73.6353 96.4001 72.7906 97.3502 73.0311 98.1209C73.2715 98.8916 74.5061 99.191 75.7885 98.7896Z" fill="#954A83"/>
<path d="M72.6058 123.161C76.1036 122.438 78.5882 120.148 78.1552 118.046C77.7223 115.944 74.5359 114.826 71.0381 115.549C67.5403 116.271 65.0558 118.561 65.4887 120.663C65.9216 122.765 69.1081 123.884 72.6058 123.161Z" fill="#954A83"/>
<path d="M77.395 108.753C80.9169 109.346 84.0601 108.111 84.4154 105.994C84.7706 103.878 82.2035 101.681 78.6816 101.088C75.1596 100.495 72.0164 101.73 71.6611 103.846C71.3059 105.963 73.873 108.16 77.395 108.753Z" fill="#954A83"/>
<path d="M57.5232 96.0622C69.5173 107.443 61.4687 127.676 55.9451 136.371L36.218 133.999C45.424 129.783 57.681 116.295 33.0616 96.0622C8.44215 75.8293 0.183055 52.3296 -0.869059 43.1088C-1.65814 35.2053 0.866934 13.2335 23.5926 7.54307C46.3182 1.85256 56.9972 15.4465 59.8905 24.9307C55.9451 14.1293 41.1103 0.746062 16.4909 17.8176C-14.2835 39.157 42.5305 81.836 57.5232 96.0622Z" fill="#4F227A"/>
</g>
<path d="M32.5713 9.20433C25.6979 8.82228 10.4335 11.7906 4.36426 26.7206C7.51197 22.0464 17.5601 11.9993 32.5713 9.20433Z" fill="#7330B3"/>
<path d="M271.119 132.621C286.902 139.576 301.894 135.518 307.418 132.621C306.103 127.615 297.16 122.346 300.316 105.749C302.609 93.6957 357.842 63.5399 350.029 31.4555C342.138 -0.948698 294.003 4.58369 290.847 24.3425C288.323 40.1494 299.79 45.155 305.839 45.682C296.371 37.8677 295.581 16.439 315.309 22.7617C340.559 36.1977 312.941 58.3275 286.902 76.5055C260.861 94.6835 270.331 131.83 271.119 132.621Z" fill="#5C2095"/>
<mask id="mask5_45_72" style="mask-type:alpha" maskUnits="userSpaceOnUse" x="268" y="8" width="83" height="129">
<path d="M271.119 132.621C286.902 139.576 301.894 135.518 307.418 132.621C306.103 127.615 297.16 122.346 300.316 105.749C302.609 93.6957 357.842 63.5399 350.029 31.4555C342.138 -0.948698 294.003 4.58369 290.847 24.3425C288.323 40.1494 299.79 45.155 305.839 45.682C296.371 37.8677 295.581 16.439 315.309 22.7617C340.559 36.1977 312.941 58.3275 286.902 76.5055C260.861 94.6835 270.331 131.83 271.119 132.621Z" fill="#5C2095"/>
</mask>
<g mask="url(#mask5_45_72)">
<path d="M272.187 128.418C270.053 127.977 268.537 126.58 268.801 125.297C269.065 124.015 271.009 123.332 273.143 123.773C275.277 124.214 276.793 125.611 276.529 126.894C276.265 128.176 274.321 128.859 272.187 128.418Z" fill="#954A83"/>
<path d="M272.691 114.661C270.527 114.911 268.65 114.059 268.501 112.758C268.351 111.457 269.985 110.2 272.15 109.95C274.314 109.701 276.19 110.553 276.34 111.854C276.49 113.155 274.856 114.412 272.691 114.661Z" fill="#954A83"/>
<path d="M283.739 102.016C281.574 102.265 279.698 101.413 279.549 100.112C279.399 98.8113 281.032 97.5543 283.197 97.3047C285.362 97.055 287.238 97.9071 287.388 99.208C287.537 100.509 285.904 101.766 283.739 102.016Z" fill="#954A83"/>
<path d="M277.23 93.4035C275.3 92.3894 274.229 90.6274 274.836 89.4678C275.444 88.3082 277.5 88.1903 279.43 89.2043C281.359 90.2184 282.431 91.9804 281.823 93.14C281.216 94.2996 279.159 94.4175 277.23 93.4035Z" fill="#954A83"/>
<path d="M289.083 92.7348C286.356 91.3019 284.842 88.8121 285.7 87.1736C286.558 85.5352 289.464 85.3685 292.191 86.8013C294.917 88.2342 296.432 90.724 295.573 92.3625C294.715 94.0009 291.809 94.1676 289.083 92.7348Z" fill="#954A83"/>
<path d="M286.237 81.726C283.432 81.2301 281.399 79.4614 281.696 77.7755C281.993 76.0895 284.508 75.1248 287.313 75.6206C290.119 76.1165 292.152 77.8852 291.855 79.5711C291.558 81.2571 289.043 82.2218 286.237 81.726Z" fill="#954A83"/>
<path d="M301.169 82.2626C299.415 81.9525 298.144 80.8467 298.33 79.7926C298.515 78.7386 300.088 78.1354 301.842 78.4454C303.596 78.7554 304.867 79.8612 304.681 80.9153C304.496 81.9694 302.923 82.5726 301.169 82.2626Z" fill="#954A83"/>
<path d="M301.819 76.5666C301.08 76.436 300.545 75.9704 300.623 75.5265C300.701 75.0826 301.363 74.8286 302.102 74.9592C302.84 75.0897 303.376 75.5554 303.298 75.9993C303.219 76.4431 302.557 76.6971 301.819 76.5666Z" fill="#954A83"/>
<path d="M303.397 71.8244C302.658 71.6939 302.123 71.2282 302.201 70.7843C302.279 70.3404 302.942 70.0864 303.68 70.217C304.419 70.3475 304.954 70.8132 304.876 71.2571C304.798 71.701 304.136 71.955 303.397 71.8244Z" fill="#954A83"/>
<path d="M293.929 86.0507C293.19 85.9202 292.655 85.4545 292.733 85.0106C292.811 84.5668 293.473 84.3128 294.212 84.4433C294.951 84.5739 295.486 85.0395 295.408 85.4834C295.33 85.9273 294.667 86.1813 293.929 86.0507Z" fill="#954A83"/>
<path d="M293.929 78.1473C293.19 78.0167 292.655 77.5511 292.733 77.1072C292.811 76.6633 293.473 76.4093 294.212 76.5399C294.951 76.6704 295.486 77.1361 295.408 77.58C295.33 78.0238 294.667 78.2778 293.929 78.1473Z" fill="#954A83"/>
<path d="M296.436 72.7784C294.682 72.4684 293.41 71.3626 293.596 70.3085C293.782 69.2544 295.354 68.6512 297.108 68.9613C298.862 69.2713 300.133 70.3771 299.948 71.4312C299.762 72.4853 298.19 73.0884 296.436 72.7784Z" fill="#954A83"/>
<path d="M308.735 76.1831C307.024 75.6868 305.878 74.4511 306.175 73.423C306.472 72.3948 308.1 71.9637 309.811 72.4599C311.522 72.9561 312.668 74.1919 312.37 75.22C312.073 76.2481 310.445 76.6793 308.735 76.1831Z" fill="#954A83"/>
<path d="M303.957 67.0802C300.935 66.2036 298.91 64.0206 299.435 62.2044C299.961 60.3882 302.836 59.6265 305.858 60.5031C308.881 61.3797 310.905 63.5627 310.38 65.3789C309.855 67.1951 306.979 67.9568 303.957 67.0802Z" fill="#954A83"/>
<path d="M313.736 57.4978C310.604 57.1989 308.21 55.4306 308.389 53.5483C308.568 51.666 311.253 50.3824 314.385 50.6814C317.517 50.9803 319.911 52.7486 319.732 54.6309C319.553 56.5132 316.868 57.7968 313.736 57.4978Z" fill="#954A83"/>
<path d="M321.738 46.3251C318.606 46.0261 316.212 44.2579 316.391 42.3756C316.57 40.4932 319.254 39.2097 322.386 39.5086C325.518 39.8076 327.912 41.5758 327.733 43.4582C327.554 45.3405 324.87 46.6241 321.738 46.3251Z" fill="#954A83"/>
<path d="M324.01 37.1781C321.469 36.9356 319.526 35.5009 319.672 33.9736C319.817 32.4464 321.995 31.4049 324.536 31.6475C327.078 31.89 329.02 33.3248 328.875 34.852C328.729 36.3793 326.551 37.4207 324.01 37.1781Z" fill="#954A83"/>
<path d="M323.042 29.6454C320.793 30.8562 318.383 30.7424 317.657 29.3911C316.932 28.0399 318.167 25.9629 320.415 24.7521C322.664 23.5413 325.074 23.6551 325.8 25.0063C326.525 26.3576 325.29 28.4346 323.042 29.6454Z" fill="#954A83"/>
<path d="M334.088 21.742C331.84 22.9528 329.429 22.8389 328.704 21.4877C327.978 20.1364 329.213 18.0595 331.461 16.8486C333.71 15.6378 336.121 15.7517 336.846 17.1029C337.571 18.4542 336.337 20.5311 334.088 21.742Z" fill="#954A83"/>
<path d="M318.161 71.8223C315.139 70.9456 313.114 68.7627 313.64 66.9464C314.165 65.1302 317.04 64.3685 320.063 65.2451C323.085 66.1218 325.109 68.3047 324.584 70.121C324.059 71.9372 321.183 72.6989 318.161 71.8223Z" fill="#954A83"/>
<path d="M328.573 59.5142C325.441 59.2152 323.047 57.447 323.226 55.5646C323.405 53.6823 326.089 52.3988 329.221 52.6977C332.353 52.9967 334.747 54.7649 334.568 56.6473C334.389 58.5296 331.705 59.8131 328.573 59.5142Z" fill="#954A83"/>
<path d="M336.574 48.3416C333.442 48.0426 331.048 46.2744 331.227 44.392C331.406 42.5097 334.091 41.2261 337.223 41.5251C340.355 41.8241 342.749 43.5923 342.57 45.4746C342.391 47.357 339.706 48.6405 336.574 48.3416Z" fill="#954A83"/>
<path d="M339.108 35.6714C336.146 36.7334 333.229 36.1511 332.592 34.3708C331.956 32.5905 333.842 30.2865 336.804 29.2246C339.767 28.1626 342.684 28.7449 343.32 30.5252C343.956 32.3055 342.07 34.6095 339.108 35.6714Z" fill="#954A83"/>
<path d="M313.399 61.8675C312.307 61.5506 311.575 60.7613 311.765 60.1047C311.954 59.4481 312.994 59.1727 314.087 59.4896C315.179 59.8066 315.911 60.5958 315.721 61.2524C315.532 61.9091 314.492 62.1844 313.399 61.8675Z" fill="#954A83"/>
<path d="M322.048 50.6188C320.915 50.5107 320.05 49.8714 320.115 49.1909C320.179 48.5104 321.15 48.0463 322.282 48.1544C323.415 48.2625 324.28 48.9018 324.216 49.5823C324.151 50.2628 323.18 50.7269 322.048 50.6188Z" fill="#954A83"/>
<path d="M329.561 48.9304C328.429 48.8223 327.563 48.183 327.628 47.5024C327.693 46.8219 328.663 46.3578 329.796 46.4659C330.928 46.574 331.794 47.2133 331.729 47.8938C331.664 48.5744 330.694 49.0384 329.561 48.9304Z" fill="#954A83"/>
<path d="M331.14 41.0269C330.007 40.9188 329.142 40.2795 329.207 39.599C329.271 38.9185 330.242 38.4544 331.374 38.5625C332.507 38.6706 333.372 39.3099 333.307 39.9904C333.243 40.6709 332.272 41.135 331.14 41.0269Z" fill="#954A83"/>
<path d="M331.087 31.3614C330.016 31.7454 328.961 31.5348 328.731 30.8912C328.501 30.2476 329.183 29.4145 330.254 29.0306C331.325 28.6467 332.38 28.8572 332.61 29.5009C332.84 30.1445 332.158 30.9775 331.087 31.3614Z" fill="#954A83"/>
<path d="M325.173 22.0334C324.102 22.4173 322.952 21.9405 322.605 20.9683C322.258 19.9961 322.844 18.8967 323.915 18.5128C324.986 18.1289 326.136 18.6057 326.483 19.5779C326.831 20.5501 326.244 21.6495 325.173 22.0334Z" fill="#954A83"/>
<path d="M322.374 15.1311C320.694 15.7334 318.89 14.9853 318.345 13.4602C317.801 11.935 318.721 10.2104 320.401 9.60813C322.081 9.00583 323.885 9.75395 324.43 11.2791C324.975 12.8042 324.055 14.5288 322.374 15.1311Z" fill="#954A83"/>
<path d="M314.601 24.4312C312.921 25.0335 311.117 24.2854 310.572 22.7602C310.027 21.2351 310.947 19.5105 312.627 18.9082C314.308 18.3059 316.111 19.054 316.656 20.5791C317.201 22.1043 316.281 23.8289 314.601 24.4312Z" fill="#954A83"/>
<path d="M311.103 17.001C310.106 17.3585 309.035 16.9145 308.712 16.0092C308.388 15.104 308.935 14.0803 309.932 13.7229C310.929 13.3654 312 13.8094 312.323 14.7146C312.647 15.6199 312.1 16.6435 311.103 17.001Z" fill="#954A83"/>
<path d="M303.212 15.4202C302.215 15.7777 301.144 15.3337 300.821 14.4284C300.497 13.5232 301.043 12.4995 302.041 12.142C303.038 11.7846 304.108 12.2286 304.432 13.1338C304.755 14.0391 304.209 15.0627 303.212 15.4202Z" fill="#954A83"/>
<path d="M306.368 23.3238C305.371 23.6813 304.3 23.2372 303.977 22.332C303.654 21.4267 304.2 20.4031 305.197 20.0456C306.194 19.6881 307.265 20.1322 307.588 21.0374C307.912 21.9426 307.366 22.9663 306.368 23.3238Z" fill="#954A83"/>
<path d="M301.634 21.7431C300.637 22.1006 299.566 21.6565 299.242 20.7513C298.919 19.8461 299.465 18.8224 300.462 18.4649C301.46 18.1074 302.53 18.5515 302.854 19.4567C303.177 20.362 302.631 21.3856 301.634 21.7431Z" fill="#954A83"/>
<path d="M301.634 28.066C300.637 28.4234 299.566 27.9794 299.242 27.0742C298.919 26.1689 299.465 25.1453 300.462 24.7878C301.46 24.4303 302.53 24.8743 302.854 25.7796C303.177 26.6848 302.631 27.7085 301.634 28.066Z" fill="#954A83"/>
<path d="M297.749 24.64C297.22 24.8295 296.653 24.5942 296.481 24.1144C296.31 23.6347 296.6 23.0922 297.128 22.9027C297.657 22.7133 298.224 22.9486 298.395 23.4283C298.567 23.9081 298.277 24.4506 297.749 24.64Z" fill="#954A83"/>
<path d="M294.592 30.9628C294.064 31.1522 293.496 30.9169 293.325 30.4372C293.154 29.9574 293.443 29.4149 293.972 29.2255C294.5 29.036 295.067 29.2714 295.239 29.7511C295.41 30.2308 295.121 30.7733 294.592 30.9628Z" fill="#954A83"/>
<path d="M299.327 32.5435C298.799 32.7329 298.231 32.4976 298.06 32.0179C297.888 31.5381 298.178 30.9956 298.706 30.8062C299.235 30.6167 299.802 30.852 299.974 31.3318C300.145 31.8115 299.856 32.354 299.327 32.5435Z" fill="#954A83"/>
<path d="M297.749 37.2857C297.22 37.4751 296.653 37.2398 296.481 36.7601C296.31 36.2803 296.6 35.7378 297.128 35.5484C297.657 35.3589 298.224 35.5942 298.395 36.074C298.567 36.5537 298.277 37.0962 297.749 37.2857Z" fill="#954A83"/>
<path d="M300.905 40.447C300.377 40.6365 299.809 40.4012 299.638 39.9214C299.467 39.4417 299.756 38.8992 300.285 38.7097C300.813 38.5203 301.38 38.7556 301.552 39.2354C301.723 39.7151 301.434 40.2576 300.905 40.447Z" fill="#954A83"/>
<path d="M302.484 43.6084C301.955 43.7979 301.388 43.5626 301.216 43.0828C301.045 42.6031 301.334 42.0606 301.863 41.8711C302.391 41.6817 302.959 41.917 303.13 42.3967C303.302 42.8765 303.012 43.419 302.484 43.6084Z" fill="#954A83"/>
<path d="M280.507 114.263C279.172 114.417 278.015 113.891 277.923 113.089C277.83 112.287 278.838 111.512 280.173 111.358C281.507 111.204 282.664 111.729 282.756 112.531C282.849 113.334 281.841 114.109 280.507 114.263Z" fill="#954A83"/>
<path d="M274.996 98.7897C273.713 98.3883 272.869 97.4382 273.109 96.6675C273.35 95.8968 274.584 95.5974 275.867 95.9988C277.149 96.4002 277.994 97.3504 277.753 98.1211C277.513 98.8918 276.278 99.1911 274.996 98.7897Z" fill="#954A83"/>
<path d="M278.179 123.161C274.681 122.438 272.197 120.148 272.629 118.046C273.062 115.944 276.249 114.826 279.747 115.549C283.244 116.272 285.729 118.561 285.296 120.663C284.863 122.765 281.677 123.884 278.179 123.161Z" fill="#954A83"/>
<path d="M273.39 108.753C269.868 109.346 266.725 108.111 266.37 105.994C266.014 103.878 268.581 101.681 272.103 101.088C275.625 100.495 278.768 101.73 279.124 103.846C279.479 105.963 276.912 108.16 273.39 108.753Z" fill="#954A83"/>
<path d="M293.262 96.0622C281.267 107.443 289.316 127.676 294.84 136.371L314.566 133.999C305.36 129.783 293.103 116.295 317.723 96.0622C342.342 75.8293 350.602 52.3296 351.654 43.1088C352.443 35.2053 349.917 13.2335 327.192 7.54307C304.467 1.85256 293.788 15.4465 290.894 24.9307C294.84 14.1293 309.674 0.746062 334.294 17.8176C365.069 39.157 308.255 81.836 293.262 96.0622Z" fill="#4F227A"/>
</g>
<path d="M318.213 9.20433C325.087 8.82228 340.352 11.7906 346.42 26.7206C343.273 22.0464 333.225 11.9993 318.213 9.20433Z" fill="#7330B3"/>
</svg>
