<svg width="222" height="222" viewBox="0 0 222 222" fill="none" xmlns="http://www.w3.org/2000/svg">
<g id="Group">
<g id="Group_2">
<path id="Vector" d="M77.0715 8.58277H69.2334V4.6637C69.2334 2.44289 70.9317 0.744629 73.1525 0.744629C75.3733 0.744629 77.0715 2.44289 77.0715 4.6637V8.58277Z" fill="black"/>
</g>
<g id="Group_3">
<path id="Vector_2" d="M88.3722 8.58277C90.5366 8.58277 92.2913 6.82815 92.2913 4.6637C92.2913 2.49926 90.5366 0.744629 88.3722 0.744629C86.2078 0.744629 84.4531 2.49926 84.4531 4.6637C84.4531 6.82815 86.2078 8.58277 88.3722 8.58277Z" fill="black"/>
</g>
<g id="Group_4">
<path id="Vector_3" d="M107.511 8.58277H99.6729V4.6637C99.6729 2.44289 101.371 0.744629 103.592 0.744629H107.511V8.58277Z" fill="black"/>
</g>
<g id="Group_5">
<path id="Vector_4" d="M115.12 0.744629H107.282V8.58277H115.12V0.744629Z" fill="black"/>
</g>
<g id="Group_6">
<path id="Vector_5" d="M122.731 8.58277H114.893V0.744629H118.812C121.032 0.744629 122.731 2.44289 122.731 4.6637V8.58277Z" fill="black"/>
</g>
<g id="Group_7">
<path id="Vector_6" d="M134.031 8.58277C136.196 8.58277 137.95 6.82815 137.95 4.6637C137.95 2.49926 136.196 0.744629 134.031 0.744629C131.867 0.744629 130.112 2.49926 130.112 4.6637C130.112 6.82815 131.867 8.58277 134.031 8.58277Z" fill="black"/>
</g>
<g id="Group_8">
<path id="Vector_7" d="M153.171 8.58277H149.252C147.031 8.58277 145.333 6.88451 145.333 4.6637C145.333 2.44289 147.031 0.744629 149.252 0.744629H153.171V8.58277Z" fill="black"/>
</g>
<g id="Group_9">
<path id="Vector_8" d="M156.86 8.58277H152.941V0.744629H156.86C159.081 0.744629 160.78 2.44289 160.78 4.6637C160.78 6.88451 159.081 8.58277 156.86 8.58277Z" fill="black"/>
</g>
<g id="Group_10">
<path id="Vector_9" d="M77.0715 16.1926H73.1525C70.9317 16.1926 69.2334 14.4944 69.2334 12.2736V8.35449H77.0715V16.1926Z" fill="black"/>
</g>
<g id="Group_11">
<path id="Vector_10" d="M80.7628 16.1926H76.8438V8.35449H80.7628C82.9836 8.35449 84.6819 10.0528 84.6819 12.2736C84.6819 14.4944 82.9836 16.1926 80.7628 16.1926Z" fill="black"/>
</g>
<g id="Group_12">
<path id="Vector_11" d="M99.9016 16.1926H95.9825C93.7617 16.1926 92.0635 14.4944 92.0635 12.2736C92.0635 10.0528 93.7617 8.35449 95.9825 8.35449H99.9016V16.1926Z" fill="black"/>
</g>
<g id="Group_13">
<path id="Vector_12" d="M107.511 8.35449H99.6729V16.1926H107.511V8.35449Z" fill="black"/>
</g>
<g id="Group_14">
<path id="Vector_13" d="M115.12 8.35449H107.282V16.1926H115.12V8.35449Z" fill="black"/>
</g>
<g id="Group_15">
<path id="Vector_14" d="M122.731 8.35449H114.893V16.1926H122.731V8.35449Z" fill="black"/>
</g>
<g id="Group_16">
<path id="Vector_15" d="M126.422 16.1926H122.503V8.35449H126.422C128.643 8.35449 130.341 10.0528 130.341 12.2736C130.341 14.4944 128.643 16.1926 126.422 16.1926Z" fill="black"/>
</g>
<g id="Group_17">
<path id="Vector_16" d="M145.561 16.1926H137.723V12.2736C137.723 10.0528 139.421 8.35449 141.642 8.35449C143.863 8.35449 145.561 10.0528 145.561 12.2736V16.1926Z" fill="black"/>
</g>
<g id="Group_18">
<path id="Vector_17" d="M69.4612 23.8025H61.623V19.8834C61.623 17.6626 63.3213 15.9644 65.5421 15.9644C67.7629 15.9644 69.4612 17.6626 69.4612 19.8834V23.8025Z" fill="black"/>
</g>
<g id="Group_19">
<path id="Vector_18" d="M92.2913 23.8025H84.4531V19.8834C84.4531 17.6626 86.1514 15.9644 88.3722 15.9644C90.593 15.9644 92.2913 17.6626 92.2913 19.8834V23.8025Z" fill="black"/>
</g>
<g id="Group_20">
<path id="Vector_19" d="M103.592 23.8025C101.371 23.8025 99.6729 22.1042 99.6729 19.8834V15.9644H107.511V19.8834C107.511 22.1042 105.813 23.8025 103.592 23.8025Z" fill="black"/>
</g>
<g id="Group_21">
<path id="Vector_20" d="M122.731 15.9644H114.893V23.8025H122.731V15.9644Z" fill="black"/>
</g>
<g id="Group_22">
<path id="Vector_21" d="M145.561 23.8025H141.642C139.421 23.8025 137.723 22.1042 137.723 19.8834V15.9644H145.561V23.8025Z" fill="black"/>
</g>
<g id="Group_23">
<path id="Vector_22" d="M149.252 23.8025H145.333V15.9644H149.252C151.473 15.9644 153.171 17.6626 153.171 19.8834C153.171 22.1042 151.473 23.8025 149.252 23.8025Z" fill="black"/>
</g>
<g id="Group_24">
<path id="Vector_23" d="M69.4612 23.5742H61.623V31.4124H69.4612V23.5742Z" fill="black"/>
</g>
<g id="Group_25">
<path id="Vector_24" d="M77.0715 23.5742H69.2334V31.4124H77.0715V23.5742Z" fill="black"/>
</g>
<g id="Group_26">
<path id="Vector_25" d="M84.6819 23.5742H76.8438V31.4124H84.6819V23.5742Z" fill="black"/>
</g>
<g id="Group_27">
<path id="Vector_26" d="M88.3722 31.4124H84.4531V23.5742H92.2913V27.4933C92.2913 29.7141 90.593 31.4124 88.3722 31.4124Z" fill="black"/>
</g>
<g id="Group_28">
<path id="Vector_27" d="M115.12 31.4124H111.201C108.98 31.4124 107.282 29.7141 107.282 27.4933C107.282 25.2725 108.98 23.5742 111.201 23.5742H115.12V31.4124Z" fill="black"/>
</g>
<g id="Group_29">
<path id="Vector_28" d="M122.731 23.5742H114.893V31.4124H122.731V23.5742Z" fill="black"/>
</g>
<g id="Group_30">
<path id="Vector_29" d="M160.78 31.4124H152.941V27.4933C152.941 25.2725 154.64 23.5742 156.86 23.5742C159.081 23.5742 160.78 25.2725 160.78 27.4933V31.4124Z" fill="black"/>
</g>
<g id="Group_31">
<path id="Vector_30" d="M69.4612 31.1841H61.623V39.0222H69.4612V31.1841Z" fill="black"/>
</g>
<g id="Group_32">
<path id="Vector_31" d="M80.7628 39.0222C78.542 39.0222 76.8438 37.324 76.8438 35.1032V31.1841H84.6819V35.1032C84.6819 37.324 82.9836 39.0222 80.7628 39.0222Z" fill="black"/>
</g>
<g id="Group_33">
<path id="Vector_32" d="M99.9016 39.0222H92.0635V35.1032C92.0635 32.8823 93.7617 31.1841 95.9825 31.1841C98.2034 31.1841 99.9016 32.8823 99.9016 35.1032V39.0222Z" fill="black"/>
</g>
<g id="Group_34">
<path id="Vector_33" d="M122.731 39.0222H118.812C116.591 39.0222 114.893 37.324 114.893 35.1032V31.1841H122.731V39.0222Z" fill="black"/>
</g>
<g id="Group_35">
<path id="Vector_34" d="M130.341 31.1841H122.503V39.0222H130.341V31.1841Z" fill="black"/>
</g>
<g id="Group_36">
<path id="Vector_35" d="M134.031 39.0222H130.112V31.1841H134.031C136.252 31.1841 137.95 32.8823 137.95 35.1032C137.95 37.324 136.252 39.0222 134.031 39.0222Z" fill="black"/>
</g>
<g id="Group_37">
<path id="Vector_36" d="M160.78 31.1841H152.941V39.0222H160.78V31.1841Z" fill="black"/>
</g>
<g id="Group_38">
<path id="Vector_37" d="M69.4612 38.7939H61.623V46.6321H69.4612V38.7939Z" fill="black"/>
</g>
<g id="Group_39">
<path id="Vector_38" d="M73.1525 46.6321H69.2334V38.7939H73.1525C75.3733 38.7939 77.0715 40.4922 77.0715 42.713C77.0715 44.9338 75.3733 46.6321 73.1525 46.6321Z" fill="black"/>
</g>
<g id="Group_40">
<path id="Vector_39" d="M99.9016 38.7939H92.0635V46.6321H99.9016V38.7939Z" fill="black"/>
</g>
<g id="Group_41">
<path id="Vector_40" d="M145.561 46.6321H137.723V42.713C137.723 40.4922 139.421 38.7939 141.642 38.7939C143.863 38.7939 145.561 40.4922 145.561 42.713V46.6321Z" fill="black"/>
</g>
<g id="Group_42">
<path id="Vector_41" d="M160.78 38.7939H152.941V46.6321H160.78V38.7939Z" fill="black"/>
</g>
<g id="Group_43">
<path id="Vector_42" d="M69.4612 46.4038H61.623V54.242H69.4612V46.4038Z" fill="black"/>
</g>
<g id="Group_44">
<path id="Vector_43" d="M80.7628 54.242C82.9273 54.242 84.6819 52.4873 84.6819 50.3229C84.6819 48.1584 82.9273 46.4038 80.7628 46.4038C78.5984 46.4038 76.8438 48.1584 76.8438 50.3229C76.8438 52.4873 78.5984 54.242 80.7628 54.242Z" fill="black"/>
</g>
<g id="Group_45">
<path id="Vector_44" d="M99.9016 46.4038H92.0635V54.242H99.9016V46.4038Z" fill="black"/>
</g>
<g id="Group_46">
<path id="Vector_45" d="M115.12 54.242H107.282V50.3229C107.282 48.1021 108.98 46.4038 111.201 46.4038C113.422 46.4038 115.12 48.1021 115.12 50.3229V54.242Z" fill="black"/>
</g>
<g id="Group_47">
<path id="Vector_46" d="M130.341 54.242H122.503V50.3229C122.503 48.1021 124.201 46.4038 126.422 46.4038C128.643 46.4038 130.341 48.1021 130.341 50.3229V54.242Z" fill="black"/>
</g>
<g id="Group_48">
<path id="Vector_47" d="M141.642 54.242C139.421 54.242 137.723 52.5437 137.723 50.3229V46.4038H145.561V50.3229C145.561 52.5437 143.863 54.242 141.642 54.242Z" fill="black"/>
</g>
<g id="Group_49">
<path id="Vector_48" d="M156.86 54.242C154.64 54.242 152.941 52.5437 152.941 50.3229V46.4038H160.78V50.3229C160.78 52.5437 159.081 54.242 156.86 54.242Z" fill="black"/>
</g>
<g id="Group_50">
<path id="Vector_49" d="M65.5421 61.8518C63.3213 61.8518 61.623 60.1536 61.623 57.9327V54.0137H69.4612V57.9327C69.4612 60.1536 67.7629 61.8518 65.5421 61.8518Z" fill="black"/>
</g>
<g id="Group_51">
<path id="Vector_50" d="M92.2913 61.8518H88.3722C86.1514 61.8518 84.4531 60.1536 84.4531 57.9327C84.4531 55.7119 86.1514 54.0137 88.3722 54.0137H92.2913V61.8518Z" fill="black"/>
</g>
<g id="Group_52">
<path id="Vector_51" d="M95.9825 61.8518H92.0635V54.0137H99.9016V57.9327C99.9016 60.1536 98.2034 61.8518 95.9825 61.8518Z" fill="black"/>
</g>
<g id="Group_53">
<path id="Vector_52" d="M111.201 61.8518C108.98 61.8518 107.282 60.1536 107.282 57.9327V54.0137H115.12V57.9327C115.12 60.1536 113.422 61.8518 111.201 61.8518Z" fill="black"/>
</g>
<g id="Group_54">
<path id="Vector_53" d="M126.422 61.8518C124.201 61.8518 122.503 60.1536 122.503 57.9327V54.0137H130.341V57.9327C130.341 60.1536 128.643 61.8518 126.422 61.8518Z" fill="black"/>
</g>
<g id="Group_55">
<path id="Vector_54" d="M153.171 61.8518H145.333V57.9327C145.333 55.7119 147.031 54.0137 149.252 54.0137C151.473 54.0137 153.171 55.7119 153.171 57.9327V61.8518Z" fill="black"/>
</g>
<g id="Group_56">
<path id="Vector_55" d="M8.58229 69.4617H0.744141V65.5426C0.744141 63.3218 2.44241 61.6235 4.66321 61.6235C6.88402 61.6235 8.58229 63.3218 8.58229 65.5426V69.4617Z" fill="black"/>
</g>
<g id="Group_57">
<path id="Vector_56" d="M23.802 69.4617H15.9639V65.5426C15.9639 63.3218 17.6621 61.6235 19.8829 61.6235H23.802V69.4617Z" fill="black"/>
</g>
<g id="Group_58">
<path id="Vector_57" d="M31.4124 61.6235H23.5742V69.4617H31.4124V61.6235Z" fill="black"/>
</g>
<g id="Group_59">
<path id="Vector_58" d="M39.0227 61.6235H31.1846V69.4617H39.0227V61.6235Z" fill="black"/>
</g>
<g id="Group_60">
<path id="Vector_59" d="M46.6311 61.6235H38.793V69.4617H46.6311V61.6235Z" fill="black"/>
</g>
<g id="Group_61">
<path id="Vector_60" d="M50.3224 69.4617H46.4033V61.6235H50.3224C52.5432 61.6235 54.2415 63.3218 54.2415 65.5426C54.2415 67.7634 52.5432 69.4617 50.3224 69.4617Z" fill="black"/>
</g>
<g id="Group_62">
<path id="Vector_61" d="M84.6819 69.4617H76.8438V65.5426C76.8438 63.3218 78.542 61.6235 80.7628 61.6235C82.9836 61.6235 84.6819 63.3218 84.6819 65.5426V69.4617Z" fill="black"/>
</g>
<g id="Group_63">
<path id="Vector_62" d="M137.95 69.4617H130.112V65.5426C130.112 63.3218 131.811 61.6235 134.031 61.6235C136.252 61.6235 137.95 63.3218 137.95 65.5426V69.4617Z" fill="black"/>
</g>
<g id="Group_64">
<path id="Vector_63" d="M153.171 61.6235H145.333V69.4617H153.171V61.6235Z" fill="black"/>
</g>
<g id="Group_65">
<path id="Vector_64" d="M176 69.4617H172.081C169.86 69.4617 168.162 67.7634 168.162 65.5426C168.162 63.3218 169.86 61.6235 172.081 61.6235H176V69.4617Z" fill="black"/>
</g>
<g id="Group_66">
<path id="Vector_65" d="M183.609 61.6235H175.771V69.4617H183.609V61.6235Z" fill="black"/>
</g>
<g id="Group_67">
<path id="Vector_66" d="M191.219 61.6235H183.381V69.4617H191.219V61.6235Z" fill="black"/>
</g>
<g id="Group_68">
<path id="Vector_67" d="M198.83 61.6235H190.992V69.4617H198.83V61.6235Z" fill="black"/>
</g>
<g id="Group_69">
<path id="Vector_68" d="M202.519 69.4617H198.6V61.6235H202.519C204.739 61.6235 206.438 63.3218 206.438 65.5426C206.438 67.7634 204.739 69.4617 202.519 69.4617Z" fill="black"/>
</g>
<g id="Group_70">
<path id="Vector_69" d="M8.58229 69.2334H0.744141V77.0715H8.58229V69.2334Z" fill="black"/>
</g>
<g id="Group_71">
<path id="Vector_70" d="M16.1926 69.2334H8.35449V77.0715H16.1926V69.2334Z" fill="black"/>
</g>
<g id="Group_72">
<path id="Vector_71" d="M19.8829 77.0715H15.9639V69.2334H23.802V73.1525C23.802 75.3733 22.1037 77.0715 19.8829 77.0715Z" fill="black"/>
</g>
<g id="Group_73">
<path id="Vector_72" d="M46.6311 69.2334H38.793V77.0715H46.6311V69.2334Z" fill="black"/>
</g>
<g id="Group_74">
<path id="Vector_73" d="M77.0715 77.0715H73.1525C70.9317 77.0715 69.2334 75.3733 69.2334 73.1525C69.2334 70.9317 70.9317 69.2334 73.1525 69.2334H77.0715V77.0715Z" fill="black"/>
</g>
<g id="Group_75">
<path id="Vector_74" d="M84.6819 69.2334H76.8438V77.0715H84.6819V69.2334Z" fill="black"/>
</g>
<g id="Group_76">
<path id="Vector_75" d="M107.511 77.0715H99.6729V73.1525C99.6729 70.9317 101.371 69.2334 103.592 69.2334H107.511V77.0715Z" fill="black"/>
</g>
<g id="Group_77">
<path id="Vector_76" d="M115.12 69.2334H107.282V77.0715H115.12V69.2334Z" fill="black"/>
</g>
<g id="Group_78">
<path id="Vector_77" d="M122.731 77.0715H114.893V69.2334H118.812C121.032 69.2334 122.731 70.9317 122.731 73.1525V77.0715Z" fill="black"/>
</g>
<g id="Group_79">
<path id="Vector_78" d="M137.95 69.2334H130.112V77.0715H137.95V69.2334Z" fill="black"/>
</g>
<g id="Group_80">
<path id="Vector_79" d="M153.171 77.0715H149.252C147.031 77.0715 145.333 75.3733 145.333 73.1525V69.2334H153.171V77.0715Z" fill="black"/>
</g>
<g id="Group_81">
<path id="Vector_80" d="M160.78 69.2334H152.941V77.0715H160.78V69.2334Z" fill="black"/>
</g>
<g id="Group_82">
<path id="Vector_81" d="M168.39 77.0715H160.552V69.2334H164.471C166.692 69.2334 168.39 70.9317 168.39 73.1525V77.0715Z" fill="black"/>
</g>
<g id="Group_83">
<path id="Vector_82" d="M183.609 77.0715H179.69C177.469 77.0715 175.771 75.3733 175.771 73.1525V69.2334H183.609V77.0715Z" fill="black"/>
</g>
<g id="Group_84">
<path id="Vector_83" d="M191.219 69.2334H183.381V77.0715H191.219V69.2334Z" fill="black"/>
</g>
<g id="Group_85">
<path id="Vector_84" d="M198.83 69.2334H190.992V77.0715H198.83V69.2334Z" fill="black"/>
</g>
<g id="Group_86">
<path id="Vector_85" d="M214.048 77.0715H210.129C207.908 77.0715 206.21 75.3733 206.21 73.1525C206.21 70.9317 207.908 69.2334 210.129 69.2334H214.048V77.0715Z" fill="black"/>
</g>
<g id="Group_87">
<path id="Vector_86" d="M217.739 77.0715H213.82V69.2334H217.739C219.96 69.2334 221.658 70.9317 221.658 73.1525C221.658 75.3733 219.96 77.0715 217.739 77.0715Z" fill="black"/>
</g>
<g id="Group_88">
<path id="Vector_87" d="M8.58229 76.8433H0.744141V84.6814H8.58229V76.8433Z" fill="black"/>
</g>
<g id="Group_89">
<path id="Vector_88" d="M12.2736 84.6814H8.35449V76.8433H16.1926V80.7623C16.1926 82.9831 14.4944 84.6814 12.2736 84.6814Z" fill="black"/>
</g>
<g id="Group_90">
<path id="Vector_89" d="M46.6311 84.6814H42.712C40.4912 84.6814 38.793 82.9831 38.793 80.7623V76.8433H46.6311V84.6814Z" fill="black"/>
</g>
<g id="Group_91">
<path id="Vector_90" d="M54.2415 76.8433H46.4033V84.6814H54.2415V76.8433Z" fill="black"/>
</g>
<g id="Group_92">
<path id="Vector_91" d="M61.8518 76.8433H54.0137V84.6814H61.8518V76.8433Z" fill="black"/>
</g>
<g id="Group_93">
<path id="Vector_92" d="M69.4612 84.6814H61.623V76.8433H65.5421C67.7629 76.8433 69.4612 78.5415 69.4612 80.7623V84.6814Z" fill="black"/>
</g>
<g id="Group_94">
<path id="Vector_93" d="M84.6819 76.8433H76.8438V84.6814H84.6819V76.8433Z" fill="black"/>
</g>
<g id="Group_95">
<path id="Vector_94" d="M99.9016 84.6814H92.0635V80.7623C92.0635 78.5415 93.7617 76.8433 95.9825 76.8433H99.9016V84.6814Z" fill="black"/>
</g>
<g id="Group_96">
<path id="Vector_95" d="M107.511 76.8433H99.6729V84.6814H107.511V76.8433Z" fill="black"/>
</g>
<g id="Group_97">
<path id="Vector_96" d="M115.12 76.8433H107.282V84.6814H115.12V76.8433Z" fill="black"/>
</g>
<g id="Group_98">
<path id="Vector_97" d="M122.731 76.8433H114.893V84.6814H122.731V76.8433Z" fill="black"/>
</g>
<g id="Group_99">
<path id="Vector_98" d="M137.95 84.6814H134.031C131.811 84.6814 130.112 82.9831 130.112 80.7623V76.8433H137.95V84.6814Z" fill="black"/>
</g>
<g id="Group_100">
<path id="Vector_99" d="M145.561 84.6814H137.723V76.8433H141.642C143.863 76.8433 145.561 78.5415 145.561 80.7623V84.6814Z" fill="black"/>
</g>
<g id="Group_101">
<path id="Vector_100" d="M160.78 76.8433H152.941V84.6814H160.78V76.8433Z" fill="black"/>
</g>
<g id="Group_102">
<path id="Vector_101" d="M168.39 76.8433H160.552V84.6814H168.39V76.8433Z" fill="black"/>
</g>
<g id="Group_103">
<path id="Vector_102" d="M176 84.6814H168.162V76.8433H172.081C174.302 76.8433 176 78.5415 176 80.7623V84.6814Z" fill="black"/>
</g>
<g id="Group_104">
<path id="Vector_103" d="M198.83 76.8433H190.992V84.6814H198.83V76.8433Z" fill="black"/>
</g>
<g id="Group_105">
<path id="Vector_104" d="M202.519 84.6814H198.6V76.8433H202.519C204.739 76.8433 206.438 78.5415 206.438 80.7623C206.438 82.9831 204.739 84.6814 202.519 84.6814Z" fill="black"/>
</g>
<g id="Group_106">
<path id="Vector_105" d="M4.66321 92.2913C2.44241 92.2913 0.744141 90.593 0.744141 88.3722V84.4531H8.58229V88.3722C8.58229 90.593 6.88402 92.2913 4.66321 92.2913Z" fill="black"/>
</g>
<g id="Group_107">
<path id="Vector_106" d="M39.0227 92.2913H31.1846V88.3722C31.1846 86.1514 32.8828 84.4531 35.1036 84.4531C37.3245 84.4531 39.0227 86.1514 39.0227 88.3722V92.2913Z" fill="black"/>
</g>
<g id="Group_108">
<path id="Vector_107" d="M61.8518 84.4531H54.0137V92.2913H61.8518V84.4531Z" fill="black"/>
</g>
<g id="Group_109">
<path id="Vector_108" d="M65.5421 92.2913H61.623V84.4531H69.4612V88.3722C69.4612 90.593 67.7629 92.2913 65.5421 92.2913Z" fill="black"/>
</g>
<g id="Group_110">
<path id="Vector_109" d="M84.6819 84.4531H76.8438V92.2913H84.6819V84.4531Z" fill="black"/>
</g>
<g id="Group_111">
<path id="Vector_110" d="M92.2913 84.4531H84.4531V92.2913H92.2913V84.4531Z" fill="black"/>
</g>
<g id="Group_112">
<path id="Vector_111" d="M99.9016 84.4531H92.0635V92.2913H99.9016V84.4531Z" fill="black"/>
</g>
<g id="Group_113">
<path id="Vector_112" d="M103.592 92.2913H99.6729V84.4531H107.511V88.3722C107.511 90.593 105.813 92.2913 103.592 92.2913Z" fill="black"/>
</g>
<g id="Group_114">
<path id="Vector_113" d="M118.812 92.2913C116.591 92.2913 114.893 90.593 114.893 88.3722V84.4531H122.731V88.3722C122.731 90.593 121.032 92.2913 118.812 92.2913Z" fill="black"/>
</g>
<g id="Group_115">
<path id="Vector_114" d="M145.561 92.2913H141.642C139.421 92.2913 137.723 90.593 137.723 88.3722V84.4531H145.561V92.2913Z" fill="black"/>
</g>
<g id="Group_116">
<path id="Vector_115" d="M153.171 84.4531H145.333V92.2913H153.171V84.4531Z" fill="black"/>
</g>
<g id="Group_117">
<path id="Vector_116" d="M160.78 84.4531H152.941V92.2913H160.78V84.4531Z" fill="black"/>
</g>
<g id="Group_118">
<path id="Vector_117" d="M168.39 84.4531H160.552V92.2913H168.39V84.4531Z" fill="black"/>
</g>
<g id="Group_119">
<path id="Vector_118" d="M172.081 92.2913H168.162V84.4531H176V88.3722C176 90.593 174.302 92.2913 172.081 92.2913Z" fill="black"/>
</g>
<g id="Group_120">
<path id="Vector_119" d="M194.911 92.2913C192.69 92.2913 190.992 90.593 190.992 88.3722V84.4531H198.83V88.3722C198.83 90.593 197.132 92.2913 194.911 92.2913Z" fill="black"/>
</g>
<g id="Group_121">
<path id="Vector_120" d="M23.802 99.9011H19.8829C17.6621 99.9011 15.9639 98.2029 15.9639 95.9821C15.9639 93.7613 17.6621 92.063 19.8829 92.063H23.802V99.9011Z" fill="black"/>
</g>
<g id="Group_122">
<path id="Vector_121" d="M31.4124 92.063H23.5742V99.9011H31.4124V92.063Z" fill="black"/>
</g>
<g id="Group_123">
<path id="Vector_122" d="M39.0227 92.063H31.1846V99.9011H39.0227V92.063Z" fill="black"/>
</g>
<g id="Group_124">
<path id="Vector_123" d="M54.2415 99.9011H50.3224C48.1016 99.9011 46.4033 98.2029 46.4033 95.9821C46.4033 93.7613 48.1016 92.063 50.3224 92.063H54.2415V99.9011Z" fill="black"/>
</g>
<g id="Group_125">
<path id="Vector_124" d="M61.8518 92.063H54.0137V99.9011H61.8518V92.063Z" fill="black"/>
</g>
<g id="Group_126">
<path id="Vector_125" d="M80.7628 99.9011C78.542 99.9011 76.8438 98.2029 76.8438 95.9821V92.063H84.6819V95.9821C84.6819 98.2029 82.9836 99.9011 80.7628 99.9011Z" fill="black"/>
</g>
<g id="Group_127">
<path id="Vector_126" d="M111.201 99.9011C113.366 99.9011 115.12 98.1465 115.12 95.9821C115.12 93.8176 113.366 92.063 111.201 92.063C109.037 92.063 107.282 93.8176 107.282 95.9821C107.282 98.1465 109.037 99.9011 111.201 99.9011Z" fill="black"/>
</g>
<g id="Group_128">
<path id="Vector_127" d="M130.341 99.9011H122.503V95.9821C122.503 93.7613 124.201 92.063 126.422 92.063H130.341V99.9011Z" fill="black"/>
</g>
<g id="Group_129">
<path id="Vector_128" d="M137.95 99.9011H130.112V92.063H134.031C136.252 92.063 137.95 93.7613 137.95 95.9821V99.9011Z" fill="black"/>
</g>
<g id="Group_130">
<path id="Vector_129" d="M191.219 99.9011H183.381V95.9821C183.381 93.7613 185.079 92.063 187.3 92.063C189.521 92.063 191.219 93.7613 191.219 95.9821V99.9011Z" fill="black"/>
</g>
<g id="Group_131">
<path id="Vector_130" d="M214.048 99.9011H206.21V95.9821C206.21 93.7613 207.908 92.063 210.129 92.063C212.35 92.063 214.048 93.7613 214.048 95.9821V99.9011Z" fill="black"/>
</g>
<g id="Group_132">
<path id="Vector_131" d="M4.66321 107.511C6.82766 107.511 8.58229 105.756 8.58229 103.592C8.58229 101.427 6.82766 99.6729 4.66321 99.6729C2.49877 99.6729 0.744141 101.427 0.744141 103.592C0.744141 105.756 2.49877 107.511 4.66321 107.511Z" fill="black"/>
</g>
<g id="Group_133">
<path id="Vector_132" d="M39.0227 99.6729H31.1846V107.511H39.0227V99.6729Z" fill="black"/>
</g>
<g id="Group_134">
<path id="Vector_133" d="M61.8518 107.511H57.9327C55.7119 107.511 54.0137 105.813 54.0137 103.592V99.6729H61.8518V107.511Z" fill="black"/>
</g>
<g id="Group_135">
<path id="Vector_134" d="M69.4612 99.6729H61.623V107.511H69.4612V99.6729Z" fill="black"/>
</g>
<g id="Group_136">
<path id="Vector_135" d="M77.0715 107.511H69.2334V99.6729H73.1525C75.3733 99.6729 77.0715 101.371 77.0715 103.592V107.511Z" fill="black"/>
</g>
<g id="Group_137">
<path id="Vector_136" d="M130.341 99.6729H122.503V107.511H130.341V99.6729Z" fill="black"/>
</g>
<g id="Group_138">
<path id="Vector_137" d="M137.95 99.6729H130.112V107.511H137.95V99.6729Z" fill="black"/>
</g>
<g id="Group_139">
<path id="Vector_138" d="M145.561 107.511H137.723V99.6729H141.642C143.863 99.6729 145.561 101.371 145.561 103.592V107.511Z" fill="black"/>
</g>
<g id="Group_140">
<path id="Vector_139" d="M160.78 107.511H156.86C154.64 107.511 152.941 105.813 152.941 103.592C152.941 101.371 154.64 99.6729 156.86 99.6729H160.78V107.511Z" fill="black"/>
</g>
<g id="Group_141">
<path id="Vector_140" d="M168.39 99.6729H160.552V107.511H168.39V99.6729Z" fill="black"/>
</g>
<g id="Group_142">
<path id="Vector_141" d="M176 99.6729H168.162V107.511H176V99.6729Z" fill="black"/>
</g>
<g id="Group_143">
<path id="Vector_142" d="M183.609 99.6729H175.771V107.511H183.609V99.6729Z" fill="black"/>
</g>
<g id="Group_144">
<path id="Vector_143" d="M191.219 99.6729H183.381V107.511H191.219V99.6729Z" fill="black"/>
</g>
<g id="Group_145">
<path id="Vector_144" d="M206.438 107.511H202.519C200.298 107.511 198.6 105.813 198.6 103.592C198.6 101.371 200.298 99.6729 202.519 99.6729H206.438V107.511Z" fill="black"/>
</g>
<g id="Group_146">
<path id="Vector_145" d="M210.129 107.511H206.21V99.6729H214.048V103.592C214.048 105.813 212.35 107.511 210.129 107.511Z" fill="black"/>
</g>
<g id="Group_147">
<path id="Vector_146" d="M39.0227 107.283H31.1846V115.121H39.0227V107.283Z" fill="black"/>
</g>
<g id="Group_148">
<path id="Vector_147" d="M46.6311 107.283H38.793V115.121H46.6311V107.283Z" fill="black"/>
</g>
<g id="Group_149">
<path id="Vector_148" d="M50.3224 115.121H46.4033V107.283H50.3224C52.5432 107.283 54.2415 108.981 54.2415 111.202C54.2415 113.423 52.5432 115.121 50.3224 115.121Z" fill="black"/>
</g>
<g id="Group_150">
<path id="Vector_149" d="M69.4612 115.121H65.5421C63.3213 115.121 61.623 113.423 61.623 111.202V107.283H69.4612V115.121Z" fill="black"/>
</g>
<g id="Group_151">
<path id="Vector_150" d="M77.0715 107.283H69.2334V115.121H77.0715V107.283Z" fill="black"/>
</g>
<g id="Group_152">
<path id="Vector_151" d="M80.7628 115.121H76.8438V107.283H80.7628C82.9836 107.283 84.6819 108.981 84.6819 111.202C84.6819 113.423 82.9836 115.121 80.7628 115.121Z" fill="black"/>
</g>
<g id="Group_153">
<path id="Vector_152" d="M122.731 115.121H118.812C116.591 115.121 114.893 113.423 114.893 111.202C114.893 108.981 116.591 107.283 118.812 107.283H122.731V115.121Z" fill="black"/>
</g>
<g id="Group_154">
<path id="Vector_153" d="M126.422 115.121H122.503V107.283H130.341V111.202C130.341 113.423 128.643 115.121 126.422 115.121Z" fill="black"/>
</g>
<g id="Group_155">
<path id="Vector_154" d="M145.561 107.283H137.723V115.121H145.561V107.283Z" fill="black"/>
</g>
<g id="Group_156">
<path id="Vector_155" d="M176 107.283H168.162V115.121H176V107.283Z" fill="black"/>
</g>
<g id="Group_157">
<path id="Vector_156" d="M183.609 107.283H175.771V115.121H183.609V107.283Z" fill="black"/>
</g>
<g id="Group_158">
<path id="Vector_157" d="M191.219 107.283H183.381V115.121H191.219V107.283Z" fill="black"/>
</g>
<g id="Group_159">
<path id="Vector_158" d="M8.58229 122.731H0.744141V118.812C0.744141 116.591 2.44241 114.893 4.66321 114.893H8.58229V122.731Z" fill="black"/>
</g>
<g id="Group_160">
<path id="Vector_159" d="M16.1926 122.731H8.35449V114.893H12.2736C14.4944 114.893 16.1926 116.591 16.1926 118.812V122.731Z" fill="black"/>
</g>
<g id="Group_161">
<path id="Vector_160" d="M31.4124 122.731H23.5742V118.812C23.5742 116.591 25.2725 114.893 27.4933 114.893H31.4124V122.731Z" fill="black"/>
</g>
<g id="Group_162">
<path id="Vector_161" d="M35.1036 122.731H31.1846V114.893H39.0227V118.812C39.0227 121.032 37.3245 122.731 35.1036 122.731Z" fill="black"/>
</g>
<g id="Group_163">
<path id="Vector_162" d="M61.8518 122.731H54.0137V118.812C54.0137 116.591 55.7119 114.893 57.9327 114.893C60.1536 114.893 61.8518 116.591 61.8518 118.812V122.731Z" fill="black"/>
</g>
<g id="Group_164">
<path id="Vector_163" d="M73.1525 122.731C70.9317 122.731 69.2334 121.032 69.2334 118.812V114.893H77.0715V118.812C77.0715 121.032 75.3733 122.731 73.1525 122.731Z" fill="black"/>
</g>
<g id="Group_165">
<path id="Vector_164" d="M111.201 122.731C113.366 122.731 115.12 120.976 115.12 118.812C115.12 116.647 113.366 114.893 111.201 114.893C109.037 114.893 107.282 116.647 107.282 118.812C107.282 120.976 109.037 122.731 111.201 122.731Z" fill="black"/>
</g>
<g id="Group_166">
<path id="Vector_165" d="M141.642 122.731C139.421 122.731 137.723 121.032 137.723 118.812V114.893H145.561V118.812C145.561 121.032 143.863 122.731 141.642 122.731Z" fill="black"/>
</g>
<g id="Group_167">
<path id="Vector_166" d="M160.78 122.731H152.941V118.812C152.941 116.591 154.64 114.893 156.86 114.893H160.78V122.731Z" fill="black"/>
</g>
<g id="Group_168">
<path id="Vector_167" d="M168.39 114.893H160.552V122.731H168.39V114.893Z" fill="black"/>
</g>
<g id="Group_169">
<path id="Vector_168" d="M176 114.893H168.162V122.731H176V114.893Z" fill="black"/>
</g>
<g id="Group_170">
<path id="Vector_169" d="M183.609 114.893H175.771V122.731H183.609V114.893Z" fill="black"/>
</g>
<g id="Group_171">
<path id="Vector_170" d="M191.219 114.893H183.381V122.731H191.219V114.893Z" fill="black"/>
</g>
<g id="Group_172">
<path id="Vector_171" d="M194.911 122.731H190.992V114.893H194.911C197.132 114.893 198.83 116.591 198.83 118.812C198.83 121.032 197.132 122.731 194.911 122.731Z" fill="black"/>
</g>
<g id="Group_173">
<path id="Vector_172" d="M214.048 122.731H206.21V118.812C206.21 116.591 207.908 114.893 210.129 114.893H214.048V122.731Z" fill="black"/>
</g>
<g id="Group_174">
<path id="Vector_173" d="M221.658 122.731H213.82V114.893H217.739C219.96 114.893 221.658 116.591 221.658 118.812V122.731Z" fill="black"/>
</g>
<g id="Group_175">
<path id="Vector_174" d="M8.58229 122.502H0.744141V130.341H8.58229V122.502Z" fill="black"/>
</g>
<g id="Group_176">
<path id="Vector_175" d="M16.1926 122.502H8.35449V130.341H16.1926V122.502Z" fill="black"/>
</g>
<g id="Group_177">
<path id="Vector_176" d="M23.802 122.502H15.9639V130.341H23.802V122.502Z" fill="black"/>
</g>
<g id="Group_178">
<path id="Vector_177" d="M31.4124 122.502H23.5742V130.341H31.4124V122.502Z" fill="black"/>
</g>
<g id="Group_179">
<path id="Vector_178" d="M54.2415 130.341H50.3224C48.1016 130.341 46.4033 128.642 46.4033 126.422C46.4033 124.201 48.1016 122.502 50.3224 122.502H54.2415V130.341Z" fill="black"/>
</g>
<g id="Group_180">
<path id="Vector_179" d="M61.8518 122.502H54.0137V130.341H61.8518V122.502Z" fill="black"/>
</g>
<g id="Group_181">
<path id="Vector_180" d="M65.5421 130.341H61.623V122.502H65.5421C67.7629 122.502 69.4612 124.201 69.4612 126.422C69.4612 128.642 67.7629 130.341 65.5421 130.341Z" fill="black"/>
</g>
<g id="Group_182">
<path id="Vector_181" d="M84.6819 130.341H76.8438V126.422C76.8438 124.201 78.542 122.502 80.7628 122.502H84.6819V130.341Z" fill="black"/>
</g>
<g id="Group_183">
<path id="Vector_182" d="M92.2913 130.341H84.4531V122.502H88.3722C90.593 122.502 92.2913 124.201 92.2913 126.422V130.341Z" fill="black"/>
</g>
<g id="Group_184">
<path id="Vector_183" d="M122.731 130.341H118.812C116.591 130.341 114.893 128.642 114.893 126.422C114.893 124.201 116.591 122.502 118.812 122.502H122.731V130.341Z" fill="black"/>
</g>
<g id="Group_185">
<path id="Vector_184" d="M130.341 130.341H122.503V122.502H126.422C128.643 122.502 130.341 124.201 130.341 126.422V130.341Z" fill="black"/>
</g>
<g id="Group_186">
<path id="Vector_185" d="M156.86 130.341C154.64 130.341 152.941 128.642 152.941 126.422V122.502H160.78V126.422C160.78 128.642 159.081 130.341 156.86 130.341Z" fill="black"/>
</g>
<g id="Group_187">
<path id="Vector_186" d="M179.69 130.341C177.469 130.341 175.771 128.642 175.771 126.422V122.502H183.609V126.422C183.609 128.642 181.91 130.341 179.69 130.341Z" fill="black"/>
</g>
<g id="Group_188">
<path id="Vector_187" d="M206.438 130.341H198.6V126.422C198.6 124.201 200.298 122.502 202.519 122.502H206.438V130.341Z" fill="black"/>
</g>
<g id="Group_189">
<path id="Vector_188" d="M214.048 122.502H206.21V130.341H214.048V122.502Z" fill="black"/>
</g>
<g id="Group_190">
<path id="Vector_189" d="M217.739 130.341H213.82V122.502H221.658V126.422C221.658 128.642 219.96 130.341 217.739 130.341Z" fill="black"/>
</g>
<g id="Group_191">
<path id="Vector_190" d="M8.58229 130.112H0.744141V137.95H8.58229V130.112Z" fill="black"/>
</g>
<g id="Group_192">
<path id="Vector_191" d="M12.2736 137.95H8.35449V130.112H16.1926V134.031C16.1926 136.252 14.4944 137.95 12.2736 137.95Z" fill="black"/>
</g>
<g id="Group_193">
<path id="Vector_192" d="M31.4124 137.95H27.4933C25.2725 137.95 23.5742 136.252 23.5742 134.031V130.112H31.4124V137.95Z" fill="black"/>
</g>
<g id="Group_194">
<path id="Vector_193" d="M39.0227 130.112H31.1846V137.95H39.0227V130.112Z" fill="black"/>
</g>
<g id="Group_195">
<path id="Vector_194" d="M46.6311 137.95H38.793V130.112H42.712C44.9328 130.112 46.6311 131.811 46.6311 134.031V137.95Z" fill="black"/>
</g>
<g id="Group_196">
<path id="Vector_195" d="M57.9327 137.95C55.7119 137.95 54.0137 136.252 54.0137 134.031V130.112H61.8518V134.031C61.8518 136.252 60.1536 137.95 57.9327 137.95Z" fill="black"/>
</g>
<g id="Group_197">
<path id="Vector_196" d="M77.0715 137.95H73.1525C70.9317 137.95 69.2334 136.252 69.2334 134.031C69.2334 131.811 70.9317 130.112 73.1525 130.112H77.0715V137.95Z" fill="black"/>
</g>
<g id="Group_198">
<path id="Vector_197" d="M84.6819 130.112H76.8438V137.95H84.6819V130.112Z" fill="black"/>
</g>
<g id="Group_199">
<path id="Vector_198" d="M92.2913 130.112H84.4531V137.95H92.2913V130.112Z" fill="black"/>
</g>
<g id="Group_200">
<path id="Vector_199" d="M99.9016 130.112H92.0635V137.95H99.9016V130.112Z" fill="black"/>
</g>
<g id="Group_201">
<path id="Vector_200" d="M107.511 130.112H99.6729V137.95H107.511V130.112Z" fill="black"/>
</g>
<g id="Group_202">
<path id="Vector_201" d="M115.12 137.95H107.282V130.112H111.201C113.422 130.112 115.12 131.811 115.12 134.031V137.95Z" fill="black"/>
</g>
<g id="Group_203">
<path id="Vector_202" d="M130.341 130.112H122.503V137.95H130.341V130.112Z" fill="black"/>
</g>
<g id="Group_204">
<path id="Vector_203" d="M149.252 137.95C151.417 137.95 153.171 136.196 153.171 134.031C153.171 131.867 151.417 130.112 149.252 130.112C147.088 130.112 145.333 131.867 145.333 134.031C145.333 136.196 147.088 137.95 149.252 137.95Z" fill="black"/>
</g>
<g id="Group_205">
<path id="Vector_204" d="M176 137.95H168.162V134.031C168.162 131.811 169.86 130.112 172.081 130.112C174.302 130.112 176 131.811 176 134.031V137.95Z" fill="black"/>
</g>
<g id="Group_206">
<path id="Vector_205" d="M191.219 137.95H187.3C185.079 137.95 183.381 136.252 183.381 134.031C183.381 131.811 185.079 130.112 187.3 130.112H191.219V137.95Z" fill="black"/>
</g>
<g id="Group_207">
<path id="Vector_206" d="M198.83 130.112H190.992V137.95H198.83V130.112Z" fill="black"/>
</g>
<g id="Group_208">
<path id="Vector_207" d="M206.438 130.112H198.6V137.95H206.438V130.112Z" fill="black"/>
</g>
<g id="Group_209">
<path id="Vector_208" d="M210.129 137.95H206.21V130.112H214.048V134.031C214.048 136.252 212.35 137.95 210.129 137.95Z" fill="black"/>
</g>
<g id="Group_210">
<path id="Vector_209" d="M8.58229 137.722H0.744141V145.56H8.58229V137.722Z" fill="black"/>
</g>
<g id="Group_211">
<path id="Vector_210" d="M46.6311 137.722H38.793V145.56H46.6311V137.722Z" fill="black"/>
</g>
<g id="Group_212">
<path id="Vector_211" d="M50.3224 145.56H46.4033V137.722H50.3224C52.5432 137.722 54.2415 139.42 54.2415 141.641C54.2415 143.862 52.5432 145.56 50.3224 145.56Z" fill="black"/>
</g>
<g id="Group_213">
<path id="Vector_212" d="M65.5421 145.56C67.7066 145.56 69.4612 143.806 69.4612 141.641C69.4612 139.477 67.7066 137.722 65.5421 137.722C63.3777 137.722 61.623 139.477 61.623 141.641C61.623 143.806 63.3777 145.56 65.5421 145.56Z" fill="black"/>
</g>
<g id="Group_214">
<path id="Vector_213" d="M92.2913 145.56H88.3722C86.1514 145.56 84.4531 143.862 84.4531 141.641V137.722H92.2913V145.56Z" fill="black"/>
</g>
<g id="Group_215">
<path id="Vector_214" d="M99.9016 137.722H92.0635V145.56H99.9016V137.722Z" fill="black"/>
</g>
<g id="Group_216">
<path id="Vector_215" d="M107.511 137.722H99.6729V145.56H107.511V137.722Z" fill="black"/>
</g>
<g id="Group_217">
<path id="Vector_216" d="M115.12 137.722H107.282V145.56H115.12V137.722Z" fill="black"/>
</g>
<g id="Group_218">
<path id="Vector_217" d="M122.731 137.722H114.893V145.56H122.731V137.722Z" fill="black"/>
</g>
<g id="Group_219">
<path id="Vector_218" d="M130.341 137.722H122.503V145.56H130.341V137.722Z" fill="black"/>
</g>
<g id="Group_220">
<path id="Vector_219" d="M141.642 145.56C143.806 145.56 145.561 143.805 145.561 141.641C145.561 139.476 143.806 137.722 141.642 137.722C139.477 137.722 137.723 139.476 137.723 141.641C137.723 143.805 139.477 145.56 141.642 145.56Z" fill="black"/>
</g>
<g id="Group_221">
<path id="Vector_220" d="M160.78 145.56H156.86C154.64 145.56 152.941 143.862 152.941 141.641C152.941 139.42 154.64 137.722 156.86 137.722H160.78V145.56Z" fill="black"/>
</g>
<g id="Group_222">
<path id="Vector_221" d="M168.39 137.722H160.552V145.56H168.39V137.722Z" fill="black"/>
</g>
<g id="Group_223">
<path id="Vector_222" d="M176 137.722H168.162V145.56H176V137.722Z" fill="black"/>
</g>
<g id="Group_224">
<path id="Vector_223" d="M194.911 145.56C192.69 145.56 190.992 143.862 190.992 141.641V137.722H198.83V141.641C198.83 143.862 197.132 145.56 194.911 145.56Z" fill="black"/>
</g>
<g id="Group_225">
<path id="Vector_224" d="M8.58229 145.332H0.744141V153.17H8.58229V145.332Z" fill="black"/>
</g>
<g id="Group_226">
<path id="Vector_225" d="M39.0227 153.17H31.1846V149.251C31.1846 147.03 32.8828 145.332 35.1036 145.332H39.0227V153.17Z" fill="black"/>
</g>
<g id="Group_227">
<path id="Vector_226" d="M46.6311 145.332H38.793V153.17H46.6311V145.332Z" fill="black"/>
</g>
<g id="Group_228">
<path id="Vector_227" d="M99.9016 145.332H92.0635V153.17H99.9016V145.332Z" fill="black"/>
</g>
<g id="Group_229">
<path id="Vector_228" d="M103.592 153.17H99.6729V145.332H107.511V149.251C107.511 151.471 105.813 153.17 103.592 153.17Z" fill="black"/>
</g>
<g id="Group_230">
<path id="Vector_229" d="M126.422 153.17C124.201 153.17 122.503 151.471 122.503 149.251V145.332H130.341V149.251C130.341 151.471 128.643 153.17 126.422 153.17Z" fill="black"/>
</g>
<g id="Group_231">
<path id="Vector_230" d="M168.39 145.332H160.552V153.17H168.39V145.332Z" fill="black"/>
</g>
<g id="Group_232">
<path id="Vector_231" d="M176 145.332H168.162V153.17H176V145.332Z" fill="black"/>
</g>
<g id="Group_233">
<path id="Vector_232" d="M183.609 153.17H175.771V145.332H179.69C181.91 145.332 183.609 147.03 183.609 149.251V153.17Z" fill="black"/>
</g>
<g id="Group_234">
<path id="Vector_233" d="M210.129 153.17C212.293 153.17 214.048 151.415 214.048 149.251C214.048 147.086 212.293 145.332 210.129 145.332C207.965 145.332 206.21 147.086 206.21 149.251C206.21 151.415 207.965 153.17 210.129 153.17Z" fill="black"/>
</g>
<g id="Group_235">
<path id="Vector_234" d="M4.66321 160.78C2.44241 160.78 0.744141 159.081 0.744141 156.86V152.941H8.58229V156.86C8.58229 159.081 6.88402 160.78 4.66321 160.78Z" fill="black"/>
</g>
<g id="Group_236">
<path id="Vector_235" d="M39.0227 160.78H35.1036C32.8828 160.78 31.1846 159.082 31.1846 156.861V152.942H39.0227V160.78Z" fill="black"/>
</g>
<g id="Group_237">
<path id="Vector_236" d="M46.6311 152.942H38.793V160.78H46.6311V152.942Z" fill="black"/>
</g>
<g id="Group_238">
<path id="Vector_237" d="M50.3224 160.78H46.4033V152.941H50.3224C52.5432 152.941 54.2415 154.64 54.2415 156.86C54.2415 159.081 52.5432 160.78 50.3224 160.78Z" fill="black"/>
</g>
<g id="Group_239">
<path id="Vector_238" d="M84.6819 160.78H76.8438V156.861C76.8438 154.64 78.542 152.942 80.7628 152.942C82.9836 152.942 84.6819 154.64 84.6819 156.861V160.78Z" fill="black"/>
</g>
<g id="Group_240">
<path id="Vector_239" d="M99.9016 152.941H92.0635V160.78H99.9016V152.941Z" fill="black"/>
</g>
<g id="Group_241">
<path id="Vector_240" d="M115.12 160.78H111.201C108.98 160.78 107.282 159.082 107.282 156.861C107.282 154.64 108.98 152.942 111.201 152.942H115.12V160.78Z" fill="black"/>
</g>
<g id="Group_242">
<path id="Vector_241" d="M118.812 160.78H114.893V152.941H118.812C121.032 152.941 122.731 154.64 122.731 156.86C122.731 159.081 121.032 160.78 118.812 160.78Z" fill="black"/>
</g>
<g id="Group_243">
<path id="Vector_242" d="M160.78 160.78H152.941V156.861C152.941 154.64 154.64 152.942 156.86 152.942H160.78V160.78Z" fill="black"/>
</g>
<g id="Group_244">
<path id="Vector_243" d="M168.39 152.941H160.552V160.78H168.39V152.941Z" fill="black"/>
</g>
<g id="Group_245">
<path id="Vector_244" d="M176 152.942H168.162V160.78H176V152.942Z" fill="black"/>
</g>
<g id="Group_246">
<path id="Vector_245" d="M183.609 152.942H175.771V160.78H183.609V152.942Z" fill="black"/>
</g>
<g id="Group_247">
<path id="Vector_246" d="M191.219 152.941H183.381V160.78H191.219V152.941Z" fill="black"/>
</g>
<g id="Group_248">
<path id="Vector_247" d="M198.83 152.942H190.992V160.78H198.83V152.942Z" fill="black"/>
</g>
<g id="Group_249">
<path id="Vector_248" d="M206.438 160.78H198.6V152.942H202.519C204.739 152.942 206.438 154.64 206.438 156.861V160.78Z" fill="black"/>
</g>
<g id="Group_250">
<path id="Vector_249" d="M69.4612 168.389H65.5421C63.3213 168.389 61.623 166.691 61.623 164.47C61.623 162.25 63.3213 160.551 65.5421 160.551H69.4612V168.389Z" fill="black"/>
</g>
<g id="Group_251">
<path id="Vector_250" d="M77.0715 160.551H69.2334V168.389H77.0715V160.551Z" fill="black"/>
</g>
<g id="Group_252">
<path id="Vector_251" d="M84.6819 160.551H76.8438V168.389H84.6819V160.551Z" fill="black"/>
</g>
<g id="Group_253">
<path id="Vector_252" d="M92.2913 160.551H84.4531V168.389H92.2913V160.551Z" fill="black"/>
</g>
<g id="Group_254">
<path id="Vector_253" d="M95.9825 168.389H92.0635V160.551H99.9016V164.47C99.9016 166.691 98.2034 168.389 95.9825 168.389Z" fill="black"/>
</g>
<g id="Group_255">
<path id="Vector_254" d="M130.341 168.389H122.503V164.47C122.503 162.25 124.201 160.551 126.422 160.551H130.341V168.389Z" fill="black"/>
</g>
<g id="Group_256">
<path id="Vector_255" d="M137.95 160.551H130.112V168.389H137.95V160.551Z" fill="black"/>
</g>
<g id="Group_257">
<path id="Vector_256" d="M145.561 160.551H137.723V168.389H145.561V160.551Z" fill="black"/>
</g>
<g id="Group_258">
<path id="Vector_257" d="M153.171 160.551H145.333V168.389H153.171V160.551Z" fill="black"/>
</g>
<g id="Group_259">
<path id="Vector_258" d="M160.78 160.551H152.941V168.389H160.78V160.551Z" fill="black"/>
</g>
<g id="Group_260">
<path id="Vector_259" d="M191.219 160.551H183.381V168.389H191.219V160.551Z" fill="black"/>
</g>
<g id="Group_261">
<path id="Vector_260" d="M202.519 168.389C200.298 168.389 198.6 166.691 198.6 164.47V160.551H206.438V164.47C206.438 166.691 204.739 168.389 202.519 168.389Z" fill="black"/>
</g>
<g id="Group_262">
<path id="Vector_261" d="M84.6819 175.999H80.7628C78.542 175.999 76.8438 174.301 76.8438 172.08V168.161H84.6819V175.999Z" fill="black"/>
</g>
<g id="Group_263">
<path id="Vector_262" d="M88.3722 175.999H84.4531V168.161H92.2913V172.08C92.2913 174.301 90.593 175.999 88.3722 175.999Z" fill="black"/>
</g>
<g id="Group_264">
<path id="Vector_263" d="M122.731 175.999H114.893V172.08C114.893 169.859 116.591 168.161 118.812 168.161H122.731V175.999Z" fill="black"/>
</g>
<g id="Group_265">
<path id="Vector_264" d="M130.341 168.161H122.503V175.999H130.341V168.161Z" fill="black"/>
</g>
<g id="Group_266">
<path id="Vector_265" d="M137.95 168.161H130.112V175.999H137.95V168.161Z" fill="black"/>
</g>
<g id="Group_267">
<path id="Vector_266" d="M141.642 175.999H137.723V168.161H145.561V172.08C145.561 174.301 143.863 175.999 141.642 175.999Z" fill="black"/>
</g>
<g id="Group_268">
<path id="Vector_267" d="M160.78 168.161H152.941V175.999H160.78V168.161Z" fill="black"/>
</g>
<g id="Group_269">
<path id="Vector_268" d="M172.081 175.999C174.246 175.999 176 174.245 176 172.08C176 169.916 174.246 168.161 172.081 168.161C169.917 168.161 168.162 169.916 168.162 172.08C168.162 174.245 169.917 175.999 172.081 175.999Z" fill="black"/>
</g>
<g id="Group_270">
<path id="Vector_269" d="M191.219 168.161H183.381V175.999H191.219V168.161Z" fill="black"/>
</g>
<g id="Group_271">
<path id="Vector_270" d="M69.4612 183.609H61.623V179.69C61.623 177.469 63.3213 175.771 65.5421 175.771C67.7629 175.771 69.4612 177.469 69.4612 179.69V183.609Z" fill="black"/>
</g>
<g id="Group_272">
<path id="Vector_271" d="M115.12 183.609H111.201C108.98 183.609 107.282 181.911 107.282 179.69C107.282 177.469 108.98 175.771 111.201 175.771H115.12V183.609Z" fill="black"/>
</g>
<g id="Group_273">
<path id="Vector_272" d="M122.731 175.771H114.893V183.609H122.731V175.771Z" fill="black"/>
</g>
<g id="Group_274">
<path id="Vector_273" d="M153.171 183.609H149.252C147.031 183.609 145.333 181.911 145.333 179.69C145.333 177.469 147.031 175.771 149.252 175.771H153.171V183.609Z" fill="black"/>
</g>
<g id="Group_275">
<path id="Vector_274" d="M160.78 175.771H152.941V183.609H160.78V175.771Z" fill="black"/>
</g>
<g id="Group_276">
<path id="Vector_275" d="M191.219 175.771H183.381V183.609H191.219V175.771Z" fill="black"/>
</g>
<g id="Group_277">
<path id="Vector_276" d="M214.048 183.609H206.21V179.69C206.21 177.469 207.908 175.771 210.129 175.771H214.048V183.609Z" fill="black"/>
</g>
<g id="Group_278">
<path id="Vector_277" d="M217.739 183.609H213.82V175.771H217.739C219.96 175.771 221.658 177.469 221.658 179.69C221.658 181.911 219.96 183.609 217.739 183.609Z" fill="black"/>
</g>
<g id="Group_279">
<path id="Vector_278" d="M69.4612 183.381H61.623V191.219H69.4612V183.381Z" fill="black"/>
</g>
<g id="Group_280">
<path id="Vector_279" d="M122.731 191.219H118.812C116.591 191.219 114.893 189.521 114.893 187.3V183.381H122.731V191.219Z" fill="black"/>
</g>
<g id="Group_281">
<path id="Vector_280" d="M130.341 183.381H122.503V191.219H130.341V183.381Z" fill="black"/>
</g>
<g id="Group_282">
<path id="Vector_281" d="M134.031 191.219H130.112V183.381H134.031C136.252 183.381 137.95 185.079 137.95 187.3C137.95 189.521 136.252 191.219 134.031 191.219Z" fill="black"/>
</g>
<g id="Group_283">
<path id="Vector_282" d="M160.78 183.381H152.941V191.219H160.78V183.381Z" fill="black"/>
</g>
<g id="Group_284">
<path id="Vector_283" d="M168.39 183.381H160.552V191.219H168.39V183.381Z" fill="black"/>
</g>
<g id="Group_285">
<path id="Vector_284" d="M176 183.381H168.162V191.219H176V183.381Z" fill="black"/>
</g>
<g id="Group_286">
<path id="Vector_285" d="M183.609 183.381H175.771V191.219H183.609V183.381Z" fill="black"/>
</g>
<g id="Group_287">
<path id="Vector_286" d="M191.219 183.381H183.381V191.219H191.219V183.381Z" fill="black"/>
</g>
<g id="Group_288">
<path id="Vector_287" d="M198.83 183.381H190.992V191.219H198.83V183.381Z" fill="black"/>
</g>
<g id="Group_289">
<path id="Vector_288" d="M206.438 183.381H198.6V191.219H206.438V183.381Z" fill="black"/>
</g>
<g id="Group_290">
<path id="Vector_289" d="M214.048 183.381H206.21V191.219H214.048V183.381Z" fill="black"/>
</g>
<g id="Group_291">
<path id="Vector_290" d="M69.4612 190.991H61.623V198.829H69.4612V190.991Z" fill="black"/>
</g>
<g id="Group_292">
<path id="Vector_291" d="M73.1525 198.829H69.2334V190.991H73.1525C75.3733 190.991 77.0715 192.689 77.0715 194.91C77.0715 197.131 75.3733 198.829 73.1525 198.829Z" fill="black"/>
</g>
<g id="Group_293">
<path id="Vector_292" d="M92.2913 198.829H84.4531V194.91C84.4531 192.689 86.1514 190.991 88.3722 190.991C90.593 190.991 92.2913 192.689 92.2913 194.91V198.829Z" fill="black"/>
</g>
<g id="Group_294">
<path id="Vector_293" d="M107.511 198.829H103.592C101.371 198.829 99.6729 197.131 99.6729 194.91C99.6729 192.689 101.371 190.991 103.592 190.991H107.511V198.829Z" fill="black"/>
</g>
<g id="Group_295">
<path id="Vector_294" d="M111.201 198.829H107.282V190.991H111.201C113.422 190.991 115.12 192.689 115.12 194.91C115.12 197.131 113.422 198.829 111.201 198.829Z" fill="black"/>
</g>
<g id="Group_296">
<path id="Vector_295" d="M130.341 190.991H122.503V198.829H130.341V190.991Z" fill="black"/>
</g>
<g id="Group_297">
<path id="Vector_296" d="M153.171 198.829H149.252C147.031 198.829 145.333 197.131 145.333 194.91C145.333 192.689 147.031 190.991 149.252 190.991H153.171V198.829Z" fill="black"/>
</g>
<g id="Group_298">
<path id="Vector_297" d="M160.78 190.991H152.941V198.829H160.78V190.991Z" fill="black"/>
</g>
<g id="Group_299">
<path id="Vector_298" d="M191.219 190.991H183.381V198.829H191.219V190.991Z" fill="black"/>
</g>
<g id="Group_300">
<path id="Vector_299" d="M214.048 190.991H206.21V198.829H214.048V190.991Z" fill="black"/>
</g>
<g id="Group_301">
<path id="Vector_300" d="M217.739 198.829H213.82V190.991H217.739C219.96 190.991 221.658 192.689 221.658 194.91C221.658 197.131 219.96 198.829 217.739 198.829Z" fill="black"/>
</g>
<g id="Group_302">
<path id="Vector_301" d="M65.5421 206.439C63.3213 206.439 61.623 204.74 61.623 202.52V198.601H69.4612V202.52C69.4612 204.74 67.7629 206.439 65.5421 206.439Z" fill="black"/>
</g>
<g id="Group_303">
<path id="Vector_302" d="M84.6819 206.439H80.7628C78.542 206.439 76.8438 204.74 76.8438 202.52C76.8438 200.299 78.542 198.601 80.7628 198.601H84.6819V206.439Z" fill="black"/>
</g>
<g id="Group_304">
<path id="Vector_303" d="M92.2913 198.601H84.4531V206.439H92.2913V198.601Z" fill="black"/>
</g>
<g id="Group_305">
<path id="Vector_304" d="M99.9016 206.439H92.0635V198.601H95.9825C98.2034 198.601 99.9016 200.299 99.9016 202.52V206.439Z" fill="black"/>
</g>
<g id="Group_306">
<path id="Vector_305" d="M122.731 206.439H118.812C116.591 206.439 114.893 204.74 114.893 202.52C114.893 200.299 116.591 198.601 118.812 198.601H122.731V206.439Z" fill="black"/>
</g>
<g id="Group_307">
<path id="Vector_306" d="M126.422 206.439H122.503V198.601H130.341V202.52C130.341 204.74 128.643 206.439 126.422 206.439Z" fill="black"/>
</g>
<g id="Group_308">
<path id="Vector_307" d="M141.642 206.439C143.806 206.439 145.561 204.684 145.561 202.52C145.561 200.355 143.806 198.601 141.642 198.601C139.477 198.601 137.723 200.355 137.723 202.52C137.723 204.684 139.477 206.439 141.642 206.439Z" fill="black"/>
</g>
<g id="Group_309">
<path id="Vector_308" d="M156.86 206.439C154.64 206.439 152.941 204.74 152.941 202.52V198.601H160.78V202.52C160.78 204.74 159.081 206.439 156.86 206.439Z" fill="black"/>
</g>
<g id="Group_310">
<path id="Vector_309" d="M176 206.439H172.081C169.86 206.439 168.162 204.74 168.162 202.52C168.162 200.299 169.86 198.601 172.081 198.601H176V206.439Z" fill="black"/>
</g>
<g id="Group_311">
<path id="Vector_310" d="M183.609 198.601H175.771V206.439H183.609V198.601Z" fill="black"/>
</g>
<g id="Group_312">
<path id="Vector_311" d="M191.219 198.601H183.381V206.439H191.219V198.601Z" fill="black"/>
</g>
<g id="Group_313">
<path id="Vector_312" d="M198.83 206.439H190.992V198.601H194.911C197.132 198.601 198.83 200.299 198.83 202.52V206.439Z" fill="black"/>
</g>
<g id="Group_314">
<path id="Vector_313" d="M214.048 198.601H206.21V206.439H214.048V198.601Z" fill="black"/>
</g>
<g id="Group_315">
<path id="Vector_314" d="M99.9016 206.21H92.0635V214.049H99.9016V206.21Z" fill="black"/>
</g>
<g id="Group_316">
<path id="Vector_315" d="M107.511 214.049H99.6729V206.21H103.592C105.813 206.21 107.511 207.909 107.511 210.13V214.049Z" fill="black"/>
</g>
<g id="Group_317">
<path id="Vector_316" d="M164.471 214.049C166.635 214.049 168.39 212.294 168.39 210.13C168.39 207.965 166.635 206.21 164.471 206.21C162.306 206.21 160.552 207.965 160.552 210.13C160.552 212.294 162.306 214.049 164.471 214.049Z" fill="black"/>
</g>
<g id="Group_318">
<path id="Vector_317" d="M183.609 206.21H175.771V214.049H183.609V206.21Z" fill="black"/>
</g>
<g id="Group_319">
<path id="Vector_318" d="M191.219 206.21H183.381V214.049H191.219V206.21Z" fill="black"/>
</g>
<g id="Group_320">
<path id="Vector_319" d="M194.911 214.049H190.992V206.21H198.83V210.13C198.83 212.35 197.132 214.049 194.911 214.049Z" fill="black"/>
</g>
<g id="Group_321">
<path id="Vector_320" d="M210.129 214.049C207.908 214.049 206.21 212.35 206.21 210.13V206.21H214.048V210.13C214.048 212.35 212.35 214.049 210.129 214.049Z" fill="black"/>
</g>
<g id="Group_322">
<path id="Vector_321" d="M69.4612 221.658H65.5421C63.3213 221.658 61.623 219.96 61.623 217.739C61.623 215.519 63.3213 213.82 65.5421 213.82H69.4612V221.658Z" fill="black"/>
</g>
<g id="Group_323">
<path id="Vector_322" d="M73.1525 221.658H69.2334V213.82H73.1525C75.3733 213.82 77.0715 215.519 77.0715 217.739C77.0715 219.96 75.3733 221.658 73.1525 221.658Z" fill="black"/>
</g>
<g id="Group_324">
<path id="Vector_323" d="M92.2913 221.658H88.3722C86.1514 221.658 84.4531 219.96 84.4531 217.739C84.4531 215.519 86.1514 213.82 88.3722 213.82H92.2913V221.658Z" fill="black"/>
</g>
<g id="Group_325">
<path id="Vector_324" d="M99.9016 213.82H92.0635V221.658H99.9016V213.82Z" fill="black"/>
</g>
<g id="Group_326">
<path id="Vector_325" d="M103.592 221.658H99.6729V213.82H107.511V217.739C107.511 219.96 105.813 221.658 103.592 221.658Z" fill="black"/>
</g>
<g id="Group_327">
<path id="Vector_326" d="M134.031 221.658C136.196 221.658 137.95 219.904 137.95 217.739C137.95 215.575 136.196 213.82 134.031 213.82C131.867 213.82 130.112 215.575 130.112 217.739C130.112 219.904 131.867 221.658 134.031 221.658Z" fill="black"/>
</g>
<g id="Group_328">
<path id="Vector_327" d="M149.252 221.658C151.417 221.658 153.171 219.904 153.171 217.739C153.171 215.575 151.417 213.82 149.252 213.82C147.088 213.82 145.333 215.575 145.333 217.739C145.333 219.904 147.088 221.658 149.252 221.658Z" fill="black"/>
</g>
<g id="Group_329">
<path id="Vector_328" d="M179.69 221.658C177.469 221.658 175.771 219.96 175.771 217.739V213.82H183.609V217.739C183.609 219.96 181.91 221.658 179.69 221.658Z" fill="black"/>
</g>
<g id="Group_330">
<g id="Group_331">
<path id="Vector_329" d="M0.744141 27.3791C0.744141 42.2183 12.5394 54.0136 27.3786 54.0136C42.2178 54.0136 54.0131 42.2183 54.0131 27.3791C54.0131 12.5399 42.2178 0.744629 27.3786 0.744629C12.5394 0.744629 0.744141 12.5399 0.744141 27.3791ZM27.3786 46.4037C16.7248 46.4037 8.35399 38.0329 8.35399 27.3791C8.35399 16.7253 16.7248 8.35448 27.3786 8.35448C38.0324 8.35448 46.4032 16.7253 46.4032 27.3791C46.4032 38.0329 38.0324 46.4037 27.3786 46.4037Z" fill="black"/>
</g>
</g>
<g id="Group_332">
<g id="Group_333">
<path id="Vector_330" d="M168.162 27.3791C168.162 42.2183 179.957 54.0136 194.797 54.0136C209.636 54.0136 221.431 42.2183 221.431 27.3791C221.431 12.5399 209.636 0.744629 194.797 0.744629C179.957 0.744629 168.162 12.5399 168.162 27.3791ZM194.797 46.4037C184.143 46.4037 175.772 38.0329 175.772 27.3791C175.772 16.7253 184.143 8.35448 194.797 8.35448C205.45 8.35448 213.821 16.7253 213.821 27.3791C213.821 38.0329 205.45 46.4037 194.797 46.4037Z" fill="black"/>
</g>
</g>
<g id="Group_334">
<g id="Group_335">
<path id="Vector_331" d="M0.744141 194.796C0.744141 209.635 12.5394 221.43 27.3786 221.43C42.2178 221.43 54.0131 209.635 54.0131 194.796C54.0131 179.956 42.2178 168.161 27.3786 168.161C12.5394 168.161 0.744141 179.956 0.744141 194.796ZM27.3786 213.82C16.7248 213.82 8.35399 205.449 8.35399 194.796C8.35399 184.142 16.7248 175.771 27.3786 175.771C38.0324 175.771 46.4032 184.142 46.4032 194.796C46.4032 205.449 38.0324 213.82 27.3786 213.82Z" fill="black"/>
</g>
</g>
<g id="Group_336">
<g id="Group_337">
<path id="Vector_332" d="M27.3786 38.7939C33.6828 38.7939 38.7934 33.6833 38.7934 27.3791C38.7934 21.0749 33.6828 15.9644 27.3786 15.9644C21.0744 15.9644 15.9639 21.0749 15.9639 27.3791C15.9639 33.6833 21.0744 38.7939 27.3786 38.7939Z" fill="black"/>
</g>
</g>
<g id="Group_338">
<g id="Group_339">
<path id="Vector_333" d="M194.797 38.7939C201.101 38.7939 206.211 33.6833 206.211 27.3791C206.211 21.0749 201.101 15.9644 194.797 15.9644C188.492 15.9644 183.382 21.0749 183.382 27.3791C183.382 33.6833 188.492 38.7939 194.797 38.7939Z" fill="black"/>
</g>
</g>
<g id="Group_340">
<g id="Group_341">
<path id="Vector_334" d="M27.3786 206.21C33.6828 206.21 38.7934 201.1 38.7934 194.796C38.7934 188.491 33.6828 183.381 27.3786 183.381C21.0744 183.381 15.9639 188.491 15.9639 194.796C15.9639 201.1 21.0744 206.21 27.3786 206.21Z" fill="black"/>
</g>
</g>
</g>
</svg>
