<svg width="895" height="423" viewBox="0 0 895 423" fill="none" xmlns="http://www.w3.org/2000/svg">
<path d="M65.8128 306.057C73.6099 345.297 122.292 349.366 145.658 346.495V422.505C-37.6483 410.898 -22.279 257.006 52.3179 234.166C91.5151 222.164 129.192 237.397 156.278 256.268C162.004 260.258 155.335 270.352 148.52 268.848C105.877 259.437 58.5778 269.645 65.8128 306.057Z" fill="#431D67"/>
<mask id="mask0_45_359" style="mask-type:alpha" maskUnits="userSpaceOnUse" x="0" y="229" width="189" height="194">
<path d="M65.8128 306.057C73.6099 345.297 122.292 349.366 145.658 346.495V422.505C-37.6483 410.898 -22.279 257.006 52.3179 234.166C111.995 215.893 168.149 260.75 188.767 285.463C145.283 255.508 56.0665 257.006 65.8128 306.057Z" fill="#431D67"/>
</mask>
<g mask="url(#mask0_45_359)">
<path d="M25.3284 297.445C30.3246 381.661 127.915 386.435 151.281 383.564V426.999C-32.0251 415.391 -43.2708 239.928 31.3261 217.087C91.0037 198.815 118.668 222.184 139.286 246.896C95.8019 216.942 22.3295 246.896 25.3284 297.445Z" fill="#34194C"/>
</g>
<path d="M829.187 76.1552C821.39 115.396 772.709 119.465 749.342 116.594V192.604C932.648 180.996 917.279 27.1045 842.682 4.26408C803.485 -7.73748 765.808 7.49549 738.722 26.3668C732.996 30.3563 739.666 40.4503 746.48 38.9464C789.123 29.5358 836.422 39.7433 829.187 76.1552Z" fill="#431D67"/>
<mask id="mask1_45_359" style="mask-type:alpha" maskUnits="userSpaceOnUse" x="706" y="0" width="190" height="193">
<path d="M829.187 76.1552C821.39 115.396 772.709 119.465 749.342 116.594V192.604C932.648 180.996 917.279 27.1045 842.682 4.26408C783.005 -14.0082 726.851 30.8488 706.234 55.5614C749.717 25.6067 838.934 27.1045 829.187 76.1552Z" fill="#431D67"/>
</mask>
<g mask="url(#mask1_45_359)">
<path d="M869.673 67.5433C864.677 151.759 767.086 156.533 743.72 153.663V197.097C927.026 185.49 938.272 10.026 863.675 -12.8144C803.998 -31.0867 776.333 -7.7177 755.716 16.9949C799.199 -12.9598 872.672 16.9949 869.673 67.5433Z" fill="#34194C"/>
</g>
<path d="M781.413 340.654C778.31 325.035 758.933 323.415 749.633 324.558V294.304C822.594 298.924 816.476 360.177 786.785 369.268C780.877 371.077 775.056 371.332 769.518 370.542C762.61 369.557 768.116 357.095 774.398 354.056C779.662 351.51 782.698 347.12 781.413 340.654Z" fill="#431D67"/>
<mask id="mask2_45_359" style="mask-type:alpha" maskUnits="userSpaceOnUse" x="732" y="294" width="76" height="77">
<path d="M781.413 340.654C778.31 325.035 758.933 323.415 749.633 324.558V294.304C822.594 298.924 816.476 360.177 786.785 369.268C763.031 376.541 740.681 358.687 732.474 348.851C749.782 360.773 785.293 360.177 781.413 340.654Z" fill="#431D67"/>
</mask>
<g mask="url(#mask2_45_359)">
<path d="M797.527 344.082C795.539 310.561 756.695 308.661 747.395 309.804V292.516C820.356 297.136 824.832 366.975 795.14 376.066C771.387 383.339 760.376 374.038 752.169 364.201C769.477 376.124 798.721 364.201 797.527 344.082Z" fill="#34194C"/>
</g>
<path d="M113.912 40.7961C117.015 56.4149 136.392 58.0344 145.692 56.8918V87.1458C72.7316 82.5257 78.8489 21.2726 108.541 12.1815C114.448 10.3727 120.269 10.1181 125.807 10.9078C132.716 11.893 127.209 24.3544 120.927 27.3935C115.663 29.9401 112.627 34.33 113.912 40.7961Z" fill="#431D67"/>
<mask id="mask3_45_359" style="mask-type:alpha" maskUnits="userSpaceOnUse" x="87" y="10" width="76" height="78">
<path d="M113.912 40.7961C117.015 56.4149 136.392 58.0344 145.692 56.8918V87.1458C72.7316 82.5257 78.8489 21.2726 108.541 12.1815C132.294 4.9086 154.645 22.7629 162.851 32.5992C145.543 20.6764 110.033 21.2726 113.912 40.7961Z" fill="#431D67"/>
</mask>
<g mask="url(#mask3_45_359)">
<path d="M97.7978 37.3684C99.7865 70.8886 138.63 72.7889 147.93 71.6463V88.9343C74.9696 84.3142 70.4935 14.4749 100.185 5.38384C123.938 -1.88904 134.95 7.41248 143.156 17.2487C125.848 5.326 96.6042 17.2487 97.7978 37.3684Z" fill="#34194C"/>
</g>
</svg>
