<svg width="101" height="103" viewBox="0 0 101 103" fill="none" xmlns="http://www.w3.org/2000/svg">
<g id="Group 24">
<path id="Vector 19" d="M34.9401 40.477C39.0796 61.3336 64.9248 63.4963 77.33 61.9705V102.37C-19.9877 96.2008 -11.8281 14.4062 27.7756 2.26639C40.8833 -1.75155 53.6708 -0.0264419 64.9347 4.30756C71.4479 6.81366 65.393 18.5852 58.4352 19.1252C43.6363 20.2736 32.2646 26.9965 34.9401 40.477Z" fill="#431D67"/>
<g id="Mask group">
<mask id="mask0_45_375" style="mask-type:alpha" maskUnits="userSpaceOnUse" x="0" y="0" width="101" height="103">
<path id="Vector 20" d="M34.9401 40.477C39.0796 61.3336 64.9248 63.4963 77.33 61.9705V102.37C-19.9877 96.2008 -11.8281 14.4062 27.7756 2.26639C59.4586 -7.44547 89.2708 16.3964 100.217 29.5313C77.131 13.6102 29.7657 14.4062 34.9401 40.477Z" fill="#431D67"/>
</mask>
<g mask="url(#mask0_45_375)">
<path id="Vector 21" d="M13.4466 35.8997C16.0991 80.6611 67.91 83.1986 80.3152 81.6729V104.758C-17.0025 98.589 -22.9729 5.32887 16.6308 -6.81097C48.3138 -16.5228 63.001 -4.10202 73.9467 9.03288C50.8612 -6.88821 11.8545 9.03288 13.4466 35.8997Z" fill="#34194C"/>
</g>
</g>
</g>
</svg>
