<svg width="252" height="258" viewBox="0 0 252 258" fill="none" xmlns="http://www.w3.org/2000/svg">
<path d="M87.7834 101.694C98.1834 154.094 163.117 159.527 194.283 155.694V257.194C-50.2166 241.694 -29.7166 36.1941 69.7834 5.69406C128.02 -12.1574 183.741 15.1139 220.225 43.9612C225.699 48.2896 218.933 57.7653 212.259 55.7242C152.337 37.3972 77.3223 48.9861 87.7834 101.694Z" fill="#431D67"/>
<mask id="mask0_45_360" style="mask-type:alpha" maskUnits="userSpaceOnUse" x="0" y="0" width="252" height="258">
<path d="M87.7834 101.694C98.1834 154.094 163.117 159.527 194.283 155.694V257.194C-50.2166 241.694 -29.7166 36.1941 69.7834 5.69406C149.383 -18.7059 224.283 41.1941 251.783 74.1941C193.783 34.1941 74.7834 36.1941 87.7834 101.694Z" fill="#431D67"/>
</mask>
<g mask="url(#mask0_45_360)">
<path d="M33.7834 90.194C40.4476 202.652 170.617 209.027 201.783 205.194V263.194C-42.7166 247.694 -57.7166 13.3881 41.7834 -17.1119C121.383 -41.5119 158.283 -10.306 185.783 22.694C127.783 -17.306 29.7834 22.694 33.7834 90.194Z" fill="#34194C"/>
</g>
</svg>
