<svg width="338" height="409" viewBox="0 0 338 409" fill="none" xmlns="http://www.w3.org/2000/svg">
<ellipse cx="147.306" cy="324.191" rx="48.1975" ry="15.7276" fill="#31384F" stroke="#3C4666" stroke-width="2"/>
<ellipse cx="147.287" cy="324" rx="83.5" ry="27" stroke="#3C4666"/>
<path d="M111.07 322.669C130.507 344.531 163.842 331.274 177.531 330.786C245.44 247.9 169.172 186.236 154.168 161.004C139.164 135.772 158.048 102.44 185.042 106.164C212.036 109.887 199.523 93.5483 213.652 89.0174C224.955 85.3928 222.857 72.4163 220.395 66.3812C232.456 31.4257 189.321 37.5313 166.246 44.9536C168.009 39.4308 168.434 25.1961 156.021 12.44C140.506 -3.50523 107.874 19.0084 126.591 29.2616C145.308 39.5148 143.879 51.9181 142.136 53.1261C137.524 58.3863 137.997 66.2494 138.81 69.5233C130.256 70.356 110.704 78.2022 100.921 102.925C84.6027 150.556 122.098 217.268 137.405 250.528C149.65 277.135 103.459 304.405 111.07 322.669Z" fill="#5C2095"/>
<mask id="mask0_45_2652" style="mask-type:alpha" maskUnits="userSpaceOnUse" x="96" y="6" width="127" height="329">
<path d="M110.563 321.147C130 343.009 168.906 331.294 177.024 330.279C244.933 247.393 169.172 186.236 154.169 161.004C139.165 135.772 158.048 102.441 185.042 106.164C212.037 109.887 199.524 93.5484 213.653 89.0175C224.956 85.3929 222.858 72.4164 220.396 66.3813C232.457 31.4258 189.322 37.5314 166.246 44.9537C168.01 39.4309 168.434 25.1962 156.022 12.4401C140.506 -3.50514 107.874 19.0084 126.591 29.2617C145.308 39.5149 143.879 51.9181 142.136 53.1262C137.524 58.3864 137.997 66.2494 138.81 69.5234C130.257 70.3561 110.704 78.2023 100.921 102.925C84.6031 150.557 122.099 217.268 137.405 250.528C149.65 277.135 105.489 299.331 110.563 321.147Z" fill="#5C2095"/>
</mask>
<g mask="url(#mask0_45_2652)">
<ellipse cx="175.311" cy="331.364" rx="7.64174" ry="4.58505" transform="rotate(12.8332 175.311 331.364)" fill="#954A83"/>
<ellipse cx="186.796" cy="307.293" rx="7.64174" ry="4.58505" transform="rotate(31.0585 186.796 307.293)" fill="#954A83"/>
<ellipse cx="177.461" cy="276.17" rx="7.64174" ry="4.58505" transform="rotate(31.0585 177.461 276.17)" fill="#954A83"/>
<ellipse cx="193.215" cy="265.589" rx="7.64174" ry="4.58505" transform="rotate(-3.19711 193.215 265.589)" fill="#954A83"/>
<ellipse cx="172.754" cy="253.006" rx="10.7978" ry="6.47868" transform="rotate(-3.19711 172.754 253.006)" fill="#954A83"/>
<ellipse cx="188.454" cy="236.582" rx="9.99067" ry="5.9944" transform="rotate(14.4813 188.454 236.582)" fill="#954A83"/>
<ellipse cx="161.142" cy="227.713" rx="6.24629" ry="3.74778" transform="rotate(14.4813 161.142 227.713)" fill="#954A83"/>
<ellipse cx="164.02" cy="219.268" rx="2.63033" ry="1.5782" transform="rotate(14.4813 164.02 219.268)" fill="#954A83"/>
<ellipse cx="165.04" cy="209.656" rx="2.63033" ry="1.5782" transform="rotate(14.4813 165.04 209.656)" fill="#954A83"/>
<ellipse cx="170.326" cy="242.293" rx="2.63033" ry="1.5782" transform="rotate(14.4813 170.326 242.293)" fill="#954A83"/>
<ellipse cx="176.661" cy="228.385" rx="2.63033" ry="1.5782" transform="rotate(14.4813 176.661 228.385)" fill="#954A83"/>
<ellipse cx="177.089" cy="214.824" rx="6.24629" ry="3.74778" transform="rotate(14.4813 177.089 214.824)" fill="#954A83"/>
<ellipse cx="152.287" cy="210.861" rx="6.2463" ry="3.74778" transform="rotate(8.33824 152.287 210.861)" fill="#954A83"/>
<ellipse cx="168.422" cy="195.835" rx="11.0343" ry="6.62059" transform="rotate(8.33824 168.422 195.835)" fill="#954A83"/>
<ellipse cx="160.066" cy="171.413" rx="11.0343" ry="6.62059" transform="rotate(19.0456 160.066 171.413)" fill="#954A83"/>
<ellipse cx="154.917" cy="145.326" rx="11.0343" ry="6.62059" transform="rotate(19.0456 154.917 145.326)" fill="#954A83"/>
<ellipse cx="157.837" cy="128.586" rx="8.95287" ry="5.37172" transform="rotate(19.0456 157.837 128.586)" fill="#954A83"/>
<ellipse cx="168.106" cy="117.934" rx="8.95287" ry="5.37172" transform="rotate(52.7535 168.106 117.934)" fill="#954A83"/>
<ellipse cx="154.97" cy="95.1566" rx="8.95287" ry="5.37172" transform="rotate(52.7535 154.97 95.1566)" fill="#954A83"/>
<ellipse cx="139.585" cy="192.776" rx="11.0343" ry="6.62059" transform="rotate(8.33824 139.585 192.776)" fill="#954A83"/>
<ellipse cx="132.299" cy="163.05" rx="11.0343" ry="6.62059" transform="rotate(19.0456 132.299 163.05)" fill="#954A83"/>
<ellipse cx="127.151" cy="136.964" rx="11.0343" ry="6.62059" transform="rotate(19.0456 127.151 136.964)" fill="#954A83"/>
<ellipse cx="135.293" cy="114.142" rx="11.0343" ry="6.62059" transform="rotate(44.1814 135.293 114.142)" fill="#954A83"/>
<ellipse cx="155.344" cy="183.263" rx="3.98935" ry="2.39361" transform="rotate(8.33824 155.344 183.263)" fill="#954A83"/>
<ellipse cx="149.551" cy="156.63" rx="3.98935" ry="2.39361" transform="rotate(19.0456 149.551 156.63)" fill="#954A83"/>
<ellipse cx="137.659" cy="147.625" rx="3.98935" ry="2.39361" transform="rotate(19.0456 137.659 147.625)" fill="#954A83"/>
<ellipse cx="141.213" cy="132.45" rx="3.98935" ry="2.39361" transform="rotate(19.0456 141.213 132.45)" fill="#954A83"/>
<ellipse cx="149.941" cy="116.029" rx="3.98935" ry="2.39361" transform="rotate(44.1814 149.941 116.029)" fill="#954A83"/>
<ellipse cx="168.694" cy="103.485" rx="3.98935" ry="3.61547" transform="rotate(44.1814 168.694 103.485)" fill="#954A83"/>
<ellipse cx="180.593" cy="92.111" rx="6.25833" ry="5.67181" transform="rotate(44.1814 180.593 92.111)" fill="#954A83"/>
<ellipse cx="186.839" cy="114.718" rx="6.25833" ry="5.67181" transform="rotate(44.1814 186.839 114.718)" fill="#954A83"/>
<ellipse cx="197.354" cy="106.104" rx="3.7146" ry="3.36647" transform="rotate(44.1814 197.354 106.104)" fill="#954A83"/>
<ellipse cx="212.53" cy="109.658" rx="3.7146" ry="3.36647" transform="rotate(44.1814 212.53 109.658)" fill="#954A83"/>
<ellipse cx="200.631" cy="121.032" rx="3.7146" ry="3.36647" transform="rotate(44.1814 200.631 121.032)" fill="#954A83"/>
<ellipse cx="210.243" cy="122.052" rx="3.7146" ry="3.36647" transform="rotate(44.1814 210.243 122.052)" fill="#954A83"/>
<ellipse cx="205.175" cy="133.179" rx="3.7146" ry="3.36647" transform="rotate(44.1814 205.175 133.179)" fill="#954A83"/>
<ellipse cx="213.667" cy="131.404" rx="1.9686" ry="1.78411" transform="rotate(44.1814 213.667 131.404)" fill="#954A83"/>
<ellipse cx="214.162" cy="145.065" rx="1.9686" ry="1.78411" transform="rotate(44.1814 214.162 145.065)" fill="#954A83"/>
<ellipse cx="204.551" cy="144.046" rx="1.9686" ry="1.78411" transform="rotate(44.1814 204.551 144.046)" fill="#954A83"/>
<ellipse cx="203.531" cy="153.658" rx="1.9686" ry="1.78411" transform="rotate(44.1814 203.531 153.658)" fill="#954A83"/>
<ellipse cx="195.433" cy="156.687" rx="1.9686" ry="1.78411" transform="rotate(44.1814 195.433 156.687)" fill="#954A83"/>
<ellipse cx="190.118" cy="160.984" rx="1.9686" ry="1.78411" transform="rotate(44.1814 190.118 160.984)" fill="#954A83"/>
<ellipse cx="172.434" cy="301.822" rx="4.71203" ry="2.82722" transform="rotate(31.0585 172.434 301.822)" fill="#954A83"/>
<ellipse cx="193.442" cy="278.634" rx="4.71203" ry="2.82722" transform="rotate(7.13538 193.442 278.634)" fill="#954A83"/>
<ellipse cx="169.614" cy="314.445" rx="12.5249" ry="7.51496" transform="rotate(12.8332 169.614 314.445)" fill="#954A83"/>
<ellipse cx="192.142" cy="294.034" rx="12.5249" ry="7.51496" transform="rotate(34.0328 192.142 294.034)" fill="#954A83"/>
<path d="M136.436 338.397C125.812 336.47 109.727 328.171 103.966 321.147L113.248 281.456L83.941 228.423L72.5064 119.833L121.167 60.0113C112.346 47.6642 98.787 22.2449 115.118 19.3444C135.531 15.7188 138.7 30.8904 147.349 36.2108C155.998 41.5312 150.268 57.6097 152.85 61.4779C163.608 75.8568 150.976 71.8074 120.641 94.9132C90.3047 118.019 124.184 196.268 150.994 238.825C177.804 281.381 149.717 340.805 136.436 338.397Z" fill="#4F227A"/>
</g>
<path d="M211.629 64.8103C204.678 60.7944 188.938 55.0087 181.587 63.993C172.399 75.2234 191.112 55.1099 211.629 64.8103Z" fill="#4F227A"/>
<path d="M202.688 88.2057C197.372 85.1501 185.347 80.7248 179.778 87.469C172.817 95.8993 187.005 80.8099 202.688 88.2057Z" fill="#4F227A"/>
</svg>
