<svg width="128" height="149" viewBox="0 0 128 149" fill="none" xmlns="http://www.w3.org/2000/svg">
<rect x="61" y="26.155" width="6.3635" height="17" rx="3.18175" transform="rotate(-19.7927 61 26.155)" fill="#7D51A6"/>
<rect x="64.8115" y="24.7832" width="2.31334" height="17" rx="1.15667" transform="rotate(-19.7927 64.8115 24.7832)" fill="#614181"/>
<ellipse cx="54.1792" cy="123.622" rx="23.2544" ry="8.36782" transform="rotate(2.42544 54.1792 123.622)" stroke="#3C4666"/>
<ellipse cx="54.1792" cy="123.622" rx="15.6793" ry="5.11639" transform="rotate(2.42544 54.1792 123.622)" fill="#31384F" stroke="#3C4666" stroke-width="2"/>
<path d="M42.422 122.629C48.4385 130.002 59.4559 126.152 63.9117 126.182C87.1248 100.177 63.1848 79.0849 58.6556 70.6775C54.1265 62.27 60.7228 51.6965 69.4453 53.2783C78.1678 54.86 74.3257 49.3774 78.9803 48.0992C82.7039 47.0768 82.2007 42.8303 81.4836 40.8348C85.8849 29.6396 71.7809 31.0302 64.1788 33.1249C60.7218 32.4248 57.4391 34.3827 56.2299 35.4492C54.6585 37.0954 54.7041 39.6576 54.9233 40.7329C52.1318 40.8858 45.6686 43.1668 42.1486 51.0675C36.1892 66.3241 47.4576 88.5231 51.9747 99.5439C55.5883 108.36 40.2 116.588 42.422 122.629Z" fill="#5C2095"/>
<mask id="mask0_404_9" style="mask-type:alpha" maskUnits="userSpaceOnUse" x="40" y="20" width="43" height="107">
<path d="M42.2784 122.127C48.2948 129.5 61.1016 126.228 63.754 126.01C86.9671 100.005 63.1851 79.085 58.656 70.6775C54.1268 62.27 60.7231 51.6966 69.4456 53.2783C78.1681 54.8601 74.326 49.3774 78.9806 48.0993C82.7042 47.0768 82.201 42.8303 81.4839 40.8349C85.8852 29.6396 71.7813 31.0302 64.1791 33.1249C64.8284 31.3542 65.1622 26.7334 61.3035 22.4165C56.4802 17.0204 45.5642 23.8886 51.5064 27.4788C57.4486 31.069 56.8135 35.0806 56.2302 35.4492C54.6588 37.0954 54.7044 39.6576 54.9236 40.7329C52.1321 40.8858 45.669 43.1668 42.1489 51.0676C36.1895 66.3242 47.4579 88.5232 51.975 99.5439C55.5886 108.361 40.9297 114.967 42.2784 122.127Z" fill="#5C2095"/>
</mask>
<g mask="url(#mask0_404_9)">
<ellipse cx="63.182" cy="126.339" rx="2.48596" ry="1.49158" transform="rotate(15.2587 63.182 126.339)" fill="#954A83"/>
<ellipse cx="67.2466" cy="118.674" rx="2.48596" ry="1.49158" transform="rotate(33.4839 67.2466 118.674)" fill="#954A83"/>
<ellipse cx="64.6406" cy="108.43" rx="2.48596" ry="1.49158" transform="rotate(33.4839 64.6406 108.43)" fill="#954A83"/>
<ellipse cx="69.9067" cy="105.208" rx="2.48596" ry="1.49158" transform="rotate(-0.771662 69.9067 105.208)" fill="#954A83"/>
<ellipse cx="63.4304" cy="100.836" rx="3.51267" ry="2.1076" transform="rotate(-0.771662 63.4304 100.836)" fill="#954A83"/>
<ellipse cx="68.7588" cy="95.7139" rx="3.2501" ry="1.95006" transform="rotate(16.9068 68.7588 95.7139)" fill="#954A83"/>
<ellipse cx="60.0037" cy="92.4552" rx="2.032" ry="1.2192" transform="rotate(16.9068 60.0037 92.4552)" fill="#954A83"/>
<ellipse cx="61.0556" cy="89.7502" rx="0.855682" ry="0.513409" transform="rotate(16.9068 61.0556 89.7502)" fill="#954A83"/>
<ellipse cx="61.519" cy="86.64" rx="0.855682" ry="0.513409" transform="rotate(16.9068 61.519 86.64)" fill="#954A83"/>
<ellipse cx="62.788" cy="97.3208" rx="0.855682" ry="0.513409" transform="rotate(16.9068 62.788 97.3208)" fill="#954A83"/>
<ellipse cx="65.039" cy="92.8874" rx="0.855682" ry="0.513409" transform="rotate(16.9068 65.039 92.8874)" fill="#954A83"/>
<ellipse cx="65.3645" cy="88.4856" rx="2.032" ry="1.2192" transform="rotate(16.9068 65.3645 88.4856)" fill="#954A83"/>
<ellipse cx="57.3584" cy="86.8559" rx="2.032" ry="1.2192" transform="rotate(10.7637 57.3584 86.8559)" fill="#954A83"/>
<ellipse cx="62.8088" cy="82.1946" rx="3.58961" ry="2.15376" transform="rotate(10.7637 62.8088 82.1946)" fill="#954A83"/>
<ellipse cx="60.4296" cy="74.1417" rx="3.58961" ry="2.15376" transform="rotate(21.471 60.4296 74.1417)" fill="#954A83"/>
<ellipse cx="59.1151" cy="65.5921" rx="3.58961" ry="2.15376" transform="rotate(21.471 59.1151 65.5921)" fill="#954A83"/>
<ellipse cx="60.2949" cy="60.1915" rx="2.91249" ry="1.74749" transform="rotate(21.471 60.2949 60.1915)" fill="#954A83"/>
<ellipse cx="63.7788" cy="56.8708" rx="2.91249" ry="1.74749" transform="rotate(55.1789 63.7788 56.8708)" fill="#954A83"/>
<ellipse cx="59.8227" cy="49.2866" rx="2.91249" ry="1.74749" transform="rotate(55.1789 59.8227 49.2866)" fill="#954A83"/>
<ellipse cx="53.4782" cy="80.8035" rx="3.58961" ry="2.15376" transform="rotate(10.7637 53.4782 80.8035)" fill="#954A83"/>
<ellipse cx="51.5194" cy="71.0412" rx="3.58961" ry="2.15376" transform="rotate(21.471 51.5194 71.0412)" fill="#954A83"/>
<ellipse cx="50.206" cy="62.4919" rx="3.58961" ry="2.15376" transform="rotate(21.471 50.206 62.4919)" fill="#954A83"/>
<ellipse cx="53.1662" cy="55.1866" rx="3.58961" ry="2.15376" transform="rotate(46.6068 53.1662 55.1866)" fill="#954A83"/>
<ellipse cx="58.7316" cy="77.9284" rx="1.29779" ry="0.778673" transform="rotate(10.7637 58.7316 77.9284)" fill="#954A83"/>
<ellipse cx="57.2152" cy="69.1923" rx="1.29779" ry="0.778673" transform="rotate(21.471 57.2152 69.1923)" fill="#954A83"/>
<ellipse cx="53.4745" cy="66.1018" rx="1.29779" ry="0.778673" transform="rotate(21.471 53.4745 66.1018)" fill="#954A83"/>
<ellipse cx="54.8382" cy="61.2183" rx="1.29779" ry="0.778673" transform="rotate(21.471 54.8382 61.2183)" fill="#954A83"/>
<ellipse cx="57.901" cy="56.0014" rx="1.29779" ry="0.778673" transform="rotate(46.6068 57.901 56.0014)" fill="#954A83"/>
<ellipse cx="64.1688" cy="52.1826" rx="1.29779" ry="1.17616" transform="rotate(46.6068 64.1688 52.1826)" fill="#954A83"/>
<ellipse cx="68.1927" cy="48.6495" rx="2.03592" ry="1.84511" transform="rotate(46.6068 68.1927 48.6495)" fill="#954A83"/>
<ellipse cx="69.9119" cy="56.0834" rx="2.03592" ry="1.84511" transform="rotate(46.6068 69.9119 56.0834)" fill="#954A83"/>
<ellipse cx="73.448" cy="53.4283" rx="1.20841" ry="1.09516" transform="rotate(46.6068 73.448 53.4283)" fill="#954A83"/>
<ellipse cx="78.3313" cy="54.7922" rx="1.20841" ry="1.09516" transform="rotate(46.6068 78.3313 54.7922)" fill="#954A83"/>
<ellipse cx="74.3073" cy="58.3254" rx="1.20841" ry="1.09516" transform="rotate(46.6068 74.3073 58.3254)" fill="#954A83"/>
<ellipse cx="77.4167" cy="58.7892" rx="1.20841" ry="1.09516" transform="rotate(46.6068 77.4167 58.7892)" fill="#954A83"/>
<ellipse cx="75.6169" cy="62.3358" rx="1.20841" ry="1.09516" transform="rotate(46.6068 75.6169 62.3358)" fill="#954A83"/>
<ellipse cx="78.402" cy="61.8762" rx="0.640412" ry="0.580394" transform="rotate(46.6068 78.402 61.8762)" fill="#954A83"/>
<ellipse cx="78.3747" cy="66.323" rx="0.640412" ry="0.580394" transform="rotate(46.6068 78.3747 66.323)" fill="#954A83"/>
<ellipse cx="75.2643" cy="65.8593" rx="0.640412" ry="0.580394" transform="rotate(46.6068 75.2643 65.8593)" fill="#954A83"/>
<ellipse cx="74.8004" cy="68.9694" rx="0.640412" ry="0.580394" transform="rotate(46.6068 74.8004 68.9694)" fill="#954A83"/>
<ellipse cx="72.1276" cy="69.8426" rx="0.640412" ry="0.580394" transform="rotate(46.6068 72.1276 69.8426)" fill="#954A83"/>
<ellipse cx="70.3405" cy="71.1657" rx="0.640412" ry="0.580394" transform="rotate(46.6068 70.3405 71.1657)" fill="#954A83"/>
<ellipse cx="62.6544" cy="116.698" rx="1.53288" ry="0.919731" transform="rotate(33.4839 62.6544 116.698)" fill="#954A83"/>
<ellipse cx="69.8017" cy="109.451" rx="1.53288" ry="0.919731" transform="rotate(9.56082 69.8017 109.451)" fill="#954A83"/>
<ellipse cx="61.5639" cy="120.762" rx="4.07453" ry="2.44472" transform="rotate(15.2587 61.5639 120.762)" fill="#954A83"/>
<ellipse cx="69.1666" cy="114.438" rx="4.07453" ry="2.44472" transform="rotate(36.4582 69.1666 114.438)" fill="#954A83"/>
<path d="M40.1344 122.036C41.9101 124.399 47.0237 127.317 50.4504 128.09C54.7338 129.055 64.6808 110.128 56.5528 95.9271C48.4247 81.7263 38.4906 55.8272 48.6685 48.7349C58.8464 41.6427 62.8961 43.1327 59.5975 38.3112C58.8118 37.0184 60.8437 32.4717 55.5003 35.9999C52 38.3111 58.1847 38.6026 51.5 39.4999C49.9432 39.7089 48.8794 39.2677 48.2202 38.6391L49.32 37.3983C47.4082 34.4675 46.6151 37.1086 48.2202 38.6391L32.6808 56.1716L34.9023 91.6231L43.6976 109.264L40.1344 122.036Z" fill="#4F227A"/>
</g>
<path d="M78.6563 40.2036C76.4523 38.8026 71.4161 36.7055 68.9032 39.5244C65.7621 43.048 72.1213 36.7683 78.6563 40.2036Z" fill="#4F227A"/>
<path d="M75.4283 47.6844C73.7425 46.6181 69.8951 45.0142 67.9922 47.1296C65.6136 49.7737 70.4328 45.0647 75.4283 47.6844Z" fill="#4F227A"/>
<path d="M69.6157 51.6845C69.4905 51.2552 69.6662 50.7961 70.0633 50.5903C70.6801 50.2706 71.6664 49.8195 72.7467 49.56C73.8068 49.3053 74.7181 49.1612 75.326 49.083C75.7914 49.0231 76.2175 49.3194 76.3489 49.7698L76.7719 51.2197C77.3132 53.0754 76.2477 55.0185 74.392 55.5598C72.5363 56.1011 70.5932 55.0356 70.0519 53.1799L69.6157 51.6845Z" fill="#7D51A6"/>
<mask id="mask1_404_9" style="mask-type:alpha" maskUnits="userSpaceOnUse" x="69" y="49" width="8" height="7">
<path d="M69.6152 51.6847C69.49 51.2553 69.6657 50.7962 70.0628 50.5904C70.6796 50.2707 71.6659 49.8196 72.7462 49.5601C73.8064 49.3054 74.7177 49.1614 75.3255 49.0832C75.7909 49.0233 76.2171 49.3195 76.3484 49.7699L76.7714 51.2199C77.3127 53.0755 76.2472 55.0186 74.3915 55.5599C72.5358 56.1012 70.5927 55.0357 70.0514 53.18L69.6152 51.6847Z" fill="#7D51A6"/>
</mask>
<g mask="url(#mask1_404_9)">
<path d="M73.3903 49.4933C73.3165 49.2402 73.3421 48.9645 73.5098 48.7611C73.7174 48.5093 74.0532 48.2006 74.4788 48.1518C74.8545 48.1087 75.1996 48.1455 75.4586 48.1961C75.7597 48.2548 75.9766 48.4968 76.0625 48.7913L77.8265 54.8387C78.0401 55.5709 77.6197 56.3375 76.8875 56.5511C76.1554 56.7647 75.3887 56.3443 75.1752 55.6121L73.3903 49.4933Z" fill="#614181"/>
</g>
<path d="M68.5547 12.9802C71.4502 19.5501 70.9296 26.14 67.3919 27.6991C63.8543 29.2582 58.6392 25.1961 55.7437 18.6262C52.8482 12.0562 53.3688 5.46632 56.9065 3.90722C60.4442 2.34811 65.6593 6.41021 68.5547 12.9802ZM57.5477 17.8312C59.6277 22.5508 63.3741 25.4689 65.9155 24.3489C68.4568 23.2289 68.8308 18.4949 66.7508 13.7752C64.6707 9.05553 60.9244 6.13743 58.383 7.25745C55.8416 8.37746 55.4676 13.1115 57.5477 17.8312Z" fill="#614181"/>
<path d="M67.5826 13.213C70.4781 19.7829 69.9575 26.3728 66.4198 27.9319C62.8821 29.491 57.667 25.4289 54.7715 18.859C51.8761 12.289 52.3967 5.69911 55.9343 4.14001C59.472 2.5809 64.6871 6.643 67.5826 13.213ZM56.5755 18.0639C58.6555 22.7836 62.4019 25.7017 64.9433 24.5817C67.4847 23.4617 67.8586 18.7277 65.7786 14.008C63.6986 9.28832 59.9522 6.37022 57.4108 7.49023C54.8695 8.61025 54.4955 13.3443 56.5755 18.0639Z" fill="#614181"/>
<path d="M66.6104 13.4459C69.5059 20.0158 68.9853 26.6057 65.4476 28.1648C61.9099 29.7239 56.6948 25.6618 53.7994 19.0919C50.9039 12.5219 51.4245 5.93202 54.9622 4.37292C58.4998 2.81381 63.7149 6.87591 66.6104 13.4459ZM55.6033 18.2968C57.6834 23.0165 61.4298 25.9346 63.9711 24.8146C66.5125 23.6946 66.8865 18.9606 64.8064 14.2409C62.7264 9.52123 58.98 6.60313 56.4387 7.72314C53.8973 8.84316 53.5233 13.5772 55.6033 18.2968Z" fill="#614181"/>
<path d="M65.8707 14.6514C68.7661 21.2214 68.2455 27.8113 64.7079 29.3704C61.1702 30.9295 55.9551 26.8674 53.0596 20.2975C50.1641 13.7275 50.6847 7.13759 54.2224 5.57848C57.7601 4.01938 62.9752 8.08148 65.8707 14.6514ZM54.8636 19.5024C56.9436 24.2221 60.69 27.1402 63.2314 26.0202C65.7727 24.9002 66.1467 20.1662 64.0667 15.4465C61.9867 10.7268 58.2403 7.80869 55.6989 8.92871C53.1575 10.0487 52.7836 14.7827 54.8636 19.5024Z" fill="#BE79FF"/>
<rect width="2.99836" height="8.01008" rx="1.49918" transform="matrix(-0.997571 -0.0696532 -0.0696532 0.997571 98.4097 53.5352)" fill="#7D51A6"/>
<rect width="1.09" height="8.01008" rx="0.545001" transform="matrix(-0.997571 -0.0696532 -0.0696532 0.997571 96.5059 53.4022)" fill="#614181"/>
<ellipse cx="10.957" cy="3.94276" rx="10.957" ry="3.94276" transform="matrix(-0.999104 0.0423193 0.0423193 0.999104 115.794 96.3169)" stroke="#3C4666"/>
<ellipse cx="7.38777" cy="2.41075" rx="7.38777" ry="2.41075" transform="matrix(-0.999104 0.0423193 0.0423193 0.999104 112.293 97.9987)" fill="#31384F" stroke="#3C4666" stroke-width="2"/>
<path d="M110.553 100.252C107.719 103.726 102.527 101.912 100.428 101.926C89.4904 89.6729 100.77 79.7346 102.904 75.7732C105.039 71.8117 101.93 66.8297 97.8206 67.575C93.7107 68.3203 95.5211 65.737 93.3279 65.1347C91.5734 64.653 91.8105 62.6521 92.1484 61.7119C90.0746 56.4369 96.7201 57.0921 100.302 58.0791C99.9962 57.2448 99.8388 55.0676 101.657 53.0335C103.93 50.491 109.073 53.7271 106.273 55.4187C103.473 57.1104 103.773 59.0006 104.047 59.1743C104.788 59.9499 104.766 61.1572 104.663 61.6638C105.978 61.7359 109.024 62.8106 110.682 66.5333C113.49 73.722 108.181 84.1817 106.052 89.3745C104.35 93.5287 111.6 97.4052 110.553 100.252Z" fill="#5C2095"/>
<mask id="mask2_404_9" style="mask-type:alpha" maskUnits="userSpaceOnUse" x="91" y="52" width="21" height="51">
<path d="M110.621 100.015C107.786 103.489 101.752 101.948 100.502 101.845C89.5648 89.5919 100.77 79.7346 102.904 75.7732C105.039 71.8117 101.93 66.8297 97.8206 67.575C93.7108 68.3203 95.5211 65.737 93.3279 65.1348C91.5734 64.653 91.8105 62.6521 92.1484 61.7119C90.0746 56.4369 96.7201 57.0921 100.302 58.0791C99.9962 57.2448 99.8389 55.0676 101.657 53.0335C103.93 50.491 109.073 53.7271 106.273 55.4188C103.473 57.1104 103.773 59.0006 104.047 59.1743C104.788 59.95 104.766 61.1572 104.663 61.6639C105.978 61.7359 109.024 62.8107 110.682 66.5334C113.49 73.722 108.181 84.1817 106.052 89.3745C104.35 93.5287 111.257 96.6414 110.621 100.015Z" fill="#5C2095"/>
</mask>
<g mask="url(#mask2_404_9)">
<ellipse cx="1.17134" cy="0.702802" rx="1.17134" ry="0.702802" transform="matrix(-0.964747 0.263177 0.263177 0.964747 101.717 101.014)" fill="#954A83"/>
<ellipse cx="1.17134" cy="0.702802" rx="1.17134" ry="0.702802" transform="matrix(-0.834041 0.551703 0.551703 0.834041 99.4458 97.1558)" fill="#954A83"/>
<ellipse cx="1.17134" cy="0.702802" rx="1.17134" ry="0.702802" transform="matrix(-0.834041 0.551703 0.551703 0.834041 100.674 92.3289)" fill="#954A83"/>
<ellipse cx="1.17134" cy="0.702802" rx="1.17134" ry="0.702802" transform="matrix(-0.999909 -0.0134676 -0.0134676 0.999909 98.7842 91.3562)" fill="#954A83"/>
<ellipse cx="1.6551" cy="0.993062" rx="1.6551" ry="0.993062" transform="matrix(-0.999909 -0.0134676 -0.0134676 0.999909 102.323 89.0127)" fill="#954A83"/>
<ellipse cx="1.53138" cy="0.91883" rx="1.53138" ry="0.91883" transform="matrix(-0.956779 0.290816 0.290816 0.956779 99.3423 86.2455)" fill="#954A83"/>
<ellipse cx="0.957441" cy="0.574465" rx="0.957441" ry="0.574465" transform="matrix(-0.956779 0.290816 0.290816 0.956779 103.019 85.2064)" fill="#954A83"/>
<ellipse cx="0.403181" cy="0.241909" rx="0.403181" ry="0.241909" transform="matrix(-0.956779 0.290816 0.290816 0.956779 102.089 84.4113)" fill="#954A83"/>
<ellipse cx="0.403181" cy="0.241909" rx="0.403181" ry="0.241909" transform="matrix(-0.956779 0.290816 0.290816 0.956779 101.871 82.9458)" fill="#954A83"/>
<ellipse cx="0.403181" cy="0.241909" rx="0.403181" ry="0.241909" transform="matrix(-0.956779 0.290816 0.290816 0.956779 101.273 87.9784)" fill="#954A83"/>
<ellipse cx="0.403181" cy="0.241909" rx="0.403181" ry="0.241909" transform="matrix(-0.956779 0.290816 0.290816 0.956779 100.212 85.8894)" fill="#954A83"/>
<ellipse cx="0.957441" cy="0.574465" rx="0.957441" ry="0.574465" transform="matrix(-0.956779 0.290816 0.290816 0.956779 100.493 83.3361)" fill="#954A83"/>
<ellipse cx="0.957441" cy="0.574465" rx="0.957441" ry="0.574465" transform="matrix(-0.982406 0.186759 0.186759 0.982406 104.35 82.6531)" fill="#954A83"/>
<ellipse cx="1.69136" cy="1.01481" rx="1.69136" ry="1.01481" transform="matrix(-0.982406 0.186759 0.186759 0.982406 102.42 79.8871)" fill="#954A83"/>
<ellipse cx="1.69136" cy="1.01481" rx="1.69136" ry="1.01481" transform="matrix(-0.930603 0.36603 0.36603 0.930603 103.271 75.842)" fill="#954A83"/>
<ellipse cx="1.69136" cy="1.01481" rx="1.69136" ry="1.01481" transform="matrix(-0.930603 0.36603 0.36603 0.930603 103.891 71.8137)" fill="#954A83"/>
<ellipse cx="1.37231" cy="0.823385" rx="1.37231" ry="0.823385" transform="matrix(-0.930603 0.36603 0.36603 0.930603 103.108 69.5638)" fill="#954A83"/>
<ellipse cx="1.37231" cy="0.823385" rx="1.37231" ry="0.823385" transform="matrix(-0.571015 0.820939 0.820939 0.571015 100.599 67.671)" fill="#954A83"/>
<ellipse cx="1.37231" cy="0.823385" rx="1.37231" ry="0.823385" transform="matrix(-0.571015 0.820939 0.820939 0.571015 102.462 64.0975)" fill="#954A83"/>
<ellipse cx="1.69136" cy="1.01481" rx="1.69136" ry="1.01481" transform="matrix(-0.982406 0.186759 0.186759 0.982406 106.816 79.2316)" fill="#954A83"/>
<ellipse cx="1.69136" cy="1.01481" rx="1.69136" ry="1.01481" transform="matrix(-0.930603 0.36603 0.36603 0.930603 107.47 74.3812)" fill="#954A83"/>
<ellipse cx="1.69136" cy="1.01481" rx="1.69136" ry="1.01481" transform="matrix(-0.930603 0.36603 0.36603 0.930603 108.089 70.3529)" fill="#954A83"/>
<ellipse cx="1.69136" cy="1.01481" rx="1.69136" ry="1.01481" transform="matrix(-0.687001 0.726656 0.726656 0.687001 105.916 66.548)" fill="#954A83"/>
<ellipse cx="0.611493" cy="0.366896" rx="0.611493" ry="0.366896" transform="matrix(-0.982406 0.186759 0.186759 0.982406 103.401 78.7151)" fill="#954A83"/>
<ellipse cx="0.611493" cy="0.366896" rx="0.611493" ry="0.366896" transform="matrix(-0.930603 0.36603 0.36603 0.930603 104.018 74.5082)" fill="#954A83"/>
<ellipse cx="0.611493" cy="0.366896" rx="0.611493" ry="0.366896" transform="matrix(-0.930603 0.36603 0.36603 0.930603 105.781 73.052)" fill="#954A83"/>
<ellipse cx="0.611493" cy="0.366896" rx="0.611493" ry="0.366896" transform="matrix(-0.930603 0.36603 0.36603 0.930603 105.138 70.751)" fill="#954A83"/>
<ellipse cx="0.611493" cy="0.366896" rx="0.611493" ry="0.366896" transform="matrix(-0.687001 0.726656 0.726656 0.687001 103.414 68.1617)" fill="#954A83"/>
<ellipse cx="0.611493" cy="0.554185" rx="0.611493" ry="0.554185" transform="matrix(-0.687001 0.726656 0.726656 0.687001 100.324 66.2338)" fill="#954A83"/>
<ellipse cx="0.959285" cy="0.869382" rx="0.959285" ry="0.869382" transform="matrix(-0.687001 0.726656 0.726656 0.687001 98.4385 64.0997)" fill="#954A83"/>
<ellipse cx="0.959285" cy="0.869382" rx="0.959285" ry="0.869382" transform="matrix(-0.687001 0.726656 0.726656 0.687001 97.6284 67.6024)" fill="#954A83"/>
<ellipse cx="0.569379" cy="0.516018" rx="0.569379" ry="0.516018" transform="matrix(-0.687001 0.726656 0.726656 0.687001 95.9512 66.8776)" fill="#954A83"/>
<ellipse cx="0.569379" cy="0.516018" rx="0.569379" ry="0.516018" transform="matrix(-0.687001 0.726656 0.726656 0.687001 93.6499 67.5201)" fill="#954A83"/>
<ellipse cx="0.569379" cy="0.516018" rx="0.569379" ry="0.516018" transform="matrix(-0.687001 0.726656 0.726656 0.687001 95.5459 69.1849)" fill="#954A83"/>
<ellipse cx="0.569379" cy="0.516018" rx="0.569379" ry="0.516018" transform="matrix(-0.687001 0.726656 0.726656 0.687001 94.0806 69.4034)" fill="#954A83"/>
<ellipse cx="0.569379" cy="0.516018" rx="0.569379" ry="0.516018" transform="matrix(-0.687001 0.726656 0.726656 0.687001 94.9292 71.0746)" fill="#954A83"/>
<ellipse cx="0.30175" cy="0.273471" rx="0.30175" ry="0.273471" transform="matrix(-0.687001 0.726656 0.726656 0.687001 93.6094 71.2191)" fill="#954A83"/>
<ellipse cx="0.30175" cy="0.273471" rx="0.30175" ry="0.273471" transform="matrix(-0.687001 0.726656 0.726656 0.687001 93.6221 73.3143)" fill="#954A83"/>
<ellipse cx="0.30175" cy="0.273471" rx="0.30175" ry="0.273471" transform="matrix(-0.687001 0.726656 0.726656 0.687001 95.0874 73.0958)" fill="#954A83"/>
<ellipse cx="0.30175" cy="0.273471" rx="0.30175" ry="0.273471" transform="matrix(-0.687001 0.726656 0.726656 0.687001 95.3062 74.5613)" fill="#954A83"/>
<ellipse cx="0.30175" cy="0.273471" rx="0.30175" ry="0.273471" transform="matrix(-0.687001 0.726656 0.726656 0.687001 96.5659 74.9728)" fill="#954A83"/>
<ellipse cx="0.30175" cy="0.273471" rx="0.30175" ry="0.273471" transform="matrix(-0.687001 0.726656 0.726656 0.687001 97.4077 75.5962)" fill="#954A83"/>
<ellipse cx="0.722266" cy="0.43336" rx="0.722266" ry="0.43336" transform="matrix(-0.834041 0.551703 0.551703 0.834041 101.384 96.6974)" fill="#954A83"/>
<ellipse cx="0.722266" cy="0.43336" rx="0.722266" ry="0.43336" transform="matrix(-0.98611 0.166095 0.166095 0.98611 98.2935 93.4951)" fill="#954A83"/>
<ellipse cx="1.91984" cy="1.1519" rx="1.91984" ry="1.1519" transform="matrix(-0.964747 0.263177 0.263177 0.964747 103.083 97.7555)" fill="#954A83"/>
<ellipse cx="1.91984" cy="1.1519" rx="1.91984" ry="1.1519" transform="matrix(-0.80429 0.594237 0.594237 0.80429 98.812 94.3251)" fill="#954A83"/>
<path d="M106.771 102.825C108.385 102.461 110.795 101.086 111.632 99.9725L109.953 93.9543L114.097 85.6424L115.144 68.9384L107.303 60.0927C108.574 58.1446 110.486 54.1639 107.966 53.8256C104.816 53.4028 104.429 55.7468 103.139 56.6177C101.849 57.4886 102.831 59.9137 102.461 60.5228C100.907 62.7947 102.815 62.0926 107.61 65.4343C112.406 68.7761 107.725 80.9793 103.895 87.6704C100.066 94.3616 104.753 103.28 106.771 102.825Z" fill="#4F227A"/>
</g>
<path d="M93.4807 61.4144C94.5192 60.7543 96.8921 59.7662 98.0762 61.0944C99.5562 62.7546 96.5598 59.7958 93.4807 61.4144Z" fill="#4F227A"/>
<path d="M95.0016 64.9392C95.7959 64.4368 97.6088 63.6811 98.5054 64.6778C99.6261 65.9237 97.3554 63.7049 95.0016 64.9392Z" fill="#4F227A"/>
<path d="M97.5015 65.957C97.514 65.6997 97.3539 65.4659 97.1032 65.407C96.7847 65.3321 96.3205 65.2483 95.8375 65.248C95.3691 65.2477 94.9675 65.2759 94.6827 65.3043C94.4164 65.3309 94.219 65.5518 94.206 65.8191L94.1752 66.4504C94.1309 67.3601 94.8324 68.1335 95.7421 68.1778C96.6518 68.2222 97.4252 67.5206 97.4696 66.6109L97.5015 65.957Z" fill="#7D51A6"/>
<mask id="mask3_404_9" style="mask-type:alpha" maskUnits="userSpaceOnUse" x="94" y="65" width="4" height="4">
<path d="M97.5015 65.957C97.514 65.6997 97.3539 65.4659 97.1032 65.407C96.7847 65.3321 96.3205 65.2483 95.8375 65.248C95.3691 65.2477 94.9675 65.2759 94.6827 65.3043C94.4164 65.3309 94.219 65.5518 94.206 65.8191L94.1752 66.4504C94.1309 67.3601 94.8324 68.1335 95.7421 68.1778C96.6518 68.2222 97.4252 67.5206 97.4696 66.6109L97.5015 65.957Z" fill="#7D51A6"/>
</mask>
<g mask="url(#mask3_404_9)">
<path d="M95.5267 65.453C95.5379 65.2234 95.4636 64.9851 95.2609 64.8765C95.1533 64.8188 95.0239 64.7765 94.8887 64.793C94.791 64.8048 94.7003 64.8268 94.6196 64.8529C94.3691 64.9336 94.2369 65.1846 94.2241 65.4475L94.0887 68.2245C94.0712 68.5834 94.348 68.8886 94.7069 68.9061C95.0659 68.9236 95.371 68.6468 95.3885 68.2879L95.5267 65.453Z" fill="#614181"/>
</g>
<path d="M93.7426 48.0264C93.137 51.3547 94.0989 54.3172 95.891 54.6433C97.6832 54.9694 99.6269 52.5356 100.233 49.2073C100.838 45.879 99.8763 42.9166 98.0841 42.5905C96.292 42.2644 94.3482 44.6981 93.7426 48.0264ZM99.3187 49.041C98.8836 51.432 97.4873 53.1803 96.1998 52.9461C94.9124 52.7118 94.2214 50.5837 94.6565 48.1927C95.0915 45.8017 96.4879 44.0534 97.7753 44.2877C99.0627 44.5219 99.7537 46.6501 99.3187 49.041Z" fill="#614181"/>
<path d="M94.2138 48.0264C93.6082 51.3547 94.5701 54.3172 96.3622 54.6433C98.1544 54.9694 100.098 52.5356 100.704 49.2073C101.309 45.879 100.347 42.9166 98.5553 42.5905C96.7631 42.2644 94.8194 44.6981 94.2138 48.0264ZM99.7899 49.041C99.3548 51.432 97.9585 53.1803 96.671 52.9461C95.3836 52.7118 94.6926 50.5837 95.1276 48.1927C95.5627 45.8017 96.959 44.0534 98.2465 44.2877C99.5339 44.5219 100.225 46.6501 99.7899 49.041Z" fill="#614181"/>
<path d="M94.685 48.0264C94.0794 51.3547 95.0412 54.3172 96.8334 54.6433C98.6256 54.9694 100.569 52.5356 101.175 49.2073C101.781 45.879 100.819 42.9166 99.0265 42.5905C97.2343 42.2644 95.2906 44.6981 94.685 48.0264ZM100.261 49.041C99.826 51.432 98.4297 53.1803 97.1422 52.9461C95.8548 52.7118 95.1638 50.5837 95.5988 48.1927C96.0339 45.8017 97.4302 44.0534 98.7177 44.2877C100.005 44.5219 100.696 46.6501 100.261 49.041Z" fill="#614181"/>
<path d="M95.1571 48.4976C94.5515 51.8259 95.5134 54.7884 97.3056 55.1145C99.0977 55.4406 101.041 53.0068 101.647 49.6785C102.253 46.3502 101.291 43.3877 99.4987 43.0617C97.7065 42.7356 95.7627 45.1693 95.1571 48.4976ZM100.733 49.5122C100.298 51.9032 98.9018 53.6515 97.6144 53.4173C96.3269 53.183 95.636 51.0548 96.071 48.6639C96.5061 46.2729 97.9024 44.5246 99.1898 44.7589C100.477 44.9931 101.168 47.1213 100.733 49.5122Z" fill="#BE79FF"/>
<rect x="21.4712" y="16.5896" width="2.23269" height="5.96461" rx="1.11635" transform="rotate(-3.99407 21.4712 16.5896)" fill="#7D51A6"/>
<rect x="22.8887" y="16.4906" width="0.811656" height="5.96461" rx="0.405828" transform="rotate(-3.99407 22.8887 16.4906)" fill="#614181"/>
<ellipse cx="16.5533" cy="51.7249" rx="8.15901" ry="2.93592" transform="rotate(2.42544 16.5533 51.7249)" stroke="#3C4666"/>
<ellipse cx="16.5536" cy="51.7248" rx="5.50121" ry="1.79513" transform="rotate(2.42544 16.5536 51.7248)" fill="#31384F" stroke="#3C4666" stroke-width="2"/>
<path d="M12.4285 51.3762C14.5394 53.9632 18.405 52.6124 19.9683 52.6229C28.1129 43.4989 19.7133 36.0984 18.1242 33.1486C16.5351 30.1988 18.8495 26.489 21.9099 27.0439C24.9702 27.5989 23.6222 25.6753 25.2553 25.2268C26.5618 24.8681 26.3852 23.3782 26.1336 22.678C27.6779 18.7501 22.7293 19.238 20.0621 19.9729C20.2899 19.3517 20.407 17.7304 19.0531 16.2158C17.3608 14.3225 13.5308 16.7323 15.6157 17.9919C17.7006 19.2516 17.4778 20.6591 17.2731 20.7885C16.7218 21.366 16.7378 22.265 16.8147 22.6423C15.8353 22.6959 13.5676 23.4962 12.3326 26.2683C10.2416 31.6212 14.1953 39.4099 15.7801 43.2767C17.048 46.37 11.6489 49.2566 12.4285 51.3762Z" fill="#5C2095"/>
<mask id="mask4_404_9" style="mask-type:alpha" maskUnits="userSpaceOnUse" x="11" y="15" width="16" height="38">
<path d="M12.3782 51.2001C14.4892 53.7871 18.9826 52.639 19.9132 52.5625C28.0577 43.4385 19.7136 36.0983 18.1245 33.1485C16.5354 30.1987 18.8497 26.4889 21.9101 27.0438C24.9705 27.5988 23.6224 25.6752 25.2555 25.2267C26.562 24.868 26.3855 23.3781 26.1339 22.6779C27.6781 18.75 22.7296 19.2379 20.0623 19.9728C20.2901 19.3516 20.4073 17.7303 19.0534 16.2157C17.3611 14.3224 13.5311 16.7322 15.616 17.9918C17.7009 19.2515 17.478 20.659 17.2734 20.7884C16.722 21.3659 16.738 22.2649 16.8149 22.6422C15.8355 22.6958 13.5679 23.4961 12.3328 26.2682C10.2419 31.6211 14.1955 39.4098 15.7804 43.2766C17.0483 46.3699 11.9051 48.6878 12.3782 51.2001Z" fill="#5C2095"/>
</mask>
<g mask="url(#mask4_404_9)">
<ellipse cx="19.7125" cy="52.6778" rx="0.872222" ry="0.523333" transform="rotate(15.2587 19.7125 52.6778)" fill="#954A83"/>
<ellipse cx="21.1385" cy="49.9884" rx="0.872222" ry="0.523333" transform="rotate(33.4839 21.1385 49.9884)" fill="#954A83"/>
<ellipse cx="20.2239" cy="46.3941" rx="0.872222" ry="0.523333" transform="rotate(33.4839 20.2239 46.3941)" fill="#954A83"/>
<ellipse cx="22.0716" cy="45.2637" rx="0.872222" ry="0.523333" transform="rotate(-0.771662 22.0716 45.2637)" fill="#954A83"/>
<ellipse cx="19.7994" cy="43.7299" rx="1.23245" ry="0.739471" transform="rotate(-0.771662 19.7994 43.7299)" fill="#954A83"/>
<ellipse cx="21.6689" cy="41.9327" rx="1.14033" ry="0.684195" transform="rotate(16.9068 21.6689 41.9327)" fill="#954A83"/>
<ellipse cx="18.5973" cy="40.7893" rx="0.712946" ry="0.427768" transform="rotate(16.9068 18.5973 40.7893)" fill="#954A83"/>
<ellipse cx="18.9663" cy="39.8402" rx="0.300224" ry="0.180134" transform="rotate(16.9068 18.9663 39.8402)" fill="#954A83"/>
<ellipse cx="19.1284" cy="38.749" rx="0.300224" ry="0.180134" transform="rotate(16.9068 19.1284 38.749)" fill="#954A83"/>
<ellipse cx="19.5742" cy="42.4965" rx="0.300224" ry="0.180134" transform="rotate(16.9068 19.5742 42.4965)" fill="#954A83"/>
<ellipse cx="20.3638" cy="40.9411" rx="0.300224" ry="0.180134" transform="rotate(16.9068 20.3638 40.9411)" fill="#954A83"/>
<ellipse cx="20.4781" cy="39.3965" rx="0.712946" ry="0.427768" transform="rotate(16.9068 20.4781 39.3965)" fill="#954A83"/>
<ellipse cx="17.6689" cy="38.8249" rx="0.712946" ry="0.427768" transform="rotate(10.7637 17.6689 38.8249)" fill="#954A83"/>
<ellipse cx="19.581" cy="37.1894" rx="1.25945" ry="0.755668" transform="rotate(10.7637 19.581 37.1894)" fill="#954A83"/>
<ellipse cx="18.7465" cy="34.3639" rx="1.25945" ry="0.755668" transform="rotate(21.471 18.7465 34.3639)" fill="#954A83"/>
<ellipse cx="18.2851" cy="31.3643" rx="1.25945" ry="0.755668" transform="rotate(21.471 18.2851 31.3643)" fill="#954A83"/>
<ellipse cx="18.6992" cy="29.4694" rx="1.02187" ry="0.613123" transform="rotate(21.471 18.6992 29.4694)" fill="#954A83"/>
<ellipse cx="19.9215" cy="28.3042" rx="1.02187" ry="0.613124" transform="rotate(55.1789 19.9215 28.3042)" fill="#954A83"/>
<ellipse cx="18.5338" cy="25.6433" rx="1.02187" ry="0.613124" transform="rotate(55.1789 18.5338 25.6433)" fill="#954A83"/>
<ellipse cx="16.3076" cy="36.7012" rx="1.25945" ry="0.755668" transform="rotate(10.7637 16.3076 36.7012)" fill="#954A83"/>
<ellipse cx="15.6201" cy="33.2762" rx="1.25945" ry="0.755668" transform="rotate(21.471 15.6201 33.2762)" fill="#954A83"/>
<ellipse cx="15.1591" cy="30.2765" rx="1.25945" ry="0.755668" transform="rotate(21.471 15.1591 30.2765)" fill="#954A83"/>
<ellipse cx="16.198" cy="27.7134" rx="1.25945" ry="0.755668" transform="rotate(46.6068 16.198 27.7134)" fill="#954A83"/>
<ellipse cx="18.1507" cy="35.6924" rx="0.455341" ry="0.273204" transform="rotate(10.7637 18.1507 35.6924)" fill="#954A83"/>
<ellipse cx="17.6187" cy="32.6273" rx="0.455341" ry="0.273204" transform="rotate(21.471 17.6187 32.6273)" fill="#954A83"/>
<ellipse cx="16.3062" cy="31.543" rx="0.455341" ry="0.273204" transform="rotate(21.471 16.3062 31.543)" fill="#954A83"/>
<ellipse cx="16.7847" cy="29.8296" rx="0.455341" ry="0.273204" transform="rotate(21.471 16.7847 29.8296)" fill="#954A83"/>
<ellipse cx="17.8594" cy="27.9993" rx="0.455341" ry="0.273204" transform="rotate(46.6068 17.8594 27.9993)" fill="#954A83"/>
<ellipse cx="20.0584" cy="26.6594" rx="0.455341" ry="0.412667" transform="rotate(46.6068 20.0584 26.6594)" fill="#954A83"/>
<ellipse cx="21.47" cy="25.4197" rx="0.714319" ry="0.647375" transform="rotate(46.6068 21.47 25.4197)" fill="#954A83"/>
<ellipse cx="22.0735" cy="28.028" rx="0.714319" ry="0.647375" transform="rotate(46.6068 22.0735 28.028)" fill="#954A83"/>
<ellipse cx="23.3138" cy="27.0965" rx="0.423981" ry="0.384246" transform="rotate(46.6068 23.3138 27.0965)" fill="#954A83"/>
<ellipse cx="25.0277" cy="27.575" rx="0.423981" ry="0.384246" transform="rotate(46.6068 25.0277 27.575)" fill="#954A83"/>
<ellipse cx="23.6156" cy="28.8146" rx="0.423981" ry="0.384246" transform="rotate(46.6068 23.6156 28.8146)" fill="#954A83"/>
<ellipse cx="24.7069" cy="28.9773" rx="0.423981" ry="0.384246" transform="rotate(46.6068 24.7069 28.9773)" fill="#954A83"/>
<ellipse cx="24.075" cy="30.2217" rx="0.423981" ry="0.384246" transform="rotate(46.6068 24.075 30.2217)" fill="#954A83"/>
<ellipse cx="25.0523" cy="30.0604" rx="0.224694" ry="0.203636" transform="rotate(46.6068 25.0523 30.0604)" fill="#954A83"/>
<ellipse cx="25.0425" cy="31.6206" rx="0.224694" ry="0.203636" transform="rotate(46.6068 25.0425 31.6206)" fill="#954A83"/>
<ellipse cx="23.9517" cy="31.458" rx="0.224694" ry="0.203636" transform="rotate(46.6068 23.9517 31.458)" fill="#954A83"/>
<ellipse cx="23.7886" cy="32.5491" rx="0.224694" ry="0.203636" transform="rotate(46.6068 23.7886 32.5491)" fill="#954A83"/>
<ellipse cx="22.8506" cy="32.8555" rx="0.224694" ry="0.203636" transform="rotate(46.6068 22.8506 32.8555)" fill="#954A83"/>
<ellipse cx="22.2237" cy="33.3198" rx="0.224694" ry="0.203636" transform="rotate(46.6068 22.2237 33.3198)" fill="#954A83"/>
<ellipse cx="19.5269" cy="49.2951" rx="0.537826" ry="0.322696" transform="rotate(33.4839 19.5269 49.2951)" fill="#954A83"/>
<ellipse cx="22.0344" cy="46.7523" rx="0.537826" ry="0.322696" transform="rotate(9.56082 22.0344 46.7523)" fill="#954A83"/>
<ellipse cx="19.1442" cy="50.7211" rx="1.42958" ry="0.857751" transform="rotate(15.2587 19.1442 50.7211)" fill="#954A83"/>
<ellipse cx="21.812" cy="48.5022" rx="1.42958" ry="0.857751" transform="rotate(36.4582 21.812 48.5022)" fill="#954A83"/>
<path d="M15.2452 53.2922C14.0429 53.0212 12.2487 51.9971 11.6257 51.1683L12.8759 46.6869L9.78999 40.4976L9.01055 28.0591L14.8486 21.4723C13.9023 20.0217 12.4789 17.0574 14.3552 16.8056C16.7005 16.4907 16.9887 18.2361 17.9493 18.8846C18.9099 19.5331 18.1788 21.339 18.4545 21.7926C19.6119 23.4843 18.191 22.9615 14.62 25.4499C11.049 27.9382 14.5344 37.0252 17.3863 42.0077C20.2381 46.9902 16.7481 53.631 15.2452 53.2922Z" fill="#4F227A"/>
</g>
<path d="M25.1417 22.4566C24.3684 21.965 22.6014 21.2292 21.7197 22.2182C20.6177 23.4545 22.8489 21.2512 25.1417 22.4566Z" fill="#4F227A"/>
<path d="M24.0092 25.0813C23.4177 24.7072 22.0678 24.1444 21.4001 24.8866C20.5656 25.8144 22.2565 24.1621 24.0092 25.0813Z" fill="#4F227A"/>
<path d="M22.1474 25.8393C22.1381 25.6477 22.2573 25.4737 22.444 25.4298C22.6812 25.374 23.0268 25.3116 23.3865 25.3114C23.7353 25.3112 24.0343 25.3322 24.2464 25.3533C24.4446 25.3731 24.5917 25.5376 24.6014 25.7366L24.6243 26.2067C24.6573 26.8841 24.1349 27.46 23.4575 27.493C22.7801 27.5261 22.2042 27.0037 22.1712 26.3263L22.1474 25.8393Z" fill="#7D51A6"/>
<mask id="mask5_404_9" style="mask-type:alpha" maskUnits="userSpaceOnUse" x="22" y="25" width="3" height="3">
<path d="M22.1474 25.8392C22.1381 25.6476 22.2573 25.4735 22.444 25.4296C22.6812 25.3739 23.0268 25.3115 23.3865 25.3113C23.7353 25.311 24.0343 25.3321 24.2464 25.3532C24.4446 25.373 24.5917 25.5375 24.6014 25.7365L24.6243 26.2066C24.6573 26.884 24.1349 27.4599 23.4575 27.4929C22.7801 27.5259 22.2042 27.0036 22.1712 26.3262L22.1474 25.8392Z" fill="#7D51A6"/>
</mask>
<g mask="url(#mask5_404_9)">
<path d="M23.6182 25.4639C23.6099 25.2928 23.6652 25.1154 23.8161 25.0345C23.8963 24.9916 23.9926 24.9601 24.0933 24.9723C24.166 24.9812 24.2336 24.9976 24.2937 25.0169C24.4802 25.077 24.5787 25.264 24.5882 25.4597L24.689 27.5276C24.702 27.7949 24.4959 28.0221 24.2287 28.0351C23.9614 28.0481 23.7342 27.842 23.7211 27.5748L23.6182 25.4639Z" fill="#614181"/>
</g>
<path d="M24.9466 12.4875C25.3975 14.9659 24.6813 17.1719 23.3468 17.4147C22.0123 17.6575 20.5649 15.8453 20.1139 13.3669C19.6629 10.8885 20.3792 8.68255 21.7137 8.43972C23.0482 8.1969 24.4956 10.0092 24.9466 12.4875ZM20.7944 13.2431C21.1184 15.0235 22.1581 16.3253 23.1168 16.1509C24.0755 15.9765 24.59 14.3918 24.2661 12.6114C23.9421 10.831 22.9023 9.52909 21.9437 9.70352C20.985 9.87796 20.4704 11.4627 20.7944 13.2431Z" fill="#614181"/>
<path d="M24.5955 12.4875C25.0465 14.9659 24.3302 17.1719 22.9957 17.4147C21.6612 17.6575 20.2138 15.8453 19.7628 13.3669C19.3119 10.8885 20.0281 8.68255 21.3626 8.43972C22.6971 8.1969 24.1445 10.0092 24.5955 12.4875ZM20.4433 13.2431C20.7673 15.0235 21.8071 16.3253 22.7657 16.1509C23.7244 15.9765 24.2389 14.3918 23.915 12.6114C23.591 10.831 22.5513 9.52909 21.5926 9.70352C20.6339 9.87796 20.1194 11.4627 20.4433 13.2431Z" fill="#614181"/>
<path d="M24.2449 12.4875C24.6959 14.9659 23.9796 17.1719 22.6451 17.4147C21.3106 17.6575 19.8632 15.8453 19.4122 13.3669C18.9613 10.8885 19.6775 8.68255 21.012 8.43972C22.3466 8.1969 23.794 10.0092 24.2449 12.4875ZM20.0927 13.2431C20.4167 15.0235 21.4565 16.3253 22.4151 16.1509C23.3738 15.9765 23.8884 14.3918 23.5644 12.6114C23.2405 10.831 22.2007 9.52909 21.242 9.70352C20.2833 9.87796 19.7688 11.4627 20.0927 13.2431Z" fill="#614181"/>
<path d="M23.8938 12.8384C24.3448 15.3167 23.6285 17.5227 22.294 17.7655C20.9595 18.0084 19.5121 16.1961 19.0612 13.7177C18.6102 11.2393 19.3265 9.03338 20.661 8.79055C21.9955 8.54773 23.4429 10.36 23.8938 12.8384ZM19.7417 13.5939C20.0656 15.3743 21.1054 16.6762 22.0641 16.5017C23.0227 16.3273 23.5373 14.7426 23.2133 12.9622C22.8894 11.1818 21.8496 9.87992 20.8909 10.0544C19.9323 10.2288 19.4177 11.8135 19.7417 13.5939Z" fill="#BE79FF"/>
</svg>
