<svg width="46" height="46" viewBox="0 0 46 46" fill="none" xmlns="http://www.w3.org/2000/svg">
<g id="treasure-chest 1" clip-path="url(#clip0_45_8121)">
<g id="Group">
<path id="Vector" d="M0 18.0267H15.5741V21.2723H0V18.0267Z" fill="#7781A4"/>
<path id="Vector_2" d="M42.1064 5.08032C42.4188 5.74301 42.5944 6.48242 42.5944 7.26236V15.3316H46.0002V10.392C46.0002 7.90456 44.3611 5.79332 42.1064 5.08032Z" fill="#7781A4"/>
<path id="Vector_3" d="M42.6909 23.9677V34.6705H41.3432C40.473 34.6705 39.7651 35.3784 39.7651 36.2486V37.5962H6.23489V36.2486C6.23489 35.3783 5.52692 34.6705 4.65678 34.6705H3.30912V23.9677H0V41.1778H46V23.9677H42.6909Z" fill="#7781A4"/>
<path id="Vector_4" d="M23.0001 27.5255C25.6085 27.5255 27.7306 25.4034 27.7306 22.795V18.0269H18.2695V22.795C18.2695 25.4033 20.3916 27.5255 23.0001 27.5255ZM21.6315 20.7749H24.3268V23.4702H21.6315V20.7749Z" fill="#7781A4"/>
<path id="Vector_5" d="M8.71304 34.901H37.2879C37.7125 33.6268 38.7219 32.6175 39.9961 32.1928V23.9677H30.3329C29.7688 27.5069 26.6961 30.2207 23.0004 30.2207C19.3048 30.2207 16.2322 27.5069 15.668 23.9677H6.00488V32.1928C7.27905 32.6175 8.28853 33.6269 8.71304 34.901Z" fill="#7781A4"/>
<path id="Vector_6" d="M6.10059 7.2623V15.3315H39.8985V7.2623C39.8985 5.9168 38.8039 4.82214 37.4584 4.82214H8.54074C7.19524 4.82205 6.10059 5.91671 6.10059 7.2623Z" fill="#7781A4"/>
<path id="Vector_7" d="M0 15.3315H3.40571V7.26236C3.40571 6.48242 3.58126 5.74301 3.89365 5.08032C1.63911 5.79332 0 7.90456 0 10.3919L0 15.3315Z" fill="#7781A4"/>
<path id="Vector_8" d="M30.4258 18.0267H45.9999V21.2723H30.4258V18.0267Z" fill="#7781A4"/>
</g>
</g>
<defs>
<clipPath id="clip0_45_8121">
<rect width="46" height="46" fill="white"/>
</clipPath>
</defs>
</svg>
