<svg width="410" height="228" viewBox="0 0 410 228" fill="none" xmlns="http://www.w3.org/2000/svg">
<path d="M0.5 47C0.5 21.3188 21.3188 0.5 47 0.5H363C388.681 0.5 409.5 21.3188 409.5 47V226.624C409.498 226.623 409.495 226.622 409.493 226.621C409.024 226.411 408.332 226.104 407.438 225.713C405.649 224.931 403.049 223.815 399.804 222.475C393.316 219.796 384.246 216.223 373.924 212.65C353.297 205.511 327.604 198.348 307.5 198.348C288.56 198.348 273.509 205.924 258.813 213.321C257.871 213.796 256.93 214.269 255.989 214.74C240.361 222.565 224.867 229.632 205.068 226.903C186.944 224.404 172.512 218.375 158.408 212.483C156.879 211.844 155.353 211.207 153.827 210.576C138.236 204.128 122.618 198.348 102.5 198.348C82.3957 198.348 56.7025 205.511 36.0757 212.65C25.7536 216.223 16.6845 219.796 10.1958 222.475C6.95122 223.815 4.35143 224.931 2.56227 225.713C1.66768 226.104 0.975728 226.411 0.507139 226.621C0.504754 226.622 0.502374 226.623 0.5 226.624V47Z" fill="#222635" stroke="#2B2E3F"/>
</svg>
