<svg width="605" height="210" viewBox="0 0 605 210" fill="none" xmlns="http://www.w3.org/2000/svg">
<path d="M47 0.5H558C583.681 0.5 604.5 21.3188 604.5 47V208.785C604.378 208.751 604.24 208.712 604.085 208.669C603.394 208.476 602.374 208.193 601.055 207.833C598.417 207.114 594.583 206.086 589.798 204.852C580.228 202.386 566.853 199.097 551.631 195.809C521.196 189.234 483.34 182.649 453.75 182.649C425.905 182.649 403.774 189.602 382.073 196.42C380.688 196.855 379.304 197.289 377.921 197.722C354.865 204.927 331.899 211.474 302.543 208.947C275.743 206.641 254.4 201.076 233.592 195.65C231.335 195.061 229.083 194.474 226.832 193.893C203.831 187.956 180.848 182.649 151.25 182.649C121.66 182.649 83.8038 189.234 53.3694 195.809C38.1469 199.097 24.7716 202.386 15.2018 204.852C10.4167 206.086 6.58281 207.114 3.94478 207.833C2.62576 208.193 1.6057 208.476 0.915182 208.669C0.760037 208.712 0.621527 208.751 0.5 208.785V47C0.5 21.3188 21.3188 0.5 47 0.5Z" fill="#222635" stroke="#2B2E3F"/>
</svg>
