<svg width="62" height="62" viewBox="0 0 62 62" fill="none" xmlns="http://www.w3.org/2000/svg">
<g id="add-friend 1" clip-path="url(#clip0_57_585)">
<g id="XMLID_1270_">
<path id="XMLID_1271_" d="M35.7539 27.8427C37.169 29.1733 38.4016 30.6953 39.4448 32.4061C42.0821 30.7536 45.1974 29.7965 48.5326 29.7965C49.9453 29.7965 51.318 29.9693 52.6324 30.2925C50.5192 27.5266 47.9737 25.4787 44.7546 23.9624C42.3409 26.1645 39.2078 27.5905 35.7539 27.8427Z" fill="#CAA762"/>
<path id="XMLID_1273_" d="M31.3662 46.9618C31.3662 42.1706 33.3402 37.8324 36.5167 34.7154C34.7273 31.614 32.2852 29.2775 29.1128 27.6334C26.4988 29.4329 23.3346 30.4881 19.9282 30.4881C16.5317 30.4881 13.3759 29.4391 10.7663 27.6491C4.15682 31.2236 0 38.6627 0 47.2527V60.4303H37.9015C33.9234 57.2838 31.3662 52.416 31.3662 46.9618Z" fill="#CAA762"/>
<path id="XMLID_1274_" d="M36.1659 14.2503C36.1659 17.7284 35.0662 20.9543 33.197 23.5994L33.2912 24.1054C33.7407 24.1591 34.1948 24.1861 34.6498 24.1861C40.8852 24.1861 45.958 19.1133 45.958 12.8779C45.958 6.64243 40.8852 1.56958 34.6498 1.56958C33.3353 1.56958 32.0482 1.79511 30.834 2.23001C34.1074 5.20289 36.1659 9.49071 36.1659 14.2503Z" fill="#CAA762"/>
<path id="XMLID_1275_" d="M22.8106 26.4438C29.5497 24.8508 33.7214 18.0964 32.1284 11.3575C30.5354 4.61848 23.781 0.44684 17.042 2.03983C10.3029 3.63282 6.1312 10.3872 7.72418 17.1262C9.31715 23.8652 16.0716 28.0368 22.8106 26.4438Z" fill="#CAA762"/>
<path id="XMLID_1278_" d="M61.9992 46.9619C61.9992 39.5354 55.9573 33.4935 48.5308 33.4935C41.1044 33.4935 35.0625 39.5354 35.0625 46.9619C35.0625 54.3883 41.1044 60.4302 48.5308 60.4302C55.9573 60.4303 61.9992 54.3884 61.9992 46.9619ZM40.6861 48.8104V45.1133H46.6821V39.1173H50.3793V45.1133H56.3753V48.8104H50.3793V54.8066H46.6821V48.8104H40.6861Z" fill="#CAA762"/>
</g>
</g>
<defs>
<clipPath id="clip0_57_585">
<rect width="62" height="62" fill="white"/>
</clipPath>
</defs>
</svg>
