<svg width="62" height="62" viewBox="0 0 62 62" fill="none" xmlns="http://www.w3.org/2000/svg">
<g id="treasure-chest 1" clip-path="url(#clip0_57_571)">
<g id="Group">
<path id="Vector" d="M0 24.297H20.9912V28.6715H0V24.297Z" fill="#67CA62"/>
<path id="Vector_2" d="M56.752 6.84741C57.173 7.7406 57.4096 8.7372 57.4096 9.78842V20.6643H62V14.0066C62 10.654 59.7908 7.80841 56.752 6.84741Z" fill="#67CA62"/>
<path id="Vector_3" d="M57.5399 32.3043V46.7299H55.7235C54.5506 46.7299 53.5965 47.6841 53.5965 48.8569V50.6733H8.40354V48.8569C8.40354 47.684 7.44932 46.7299 6.27653 46.7299H4.46012V32.3043H0V55.5006H62V32.3043H57.5399Z" fill="#67CA62"/>
<path id="Vector_4" d="M31.0009 37.0996C34.5167 37.0996 37.3769 34.2394 37.3769 30.7237V24.2971H24.625V30.7237C24.625 34.2393 27.4852 37.0996 31.0009 37.0996ZM29.1563 28.001H32.7891V31.6338H29.1563V28.001Z" fill="#67CA62"/>
<path id="Vector_5" d="M11.7439 47.0406H50.2579C50.83 45.3232 52.1906 43.9627 53.908 43.3905V32.3043H40.8836C40.1234 37.0746 35.9819 40.7323 31.0008 40.7323C26.0197 40.7323 21.8783 37.0746 21.118 32.3043H8.09375V43.3905C9.8111 43.9627 11.1717 45.3234 11.7439 47.0406Z" fill="#67CA62"/>
<path id="Vector_6" d="M8.22266 9.78842V20.6643H53.7764V9.78842C53.7764 7.97492 52.301 6.49951 50.4875 6.49951H11.5116C9.69806 6.49939 8.22266 7.9748 8.22266 9.78842Z" fill="#67CA62"/>
<path id="Vector_7" d="M0 20.6642H4.5903V9.78842C4.5903 8.7372 4.82692 7.7406 5.24796 6.84741C2.20923 7.80841 0 10.654 0 14.0065L0 20.6642Z" fill="#67CA62"/>
<path id="Vector_8" d="M41.0078 24.297H61.999V28.6715H41.0078V24.297Z" fill="#67CA62"/>
</g>
</g>
<defs>
<clipPath id="clip0_57_571">
<rect width="62" height="62" fill="white"/>
</clipPath>
</defs>
</svg>
