<svg width="201" height="181" viewBox="0 0 201 181" fill="none" xmlns="http://www.w3.org/2000/svg">
<g id="Frame" clip-path="url(#clip0_57_1411)">
<g id="Group">
<g id="Group_2">
<path id="Vector" d="M1.78383 158.068C3.07545 157.884 4.42857 159.601 4.7361 161.931C5.10513 164.261 4.30556 166.284 3.01394 166.53C1.72233 166.714 0.369204 164.997 0.0616767 162.667C-0.245851 160.337 0.492215 158.252 1.78383 158.068Z" fill="#954A83"/>
<path id="Vector_2" d="M8.98019 173.458C9.59524 172.293 11.8094 172.293 13.9006 173.397C15.9918 174.501 17.1604 176.34 16.5454 177.505C15.9303 178.67 13.7161 178.67 11.6249 177.566C9.53374 176.463 8.36513 174.623 8.98019 173.458Z" fill="#954A83"/>
<path id="Vector_3" d="M28.5378 176.217C30.875 176.033 32.9047 176.953 32.9662 178.241C33.0892 179.528 31.2441 180.755 28.9069 180.938C26.5697 181.122 24.54 180.203 24.4785 178.915C24.3555 177.628 26.2006 176.401 28.5378 176.217Z" fill="#954A83"/>
<path id="Vector_4" d="M40.4096 108.771C40.4096 108.771 46.0681 118.153 43.1159 130.906C41.0247 140.042 33.029 158.497 20.3588 157.455C8.91881 156.535 13.6547 145.683 19.2517 146.051C19.6208 146.051 19.8053 145.621 19.4978 145.376C17.3451 144.089 13.1627 142.556 7.81171 145.56C-0.0609989 149.975 1.47664 161.195 3.3218 165.426C5.35149 170.086 12.4861 180.632 31.3683 178.609C52.9568 176.279 83.8325 131.826 83.8325 131.826L69.8708 125.633L40.4096 108.771Z" fill="#5C2095"/>
<path id="Vector_5" d="M83.7706 131.826L69.8088 125.633L40.3477 108.771C40.3477 108.771 46.0062 118.153 43.0539 130.906C41.9468 135.811 39.1176 143.353 34.8122 149.178C34.8122 149.178 48.0974 160.03 33.7051 178.241C55.109 173.09 83.7706 131.826 83.7706 131.826Z" fill="#4F227A"/>
<g id="Group_3">
<path id="Vector_6" d="M20.6048 174.685C20.5433 174.685 20.5433 174.685 20.4818 174.685C9.53381 173.765 6.028 164.138 5.84348 163.709C5.59746 162.973 5.96649 162.176 6.70456 161.931C7.44262 161.686 8.2422 162.054 8.48822 162.79C8.61123 163.157 11.625 171.128 20.7278 171.864C21.5274 171.925 22.0809 172.6 22.0194 173.397C21.9579 174.133 21.3429 174.685 20.6048 174.685Z" fill="#7533B4"/>
</g>
<path id="Vector_7" d="M25.8317 174.807C26.511 174.807 27.0618 174.258 27.0618 173.581C27.0618 172.904 26.511 172.354 25.8317 172.354C25.1523 172.354 24.6016 172.904 24.6016 173.581C24.6016 174.258 25.1523 174.807 25.8317 174.807Z" fill="#7533B4"/>
</g>
<g id="Group_4">
<path id="Vector_8" d="M196.202 161.931C196.571 159.601 197.863 157.884 199.155 158.068C200.446 158.252 201.246 160.276 200.877 162.667C200.508 164.997 199.216 166.714 197.924 166.53C196.633 166.346 195.895 164.261 196.202 161.931Z" fill="#954A83"/>
<path id="Vector_9" d="M187.1 173.397C189.191 172.293 191.405 172.293 192.02 173.458C192.635 174.623 191.466 176.463 189.375 177.566C187.284 178.67 185.07 178.67 184.455 177.505C183.84 176.34 185.008 174.501 187.1 173.397Z" fill="#954A83"/>
<path id="Vector_10" d="M167.972 178.302C168.095 177.015 170.063 176.095 172.401 176.279C174.738 176.463 176.583 177.689 176.46 178.977C176.337 180.264 174.369 181.184 172.032 181C169.694 180.816 167.911 179.59 167.972 178.302Z" fill="#954A83"/>
<path id="Vector_11" d="M160.591 108.771C160.591 108.771 154.932 118.153 157.885 130.906C159.976 140.042 167.972 158.497 180.642 157.455C192.082 156.535 187.346 145.683 181.749 146.051C181.38 146.051 181.195 145.621 181.503 145.376C183.655 144.089 187.838 142.556 193.189 145.56C201.061 149.975 199.524 161.195 197.679 165.426C195.649 170.086 188.514 180.632 169.632 178.609C148.044 176.279 117.168 131.826 117.168 131.826L131.13 125.633L160.591 108.771Z" fill="#5C2095"/>
<path id="Vector_12" d="M117.229 131.826L131.19 125.633L160.651 108.771C160.651 108.771 154.993 118.153 157.945 130.906C159.052 135.811 161.882 143.353 166.187 149.178C166.187 149.178 152.902 160.03 167.294 178.241C145.89 173.09 117.229 131.826 117.229 131.826Z" fill="#4F227A"/>
<g id="Group_5">
<path id="Vector_13" d="M180.396 174.684C180.457 174.684 180.457 174.684 180.519 174.684C191.467 173.765 194.973 164.138 195.157 163.77C195.403 163.035 195.034 162.237 194.296 161.992C193.558 161.747 192.758 162.115 192.512 162.851C192.389 163.218 189.376 171.189 180.273 171.925C179.473 171.986 178.92 172.661 178.981 173.458C179.043 174.132 179.658 174.684 180.396 174.684Z" fill="#7533B4"/>
</g>
<path id="Vector_14" d="M175.168 174.807C175.847 174.807 176.398 174.258 176.398 173.581C176.398 172.904 175.847 172.354 175.168 172.354C174.488 172.354 173.938 172.904 173.938 173.581C173.938 174.258 174.488 174.807 175.168 174.807Z" fill="#7533B4"/>
</g>
<g id="Group_6">
<path id="Vector_15" d="M100.5 159.663C144.727 159.663 180.58 123.921 180.58 79.8313C180.58 35.7417 144.727 0 100.5 0C56.273 0 20.4199 35.7417 20.4199 79.8313C20.4199 123.921 56.273 159.663 100.5 159.663Z" fill="#F5C12C"/>
<path id="Vector_16" d="M100.499 138.386C132.939 138.386 159.237 112.17 159.237 79.8311C159.237 47.4919 132.939 21.2759 100.499 21.2759C68.0595 21.2759 41.7617 47.4919 41.7617 79.8311C41.7617 112.17 68.0595 138.386 100.499 138.386Z" fill="#F3962C"/>
<path id="Vector_17" d="M103.207 134.401C70.7933 134.401 44.469 108.159 44.469 75.8459C44.469 64.4415 47.7903 53.7728 53.5103 44.6982C46.1911 54.4472 41.8242 66.6488 41.8242 79.7701C41.8242 112.083 68.1486 138.325 100.562 138.325C121.535 138.325 139.864 127.411 150.258 110.918C139.495 125.204 122.458 134.401 103.207 134.401Z" fill="#F7D78F"/>
<path id="Vector_18" d="M100.499 21.2759C88.075 21.2759 76.635 25.0774 67.2246 31.5767C75.7124 26.7329 85.5533 24.035 96.0092 24.035C128.423 24.035 154.747 50.2776 154.747 82.5902C154.747 102.579 144.66 120.237 129.345 130.783C147.182 120.728 159.237 101.659 159.237 79.7698C159.237 47.5184 132.912 21.2759 100.499 21.2759Z" fill="#EA8724"/>
<path id="Vector_19" d="M106.466 147.522C62.2436 147.522 26.3858 111.776 26.3858 67.691C26.3858 57.5128 28.2925 47.8252 31.7368 38.9346C24.5407 50.8909 20.5428 64.8092 20.4198 79.7086C19.9893 123.794 56.339 159.601 100.561 159.601C134.574 159.601 163.728 138.448 175.291 108.526C161.267 131.887 135.62 147.522 106.466 147.522Z" fill="#EAAA0A"/>
<path id="Vector_20" d="M147.408 24.5668C148.453 22.1763 142.61 17.3329 134.357 13.7488C126.104 10.1647 118.567 9.19711 117.522 11.5876C116.478 13.9781 122.321 18.8215 130.574 22.4056C138.826 25.9897 146.363 26.9573 147.408 24.5668Z" fill="#F7D78F"/>
</g>
<path id="Vector_21" d="M120.49 82.8972C117.968 80.0767 113.971 77.7468 108.497 75.9687C107.143 75.4781 105.421 75.0489 103.146 74.3745C102.9 74.3132 102.654 74.2519 102.469 74.1905C100.747 73.7 99.1477 73.2708 97.7331 72.7803C94.8423 71.7993 92.7512 70.8796 91.398 69.8985C90.3525 69.2241 89.5529 68.243 88.9378 67.0781C88.3843 65.9131 88.0767 64.6255 88.0767 63.2766C88.0767 60.4561 89.0608 58.1262 91.029 56.4094C92.6897 54.9378 94.9039 54.0794 97.6716 53.8955C98.1021 53.8342 98.5327 53.8342 99.0247 53.8342C100.439 53.8342 101.792 54.0181 103.146 54.3247C104.806 54.6926 106.467 55.3057 108.005 56.1641C110.772 57.7583 113.417 60.0269 115.877 63.1539L121.782 57.2678C118.706 53.5889 115.262 50.8911 111.449 49.1743C108.866 48.0093 106.159 47.2122 103.207 46.8443V39.8545H97.7946V46.5378C92.3821 46.6604 87.9537 48.3159 84.4479 51.3816C80.8191 54.6926 78.9739 58.9233 78.9739 64.135C78.9739 68.427 80.3271 72.0445 83.0333 74.9263C85.7395 77.8081 89.8604 80.138 95.3344 81.7935C95.9494 81.9775 96.8105 82.2227 97.7946 82.468C98.5942 82.7132 99.4553 83.0198 100.501 83.2651C101.423 83.5716 102.346 83.8169 103.207 84.1235C111.326 86.8213 115.324 90.4388 115.324 94.8535C115.324 98.1644 114.155 100.801 111.756 102.824C109.604 104.664 106.774 105.645 103.207 105.767C102.9 105.767 102.654 105.767 102.285 105.767C100.685 105.767 99.2092 105.583 97.7331 105.277C95.8264 104.848 93.9198 104.173 92.1976 103.192C89.1223 101.475 86.2931 98.8389 83.8329 95.344L76.6367 101.108C79.343 104.97 82.7258 107.975 87.0312 110.121C90.3524 111.715 93.9198 112.819 97.6716 113.125V120.544H103.084V113.248C109.173 112.941 114.155 111.224 117.907 108.036C122.089 104.48 124.18 99.8199 124.18 93.9338C124.242 89.4578 123.012 85.7176 120.49 82.8972Z" fill="#F7D78F"/>
<g id="Group_7">
<g id="Group_8">
<path id="Vector_22" d="M126.887 48.4995C127.809 47.3346 130.208 47.7638 132.238 49.3579C134.267 50.9521 135.251 53.2207 134.329 54.3244C133.406 55.4894 131.008 55.0602 128.978 53.466C126.887 51.8718 125.964 49.6032 126.887 48.4995Z" fill="#954A83"/>
<path id="Vector_23" d="M144.107 64.319C144.907 63.0927 147.306 63.2766 149.52 64.6869C151.734 66.0971 152.903 68.2431 152.103 69.4694C151.304 70.6957 148.905 70.5117 146.691 69.1015C144.476 67.6913 143.308 65.5453 144.107 64.319Z" fill="#954A83"/>
<path id="Vector_24" d="M163.298 74.2518C163.667 72.8416 166.005 72.2285 168.526 72.9029C171.048 73.5161 172.832 75.2329 172.463 76.5818C172.094 77.992 169.756 78.6052 167.235 77.9307C164.713 77.3176 162.929 75.6621 163.298 74.2518Z" fill="#954A83"/>
<g id="Group_9">
<path id="Vector_25" d="M168.341 29.4922C168.341 29.4922 198.663 32.5579 191.898 59.5975C184.824 87.8635 155.732 72.7188 148.475 66.8939C138.265 58.7391 128.301 45.1274 116.369 45.8631C115.877 45.9244 115.569 45.3113 115.938 44.9434C118.46 42.2456 126.456 35.9302 142.078 41.5711C161.452 48.561 170.678 41.3872 170.678 41.3872L168.341 29.4922Z" fill="#5C2095"/>
<path id="Vector_26" d="M168.342 29.4922C168.342 29.4922 198.664 32.5579 191.898 59.5975C191.406 61.6209 190.791 63.399 190.053 64.9932C192.636 46.6602 170.617 41.3872 170.617 41.3872L168.342 29.4922Z" fill="#4F227A"/>
</g>
</g>
<path id="Vector_27" d="M162.312 29.0628C162.312 29.0628 168.094 28.0204 179.288 32.5577L170.677 41.3257C170.616 41.3257 168.217 36.3592 162.312 29.0628Z" fill="#4F227A"/>
</g>
<g id="Group_10">
<g id="Group_11">
<path id="Vector_28" d="M68.7648 49.3579C70.7944 47.7638 73.1932 47.3346 74.1157 48.4995C75.0383 49.6645 74.1157 51.8718 72.0245 53.466C69.9949 55.0602 67.5961 55.4894 66.6736 54.3244C65.8125 53.2207 66.7351 51.0134 68.7648 49.3579Z" fill="#954A83"/>
<path id="Vector_29" d="M54.3199 69.0968C56.5203 67.6875 57.6642 65.5519 56.8747 64.3269C56.0852 63.1019 53.6614 63.2513 51.4609 64.6606C49.2604 66.0699 48.1166 68.2055 48.906 69.4305C49.6955 70.6555 52.1194 70.5061 54.3199 69.0968Z" fill="#954A83"/>
<path id="Vector_30" d="M33.8083 77.9663C36.3434 77.3244 38.1069 75.6599 37.7473 74.2487C37.3877 72.8374 35.0411 72.2138 32.5061 72.8557C29.9711 73.4977 28.2075 75.1621 28.5672 76.5734C28.9268 77.9846 31.2733 78.6083 33.8083 77.9663Z" fill="#954A83"/>
<g id="Group_12">
<path id="Vector_31" d="M32.6602 29.4922C32.6602 29.4922 2.338 32.5579 9.10361 59.5975C16.1767 87.8635 45.2689 72.7188 52.5265 66.8939C62.7364 58.7391 72.7003 45.1274 84.6324 45.8631C85.1244 45.9244 85.4319 45.3113 85.0629 44.9434C82.5412 42.2456 74.5455 35.9302 58.9231 41.5711C39.5488 48.561 30.323 41.3872 30.323 41.3872L32.6602 29.4922Z" fill="#5C2095"/>
<path id="Vector_32" d="M32.6602 29.4922C32.6602 29.4922 2.338 32.5579 9.10361 59.5975C9.59565 61.6209 10.2107 63.399 10.9488 64.9932C8.36554 46.6602 30.3845 41.3872 30.3845 41.3872L32.6602 29.4922Z" fill="#4F227A"/>
</g>
</g>
<path id="Vector_33" d="M38.6884 29.0628C38.6884 29.0628 32.9069 28.0204 21.7129 32.5577L30.3237 41.3257C30.3852 41.3257 32.7839 36.4818 38.6884 29.0628Z" fill="#4F227A"/>
</g>
<g id="Group_13">
<path id="Vector_34" d="M158.746 128.76C158.869 127.411 160.776 126.553 162.99 126.737C165.204 126.982 166.926 128.208 166.742 129.496C166.619 130.845 164.712 131.703 162.498 131.519C160.284 131.335 158.561 130.048 158.746 128.76Z" fill="#954A83"/>
<path id="Vector_35" d="M144.168 122.506C144.598 121.28 146.689 120.912 148.781 121.709C150.872 122.506 152.225 124.1 151.733 125.326C151.302 126.553 149.211 126.921 147.12 126.123C145.029 125.326 143.676 123.732 144.168 122.506Z" fill="#954A83"/>
<path id="Vector_36" d="M130.944 115.945C131.374 114.719 133.466 114.351 135.557 115.148C137.648 115.945 139.001 117.54 138.509 118.766C138.079 119.992 135.987 120.36 133.896 119.563C131.805 118.827 130.513 117.172 130.944 115.945Z" fill="#954A83"/>
<g id="Group_14">
<path id="Vector_37" d="M180.58 77.1948C180.58 77.1948 198.601 98.4709 186.607 116.927C174.614 135.443 157.884 131.09 139.802 119.563C125.471 110.427 118.828 119.134 116.614 123.119C116.368 123.61 115.691 123.365 115.691 122.874C115.691 116.988 117.475 100.617 136.972 99.4519C159.237 98.103 165.572 104.664 179.719 93.0139L180.58 77.1948Z" fill="#5C2095"/>
</g>
<path id="Vector_38" d="M179.473 93.0139C176.583 95.4052 174.245 97.0607 171.785 98.103C172.769 98.2256 184.086 93.1979 186.116 103.621C188.084 113.738 181.934 122.506 181.565 123.119C183.287 121.402 185.132 119.44 186.608 116.927C200.139 93.6884 180.58 77.1948 180.58 77.1948L179.473 93.0139Z" fill="#4F227A"/>
</g>
<g id="Group_15">
<path id="Vector_39" d="M38.0708 126.737C40.2849 126.492 42.1916 127.411 42.3146 128.76C42.4376 130.109 40.777 131.335 38.5628 131.519C36.3486 131.765 34.4419 130.845 34.3189 129.496C34.1959 128.208 35.8566 126.982 38.0708 126.737Z" fill="#954A83"/>
<path id="Vector_40" d="M52.2793 121.648C54.3705 120.851 56.4617 121.219 56.8922 122.445C57.3227 123.671 56.0311 125.327 53.9399 126.062C51.8487 126.86 49.7576 126.492 49.327 125.265C48.835 124.039 50.1266 122.445 52.2793 121.648Z" fill="#954A83"/>
<path id="Vector_41" d="M65.4421 115.148C67.5333 114.351 69.6245 114.719 70.0551 115.945C70.4856 117.172 69.194 118.827 67.1028 119.563C65.0116 120.36 62.9204 119.992 62.4899 118.766C61.9978 117.54 63.351 115.884 65.4421 115.148Z" fill="#954A83"/>
<g id="Group_16">
<path id="Vector_42" d="M20.4815 77.1948C20.4815 77.1948 2.46035 98.4709 14.4539 116.927C26.4475 135.382 43.177 131.09 61.2596 119.563C75.5904 110.427 82.233 119.134 84.4472 123.119C84.6932 123.61 85.3698 123.365 85.3698 122.874C85.3698 116.988 83.5861 100.617 64.0889 99.4519C41.8239 98.103 35.4888 104.664 21.3425 93.0139L20.4815 77.1948Z" fill="#5C2095"/>
</g>
<path id="Vector_43" d="M21.5878 93.0139C24.4786 95.4052 26.8158 97.0607 29.276 98.103C28.2919 98.2256 16.9749 93.1979 14.9452 103.621C12.977 113.738 19.1276 122.506 19.4966 123.119C17.7745 121.402 15.9293 119.44 14.4532 116.927C0.92196 93.6884 20.4807 77.1948 20.4807 77.1948L21.5878 93.0139Z" fill="#4F227A"/>
</g>
</g>
</g>
<defs>
<clipPath id="clip0_57_1411">
<rect width="201" height="181" fill="white"/>
</clipPath>
</defs>
</svg>
