<svg width="62" height="62" viewBox="0 0 62 62" fill="none" xmlns="http://www.w3.org/2000/svg">
<g id="money (1) 1" clip-path="url(#clip0_57_596)">
<g id="Group">
<path id="Vector" d="M25.5251 21.341C26.5067 21.6871 27.5182 21.174 27.8541 20.2554C28.1936 19.3173 27.7194 18.2741 26.7685 17.9264C25.7978 17.5803 24.7781 18.086 24.4395 19.012C24.1001 19.9501 24.5744 20.9931 25.5251 21.341Z" fill="#7162CA"/>
<path id="Vector_2" d="M31.9757 26.6767C38.209 26.5082 44.3322 24.2803 49.2191 20.4026C49.8439 19.9077 50.5819 19.6201 51.3477 19.4352L52.0643 17.4669C52.3322 16.7326 52.0998 15.9095 51.4861 15.4235C45.3787 10.5773 37.7211 7.7907 29.9251 7.576C23.1066 7.38976 16.6249 5.00167 11.1793 0.902401L10.5195 0.391507C10.0635 0.0313738 9.46232 -0.0892356 8.89814 0.0686706C8.33578 0.228272 7.88531 0.646893 7.6866 1.19508L0.110006 21.7986C-0.157853 22.5329 0.0745258 23.356 0.686534 23.842C4.97216 27.2419 10.1449 29.601 15.4657 30.7973C20.5959 28.2819 26.2453 26.8343 31.9757 26.6767ZM34.6817 22.7394C35.0248 21.7965 36.0672 21.3106 37.0098 21.6535C37.9526 21.9967 38.4386 23.0391 38.0954 23.9817C37.7524 24.9245 36.7101 25.4104 35.7673 25.0673C34.8247 24.7243 34.3386 23.6819 34.6817 22.7394ZM21.0276 17.7703C22.0546 14.9481 25.1926 13.4865 28.0112 14.5135C30.8351 15.5405 32.2968 18.6748 31.268 21.4971C30.2421 24.319 27.1057 25.7841 24.2844 24.7539C21.458 23.7237 19.9941 20.6059 21.0276 17.7703ZM14.1994 15.2845C14.5424 14.3416 15.5847 13.8557 16.5275 14.1989C17.4701 14.5419 17.9561 15.5842 17.6131 16.5268C17.27 17.4696 16.2276 17.9555 15.285 17.6124C14.3423 17.2693 13.8562 16.2271 14.1994 15.2845Z" fill="#7162CA"/>
<path id="Vector_3" d="M17.3915 60.804C17.5902 61.3539 18.0425 61.7725 18.6031 61.9304C19.1804 62.0936 19.7805 61.9608 20.2279 61.6057C25.7251 57.2438 32.6164 54.6146 39.6301 54.4231C47.4262 54.2085 55.2049 51.4218 61.3139 46.5756C61.9259 46.0895 62.1583 45.2664 61.8904 44.5321L54.314 24.0497C54.1153 23.4998 53.663 23.0812 53.1024 22.9233C52.5384 22.7637 51.937 22.8843 51.4776 23.248C45.9804 27.6099 39.0891 30.118 32.0753 30.3078C24.2812 30.5224 16.6234 33.3092 10.5144 38.157C9.90066 38.6431 9.66828 39.4662 9.93614 40.2005L17.3915 60.804ZM45.4729 36.9314C46.4158 36.5884 47.458 37.0744 47.8011 38.017C48.1442 38.9599 47.6583 40.0021 46.7155 40.3452C45.7729 40.6882 44.7305 40.2022 44.3873 39.2596C44.0443 38.3167 44.5303 37.2746 45.4729 36.9314ZM33.9894 37.2452C36.8133 36.2182 39.9477 37.6798 40.973 40.502C42.0018 43.3242 40.5402 46.4585 37.7161 47.4856C34.9024 48.5109 31.7701 47.0755 30.7325 44.2288C29.7037 41.4066 31.1653 38.2722 33.9894 37.2452ZM24.9906 44.3864C25.9332 44.0434 26.9756 44.5295 27.3188 45.4721C27.6618 46.4149 27.1758 47.4571 26.2332 47.8002C25.2903 48.1433 24.2481 47.6572 23.905 46.7146C23.5619 45.7718 24.0479 44.7294 24.9906 44.3864Z" fill="#7162CA"/>
<path id="Vector_4" d="M36.4736 44.0726C37.4255 43.7245 37.8983 42.6806 37.5592 41.7436C37.2206 40.8181 36.2014 40.3117 35.2302 40.658C34.2783 41.0062 33.8055 42.0499 34.1446 42.987C34.4861 43.9205 35.5191 44.4203 36.4736 44.0726Z" fill="#7162CA"/>
</g>
</g>
<defs>
<clipPath id="clip0_57_596">
<rect width="62" height="62" fill="white"/>
</clipPath>
</defs>
</svg>
