<svg width="19" height="25" viewBox="0 0 19 25" fill="none" xmlns="http://www.w3.org/2000/svg">
<g id="Group">
<path id="Vector" d="M17.9372 13.1522C17.3582 12.4035 16.4845 11.8892 15.3161 11.6097C16.8039 10.8508 17.4578 9.56265 17.2783 7.74515C17.2183 7.08609 17.0361 6.5149 16.7314 6.03074C16.4265 5.54648 16.0151 5.15717 15.4955 4.86265C14.9764 4.56777 14.4117 4.3433 13.8029 4.18854C13.194 4.03378 12.4948 3.92141 11.706 3.85158V0.0771484H9.39961V3.74671C9.00023 3.74671 8.39116 3.75668 7.57246 3.77667V0.0771484H5.26577V3.85158C4.93616 3.8616 4.45195 3.86669 3.81292 3.86669L0.637695 3.85158V6.308H2.30012C3.05901 6.308 3.50335 6.64757 3.63314 7.32647V11.6252C3.73313 11.6252 3.81292 11.6303 3.87289 11.6403H3.63314V17.6611C3.55335 18.1703 3.26382 18.4251 2.7645 18.4251H1.10218L0.6378 21.1661H3.6334C3.82315 21.1661 4.09758 21.1686 4.45719 21.1731C4.8166 21.1782 5.08609 21.1807 5.26587 21.1807V25H7.57293V21.2256C7.9922 21.2358 8.60126 21.2407 9.40008 21.2407V25H11.7065V21.1807C12.5255 21.1408 13.2518 21.0663 13.8856 20.9561C14.5197 20.8459 15.1265 20.6739 15.7055 20.4391C16.2844 20.2046 16.7686 19.9123 17.158 19.5628C17.5476 19.2137 17.8693 18.7691 18.1244 18.2298C18.3786 17.6905 18.5411 17.0665 18.6107 16.3573C18.7411 14.9698 18.5163 13.9012 17.9372 13.1522ZM7.61731 6.4723C7.68724 6.4723 7.88444 6.46978 8.20896 6.46475C8.53364 6.45961 8.80313 6.45468 9.0178 6.44964C9.23252 6.44471 9.52211 6.45719 9.88671 6.48715C10.2512 6.5171 10.5581 6.55713 10.8077 6.60697C11.0573 6.65681 11.3321 6.73922 11.6314 6.85406C11.9312 6.96879 12.1707 7.10865 12.3502 7.27338C12.5301 7.4381 12.6823 7.64789 12.8069 7.90254C12.9319 8.15713 12.9943 8.44917 12.9943 8.77863C12.9943 9.05824 12.9495 9.31294 12.8597 9.54272C12.7701 9.77234 12.635 9.9646 12.4554 10.1194C12.2759 10.2742 12.0908 10.4091 11.901 10.5238C11.7115 10.6386 11.4691 10.731 11.1747 10.8008C10.8803 10.8708 10.6231 10.9257 10.4036 10.9656C10.1839 11.0055 9.90937 11.0331 9.57981 11.048C9.2502 11.0629 9.00049 11.073 8.83083 11.078C8.66102 11.0829 8.42893 11.0829 8.13426 11.078C7.83954 11.073 7.66752 11.0704 7.61747 11.0704V6.47225L7.61731 6.4723ZM13.9157 16.6721C13.8206 16.9018 13.6985 17.1017 13.5488 17.2715C13.3989 17.441 13.2016 17.5909 12.9571 17.7205C12.7126 17.8505 12.4752 17.9552 12.2458 18.0351C12.016 18.1153 11.7388 18.1848 11.4146 18.2449C11.0896 18.3049 10.8052 18.3471 10.5604 18.3722C10.3158 18.3972 10.0239 18.4171 9.68426 18.4322C9.34489 18.4469 9.08012 18.4545 8.89048 18.4545C8.70073 18.4545 8.46104 18.4518 8.17145 18.4469C7.88171 18.4422 7.69716 18.4397 7.61721 18.4397V13.377C7.697 13.377 7.93418 13.3721 8.32868 13.3619C8.72324 13.3519 9.04508 13.3472 9.29474 13.3472C9.54435 13.3472 9.88896 13.362 10.3285 13.3921C10.7676 13.4219 11.1371 13.4666 11.4369 13.5265C11.7363 13.5865 12.0631 13.6788 12.4178 13.8037C12.7722 13.9285 13.0594 14.0807 13.2792 14.2604C13.4989 14.4405 13.6835 14.6698 13.8332 14.9495C13.9833 15.229 14.0582 15.5486 14.0582 15.9081C14.0581 16.188 14.0107 16.4422 13.9157 16.6721Z" fill="#7781A4"/>
</g>
</svg>
