<svg width="22" height="21" viewBox="0 0 22 21" fill="none" xmlns="http://www.w3.org/2000/svg">
<path id="Vector" d="M13.2891 6.98628V4.27625H19.2115V0H2.77185V4.27625H8.71093V6.98628C3.73534 7.2354 0 8.27522 0 9.52084C0 10.7665 3.73118 11.7998 8.71093 12.0554V21H13.2891V12.0554C18.2647 11.8084 22 10.7686 22 9.52084C22 8.27305 18.2688 7.2354 13.2891 6.98628ZM11 11.2452C5.61237 11.2452 1.24442 10.3787 1.24442 9.33454C1.24442 8.43553 4.42622 7.68166 8.70677 7.48019V10.5412C9.44344 10.5758 10.2092 10.5953 10.9958 10.5953C11.7824 10.5953 12.5524 10.5758 13.2849 10.5412V7.48019C17.5655 7.68166 20.7473 8.43553 20.7473 9.33454C20.7556 10.3895 16.3876 11.2452 11 11.2452Z" fill="white"/>
</svg>
