<svg width="74" height="42" viewBox="0 0 74 42" fill="none" xmlns="http://www.w3.org/2000/svg">
<ellipse cx="5.14579" cy="28.5068" rx="4.14579" ry="1.20362" fill="#31384F" stroke="#3C4666" stroke-width="2"/>
<ellipse cx="68.2688" cy="28.5068" rx="4.14579" ry="1.20362" fill="#31384F" stroke="#3C4666" stroke-width="2"/>
<ellipse cx="20.6536" cy="39.6411" rx="4.14579" ry="1.20362" fill="#31384F" stroke="#212434" stroke-width="2"/>
<ellipse cx="50.3489" cy="39.4731" rx="4.14579" ry="1.20362" fill="#31384F" stroke="#3C4666" stroke-width="2"/>
<ellipse cx="53.0233" cy="26.0997" rx="2.80844" ry="0.936145" fill="#31384F" stroke="#3C4666" stroke-width="2"/>
<ellipse cx="19.5897" cy="25.8321" rx="2.80844" ry="0.936145" fill="#31384F" stroke="#3C4666" stroke-width="2"/>
<ellipse cx="36.1728" cy="29.3094" rx="14.5771" ry="2.2735" fill="#31384F" stroke="#3C4666" stroke-width="2"/>
<path d="M36.0774 30.9142C25.6995 31.2351 23.1942 29.6214 23.2388 28.7744C24.3087 28.2395 24.1749 26.9021 23.2388 25.2973C22.4899 24.0134 23.5508 22.1768 24.1749 21.419C23.2834 19.9033 21.741 15.8021 22.7039 11.5226C24.2017 3.71246 32.2436 1.22499 36.0774 0.95752V30.9142Z" fill="#5C2095"/>
<path d="M36.0774 30.9142C46.4552 31.2351 48.9605 29.6214 48.9159 28.7744C47.846 28.2395 47.9798 26.9021 48.9159 25.2973C49.6648 24.0134 48.6039 22.1768 47.9798 21.419C48.8713 19.9033 50.4137 15.8021 49.4508 11.5226C47.953 3.71246 39.9111 1.22499 36.0774 0.95752V30.9142Z" fill="#5C2095"/>
<mask id="mask0_20_9848" style="mask-type:alpha" maskUnits="userSpaceOnUse" x="22" y="0" width="28" height="31">
<path d="M36.0774 30.9142C25.6995 31.2351 23.1942 29.6214 23.2388 28.7744C24.3087 28.2395 24.1749 26.9021 23.2388 25.2973C22.4899 24.0134 23.5508 22.1768 24.1749 21.419C23.2834 19.9033 21.741 15.8021 22.7039 11.5226C24.2017 3.71246 32.2436 1.22499 36.0774 0.95752V30.9142Z" fill="#5C2095"/>
<path d="M36.0774 30.9142C46.4552 31.2351 48.9605 29.6214 48.9159 28.7744C47.846 28.2395 47.9798 26.9021 48.9159 25.2973C49.6648 24.0134 48.6039 22.1768 47.9798 21.419C48.8713 19.9033 50.4137 15.8021 49.4508 11.5226C47.953 3.71246 39.9111 1.22499 36.0774 0.95752V30.9142Z" fill="#5C2095"/>
</mask>
<g mask="url(#mask0_20_9848)">
<circle cx="28.4174" cy="4.96962" r="1.47109" fill="#954A83"/>
<circle cx="31.359" cy="6.03942" r="0.936145" fill="#954A83"/>
<circle cx="27.3463" cy="7.64415" r="0.936145" fill="#954A83"/>
<circle cx="0.401205" cy="0.401205" r="0.401205" transform="matrix(-1 0 0 1 30.1553 6.70801)" fill="#954A83"/>
<circle cx="0.133735" cy="0.133735" r="0.133735" transform="matrix(-1 0 0 1 31.4922 4.56836)" fill="#954A83"/>
<circle cx="0.133735" cy="0.133735" r="0.133735" transform="matrix(-1 0 0 1 31.4922 3.49854)" fill="#954A83"/>
<circle cx="0.401205" cy="0.401205" r="0.401205" transform="matrix(-1 0 0 1 26.6777 9.11548)" fill="#954A83"/>
<circle cx="0.401205" cy="0.401205" r="0.401205" transform="matrix(-1 0 0 1 28.8184 8.58032)" fill="#954A83"/>
<path d="M47.4069 10.4528C35.3172 4.35445 27.0346 9.69494 24.4045 13.1275C23.2454 15.1781 20.7401 20.8574 19.9912 27.1696C19.2423 33.4819 39.2045 33.0094 49.2792 31.9841C53.6924 27.348 59.4965 16.5511 47.4069 10.4528Z" fill="#58218C"/>
<path d="M25.876 31.3154C29.3977 29.666 38.4471 27.4371 46.4712 31.7166C46.0432 32.1445 32.5627 31.6274 25.876 31.3154Z" fill="#5E2A8E"/>
<path d="M45.8014 17.5406C38.5262 20.4293 27.8809 16.337 23.4677 13.9298L23.2002 13.6623C21.952 13.5731 19.8033 14.5717 21.1942 19.2792C22.585 23.9866 38.8026 24.3611 46.7376 23.9599C49.4568 20.6165 53.0766 14.6519 45.8014 17.5406Z" fill="#542481"/>
<path d="M32.0268 0.690077C28.5943 3.14189 22.7189 9.38285 26.6774 14.7323C28.0148 16.6045 25.3401 17.6744 27.0786 19.1455C28.316 20.1925 29.0114 21.5782 30.7078 22.6277C31.6994 22.9848 32.6209 23.3611 33.3642 23.6925C32.2461 23.4226 31.3948 23.0527 30.7078 22.6277C27.2983 21.3998 23.061 20.398 22.3979 22.2214C21.542 24.5752 21.1497 14.3756 21.0605 8.98165C23.0666 6.52984 27.1589 1.62622 27.4798 1.62622C27.8008 1.62622 30.4666 0.823813 31.7593 0.422607L32.0268 0.690077Z" fill="#4F227A"/>
<path d="M40.0513 0.823867C43.4838 3.27568 49.3593 9.51664 45.4007 14.866C44.0634 16.7383 46.7381 17.8082 44.9995 19.2793C43.7621 20.3263 43.0667 21.712 41.3704 22.7615C40.3788 23.1186 39.4572 23.4948 38.714 23.8263C39.832 23.5564 40.6833 23.1865 41.3704 22.7615C44.7798 21.5335 49.0172 20.5318 49.6802 22.3552C50.5361 24.7089 50.9284 14.5094 51.0176 9.11544C49.0116 6.66363 44.9193 1.76001 44.5983 1.76001C44.2773 1.76001 41.6115 0.957602 40.3188 0.556396L40.0513 0.823867Z" fill="#4F227A"/>
<circle cx="0.401205" cy="0.401205" r="0.401205" transform="matrix(-1 0 0 1 31.2246 8.31299)" fill="#954A83"/>
<circle cx="0.401205" cy="0.401205" r="0.401205" transform="matrix(-1 0 0 1 30.4229 2.96362)" fill="#954A83"/>
<circle cx="0.668675" cy="0.668675" r="0.668675" transform="matrix(-1 0 0 1 30.957 9.65015)" fill="#954A83"/>
<circle cx="0.668675" cy="0.668675" r="0.668675" transform="matrix(-1 0 0 1 31.4922 1.35864)" fill="#954A83"/>
<circle cx="0.668675" cy="0.668675" r="0.668675" transform="matrix(-1 0 0 1 28.0156 10.1853)" fill="#954A83"/>
<circle cx="0.133735" cy="0.133735" r="0.133735" transform="matrix(-1 0 0 1 26.1426 10.4526)" fill="#954A83"/>
<circle cx="0.133735" cy="0.133735" r="0.133735" transform="matrix(-1 0 0 1 30.6895 4.56836)" fill="#954A83"/>
<circle cx="0.133735" cy="0.133735" r="0.133735" transform="matrix(-1 0 0 1 26.1426 11.79)" fill="#954A83"/>
</g>
<path d="M24.8061 19.5466C24.8061 19.5466 32.429 23.6924 36.0399 23.6924V27.8382C29.3531 27.5707 25.4748 29.7105 25.4748 29.7105C25.4748 29.7105 24.279 26.759 24.1375 24.7623C23.9923 22.7139 24.8061 19.5466 24.8061 19.5466Z" fill="#3E304A"/>
<path d="M47.2736 19.5466C47.2736 19.5466 40.0519 23.9599 36.0399 23.6924V27.8382C42.7266 27.5707 46.6049 29.7105 46.6049 29.7105C46.6049 29.7105 47.8008 26.759 47.9423 24.7623C48.0875 22.7139 47.2736 19.5466 47.2736 19.5466Z" fill="#3E304A"/>
<mask id="mask1_20_9848" style="mask-type:alpha" maskUnits="userSpaceOnUse" x="24" y="19" width="24" height="11">
<path d="M24.8061 19.5466C24.8061 19.5466 32.429 23.6924 36.0399 23.6924V27.8382C29.3531 27.5707 25.4748 29.7105 25.4748 29.7105C25.4748 29.7105 24.279 26.759 24.1375 24.7623C23.9923 22.7139 24.8061 19.5466 24.8061 19.5466Z" fill="#3E304A"/>
<path d="M47.2736 19.5466C47.2736 19.5466 40.0519 23.9599 36.0399 23.6924V27.8382C42.7266 27.5707 46.6049 29.7105 46.6049 29.7105C46.6049 29.7105 47.8008 26.759 47.9423 24.7623C48.0875 22.7139 47.2736 19.5466 47.2736 19.5466Z" fill="#3E304A"/>
</mask>
<g mask="url(#mask1_20_9848)">
<path d="M28.4168 23.0237C25.9561 22.0608 24.271 23.8707 23.7361 24.896L23.6023 25.0297L23.0674 23.9598L24.4047 18.2092L36.1734 22.7562V26.7683C36.1734 26.7683 40.4529 26.0996 35.7722 26.7683C31.0915 27.4369 31.4927 24.2273 28.4168 23.0237Z" fill="#3A2A47"/>
<path d="M43.7963 23.0237C46.257 22.0608 47.9421 23.8707 48.477 24.896L48.6108 25.0297L49.1457 23.9598L47.8084 18.2092L36.0397 22.7562V26.7683C36.0397 26.7683 31.7602 26.0996 36.4409 26.7683C41.1216 27.4369 40.7204 24.2273 43.7963 23.0237Z" fill="#3A2A47"/>
</g>
<path d="M31.3355 26.4897C30.6092 24.7726 28.4216 21.7941 25.4813 23.6161C25.5709 25.099 26.8671 27.7498 31.3355 26.4897Z" fill="#372B41"/>
<path d="M30.8211 26.1822C30.2258 24.8062 28.4229 22.4233 25.9737 23.9C26.0415 25.0908 27.1058 27.2144 30.8211 26.1822Z" fill="#C09808"/>
<path d="M40.8647 26.4897C41.591 24.7726 43.7786 21.7941 46.7189 23.6161C46.6293 25.099 45.3331 27.7498 40.8647 26.4897Z" fill="#372B41"/>
<path d="M41.3791 26.1822C41.9744 24.8062 43.7773 22.4233 46.2265 23.9C46.1587 25.0908 45.0944 27.2144 41.3791 26.1822Z" fill="#C09808"/>
<path d="M31.3355 26.7824C30.6092 25.0654 28.4216 22.0868 25.4813 23.9089C25.5709 25.3917 26.8671 28.0425 31.3355 26.7824Z" fill="#302639"/>
<path d="M30.8211 26.475C30.2258 25.0989 28.4229 22.716 25.9737 24.1928C26.0415 25.3836 27.1058 27.5071 30.8211 26.475Z" fill="#120F02"/>
<path d="M40.8647 26.7824C41.591 25.0654 43.7786 22.0868 46.7189 23.9089C46.6293 25.3917 45.3331 28.0425 40.8647 26.7824Z" fill="#302639"/>
<path d="M41.3791 26.475C41.9744 25.0989 43.7773 22.716 46.2265 24.1928C46.1587 25.3836 45.0944 27.5071 41.3791 26.475Z" fill="#120F02"/>
<path d="M31.3355 26.4897C30.6092 24.7726 28.4216 21.7941 25.4813 23.6161C25.5709 25.099 26.8671 27.7498 31.3355 26.4897Z" fill="#372B41"/>
<path d="M30.8211 26.1822C30.2258 24.8062 28.4229 22.4233 25.9737 23.9C26.0415 25.0908 27.1058 27.2144 30.8211 26.1822Z" fill="#C09808"/>
<path d="M40.8647 26.4897C41.591 24.7726 43.7786 21.7941 46.7189 23.6161C46.6293 25.099 45.3331 27.7498 40.8647 26.4897Z" fill="#372B41"/>
<path d="M41.3791 26.1822C41.9744 24.8062 43.7773 22.4233 46.2265 23.9C46.1587 25.0908 45.0944 27.2144 41.3791 26.1822Z" fill="#C09808"/>
<path d="M21.2059 25.971C19.6405 26.6598 18.1533 26.258 17.6054 25.971C17.7359 25.4753 18.623 24.9535 18.3099 23.3098C18.0825 22.1161 12.6038 19.1297 13.3787 15.9522C14.1615 12.7431 18.936 13.291 19.2491 15.2478C19.4996 16.8132 18.362 17.309 17.762 17.3611C18.7012 16.5873 18.7795 14.4651 16.8227 15.0913C14.318 16.4219 17.0575 18.6135 19.6405 20.4137C22.2234 22.214 21.2842 25.8927 21.2059 25.971Z" fill="#431D67"/>
<mask id="mask2_20_9848" style="mask-type:alpha" maskUnits="userSpaceOnUse" x="13" y="13" width="9" height="14">
<path d="M21.2059 25.971C19.6405 26.6598 18.1533 26.258 17.6054 25.971C17.7359 25.4753 18.623 24.9535 18.3099 23.3098C18.0825 22.1161 12.6038 19.1297 13.3787 15.9522C14.1615 12.7431 18.936 13.291 19.2491 15.2478C19.4996 16.8132 18.362 17.309 17.762 17.3611C18.7012 16.5873 18.7795 14.4651 16.8227 15.0913C14.318 16.4219 17.0575 18.6135 19.6405 20.4137C22.2234 22.214 21.2842 25.8927 21.2059 25.971Z" fill="#5C2095"/>
</mask>
<g mask="url(#mask2_20_9848)">
<ellipse cx="21.0528" cy="25.3247" rx="0.391358" ry="0.234815" transform="rotate(-11.6558 21.0528 25.3247)" fill="#623557"/>
<ellipse cx="21.0768" cy="23.9592" rx="0.391358" ry="0.234815" transform="rotate(6.56946 21.0768 23.9592)" fill="#623557"/>
<ellipse cx="19.982" cy="22.7068" rx="0.391358" ry="0.234815" transform="rotate(6.56946 19.982 22.7068)" fill="#623557"/>
<ellipse cx="20.4908" cy="21.8794" rx="0.391358" ry="0.234815" transform="rotate(-27.6861 20.4908 21.8794)" fill="#623557"/>
<ellipse cx="19.2708" cy="21.7271" rx="0.55299" ry="0.331794" transform="rotate(-27.6861 19.2708 21.7271)" fill="#623557"/>
<ellipse cx="19.6529" cy="20.6284" rx="0.511654" ry="0.306993" transform="rotate(-10.0077 19.6529 20.6284)" fill="#623557"/>
<ellipse cx="18.1921" cy="20.7948" rx="0.319893" ry="0.191936" transform="rotate(-10.0077 18.1921 20.7948)" fill="#623557"/>
<ellipse cx="18.1467" cy="20.3401" rx="0.134708" ry="0.0808247" transform="rotate(-10.0077 18.1467 20.3401)" fill="#623557"/>
<ellipse cx="17.9905" cy="19.8706" rx="0.134708" ry="0.0808247" transform="rotate(-10.0077 17.9905 19.8706)" fill="#623557"/>
<ellipse cx="18.9299" cy="21.2793" rx="0.134708" ry="0.0808247" transform="rotate(-10.0077 18.9299 21.2793)" fill="#623557"/>
<ellipse cx="18.9299" cy="20.4966" rx="0.134708" ry="0.0808247" transform="rotate(-10.0077 18.9299 20.4966)" fill="#623557"/>
<ellipse cx="18.6628" cy="19.8556" rx="0.319893" ry="0.191936" transform="rotate(-10.0077 18.6628 19.8556)" fill="#623557"/>
<ellipse cx="17.4212" cy="20.1974" rx="0.319893" ry="0.191936" transform="rotate(-16.1508 17.4212 20.1974)" fill="#623557"/>
<ellipse cx="17.8549" cy="19.1546" rx="0.565103" ry="0.339062" transform="rotate(-16.1508 17.8549 19.1546)" fill="#623557"/>
<ellipse cx="16.9473" cy="18.1938" rx="0.565103" ry="0.339062" transform="rotate(-5.44346 16.9473 18.1938)" fill="#623557"/>
<ellipse cx="16.1533" cy="17.0874" rx="0.565103" ry="0.339062" transform="rotate(-5.44346 16.1533 17.0874)" fill="#623557"/>
<ellipse cx="15.9347" cy="16.245" rx="0.458505" ry="0.275103" transform="rotate(-5.44346 15.9347 16.245)" fill="#623557"/>
<ellipse cx="16.1867" cy="15.5307" rx="0.458505" ry="0.275103" transform="rotate(28.2645 16.1867 15.5307)" fill="#623557"/>
<ellipse cx="15.0909" cy="14.748" rx="0.458505" ry="0.275103" transform="rotate(28.2645 15.0909 14.748)" fill="#623557"/>
<ellipse cx="16.4457" cy="19.6243" rx="0.565103" ry="0.339062" transform="rotate(-16.1508 16.4457 19.6243)" fill="#623557"/>
<ellipse cx="15.4746" cy="18.3933" rx="0.565103" ry="0.339062" transform="rotate(-5.44346 15.4746 18.3933)" fill="#623557"/>
<ellipse cx="14.6816" cy="17.2871" rx="0.565103" ry="0.339062" transform="rotate(-5.44346 14.6816 17.2871)" fill="#623557"/>
<ellipse cx="14.576" cy="16.0504" rx="0.565103" ry="0.339062" transform="rotate(19.6923 14.576 16.0504)" fill="#623557"/>
<ellipse cx="16.9784" cy="18.8463" rx="0.204307" ry="0.122584" transform="rotate(-16.1508 16.9784 18.8463)" fill="#623557"/>
<ellipse cx="16.1427" cy="17.7279" rx="0.204307" ry="0.122584" transform="rotate(-5.44346 16.1427 17.7279)" fill="#623557"/>
<ellipse cx="15.3976" cy="17.5607" rx="0.204307" ry="0.122584" transform="rotate(-5.44346 15.3976 17.5607)" fill="#623557"/>
<ellipse cx="15.2414" cy="16.7782" rx="0.204307" ry="0.122584" transform="rotate(-5.44346 15.2414 16.7782)" fill="#623557"/>
<ellipse cx="15.2995" cy="15.8276" rx="0.204307" ry="0.122584" transform="rotate(19.6923 15.2995 15.8276)" fill="#623557"/>
<ellipse cx="15.9073" cy="14.8447" rx="0.204307" ry="0.18516" transform="rotate(19.6923 15.9073 14.8447)" fill="#623557"/>
<ellipse cx="16.2205" cy="14.0621" rx="0.320509" ry="0.290471" transform="rotate(19.6923 16.2205 14.0621)" fill="#623557"/>
<ellipse cx="16.991" cy="14.983" rx="0.320509" ry="0.290471" transform="rotate(19.6923 16.991 14.983)" fill="#623557"/>
<ellipse cx="17.2978" cy="14.3583" rx="0.190237" ry="0.172408" transform="rotate(19.6923 17.2978 14.3583)" fill="#623557"/>
<ellipse cx="18.081" cy="14.2018" rx="0.190237" ry="0.172408" transform="rotate(19.6923 18.081 14.2018)" fill="#623557"/>
<ellipse cx="17.7685" cy="14.9845" rx="0.190237" ry="0.172408" transform="rotate(19.6923 17.7685 14.9845)" fill="#623557"/>
<ellipse cx="18.2372" cy="14.828" rx="0.190237" ry="0.172408" transform="rotate(19.6923 18.2372 14.828)" fill="#623557"/>
<ellipse cx="18.2372" cy="15.4542" rx="0.190237" ry="0.172408" transform="rotate(19.6923 18.2372 15.4542)" fill="#623557"/>
<ellipse cx="18.5964" cy="15.1913" rx="0.100818" ry="0.0913699" transform="rotate(19.6923 18.5964 15.1913)" fill="#623557"/>
<ellipse cx="18.9089" cy="15.8173" rx="0.100818" ry="0.0913699" transform="rotate(19.6923 18.9089 15.8173)" fill="#623557"/>
<ellipse cx="18.4391" cy="15.974" rx="0.100818" ry="0.0913699" transform="rotate(19.6923 18.4391 15.974)" fill="#623557"/>
<ellipse cx="18.5964" cy="16.4435" rx="0.100818" ry="0.0913699" transform="rotate(19.6923 18.5964 16.4435)" fill="#623557"/>
<ellipse cx="18.2829" cy="16.7567" rx="0.100818" ry="0.0913699" transform="rotate(19.6923 18.2829 16.7567)" fill="#623557"/>
<ellipse cx="18.1266" cy="17.0697" rx="0.100818" ry="0.0913699" transform="rotate(19.6923 18.1266 17.0697)" fill="#623557"/>
<ellipse cx="20.2925" cy="24.0091" rx="0.241318" ry="0.144791" transform="rotate(6.56946 20.2925 24.0091)" fill="#623557"/>
<ellipse cx="20.7784" cy="22.4825" rx="0.241318" ry="0.144791" transform="rotate(-17.3536 20.7784 22.4825)" fill="#623557"/>
<ellipse cx="20.4286" cy="24.6572" rx="0.641442" ry="0.384865" transform="rotate(-11.6558 20.4286 24.6572)" fill="#623557"/>
<ellipse cx="21.0443" cy="23.2278" rx="0.641442" ry="0.384865" transform="rotate(9.54376 21.0443 23.2278)" fill="#623557"/>
<path d="M19.01 22.3505C20.1998 23.4776 19.4014 25.4814 18.8535 26.3423L16.8967 26.1075C17.8099 25.6901 19.0257 24.3542 16.5836 22.3505C14.1416 20.3467 13.3223 18.0195 13.2179 17.1063C13.1397 16.3236 13.3901 14.1476 15.6444 13.5841C17.8986 13.0205 18.9579 14.3668 19.2449 15.306C18.8535 14.2363 17.382 12.9109 14.9399 14.6016C11.8873 16.7149 17.5229 20.9416 19.01 22.3505Z" fill="#34194C"/>
</g>
<path d="M16.535 13.7485C15.8532 13.7106 14.3391 14.0046 13.7371 15.4832C14.0493 15.0203 15.046 14.0253 16.535 13.7485Z" fill="#441E69"/>
<path d="M51.5148 26.2384C53.0802 26.9271 54.5674 26.5254 55.1153 26.2384C54.9848 25.7426 54.0977 25.2208 54.4108 23.5771C54.6382 22.3835 60.1169 19.397 59.342 16.2196C58.5593 13.0104 53.7847 13.5583 53.4716 15.5151C53.2211 17.0806 54.3587 17.5763 54.9587 17.6285C54.0195 16.8546 53.9412 14.7324 55.898 15.3586C58.4027 16.6892 55.6632 18.8808 53.0802 20.6811C50.4973 22.4813 51.4365 26.1601 51.5148 26.2384Z" fill="#431D67"/>
<mask id="mask3_20_9848" style="mask-type:alpha" maskUnits="userSpaceOnUse" x="51" y="13" width="9" height="14">
<path d="M51.5148 26.2384C53.0802 26.9271 54.5674 26.5254 55.1153 26.2384C54.9848 25.7426 54.0977 25.2208 54.4108 23.5771C54.6382 22.3835 60.1169 19.397 59.342 16.2196C58.5593 13.0104 53.7847 13.5583 53.4716 15.5151C53.2211 17.0806 54.3587 17.5763 54.9587 17.6285C54.0195 16.8546 53.9412 14.7324 55.898 15.3586C58.4027 16.6892 55.6632 18.8808 53.0802 20.6811C50.4973 22.4813 51.4365 26.1601 51.5148 26.2384Z" fill="#5C2095"/>
</mask>
<g mask="url(#mask3_20_9848)">
<ellipse cx="0.391358" cy="0.234815" rx="0.391358" ry="0.234815" transform="matrix(-0.979379 -0.202032 -0.202032 0.979379 52.0986 25.4412)" fill="#623557"/>
<ellipse cx="0.391358" cy="0.234815" rx="0.391358" ry="0.234815" transform="matrix(-0.993434 0.114408 0.114408 0.993434 52.0059 23.9485)" fill="#623557"/>
<ellipse cx="0.391358" cy="0.234815" rx="0.391358" ry="0.234815" transform="matrix(-0.993434 0.114408 0.114408 0.993434 53.1025 22.696)" fill="#623557"/>
<ellipse cx="0.391358" cy="0.234815" rx="0.391358" ry="0.234815" transform="matrix(-0.885506 -0.464628 -0.464628 0.885506 52.6865 22.1204)" fill="#623557"/>
<ellipse cx="0.55299" cy="0.331794" rx="0.55299" ry="0.331794" transform="matrix(-0.885506 -0.464628 -0.464628 0.885506 54.0947 21.9575)" fill="#623557"/>
<ellipse cx="0.511654" cy="0.306993" rx="0.511654" ry="0.306993" transform="matrix(-0.984784 -0.17378 -0.17378 0.984784 53.625 20.6824)" fill="#623557"/>
<ellipse cx="0.319893" cy="0.191936" rx="0.319893" ry="0.191936" transform="matrix(-0.984784 -0.17378 -0.17378 0.984784 54.8779 20.9287)" fill="#623557"/>
<ellipse cx="0.134708" cy="0.0808247" rx="0.134708" ry="0.0808247" transform="matrix(-0.984784 -0.17378 -0.17378 0.984784 54.7217 20.5513)" fill="#623557"/>
<ellipse cx="0.134708" cy="0.0808247" rx="0.134708" ry="0.0808247" transform="matrix(-0.984784 -0.17378 -0.17378 0.984784 54.8779 20.0818)" fill="#623557"/>
<ellipse cx="0.134708" cy="0.0808247" rx="0.134708" ry="0.0808247" transform="matrix(-0.984784 -0.17378 -0.17378 0.984784 53.9385 21.4905)" fill="#623557"/>
<ellipse cx="0.134708" cy="0.0808247" rx="0.134708" ry="0.0808247" transform="matrix(-0.984784 -0.17378 -0.17378 0.984784 53.9385 20.7078)" fill="#623557"/>
<ellipse cx="0.319893" cy="0.191936" rx="0.319893" ry="0.191936" transform="matrix(-0.984784 -0.17378 -0.17378 0.984784 54.4082 19.9895)" fill="#623557"/>
<ellipse cx="0.319893" cy="0.191936" rx="0.319893" ry="0.191936" transform="matrix(-0.960533 -0.278166 -0.278166 0.960533 55.6602 20.3694)" fill="#623557"/>
<ellipse cx="0.565103" cy="0.339062" rx="0.565103" ry="0.339062" transform="matrix(-0.960533 -0.278166 -0.278166 0.960533 55.5039 19.2534)" fill="#623557"/>
<ellipse cx="0.565103" cy="0.339062" rx="0.565103" ry="0.339062" transform="matrix(-0.99549 -0.0948635 -0.0948635 0.99549 56.3691 18.1772)" fill="#623557"/>
<ellipse cx="0.565103" cy="0.339062" rx="0.565103" ry="0.339062" transform="matrix(-0.99549 -0.0948635 -0.0948635 0.99549 57.1631 17.0706)" fill="#623557"/>
<ellipse cx="0.458505" cy="0.275103" rx="0.458505" ry="0.275103" transform="matrix(-0.99549 -0.0948635 -0.0948635 0.99549 57.2705 16.282)" fill="#623557"/>
<ellipse cx="0.458505" cy="0.275103" rx="0.458505" ry="0.275103" transform="matrix(-0.880771 0.473542 0.473542 0.880771 56.8086 15.3386)" fill="#623557"/>
<ellipse cx="0.458505" cy="0.275103" rx="0.458505" ry="0.275103" transform="matrix(-0.880771 0.473542 0.473542 0.880771 57.9043 14.5557)" fill="#623557"/>
<ellipse cx="0.565103" cy="0.339062" rx="0.565103" ry="0.339062" transform="matrix(-0.960533 -0.278166 -0.278166 0.960533 56.9131 19.7231)" fill="#623557"/>
<ellipse cx="0.565103" cy="0.339062" rx="0.565103" ry="0.339062" transform="matrix(-0.99549 -0.0948635 -0.0948635 0.99549 57.8408 18.3767)" fill="#623557"/>
<ellipse cx="0.565103" cy="0.339062" rx="0.565103" ry="0.339062" transform="matrix(-0.99549 -0.0948635 -0.0948635 0.99549 58.6348 17.2705)" fill="#623557"/>
<ellipse cx="0.565103" cy="0.339062" rx="0.565103" ry="0.339062" transform="matrix(-0.941516 0.336969 0.336969 0.941516 58.5625 15.8081)" fill="#623557"/>
<ellipse cx="0.204307" cy="0.122584" rx="0.204307" ry="0.122584" transform="matrix(-0.960533 -0.278166 -0.278166 0.960533 55.9736 19.0527)" fill="#623557"/>
<ellipse cx="0.204307" cy="0.122584" rx="0.204307" ry="0.122584" transform="matrix(-0.99549 -0.0948635 -0.0948635 0.99549 56.7939 17.8926)" fill="#623557"/>
<ellipse cx="0.204307" cy="0.122584" rx="0.204307" ry="0.122584" transform="matrix(-0.99549 -0.0948635 -0.0948635 0.99549 57.5391 17.7253)" fill="#623557"/>
<ellipse cx="0.204307" cy="0.122584" rx="0.204307" ry="0.122584" transform="matrix(-0.99549 -0.0948635 -0.0948635 0.99549 57.6953 16.9426)" fill="#623557"/>
<ellipse cx="0.204307" cy="0.122584" rx="0.204307" ry="0.122584" transform="matrix(-0.941516 0.336969 0.336969 0.941516 57.5732 15.9104)" fill="#623557"/>
<ellipse cx="0.204307" cy="0.18516" rx="0.204307" ry="0.18516" transform="matrix(-0.941516 0.336969 0.336969 0.941516 56.9443 14.8689)" fill="#623557"/>
<ellipse cx="0.320509" cy="0.290471" rx="0.320509" ry="0.290471" transform="matrix(-0.941516 0.336969 0.336969 0.941516 56.7051 13.948)" fill="#623557"/>
<ellipse cx="0.320509" cy="0.290471" rx="0.320509" ry="0.290471" transform="matrix(-0.941516 0.336969 0.336969 0.941516 55.9346 14.8689)" fill="#623557"/>
<ellipse cx="0.190237" cy="0.172408" rx="0.190237" ry="0.172408" transform="matrix(-0.941516 0.336969 0.336969 0.941516 55.5439 14.3992)" fill="#623557"/>
<ellipse cx="0.190237" cy="0.172408" rx="0.190237" ry="0.172408" transform="matrix(-0.941516 0.336969 0.336969 0.941516 54.7617 14.2427)" fill="#623557"/>
<ellipse cx="0.190237" cy="0.172408" rx="0.190237" ry="0.172408" transform="matrix(-0.941516 0.336969 0.336969 0.941516 55.0752 15.0254)" fill="#623557"/>
<ellipse cx="0.190237" cy="0.172408" rx="0.190237" ry="0.172408" transform="matrix(-0.941516 0.336969 0.336969 0.941516 54.6055 14.8689)" fill="#623557"/>
<ellipse cx="0.190237" cy="0.172408" rx="0.190237" ry="0.172408" transform="matrix(-0.941516 0.336969 0.336969 0.941516 54.6055 15.4951)" fill="#623557"/>
<ellipse cx="0.100818" cy="0.0913699" rx="0.100818" ry="0.0913699" transform="matrix(-0.941516 0.336969 0.336969 0.941516 54.1895 15.3386)" fill="#623557"/>
<ellipse cx="0.100818" cy="0.0913699" rx="0.100818" ry="0.0913699" transform="matrix(-0.941516 0.336969 0.336969 0.941516 53.877 15.9646)" fill="#623557"/>
<ellipse cx="0.100818" cy="0.0913699" rx="0.100818" ry="0.0913699" transform="matrix(-0.941516 0.336969 0.336969 0.941516 54.3467 16.1213)" fill="#623557"/>
<ellipse cx="0.100818" cy="0.0913699" rx="0.100818" ry="0.0913699" transform="matrix(-0.941516 0.336969 0.336969 0.941516 54.1895 16.5908)" fill="#623557"/>
<ellipse cx="0.100818" cy="0.0913699" rx="0.100818" ry="0.0913699" transform="matrix(-0.941516 0.336969 0.336969 0.941516 54.5029 16.9038)" fill="#623557"/>
<ellipse cx="0.100818" cy="0.0913699" rx="0.100818" ry="0.0913699" transform="matrix(-0.941516 0.336969 0.336969 0.941516 54.6602 17.217)" fill="#623557"/>
<ellipse cx="0.241318" cy="0.144791" rx="0.241318" ry="0.144791" transform="matrix(-0.993434 0.114408 0.114408 0.993434 52.6523 24.105)" fill="#623557"/>
<ellipse cx="0.241318" cy="0.144791" rx="0.241318" ry="0.144791" transform="matrix(-0.954482 -0.298269 -0.298269 0.954482 52.2168 22.6833)" fill="#623557"/>
<ellipse cx="0.641442" cy="0.384865" rx="0.641442" ry="0.384865" transform="matrix(-0.979379 -0.202032 -0.202032 0.979379 52.999 24.6772)" fill="#623557"/>
<ellipse cx="0.641442" cy="0.384865" rx="0.641442" ry="0.384865" transform="matrix(-0.986159 0.165801 0.165801 0.986159 52.2461 23.0093)" fill="#623557"/>
<path d="M53.7116 22.6178C52.5219 23.7449 53.3203 25.7487 53.8682 26.6097L55.825 26.3749C54.9118 25.9574 53.696 24.6216 56.1381 22.6178C58.5801 20.6141 59.3994 18.2868 59.5037 17.3736C59.582 16.5909 59.3315 14.415 57.0773 13.8514C54.8231 13.2878 53.7638 14.6341 53.4768 15.5734C53.8682 14.5037 55.3397 13.1783 57.7818 14.8689C60.8344 16.9823 55.1988 21.2089 53.7116 22.6178Z" fill="#34194C"/>
</g>
<path d="M56.1866 14.0158C56.8685 13.978 58.3826 14.2719 58.9846 15.7505C58.6724 15.2876 57.6756 14.2926 56.1866 14.0158Z" fill="#441E69"/>
<path d="M23.5964 39.775C20.9217 40.9519 18.3808 40.2653 17.4446 39.775C17.6675 38.928 19.1832 38.0364 18.6482 35.228C18.2597 33.1885 8.89879 28.0859 10.2229 22.6569C11.5603 17.1738 19.7181 18.1099 20.2531 21.4533C20.681 24.128 18.7374 24.975 17.7121 25.0641C19.3169 23.7419 19.4507 20.1159 16.1073 21.1858C11.8278 23.4593 16.5085 27.2039 20.9217 30.2798C25.335 33.3557 23.7302 39.6413 23.5964 39.775Z" fill="#5C2095"/>
<mask id="mask4_20_9848" style="mask-type:alpha" maskUnits="userSpaceOnUse" x="10" y="18" width="14" height="23">
<path d="M23.5964 39.775C20.9217 40.9519 18.3808 40.2653 17.4446 39.775C17.6675 38.928 19.1832 38.0364 18.6482 35.228C18.2597 33.1885 8.89879 28.0859 10.2229 22.6569C11.5603 17.1738 19.7181 18.1099 20.2531 21.4533C20.681 24.128 18.7374 24.975 17.7121 25.0641C19.3169 23.7419 19.4507 20.1159 16.1073 21.1858C11.8278 23.4593 16.5085 27.2039 20.9217 30.2798C25.335 33.3557 23.7302 39.6413 23.5964 39.775Z" fill="#5C2095"/>
</mask>
<g mask="url(#mask4_20_9848)">
<ellipse cx="23.3346" cy="38.6709" rx="0.668675" ry="0.401205" transform="rotate(-11.6558 23.3346 38.6709)" fill="#954A83"/>
<ellipse cx="23.3762" cy="36.3374" rx="0.668675" ry="0.401205" transform="rotate(6.56946 23.3762 36.3374)" fill="#954A83"/>
<ellipse cx="21.5031" cy="34.1977" rx="0.668675" ry="0.401205" transform="rotate(6.56946 21.5031 34.1977)" fill="#954A83"/>
<ellipse cx="22.3742" cy="32.7838" rx="0.668675" ry="0.401205" transform="rotate(-27.6861 22.3742 32.7838)" fill="#954A83"/>
<ellipse cx="20.2885" cy="32.5239" rx="0.94484" ry="0.566904" transform="rotate(-27.6861 20.2885 32.5239)" fill="#954A83"/>
<ellipse cx="20.9423" cy="30.6466" rx="0.874213" ry="0.524528" transform="rotate(-10.0077 20.9423 30.6466)" fill="#954A83"/>
<ellipse cx="18.4468" cy="30.9308" rx="0.546569" ry="0.327942" transform="rotate(-10.0077 18.4468 30.9308)" fill="#954A83"/>
<ellipse cx="18.3688" cy="30.1541" rx="0.230162" ry="0.138097" transform="rotate(-10.0077 18.3688 30.1541)" fill="#954A83"/>
<ellipse cx="18.1022" cy="29.3516" rx="0.230162" ry="0.138097" transform="rotate(-10.0077 18.1022 29.3516)" fill="#954A83"/>
<ellipse cx="19.7067" cy="31.7588" rx="0.230162" ry="0.138097" transform="rotate(-10.0077 19.7067 31.7588)" fill="#954A83"/>
<ellipse cx="19.7067" cy="30.4214" rx="0.230162" ry="0.138097" transform="rotate(-10.0077 19.7067 30.4214)" fill="#954A83"/>
<ellipse cx="19.2495" cy="29.3261" rx="0.546569" ry="0.327942" transform="rotate(-10.0077 19.2495 29.3261)" fill="#954A83"/>
<ellipse cx="17.1299" cy="29.9103" rx="0.546569" ry="0.327941" transform="rotate(-16.1508 17.1299 29.9103)" fill="#954A83"/>
<ellipse cx="17.8698" cy="28.1285" rx="0.965535" ry="0.579321" transform="rotate(-16.1508 17.8698 28.1285)" fill="#954A83"/>
<ellipse cx="16.3189" cy="26.4868" rx="0.965535" ry="0.579321" transform="rotate(-5.44346 16.3189 26.4868)" fill="#954A83"/>
<ellipse cx="14.9624" cy="24.5962" rx="0.965535" ry="0.579321" transform="rotate(-5.44346 14.9624 24.5962)" fill="#954A83"/>
<ellipse cx="14.5872" cy="23.1573" rx="0.783403" ry="0.470042" transform="rotate(-5.44346 14.5872 23.1573)" fill="#954A83"/>
<ellipse cx="15.0192" cy="21.9366" rx="0.783403" ry="0.470042" transform="rotate(28.2645 15.0192 21.9366)" fill="#954A83"/>
<ellipse cx="13.1471" cy="20.5992" rx="0.783403" ry="0.470042" transform="rotate(28.2645 13.1471 20.5992)" fill="#954A83"/>
<ellipse cx="15.4626" cy="28.9309" rx="0.965535" ry="0.579321" transform="rotate(-16.1508 15.4626 28.9309)" fill="#954A83"/>
<ellipse cx="13.8042" cy="26.8279" rx="0.965535" ry="0.579321" transform="rotate(-5.44346 13.8042 26.8279)" fill="#954A83"/>
<ellipse cx="12.4478" cy="24.9375" rx="0.965535" ry="0.579321" transform="rotate(-5.44346 12.4478 24.9375)" fill="#954A83"/>
<ellipse cx="12.2685" cy="22.8249" rx="0.965535" ry="0.579321" transform="rotate(19.6923 12.2685 22.8249)" fill="#954A83"/>
<ellipse cx="16.3721" cy="27.6016" rx="0.34908" ry="0.209448" transform="rotate(-16.1508 16.3721 27.6016)" fill="#954A83"/>
<ellipse cx="14.9455" cy="25.691" rx="0.34908" ry="0.209448" transform="rotate(-5.44346 14.9455 25.691)" fill="#954A83"/>
<ellipse cx="13.6711" cy="25.4054" rx="0.34908" ry="0.209448" transform="rotate(-5.44346 13.6711 25.4054)" fill="#954A83"/>
<ellipse cx="13.4035" cy="24.068" rx="0.34908" ry="0.209448" transform="rotate(-5.44346 13.4035 24.068)" fill="#954A83"/>
<ellipse cx="13.5032" cy="22.4437" rx="0.34908" ry="0.209448" transform="rotate(19.6923 13.5032 22.4437)" fill="#954A83"/>
<ellipse cx="14.5414" cy="20.7646" rx="0.34908" ry="0.316365" transform="rotate(19.6923 14.5414 20.7646)" fill="#954A83"/>
<ellipse cx="15.0769" cy="19.4274" rx="0.547622" ry="0.4963" transform="rotate(19.6923 15.0769 19.4274)" fill="#954A83"/>
<ellipse cx="16.3943" cy="21.0009" rx="0.547622" ry="0.4963" transform="rotate(19.6923 16.3943 21.0009)" fill="#954A83"/>
<ellipse cx="16.9187" cy="19.9338" rx="0.325038" ry="0.294576" transform="rotate(19.6923 16.9187 19.9338)" fill="#954A83"/>
<ellipse cx="18.2566" cy="19.6662" rx="0.325038" ry="0.294576" transform="rotate(19.6923 18.2566 19.6662)" fill="#954A83"/>
<ellipse cx="17.7214" cy="21.0036" rx="0.325038" ry="0.294576" transform="rotate(19.6923 17.7214 21.0036)" fill="#954A83"/>
<ellipse cx="18.5241" cy="20.736" rx="0.325038" ry="0.294576" transform="rotate(19.6923 18.5241 20.736)" fill="#954A83"/>
<ellipse cx="18.5241" cy="21.8061" rx="0.325038" ry="0.294576" transform="rotate(19.6923 18.5241 21.8061)" fill="#954A83"/>
<ellipse cx="19.1359" cy="21.3566" rx="0.172259" ry="0.156115" transform="rotate(19.6923 19.1359 21.3566)" fill="#954A83"/>
<ellipse cx="19.6711" cy="22.4265" rx="0.172259" ry="0.156115" transform="rotate(19.6923 19.6711 22.4265)" fill="#954A83"/>
<ellipse cx="18.8684" cy="22.694" rx="0.172259" ry="0.156115" transform="rotate(19.6923 18.8684 22.694)" fill="#954A83"/>
<ellipse cx="19.1359" cy="23.4963" rx="0.172259" ry="0.156115" transform="rotate(19.6923 19.1359 23.4963)" fill="#954A83"/>
<ellipse cx="18.6008" cy="24.0314" rx="0.172259" ry="0.156115" transform="rotate(19.6923 18.6008 24.0314)" fill="#954A83"/>
<ellipse cx="18.3332" cy="24.5664" rx="0.172259" ry="0.156115" transform="rotate(19.6923 18.3332 24.5664)" fill="#954A83"/>
<ellipse cx="22.0336" cy="36.4228" rx="0.412316" ry="0.24739" transform="rotate(6.56946 22.0336 36.4228)" fill="#954A83"/>
<ellipse cx="22.8648" cy="33.8143" rx="0.412316" ry="0.24739" transform="rotate(-17.3536 22.8648 33.8143)" fill="#954A83"/>
<ellipse cx="22.2668" cy="37.5303" rx="1.09597" ry="0.657581" transform="rotate(-11.6558 22.2668 37.5303)" fill="#954A83"/>
<ellipse cx="23.3204" cy="35.0878" rx="1.09597" ry="0.657581" transform="rotate(9.54376 23.3204 35.0878)" fill="#954A83"/>
<path d="M19.8437 33.589C21.8765 35.5148 20.5124 38.9384 19.5762 40.4095L16.2329 40.0083C17.7931 39.2951 19.8705 37.0126 15.6979 33.589C11.5254 30.1654 10.1256 26.189 9.94731 24.6288C9.81358 23.2914 10.2415 19.5736 14.0931 18.6107C17.9447 17.6478 19.7545 19.9481 20.2449 21.5529C19.5762 19.7252 17.062 17.4606 12.8895 20.3493C7.67382 23.9601 17.3027 31.1818 19.8437 33.589Z" fill="#4F227A"/>
</g>
<path d="M15.6147 18.8917C14.4498 18.8271 11.8628 19.3293 10.8342 21.8556C11.3676 21.0647 13.0706 19.3646 15.6147 18.8917Z" fill="#7330B3"/>
<path d="M47.3987 39.775C50.0734 40.9519 52.6144 40.2653 53.5505 39.775C53.3276 38.928 51.8119 38.0364 52.3469 35.228C52.7354 33.1885 62.0963 28.0859 60.7722 22.6569C59.4349 17.1738 51.277 18.1099 50.7421 21.4533C50.3141 24.128 52.2577 24.975 53.283 25.0641C51.6782 23.7419 51.5445 20.1159 54.8879 21.1858C59.1674 23.4593 54.4866 27.2039 50.0734 30.2798C45.6601 33.3557 47.265 39.6413 47.3987 39.775Z" fill="#5C2095"/>
<mask id="mask5_20_9848" style="mask-type:alpha" maskUnits="userSpaceOnUse" x="47" y="18" width="14" height="23">
<path d="M47.3987 39.775C50.0734 40.9519 52.6144 40.2653 53.5505 39.775C53.3276 38.928 51.8119 38.0364 52.3469 35.228C52.7354 33.1885 62.0963 28.0859 60.7722 22.6569C59.4349 17.1738 51.277 18.1099 50.7421 21.4533C50.3141 24.128 52.2577 24.975 53.283 25.0641C51.6782 23.7419 51.5445 20.1159 54.8879 21.1858C59.1674 23.4593 54.4866 27.2039 50.0734 30.2798C45.6601 33.3557 47.265 39.6413 47.3987 39.775Z" fill="#5C2095"/>
</mask>
<g mask="url(#mask5_20_9848)">
<ellipse cx="0.668675" cy="0.401205" rx="0.668675" ry="0.401205" transform="matrix(-0.979379 -0.202032 -0.202032 0.979379 48.3975 38.4131)" fill="#954A83"/>
<ellipse cx="0.668675" cy="0.401205" rx="0.668675" ry="0.401205" transform="matrix(-0.993434 0.114408 0.114408 0.993434 48.2383 35.8625)" fill="#954A83"/>
<ellipse cx="0.668675" cy="0.401205" rx="0.668675" ry="0.401205" transform="matrix(-0.993434 0.114408 0.114408 0.993434 50.1104 33.7227)" fill="#954A83"/>
<ellipse cx="0.668675" cy="0.401205" rx="0.668675" ry="0.401205" transform="matrix(-0.885506 -0.464628 -0.464628 0.885506 49.3994 32.7393)" fill="#954A83"/>
<ellipse cx="0.94484" cy="0.566904" rx="0.94484" ry="0.566904" transform="matrix(-0.885506 -0.464628 -0.464628 0.885506 51.8066 32.4609)" fill="#954A83"/>
<ellipse cx="0.874213" cy="0.524528" rx="0.874213" ry="0.524528" transform="matrix(-0.984784 -0.17378 -0.17378 0.984784 51.0039 30.282)" fill="#954A83"/>
<ellipse cx="0.546569" cy="0.327942" rx="0.546569" ry="0.327942" transform="matrix(-0.984784 -0.17378 -0.17378 0.984784 53.1445 30.7029)" fill="#954A83"/>
<ellipse cx="0.230162" cy="0.138097" rx="0.230162" ry="0.138097" transform="matrix(-0.984784 -0.17378 -0.17378 0.984784 52.877 30.0581)" fill="#954A83"/>
<ellipse cx="0.230162" cy="0.138097" rx="0.230162" ry="0.138097" transform="matrix(-0.984784 -0.17378 -0.17378 0.984784 53.1445 29.2556)" fill="#954A83"/>
<ellipse cx="0.230162" cy="0.138097" rx="0.230162" ry="0.138097" transform="matrix(-0.984784 -0.17378 -0.17378 0.984784 51.54 31.6631)" fill="#954A83"/>
<ellipse cx="0.230162" cy="0.138097" rx="0.230162" ry="0.138097" transform="matrix(-0.984784 -0.17378 -0.17378 0.984784 51.54 30.3257)" fill="#954A83"/>
<ellipse cx="0.546569" cy="0.327942" rx="0.546569" ry="0.327942" transform="matrix(-0.984784 -0.17378 -0.17378 0.984784 52.3418 29.0981)" fill="#954A83"/>
<ellipse cx="0.546569" cy="0.327942" rx="0.546569" ry="0.327942" transform="matrix(-0.960533 -0.278166 -0.278166 0.960533 54.4814 29.7473)" fill="#954A83"/>
<ellipse cx="0.965535" cy="0.579321" rx="0.965535" ry="0.579321" transform="matrix(-0.960533 -0.278166 -0.278166 0.960533 54.2139 27.8406)" fill="#954A83"/>
<ellipse cx="0.965535" cy="0.579321" rx="0.965535" ry="0.579321" transform="matrix(-0.99549 -0.0948635 -0.0948635 0.99549 55.6924 26.0017)" fill="#954A83"/>
<ellipse cx="0.965535" cy="0.579321" rx="0.965535" ry="0.579321" transform="matrix(-0.99549 -0.0948635 -0.0948635 0.99549 57.0488 24.1111)" fill="#954A83"/>
<ellipse cx="0.783403" cy="0.470042" rx="0.783403" ry="0.470042" transform="matrix(-0.99549 -0.0948635 -0.0948635 0.99549 57.2314 22.7637)" fill="#954A83"/>
<ellipse cx="0.783403" cy="0.470042" rx="0.783403" ry="0.470042" transform="matrix(-0.880771 0.473542 0.473542 0.880771 56.4434 21.1516)" fill="#954A83"/>
<ellipse cx="0.783403" cy="0.470042" rx="0.783403" ry="0.470042" transform="matrix(-0.880771 0.473542 0.473542 0.880771 58.3164 19.8142)" fill="#954A83"/>
<ellipse cx="0.965535" cy="0.579321" rx="0.965535" ry="0.579321" transform="matrix(-0.960533 -0.278166 -0.278166 0.960533 56.6211 28.6431)" fill="#954A83"/>
<ellipse cx="0.965535" cy="0.579321" rx="0.965535" ry="0.579321" transform="matrix(-0.99549 -0.0948635 -0.0948635 0.99549 58.207 26.3428)" fill="#954A83"/>
<ellipse cx="0.965535" cy="0.579321" rx="0.965535" ry="0.579321" transform="matrix(-0.99549 -0.0948635 -0.0948635 0.99549 59.5635 24.4524)" fill="#954A83"/>
<ellipse cx="0.965535" cy="0.579321" rx="0.965535" ry="0.579321" transform="matrix(-0.941516 0.336969 0.336969 0.941516 59.4404 21.9541)" fill="#954A83"/>
<ellipse cx="0.34908" cy="0.209448" rx="0.34908" ry="0.209448" transform="matrix(-0.960533 -0.278166 -0.278166 0.960533 55.0166 27.4976)" fill="#954A83"/>
<ellipse cx="0.34908" cy="0.209448" rx="0.34908" ry="0.209448" transform="matrix(-0.99549 -0.0948635 -0.0948635 0.99549 56.418 25.5156)" fill="#954A83"/>
<ellipse cx="0.34908" cy="0.209448" rx="0.34908" ry="0.209448" transform="matrix(-0.99549 -0.0948635 -0.0948635 0.99549 57.6914 25.23)" fill="#954A83"/>
<ellipse cx="0.34908" cy="0.209448" rx="0.34908" ry="0.209448" transform="matrix(-0.99549 -0.0948635 -0.0948635 0.99549 57.959 23.8926)" fill="#954A83"/>
<ellipse cx="0.34908" cy="0.209448" rx="0.34908" ry="0.209448" transform="matrix(-0.941516 0.336969 0.336969 0.941516 57.75 22.1289)" fill="#954A83"/>
<ellipse cx="0.34908" cy="0.316365" rx="0.34908" ry="0.316365" transform="matrix(-0.941516 0.336969 0.336969 0.941516 56.6758 20.3491)" fill="#954A83"/>
<ellipse cx="0.547622" cy="0.4963" rx="0.547622" ry="0.4963" transform="matrix(-0.941516 0.336969 0.336969 0.941516 56.2666 18.7756)" fill="#954A83"/>
<ellipse cx="0.547622" cy="0.4963" rx="0.547622" ry="0.4963" transform="matrix(-0.941516 0.336969 0.336969 0.941516 54.9492 20.3491)" fill="#954A83"/>
<ellipse cx="0.325038" cy="0.294576" rx="0.325038" ry="0.294576" transform="matrix(-0.941516 0.336969 0.336969 0.941516 54.2832 19.5469)" fill="#954A83"/>
<ellipse cx="0.325038" cy="0.294576" rx="0.325038" ry="0.294576" transform="matrix(-0.941516 0.336969 0.336969 0.941516 52.9453 19.2793)" fill="#954A83"/>
<ellipse cx="0.325038" cy="0.294576" rx="0.325038" ry="0.294576" transform="matrix(-0.941516 0.336969 0.336969 0.941516 53.4805 20.6167)" fill="#954A83"/>
<ellipse cx="0.325038" cy="0.294576" rx="0.325038" ry="0.294576" transform="matrix(-0.941516 0.336969 0.336969 0.941516 52.6777 20.3491)" fill="#954A83"/>
<ellipse cx="0.325038" cy="0.294576" rx="0.325038" ry="0.294576" transform="matrix(-0.941516 0.336969 0.336969 0.941516 52.6777 21.4192)" fill="#954A83"/>
<ellipse cx="0.172259" cy="0.156115" rx="0.172259" ry="0.156115" transform="matrix(-0.941516 0.336969 0.336969 0.941516 51.9697 21.1516)" fill="#954A83"/>
<ellipse cx="0.172259" cy="0.156115" rx="0.172259" ry="0.156115" transform="matrix(-0.941516 0.336969 0.336969 0.941516 51.4346 22.2214)" fill="#954A83"/>
<ellipse cx="0.172259" cy="0.156115" rx="0.172259" ry="0.156115" transform="matrix(-0.941516 0.336969 0.336969 0.941516 52.2363 22.489)" fill="#954A83"/>
<ellipse cx="0.172259" cy="0.156115" rx="0.172259" ry="0.156115" transform="matrix(-0.941516 0.336969 0.336969 0.941516 51.9697 23.2913)" fill="#954A83"/>
<ellipse cx="0.172259" cy="0.156115" rx="0.172259" ry="0.156115" transform="matrix(-0.941516 0.336969 0.336969 0.941516 52.5039 23.8264)" fill="#954A83"/>
<ellipse cx="0.172259" cy="0.156115" rx="0.172259" ry="0.156115" transform="matrix(-0.941516 0.336969 0.336969 0.941516 52.7715 24.3613)" fill="#954A83"/>
<ellipse cx="0.412316" cy="0.24739" rx="0.412316" ry="0.24739" transform="matrix(-0.993434 0.114408 0.114408 0.993434 49.3428 36.1299)" fill="#954A83"/>
<ellipse cx="0.412316" cy="0.24739" rx="0.412316" ry="0.24739" transform="matrix(-0.954482 -0.298269 -0.298269 0.954482 48.5977 33.7012)" fill="#954A83"/>
<ellipse cx="1.09597" cy="0.657581" rx="1.09597" ry="0.657581" transform="matrix(-0.979379 -0.202032 -0.202032 0.979379 49.9346 37.1077)" fill="#954A83"/>
<ellipse cx="1.09597" cy="0.657581" rx="1.09597" ry="0.657581" transform="matrix(-0.986159 0.165801 0.165801 0.986159 48.6465 34.2576)" fill="#954A83"/>
<path d="M51.1514 33.589C49.1186 35.5148 50.4827 38.9384 51.4189 40.4095L54.7623 40.0083C53.202 39.2951 51.1247 37.0126 55.2972 33.589C59.4697 30.1654 60.8695 26.189 61.0478 24.6288C61.1815 23.2914 60.7536 19.5736 56.902 18.6107C53.0505 17.6478 51.2406 19.9481 50.7502 21.5529C51.4189 19.7252 53.9331 17.4606 58.1056 20.3493C63.3213 23.9601 53.6924 31.1818 51.1514 33.589Z" fill="#4F227A"/>
</g>
<path d="M55.3814 18.8917C56.5463 18.8271 59.1333 19.3293 60.1619 21.8556C59.6284 21.0647 57.9255 19.3646 55.3814 18.8917Z" fill="#7330B3"/>
<path d="M1.48498 28.6256C4.78274 30.0766 7.91561 29.2302 9.06982 28.6256C8.79501 27.5813 6.92626 26.4821 7.58583 23.0194C8.06481 20.5049 19.6064 14.2136 17.9738 7.51995C16.3249 0.759558 6.26673 1.91376 5.60718 6.03596C5.07954 9.33372 7.47591 10.378 8.74005 10.4879C6.76139 8.85769 6.59648 4.38709 10.7187 5.70619C15.9951 8.50929 10.224 13.1262 4.78274 16.9186C-0.658564 20.711 1.32009 28.4607 1.48498 28.6256Z" fill="#5C2095"/>
<mask id="mask6_20_9848" style="mask-type:alpha" maskUnits="userSpaceOnUse" x="1" y="2" width="18" height="28">
<path d="M1.48498 28.6256C4.78274 30.0766 7.91561 29.2302 9.06982 28.6256C8.79501 27.5813 6.92626 26.4821 7.58583 23.0194C8.06481 20.5049 19.6064 14.2136 17.9738 7.51995C16.3249 0.759558 6.26673 1.91376 5.60718 6.03596C5.07954 9.33372 7.47591 10.378 8.74005 10.4879C6.76139 8.85769 6.59648 4.38709 10.7187 5.70619C15.9951 8.50929 10.224 13.1262 4.78274 16.9186C-0.658564 20.711 1.32009 28.4607 1.48498 28.6256Z" fill="#5C2095"/>
</mask>
<g mask="url(#mask6_20_9848)">
<ellipse cx="0.82444" cy="0.494664" rx="0.82444" ry="0.494664" transform="matrix(-0.979379 -0.202032 -0.202032 0.979379 2.71484 26.9465)" fill="#954A83"/>
<ellipse cx="0.82444" cy="0.494664" rx="0.82444" ry="0.494664" transform="matrix(-0.993434 0.114408 0.114408 0.993434 2.51953 23.8018)" fill="#954A83"/>
<ellipse cx="0.82444" cy="0.494664" rx="0.82444" ry="0.494664" transform="matrix(-0.993434 0.114408 0.114408 0.993434 4.82715 21.1636)" fill="#954A83"/>
<ellipse cx="0.82444" cy="0.494664" rx="0.82444" ry="0.494664" transform="matrix(-0.885506 -0.464628 -0.464628 0.885506 3.95117 19.9509)" fill="#954A83"/>
<ellipse cx="1.16494" cy="0.698961" rx="1.16494" ry="0.698961" transform="matrix(-0.885506 -0.464628 -0.464628 0.885506 6.91895 19.6079)" fill="#954A83"/>
<ellipse cx="1.07786" cy="0.646714" rx="1.07786" ry="0.646714" transform="matrix(-0.984784 -0.17378 -0.17378 0.984784 5.92969 16.9214)" fill="#954A83"/>
<ellipse cx="0.67389" cy="0.404334" rx="0.67389" ry="0.404334" transform="matrix(-0.984784 -0.17378 -0.17378 0.984784 8.56836 17.4404)" fill="#954A83"/>
<ellipse cx="0.283777" cy="0.170266" rx="0.283777" ry="0.170266" transform="matrix(-0.984784 -0.17378 -0.17378 0.984784 8.23926 16.6453)" fill="#954A83"/>
<ellipse cx="0.283777" cy="0.170266" rx="0.283777" ry="0.170266" transform="matrix(-0.984784 -0.17378 -0.17378 0.984784 8.56836 15.656)" fill="#954A83"/>
<ellipse cx="0.283777" cy="0.170266" rx="0.283777" ry="0.170266" transform="matrix(-0.984784 -0.17378 -0.17378 0.984784 6.58984 18.624)" fill="#954A83"/>
<ellipse cx="0.283777" cy="0.170266" rx="0.283777" ry="0.170266" transform="matrix(-0.984784 -0.17378 -0.17378 0.984784 6.58984 16.9751)" fill="#954A83"/>
<ellipse cx="0.67389" cy="0.404334" rx="0.67389" ry="0.404334" transform="matrix(-0.984784 -0.17378 -0.17378 0.984784 7.5791 15.4617)" fill="#954A83"/>
<ellipse cx="0.67389" cy="0.404334" rx="0.67389" ry="0.404334" transform="matrix(-0.960533 -0.278166 -0.278166 0.960533 10.2168 16.262)" fill="#954A83"/>
<ellipse cx="1.19045" cy="0.714271" rx="1.19045" ry="0.714271" transform="matrix(-0.960533 -0.278166 -0.278166 0.960533 9.8877 13.9111)" fill="#954A83"/>
<ellipse cx="1.19045" cy="0.714271" rx="1.19045" ry="0.714271" transform="matrix(-0.99549 -0.0948635 -0.0948635 0.99549 11.7109 11.6438)" fill="#954A83"/>
<ellipse cx="1.19045" cy="0.714271" rx="1.19045" ry="0.714271" transform="matrix(-0.99549 -0.0948635 -0.0948635 0.99549 13.3828 9.31299)" fill="#954A83"/>
<ellipse cx="0.965893" cy="0.579536" rx="0.965893" ry="0.579536" transform="matrix(-0.99549 -0.0948635 -0.0948635 0.99549 13.6084 7.65161)" fill="#954A83"/>
<ellipse cx="0.965893" cy="0.579536" rx="0.965893" ry="0.579536" transform="matrix(-0.880771 0.473542 0.473542 0.880771 12.6367 5.66406)" fill="#954A83"/>
<ellipse cx="0.965893" cy="0.579536" rx="0.965893" ry="0.579536" transform="matrix(-0.880771 0.473542 0.473542 0.880771 14.9443 4.01514)" fill="#954A83"/>
<ellipse cx="1.19045" cy="0.714271" rx="1.19045" ry="0.714271" transform="matrix(-0.960533 -0.278166 -0.278166 0.960533 12.8555 14.9004)" fill="#954A83"/>
<ellipse cx="1.19045" cy="0.714271" rx="1.19045" ry="0.714271" transform="matrix(-0.99549 -0.0948635 -0.0948635 0.99549 14.8105 12.0645)" fill="#954A83"/>
<ellipse cx="1.19045" cy="0.714271" rx="1.19045" ry="0.714271" transform="matrix(-0.99549 -0.0948635 -0.0948635 0.99549 16.4824 9.73364)" fill="#954A83"/>
<ellipse cx="1.19045" cy="0.714271" rx="1.19045" ry="0.714271" transform="matrix(-0.941516 0.336969 0.336969 0.941516 16.3311 6.65332)" fill="#954A83"/>
<ellipse cx="0.430396" cy="0.258238" rx="0.430396" ry="0.258238" transform="matrix(-0.960533 -0.278166 -0.278166 0.960533 10.877 13.4883)" fill="#954A83"/>
<ellipse cx="0.430396" cy="0.258238" rx="0.430396" ry="0.258238" transform="matrix(-0.99549 -0.0948635 -0.0948635 0.99549 12.6045 11.0447)" fill="#954A83"/>
<ellipse cx="0.430396" cy="0.258238" rx="0.430396" ry="0.258238" transform="matrix(-0.99549 -0.0948635 -0.0948635 0.99549 14.1748 10.6924)" fill="#954A83"/>
<ellipse cx="0.430396" cy="0.258238" rx="0.430396" ry="0.258238" transform="matrix(-0.99549 -0.0948635 -0.0948635 0.99549 14.5049 9.04346)" fill="#954A83"/>
<ellipse cx="0.430396" cy="0.258238" rx="0.430396" ry="0.258238" transform="matrix(-0.941516 0.336969 0.336969 0.941516 14.2471 6.8689)" fill="#954A83"/>
<ellipse cx="0.430396" cy="0.39006" rx="0.430396" ry="0.39006" transform="matrix(-0.941516 0.336969 0.336969 0.941516 12.9219 4.6748)" fill="#954A83"/>
<ellipse cx="0.675188" cy="0.61191" rx="0.675188" ry="0.61191" transform="matrix(-0.941516 0.336969 0.336969 0.941516 12.4189 2.73438)" fill="#954A83"/>
<ellipse cx="0.675188" cy="0.61191" rx="0.675188" ry="0.61191" transform="matrix(-0.941516 0.336969 0.336969 0.941516 10.7939 4.6748)" fill="#954A83"/>
<ellipse cx="0.400755" cy="0.363196" rx="0.400755" ry="0.363196" transform="matrix(-0.941516 0.336969 0.336969 0.941516 9.97266 3.6853)" fill="#954A83"/>
<ellipse cx="0.400755" cy="0.363196" rx="0.400755" ry="0.363196" transform="matrix(-0.941516 0.336969 0.336969 0.941516 8.32324 3.35571)" fill="#954A83"/>
<ellipse cx="0.400755" cy="0.363196" rx="0.400755" ry="0.363196" transform="matrix(-0.941516 0.336969 0.336969 0.941516 8.9834 5.00439)" fill="#954A83"/>
<ellipse cx="0.400755" cy="0.363196" rx="0.400755" ry="0.363196" transform="matrix(-0.941516 0.336969 0.336969 0.941516 7.99414 4.6748)" fill="#954A83"/>
<ellipse cx="0.400755" cy="0.363196" rx="0.400755" ry="0.363196" transform="matrix(-0.941516 0.336969 0.336969 0.941516 7.99414 5.9939)" fill="#954A83"/>
<ellipse cx="0.212385" cy="0.192481" rx="0.212385" ry="0.192481" transform="matrix(-0.941516 0.336969 0.336969 0.941516 7.11914 5.66406)" fill="#954A83"/>
<ellipse cx="0.212385" cy="0.192481" rx="0.212385" ry="0.192481" transform="matrix(-0.941516 0.336969 0.336969 0.941516 6.45996 6.98315)" fill="#954A83"/>
<ellipse cx="0.212385" cy="0.192481" rx="0.212385" ry="0.192481" transform="matrix(-0.941516 0.336969 0.336969 0.941516 7.44922 7.31299)" fill="#954A83"/>
<ellipse cx="0.212385" cy="0.192481" rx="0.212385" ry="0.192481" transform="matrix(-0.941516 0.336969 0.336969 0.941516 7.11914 8.30225)" fill="#954A83"/>
<ellipse cx="0.212385" cy="0.192481" rx="0.212385" ry="0.192481" transform="matrix(-0.941516 0.336969 0.336969 0.941516 7.7793 8.96167)" fill="#954A83"/>
<ellipse cx="0.212385" cy="0.192481" rx="0.212385" ry="0.192481" transform="matrix(-0.941516 0.336969 0.336969 0.941516 8.1084 9.62134)" fill="#954A83"/>
<ellipse cx="0.508363" cy="0.305018" rx="0.508363" ry="0.305018" transform="matrix(-0.993434 0.114408 0.114408 0.993434 3.88184 24.1316)" fill="#954A83"/>
<ellipse cx="0.508363" cy="0.305018" rx="0.508363" ry="0.305018" transform="matrix(-0.954482 -0.298269 -0.298269 0.954482 2.96191 21.137)" fill="#954A83"/>
<ellipse cx="1.35127" cy="0.810762" rx="1.35127" ry="0.810762" transform="matrix(-0.979379 -0.202032 -0.202032 0.979379 4.61133 25.3369)" fill="#954A83"/>
<ellipse cx="1.35127" cy="0.810762" rx="1.35127" ry="0.810762" transform="matrix(-0.986159 0.165801 0.165801 0.986159 3.02344 21.823)" fill="#954A83"/>
<path d="M6.11219 20.9987C3.60589 23.3731 5.28775 27.5942 6.44196 29.408L10.5642 28.9133C8.64046 28.0339 6.0792 25.2198 11.2237 20.9987C16.3682 16.7776 18.094 11.8749 18.3139 9.95119C18.4788 8.30231 17.9511 3.71842 13.2024 2.53123C8.45359 1.34404 6.2221 4.1801 5.61752 6.15876C6.44196 3.90529 9.54185 1.11319 14.6864 4.67477C21.117 9.12675 9.24506 18.0307 6.11219 20.9987Z" fill="#4F227A"/>
</g>
<path d="M11.3253 2.87764C12.7617 2.79793 15.9513 3.41721 17.2195 6.53199C16.5618 5.55683 14.4621 3.46074 11.3253 2.87764Z" fill="#7330B3"/>
<path d="M72.2113 28.6256C68.9136 30.0766 65.7807 29.2302 64.6265 28.6256C64.9013 27.5813 66.77 26.4821 66.1105 23.0194C65.6315 20.5049 54.0899 14.2136 55.7225 7.51995C57.3714 0.759558 67.4296 1.91376 68.0891 6.03596C68.6168 9.33372 66.2204 10.378 64.9562 10.4879C66.9349 8.85769 67.0998 4.38709 62.9776 5.70619C57.7012 8.50929 63.4722 13.1262 68.9136 16.9186C74.3549 20.711 72.3762 28.4607 72.2113 28.6256Z" fill="#5C2095"/>
<mask id="mask7_20_9848" style="mask-type:alpha" maskUnits="userSpaceOnUse" x="55" y="2" width="18" height="28">
<path d="M72.2113 28.6256C68.9136 30.0766 65.7807 29.2302 64.6265 28.6256C64.9013 27.5813 66.77 26.4821 66.1105 23.0194C65.6315 20.5049 54.0899 14.2136 55.7225 7.51995C57.3714 0.759558 67.4296 1.91376 68.0891 6.03596C68.6168 9.33372 66.2204 10.378 64.9562 10.4879C66.9349 8.85769 67.0998 4.38709 62.9776 5.70619C57.7012 8.50929 63.4722 13.1262 68.9136 16.9186C74.3549 20.711 72.3762 28.4607 72.2113 28.6256Z" fill="#5C2095"/>
</mask>
<g mask="url(#mask7_20_9848)">
<ellipse cx="71.8888" cy="27.2644" rx="0.82444" ry="0.494664" transform="rotate(-11.6558 71.8888 27.2644)" fill="#954A83"/>
<ellipse cx="71.9392" cy="24.3875" rx="0.82444" ry="0.494664" transform="rotate(6.56946 71.9392 24.3875)" fill="#954A83"/>
<ellipse cx="69.6316" cy="21.7493" rx="0.82444" ry="0.494664" transform="rotate(6.56946 69.6316 21.7493)" fill="#954A83"/>
<ellipse cx="70.705" cy="20.0059" rx="0.82444" ry="0.494664" transform="rotate(-27.6861 70.705 20.0059)" fill="#954A83"/>
<ellipse cx="68.1337" cy="19.6856" rx="1.16494" ry="0.698961" transform="rotate(-27.6861 68.1337 19.6856)" fill="#954A83"/>
<ellipse cx="68.9404" cy="17.3707" rx="1.07786" ry="0.646714" transform="rotate(-10.0077 68.9404 17.3707)" fill="#954A83"/>
<ellipse cx="65.8618" cy="17.7215" rx="0.67389" ry="0.404334" transform="rotate(-10.0077 65.8618 17.7215)" fill="#954A83"/>
<ellipse cx="65.7671" cy="16.7636" rx="0.283777" ry="0.170266" transform="rotate(-10.0077 65.7671 16.7636)" fill="#954A83"/>
<ellipse cx="65.437" cy="15.7744" rx="0.283777" ry="0.170266" transform="rotate(-10.0077 65.437 15.7744)" fill="#954A83"/>
<ellipse cx="67.4155" cy="18.7424" rx="0.283777" ry="0.170266" transform="rotate(-10.0077 67.4155 18.7424)" fill="#954A83"/>
<ellipse cx="67.4155" cy="17.0935" rx="0.283777" ry="0.170266" transform="rotate(-10.0077 67.4155 17.0935)" fill="#954A83"/>
<ellipse cx="66.8511" cy="15.7427" rx="0.67389" ry="0.404334" transform="rotate(-10.0077 66.8511 15.7427)" fill="#954A83"/>
<ellipse cx="64.2393" cy="16.4629" rx="0.67389" ry="0.404334" transform="rotate(-16.1508 64.2393 16.4629)" fill="#954A83"/>
<ellipse cx="65.1507" cy="14.2661" rx="1.19045" ry="0.714271" transform="rotate(-16.1508 65.1507 14.2661)" fill="#954A83"/>
<ellipse cx="63.2382" cy="12.2419" rx="1.19045" ry="0.714271" transform="rotate(-5.44346 63.2382 12.2419)" fill="#954A83"/>
<ellipse cx="61.5663" cy="9.91111" rx="1.19045" ry="0.714271" transform="rotate(-5.44346 61.5663 9.91111)" fill="#954A83"/>
<ellipse cx="61.1044" cy="8.13691" rx="0.965892" ry="0.579536" transform="rotate(-5.44346 61.1044 8.13691)" fill="#954A83"/>
<ellipse cx="61.6359" cy="6.63189" rx="0.965893" ry="0.579536" transform="rotate(28.2645 61.6359 6.63189)" fill="#954A83"/>
<ellipse cx="59.3282" cy="4.98297" rx="0.965893" ry="0.579536" transform="rotate(28.2645 59.3282 4.98297)" fill="#954A83"/>
<ellipse cx="62.183" cy="15.2553" rx="1.19045" ry="0.714271" transform="rotate(-16.1508 62.183 15.2553)" fill="#954A83"/>
<ellipse cx="60.1386" cy="12.6626" rx="1.19045" ry="0.714271" transform="rotate(-5.44346 60.1386 12.6626)" fill="#954A83"/>
<ellipse cx="58.4667" cy="10.3318" rx="1.19045" ry="0.714271" transform="rotate(-5.44346 58.4667 10.3318)" fill="#954A83"/>
<ellipse cx="58.2454" cy="7.72696" rx="1.19045" ry="0.714271" transform="rotate(19.6923 58.2454 7.72696)" fill="#954A83"/>
<ellipse cx="63.3046" cy="13.6166" rx="0.430396" ry="0.258238" transform="rotate(-16.1508 63.3046 13.6166)" fill="#954A83"/>
<ellipse cx="61.5448" cy="11.2609" rx="0.430396" ry="0.258238" transform="rotate(-5.44346 61.5448 11.2609)" fill="#954A83"/>
<ellipse cx="59.9744" cy="10.9086" rx="0.430396" ry="0.258238" transform="rotate(-5.44346 59.9744 10.9086)" fill="#954A83"/>
<ellipse cx="59.6453" cy="9.2597" rx="0.430396" ry="0.258238" transform="rotate(-5.44346 59.6453 9.2597)" fill="#954A83"/>
<ellipse cx="59.7674" cy="7.25706" rx="0.430396" ry="0.258238" transform="rotate(19.6923 59.7674 7.25706)" fill="#954A83"/>
<ellipse cx="61.0482" cy="5.18708" rx="0.430396" ry="0.39006" transform="rotate(19.6923 61.0482 5.18708)" fill="#954A83"/>
<ellipse cx="61.7068" cy="3.53802" rx="0.675188" ry="0.61191" transform="rotate(19.6923 61.7068 3.53802)" fill="#954A83"/>
<ellipse cx="63.3318" cy="5.47845" rx="0.675188" ry="0.61191" transform="rotate(19.6923 63.3318 5.47845)" fill="#954A83"/>
<ellipse cx="63.9786" cy="4.1623" rx="0.400755" ry="0.363196" transform="rotate(19.6923 63.9786 4.1623)" fill="#954A83"/>
<ellipse cx="65.627" cy="3.83271" rx="0.400755" ry="0.363196" transform="rotate(19.6923 65.627 3.83271)" fill="#954A83"/>
<ellipse cx="64.9678" cy="5.48139" rx="0.400755" ry="0.363196" transform="rotate(19.6923 64.9678 5.48139)" fill="#954A83"/>
<ellipse cx="65.9581" cy="5.1518" rx="0.400755" ry="0.363196" transform="rotate(19.6923 65.9581 5.1518)" fill="#954A83"/>
<ellipse cx="65.9581" cy="6.47089" rx="0.400755" ry="0.363196" transform="rotate(19.6923 65.9581 6.47089)" fill="#954A83"/>
<ellipse cx="66.7113" cy="5.91685" rx="0.212385" ry="0.192481" transform="rotate(19.6923 66.7113 5.91685)" fill="#954A83"/>
<ellipse cx="67.3714" cy="7.23595" rx="0.212385" ry="0.192481" transform="rotate(19.6923 67.3714 7.23595)" fill="#954A83"/>
<ellipse cx="66.3822" cy="7.56578" rx="0.212385" ry="0.192481" transform="rotate(19.6923 66.3822 7.56578)" fill="#954A83"/>
<ellipse cx="66.7113" cy="8.55504" rx="0.212385" ry="0.192481" transform="rotate(19.6923 66.7113 8.55504)" fill="#954A83"/>
<ellipse cx="66.0521" cy="9.21446" rx="0.212385" ry="0.192481" transform="rotate(19.6923 66.0521 9.21446)" fill="#954A83"/>
<ellipse cx="65.723" cy="9.87413" rx="0.212385" ry="0.192481" transform="rotate(19.6923 65.723 9.87413)" fill="#954A83"/>
<ellipse cx="70.2846" cy="24.4928" rx="0.508363" ry="0.305018" transform="rotate(6.56946 70.2846 24.4928)" fill="#954A83"/>
<ellipse cx="71.3106" cy="21.2765" rx="0.508363" ry="0.305018" transform="rotate(-17.3536 71.3106 21.2765)" fill="#954A83"/>
<ellipse cx="70.5722" cy="25.858" rx="1.35127" ry="0.810762" transform="rotate(-11.6558 70.5722 25.858)" fill="#954A83"/>
<ellipse cx="71.871" cy="22.8466" rx="1.35127" ry="0.810762" transform="rotate(9.54376 71.871 22.8466)" fill="#954A83"/>
<path d="M67.5841 20.9987C70.0904 23.3731 68.4085 27.5942 67.2543 29.408L63.1321 28.9133C65.0558 28.0339 67.6171 25.2198 62.4726 20.9987C57.3281 16.7776 55.6023 11.8749 55.3824 9.95119C55.2175 8.30231 55.7452 3.71842 60.4939 2.53123C65.2427 1.34404 67.4742 4.1801 68.0788 6.15876C67.2543 3.90529 64.1544 1.11319 59.0099 4.67477C52.5793 9.12675 64.4512 18.0307 67.5841 20.9987Z" fill="#4F227A"/>
</g>
<path d="M62.3709 2.87764C60.9346 2.79793 57.745 3.41721 56.4768 6.53199C57.1345 5.55683 59.2342 3.46074 62.3709 2.87764Z" fill="#7330B3"/>
</svg>
