<svg width="48" height="42" viewBox="0 0 48 42" fill="none" xmlns="http://www.w3.org/2000/svg">
<g id="Group 48">
<g id="Rectangle 3">
<mask id="path-1-inside-1_45_9950" fill="white">
<path d="M0 11C0 4.92487 4.92487 0 11 0H37C43.0751 0 48 4.92487 48 11V29C48 35.0751 43.0751 40 37 40H11C4.92487 40 0 35.0751 0 29V11Z"/>
</mask>
<path d="M0 11C0 4.92487 4.92487 0 11 0H37C43.0751 0 48 4.92487 48 11V29C48 35.0751 43.0751 40 37 40H11C4.92487 40 0 35.0751 0 29V11Z" fill="#2A2E41"/>
<path d="M0 0H48H0ZM48 29C48 35.6274 42.6274 41 36 41H12C5.37258 41 0 35.6274 0 29C0 34.5228 4.92487 39 11 39H37C43.0751 39 48 34.5228 48 29ZM0 40V0V40ZM48 0V40V0Z" fill="#2B2E3F" mask="url(#path-1-inside-1_45_9950)"/>
</g>
<g id="Group 50">
<path id="Vector" d="M23.7462 41.4513C12.6668 41.7863 9.99214 40.102 10.0397 39.2178C11.1819 38.6594 11.0392 37.2634 10.0397 35.5883C9.24018 34.2482 10.3729 32.331 11.0392 31.54C10.0873 29.9579 8.44066 25.677 9.46865 21.2099C11.0677 13.0576 19.6534 10.4611 23.7462 10.1819V41.4513Z" fill="#5C2095"/>
<path id="Vector_2" d="M23.7461 41.4513C34.8255 41.7863 37.5002 40.102 37.4525 39.2178C36.3103 38.6594 36.4531 37.2634 37.4525 35.5883C38.2521 34.2482 37.1193 32.331 36.4531 31.54C37.4048 29.9579 39.0516 25.677 38.0236 21.2099C36.4245 13.0576 27.8389 10.4611 23.7461 10.1819V41.4513Z" fill="#5C2095"/>
<g id="Group 49">
<g id="Mask group">
<mask id="mask0_45_9950" style="mask-type:alpha" maskUnits="userSpaceOnUse" x="9" y="10" width="30" height="32">
<g id="Group">
<path id="Vector_3" d="M23.7442 41.4514C12.6649 41.7864 9.99019 40.1021 10.0378 39.2179C11.18 38.6595 11.0372 37.2635 10.0378 35.5884C9.23822 34.2483 10.3709 32.3312 11.0372 31.5401C10.0854 29.958 8.43871 25.6771 9.46669 21.2101C11.0658 13.0577 19.6514 10.4612 23.7442 10.182V41.4514Z" fill="#5C2095"/>
<path id="Vector_4" d="M23.7441 41.4514C34.8235 41.7864 37.4982 40.1021 37.4506 39.2179C36.3084 38.6595 36.4511 37.2635 37.4506 35.5884C38.2501 34.2483 37.1173 32.3312 36.4511 31.5401C37.4029 29.958 39.0496 25.6771 38.0217 21.2101C36.4226 13.0577 27.8369 10.4612 23.7441 10.182V41.4514Z" fill="#5C2095"/>
</g>
</mask>
<g mask="url(#mask0_45_9950)">
<g id="Group_2">
<path id="Vector_5" d="M15.5647 15.9053C16.432 15.9053 17.1352 15.2178 17.1352 14.3698C17.1352 13.5217 16.432 12.8342 15.5647 12.8342C14.6973 12.8342 13.9941 13.5217 13.9941 14.3698C13.9941 15.2178 14.6973 15.9053 15.5647 15.9053Z" fill="#954A83"/>
<path id="Vector_6" d="M18.7065 16.4636C19.2584 16.4636 19.7059 16.0261 19.7059 15.4864C19.7059 14.9468 19.2584 14.5093 18.7065 14.5093C18.1545 14.5093 17.707 14.9468 17.707 15.4864C17.707 16.0261 18.1545 16.4636 18.7065 16.4636Z" fill="#954A83"/>
<path id="Vector_7" d="M14.4233 18.1388C14.9752 18.1388 15.4227 17.7013 15.4227 17.1616C15.4227 16.6219 14.9752 16.1844 14.4233 16.1844C13.8713 16.1844 13.4238 16.6219 13.4238 17.1616C13.4238 17.7013 13.8713 18.1388 14.4233 18.1388Z" fill="#954A83"/>
<path id="Vector_8" d="M16.9935 17.022C16.757 17.022 16.5652 16.8345 16.5652 16.6032C16.5652 16.3719 16.757 16.1844 16.9935 16.1844C17.2301 16.1844 17.4219 16.3719 17.4219 16.6032C17.4219 16.8345 17.2301 17.022 16.9935 17.022Z" fill="#954A83"/>
<path id="Vector_9" d="M18.7068 14.2302C18.628 14.2302 18.5641 14.1677 18.5641 14.0906C18.5641 14.0135 18.628 13.951 18.7068 13.951C18.7857 13.951 18.8496 14.0135 18.8496 14.0906C18.8496 14.1677 18.7857 14.2302 18.7068 14.2302Z" fill="#954A83"/>
<path id="Vector_10" d="M18.7068 13.1134C18.628 13.1134 18.5641 13.0509 18.5641 12.9738C18.5641 12.8967 18.628 12.8342 18.7068 12.8342C18.7857 12.8342 18.8496 12.8967 18.8496 12.9738C18.8496 13.0509 18.7857 13.1134 18.7068 13.1134Z" fill="#954A83"/>
<path id="Vector_11" d="M13.2807 19.5347C13.0441 19.5347 12.8523 19.3472 12.8523 19.1159C12.8523 18.8846 13.0441 18.6971 13.2807 18.6971C13.5172 18.6971 13.709 18.8846 13.709 19.1159C13.709 19.3472 13.5172 19.5347 13.2807 19.5347Z" fill="#954A83"/>
<path id="Vector_12" d="M15.5658 18.9765C15.3293 18.9765 15.1375 18.789 15.1375 18.5577C15.1375 18.3264 15.3293 18.1389 15.5658 18.1389C15.8024 18.1389 15.9941 18.3264 15.9941 18.5577C15.9941 18.789 15.8024 18.9765 15.5658 18.9765Z" fill="#954A83"/>
<path id="Vector_13" d="M35.8396 20.0931C22.9328 13.7276 14.0901 19.3021 11.2823 22.8851C10.0449 25.0255 7.37025 30.9537 6.57071 37.5426C5.77117 44.1315 27.0827 43.6382 37.8385 42.568C42.5501 37.7287 48.7465 26.4587 35.8396 20.0931Z" fill="#58218C"/>
<path id="Vector_14" d="M12.8535 41.8701C16.6134 40.1483 26.2744 37.8218 34.8409 42.2889C34.384 42.7356 19.9923 42.1959 12.8535 41.8701Z" fill="#5E2A8E"/>
<path id="Vector_15" d="M34.1262 27.4918C26.3593 30.5071 14.9943 26.2354 10.2828 23.7227L9.99721 23.4435C8.66466 23.3505 6.37072 24.3928 7.85558 29.3065C9.34044 34.2203 26.6542 34.6112 35.1257 34.1924C38.0288 30.7025 41.8932 24.4765 34.1262 27.4918Z" fill="#542481"/>
<path id="Vector_16" d="M19.4205 9.90273C15.756 12.462 9.4833 18.9764 13.7095 24.5603C15.1372 26.5146 12.2817 27.6314 14.1378 29.1669C15.4587 30.2598 16.2012 31.7062 18.0121 32.8017C19.0709 33.1745 20.0547 33.5672 20.8482 33.9132C19.6546 33.6315 18.7457 33.2454 18.0121 32.8017C14.3722 31.5199 9.84852 30.4743 9.14064 32.3776C8.22688 34.8345 7.80806 24.188 7.71289 18.5577C9.85452 15.9984 14.2234 10.8799 14.5661 10.8799C14.9088 10.8799 17.7548 10.0423 19.1349 9.62354L19.4205 9.90273Z" fill="#4F227A"/>
<path id="Vector_17" d="M27.9863 10.0423C31.6508 12.6015 37.9235 19.116 33.6974 24.6998C32.2696 26.6541 35.1251 27.7709 33.269 29.3064C31.9481 30.3993 31.2056 31.8458 29.3947 32.9412C28.3359 33.314 27.3521 33.7067 26.5586 34.0527C27.7522 33.771 28.6611 33.3849 29.3947 32.9412C33.0346 31.6595 37.5583 30.6138 38.2662 32.5171C39.1799 34.974 39.5988 24.3275 39.6939 18.6972C37.5523 16.1379 33.1834 11.0194 32.8407 11.0194C32.498 11.0194 29.652 10.1818 28.2719 9.76306L27.9863 10.0423Z" fill="#4F227A"/>
<path id="Vector_18" d="M18.1361 18.6972C17.8996 18.6972 17.7078 18.5097 17.7078 18.2784C17.7078 18.0471 17.8996 17.8596 18.1361 17.8596C18.3727 17.8596 18.5645 18.0471 18.5645 18.2784C18.5645 18.5097 18.3727 18.6972 18.1361 18.6972Z" fill="#954A83"/>
<path id="Vector_19" d="M17.2787 13.1135C17.0421 13.1135 16.8504 12.926 16.8504 12.6947C16.8504 12.4634 17.0421 12.2759 17.2787 12.2759C17.5153 12.2759 17.707 12.4634 17.707 12.6947C17.707 12.926 17.5153 13.1135 17.2787 13.1135Z" fill="#954A83"/>
<path id="Vector_20" d="M17.5635 20.6516C17.1692 20.6516 16.8496 20.3391 16.8496 19.9536C16.8496 19.5681 17.1692 19.2556 17.5635 19.2556C17.9577 19.2556 18.2773 19.5681 18.2773 19.9536C18.2773 20.3391 17.9577 20.6516 17.5635 20.6516Z" fill="#954A83"/>
<path id="Vector_21" d="M18.1357 11.9967C17.7415 11.9967 17.4219 11.6842 17.4219 11.2987C17.4219 10.9132 17.7415 10.6007 18.1357 10.6007C18.53 10.6007 18.8496 10.9132 18.8496 11.2987C18.8496 11.6842 18.53 11.9967 18.1357 11.9967Z" fill="#954A83"/>
<path id="Vector_22" d="M14.4228 21.2099C14.0286 21.2099 13.709 20.8974 13.709 20.5119C13.709 20.1265 14.0286 19.814 14.4228 19.814C14.8171 19.814 15.1367 20.1265 15.1367 20.5119C15.1367 20.8974 14.8171 21.2099 14.4228 21.2099Z" fill="#954A83"/>
<path id="Vector_23" d="M12.9959 20.3723C12.917 20.3723 12.8531 20.3098 12.8531 20.2327C12.8531 20.1556 12.917 20.0931 12.9959 20.0931C13.0747 20.0931 13.1387 20.1556 13.1387 20.2327C13.1387 20.3098 13.0747 20.3723 12.9959 20.3723Z" fill="#954A83"/>
<path id="Vector_24" d="M17.8494 14.2302C17.7706 14.2302 17.7066 14.1677 17.7066 14.0906C17.7066 14.0135 17.7706 13.951 17.8494 13.951C17.9283 13.951 17.9922 14.0135 17.9922 14.0906C17.9922 14.1677 17.9283 14.2302 17.8494 14.2302Z" fill="#954A83"/>
<path id="Vector_25" d="M12.9959 21.7683C12.917 21.7683 12.8531 21.7058 12.8531 21.6287C12.8531 21.5516 12.917 21.4891 12.9959 21.4891C13.0747 21.4891 13.1387 21.5516 13.1387 21.6287C13.1387 21.7058 13.0747 21.7683 12.9959 21.7683Z" fill="#954A83"/>
</g>
</g>
</g>
</g>
<path id="Vector_26" d="M11.7129 29.5857C11.7129 29.5857 19.8511 33.9132 23.706 33.9132V38.2406C16.5672 37.9614 12.4267 40.195 12.4267 40.195C12.4267 40.195 11.1501 37.1141 10.999 35.0299C10.844 32.8918 11.7129 29.5857 11.7129 29.5857Z" fill="#3E304A"/>
<path id="Vector_27" d="M35.6982 29.5857C35.6982 29.5857 27.9883 34.1923 23.7051 33.9132V38.2406C30.8438 37.9614 34.9843 40.195 34.9843 40.195C34.9843 40.195 36.261 37.1141 36.4121 35.0299C36.5671 32.8918 35.6982 29.5857 35.6982 29.5857Z" fill="#3E304A"/>
<g id="Mask group_2">
<mask id="mask1_45_9950" style="mask-type:alpha" maskUnits="userSpaceOnUse" x="10" y="29" width="27" height="12">
<g id="Group_3">
<path id="Vector_28" d="M11.7129 29.5857C11.7129 29.5857 19.8511 33.9132 23.706 33.9132V38.2406C16.5672 37.9614 12.4267 40.195 12.4267 40.195C12.4267 40.195 11.1501 37.1141 10.999 35.0299C10.844 32.8918 11.7129 29.5857 11.7129 29.5857Z" fill="#3E304A"/>
<path id="Vector_29" d="M35.6982 29.5857C35.6982 29.5857 27.9883 34.1923 23.7051 33.9132V38.2406C30.8438 37.9614 34.9843 40.195 34.9843 40.195C34.9843 40.195 36.261 37.1141 36.4121 35.0299C36.5671 32.8918 35.6982 29.5857 35.6982 29.5857Z" fill="#3E304A"/>
</g>
</mask>
<g mask="url(#mask1_45_9950)">
<g id="Group_4">
<path id="Vector_30" d="M15.5684 33.2153C12.9414 32.2102 11.1424 34.0994 10.5713 35.1696L10.4285 35.3092L9.85742 34.1924L11.2852 28.1898L23.8494 32.9361V37.1239C23.8494 37.1239 28.4182 36.426 23.4211 37.1239C18.4239 37.8219 18.8523 34.4716 15.5684 33.2153Z" fill="#3A2A47"/>
<path id="Vector_31" d="M31.9872 33.2153C34.6143 32.2102 36.4132 34.0994 36.9844 35.1696L37.1271 35.3092L37.6982 34.1924L36.2705 28.1898L23.7063 32.9361V37.1239C23.7063 37.1239 19.1374 36.426 24.1346 37.1239C29.1317 37.8219 28.7034 34.4716 31.9872 33.2153Z" fill="#3A2A47"/>
</g>
</g>
</g>
<path id="Vector_32" d="M18.6835 36.8329C17.9079 35.0406 15.5727 31.9315 12.4336 33.8334C12.5292 35.3813 13.9131 38.1481 18.6835 36.8329Z" fill="#372B41"/>
<path id="Vector_33" d="M18.1341 36.5121C17.4985 35.0757 15.5736 32.5884 12.959 34.1299C13.0313 35.3728 14.1675 37.5895 18.1341 36.5121Z" fill="#C09808"/>
<path id="Vector_34" d="M28.8574 36.8329C29.633 35.0406 31.9682 31.9315 35.1073 33.8334C35.0116 35.3813 33.6278 38.1481 28.8574 36.8329Z" fill="#372B41"/>
<path id="Vector_35" d="M29.4062 36.5121C30.0419 35.0757 31.9668 32.5884 34.5813 34.1299C34.509 35.3728 33.3728 37.5895 29.4062 36.5121Z" fill="#C09808"/>
<path id="Vector_36" d="M18.6835 37.1386C17.9079 35.3463 15.5727 32.2372 12.4336 34.1391C12.5292 35.687 13.9131 38.4539 18.6835 37.1386Z" fill="#302639"/>
<path id="Vector_37" d="M18.1341 36.8177C17.4985 35.3814 15.5736 32.894 12.959 34.4355C13.0313 35.6785 14.1675 37.8951 18.1341 36.8177Z" fill="#120F02"/>
<path id="Vector_38" d="M28.8574 37.1386C29.633 35.3463 31.9682 32.2372 35.1073 34.1391C35.0116 35.687 33.6278 38.4539 28.8574 37.1386Z" fill="#302639"/>
<path id="Vector_39" d="M29.4062 36.8177C30.0419 35.3814 31.9668 32.894 34.5813 34.4355C34.509 35.6785 33.3728 37.8951 29.4062 36.8177Z" fill="#120F02"/>
<path id="Vector_40" d="M18.6835 36.8329C17.9079 35.0406 15.5727 31.9315 12.4336 33.8334C12.5292 35.3813 13.9131 38.1481 18.6835 36.8329Z" fill="#372B41"/>
<path id="Vector_41" d="M18.1341 36.5121C17.4985 35.0757 15.5736 32.5884 12.959 34.1299C13.0313 35.3728 14.1675 37.5895 18.1341 36.5121Z" fill="#C09808"/>
<path id="Vector_42" d="M28.8574 36.8329C29.633 35.0406 31.9682 31.9315 35.1073 33.8334C35.0116 35.3813 33.6278 38.1481 28.8574 36.8329Z" fill="#372B41"/>
<path id="Vector_43" d="M29.4062 36.5121C30.0419 35.0757 31.9668 32.5884 34.5813 34.1299C34.509 35.3728 33.3728 37.5895 29.4062 36.5121Z" fill="#C09808"/>
</g>
</g>
</svg>
