<svg width="156" height="128" viewBox="0 0 156 128" fill="none" xmlns="http://www.w3.org/2000/svg">
<g id="Group 188">
<ellipse id="Ellipse 122" cx="77.5" cy="120.5" rx="73.5" ry="7.5" fill="#1A1D29"/>
<g id="Group 183">
<g id="_x35_9">
<g id="Group">
<g id="Group_2">
<g id="Group_3">
<g id="Group_4">
<g id="Group_5">
<g id="Group_6">
<g id="Group_7">
<path id="Vector" d="M146.195 43.8666C142.961 45.7857 139.063 46.7015 134.851 46.258C134.284 46.1992 133.737 46.1194 133.168 46.0202C129.817 45.4025 126.635 43.9715 123.815 41.962C122.011 40.6798 120.339 39.1507 118.901 37.4108C116.303 34.344 114.314 30.6758 113.274 26.7022C112.854 25.2057 112.606 23.6754 112.465 22.1078C112.431 21.746 112.416 21.3634 112.402 21.0008C112.319 18.8259 112.501 16.7414 112.951 14.7881C114.197 9.41573 117.337 5.05976 121.636 2.51495L116.254 5.72656C111.954 8.27149 108.814 12.6273 107.588 17.9989C107.118 19.9531 106.936 22.0375 107.02 24.2125C107.033 24.575 107.068 24.9367 107.102 25.2984C107.222 26.8669 107.503 28.4091 107.883 29.9072C108.964 33.8995 110.92 37.5557 113.518 40.6224C114.957 42.3623 116.609 43.8923 118.412 45.1744C125.188 50.0497 133.923 51.1548 140.792 47.0789L146.195 43.8666Z" fill="#F3A250"/>
</g>
</g>
</g>
<g id="Group_8">
<g id="Group_9">
<g id="Group_10">
<path id="Vector_2" d="M155.41 25.3815C154.901 12.6342 144.867 1.32133 132.981 0.103266C121.116 -1.09541 111.895 8.27377 112.404 21.0007C112.913 33.748 122.968 45.0601 134.853 46.258C146.718 47.4768 155.92 38.1286 155.41 25.3815Z" fill="#FFD475"/>
</g>
</g>
<g id="Group_11">
<g id="Group_12">
<path id="Vector_3" d="M132.865 1.18806C122.323 -0.068447 112.978 8.37155 113.486 20.9554C113.966 33.1626 123.601 44.0378 134.957 45.1842C146.497 46.2845 154.798 37.2468 154.322 25.4323C153.841 13.2251 144.205 2.34994 132.865 1.18806ZM134.477 41.1719C125.275 40.2424 117.467 31.4741 117.064 21.637C116.684 11.8968 123.57 4.34604 133.346 5.18484C142.548 6.12981 150.34 14.9134 150.743 24.7508C151.149 35.1089 143.42 42.1663 134.477 41.1719Z" fill="#FFB961"/>
</g>
</g>
</g>
<g id="Group_13">
<g id="Group_14">
<g id="Group_15">
<path id="Vector_4" d="M149.658 24.7953C149.28 15.4515 141.923 7.1621 133.236 6.26508C124.53 5.389 117.774 12.2432 118.153 21.587C118.532 30.9308 125.888 39.2202 134.595 40.0963C143.281 40.9933 150.036 34.1189 149.658 24.7953Z" fill="#F3A250"/>
</g>
</g>
</g>
<g id="Group_16">
<g id="Group_17">
<g id="Group_18">
<path id="Vector_5" d="M149.658 24.7952C149.279 15.4514 141.922 7.16199 133.235 6.26498C128.174 5.75331 123.757 7.85886 121.055 11.5526C123.709 9.25232 127.254 8.06766 131.202 8.46068C139.889 9.35769 147.246 17.6471 147.624 26.9909C147.773 30.8777 146.696 34.3477 144.721 37.0052C147.943 34.2595 149.873 29.8897 149.658 24.7952Z" fill="#DD8536"/>
</g>
</g>
</g>
<g id="Group_19">
<g id="Group_20">
<g id="Group_21">
<path id="Vector_6" d="M133.17 46.0202C129.818 45.4025 126.637 43.9715 123.817 41.962L118.414 45.1744C121.235 47.2041 124.415 48.6149 127.767 49.2326L133.17 46.0202Z" fill="#DD8536"/>
</g>
</g>
</g>
<g id="Group_22">
<g id="Group_23">
<g id="Group_24">
<path id="Vector_7" d="M118.902 37.4109C116.304 34.3441 114.315 30.6759 113.275 26.7023L107.885 29.9073C108.966 33.8996 110.921 37.5558 113.519 40.6225L118.902 37.4109Z" fill="#DD8536"/>
</g>
</g>
</g>
<g id="Group_25">
<g id="Group_26">
<g id="Group_27">
<path id="Vector_8" d="M112.951 14.7881L107.588 17.9989C107.118 19.953 106.936 22.0375 107.02 24.2125C107.033 24.575 107.068 24.9367 107.102 25.2984L112.465 22.1078C112.431 21.746 112.416 21.3634 112.402 21.0008C112.319 18.8259 112.501 16.7414 112.951 14.7881Z" fill="#DD8536"/>
</g>
</g>
</g>
</g>
<g id="Group_28">
<g id="Group_29">
<path id="Vector_9" d="M119.725 15.3026C119.829 15.0781 120.147 15.0811 120.25 15.3064C120.779 16.4688 121.235 17.4141 121.316 17.3812C121.389 17.3513 121.059 16.3576 120.632 15.1579C120.549 14.925 120.774 14.7006 121.005 14.7886C123.35 15.6857 125.504 16.4656 125.564 16.3211C125.622 16.1823 123.561 15.1687 121.286 14.105C121.062 14.0005 121.064 13.6804 121.288 13.578C122.437 13.0526 123.375 12.5975 123.342 12.5165C123.312 12.4428 122.324 12.7713 121.131 13.1976C120.899 13.2803 120.675 13.0528 120.762 12.8219C123.033 6.78977 122.751 6.74486 120.081 12.5376C119.978 12.762 119.659 12.7591 119.556 12.5337C119.03 11.3781 118.576 10.4339 118.502 10.4638C118.422 10.4966 118.752 11.4936 119.182 12.6847C119.267 12.9178 119.041 13.1432 118.81 13.0551C116.47 12.1608 114.306 11.3825 114.248 11.5213C114.188 11.6657 116.256 12.6769 118.528 13.7383C118.752 13.8426 118.75 14.1624 118.527 14.2651C117.375 14.7948 116.435 15.2497 116.465 15.3234C116.498 15.4043 117.489 15.0757 118.674 14.6429C118.906 14.5583 119.132 14.786 119.045 15.0178C116.8 20.9874 117.022 21.1735 119.725 15.3026Z" fill="white"/>
</g>
</g>
</g>
</g>
<g id="Group_30" opacity="0.7">
<g id="Group_31">
<path id="Vector_10" d="M129.431 35.1911C131.43 36.3793 133.206 36.9101 132.776 37.723C132.351 38.5273 130.357 38.243 128.358 37.0548C126.359 35.8666 125.409 34.2459 125.834 33.4416C126.263 32.6287 127.433 34.0029 129.431 35.1911Z" fill="white"/>
</g>
</g>
<g id="Group_32" opacity="0.7">
<g id="Group_33">
<path id="Vector_11" d="M123.514 31.1072C123.874 30.8261 124.483 31.0058 124.874 31.4963C125.266 31.9867 125.295 32.606 124.934 32.8871C124.582 33.1624 123.979 32.9906 123.588 32.5002C123.197 32.0097 123.161 31.3826 123.514 31.1072Z" fill="white"/>
</g>
</g>
</g>
</g>
<g id="Group 177">
<path id="Vector_12" d="M141.337 24.5857L141.337 24.5857C142 25.2912 142.319 26.2469 142.379 27.3669L142.38 27.369C142.409 27.9531 142.35 28.4833 142.194 28.9524L142.194 28.953C142.041 29.4129 141.813 29.8058 141.502 30.1202C141.196 30.4296 140.807 30.6788 140.345 30.8738C139.891 31.0654 139.408 31.205 138.897 31.2942M141.337 24.5857L138.739 30.8069M141.337 24.5857C140.927 24.1497 140.428 23.8133 139.853 23.5672M141.337 24.5857L139.853 23.5672M138.897 31.2942L138.739 30.8069M138.897 31.2942C138.897 31.2942 138.897 31.2942 138.897 31.2942L138.739 30.8069M138.897 31.2942C138.521 31.36 138.104 31.4092 137.647 31.4427M138.739 30.8069C138.261 30.8905 137.707 30.947 137.077 30.9772M137.647 31.4427L137.577 30.9772H137.077M137.647 31.4427L138.012 33.873L138.086 34.3675H137.586H135.8H135.3L135.226 33.873L134.873 31.5163M137.647 31.4427C137.494 31.4539 137.337 31.4634 137.176 31.4711L137.077 30.9772M137.077 30.9772L139.853 23.5672M139.853 23.5672C140.062 23.339 140.223 23.0776 140.332 22.782C140.55 22.1898 140.544 21.5014 140.354 20.7431C140.217 20.1781 139.978 19.6677 139.627 19.2253L139.627 19.2252C139.279 18.7859 138.846 18.4351 138.336 18.1736C137.856 17.9274 137.349 17.7416 136.818 17.6142L136.818 17.6142C136.426 17.52 135.999 17.4464 135.54 17.3925L135.177 14.9764L135.103 14.482H134.603H132.817H132.317L132.391 14.9764L132.735 17.2686C132.61 17.2704 132.472 17.2728 132.322 17.2758L131.977 14.9764L131.903 14.482H131.403H129.617H129.117L129.191 14.9764L129.547 17.3526C129.368 17.3543 129.16 17.3552 128.924 17.3552L126.465 17.3438L125.962 17.3414L126.037 17.8382L126.316 19.7007L126.39 20.1952H126.89H128.177C128.401 20.1952 128.523 20.2443 128.588 20.2881C128.641 20.3238 128.705 20.388 128.759 20.5253L129.167 23.2492L129.24 23.7322L129.242 23.7437L129.314 24.2267L129.92 28.2644C129.917 28.3034 129.911 28.3292 129.906 28.3451C129.899 28.3636 129.894 28.3693 129.893 28.3702L129.893 28.3702L129.893 28.3703C129.892 28.3711 129.887 28.3756 129.872 28.3807C129.854 28.3865 129.822 28.3935 129.766 28.3935H128.479H128.058L128.048 28.8045L128 30.8828L127.987 31.4606H128.58H130.899C131.043 31.4606 131.253 31.4625 131.531 31.4659M131.531 31.4659C131.531 31.4659 131.531 31.4659 131.531 31.4659L131.464 30.9715L131.532 31.4659C131.532 31.4659 131.531 31.4659 131.531 31.4659ZM131.531 31.4659C131.578 31.4666 131.622 31.4671 131.664 31.4677M131.664 31.4677L132.025 33.873L132.099 34.3675H132.599H134.386H134.886L134.811 33.873L134.457 31.5135M131.664 31.4677C131.879 31.4703 132.046 31.4717 132.165 31.4717L132.091 30.9772H131.591L131.664 31.4677ZM134.457 31.5135C134.585 31.5148 134.723 31.5157 134.873 31.5163M134.457 31.5135L134.383 31.0191C134.641 31.0215 134.946 31.0227 135.299 31.0227M134.457 31.5135C134.265 31.5117 134.098 31.5092 133.956 31.5059L134.237 33.3786L134.311 33.873L135.299 31.0227M134.873 31.5163L134.799 31.0227H135.299M134.873 31.5163C135.027 31.5169 135.194 31.5172 135.373 31.5172L135.652 33.3786L135.726 33.873H136.226H137.012L135.299 31.0227M128.506 30.9662L128.517 30.4717H128.432L128.506 30.9662ZM128.506 30.9662H129.013L129.011 31.0496L128.506 30.9662ZM133.189 22.8242C133.37 22.8265 133.51 22.826 133.614 22.823L133.189 22.8242ZM133.189 22.8242L132.812 20.3134C133.048 20.3097 133.246 20.3061 133.406 20.3024C133.547 20.2993 133.752 20.3072 134.031 20.3294L133.189 22.8242ZM135.282 20.5771L135.282 20.577C135.058 20.4973 134.865 20.4437 134.7 20.4125C134.526 20.3795 134.305 20.3511 134.031 20.3294L135.282 20.5771ZM135.282 20.5771C135.484 20.6487 135.622 20.7264 135.713 20.7986L135.713 20.799M135.282 20.5771L135.713 20.799M135.713 20.799C135.811 20.8761 135.909 20.9825 136.004 21.1287L136.004 21.1293M135.713 20.799L136.004 21.1293M136.004 21.1293C136.079 21.2439 136.136 21.3881 136.164 21.5739C136.188 21.732 136.182 21.8625 136.155 21.9718L136.155 21.972M136.004 21.1293L136.155 21.972M136.155 21.972C136.129 22.0729 136.084 22.1511 136.018 22.2144L136.018 22.2144M136.155 21.972L136.018 22.2144M136.018 22.2144C135.914 22.315 135.807 22.4009 135.696 22.4729L135.696 22.473M136.018 22.2144L135.696 22.473M135.696 22.473C135.614 22.5261 135.487 22.5806 135.299 22.6258L135.299 22.6258M135.696 22.473L135.299 22.6258M135.299 22.6258C135.084 22.6775 134.9 22.7172 134.746 22.7454L134.745 22.7454M135.299 22.6258L134.745 22.7454M134.745 22.7454C134.608 22.7705 134.423 22.7899 134.182 22.8006M134.745 22.7454L134.182 22.8006M133.597 25.5449L134.026 28.4111C134.222 28.4141 134.384 28.4158 134.513 28.4158C134.649 28.4158 134.845 28.4104 135.103 28.3993C135.359 28.3881 135.572 28.3736 135.746 28.3559C135.917 28.3385 136.119 28.3087 136.355 28.2649L133.597 25.5449ZM133.597 25.5449C133.617 25.5444 133.638 25.5439 133.66 25.5433C133.66 25.5433 133.66 25.5433 133.66 25.5433L133.597 25.5449ZM134.182 22.8006C133.929 22.8119 133.74 22.8194 133.614 22.823L134.182 22.8006ZM135.974 25.6588C136.184 25.699 136.424 25.7621 136.695 25.8509L136.695 25.8509C136.943 25.9324 137.124 26.0236 137.251 26.1142C137.378 26.2055 137.499 26.3269 137.611 26.4879L137.611 26.4884C137.702 26.6188 137.768 26.7781 137.799 26.9795L135.974 25.6588Z" fill="#CF9DFF" stroke="#DD8536"/>
<path id="Vector_13" d="M140.989 24.3736C140.455 23.8059 139.72 23.416 138.784 23.2041C139.85 22.6286 140.209 21.652 139.864 20.2739C139.742 19.7742 139.536 19.3412 139.245 18.9741C138.954 18.6069 138.591 18.3117 138.155 18.0884C137.72 17.8648 137.257 17.6946 136.768 17.5773C136.279 17.46 135.725 17.3748 135.106 17.3218L134.677 14.46H132.891L133.309 17.2423C133 17.2423 132.529 17.2499 131.897 17.265L131.477 14.46H129.691L130.12 17.3218C129.866 17.3294 129.492 17.3333 128.997 17.3333L126.537 17.3218L126.816 19.1843H128.103C128.691 19.1843 129.073 19.4417 129.251 19.9565L129.74 23.2158C129.817 23.2158 129.88 23.2197 129.927 23.2273H129.742L130.426 27.7923C130.422 28.1783 130.227 28.3715 129.841 28.3715H128.554L128.506 30.4497H130.825C130.972 30.4497 131.185 30.4517 131.464 30.4551C131.743 30.4589 131.952 30.4608 132.091 30.4608L132.525 33.3566H134.311L133.882 30.4949C134.208 30.5026 134.68 30.5063 135.299 30.5063L135.726 33.3566H137.512L137.077 30.4608C137.707 30.4306 138.261 30.3741 138.739 30.2905C139.218 30.207 139.668 30.0766 140.089 29.8985C140.511 29.7207 140.853 29.4991 141.114 29.2342C141.376 28.9694 141.575 28.6324 141.711 28.2235C141.847 27.8146 141.901 27.3414 141.875 26.8037C141.818 25.7517 141.522 24.9415 140.989 24.3736ZM132.239 19.3089C132.293 19.3089 132.445 19.3069 132.696 19.3031C132.947 19.2992 133.155 19.2955 133.321 19.2917C133.486 19.2879 133.712 19.2974 133.998 19.3201C134.283 19.3428 134.525 19.3732 134.724 19.411C134.923 19.4487 135.145 19.5112 135.39 19.5983C135.635 19.6853 135.837 19.7913 135.994 19.9162C136.152 20.0411 136.294 20.2002 136.419 20.3933C136.545 20.5863 136.627 20.8077 136.664 21.0575C136.696 21.2695 136.69 21.4626 136.647 21.6369C136.604 21.811 136.521 21.9567 136.399 22.0741C136.278 22.1915 136.15 22.2938 136.016 22.3807C135.882 22.4677 135.705 22.5378 135.485 22.5908C135.265 22.6438 135.072 22.6854 134.907 22.7157C134.741 22.746 134.532 22.7668 134.279 22.7781C134.025 22.7894 133.833 22.7972 133.702 22.8009C133.571 22.8046 133.391 22.8046 133.163 22.8009C132.934 22.7972 132.801 22.7952 132.762 22.7952L132.239 19.3088L132.239 19.3089ZM138.275 27.0424C138.228 27.2166 138.156 27.3681 138.059 27.4969C137.963 27.6253 137.827 27.739 137.652 27.8373C137.478 27.9359 137.306 28.0152 137.137 28.0758C136.968 28.1366 136.762 28.1893 136.518 28.2349C136.273 28.2804 136.057 28.3124 135.871 28.3314C135.684 28.3504 135.46 28.3655 135.199 28.3769C134.938 28.388 134.734 28.3938 134.587 28.3938C134.44 28.3938 134.254 28.3917 134.03 28.388C133.805 28.3845 133.661 28.3826 133.6 28.3826L133.024 24.544C133.086 24.544 133.269 24.5403 133.573 24.5326C133.877 24.525 134.126 24.5214 134.319 24.5214C134.513 24.5214 134.781 24.5326 135.125 24.5555C135.468 24.578 135.759 24.612 135.998 24.6574C136.237 24.7029 136.5 24.7728 136.789 24.8676C137.078 24.9622 137.318 25.0776 137.508 25.2139C137.699 25.3504 137.868 25.5242 138.015 25.7363C138.163 25.9482 138.258 26.1905 138.299 26.4631C138.33 26.6753 138.323 26.8681 138.275 27.0424Z" fill="#CF9DFF"/>
<path id="Vector_14" d="M140.989 23.8572C140.455 23.2895 139.72 22.8996 138.784 22.6876C139.85 22.1122 140.209 21.1356 139.864 19.7575C139.742 19.2578 139.536 18.8247 139.245 18.4576C138.954 18.0905 138.591 17.7953 138.155 17.572C137.72 17.3484 137.257 17.1782 136.768 17.0609C136.279 16.9435 135.725 16.8583 135.106 16.8054L134.677 13.9436H132.891L133.309 16.7259C133 16.7259 132.529 16.7334 131.897 16.7486L131.477 13.9436H129.691L130.12 16.8054C129.866 16.813 129.492 16.8169 128.997 16.8169L126.537 16.8054L126.816 18.6679H128.103C128.691 18.6679 129.073 18.9253 129.251 19.4401L129.74 22.6994C129.817 22.6994 129.88 22.7033 129.927 22.7108H129.742L130.426 27.2759C130.422 27.6619 130.227 27.8551 129.841 27.8551H128.554L128.506 29.9333H130.825C130.972 29.9333 131.185 29.9352 131.464 29.9387C131.743 29.9425 131.952 29.9444 132.091 29.9444L132.525 32.8402H134.311L133.882 29.9784C134.208 29.9862 134.68 29.9899 135.299 29.9899L135.726 32.8402H137.512L137.077 29.9444C137.707 29.9142 138.261 29.8577 138.739 29.7741C139.218 29.6905 139.668 29.5602 140.089 29.3821C140.511 29.2043 140.853 28.9827 141.114 28.7177C141.376 28.453 141.575 28.1159 141.711 27.707C141.847 27.2981 141.901 26.825 141.875 26.2873C141.818 25.2352 141.522 24.4251 140.989 23.8572ZM132.239 18.7924C132.293 18.7924 132.445 18.7905 132.696 18.7867C132.947 18.7828 133.155 18.7791 133.321 18.7753C133.486 18.7715 133.712 18.781 133.998 18.8037C134.283 18.8264 134.525 18.8568 134.724 18.8945C134.923 18.9323 135.145 18.9948 135.39 19.0819C135.635 19.1689 135.837 19.2749 135.994 19.3998C136.152 19.5247 136.294 19.6838 136.419 19.8768C136.545 20.0699 136.627 20.2913 136.664 20.5411C136.696 20.7531 136.69 20.9462 136.647 21.1204C136.604 21.2945 136.521 21.4403 136.399 21.5577C136.278 21.675 136.15 21.7773 136.016 21.8643C135.882 21.9513 135.705 22.0214 135.485 22.0743C135.265 22.1274 135.072 22.169 134.907 22.1992C134.741 22.2295 134.532 22.2504 134.279 22.2617C134.025 22.273 133.833 22.2807 133.702 22.2845C133.571 22.2882 133.391 22.2882 133.163 22.2845C132.934 22.2807 132.801 22.2787 132.762 22.2787L132.239 18.7924L132.239 18.7924ZM138.275 26.5259C138.228 26.7002 138.156 26.8517 138.059 26.9805C137.963 27.1089 137.827 27.2226 137.652 27.3209C137.478 27.4195 137.306 27.4988 137.137 27.5594C136.968 27.6202 136.762 27.6729 136.518 27.7185C136.273 27.764 136.057 27.7959 135.871 27.815C135.684 27.834 135.46 27.849 135.199 27.8605C134.938 27.8716 134.734 27.8774 134.587 27.8774C134.44 27.8774 134.254 27.8753 134.03 27.8716C133.805 27.8681 133.661 27.8662 133.6 27.8662L133.024 24.0276C133.086 24.0276 133.269 24.0239 133.573 24.0162C133.877 24.0086 134.126 24.005 134.319 24.005C134.513 24.005 134.781 24.0162 135.125 24.0391C135.468 24.0616 135.759 24.0956 135.998 24.141C136.237 24.1865 136.5 24.2564 136.789 24.3512C137.078 24.4457 137.318 24.5612 137.508 24.6974C137.699 24.8339 137.868 25.0078 138.015 25.2199C138.163 25.4318 138.258 25.6741 138.299 25.9467C138.33 26.1589 138.323 26.3517 138.275 26.5259Z" fill="#CF9DFF"/>
<path id="Vector_15" d="M141.505 23.8572C140.972 23.2895 140.237 22.8996 139.3 22.6876C140.366 22.1122 140.726 21.1356 140.38 19.7575C140.259 19.2578 140.053 18.8247 139.762 18.4576C139.471 18.0905 139.108 17.7953 138.672 17.572C138.237 17.3484 137.774 17.1782 137.285 17.0609C136.796 16.9435 136.242 16.8583 135.623 16.8054L135.194 13.9436H133.408L133.825 16.7259C133.516 16.7259 133.046 16.7334 132.414 16.7486L131.993 13.9436H130.207L130.637 16.8054C130.383 16.813 130.008 16.8169 129.513 16.8169L127.053 16.8054L127.333 18.6679H128.62C129.207 18.6679 129.59 18.9253 129.768 19.4401L130.257 22.6994C130.334 22.6994 130.396 22.7033 130.444 22.7108H130.258L130.943 27.2759C130.939 27.6619 130.744 27.8551 130.357 27.8551H129.07L129.022 29.9333H131.342C131.489 29.9333 131.701 29.9352 131.98 29.9387C132.259 29.9425 132.468 29.9444 132.607 29.9444L133.042 32.8402H134.828L134.399 29.9784C134.725 29.9862 135.197 29.9899 135.815 29.9899L136.243 32.8402H138.028L137.594 29.9444C138.224 29.9142 138.778 29.8577 139.256 29.7741C139.734 29.6905 140.184 29.5602 140.606 29.3821C141.028 29.2043 141.369 28.9827 141.631 28.7177C141.893 28.453 142.091 28.1159 142.228 27.707C142.363 27.2981 142.418 26.825 142.391 26.2873C142.334 25.2352 142.039 24.4251 141.505 23.8572ZM132.755 18.7924C132.809 18.7924 132.962 18.7905 133.213 18.7867C133.463 18.7828 133.671 18.7791 133.837 18.7753C134.003 18.7715 134.228 18.781 134.514 18.8037C134.8 18.8264 135.042 18.8568 135.241 18.8945C135.44 18.9323 135.662 18.9948 135.907 19.0819C136.152 19.1689 136.353 19.2749 136.511 19.3998C136.669 19.5247 136.811 19.6838 136.936 19.8768C137.062 20.0699 137.143 20.2913 137.181 20.5411C137.213 20.7531 137.207 20.9462 137.163 21.1204C137.12 21.2945 137.037 21.4403 136.916 21.5577C136.795 21.675 136.667 21.7773 136.533 21.8643C136.399 21.9513 136.222 22.0214 136.002 22.0743C135.782 22.1274 135.589 22.169 135.424 22.1992C135.258 22.2295 135.049 22.2504 134.795 22.2617C134.542 22.273 134.349 22.2807 134.219 22.2845C134.088 22.2882 133.908 22.2882 133.679 22.2845C133.451 22.2807 133.317 22.2787 133.278 22.2787L132.755 18.7924L132.755 18.7924ZM138.792 26.5259C138.744 26.7002 138.673 26.8517 138.576 26.9805C138.479 27.1089 138.343 27.2226 138.169 27.3209C137.994 27.4195 137.822 27.4988 137.654 27.5594C137.485 27.6202 137.278 27.6729 137.034 27.7185C136.789 27.764 136.574 27.7959 136.387 27.815C136.201 27.834 135.977 27.849 135.716 27.8605C135.455 27.8716 135.251 27.8774 135.104 27.8774C134.957 27.8774 134.771 27.8753 134.546 27.8716C134.321 27.8681 134.178 27.8662 134.116 27.8662L133.54 24.0276C133.602 24.0276 133.785 24.0239 134.09 24.0162C134.394 24.0086 134.643 24.005 134.836 24.005C135.029 24.005 135.298 24.0162 135.641 24.0391C135.985 24.0616 136.276 24.0956 136.515 24.141C136.754 24.1865 137.017 24.2564 137.306 24.3512C137.594 24.4457 137.834 24.5612 138.025 24.6974C138.215 24.8339 138.384 25.0078 138.532 25.2199C138.68 25.4318 138.774 25.6741 138.815 25.9467C138.847 26.1589 138.839 26.3517 138.792 26.5259Z" fill="#A140FD"/>
</g>
</g>
<g id="Group 180">
<g id="_x35_9_2">
<g id="Group_34">
<g id="Group_35">
<g id="Group_36">
<g id="Group_37">
<g id="Group_38">
<g id="Group_39">
<g id="Group_40">
<path id="Vector_16" d="M112.896 92.9417C106.634 96.6578 99.0863 98.4312 90.93 97.5725C89.832 97.4585 88.7718 97.304 87.6708 97.1119C81.1811 95.9159 75.0212 93.145 69.5607 89.2538C66.0677 86.771 62.8299 83.8101 60.0449 80.4411C55.0133 74.5026 51.1625 67.3997 49.1489 59.7052C48.3348 56.8074 47.8551 53.8443 47.5823 50.8087C47.5163 50.1083 47.4879 49.3674 47.461 48.6652C47.2994 44.4538 47.6523 40.4176 48.5226 36.6352C50.9355 26.2323 57.0166 17.7976 65.3413 12.8699L54.9182 19.0887C46.5935 24.0166 40.5122 32.4512 38.1385 42.8525C37.2292 46.6364 36.8763 50.6726 37.0379 54.8843C37.0648 55.5862 37.1308 56.2866 37.1968 56.987C37.4303 60.0242 37.9744 63.0105 38.7107 65.9113C40.8039 73.6418 44.5902 80.7217 49.6216 86.6599C52.4068 90.0289 55.6056 92.9916 59.0985 95.4742C72.2185 104.914 89.1337 107.054 102.434 99.1621L112.896 92.9417Z" fill="#F3A250"/>
</g>
</g>
</g>
<g id="Group_41">
<g id="Group_42">
<g id="Group_43">
<path id="Vector_17" d="M130.737 57.1479C129.751 32.4645 110.321 10.5587 87.3057 8.20008C64.3308 5.879 46.4761 24.0212 47.4607 48.6653C48.4468 73.3486 67.916 95.253 90.9297 97.5726C113.906 99.9327 131.723 81.831 130.737 57.1479Z" fill="#FFD475"/>
</g>
</g>
<g id="Group_44">
<g id="Group_45">
<path id="Vector_18" d="M87.0843 10.3007C66.6703 7.86763 48.5751 24.2106 49.5578 48.5775C50.4875 72.2152 69.1459 93.2735 91.1343 95.4933C113.48 97.624 129.553 80.1236 128.631 57.2465C127.701 33.6088 109.043 12.5505 87.0843 10.3007ZM90.2042 87.724C72.3858 85.9243 57.267 68.9456 56.487 49.8972C55.7506 31.0366 69.0849 16.4157 88.0144 18.0399C105.833 19.8697 120.922 36.8781 121.702 55.9268C122.489 75.9839 107.522 89.6496 90.2042 87.724Z" fill="#FFB961"/>
</g>
</g>
</g>
<g id="Group_46">
<g id="Group_47">
<g id="Group_48">
<path id="Vector_19" d="M119.602 56.0128C118.869 37.9199 104.623 21.8685 87.8026 20.1315C70.9441 18.4351 57.8625 31.7074 58.5958 49.8003C59.329 67.8933 73.5747 83.9447 90.433 85.6411C107.254 87.3781 120.334 74.0667 119.602 56.0128Z" fill="#F3A250"/>
</g>
</g>
</g>
<g id="Group_49">
<g id="Group_50">
<g id="Group_51">
<path id="Vector_20" d="M119.603 56.0128C118.87 37.9199 104.624 21.8685 87.8032 20.1315C78.0017 19.1407 69.4489 23.2178 64.2168 30.3703C69.3572 25.9161 76.2209 23.6221 83.8655 24.3832C100.686 26.1201 114.932 42.1715 115.665 60.2645C115.954 67.7908 113.869 74.51 110.043 79.6558C116.283 74.3392 120.02 65.8776 119.603 56.0128Z" fill="#DD8536"/>
</g>
</g>
</g>
<g id="Group_52">
<g id="Group_53">
<g id="Group_54">
<path id="Vector_21" d="M87.6709 97.1119C81.1812 95.9159 75.0213 93.145 69.5608 89.2538L59.0986 95.4742C64.5607 99.4044 70.7189 102.136 77.2087 103.332L87.6709 97.1119Z" fill="#DD8536"/>
</g>
</g>
</g>
<g id="Group_55">
<g id="Group_56">
<g id="Group_57">
<path id="Vector_22" d="M60.0452 80.4411C55.0135 74.5026 51.1627 67.3997 49.1491 59.7053L38.7109 65.9114C40.8041 73.6419 44.5904 80.7217 49.6218 86.66L60.0452 80.4411Z" fill="#DD8536"/>
</g>
</g>
</g>
<g id="Group_58">
<g id="Group_59">
<g id="Group_60">
<path id="Vector_23" d="M48.5226 36.6352L38.1385 42.8525C37.2292 46.6365 36.8763 50.6727 37.0379 54.8843C37.0648 55.5863 37.1308 56.2867 37.1968 56.9871L47.5823 50.8088C47.5163 50.1084 47.4879 49.3674 47.461 48.6653C47.2994 44.4538 47.6523 40.4176 48.5226 36.6352Z" fill="#DD8536"/>
</g>
</g>
</g>
</g>
<g id="Group_61">
<g id="Group_62">
<path id="Vector_24" d="M61.6412 37.6315C61.8413 37.1969 62.4585 37.2026 62.6571 37.639C63.6814 39.8897 64.5651 41.7201 64.7211 41.6564C64.863 41.5985 64.2245 39.6744 63.3961 37.3513C63.2354 36.9004 63.6727 36.4659 64.1182 36.6363C68.659 38.3734 72.8299 39.8835 72.9468 39.6038C73.0592 39.3349 69.0684 37.3723 64.6623 35.3126C64.2294 35.1102 64.2331 34.4903 64.6667 34.292C66.8911 33.2748 68.7074 32.3934 68.6435 32.2366C68.5855 32.0939 66.6722 32.7299 64.3623 33.5555C63.9139 33.7157 63.4802 33.2751 63.6485 32.828C68.0458 21.1476 67.4996 21.0606 62.3297 32.2775C62.1294 32.7119 61.5124 32.7063 61.3138 32.27C60.2952 30.0322 59.4147 28.204 59.273 28.2618C59.1172 28.3254 59.7562 30.2559 60.5898 32.5624C60.7529 33.0136 60.3154 33.4502 59.8688 33.2795C55.337 31.5479 51.148 30.0408 51.0357 30.3096C50.9189 30.5892 54.924 32.5473 59.3236 34.6024C59.7561 34.8045 59.753 35.4236 59.3202 35.6226C57.0899 36.6482 55.2693 37.5291 55.3274 37.6718C55.3911 37.8285 57.3101 37.1922 59.606 36.3542C60.0549 36.1904 60.492 36.6313 60.3232 37.0801C55.9758 48.6394 56.4062 48.9997 61.6412 37.6315Z" fill="white"/>
</g>
</g>
</g>
</g>
<g id="Group_63" opacity="0.7">
<g id="Group_64">
<path id="Vector_25" d="M80.4341 76.1428C84.3045 78.4437 87.7423 79.4716 86.911 81.0456C86.0885 82.603 82.2267 82.0525 78.3562 79.7516C74.4859 77.4508 72.6458 74.3126 73.4684 72.7552C74.2997 71.1811 76.5637 73.842 80.4341 76.1428Z" fill="white"/>
</g>
</g>
<g id="Group_65" opacity="0.7">
<g id="Group_66">
<path id="Vector_26" d="M68.9786 68.235C69.6761 67.6907 70.8545 68.0387 71.6123 68.9884C72.3701 69.9381 72.4262 71.1371 71.7288 71.6815C71.0456 72.2146 69.8794 71.882 69.1216 70.9323C68.3638 69.9826 68.2955 68.7682 68.9786 68.235Z" fill="white"/>
</g>
</g>
</g>
</g>
<g id="Group 177_2">
<path id="Vector_27" d="M103.164 55.892L103.164 55.892C104.326 57.1293 104.922 58.8436 105.036 60.9487L105.036 60.9508C105.09 62.0383 104.98 63.0117 104.698 63.8636L104.697 63.8642C104.417 64.7069 104.003 65.4155 103.447 65.9777C102.896 66.5353 102.186 66.992 101.329 67.3535C100.481 67.7117 99.5765 67.9735 98.6176 68.141M103.164 55.892L98.4597 67.6537M103.164 55.892C102.267 54.9377 101.118 54.2368 99.7426 53.7727C100.369 53.2612 100.824 52.639 101.095 51.9032C101.482 50.8537 101.479 49.6141 101.128 48.2107C100.876 47.1777 100.445 46.2618 99.8219 45.4756L99.8218 45.4755C99.2009 44.6925 98.4277 44.0652 97.5095 43.5947C96.622 43.1391 95.6821 42.7939 94.6935 42.5567L94.6935 42.5567C93.8395 42.3518 92.8936 42.1975 91.858 42.0922L91.0942 37L91.02 36.5055H90.52H87.0622H86.5622L86.6363 37L87.3706 41.8957M103.164 55.892L87.3706 41.8957M98.6176 68.141L98.4597 67.6537M98.6176 68.141C98.6176 68.141 98.6176 68.141 98.6176 68.141L98.4597 67.6537M98.6176 68.141C97.7904 68.2855 96.8547 68.3884 95.8123 68.4517M98.4597 67.6537C97.5337 67.8155 96.4611 67.9249 95.2421 67.9834M95.8123 68.4517L95.7421 67.9834H95.2421M95.8123 68.4517L96.5831 73.5907L96.6573 74.0852H96.1573H92.6993H92.1993L92.1252 73.5907L91.3715 68.5655M95.8123 68.4517C95.6573 68.4611 95.4999 68.4696 95.3402 68.4773L95.2421 67.9834M95.2421 67.9834L87.3706 41.8957M87.3706 41.8957C86.908 41.9001 86.3294 41.91 85.6357 41.9254L84.897 37L84.8228 36.5055H84.3228H80.8645H80.3645L80.4387 37L81.1973 42.0581C80.7573 42.0654 80.1993 42.0692 79.5219 42.0692C79.5215 42.0692 79.5212 42.0692 79.5208 42.0692L74.7593 42.047L74.2566 42.0447L74.3311 42.5415L74.8721 46.1479L74.9462 46.6424H75.4462H77.9386C78.4375 46.6424 78.7867 46.7517 79.031 46.9161C79.2596 47.0699 79.455 47.3113 79.5947 47.6928L80.463 53.4821L80.5339 53.9544L80.5372 53.9766L80.608 54.4489L81.8568 62.7749C81.8483 63.0491 81.7755 63.1993 81.6896 63.2844C81.6011 63.3718 81.4453 63.4433 81.1548 63.4433H78.6625H78.2408L78.2313 63.8543L78.1387 67.8786L78.1254 68.4564H78.7182H83.2094C83.4904 68.4564 83.8996 68.4601 84.4394 68.4667M84.4394 68.4667C84.4393 68.4667 84.4392 68.4667 84.439 68.4667L84.3718 67.9723L84.4398 68.4667C84.4396 68.4667 84.4395 68.4667 84.4394 68.4667ZM84.4394 68.4667C84.7139 68.4705 84.954 68.4733 85.1597 68.4752M85.1597 68.4752L85.9269 73.5907L86.0011 74.0852H86.5011H89.96H90.46L90.3858 73.5907L89.6303 68.5533M85.1597 68.4752C85.3589 68.477 85.5257 68.4779 85.6601 68.4779L85.5859 67.9834H85.0859L85.1597 68.4752ZM89.6303 68.5533C90.1049 68.5602 90.6855 68.5642 91.3715 68.5655M89.6303 68.5533L89.5561 68.0588C90.1392 68.0674 90.8862 68.0715 91.7974 68.0715M89.6303 68.5533C89.4474 68.5506 89.2802 68.5475 89.1288 68.5439L89.8116 73.0962L89.8858 73.5907L91.7974 68.0715M91.3715 68.5655L91.2974 68.0715H91.7974M91.3715 68.5655C91.5323 68.5658 91.699 68.566 91.8715 68.566L92.551 73.0962L92.6252 73.5907H93.1252H95.5831L91.7974 68.0715M78.644 67.962L78.6554 67.4675H78.5699L78.644 67.962ZM78.644 67.962H79.1513L79.1494 68.0454L78.644 67.962ZM87.3121 52.652L86.4461 46.8782C86.5598 46.8766 86.691 46.8747 86.8397 46.8724L86.8398 46.8724C87.3259 46.8649 87.7303 46.8576 88.0529 46.8502M87.3121 52.652L89.2781 46.4109L89.3115 46.9038C88.7657 46.8604 88.3487 46.8435 88.0529 46.8502M87.3121 52.652C87.3967 52.6534 87.4913 52.6549 87.5958 52.6566C88.0357 52.6638 88.375 52.6637 88.6175 52.6567C88.8665 52.6496 89.2352 52.6348 89.7259 52.613C90.2038 52.5917 90.5857 52.5527 90.8776 52.4993L90.8778 52.4993C91.1873 52.4427 91.552 52.3641 91.9723 52.2628L91.9725 52.2627C92.3666 52.1679 92.6596 52.0478 92.8664 51.9133L92.8665 51.9132C93.1027 51.7597 93.3304 51.578 93.5481 51.3675L93.9292 51.7436L87.3121 52.652ZM88.0529 46.8502C88.0528 46.8502 88.0528 46.8502 88.0527 46.8502L87.9672 46.3558L88.0529 46.8502ZM96.0565 62.4658L96.057 62.4655C96.3563 62.297 96.5729 62.1111 96.7207 61.9152C96.8739 61.7107 96.9919 61.4653 97.0715 61.1735C97.1449 60.9035 97.1597 60.5961 97.1068 60.2424L96.0565 62.4658ZM96.0565 62.4658C95.737 62.6462 95.426 62.7895 95.1248 62.8977L95.1244 62.8978C94.8272 63.0049 94.4523 63.1014 93.9951 63.1868M96.0565 62.4658L96.355 62.9033C96.0171 63.0942 95.6843 63.2479 95.3579 63.3652C95.031 63.4829 94.6307 63.585 94.1579 63.6732M94.1579 63.6732L93.9951 63.1868M94.1579 63.6732C93.6839 63.7613 93.2669 63.8232 92.9052 63.8601L94.1579 63.6732ZM93.9951 63.1868C93.5302 63.2732 93.1263 63.3329 92.7809 63.3682M93.9951 63.1868L92.7809 63.3682M92.7809 63.3682C92.4322 63.4036 92.0091 63.4323 91.5095 63.4542C91.006 63.4757 90.6191 63.4865 90.3456 63.4865C90.0653 63.4865 89.7085 63.4825 89.2743 63.4754L89.2739 63.4754C89.1478 63.4734 89.0346 63.4716 88.9342 63.4702L87.9657 57.0124C88.1244 57.0089 88.3171 57.0043 88.543 56.9985C89.1297 56.9838 89.6067 56.9771 89.9754 56.9771C90.3332 56.9771 90.8401 56.9979 91.5011 57.0419L91.5015 57.0419C92.1534 57.0847 92.6941 57.1484 93.128 57.2309C93.5621 57.3137 94.0484 57.4423 94.5894 57.6197L94.5895 57.6197C95.1087 57.7899 95.5136 57.9893 95.819 58.2076C96.1248 58.4267 96.4035 58.7107 96.6538 59.0701L96.6542 59.0707C96.8838 59.3995 97.0382 59.7857 97.1067 60.2423L92.7809 63.3682Z" fill="#CF9DFF" stroke="#DD8536"/>
<path id="Vector_28" d="M102.816 55.1963C101.783 54.0971 100.359 53.342 98.5461 52.9317C100.61 51.8174 101.306 49.9263 100.637 47.2579C100.402 46.2903 100.003 45.4517 99.4396 44.7408C98.8759 44.0299 98.1733 43.4583 97.3295 43.0259C96.4862 42.593 95.5902 42.2634 94.6434 42.0362C93.6963 41.809 92.6234 41.644 91.4253 41.5415L90.5942 36H87.1363L87.9444 41.3875C87.3456 41.3875 86.4347 41.4021 85.2116 41.4315L84.397 36H80.9387L81.7698 41.5415C81.2778 41.5562 80.553 41.5637 79.595 41.5637L74.8311 41.5415L75.3721 45.1479H77.8645C79.0022 45.1479 79.7432 45.6464 80.0873 46.6432L81.0339 52.9544C81.1838 52.9544 81.3045 52.9619 81.3966 52.9766H81.0372L82.363 61.8162C82.3555 62.5636 81.9775 62.9377 81.2289 62.9377H78.7367L78.644 66.962H83.1352C83.4197 66.962 83.8317 66.9657 84.3718 66.9723C84.9118 66.9797 85.3164 66.9834 85.5859 66.9834L86.4269 72.5907H89.8858L89.0547 67.0493C89.6855 67.0643 90.5997 67.0715 91.7974 67.0715L92.6252 72.5907H96.0831L95.2421 66.9834C96.4611 66.9249 97.5337 66.8155 98.4597 66.6537C99.386 66.4918 100.258 66.2394 101.074 65.8946C101.891 65.5503 102.552 65.1213 103.059 64.6081C103.566 64.0955 103.951 63.4428 104.214 62.6511C104.477 61.8593 104.583 60.943 104.531 59.902C104.421 57.8648 103.849 56.296 102.816 55.1963ZM85.8725 45.3891C85.9773 45.3891 86.2724 45.3854 86.7578 45.378C87.2435 45.3705 87.6464 45.3632 87.9672 45.3558C88.288 45.3486 88.7249 45.3669 89.2781 45.4109C89.8311 45.4549 90.3002 45.5137 90.6853 45.5868C91.0705 45.66 91.5007 45.781 91.9747 45.9496C92.4494 46.118 92.8393 46.3234 93.1447 46.5652C93.4506 46.8071 93.7251 47.1151 93.968 47.4889C94.2114 47.8627 94.3693 48.2915 94.4418 48.7752C94.5034 49.1857 94.4922 49.5596 94.4083 49.897C94.3245 50.2341 94.1642 50.5164 93.9292 50.7436C93.694 50.9709 93.4462 51.169 93.187 51.3374C92.9281 51.5059 92.5851 51.6416 92.159 51.7441C91.733 51.8468 91.3596 51.9274 91.0393 51.9859C90.7187 52.0446 90.3131 52.0851 89.8223 52.1069C89.3314 52.1288 88.9593 52.1438 88.706 52.151C88.4525 52.1582 88.1046 52.1582 87.6617 52.151C87.2187 52.1438 86.9603 52.1399 86.8852 52.1399L85.8727 45.389L85.8725 45.3891ZM97.5614 60.364C97.4694 60.7014 97.3303 60.9947 97.1433 61.2441C96.9559 61.4929 96.6931 61.713 96.355 61.9033C96.0171 62.0942 95.6843 62.2479 95.3579 62.3652C95.031 62.4829 94.6307 62.585 94.1579 62.6732C93.6839 62.7613 93.2669 62.8232 92.9052 62.8601C92.5442 62.8968 92.1108 62.926 91.605 62.9482C91.0994 62.9698 90.7041 62.9809 90.4198 62.9809C90.1353 62.9809 89.7754 62.9769 89.3401 62.9698C88.9047 62.9629 88.6275 62.9592 88.5076 62.9592L87.3928 55.5263C87.5124 55.5263 87.8669 55.5192 88.4561 55.5042C89.0454 55.4894 89.5269 55.4826 89.9012 55.4826C90.2755 55.4826 90.7954 55.5042 91.461 55.5485C92.1258 55.5922 92.6896 55.6579 93.1523 55.7458C93.6145 55.834 94.1247 55.9694 94.6841 56.1528C95.2428 56.336 95.707 56.5595 96.076 56.8234C96.4451 57.0877 96.7723 57.4244 97.0584 57.835C97.345 58.2453 97.5276 58.7145 97.6068 59.2424C97.6683 59.6533 97.6533 60.0266 97.5614 60.364Z" fill="#CF9DFF"/>
<path id="Vector_29" d="M102.816 54.1963C101.783 53.0971 100.359 52.342 98.5461 51.9317C100.61 50.8174 101.306 48.9263 100.637 46.2579C100.402 45.2903 100.003 44.4517 99.4396 43.7408C98.8759 43.0299 98.1733 42.4583 97.3295 42.0259C96.4862 41.593 95.5902 41.2634 94.6434 41.0362C93.6963 40.809 92.6234 40.644 91.4253 40.5415L90.5942 35H87.1363L87.9444 40.3875C87.3456 40.3875 86.4347 40.4021 85.2116 40.4315L84.397 35H80.9387L81.7698 40.5415C81.2778 40.5562 80.553 40.5637 79.595 40.5637L74.8311 40.5415L75.3721 44.1479H77.8645C79.0022 44.1479 79.7432 44.6464 80.0873 45.6432L81.0339 51.9544C81.1838 51.9544 81.3045 51.9619 81.3966 51.9766H81.0372L82.363 60.8162C82.3555 61.5636 81.9775 61.9377 81.2289 61.9377H78.7367L78.644 65.962H83.1352C83.4197 65.962 83.8317 65.9657 84.3718 65.9723C84.9118 65.9797 85.3164 65.9834 85.5859 65.9834L86.4269 71.5907H89.8858L89.0547 66.0493C89.6855 66.0643 90.5997 66.0715 91.7974 66.0715L92.6252 71.5907H96.0831L95.2421 65.9834C96.4611 65.9249 97.5337 65.8155 98.4597 65.6537C99.386 65.4918 100.258 65.2394 101.074 64.8946C101.891 64.5503 102.552 64.1213 103.059 63.6081C103.566 63.0955 103.951 62.4428 104.214 61.6511C104.477 60.8593 104.583 59.943 104.531 58.902C104.421 56.8648 103.849 55.296 102.816 54.1963ZM85.8725 44.3891C85.9773 44.3891 86.2724 44.3854 86.7578 44.378C87.2435 44.3705 87.6464 44.3632 87.9672 44.3558C88.288 44.3486 88.7249 44.3669 89.2781 44.4109C89.8311 44.4549 90.3002 44.5137 90.6853 44.5868C91.0705 44.66 91.5007 44.781 91.9747 44.9496C92.4494 45.118 92.8393 45.3234 93.1447 45.5652C93.4506 45.8071 93.7251 46.1151 93.968 46.4889C94.2114 46.8627 94.3693 47.2915 94.4418 47.7752C94.5034 48.1857 94.4922 48.5596 94.4083 48.897C94.3245 49.2341 94.1642 49.5164 93.9292 49.7436C93.694 49.9709 93.4462 50.169 93.187 50.3374C92.9281 50.5059 92.5851 50.6416 92.159 50.7441C91.733 50.8468 91.3596 50.9274 91.0393 50.9859C90.7187 51.0446 90.3131 51.0851 89.8223 51.1069C89.3314 51.1288 88.9593 51.1438 88.706 51.151C88.4525 51.1582 88.1046 51.1582 87.6617 51.151C87.2187 51.1438 86.9603 51.1399 86.8852 51.1399L85.8727 44.389L85.8725 44.3891ZM97.5614 59.364C97.4694 59.7014 97.3303 59.9947 97.1433 60.2441C96.9559 60.4929 96.6931 60.713 96.355 60.9033C96.0171 61.0942 95.6843 61.2479 95.3579 61.3652C95.031 61.4829 94.6307 61.585 94.1579 61.6732C93.6839 61.7613 93.2669 61.8232 92.9052 61.8601C92.5442 61.8968 92.1108 61.926 91.605 61.9482C91.0994 61.9698 90.7041 61.9809 90.4198 61.9809C90.1353 61.9809 89.7754 61.9769 89.3401 61.9698C88.9047 61.9629 88.6275 61.9592 88.5076 61.9592L87.3928 54.5263C87.5124 54.5263 87.8669 54.5192 88.4561 54.5042C89.0454 54.4894 89.5269 54.4826 89.9012 54.4826C90.2755 54.4826 90.7954 54.5042 91.461 54.5485C92.1258 54.5922 92.6896 54.6579 93.1523 54.7458C93.6145 54.834 94.1247 54.9694 94.6841 55.1528C95.2428 55.336 95.707 55.5595 96.076 55.8234C96.4451 56.0877 96.7723 56.4244 97.0584 56.835C97.345 57.2453 97.5276 57.7145 97.6068 58.2424C97.6683 58.6533 97.6533 59.0266 97.5614 59.364Z" fill="#CF9DFF"/>
<path id="Vector_30" d="M103.816 54.1963C102.783 53.0971 101.359 52.342 99.5461 51.9317C101.61 50.8174 102.306 48.9263 101.637 46.2579C101.402 45.2903 101.003 44.4517 100.44 43.7408C99.8759 43.0299 99.1733 42.4583 98.3295 42.0259C97.4862 41.593 96.5902 41.2634 95.6434 41.0362C94.6963 40.809 93.6234 40.644 92.4253 40.5415L91.5942 35H88.1363L88.9444 40.3875C88.3456 40.3875 87.4347 40.4021 86.2116 40.4315L85.397 35H81.9387L82.7698 40.5415C82.2778 40.5562 81.553 40.5637 80.595 40.5637L75.8311 40.5415L76.3721 44.1479H78.8645C80.0022 44.1479 80.7432 44.6464 81.0873 45.6432L82.0339 51.9544C82.1838 51.9544 82.3045 51.9619 82.3966 51.9766H82.0372L83.363 60.8162C83.3555 61.5636 82.9775 61.9377 82.2289 61.9377H79.7367L79.644 65.962H84.1352C84.4197 65.962 84.8317 65.9657 85.3718 65.9723C85.9118 65.9797 86.3164 65.9834 86.5859 65.9834L87.4269 71.5907H90.8858L90.0547 66.0493C90.6855 66.0643 91.5997 66.0715 92.7974 66.0715L93.6252 71.5907H97.0831L96.2421 65.9834C97.4611 65.9249 98.5337 65.8155 99.4597 65.6537C100.386 65.4918 101.258 65.2394 102.074 64.8946C102.891 64.5503 103.552 64.1213 104.059 63.6081C104.566 63.0955 104.951 62.4428 105.214 61.6511C105.477 60.8593 105.583 59.943 105.531 58.902C105.421 56.8648 104.849 55.296 103.816 54.1963ZM86.8725 44.3891C86.9773 44.3891 87.2724 44.3854 87.7578 44.378C88.2435 44.3705 88.6464 44.3632 88.9672 44.3558C89.288 44.3486 89.7249 44.3669 90.2781 44.4109C90.8311 44.4549 91.3002 44.5137 91.6853 44.5868C92.0705 44.66 92.5007 44.781 92.9747 44.9496C93.4494 45.118 93.8393 45.3234 94.1447 45.5652C94.4506 45.8071 94.7251 46.1151 94.968 46.4889C95.2114 46.8627 95.3693 47.2915 95.4418 47.7752C95.5034 48.1857 95.4922 48.5596 95.4083 48.897C95.3245 49.2341 95.1642 49.5164 94.9292 49.7436C94.694 49.9709 94.4462 50.169 94.187 50.3374C93.9281 50.5059 93.5851 50.6416 93.159 50.7441C92.733 50.8468 92.3596 50.9274 92.0393 50.9859C91.7187 51.0446 91.3131 51.0851 90.8223 51.1069C90.3314 51.1288 89.9593 51.1438 89.706 51.151C89.4525 51.1582 89.1046 51.1582 88.6617 51.151C88.2187 51.1438 87.9603 51.1399 87.8852 51.1399L86.8727 44.389L86.8725 44.3891ZM98.5614 59.364C98.4694 59.7014 98.3303 59.9947 98.1433 60.2441C97.9559 60.4929 97.6931 60.713 97.355 60.9033C97.0171 61.0942 96.6843 61.2479 96.3579 61.3652C96.031 61.4829 95.6307 61.585 95.1579 61.6732C94.6839 61.7613 94.2669 61.8232 93.9052 61.8601C93.5442 61.8968 93.1108 61.926 92.605 61.9482C92.0994 61.9698 91.7041 61.9809 91.4198 61.9809C91.1353 61.9809 90.7754 61.9769 90.3401 61.9698C89.9047 61.9629 89.6275 61.9592 89.5076 61.9592L88.3928 54.5263C88.5124 54.5263 88.8669 54.5192 89.4561 54.5042C90.0454 54.4894 90.5269 54.4826 90.9012 54.4826C91.2755 54.4826 91.7954 54.5042 92.461 54.5485C93.1258 54.5922 93.6896 54.6579 94.1523 54.7458C94.6145 54.834 95.1247 54.9694 95.6841 55.1528C96.2428 55.336 96.707 55.5595 97.076 55.8234C97.4451 56.0877 97.7723 56.4244 98.0584 56.835C98.345 57.2453 98.5276 57.7145 98.6068 58.2424C98.6683 58.6533 98.6533 59.0266 98.5614 59.364Z" fill="#A140FD"/>
</g>
</g>
<g id="Group 181">
<g id="_x35_9_3">
<g id="Group_67">
<g id="Group_68">
<g id="Group_69">
<g id="Group_70">
<g id="Group_71">
<g id="Group_72">
<g id="Group_73">
<path id="Vector_31" d="M112.896 92.9418C106.634 96.6578 99.0863 98.4312 90.93 97.5725C89.832 97.4585 88.7718 97.304 87.6708 97.1119C81.1811 95.9159 75.0212 93.145 69.5607 89.2538C66.0677 86.771 62.8299 83.8101 60.0449 80.4411C55.0133 74.5026 51.1625 67.3997 49.1489 59.7052C48.3348 56.8074 47.8551 53.8443 47.5823 50.8087C47.5163 50.1083 47.4879 49.3674 47.461 48.6652C47.2994 44.4538 47.6523 40.4176 48.5226 36.6352C50.9355 26.2323 57.0166 17.7976 65.3413 12.8699L54.9182 19.0887C46.5935 24.0166 40.5122 32.4512 38.1385 42.8525C37.2292 46.6364 36.8763 50.6726 37.0379 54.8843C37.0648 55.5862 37.1308 56.2866 37.1968 56.987C37.4303 60.0242 37.9744 63.0105 38.7107 65.9113C40.8039 73.6418 44.5902 80.7217 49.6216 86.6599C52.4068 90.0289 55.6056 92.9916 59.0985 95.4742C72.2185 104.914 89.1337 107.054 102.434 99.1621L112.896 92.9418Z" fill="#F3A250"/>
</g>
</g>
</g>
<g id="Group_74">
<g id="Group_75">
<g id="Group_76">
<path id="Vector_32" d="M130.737 57.1479C129.751 32.4645 110.321 10.5587 87.3057 8.20008C64.3308 5.879 46.4761 24.0212 47.4607 48.6653C48.4468 73.3486 67.916 95.253 90.9297 97.5726C113.906 99.9327 131.723 81.8311 130.737 57.1479Z" fill="#FFD475"/>
</g>
</g>
<g id="Group_77">
<g id="Group_78">
<path id="Vector_33" d="M87.0843 10.3007C66.6703 7.86763 48.5751 24.2106 49.5578 48.5775C50.4875 72.2152 69.1459 93.2735 91.1343 95.4933C113.48 97.624 129.553 80.1236 128.631 57.2465C127.701 33.6088 109.043 12.5505 87.0843 10.3007ZM90.2042 87.724C72.3858 85.9243 57.267 68.9456 56.487 49.8972C55.7506 31.0366 69.0849 16.4157 88.0144 18.0399C105.833 19.8697 120.922 36.8781 121.702 55.9268C122.489 75.9839 107.522 89.6496 90.2042 87.724Z" fill="#FFB961"/>
</g>
</g>
</g>
<g id="Group_79">
<g id="Group_80">
<g id="Group_81">
<path id="Vector_34" d="M119.602 56.0128C118.869 37.9199 104.623 21.8685 87.8026 20.1315C70.9441 18.4351 57.8625 31.7074 58.5958 49.8003C59.329 67.8933 73.5747 83.9447 90.433 85.6411C107.254 87.3781 120.334 74.0667 119.602 56.0128Z" fill="#F3A250"/>
</g>
</g>
</g>
<g id="Group_82">
<g id="Group_83">
<g id="Group_84">
<path id="Vector_35" d="M119.603 56.0128C118.87 37.9199 104.624 21.8685 87.8032 20.1315C78.0017 19.1407 69.4489 23.2178 64.2168 30.3703C69.3572 25.9161 76.2209 23.6221 83.8655 24.3832C100.686 26.1201 114.932 42.1715 115.665 60.2645C115.954 67.7908 113.869 74.51 110.043 79.6558C116.283 74.3392 120.02 65.8776 119.603 56.0128Z" fill="#DD8536"/>
</g>
</g>
</g>
<g id="Group_85">
<g id="Group_86">
<g id="Group_87">
<path id="Vector_36" d="M87.6709 97.1119C81.1812 95.9159 75.0213 93.145 69.5608 89.2538L59.0986 95.4742C64.5607 99.4044 70.7189 102.136 77.2087 103.332L87.6709 97.1119Z" fill="#DD8536"/>
</g>
</g>
</g>
<g id="Group_88">
<g id="Group_89">
<g id="Group_90">
<path id="Vector_37" d="M60.0452 80.4411C55.0135 74.5026 51.1627 67.3997 49.1491 59.7053L38.7109 65.9114C40.8041 73.6419 44.5904 80.7217 49.6218 86.66L60.0452 80.4411Z" fill="#DD8536"/>
</g>
</g>
</g>
<g id="Group_91">
<g id="Group_92">
<g id="Group_93">
<path id="Vector_38" d="M48.5226 36.6352L38.1385 42.8525C37.2292 46.6365 36.8763 50.6727 37.0379 54.8843C37.0648 55.5863 37.1308 56.2867 37.1968 56.9871L47.5823 50.8088C47.5163 50.1084 47.4879 49.3674 47.461 48.6653C47.2994 44.4538 47.6523 40.4176 48.5226 36.6352Z" fill="#DD8536"/>
</g>
</g>
</g>
</g>
<g id="Group_94">
<g id="Group_95">
<path id="Vector_39" d="M61.6412 37.6315C61.8413 37.1969 62.4585 37.2026 62.6571 37.639C63.6814 39.8897 64.5651 41.7201 64.7211 41.6564C64.863 41.5985 64.2245 39.6744 63.3961 37.3513C63.2354 36.9004 63.6727 36.4659 64.1182 36.6363C68.659 38.3734 72.8299 39.8835 72.9468 39.6038C73.0592 39.3349 69.0684 37.3723 64.6623 35.3126C64.2294 35.1102 64.2331 34.4903 64.6667 34.292C66.8911 33.2748 68.7074 32.3934 68.6435 32.2366C68.5855 32.0939 66.6722 32.7299 64.3623 33.5555C63.9139 33.7157 63.4802 33.2751 63.6485 32.828C68.0458 21.1476 67.4996 21.0606 62.3297 32.2775C62.1294 32.7119 61.5124 32.7063 61.3138 32.27C60.2952 30.0322 59.4147 28.204 59.273 28.2618C59.1172 28.3254 59.7562 30.2559 60.5898 32.5624C60.7529 33.0136 60.3154 33.4502 59.8688 33.2795C55.337 31.5479 51.148 30.0408 51.0357 30.3096C50.9189 30.5892 54.924 32.5473 59.3236 34.6024C59.7561 34.8045 59.753 35.4236 59.3202 35.6226C57.0899 36.6482 55.2693 37.5291 55.3274 37.6718C55.3911 37.8285 57.3101 37.1922 59.606 36.3542C60.0549 36.1904 60.492 36.6313 60.3232 37.0801C55.9758 48.6394 56.4062 48.9997 61.6412 37.6315Z" fill="white"/>
</g>
</g>
</g>
</g>
<g id="Group_96" opacity="0.7">
<g id="Group_97">
<path id="Vector_40" d="M80.4341 76.1428C84.3045 78.4437 87.7423 79.4716 86.911 81.0456C86.0885 82.603 82.2267 82.0525 78.3562 79.7516C74.4859 77.4508 72.6458 74.3126 73.4684 72.7552C74.2997 71.1811 76.5637 73.842 80.4341 76.1428Z" fill="white"/>
</g>
</g>
<g id="Group_98" opacity="0.7">
<g id="Group_99">
<path id="Vector_41" d="M68.9786 68.235C69.6761 67.6907 70.8545 68.0387 71.6123 68.9884C72.3701 69.9381 72.4262 71.1371 71.7288 71.6815C71.0456 72.2146 69.8794 71.882 69.1216 70.9323C68.3638 69.9826 68.2955 68.7682 68.9786 68.235Z" fill="white"/>
</g>
</g>
</g>
</g>
<g id="Group 177_3">
<path id="Vector_42" d="M103.164 55.892L103.164 55.892C104.326 57.1293 104.922 58.8436 105.036 60.9487L105.036 60.9508C105.09 62.0383 104.98 63.0117 104.698 63.8636L104.697 63.8642C104.417 64.7069 104.003 65.4155 103.447 65.9777C102.896 66.5353 102.186 66.992 101.329 67.3535C100.481 67.7117 99.5765 67.9735 98.6176 68.141M103.164 55.892L98.4597 67.6537M103.164 55.892C102.267 54.9377 101.118 54.2368 99.7426 53.7727C100.369 53.2612 100.824 52.639 101.095 51.9032C101.482 50.8537 101.479 49.6141 101.128 48.2107C100.876 47.1777 100.445 46.2618 99.8219 45.4756L99.8218 45.4755C99.2009 44.6925 98.4277 44.0652 97.5095 43.5947C96.622 43.1391 95.6821 42.7939 94.6935 42.5567L94.6935 42.5567C93.8395 42.3518 92.8936 42.1975 91.858 42.0922L91.0942 37L91.02 36.5055H90.52H87.0622H86.5622L86.6363 37L87.3706 41.8957M103.164 55.892L87.3706 41.8957M98.6176 68.141L98.4597 67.6537M98.6176 68.141C98.6176 68.141 98.6176 68.141 98.6176 68.141L98.4597 67.6537M98.6176 68.141C97.7904 68.2855 96.8547 68.3884 95.8123 68.4517M98.4597 67.6537C97.5337 67.8155 96.4611 67.9249 95.2421 67.9834M95.8123 68.4517L95.7421 67.9834H95.2421M95.8123 68.4517L96.5831 73.5907L96.6573 74.0852H96.1573H92.6993H92.1993L92.1252 73.5907L91.3715 68.5655M95.8123 68.4517C95.6573 68.4611 95.4999 68.4696 95.3402 68.4773L95.2421 67.9834M95.2421 67.9834L87.3706 41.8957M87.3706 41.8957C86.908 41.9001 86.3294 41.91 85.6357 41.9254L84.897 37L84.8228 36.5055H84.3228H80.8645H80.3645L80.4387 37L81.1973 42.0581C80.7573 42.0654 80.1993 42.0692 79.5219 42.0692C79.5215 42.0692 79.5212 42.0692 79.5208 42.0692L74.7593 42.047L74.2566 42.0447L74.3311 42.5415L74.8721 46.1479L74.9462 46.6424H75.4462H77.9386C78.4375 46.6424 78.7867 46.7517 79.031 46.9161C79.2596 47.0699 79.455 47.3113 79.5947 47.6928L80.463 53.4821L80.5339 53.9544L80.5372 53.9766L80.608 54.4489L81.8568 62.7749C81.8483 63.0491 81.7755 63.1993 81.6896 63.2844C81.6011 63.3718 81.4453 63.4433 81.1548 63.4433H78.6625H78.2408L78.2313 63.8543L78.1387 67.8786L78.1254 68.4564H78.7182H83.2094C83.4904 68.4564 83.8996 68.4601 84.4394 68.4667M84.4394 68.4667C84.4393 68.4667 84.4392 68.4667 84.439 68.4667L84.3718 67.9723L84.4398 68.4667C84.4396 68.4667 84.4395 68.4667 84.4394 68.4667ZM84.4394 68.4667C84.7139 68.4705 84.954 68.4733 85.1597 68.4752M85.1597 68.4752L85.9269 73.5907L86.0011 74.0852H86.5011H89.96H90.46L90.3858 73.5907L89.6303 68.5533M85.1597 68.4752C85.3589 68.477 85.5257 68.4779 85.6601 68.4779L85.5859 67.9834H85.0859L85.1597 68.4752ZM89.6303 68.5533C90.1049 68.5602 90.6855 68.5642 91.3715 68.5655M89.6303 68.5533L89.5561 68.0588C90.1392 68.0674 90.8862 68.0715 91.7974 68.0715M89.6303 68.5533C89.4474 68.5506 89.2802 68.5475 89.1288 68.5439L89.8116 73.0962L89.8858 73.5907L91.7974 68.0715M91.3715 68.5655L91.2974 68.0715H91.7974M91.3715 68.5655C91.5323 68.5658 91.699 68.566 91.8715 68.566L92.551 73.0962L92.6252 73.5907H93.1252H95.5831L91.7974 68.0715M78.644 67.962L78.6554 67.4675H78.5699L78.644 67.962ZM78.644 67.962H79.1513L79.1494 68.0454L78.644 67.962ZM87.3121 52.652L86.4461 46.8782C86.5598 46.8766 86.691 46.8747 86.8397 46.8724L86.8398 46.8724C87.3259 46.8649 87.7303 46.8576 88.0529 46.8502M87.3121 52.652L89.2781 46.4109L89.3115 46.9038C88.7657 46.8604 88.3487 46.8435 88.0529 46.8502M87.3121 52.652C87.3967 52.6534 87.4913 52.6549 87.5958 52.6566C88.0357 52.6638 88.375 52.6637 88.6175 52.6567C88.8665 52.6496 89.2352 52.6348 89.7259 52.613C90.2038 52.5917 90.5857 52.5527 90.8776 52.4993L90.8778 52.4993C91.1873 52.4427 91.552 52.3641 91.9723 52.2628L91.9725 52.2627C92.3666 52.1679 92.6596 52.0478 92.8664 51.9133L92.8665 51.9132C93.1027 51.7597 93.3304 51.578 93.5481 51.3675L93.9292 51.7436L87.3121 52.652ZM88.0529 46.8502C88.0528 46.8502 88.0528 46.8502 88.0527 46.8502L87.9672 46.3558L88.0529 46.8502ZM96.0565 62.4658L96.057 62.4655C96.3563 62.297 96.5729 62.1111 96.7207 61.9152C96.8739 61.7107 96.9919 61.4653 97.0715 61.1735C97.1449 60.9035 97.1597 60.5961 97.1068 60.2424L96.0565 62.4658ZM96.0565 62.4658C95.737 62.6462 95.426 62.7895 95.1248 62.8977L95.1244 62.8978C94.8272 63.0049 94.4523 63.1014 93.9951 63.1868M96.0565 62.4658L96.355 62.9033C96.0171 63.0942 95.6843 63.2479 95.3579 63.3652C95.031 63.4829 94.6307 63.585 94.1579 63.6732M94.1579 63.6732L93.9951 63.1868M94.1579 63.6732C93.6839 63.7613 93.2669 63.8232 92.9052 63.8601L94.1579 63.6732ZM93.9951 63.1868C93.5302 63.2732 93.1263 63.3329 92.7809 63.3682M93.9951 63.1868L92.7809 63.3682M92.7809 63.3682C92.4322 63.4036 92.0091 63.4323 91.5095 63.4542C91.006 63.4757 90.6191 63.4865 90.3456 63.4865C90.0653 63.4865 89.7085 63.4825 89.2743 63.4754L89.2739 63.4754C89.1478 63.4734 89.0346 63.4716 88.9342 63.4702L87.9657 57.0124C88.1244 57.0089 88.3171 57.0043 88.543 56.9985C89.1297 56.9838 89.6067 56.9771 89.9754 56.9771C90.3332 56.9771 90.8401 56.9979 91.5011 57.0419L91.5015 57.0419C92.1534 57.0847 92.6941 57.1484 93.128 57.2309C93.5621 57.3137 94.0484 57.4423 94.5894 57.6197L94.5895 57.6197C95.1087 57.7899 95.5136 57.9893 95.819 58.2076C96.1248 58.4267 96.4035 58.7107 96.6538 59.0701L96.6542 59.0707C96.8838 59.3995 97.0382 59.7857 97.1067 60.2423L92.7809 63.3682Z" fill="#CF9DFF" stroke="#DD8536"/>
<path id="Vector_43" d="M102.816 55.1963C101.783 54.0971 100.359 53.342 98.5461 52.9317C100.61 51.8174 101.306 49.9263 100.637 47.2579C100.402 46.2903 100.003 45.4517 99.4396 44.7408C98.8759 44.0299 98.1733 43.4583 97.3295 43.0259C96.4862 42.593 95.5902 42.2634 94.6434 42.0362C93.6963 41.809 92.6234 41.644 91.4253 41.5415L90.5942 36H87.1363L87.9444 41.3875C87.3456 41.3875 86.4347 41.4021 85.2116 41.4315L84.397 36H80.9387L81.7698 41.5415C81.2778 41.5562 80.553 41.5637 79.595 41.5637L74.8311 41.5415L75.3721 45.1479H77.8645C79.0022 45.1479 79.7432 45.6464 80.0873 46.6432L81.0339 52.9544C81.1838 52.9544 81.3045 52.9619 81.3966 52.9766H81.0372L82.363 61.8162C82.3555 62.5636 81.9775 62.9377 81.2289 62.9377H78.7367L78.644 66.962H83.1352C83.4197 66.962 83.8317 66.9657 84.3718 66.9723C84.9118 66.9797 85.3164 66.9834 85.5859 66.9834L86.4269 72.5907H89.8858L89.0547 67.0493C89.6855 67.0643 90.5997 67.0715 91.7974 67.0715L92.6252 72.5907H96.0831L95.2421 66.9834C96.4611 66.9249 97.5337 66.8155 98.4597 66.6537C99.386 66.4918 100.258 66.2394 101.074 65.8946C101.891 65.5503 102.552 65.1213 103.059 64.6081C103.566 64.0955 103.951 63.4428 104.214 62.6511C104.477 61.8593 104.583 60.943 104.531 59.902C104.421 57.8648 103.849 56.296 102.816 55.1963ZM85.8725 45.3891C85.9773 45.3891 86.2724 45.3854 86.7578 45.378C87.2435 45.3705 87.6464 45.3632 87.9672 45.3558C88.288 45.3486 88.7249 45.3669 89.2781 45.4109C89.8311 45.4549 90.3002 45.5137 90.6853 45.5868C91.0705 45.66 91.5007 45.781 91.9747 45.9496C92.4494 46.118 92.8393 46.3234 93.1447 46.5652C93.4506 46.8071 93.7251 47.1151 93.968 47.4889C94.2114 47.8627 94.3693 48.2915 94.4418 48.7752C94.5034 49.1857 94.4922 49.5596 94.4083 49.897C94.3245 50.2341 94.1642 50.5164 93.9292 50.7436C93.694 50.9709 93.4462 51.169 93.187 51.3374C92.9281 51.5059 92.5851 51.6416 92.159 51.7441C91.733 51.8468 91.3596 51.9274 91.0393 51.9859C90.7187 52.0446 90.3131 52.0851 89.8223 52.1069C89.3314 52.1288 88.9593 52.1438 88.706 52.151C88.4525 52.1582 88.1046 52.1582 87.6617 52.151C87.2187 52.1438 86.9603 52.1399 86.8852 52.1399L85.8727 45.389L85.8725 45.3891ZM97.5614 60.364C97.4694 60.7014 97.3303 60.9947 97.1433 61.2441C96.9559 61.4929 96.6931 61.713 96.355 61.9033C96.0171 62.0942 95.6843 62.2479 95.3579 62.3652C95.031 62.4829 94.6307 62.585 94.1579 62.6732C93.6839 62.7613 93.2669 62.8232 92.9052 62.8601C92.5442 62.8968 92.1108 62.926 91.605 62.9482C91.0994 62.9698 90.7041 62.9809 90.4198 62.9809C90.1353 62.9809 89.7754 62.9769 89.3401 62.9698C88.9047 62.9629 88.6275 62.9592 88.5076 62.9592L87.3928 55.5263C87.5124 55.5263 87.8669 55.5192 88.4561 55.5042C89.0454 55.4894 89.5269 55.4826 89.9012 55.4826C90.2755 55.4826 90.7954 55.5042 91.461 55.5485C92.1258 55.5922 92.6896 55.6579 93.1523 55.7458C93.6145 55.834 94.1247 55.9694 94.6841 56.1528C95.2428 56.336 95.707 56.5595 96.076 56.8234C96.4451 57.0877 96.7723 57.4244 97.0584 57.835C97.345 58.2453 97.5276 58.7145 97.6068 59.2424C97.6683 59.6533 97.6533 60.0266 97.5614 60.364Z" fill="#CF9DFF"/>
<path id="Vector_44" d="M102.816 54.1963C101.783 53.0971 100.359 52.342 98.5461 51.9317C100.61 50.8174 101.306 48.9263 100.637 46.2579C100.402 45.2903 100.003 44.4517 99.4396 43.7408C98.8759 43.0299 98.1733 42.4583 97.3295 42.0259C96.4862 41.593 95.5902 41.2634 94.6434 41.0362C93.6963 40.809 92.6234 40.644 91.4253 40.5415L90.5942 35H87.1363L87.9444 40.3875C87.3456 40.3875 86.4347 40.4021 85.2116 40.4315L84.397 35H80.9387L81.7698 40.5415C81.2778 40.5562 80.553 40.5637 79.595 40.5637L74.8311 40.5415L75.3721 44.1479H77.8645C79.0022 44.1479 79.7432 44.6464 80.0873 45.6432L81.0339 51.9544C81.1838 51.9544 81.3045 51.9619 81.3966 51.9766H81.0372L82.363 60.8162C82.3555 61.5636 81.9775 61.9377 81.2289 61.9377H78.7367L78.644 65.962H83.1352C83.4197 65.962 83.8317 65.9657 84.3718 65.9723C84.9118 65.9797 85.3164 65.9834 85.5859 65.9834L86.4269 71.5907H89.8858L89.0547 66.0493C89.6855 66.0643 90.5997 66.0715 91.7974 66.0715L92.6252 71.5907H96.0831L95.2421 65.9834C96.4611 65.9249 97.5337 65.8155 98.4597 65.6537C99.386 65.4918 100.258 65.2394 101.074 64.8946C101.891 64.5503 102.552 64.1213 103.059 63.6081C103.566 63.0955 103.951 62.4428 104.214 61.6511C104.477 60.8593 104.583 59.943 104.531 58.902C104.421 56.8648 103.849 55.296 102.816 54.1963ZM85.8725 44.3891C85.9773 44.3891 86.2724 44.3854 86.7578 44.378C87.2435 44.3705 87.6464 44.3632 87.9672 44.3558C88.288 44.3486 88.7249 44.3669 89.2781 44.4109C89.8311 44.4549 90.3002 44.5137 90.6853 44.5868C91.0705 44.66 91.5007 44.781 91.9747 44.9496C92.4494 45.118 92.8393 45.3234 93.1447 45.5652C93.4506 45.8071 93.7251 46.1151 93.968 46.4889C94.2114 46.8627 94.3693 47.2915 94.4418 47.7752C94.5034 48.1857 94.4922 48.5596 94.4083 48.897C94.3245 49.2341 94.1642 49.5164 93.9292 49.7436C93.694 49.9709 93.4462 50.169 93.187 50.3374C92.9281 50.5059 92.5851 50.6416 92.159 50.7441C91.733 50.8468 91.3596 50.9274 91.0393 50.9859C90.7187 51.0446 90.3131 51.0851 89.8223 51.1069C89.3314 51.1288 88.9593 51.1438 88.706 51.151C88.4525 51.1582 88.1046 51.1582 87.6617 51.151C87.2187 51.1438 86.9603 51.1399 86.8852 51.1399L85.8727 44.389L85.8725 44.3891ZM97.5614 59.364C97.4694 59.7014 97.3303 59.9947 97.1433 60.2441C96.9559 60.4929 96.6931 60.713 96.355 60.9033C96.0171 61.0942 95.6843 61.2479 95.3579 61.3652C95.031 61.4829 94.6307 61.585 94.1579 61.6732C93.6839 61.7613 93.2669 61.8232 92.9052 61.8601C92.5442 61.8968 92.1108 61.926 91.605 61.9482C91.0994 61.9698 90.7041 61.9809 90.4198 61.9809C90.1353 61.9809 89.7754 61.9769 89.3401 61.9698C88.9047 61.9629 88.6275 61.9592 88.5076 61.9592L87.3928 54.5263C87.5124 54.5263 87.8669 54.5192 88.4561 54.5042C89.0454 54.4894 89.5269 54.4826 89.9012 54.4826C90.2755 54.4826 90.7954 54.5042 91.461 54.5485C92.1258 54.5922 92.6896 54.6579 93.1523 54.7458C93.6145 54.834 94.1247 54.9694 94.6841 55.1528C95.2428 55.336 95.707 55.5595 96.076 55.8234C96.4451 56.0877 96.7723 56.4244 97.0584 56.835C97.345 57.2453 97.5276 57.7145 97.6068 58.2424C97.6683 58.6533 97.6533 59.0266 97.5614 59.364Z" fill="#CF9DFF"/>
<path id="Vector_45" d="M103.816 54.1963C102.783 53.0971 101.359 52.342 99.5461 51.9317C101.61 50.8174 102.306 48.9263 101.637 46.2579C101.402 45.2903 101.003 44.4517 100.44 43.7408C99.8759 43.0299 99.1733 42.4583 98.3295 42.0259C97.4862 41.593 96.5902 41.2634 95.6434 41.0362C94.6963 40.809 93.6234 40.644 92.4253 40.5415L91.5942 35H88.1363L88.9444 40.3875C88.3456 40.3875 87.4347 40.4021 86.2116 40.4315L85.397 35H81.9387L82.7698 40.5415C82.2778 40.5562 81.553 40.5637 80.595 40.5637L75.8311 40.5415L76.3721 44.1479H78.8645C80.0022 44.1479 80.7432 44.6464 81.0873 45.6432L82.0339 51.9544C82.1838 51.9544 82.3045 51.9619 82.3966 51.9766H82.0372L83.363 60.8162C83.3555 61.5636 82.9775 61.9377 82.2289 61.9377H79.7367L79.644 65.962H84.1352C84.4197 65.962 84.8317 65.9657 85.3718 65.9723C85.9118 65.9797 86.3164 65.9834 86.5859 65.9834L87.4269 71.5907H90.8858L90.0547 66.0493C90.6855 66.0643 91.5997 66.0715 92.7974 66.0715L93.6252 71.5907H97.0831L96.2421 65.9834C97.4611 65.9249 98.5337 65.8155 99.4597 65.6537C100.386 65.4918 101.258 65.2394 102.074 64.8946C102.891 64.5503 103.552 64.1213 104.059 63.6081C104.566 63.0955 104.951 62.4428 105.214 61.6511C105.477 60.8593 105.583 59.943 105.531 58.902C105.421 56.8648 104.849 55.296 103.816 54.1963ZM86.8725 44.3891C86.9773 44.3891 87.2724 44.3854 87.7578 44.378C88.2435 44.3705 88.6464 44.3632 88.9672 44.3558C89.288 44.3486 89.7249 44.3669 90.2781 44.4109C90.8311 44.4549 91.3002 44.5137 91.6853 44.5868C92.0705 44.66 92.5007 44.781 92.9747 44.9496C93.4494 45.118 93.8393 45.3234 94.1447 45.5652C94.4506 45.8071 94.7251 46.1151 94.968 46.4889C95.2114 46.8627 95.3693 47.2915 95.4418 47.7752C95.5034 48.1857 95.4922 48.5596 95.4083 48.897C95.3245 49.2341 95.1642 49.5164 94.9292 49.7436C94.694 49.9709 94.4462 50.169 94.187 50.3374C93.9281 50.5059 93.5851 50.6416 93.159 50.7441C92.733 50.8468 92.3596 50.9274 92.0393 50.9859C91.7187 51.0446 91.3131 51.0851 90.8223 51.1069C90.3314 51.1288 89.9593 51.1438 89.706 51.151C89.4525 51.1582 89.1046 51.1582 88.6617 51.151C88.2187 51.1438 87.9603 51.1399 87.8852 51.1399L86.8727 44.389L86.8725 44.3891ZM98.5614 59.364C98.4694 59.7014 98.3303 59.9947 98.1433 60.2441C97.9559 60.4929 97.6931 60.713 97.355 60.9033C97.0171 61.0942 96.6843 61.2479 96.3579 61.3652C96.031 61.4829 95.6307 61.585 95.1579 61.6732C94.6839 61.7613 94.2669 61.8232 93.9052 61.8601C93.5442 61.8968 93.1108 61.926 92.605 61.9482C92.0994 61.9698 91.7041 61.9809 91.4198 61.9809C91.1353 61.9809 90.7754 61.9769 90.3401 61.9698C89.9047 61.9629 89.6275 61.9592 89.5076 61.9592L88.3928 54.5263C88.5124 54.5263 88.8669 54.5192 89.4561 54.5042C90.0454 54.4894 90.5269 54.4826 90.9012 54.4826C91.2755 54.4826 91.7954 54.5042 92.461 54.5485C93.1258 54.5922 93.6896 54.6579 94.1523 54.7458C94.6145 54.834 95.1247 54.9694 95.6841 55.1528C96.2428 55.336 96.707 55.5595 97.076 55.8234C97.4451 56.0877 97.7723 56.4244 98.0584 56.835C98.345 57.2453 98.5276 57.7145 98.6068 58.2424C98.6683 58.6533 98.6533 59.0266 98.5614 59.364Z" fill="#A140FD"/>
</g>
</g>
<g id="Group 182">
<g id="_x35_9_4">
<g id="Group_100">
<g id="Group_101">
<g id="Group_102">
<g id="Group_103">
<g id="Group_104">
<g id="Group_105">
<g id="Group_106">
<path id="Vector_46" d="M58.3966 95.2248C53.5782 98.0841 47.7711 99.4485 41.4954 98.7879C40.6506 98.7001 39.8348 98.5812 38.9876 98.4334C33.9943 97.5132 29.2547 95.3812 25.0532 92.3872C22.3656 90.4769 19.8743 88.1986 17.7315 85.6064C13.86 81.0371 10.8971 75.5719 9.34774 69.6516C8.72133 67.4219 8.35228 65.1421 8.14235 62.8064C8.0916 62.2675 8.06972 61.6973 8.049 61.1571C7.92467 57.9167 8.19618 54.8111 8.86584 51.9008C10.7224 43.8965 15.4014 37.4066 21.8066 33.6151L13.7868 38.4C7.38153 42.1917 2.70237 48.6815 0.876034 56.6846C0.176342 59.5961 -0.0951655 62.7016 0.0291642 65.9422C0.0498851 66.4823 0.10064 67.0212 0.151395 67.5602C0.331103 69.897 0.749759 72.1948 1.31628 74.4268C2.92683 80.3748 5.84016 85.8223 9.71147 90.3914C11.8544 92.9836 14.3157 95.2632 17.0033 97.1733C27.0982 104.437 40.1133 106.084 50.3468 100.011L58.3966 95.2248Z" fill="#F3A250"/>
</g>
</g>
</g>
<g id="Group_107">
<g id="Group_108">
<g id="Group_109">
<path id="Vector_47" d="M72.1247 67.684C71.3661 48.6918 56.4159 31.8368 38.7073 30.022C21.0297 28.2361 7.29184 42.1952 8.04942 61.1571C8.80815 80.1493 23.7884 97.0031 41.4958 98.7879C59.1744 100.604 72.8834 86.6759 72.1247 67.684Z" fill="#FFD475"/>
</g>
</g>
<g id="Group_110">
<g id="Group_111">
<path id="Vector_48" d="M38.5363 31.6382C22.8291 29.7662 8.90615 42.3409 9.66225 61.0896C10.3776 79.2771 24.7339 95.48 41.6525 97.188C58.8462 98.8274 71.213 85.3621 70.5037 67.7598C69.7881 49.5722 55.4317 33.3693 38.5363 31.6382ZM40.9368 91.2101C27.2268 89.8253 15.5939 76.7614 14.9938 62.105C14.4272 47.5931 24.687 36.3433 39.252 37.593C52.9619 39.0009 64.5717 52.0877 65.1719 66.7443C65.7776 82.1769 54.2619 92.6917 40.9368 91.2101Z" fill="#FFB961"/>
</g>
</g>
</g>
<g id="Group_112">
<g id="Group_113">
<g id="Group_114">
<path id="Vector_49" d="M63.5566 66.8106C62.9924 52.8893 52.0313 40.5388 39.089 39.2024C26.1175 37.8971 16.0522 48.1092 16.6164 62.0305C17.1805 75.9517 28.1416 88.3022 41.1129 89.6075C54.0552 90.9439 64.1196 80.7018 63.5566 66.8106Z" fill="#F3A250"/>
</g>
</g>
</g>
<g id="Group_115">
<g id="Group_116">
<g id="Group_117">
<path id="Vector_50" d="M63.5571 66.8105C62.9929 52.8893 52.0319 40.5388 39.0895 39.2024C31.5479 38.44 24.9671 41.5771 20.9414 47.0804C24.8966 43.6532 30.1777 41.8882 36.0597 42.4737C49.0023 43.8102 59.9633 56.1606 60.5275 70.0819C60.7497 75.8729 59.1449 81.0428 56.2019 85.0021C61.0029 80.9114 63.8784 74.4008 63.5571 66.8105Z" fill="#DD8536"/>
</g>
</g>
</g>
<g id="Group_118">
<g id="Group_119">
<g id="Group_120">
<path id="Vector_51" d="M38.9892 98.4334C33.9959 97.5131 29.2563 95.3811 25.0548 92.3871L17.0049 97.1733C21.2076 100.197 25.9458 102.299 30.9394 103.22L38.9892 98.4334Z" fill="#DD8536"/>
</g>
</g>
</g>
<g id="Group_121">
<g id="Group_122">
<g id="Group_123">
<path id="Vector_52" d="M17.7316 85.6064C13.8601 81.0372 10.8972 75.572 9.34786 69.6516L1.31641 74.4268C2.92695 80.3749 5.84028 85.8223 9.71159 90.3914L17.7316 85.6064Z" fill="#DD8536"/>
</g>
</g>
</g>
<g id="Group_124">
<g id="Group_125">
<g id="Group_126">
<path id="Vector_53" d="M8.86584 51.9008L0.876034 56.6846C0.176343 59.5961 -0.0951655 62.7017 0.0291642 65.9423C0.0498844 66.4823 0.100639 67.0213 0.151394 67.5602L8.14235 62.8064C8.0916 62.2675 8.06972 61.6974 8.049 61.1571C7.92467 57.9167 8.19618 54.8111 8.86584 51.9008Z" fill="#DD8536"/>
</g>
</g>
</g>
</g>
<g id="Group_127">
<g id="Group_128">
<path id="Vector_54" d="M18.959 52.6673C19.113 52.333 19.5879 52.3373 19.7407 52.6731C20.5288 54.4049 21.2087 55.8132 21.3288 55.7642C21.438 55.7197 20.9467 54.2392 20.3093 52.4517C20.1856 52.1048 20.5221 51.7705 20.8649 51.9016C24.3587 53.2382 27.5679 54.4001 27.6579 54.1849C27.7443 53.978 24.6737 52.4679 21.2835 50.8831C20.9504 50.7274 20.9533 50.2504 21.2869 50.0978C22.9984 49.3151 24.3959 48.637 24.3468 48.5163C24.3022 48.4065 22.83 48.8959 21.0527 49.5311C20.7077 49.6544 20.374 49.3154 20.5035 48.9714C23.8869 39.9841 23.4666 39.9172 19.4887 48.5478C19.3347 48.8821 18.8599 48.8778 18.7071 48.5421C17.9233 46.8202 17.2459 45.4135 17.1369 45.458C17.017 45.5069 17.5086 46.9924 18.15 48.767C18.2755 49.1142 17.9389 49.4501 17.5953 49.3188C14.1083 47.9865 10.8852 46.8268 10.7988 47.0337C10.7089 47.2488 13.7906 48.7554 17.1757 50.3367C17.5086 50.4922 17.5062 50.9685 17.1732 51.1217C15.457 51.9108 14.0562 52.5886 14.1009 52.6984C14.15 52.8189 15.6265 52.3293 17.3931 51.6845C17.7384 51.5585 18.0747 51.8978 17.9449 52.2431C14.5999 61.1372 14.931 61.4144 18.959 52.6673Z" fill="white"/>
</g>
</g>
</g>
</g>
<g id="Group_129" opacity="0.7">
<g id="Group_130">
<path id="Vector_55" d="M33.4202 82.2992C36.3983 84.0696 39.0434 84.8605 38.4038 86.0716C37.7709 87.2699 34.7995 86.8463 31.8214 85.0759C28.8435 83.3056 27.4277 80.891 28.0606 79.6926C28.7002 78.4815 30.4423 80.5289 33.4202 82.2992Z" fill="white"/>
</g>
</g>
<g id="Group_131" opacity="0.7">
<g id="Group_132">
<path id="Vector_56" d="M24.6052 76.2147C25.1418 75.7958 26.0485 76.0636 26.6316 76.7943C27.2147 77.5251 27.2579 78.4476 26.7212 78.8665C26.1956 79.2767 25.2983 79.0207 24.7152 78.29C24.1321 77.5593 24.0796 76.6249 24.6052 76.2147Z" fill="white"/>
</g>
</g>
</g>
</g>
<g id="Group 177_4">
<path id="Vector_57" d="M50.9887 66.6473L50.9888 66.6473C51.913 67.631 52.3767 68.9836 52.4651 70.619L52.4652 70.6211C52.5073 71.4686 52.4217 72.2307 52.1999 72.9001L52.1997 72.9006C51.9798 73.5609 51.6545 74.1189 51.2152 74.563C50.7814 75.0022 50.2245 75.36 49.5556 75.6421C48.8955 75.9209 48.192 76.1244 47.4467 76.2546M50.9887 66.6473L47.2888 75.7673M50.9887 66.6473C50.3257 65.9416 49.4908 65.4145 48.5052 65.0522C48.9236 64.6742 49.234 64.2243 49.427 63.7004C49.7334 62.869 49.7293 61.8923 49.4548 60.7966C49.2578 59.9866 48.9183 59.264 48.425 58.6416L48.4249 58.6416C47.934 58.0224 47.3229 57.527 46.5992 57.1561C45.9061 56.8004 45.1728 56.5311 44.4025 56.3463L44.4025 56.3463C43.768 56.1941 43.0696 56.0781 42.3091 55.997L41.7368 52.1814L41.6627 51.6869H41.1627H38.5021H38.0021L38.0763 52.1814L38.6243 55.8355M50.9887 66.6473L38.6243 55.8355M47.4467 76.2546L47.2888 75.7673M47.4467 76.2546C47.4467 76.2546 47.4467 76.2546 47.4467 76.2546L47.2888 75.7673M47.4467 76.2546C46.834 76.3616 46.1456 76.439 45.3831 76.4883M47.2888 75.7673C46.5763 75.8918 45.751 75.9759 44.813 76.021M45.3831 76.4883L45.313 76.021H44.813M45.3831 76.4883L45.9602 80.3354L46.0343 80.8299H45.5343H42.8737H42.3737L42.2995 80.3354L41.7367 76.5826M45.3831 76.4883C45.2289 76.4983 45.0715 76.5072 44.9112 76.5149L44.813 76.021M44.813 76.021L38.6243 55.8355M38.6243 55.8355C38.3159 55.839 37.9475 55.8454 37.5194 55.8546L36.9685 52.1814L36.8943 51.6869H36.3943H33.7334H33.2334L33.3076 52.1814L33.8745 55.961C33.556 55.9655 33.165 55.9678 32.7007 55.9678L29.0365 55.9507L28.5337 55.9484L28.6083 56.4452L29.0245 59.2201L29.0986 59.7145H29.5986H31.5163C31.884 59.7145 32.1249 59.7952 32.2838 59.9021C32.4281 59.9991 32.5607 60.1553 32.66 60.421L33.3092 64.7492L33.3808 65.2266L33.3834 65.2437L33.455 65.7211L34.3972 72.0031C34.3899 72.1896 34.3402 72.2764 34.2967 72.3194C34.2519 72.3638 34.161 72.4136 33.9567 72.4136H32.0391H31.6174L31.6079 72.8247L31.5367 75.9211L31.5234 76.499H32.1162H35.5718C35.7873 76.499 36.1015 76.5018 36.5167 76.5069M36.5167 76.5069C36.5166 76.5069 36.5165 76.5068 36.5164 76.5068L36.4491 76.0124L36.5171 76.5069C36.517 76.5069 36.5169 76.5069 36.5167 76.5069ZM36.5167 76.5069C36.679 76.5091 36.8258 76.5109 36.957 76.5122M36.957 76.5122L37.5304 80.3354L37.6046 80.8299H38.1046H40.7659H41.2659L41.1918 80.3354L40.6278 76.5751M36.957 76.5122C37.1619 76.5144 37.3289 76.5154 37.4575 76.5154L37.3833 76.021H36.8833L36.957 76.5122ZM40.6278 76.5751C40.9426 76.5791 41.3123 76.5816 41.7367 76.5826M40.6278 76.5751L40.5536 76.0805C40.984 76.0861 41.5203 76.0888 42.1626 76.0888M40.6278 76.5751C40.4414 76.5727 40.2743 76.5698 40.1265 76.5663L40.6176 79.8409L40.6918 80.3354L42.1626 76.0888M41.7367 76.5826L41.6626 76.0888H42.1626M41.7367 76.5826C41.8957 76.583 42.0624 76.5832 42.2367 76.5832L42.7254 79.8409L42.7995 80.3354H43.2995H44.9602L42.1626 76.0888M32.042 76.0045L32.0534 75.51H31.9678L32.042 76.0045ZM32.042 76.0045H32.5493L32.5474 76.0879L32.042 76.0045ZM38.8099 64.1124L38.1773 59.8944C38.2358 59.8935 38.299 59.8926 38.3669 59.8915L38.367 59.8915C38.741 59.8857 39.0524 59.8801 39.301 59.8744C39.5228 59.8694 39.8391 59.882 40.2576 59.9153L38.8099 64.1124ZM38.8099 64.1124C38.8433 64.1129 38.8782 64.1135 38.9146 64.1141C39.2524 64.1196 39.5115 64.1195 39.6955 64.1142C39.8861 64.1087 40.169 64.0974 40.5465 64.0806C40.9112 64.0643 41.1996 64.0347 41.4176 63.9948L41.4178 63.9948C41.6535 63.9517 41.932 63.8917 42.2542 63.814L42.2543 63.814C42.5502 63.7428 42.7641 63.654 42.9112 63.5584L42.9114 63.5582C43.0877 63.4436 43.2583 63.3076 43.4218 63.1495L43.4218 63.1495C43.5467 63.0287 43.6328 62.8791 43.6791 62.6929L43.6792 62.6927C43.7276 62.4981 43.7366 62.2729 43.6973 62.011C43.6511 61.7028 43.5539 61.4501 43.4177 61.2409L43.4173 61.2404C43.2609 60.9996 43.0933 60.8152 42.9183 60.6769L42.9179 60.6766C42.7494 60.5431 42.5131 60.4135 42.1912 60.2993L42.1907 60.2992C41.847 60.1769 41.5447 60.0926 41.2827 60.0429C41.0118 59.9914 40.6712 59.9482 40.2576 59.9153L38.8099 64.1124ZM45.3708 71.6747L45.3713 71.6744C45.5929 71.5497 45.749 71.4144 45.8536 71.2757C45.9636 71.1288 46.0493 70.9511 46.1077 70.7373L45.3708 71.6747ZM45.3708 71.6747C45.1293 71.8111 44.895 71.9189 44.669 72.0001L44.6687 72.0002M45.3708 71.6747L44.6687 72.0002M44.6687 72.0002C44.4469 72.0801 44.1643 72.1532 43.816 72.2182C43.4604 72.2842 43.1527 72.3297 42.8907 72.3564C42.6252 72.3834 42.302 72.4053 41.919 72.4221C41.5321 72.4387 41.2364 72.4469 41.0285 72.4469C40.8137 72.4469 40.54 72.4439 40.2061 72.4384L40.2057 72.4384M44.6687 72.0002L40.2057 72.4384M40.2057 72.4384C40.1537 72.4375 40.1045 72.4368 40.058 72.4361L39.3464 67.691C39.4441 67.6887 39.5549 67.686 39.6785 67.6829M40.2057 72.4384L41.9443 67.716M41.9443 67.716L41.9438 67.716C41.4364 67.6822 41.0493 67.6664 40.7778 67.6664C40.4954 67.6664 40.1294 67.6715 39.6785 67.6829M41.9443 67.716C42.4427 67.7487 42.8534 67.7973 43.1805 67.8595C43.5081 67.9219 43.8769 68.0193 44.2891 68.1545L44.2892 68.1545M41.9443 67.716L44.2892 68.1545M39.6785 67.6829L39.5917 67.1886L39.6786 67.6829C39.6786 67.6829 39.6785 67.6829 39.6785 67.6829ZM44.2892 68.1545C44.6792 68.2824 44.977 68.4301 45.1973 68.5875C45.4181 68.7457 45.6215 68.9522 45.806 69.217L45.8064 69.2176M44.2892 68.1545L45.8064 69.2176M45.8064 69.2176C45.9699 69.4518 46.0822 69.7298 46.1325 70.0647L45.8064 69.2176ZM46.1325 70.0648C46.1713 70.3236 46.16 70.5449 46.1077 70.7371L46.1325 70.0648Z" fill="#CF9DFF" stroke="#DD8536"/>
<path id="Vector_58" d="M50.6403 66.1822C49.8455 65.3364 48.7505 64.7555 47.3553 64.4397C48.9431 63.5824 49.4791 62.1273 48.9641 60.0741C48.7832 59.3296 48.4763 58.6844 48.0428 58.1375C47.609 57.5904 47.0684 57.1506 46.4192 56.8179C45.7703 56.4848 45.0809 56.2312 44.3524 56.0564C43.6237 55.8816 42.7982 55.7546 41.8763 55.6758L41.2368 51.412H38.5763L39.198 55.5573C38.7373 55.5573 38.0364 55.5686 37.0953 55.5911L36.4685 51.412H33.8076L34.4471 55.6758C34.0685 55.6871 33.5108 55.6928 32.7737 55.6928L29.1083 55.6758L29.5245 58.4507H31.4422C32.3176 58.4507 32.8877 58.8343 33.1525 59.6012L33.8808 64.4572C33.9962 64.4572 34.0891 64.463 34.1599 64.4743H33.8834L34.9035 71.2757C34.8977 71.8509 34.6069 72.1387 34.0309 72.1387H32.1133L32.042 75.2351H35.4977C35.7165 75.2351 36.0335 75.2379 36.4491 75.243C36.8646 75.2487 37.1759 75.2516 37.3833 75.2516L38.0304 79.566H40.6918L40.0523 75.3023C40.5377 75.3138 41.2411 75.3193 42.1626 75.3193L42.7995 79.566H45.4602L44.813 75.2516C45.751 75.2065 46.5763 75.1224 47.2888 74.9979C48.0015 74.8733 48.6724 74.6791 49.3005 74.4138C49.9286 74.1489 50.4377 73.8188 50.8276 73.424C51.2179 73.0295 51.5137 72.5273 51.7166 71.9181C51.9184 71.3089 52.0001 70.6039 51.9604 69.8029C51.8756 68.2354 51.4353 67.0284 50.6403 66.1822ZM37.6038 58.6363C37.6845 58.6363 37.9115 58.6334 38.285 58.6277C38.6587 58.6219 38.9687 58.6164 39.2155 58.6107C39.4624 58.6051 39.7985 58.6192 40.2242 58.653C40.6497 58.6869 41.0106 58.7321 41.307 58.7884C41.6033 58.8447 41.9343 58.9378 42.299 59.0675C42.6643 59.1971 42.9642 59.3551 43.1992 59.5412C43.4347 59.7273 43.6458 59.9643 43.8327 60.2519C44.02 60.5395 44.1415 60.8694 44.1973 61.2416C44.2447 61.5575 44.2361 61.8452 44.1715 62.1048C44.107 62.3641 43.9837 62.5813 43.8028 62.7562C43.6219 62.931 43.4313 63.0835 43.2318 63.2131C43.0326 63.3427 42.7687 63.4471 42.4408 63.526C42.1131 63.605 41.8258 63.667 41.5793 63.7121C41.3326 63.7572 41.0206 63.7883 40.6429 63.8052C40.2652 63.822 39.9789 63.8335 39.784 63.8391C39.589 63.8446 39.3212 63.8446 38.9805 63.8391C38.6397 63.8335 38.4408 63.8305 38.383 63.8305L37.604 58.6362L37.6038 58.6363ZM46.5976 70.1584C46.5268 70.418 46.4198 70.6437 46.2759 70.8356C46.1317 71.027 45.9295 71.1964 45.6694 71.3428C45.4094 71.4897 45.1533 71.6079 44.9021 71.6981C44.6507 71.7888 44.3427 71.8673 43.9789 71.9352C43.6142 72.0029 43.2933 72.0506 43.015 72.079C42.7372 72.1072 42.4038 72.1297 42.0146 72.1468C41.6256 72.1633 41.3214 72.1719 41.1026 72.1719C40.8838 72.1719 40.6068 72.1689 40.2719 72.1633C39.9369 72.1581 39.7236 72.1552 39.6313 72.1552L38.7735 66.4362C38.8656 66.4362 39.1384 66.4306 39.5917 66.4191C40.0452 66.4078 40.4157 66.4025 40.7037 66.4025C40.9916 66.4025 41.3916 66.4191 41.9038 66.4532C42.4153 66.4868 42.8491 66.5374 43.2051 66.605C43.5607 66.6728 43.9533 66.777 44.3837 66.9182C44.8136 67.0591 45.1708 67.2311 45.4547 67.4341C45.7387 67.6375 45.9905 67.8965 46.2106 68.2125C46.4311 68.5282 46.5716 68.8892 46.6325 69.2954C46.6799 69.6116 46.6683 69.8988 46.5976 70.1584Z" fill="#CF9DFF"/>
<path id="Vector_59" d="M50.6403 65.4128C49.8455 64.567 48.7505 63.9861 47.3553 63.6703C48.9431 62.813 49.4791 61.3579 48.9641 59.3047C48.7832 58.5602 48.4763 57.915 48.0428 57.368C47.609 56.821 47.0684 56.3812 46.4192 56.0485C45.7703 55.7154 45.0809 55.4618 44.3524 55.287C43.6237 55.1122 42.7982 54.9852 41.8763 54.9064L41.2368 50.6426H38.5763L39.198 54.7879C38.7373 54.7879 38.0364 54.7992 37.0953 54.8217L36.4685 50.6426H33.8076L34.4471 54.9064C34.0685 54.9177 33.5108 54.9234 32.7737 54.9234L29.1083 54.9064L29.5245 57.6812H31.4422C32.3176 57.6812 32.8877 58.0648 33.1525 58.8318L33.8808 63.6878C33.9962 63.6878 34.0891 63.6936 34.1599 63.7049H33.8834L34.9035 70.5063C34.8977 71.0815 34.6069 71.3693 34.0309 71.3693H32.1133L32.042 74.4657H35.4977C35.7165 74.4657 36.0335 74.4685 36.4491 74.4736C36.8646 74.4793 37.1759 74.4821 37.3833 74.4821L38.0304 78.7966H40.6918L40.0523 74.5329C40.5377 74.5444 41.2411 74.5499 42.1626 74.5499L42.7995 78.7966H45.4602L44.813 74.4821C45.751 74.4371 46.5763 74.353 47.2888 74.2284C48.0015 74.1039 48.6724 73.9097 49.3005 73.6444C49.9286 73.3795 50.4377 73.0494 50.8276 72.6546C51.2179 72.2601 51.5137 71.7579 51.7166 71.1487C51.9184 70.5395 52.0001 69.8345 51.9604 69.0335C51.8756 67.466 51.4353 66.2589 50.6403 65.4128ZM37.6038 57.8669C37.6845 57.8669 37.9115 57.864 38.285 57.8583C38.6587 57.8525 38.9687 57.8469 39.2155 57.8413C39.4624 57.8357 39.7985 57.8498 40.2242 57.8836C40.6497 57.9175 41.0106 57.9627 41.307 58.019C41.6033 58.0753 41.9343 58.1684 42.299 58.2981C42.6643 58.4277 42.9642 58.5857 43.1992 58.7718C43.4347 58.9579 43.6458 59.1949 43.8327 59.4825C44.02 59.7701 44.1415 60.1 44.1973 60.4722C44.2447 60.7881 44.2361 61.0758 44.1715 61.3353C44.107 61.5947 43.9837 61.8119 43.8028 61.9867C43.6219 62.1616 43.4313 62.3141 43.2318 62.4437C43.0326 62.5733 42.7687 62.6777 42.4408 62.7566C42.1131 62.8356 41.8258 62.8976 41.5793 62.9426C41.3326 62.9878 41.0206 63.0189 40.6429 63.0357C40.2652 63.0526 39.9789 63.0641 39.784 63.0696C39.589 63.0752 39.3212 63.0752 38.9805 63.0696C38.6397 63.0641 38.4408 63.0611 38.383 63.0611L37.604 57.8668L37.6038 57.8669ZM46.5976 69.389C46.5268 69.6486 46.4198 69.8743 46.2759 70.0662C46.1317 70.2576 45.9295 70.427 45.6694 70.5734C45.4094 70.7202 45.1533 70.8385 44.9021 70.9287C44.6507 71.0193 44.3427 71.0979 43.9789 71.1658C43.6142 71.2335 43.2933 71.2812 43.015 71.3096C42.7372 71.3378 42.4038 71.3603 42.0146 71.3773C41.6256 71.3939 41.3214 71.4025 41.1026 71.4025C40.8838 71.4025 40.6068 71.3995 40.2719 71.3939C39.9369 71.3887 39.7236 71.3858 39.6313 71.3858L38.7735 65.6667C38.8656 65.6667 39.1384 65.6612 39.5917 65.6497C40.0452 65.6384 40.4157 65.6331 40.7037 65.6331C40.9916 65.6331 41.3916 65.6497 41.9038 65.6838C42.4153 65.7174 42.8491 65.768 43.2051 65.8356C43.5607 65.9034 43.9533 66.0076 44.3837 66.1488C44.8136 66.2897 45.1708 66.4617 45.4547 66.6647C45.7387 66.8681 45.9905 67.1271 46.2106 67.4431C46.4311 67.7588 46.5716 68.1198 46.6325 68.526C46.6799 68.8422 46.6683 69.1294 46.5976 69.389Z" fill="#CF9DFF"/>
<path id="Vector_60" d="M51.4099 65.4128C50.6151 64.567 49.52 63.9861 48.1248 63.6703C49.7126 62.813 50.2487 61.3579 49.7336 59.3047C49.5527 58.5602 49.2458 57.915 48.8123 57.368C48.3785 56.821 47.838 56.3812 47.1887 56.0485C46.5399 55.7154 45.8505 55.4618 45.1219 55.287C44.3932 55.1122 43.5677 54.9852 42.6459 54.9064L42.0064 50.6426H39.3458L39.9675 54.7879C39.5068 54.7879 38.8059 54.7992 37.8649 54.8217L37.238 50.6426H34.5771L35.2166 54.9064C34.8381 54.9177 34.2804 54.9234 33.5432 54.9234L29.8778 54.9064L30.294 57.6812H32.2117C33.0872 57.6812 33.6573 58.0648 33.922 58.8318L34.6504 63.6878C34.7657 63.6878 34.8586 63.6936 34.9295 63.7049H34.6529L35.673 70.5063C35.6673 71.0815 35.3764 71.3693 34.8004 71.3693H32.8828L32.8115 74.4657H36.2672C36.4861 74.4657 36.8031 74.4685 37.2187 74.4736C37.6341 74.4793 37.9454 74.4821 38.1528 74.4821L38.7999 78.7966H41.4613L40.8218 74.5329C41.3072 74.5444 42.0106 74.5499 42.9321 74.5499L43.5691 78.7966H46.2297L45.5826 74.4821C46.5206 74.4371 47.3458 74.353 48.0583 74.2284C48.7711 74.1039 49.4419 73.9097 50.07 73.6444C50.6982 73.3795 51.2072 73.0494 51.5972 72.6546C51.9874 72.2601 52.2832 71.7579 52.4861 71.1487C52.688 70.5395 52.7697 69.8345 52.7299 69.0335C52.6452 67.466 52.2048 66.2589 51.4099 65.4128ZM38.3733 57.8669C38.454 57.8669 38.681 57.864 39.0546 57.8583C39.4282 57.8525 39.7383 57.8469 39.985 57.8413C40.2319 57.8357 40.5681 57.8498 40.9937 57.8836C41.4192 57.9175 41.7802 57.9627 42.0765 58.019C42.3728 58.0753 42.7038 58.1684 43.0685 58.2981C43.4338 58.4277 43.7338 58.5857 43.9688 58.7718C44.2042 58.9579 44.4154 59.1949 44.6022 59.4825C44.7895 59.7701 44.911 60.1 44.9668 60.4722C45.0142 60.7881 45.0056 61.0758 44.941 61.3353C44.8766 61.5947 44.7532 61.8119 44.5724 61.9867C44.3915 62.1616 44.2008 62.3141 44.0014 62.4437C43.8022 62.5733 43.5382 62.6777 43.2104 62.7566C42.8826 62.8356 42.5953 62.8976 42.3488 62.9426C42.1021 62.9878 41.7901 63.0189 41.4125 63.0357C41.0348 63.0526 40.7484 63.0641 40.5536 63.0696C40.3585 63.0752 40.0908 63.0752 39.75 63.0696C39.4092 63.0641 39.2103 63.0611 39.1526 63.0611L38.3735 57.8668L38.3733 57.8669ZM47.3672 69.389C47.2964 69.6486 47.1894 69.8743 47.0455 70.0662C46.9012 70.2576 46.699 70.427 46.4389 70.5734C46.1789 70.7202 45.9228 70.8385 45.6717 70.9287C45.4202 71.0193 45.1122 71.0979 44.7484 71.1658C44.3837 71.2335 44.0628 71.2812 43.7846 71.3096C43.5067 71.3378 43.1733 71.3603 42.7841 71.3773C42.3951 71.3939 42.0909 71.4025 41.8722 71.4025C41.6533 71.4025 41.3763 71.3995 41.0414 71.3939C40.7064 71.3887 40.4931 71.3858 40.4009 71.3858L39.5431 65.6667C39.6351 65.6667 39.9079 65.6612 40.3613 65.6497C40.8147 65.6384 41.1852 65.6331 41.4732 65.6331C41.7611 65.6331 42.1612 65.6497 42.6733 65.6838C43.1848 65.7174 43.6187 65.768 43.9747 65.8356C44.3303 65.9034 44.7228 66.0076 45.1532 66.1488C45.5832 66.2897 45.9403 66.4617 46.2242 66.6647C46.5082 66.8681 46.76 67.1271 46.9801 67.4431C47.2006 67.7588 47.3411 68.1198 47.402 68.526C47.4494 68.8422 47.4378 69.1294 47.3672 69.389Z" fill="#A140FD"/>
</g>
</g>
</g>
</svg>
