<svg width="151" height="131" viewBox="0 0 151 131" fill="none" xmlns="http://www.w3.org/2000/svg">
<g id="Group 189">
<g id="_x35_9">
<g id="Group">
<g id="Group_2">
<g id="Group_3">
<g id="Group_4">
<g id="Group_5">
<g id="Group_6">
<g id="Group_7">
<path id="Vector" d="M139.197 43.8682C135.962 45.7873 132.065 46.7032 127.852 46.2597C127.285 46.2009 126.738 46.121 126.169 46.0218C122.817 45.4042 119.636 43.9731 116.816 41.9635C115.012 40.6813 113.34 39.1521 111.902 37.4122C109.303 34.3452 107.314 30.6769 106.274 26.7031C105.854 25.2065 105.606 23.6762 105.465 22.1085C105.431 21.7468 105.417 21.3641 105.403 21.0015C105.319 18.8265 105.501 16.742 105.951 14.7885C107.197 9.41595 110.338 5.05981 114.637 2.51489L109.254 5.72663C104.955 8.27166 101.814 12.6277 100.588 17.9995C100.118 19.9537 99.9361 22.0382 100.02 24.2133C100.033 24.5758 100.068 24.9376 100.102 25.2993C100.222 26.8678 100.503 28.4101 100.884 29.9083C101.965 33.9007 103.92 37.5571 106.518 40.6239C107.957 42.3638 109.609 43.8939 111.413 45.176C118.189 50.0515 126.925 51.1567 133.793 47.0807L139.197 43.8682Z" fill="#4B5067"/>
</g>
</g>
</g>
<g id="Group_8">
<g id="Group_9">
<g id="Group_10">
<path id="Vector_2" d="M148.412 25.3825C147.903 12.6348 137.868 1.32145 125.982 0.103331C114.116 -1.0954 104.895 8.27416 105.404 21.0017C105.913 33.7494 115.968 45.062 127.854 46.2599C139.72 47.4788 148.921 38.1302 148.412 25.3825Z" fill="#898D9E"/>
</g>
</g>
<g id="Group_11">
<g id="Group_12">
<path id="Vector_3" d="M125.866 1.18813C115.323 -0.0684316 105.978 8.3719 106.486 20.9563C106.966 33.164 116.602 44.0396 127.958 45.186C139.498 46.2864 147.799 37.2483 147.323 25.4334C146.843 13.2256 137.207 2.35005 125.866 1.18813ZM127.477 41.1736C118.275 40.2441 110.467 31.4754 110.064 21.6378C109.684 11.8973 116.57 4.34623 126.347 5.18506C135.549 6.13007 143.342 14.9141 143.744 24.7518C144.151 35.1103 136.421 42.168 127.477 41.1736Z" fill="#6D738E"/>
</g>
</g>
</g>
<g id="Group_13">
<g id="Group_14">
<g id="Group_15">
<path id="Vector_4" d="M142.659 24.7961C142.28 15.452 134.923 7.1622 126.236 6.26515C117.529 5.38903 110.773 12.2435 111.152 21.5877C111.531 30.9318 118.888 39.2216 127.594 40.0977C136.281 40.9948 143.037 34.1201 142.659 24.7961Z" fill="#4B5067"/>
</g>
</g>
</g>
<g id="Group_16">
<g id="Group_17">
<g id="Group_18">
<path id="Vector_5" d="M142.659 24.7962C142.28 15.4521 134.923 7.16228 126.236 6.26523C121.174 5.75353 116.757 7.85917 114.055 11.5531C116.709 9.25269 120.254 8.06798 124.202 8.46101C132.89 9.35806 140.247 17.6478 140.625 26.992C140.775 30.879 139.697 34.3491 137.722 37.0066C140.945 34.2609 142.875 29.8909 142.659 24.7962Z" fill="#5C6280"/>
</g>
</g>
</g>
<g id="Group_19">
<g id="Group_20">
<g id="Group_21">
<path id="Vector_6" d="M126.17 46.0221C122.819 45.4044 119.637 43.9733 116.817 41.9637L111.414 45.1763C114.235 47.206 117.415 48.6169 120.767 49.2346L126.17 46.0221Z" fill="#5C6280"/>
</g>
</g>
</g>
<g id="Group_22">
<g id="Group_23">
<g id="Group_24">
<path id="Vector_7" d="M111.903 37.4123C109.304 34.3454 107.316 30.6771 106.276 26.7032L100.885 29.9084C101.966 33.9008 103.921 37.5572 106.52 40.6241L111.903 37.4123Z" fill="#5C6280"/>
</g>
</g>
</g>
<g id="Group_25">
<g id="Group_26">
<g id="Group_27">
<path id="Vector_8" d="M105.951 14.7886L100.588 17.9995C100.118 19.9537 99.9361 22.0382 100.02 24.2134C100.033 24.5759 100.068 24.9376 100.102 25.2993L105.465 22.1085C105.431 21.7468 105.417 21.3642 105.403 21.0015C105.319 18.8265 105.501 16.742 105.951 14.7886Z" fill="#5C6280"/>
</g>
</g>
</g>
</g>
<g id="Group_28">
<g id="Group_29">
<path id="Vector_9" d="M112.727 15.3031C112.83 15.0787 113.149 15.0817 113.251 15.307C113.78 16.4694 114.237 17.4147 114.317 17.3818C114.39 17.352 114.061 16.3583 113.633 15.1584C113.55 14.9256 113.776 14.7012 114.006 14.7892C116.351 15.6863 118.505 16.4662 118.565 16.3218C118.623 16.1829 116.562 15.1693 114.287 14.1056C114.063 14.001 114.065 13.6809 114.289 13.5785C115.438 13.0531 116.376 12.598 116.343 12.517C116.313 12.4433 115.325 12.7717 114.132 13.1981C113.9 13.2808 113.676 13.0533 113.763 12.8224C116.034 6.79002 115.752 6.7451 113.082 12.5381C112.979 12.7625 112.66 12.7596 112.557 12.5342C112.031 11.3785 111.577 10.4343 111.504 10.4642C111.423 10.497 111.753 11.494 112.184 12.6852C112.268 12.9183 112.042 13.1437 111.811 13.0556C109.471 12.1613 107.307 11.3829 107.249 11.5218C107.189 11.6662 109.257 12.6774 111.53 13.7388C111.753 13.8432 111.751 14.1629 111.528 14.2657C110.376 14.7954 109.436 15.2503 109.466 15.324C109.499 15.4049 110.49 15.0763 111.676 14.6435C111.907 14.5589 112.133 14.7866 112.046 15.0184C109.801 20.9882 110.023 21.1743 112.727 15.3031Z" fill="white"/>
</g>
</g>
</g>
</g>
<g id="Group_30" opacity="0.7">
<g id="Group_31">
<path id="Vector_10" d="M122.431 35.1926C124.43 36.3809 126.206 36.9117 125.777 37.7246C125.352 38.529 123.357 38.2446 121.358 37.0563C119.36 35.8681 118.409 34.2473 118.834 33.443C119.263 32.6301 120.433 34.0043 122.431 35.1926Z" fill="white"/>
</g>
</g>
<g id="Group_32" opacity="0.7">
<g id="Group_33">
<path id="Vector_11" d="M116.514 31.1087C116.874 30.8276 117.483 31.0073 117.874 31.4978C118.266 31.9882 118.295 32.6075 117.934 32.8886C117.582 33.164 116.979 32.9922 116.588 32.5017C116.197 32.0112 116.161 31.384 116.514 31.1087Z" fill="white"/>
</g>
</g>
<g id="Group 177">
<path id="Vector_12" d="M134.337 24.0693L134.337 24.0693C135 24.7748 135.319 25.7305 135.379 26.8505L135.38 26.8526C135.409 27.4367 135.35 27.967 135.194 28.4361L135.194 28.4366C135.041 28.8965 134.813 29.2894 134.502 29.6038C134.196 29.9132 133.807 30.1625 133.345 30.3575C132.891 30.549 132.408 30.6886 131.897 30.7779M134.337 24.0693L131.739 30.2906M134.337 24.0693C133.927 23.6334 133.428 23.2969 132.853 23.0509M134.337 24.0693L132.853 23.0509M131.897 30.7779L131.739 30.2906M131.897 30.7779C131.897 30.7779 131.897 30.7779 131.897 30.7779L131.739 30.2906M131.897 30.7779C131.521 30.8437 131.104 30.8928 130.647 30.9263M131.739 30.2906C131.261 30.3742 130.707 30.4306 130.077 30.4609M130.647 30.9263L130.577 30.4609H130.077M130.647 30.9263L131.012 33.3567L131.086 33.8511H130.586H128.8H128.3L128.226 33.3567L127.873 30.9999M130.647 30.9263C130.494 30.9375 130.337 30.947 130.176 30.9548L130.077 30.4609M130.077 30.4609L132.853 23.0509M132.853 23.0509C133.062 22.8226 133.223 22.5612 133.332 22.2656C133.55 21.6735 133.544 20.985 133.354 20.2268C133.217 19.6617 132.978 19.1514 132.627 18.7089L132.627 18.7088C132.279 18.2696 131.846 17.9187 131.336 17.6573C130.856 17.411 130.349 17.2252 129.818 17.0978L129.818 17.0978C129.426 17.0036 128.999 16.9301 128.54 16.8761L128.177 14.4601L128.103 13.9656H127.603H125.817H125.317L125.391 14.4601L125.735 16.7522C125.61 16.754 125.472 16.7564 125.322 16.7594L124.977 14.4601L124.903 13.9656H124.403H122.617H122.117L122.191 14.4601L122.547 16.8362C122.368 16.838 122.16 16.8389 121.924 16.8389L119.465 16.8274L118.962 16.8251L119.037 17.3219L119.316 19.1843L119.39 19.6788H119.89H121.177C121.401 19.6788 121.523 19.7279 121.588 19.7717C121.641 19.8075 121.705 19.8716 121.759 20.0089L122.167 22.7328L122.24 23.2159L122.242 23.2273L122.314 23.7103L122.92 27.7481C122.917 27.787 122.911 27.8128 122.906 27.8287C122.899 27.8473 122.894 27.8529 122.893 27.8538L122.893 27.8538L122.893 27.8539C122.892 27.8547 122.887 27.8592 122.872 27.8644C122.854 27.8701 122.822 27.8771 122.766 27.8771H121.479H121.058L121.048 28.2882L121 30.3664L120.987 30.9443H121.58H123.899C124.043 30.9443 124.253 30.9462 124.531 30.9496M124.531 30.9496C124.531 30.9496 124.531 30.9496 124.531 30.9496L124.464 30.4551L124.532 30.9496C124.532 30.9496 124.531 30.9496 124.531 30.9496ZM124.531 30.9496C124.578 30.9502 124.622 30.9508 124.664 30.9513M124.664 30.9513L125.025 33.3567L125.099 33.8511H125.599H127.386H127.886L127.811 33.3567L127.457 30.9972M124.664 30.9513C124.879 30.954 125.046 30.9553 125.165 30.9553L125.091 30.4609H124.591L124.664 30.9513ZM127.457 30.9972C127.585 30.9984 127.723 30.9993 127.873 30.9999M127.457 30.9972L127.383 30.5027C127.641 30.5052 127.946 30.5064 128.299 30.5064M127.457 30.9972C127.265 30.9954 127.098 30.9928 126.956 30.9895L127.237 32.8622L127.311 33.3567L128.299 30.5064M127.873 30.9999L127.799 30.5064H128.299M127.873 30.9999C128.027 31.0005 128.194 31.0008 128.373 31.0008L128.652 32.8622L128.726 33.3567H129.226H130.012L128.299 30.5064M121.506 30.4498L121.517 29.9553H121.432L121.506 30.4498ZM121.506 30.4498H122.013L122.011 30.5332L121.506 30.4498ZM126.189 22.3079C126.37 22.3101 126.51 22.3096 126.614 22.3067L126.189 22.3079ZM126.189 22.3079L125.812 19.7971C126.048 19.7934 126.246 19.7898 126.406 19.7861C126.547 19.7829 126.752 19.7909 127.031 19.813L126.189 22.3079ZM128.282 20.0608L128.282 20.0606C128.058 19.981 127.865 19.9274 127.7 19.8961C127.526 19.8631 127.305 19.8348 127.031 19.813L128.282 20.0608ZM128.282 20.0608C128.484 20.1323 128.622 20.21 128.713 20.2823L128.713 20.2826M128.282 20.0608L128.713 20.2826M128.713 20.2826C128.811 20.3597 128.909 20.4662 129.004 20.6124L129.004 20.6129M128.713 20.2826L129.004 20.6129M129.004 20.6129C129.079 20.7275 129.136 20.8718 129.164 21.0576C129.188 21.2157 129.182 21.3462 129.155 21.4555L129.155 21.4556M129.004 20.6129L129.155 21.4556M129.155 21.4556C129.129 21.5566 129.084 21.6348 129.018 21.6981L129.018 21.6981M129.155 21.4556L129.018 21.6981M129.018 21.6981C128.914 21.7986 128.807 21.8846 128.696 21.9566L128.696 21.9567M129.018 21.6981L128.696 21.9567M128.696 21.9567C128.614 22.0097 128.487 22.0642 128.299 22.1094L128.299 22.1095M128.696 21.9567L128.299 22.1095M128.299 22.1095C128.084 22.1612 127.9 22.2008 127.746 22.2291L127.745 22.2291M128.299 22.1095L127.745 22.2291M127.745 22.2291C127.608 22.2541 127.423 22.2735 127.182 22.2842M127.745 22.2291L127.182 22.2842M126.597 25.0286L127.026 27.8947C127.222 27.8978 127.384 27.8994 127.513 27.8994C127.649 27.8994 127.845 27.894 128.103 27.883C128.359 27.8718 128.572 27.8572 128.746 27.8395C128.917 27.8221 129.119 27.7923 129.355 27.7486L126.597 25.0286ZM126.597 25.0286C126.617 25.0281 126.638 25.0275 126.66 25.027C126.66 25.027 126.66 25.027 126.66 25.027L126.597 25.0286ZM127.182 22.2842C126.929 22.2955 126.74 22.3031 126.614 22.3067L127.182 22.2842ZM128.974 25.1425C129.184 25.1826 129.424 25.2458 129.695 25.3345L129.695 25.3345C129.943 25.4161 130.124 25.5072 130.251 25.5979C130.378 25.6892 130.499 25.8105 130.611 25.9715L130.611 25.972C130.702 26.1024 130.768 26.2617 130.799 26.4631L128.974 25.1425Z" fill="#898D9E" stroke="#5C627F"/>
<path id="Vector_13" d="M133.989 23.8572C133.455 23.2895 132.72 22.8996 131.784 22.6876C132.85 22.1122 133.209 21.1356 132.864 19.7575C132.742 19.2578 132.536 18.8247 132.245 18.4576C131.954 18.0905 131.591 17.7953 131.155 17.572C130.72 17.3484 130.257 17.1782 129.768 17.0609C129.279 16.9435 128.725 16.8583 128.106 16.8054L127.677 13.9436H125.891L126.309 16.7259C126 16.7259 125.529 16.7334 124.897 16.7486L124.477 13.9436H122.691L123.12 16.8054C122.866 16.813 122.492 16.8169 121.997 16.8169L119.537 16.8054L119.816 18.6679H121.103C121.691 18.6679 122.073 18.9253 122.251 19.4401L122.74 22.6994C122.817 22.6994 122.88 22.7033 122.927 22.7108H122.742L123.426 27.2759C123.422 27.6619 123.227 27.8551 122.841 27.8551H121.554L121.506 29.9333H123.825C123.972 29.9333 124.185 29.9352 124.464 29.9387C124.743 29.9425 124.952 29.9444 125.091 29.9444L125.525 32.8402H127.311L126.882 29.9784C127.208 29.9862 127.68 29.9899 128.299 29.9899L128.726 32.8402H130.512L130.077 29.9444C130.707 29.9142 131.261 29.8577 131.739 29.7741C132.218 29.6905 132.668 29.5602 133.089 29.3821C133.511 29.2043 133.853 28.9827 134.114 28.7177C134.376 28.453 134.575 28.1159 134.711 27.707C134.847 27.2981 134.901 26.825 134.875 26.2873C134.818 25.2352 134.522 24.4251 133.989 23.8572ZM125.239 18.7924C125.293 18.7924 125.445 18.7905 125.696 18.7867C125.947 18.7828 126.155 18.7791 126.321 18.7753C126.486 18.7715 126.712 18.781 126.998 18.8037C127.283 18.8264 127.525 18.8568 127.724 18.8945C127.923 18.9323 128.145 18.9948 128.39 19.0819C128.635 19.1689 128.837 19.2749 128.994 19.3998C129.152 19.5247 129.294 19.6838 129.419 19.8768C129.545 20.0699 129.627 20.2913 129.664 20.5411C129.696 20.7531 129.69 20.9462 129.647 21.1204C129.604 21.2945 129.521 21.4403 129.399 21.5577C129.278 21.675 129.15 21.7773 129.016 21.8643C128.882 21.9513 128.705 22.0214 128.485 22.0743C128.265 22.1274 128.072 22.169 127.907 22.1992C127.741 22.2295 127.532 22.2504 127.279 22.2617C127.025 22.273 126.833 22.2807 126.702 22.2845C126.571 22.2882 126.391 22.2882 126.163 22.2845C125.934 22.2807 125.801 22.2787 125.762 22.2787L125.239 18.7924L125.239 18.7924ZM131.275 26.5259C131.228 26.7002 131.156 26.8517 131.059 26.9805C130.963 27.1089 130.827 27.2226 130.652 27.3209C130.478 27.4195 130.306 27.4988 130.137 27.5594C129.968 27.6202 129.762 27.6729 129.518 27.7185C129.273 27.764 129.057 27.7959 128.871 27.815C128.684 27.834 128.46 27.849 128.199 27.8605C127.938 27.8716 127.734 27.8774 127.587 27.8774C127.44 27.8774 127.254 27.8753 127.03 27.8716C126.805 27.8681 126.661 27.8662 126.6 27.8662L126.024 24.0276C126.086 24.0276 126.269 24.0239 126.573 24.0162C126.877 24.0086 127.126 24.005 127.319 24.005C127.513 24.005 127.781 24.0162 128.125 24.0391C128.468 24.0616 128.759 24.0956 128.998 24.141C129.237 24.1865 129.5 24.2564 129.789 24.3512C130.078 24.4457 130.318 24.5612 130.508 24.6974C130.699 24.8339 130.868 25.0078 131.015 25.2199C131.163 25.4318 131.258 25.6741 131.299 25.9467C131.33 26.1589 131.323 26.3517 131.275 26.5259Z" fill="#898D9E"/>
<path id="Vector_14" d="M133.989 23.3408C133.455 22.7731 132.72 22.3832 131.784 22.1713C132.85 21.5959 133.209 20.6192 132.864 19.2412C132.742 18.7415 132.536 18.3084 132.245 17.9413C131.954 17.5741 131.591 17.2789 131.155 17.0556C130.72 16.8321 130.257 16.6619 129.768 16.5445C129.279 16.4272 128.725 16.342 128.106 16.289L127.677 13.4272H125.891L126.309 16.2095C126 16.2095 125.529 16.2171 124.897 16.2322L124.477 13.4272H122.691L123.12 16.289C122.866 16.2966 122.492 16.3005 121.997 16.3005L119.537 16.289L119.816 18.1515H121.103C121.691 18.1515 122.073 18.409 122.251 18.9237L122.74 22.183C122.817 22.183 122.88 22.1869 122.927 22.1945H122.742L123.426 26.7595C123.422 27.1455 123.227 27.3387 122.841 27.3387H121.554L121.506 29.417H123.825C123.972 29.417 124.185 29.4189 124.464 29.4223C124.743 29.4261 124.952 29.428 125.091 29.428L125.525 32.3238H127.311L126.882 29.4621C127.208 29.4698 127.68 29.4735 128.299 29.4735L128.726 32.3238H130.512L130.077 29.428C130.707 29.3978 131.261 29.3413 131.739 29.2578C132.218 29.1742 132.668 29.0438 133.089 28.8658C133.511 28.688 133.853 28.4664 134.114 28.2014C134.376 27.9366 134.575 27.5996 134.711 27.1907C134.847 26.7818 134.901 26.3086 134.875 25.771C134.818 24.7189 134.522 23.9087 133.989 23.3408ZM125.239 18.2761C125.293 18.2761 125.445 18.2742 125.696 18.2704C125.947 18.2665 126.155 18.2627 126.321 18.2589C126.486 18.2552 126.712 18.2646 126.998 18.2873C127.283 18.31 127.525 18.3404 127.724 18.3782C127.923 18.416 128.145 18.4785 128.39 18.5655C128.635 18.6525 128.837 18.7586 128.994 18.8835C129.152 19.0084 129.294 19.1674 129.419 19.3605C129.545 19.5535 129.627 19.775 129.664 20.0247C129.696 20.2368 129.69 20.4299 129.647 20.6041C129.604 20.7782 129.521 20.924 129.399 21.0413C129.278 21.1587 129.15 21.261 129.016 21.348C128.882 21.435 128.705 21.505 128.485 21.558C128.265 21.611 128.072 21.6527 127.907 21.6829C127.741 21.7132 127.532 21.7341 127.279 21.7454C127.025 21.7567 126.833 21.7644 126.702 21.7681C126.571 21.7719 126.391 21.7719 126.163 21.7681C125.934 21.7644 125.801 21.7624 125.762 21.7624L125.239 18.276L125.239 18.2761ZM131.275 26.0096C131.228 26.1838 131.156 26.3353 131.059 26.4641C130.963 26.5926 130.827 26.7062 130.652 26.8045C130.478 26.9031 130.306 26.9825 130.137 27.043C129.968 27.1038 129.762 27.1566 129.518 27.2021C129.273 27.2476 129.057 27.2796 128.871 27.2986C128.684 27.3176 128.46 27.3327 128.199 27.3441C127.938 27.3553 127.734 27.361 127.587 27.361C127.44 27.361 127.254 27.359 127.03 27.3553C126.805 27.3517 126.661 27.3498 126.6 27.3498L126.024 23.5113C126.086 23.5113 126.269 23.5076 126.573 23.4998C126.877 23.4922 127.126 23.4887 127.319 23.4887C127.513 23.4887 127.781 23.4998 128.125 23.5227C128.468 23.5453 128.759 23.5792 128.998 23.6246C129.237 23.6701 129.5 23.74 129.789 23.8348C130.078 23.9294 130.318 24.0448 130.508 24.1811C130.699 24.3176 130.868 24.4915 131.015 24.7035C131.163 24.9154 131.258 25.1577 131.299 25.4304C131.33 25.6426 131.323 25.8353 131.275 26.0096Z" fill="#898D9E"/>
<path id="Vector_15" d="M134.505 23.3408C133.972 22.7731 133.237 22.3832 132.3 22.1713C133.366 21.5959 133.726 20.6192 133.38 19.2412C133.259 18.7415 133.053 18.3084 132.762 17.9413C132.471 17.5741 132.108 17.2789 131.672 17.0556C131.237 16.8321 130.774 16.6619 130.285 16.5445C129.796 16.4272 129.242 16.342 128.623 16.289L128.194 13.4272H126.408L126.825 16.2095C126.516 16.2095 126.046 16.2171 125.414 16.2322L124.993 13.4272H123.207L123.637 16.289C123.383 16.2966 123.008 16.3005 122.513 16.3005L120.053 16.289L120.333 18.1515H121.62C122.207 18.1515 122.59 18.409 122.768 18.9237L123.257 22.183C123.334 22.183 123.396 22.1869 123.444 22.1945H123.258L123.943 26.7595C123.939 27.1455 123.744 27.3387 123.357 27.3387H122.07L122.022 29.417H124.342C124.489 29.417 124.701 29.4189 124.98 29.4223C125.259 29.4261 125.468 29.428 125.607 29.428L126.042 32.3238H127.828L127.399 29.4621C127.725 29.4698 128.197 29.4735 128.815 29.4735L129.243 32.3238H131.028L130.594 29.428C131.224 29.3978 131.778 29.3413 132.256 29.2578C132.734 29.1742 133.184 29.0438 133.606 28.8658C134.028 28.688 134.369 28.4664 134.631 28.2014C134.893 27.9366 135.091 27.5996 135.228 27.1907C135.363 26.7818 135.418 26.3086 135.391 25.771C135.334 24.7189 135.039 23.9087 134.505 23.3408ZM125.755 18.2761C125.809 18.2761 125.962 18.2742 126.213 18.2704C126.463 18.2665 126.671 18.2627 126.837 18.2589C127.003 18.2552 127.228 18.2646 127.514 18.2873C127.8 18.31 128.042 18.3404 128.241 18.3782C128.44 18.416 128.662 18.4785 128.907 18.5655C129.152 18.6525 129.353 18.7586 129.511 18.8835C129.669 19.0084 129.811 19.1674 129.936 19.3605C130.062 19.5535 130.143 19.775 130.181 20.0247C130.213 20.2368 130.207 20.4299 130.163 20.6041C130.12 20.7782 130.037 20.924 129.916 21.0413C129.795 21.1587 129.667 21.261 129.533 21.348C129.399 21.435 129.222 21.505 129.002 21.558C128.782 21.611 128.589 21.6527 128.424 21.6829C128.258 21.7132 128.049 21.7341 127.795 21.7454C127.542 21.7567 127.349 21.7644 127.219 21.7681C127.088 21.7719 126.908 21.7719 126.679 21.7681C126.451 21.7644 126.317 21.7624 126.278 21.7624L125.755 18.276L125.755 18.2761ZM131.792 26.0096C131.744 26.1838 131.673 26.3353 131.576 26.4641C131.479 26.5926 131.343 26.7062 131.169 26.8045C130.994 26.9031 130.822 26.9825 130.654 27.043C130.485 27.1038 130.278 27.1566 130.034 27.2021C129.789 27.2476 129.574 27.2796 129.387 27.2986C129.201 27.3176 128.977 27.3327 128.716 27.3441C128.455 27.3553 128.251 27.361 128.104 27.361C127.957 27.361 127.771 27.359 127.546 27.3553C127.321 27.3517 127.178 27.3498 127.116 27.3498L126.54 23.5113C126.602 23.5113 126.785 23.5076 127.09 23.4998C127.394 23.4922 127.643 23.4887 127.836 23.4887C128.029 23.4887 128.298 23.4998 128.641 23.5227C128.985 23.5453 129.276 23.5792 129.515 23.6246C129.754 23.6701 130.017 23.74 130.306 23.8348C130.594 23.9294 130.834 24.0448 131.025 24.1811C131.215 24.3176 131.384 24.4915 131.532 24.7035C131.68 24.9154 131.774 25.1577 131.815 25.4304C131.847 25.6426 131.839 25.8353 131.792 26.0096Z" fill="#BABABA"/>
</g>
</g>
</g>
<g id="_x35_9_2">
<g id="Group_34">
<g id="Group_35">
<g id="Group_36">
<g id="Group_37">
<g id="Group_38">
<g id="Group_39">
<g id="Group_40">
<path id="Vector_16" d="M112.899 97.9452C106.636 101.661 99.0888 103.435 90.9322 102.576C89.8341 102.462 88.7739 102.308 87.6728 102.116C81.1829 100.919 75.0228 98.1484 69.562 94.2571C66.0689 91.7743 62.8309 88.8132 60.0459 85.444C55.014 79.5053 51.1631 72.4021 49.1494 64.7073C48.3352 61.8094 47.8556 58.8462 47.5827 55.8105C47.5168 55.1101 47.4883 54.3691 47.4614 53.6669C47.2998 49.4553 47.6527 45.4189 48.5231 41.6364C50.9361 31.2331 57.0174 22.798 65.3424 17.8701L54.9189 24.0892C46.5939 29.0173 40.5123 37.4522 38.1386 47.854C37.2292 51.638 36.8763 55.6744 37.0379 59.8863C37.0648 60.5882 37.1308 61.2886 37.1968 61.9891C37.4303 65.0263 37.9745 68.0128 38.7108 70.9137C40.804 78.6445 44.5905 85.7246 49.6221 91.6631C52.4074 95.0323 55.6064 97.9951 59.0994 100.478C72.2199 109.918 89.1358 112.058 102.436 104.166L112.899 97.9452Z" fill="#4B5067"/>
</g>
</g>
</g>
<g id="Group_41">
<g id="Group_42">
<g id="Group_43">
<path id="Vector_17" d="M130.741 62.1499C129.755 37.4655 110.324 15.5588 87.3082 13.2001C64.3324 10.8789 46.4771 29.0218 47.4617 53.6669C48.4478 78.3513 67.9179 100.256 90.9325 102.576C113.91 104.936 131.727 86.834 130.741 62.1499Z" fill="#898D9E"/>
</g>
</g>
<g id="Group_44">
<g id="Group_45">
<path id="Vector_18" d="M87.0858 15.3008C66.671 12.8676 48.5751 29.2112 49.5578 53.5791C50.4876 77.2178 69.1467 98.2769 91.1359 100.497C113.483 102.628 129.556 85.1264 128.634 62.2484C127.704 38.6098 109.045 17.5507 87.0858 15.3008ZM90.2058 92.7272C72.3868 90.9274 57.2673 73.948 56.4873 54.8989C55.7508 36.0376 69.0857 21.416 88.016 23.0403C105.835 24.8702 120.924 41.8792 121.704 60.9287C122.492 80.9866 107.525 94.6529 90.2058 92.7272Z" fill="#6D738E"/>
</g>
</g>
</g>
<g id="Group_46">
<g id="Group_47">
<g id="Group_48">
<path id="Vector_19" d="M119.607 61.0147C118.873 42.921 104.627 26.869 87.8057 25.1319C70.9465 23.4355 57.8645 36.7083 58.5977 54.802C59.331 72.8956 73.5772 88.9477 90.4362 90.6442C107.258 92.3812 120.338 79.0693 119.607 61.0147Z" fill="#4B5067"/>
</g>
</g>
</g>
<g id="Group_49">
<g id="Group_50">
<g id="Group_51">
<path id="Vector_20" d="M119.606 61.0147C118.873 42.921 104.627 26.869 87.8051 25.1319C78.0032 24.1411 69.4501 28.2184 64.2178 35.3711C69.3584 30.9168 76.2224 28.6227 83.8672 29.3838C100.689 31.1208 114.935 47.1729 115.668 65.2665C115.957 72.7931 113.871 79.5126 110.046 84.6586C116.286 79.3418 120.024 70.8798 119.606 61.0147Z" fill="#5C6280"/>
</g>
</g>
</g>
<g id="Group_52">
<g id="Group_53">
<g id="Group_54">
<path id="Vector_21" d="M87.674 102.115C81.184 100.919 75.0239 98.1484 69.5631 94.2571L59.1006 100.478C64.5629 104.408 70.7213 107.14 77.2114 108.336L87.674 102.115Z" fill="#5C6280"/>
</g>
</g>
</g>
<g id="Group_55">
<g id="Group_56">
<g id="Group_57">
<path id="Vector_22" d="M60.045 85.444C55.0132 79.5052 51.1622 72.402 49.1486 64.7073L38.71 70.9136C40.8032 78.6444 44.5897 85.7246 49.6213 91.6631L60.045 85.444Z" fill="#5C6280"/>
</g>
</g>
</g>
<g id="Group_58">
<g id="Group_59">
<g id="Group_60">
<path id="Vector_23" d="M48.5231 41.6364L38.1386 47.854C37.2292 51.638 36.8763 55.6744 37.0379 59.8862C37.0648 60.5882 37.1308 61.2886 37.1968 61.9891L47.5827 55.8105C47.5168 55.1101 47.4883 54.3691 47.4614 53.6669C47.2998 49.4553 47.6527 45.4189 48.5231 41.6364Z" fill="#5C6280"/>
</g>
</g>
</g>
</g>
<g id="Group_61">
<g id="Group_62">
<path id="Vector_24" d="M61.6426 42.6326C61.8427 42.1981 62.46 42.2037 62.6586 42.6401C63.6829 44.891 64.5666 46.7214 64.7226 46.6577C64.8646 46.5999 64.226 44.6757 63.3976 42.3524C63.2368 41.9015 63.6742 41.467 64.1197 41.6374C68.6607 43.3746 72.8318 44.8847 72.9487 44.605C73.061 44.3361 69.0701 42.3734 64.6638 40.3137C64.2309 40.1113 64.2346 39.4914 64.6683 39.293C66.8927 38.2758 68.7091 37.3944 68.6452 37.2375C68.5872 37.0948 66.6738 37.7309 64.3638 38.5565C63.9154 38.7167 63.4817 38.2761 63.65 37.829C68.0475 26.1481 67.5013 26.0611 62.3311 37.2785C62.1309 37.7129 61.5138 37.7073 61.3152 37.271C60.2965 35.0331 59.4161 33.2048 59.2744 33.2626C59.1185 33.3262 59.7576 35.2568 60.5912 37.5634C60.7542 38.0146 60.3168 38.4512 59.8701 38.2805C55.3381 36.5488 51.149 35.0417 51.0367 35.3105C50.9198 35.5901 54.9252 37.5482 59.3249 39.6035C59.7575 39.8055 59.7544 40.4247 59.3215 40.6237C57.0911 41.6494 55.2704 42.5303 55.3285 42.673C55.3922 42.8296 57.3114 42.1933 59.6074 41.3553C60.0562 41.1915 60.4933 41.6324 60.3245 42.0812C55.977 53.641 56.4074 54.0013 61.6426 42.6326Z" fill="white"/>
</g>
</g>
</g>
</g>
<g id="Group_63" opacity="0.7">
<g id="Group_64">
<path id="Vector_25" d="M80.4344 81.1457C84.305 83.4466 87.7429 84.4746 86.9116 86.0486C86.089 87.6061 82.227 87.0556 78.3564 84.7546C74.4859 82.4537 72.6458 79.3154 73.4684 77.7579C74.2997 76.1838 76.5639 78.8447 80.4344 81.1457Z" fill="white"/>
</g>
</g>
<g id="Group_65" opacity="0.7">
<g id="Group_66">
<path id="Vector_26" d="M68.9796 73.2375C69.6771 72.6931 70.8555 73.0412 71.6134 73.9909C72.3712 74.9406 72.4274 76.1397 71.7299 76.684C71.0467 77.2172 69.8804 76.8846 69.1226 75.9348C68.3647 74.9851 68.2964 73.7706 68.9796 73.2375Z" fill="white"/>
</g>
</g>
<g id="Group 177_2">
<path id="Vector_27" d="M103.164 59.892L103.164 59.892C104.326 61.1293 104.922 62.8436 105.036 64.9487L105.036 64.9508C105.09 66.0383 104.98 67.0117 104.698 67.8636L104.697 67.8642C104.417 68.7069 104.003 69.4155 103.447 69.9777C102.896 70.5353 102.186 70.992 101.329 71.3535C100.481 71.7117 99.5765 71.9735 98.6176 72.141M103.164 59.892L98.4597 71.6537M103.164 59.892C102.267 58.9377 101.118 58.2368 99.7426 57.7727C100.369 57.2612 100.824 56.639 101.095 55.9032C101.482 54.8537 101.479 53.6141 101.128 52.2107C100.876 51.1777 100.445 50.2618 99.8219 49.4756L99.8218 49.4755C99.2009 48.6925 98.4277 48.0652 97.5095 47.5947C96.622 47.1391 95.6821 46.7939 94.6935 46.5567L94.6935 46.5567C93.8395 46.3518 92.8936 46.1975 91.858 46.0922L91.0942 41L91.02 40.5055H90.52H87.0622H86.5622L86.6363 41L87.3706 45.8957M103.164 59.892L87.3706 45.8957M98.6176 72.141L98.4597 71.6537M98.6176 72.141C98.6176 72.141 98.6176 72.141 98.6176 72.141L98.4597 71.6537M98.6176 72.141C97.7904 72.2855 96.8547 72.3884 95.8123 72.4517M98.4597 71.6537C97.5337 71.8155 96.4611 71.9249 95.2421 71.9834M95.8123 72.4517L95.7421 71.9834H95.2421M95.8123 72.4517L96.5831 77.5907L96.6573 78.0852H96.1573H92.6993H92.1993L92.1252 77.5907L91.3715 72.5655M95.8123 72.4517C95.6573 72.4611 95.4999 72.4696 95.3402 72.4773L95.2421 71.9834M95.2421 71.9834L87.3706 45.8957M87.3706 45.8957C86.908 45.9001 86.3294 45.91 85.6357 45.9254L84.897 41L84.8228 40.5055H84.3228H80.8645H80.3645L80.4387 41L81.1973 46.0581C80.7573 46.0654 80.1993 46.0692 79.5219 46.0692C79.5215 46.0692 79.5212 46.0692 79.5208 46.0692L74.7593 46.047L74.2566 46.0447L74.3311 46.5415L74.8721 50.1479L74.9462 50.6424H75.4462H77.9386C78.4375 50.6424 78.7867 50.7517 79.031 50.9161C79.2596 51.0699 79.455 51.3113 79.5947 51.6928L80.463 57.4821L80.5339 57.9544L80.5372 57.9766L80.608 58.4489L81.8568 66.7749C81.8483 67.0491 81.7755 67.1993 81.6896 67.2844C81.6011 67.3718 81.4453 67.4433 81.1548 67.4433H78.6625H78.2408L78.2313 67.8543L78.1387 71.8786L78.1254 72.4564H78.7182H83.2094C83.4904 72.4564 83.8996 72.4601 84.4394 72.4667M84.4394 72.4667C84.4393 72.4667 84.4392 72.4667 84.439 72.4667L84.3718 71.9723L84.4398 72.4667C84.4396 72.4667 84.4395 72.4667 84.4394 72.4667ZM84.4394 72.4667C84.7139 72.4705 84.954 72.4733 85.1597 72.4752M85.1597 72.4752L85.9269 77.5907L86.0011 78.0852H86.5011H89.96H90.46L90.3858 77.5907L89.6303 72.5533M85.1597 72.4752C85.3589 72.477 85.5257 72.4779 85.6601 72.4779L85.5859 71.9834H85.0859L85.1597 72.4752ZM89.6303 72.5533C90.1049 72.5602 90.6855 72.5642 91.3715 72.5655M89.6303 72.5533L89.5561 72.0588C90.1392 72.0674 90.8862 72.0715 91.7974 72.0715M89.6303 72.5533C89.4474 72.5506 89.2802 72.5475 89.1288 72.5439L89.8116 77.0962L89.8858 77.5907L91.7974 72.0715M91.3715 72.5655L91.2974 72.0715H91.7974M91.3715 72.5655C91.5323 72.5658 91.699 72.566 91.8715 72.566L92.551 77.0962L92.6252 77.5907H93.1252H95.5831L91.7974 72.0715M78.644 71.962L78.6554 71.4675H78.5699L78.644 71.962ZM78.644 71.962H79.1513L79.1494 72.0454L78.644 71.962ZM87.3121 56.652L86.4461 50.8782C86.5598 50.8766 86.691 50.8747 86.8397 50.8724L86.8398 50.8724C87.3259 50.8649 87.7303 50.8576 88.0529 50.8502M87.3121 56.652L89.2781 50.4109L89.3115 50.9038C88.7657 50.8604 88.3487 50.8435 88.0529 50.8502M87.3121 56.652C87.3967 56.6534 87.4913 56.6549 87.5958 56.6566C88.0357 56.6638 88.375 56.6637 88.6175 56.6567C88.8665 56.6496 89.2352 56.6348 89.7259 56.613C90.2038 56.5917 90.5857 56.5527 90.8776 56.4993L90.8778 56.4993C91.1873 56.4427 91.552 56.3641 91.9723 56.2628L91.9725 56.2627C92.3666 56.1679 92.6596 56.0478 92.8664 55.9133L92.8665 55.9132C93.1027 55.7597 93.3304 55.578 93.5481 55.3675L93.9292 55.7436L87.3121 56.652ZM88.0529 50.8502C88.0528 50.8502 88.0528 50.8502 88.0527 50.8502L87.9672 50.3558L88.0529 50.8502ZM96.0565 66.4658L96.057 66.4655C96.3563 66.297 96.5729 66.1111 96.7207 65.9152C96.8739 65.7107 96.9919 65.4653 97.0715 65.1735C97.1449 64.9035 97.1597 64.5961 97.1068 64.2424L96.0565 66.4658ZM96.0565 66.4658C95.737 66.6462 95.426 66.7895 95.1248 66.8977L95.1244 66.8978C94.8272 67.0049 94.4523 67.1014 93.9951 67.1868M96.0565 66.4658L96.355 66.9033C96.0171 67.0942 95.6843 67.2479 95.3579 67.3652C95.031 67.4829 94.6307 67.585 94.1579 67.6732M94.1579 67.6732L93.9951 67.1868M94.1579 67.6732C93.6839 67.7613 93.2669 67.8232 92.9052 67.8601L94.1579 67.6732ZM93.9951 67.1868C93.5302 67.2732 93.1263 67.3329 92.7809 67.3682M93.9951 67.1868L92.7809 67.3682M92.7809 67.3682C92.4322 67.4036 92.0091 67.4323 91.5095 67.4542C91.006 67.4757 90.6191 67.4865 90.3456 67.4865C90.0653 67.4865 89.7085 67.4825 89.2743 67.4754L89.2739 67.4754C89.1478 67.4734 89.0346 67.4716 88.9342 67.4702L87.9657 61.0124C88.1244 61.0089 88.3171 61.0043 88.543 60.9985C89.1297 60.9838 89.6067 60.9771 89.9754 60.9771C90.3332 60.9771 90.8401 60.9979 91.5011 61.0419L91.5015 61.0419C92.1534 61.0847 92.6941 61.1484 93.128 61.2309C93.5621 61.3137 94.0484 61.4423 94.5894 61.6197L94.5895 61.6197C95.1087 61.7899 95.5136 61.9893 95.819 62.2076C96.1248 62.4267 96.4035 62.7107 96.6538 63.0701L96.6542 63.0707C96.8838 63.3995 97.0382 63.7857 97.1067 64.2423L92.7809 67.3682Z" fill="#898D9E" stroke="#5C627F"/>
<path id="Vector_28" d="M102.816 59.1963C101.783 58.0971 100.359 57.342 98.5461 56.9317C100.61 55.8174 101.306 53.9263 100.637 51.2579C100.402 50.2903 100.003 49.4517 99.4396 48.7408C98.8759 48.0299 98.1733 47.4583 97.3295 47.0259C96.4862 46.593 95.5902 46.2634 94.6434 46.0362C93.6963 45.809 92.6234 45.644 91.4253 45.5415L90.5942 40H87.1363L87.9444 45.3875C87.3456 45.3875 86.4347 45.4021 85.2116 45.4315L84.397 40H80.9387L81.7698 45.5415C81.2778 45.5562 80.553 45.5637 79.595 45.5637L74.8311 45.5415L75.3721 49.1479H77.8645C79.0022 49.1479 79.7432 49.6464 80.0873 50.6432L81.0339 56.9544C81.1838 56.9544 81.3045 56.9619 81.3966 56.9766H81.0372L82.363 65.8162C82.3555 66.5636 81.9775 66.9377 81.2289 66.9377H78.7367L78.644 70.962H83.1352C83.4197 70.962 83.8317 70.9657 84.3718 70.9723C84.9118 70.9797 85.3164 70.9834 85.5859 70.9834L86.4269 76.5907H89.8858L89.0547 71.0493C89.6855 71.0643 90.5997 71.0715 91.7974 71.0715L92.6252 76.5907H96.0831L95.2421 70.9834C96.4611 70.9249 97.5337 70.8155 98.4597 70.6537C99.386 70.4918 100.258 70.2394 101.074 69.8946C101.891 69.5503 102.552 69.1213 103.059 68.6081C103.566 68.0955 103.951 67.4428 104.214 66.6511C104.477 65.8593 104.583 64.943 104.531 63.902C104.421 61.8648 103.849 60.296 102.816 59.1963ZM85.8725 49.3891C85.9773 49.3891 86.2724 49.3854 86.7578 49.378C87.2435 49.3705 87.6464 49.3632 87.9672 49.3558C88.288 49.3486 88.7249 49.3669 89.2781 49.4109C89.8311 49.4549 90.3002 49.5137 90.6853 49.5868C91.0705 49.66 91.5007 49.781 91.9747 49.9496C92.4494 50.118 92.8393 50.3234 93.1447 50.5652C93.4506 50.8071 93.7251 51.1151 93.968 51.4889C94.2114 51.8627 94.3693 52.2915 94.4418 52.7752C94.5034 53.1857 94.4922 53.5596 94.4083 53.897C94.3245 54.2341 94.1642 54.5164 93.9292 54.7436C93.694 54.9709 93.4462 55.169 93.187 55.3374C92.9281 55.5059 92.5851 55.6416 92.159 55.7441C91.733 55.8468 91.3596 55.9274 91.0393 55.9859C90.7187 56.0446 90.3131 56.0851 89.8223 56.1069C89.3314 56.1288 88.9593 56.1438 88.706 56.151C88.4525 56.1582 88.1046 56.1582 87.6617 56.151C87.2187 56.1438 86.9603 56.1399 86.8852 56.1399L85.8727 49.389L85.8725 49.3891ZM97.5614 64.364C97.4694 64.7014 97.3303 64.9947 97.1433 65.2441C96.9559 65.4929 96.6931 65.713 96.355 65.9033C96.0171 66.0942 95.6843 66.2479 95.3579 66.3652C95.031 66.4829 94.6307 66.585 94.1579 66.6732C93.6839 66.7613 93.2669 66.8232 92.9052 66.8601C92.5442 66.8968 92.1108 66.926 91.605 66.9482C91.0994 66.9698 90.7041 66.9809 90.4198 66.9809C90.1353 66.9809 89.7754 66.9769 89.3401 66.9698C88.9047 66.9629 88.6275 66.9592 88.5076 66.9592L87.3928 59.5263C87.5124 59.5263 87.8669 59.5192 88.4561 59.5042C89.0454 59.4894 89.5269 59.4826 89.9012 59.4826C90.2755 59.4826 90.7954 59.5042 91.461 59.5485C92.1258 59.5922 92.6896 59.6579 93.1523 59.7458C93.6145 59.834 94.1247 59.9694 94.6841 60.1528C95.2428 60.336 95.707 60.5595 96.076 60.8234C96.4451 61.0877 96.7723 61.4244 97.0584 61.835C97.345 62.2453 97.5276 62.7145 97.6068 63.2424C97.6683 63.6533 97.6533 64.0266 97.5614 64.364Z" fill="#898D9E"/>
<path id="Vector_29" d="M102.816 58.1963C101.783 57.0971 100.359 56.342 98.5461 55.9317C100.61 54.8174 101.306 52.9263 100.637 50.2579C100.402 49.2903 100.003 48.4517 99.4396 47.7408C98.8759 47.0299 98.1733 46.4583 97.3295 46.0259C96.4862 45.593 95.5902 45.2634 94.6434 45.0362C93.6963 44.809 92.6234 44.644 91.4253 44.5415L90.5942 39H87.1363L87.9444 44.3875C87.3456 44.3875 86.4347 44.4021 85.2116 44.4315L84.397 39H80.9387L81.7698 44.5415C81.2778 44.5562 80.553 44.5637 79.595 44.5637L74.8311 44.5415L75.3721 48.1479H77.8645C79.0022 48.1479 79.7432 48.6464 80.0873 49.6432L81.0339 55.9544C81.1838 55.9544 81.3045 55.9619 81.3966 55.9766H81.0372L82.363 64.8162C82.3555 65.5636 81.9775 65.9377 81.2289 65.9377H78.7367L78.644 69.962H83.1352C83.4197 69.962 83.8317 69.9657 84.3718 69.9723C84.9118 69.9797 85.3164 69.9834 85.5859 69.9834L86.4269 75.5907H89.8858L89.0547 70.0493C89.6855 70.0643 90.5997 70.0715 91.7974 70.0715L92.6252 75.5907H96.0831L95.2421 69.9834C96.4611 69.9249 97.5337 69.8155 98.4597 69.6537C99.386 69.4918 100.258 69.2394 101.074 68.8946C101.891 68.5503 102.552 68.1213 103.059 67.6081C103.566 67.0955 103.951 66.4428 104.214 65.6511C104.477 64.8593 104.583 63.943 104.531 62.902C104.421 60.8648 103.849 59.296 102.816 58.1963ZM85.8725 48.3891C85.9773 48.3891 86.2724 48.3854 86.7578 48.378C87.2435 48.3705 87.6464 48.3632 87.9672 48.3558C88.288 48.3486 88.7249 48.3669 89.2781 48.4109C89.8311 48.4549 90.3002 48.5137 90.6853 48.5868C91.0705 48.66 91.5007 48.781 91.9747 48.9496C92.4494 49.118 92.8393 49.3234 93.1447 49.5652C93.4506 49.8071 93.7251 50.1151 93.968 50.4889C94.2114 50.8627 94.3693 51.2915 94.4418 51.7752C94.5034 52.1857 94.4922 52.5596 94.4083 52.897C94.3245 53.2341 94.1642 53.5164 93.9292 53.7436C93.694 53.9709 93.4462 54.169 93.187 54.3374C92.9281 54.5059 92.5851 54.6416 92.159 54.7441C91.733 54.8468 91.3596 54.9274 91.0393 54.9859C90.7187 55.0446 90.3131 55.0851 89.8223 55.1069C89.3314 55.1288 88.9593 55.1438 88.706 55.151C88.4525 55.1582 88.1046 55.1582 87.6617 55.151C87.2187 55.1438 86.9603 55.1399 86.8852 55.1399L85.8727 48.389L85.8725 48.3891ZM97.5614 63.364C97.4694 63.7014 97.3303 63.9947 97.1433 64.2441C96.9559 64.4929 96.6931 64.713 96.355 64.9033C96.0171 65.0942 95.6843 65.2479 95.3579 65.3652C95.031 65.4829 94.6307 65.585 94.1579 65.6732C93.6839 65.7613 93.2669 65.8232 92.9052 65.8601C92.5442 65.8968 92.1108 65.926 91.605 65.9482C91.0994 65.9698 90.7041 65.9809 90.4198 65.9809C90.1353 65.9809 89.7754 65.9769 89.3401 65.9698C88.9047 65.9629 88.6275 65.9592 88.5076 65.9592L87.3928 58.5263C87.5124 58.5263 87.8669 58.5192 88.4561 58.5042C89.0454 58.4894 89.5269 58.4826 89.9012 58.4826C90.2755 58.4826 90.7954 58.5042 91.461 58.5485C92.1258 58.5922 92.6896 58.6579 93.1523 58.7458C93.6145 58.834 94.1247 58.9694 94.6841 59.1528C95.2428 59.336 95.707 59.5595 96.076 59.8234C96.4451 60.0877 96.7723 60.4244 97.0584 60.835C97.345 61.2453 97.5276 61.7145 97.6068 62.2424C97.6683 62.6533 97.6533 63.0266 97.5614 63.364Z" fill="#898D9E"/>
<path id="Vector_30" d="M103.816 58.1963C102.783 57.0971 101.359 56.342 99.5461 55.9317C101.61 54.8174 102.306 52.9263 101.637 50.2579C101.402 49.2903 101.003 48.4517 100.44 47.7408C99.8759 47.0299 99.1733 46.4583 98.3295 46.0259C97.4862 45.593 96.5902 45.2634 95.6434 45.0362C94.6963 44.809 93.6234 44.644 92.4253 44.5415L91.5942 39H88.1363L88.9444 44.3875C88.3456 44.3875 87.4347 44.4021 86.2116 44.4315L85.397 39H81.9387L82.7698 44.5415C82.2778 44.5562 81.553 44.5637 80.595 44.5637L75.8311 44.5415L76.3721 48.1479H78.8645C80.0022 48.1479 80.7432 48.6464 81.0873 49.6432L82.0339 55.9544C82.1838 55.9544 82.3045 55.9619 82.3966 55.9766H82.0372L83.363 64.8162C83.3555 65.5636 82.9775 65.9377 82.2289 65.9377H79.7367L79.644 69.962H84.1352C84.4197 69.962 84.8317 69.9657 85.3718 69.9723C85.9118 69.9797 86.3164 69.9834 86.5859 69.9834L87.4269 75.5907H90.8858L90.0547 70.0493C90.6855 70.0643 91.5997 70.0715 92.7974 70.0715L93.6252 75.5907H97.0831L96.2421 69.9834C97.4611 69.9249 98.5337 69.8155 99.4597 69.6537C100.386 69.4918 101.258 69.2394 102.074 68.8946C102.891 68.5503 103.552 68.1213 104.059 67.6081C104.566 67.0955 104.951 66.4428 105.214 65.6511C105.477 64.8593 105.583 63.943 105.531 62.902C105.421 60.8648 104.849 59.296 103.816 58.1963ZM86.8725 48.3891C86.9773 48.3891 87.2724 48.3854 87.7578 48.378C88.2435 48.3705 88.6464 48.3632 88.9672 48.3558C89.288 48.3486 89.7249 48.3669 90.2781 48.4109C90.8311 48.4549 91.3002 48.5137 91.6853 48.5868C92.0705 48.66 92.5007 48.781 92.9747 48.9496C93.4494 49.118 93.8393 49.3234 94.1447 49.5652C94.4506 49.8071 94.7251 50.1151 94.968 50.4889C95.2114 50.8627 95.3693 51.2915 95.4418 51.7752C95.5034 52.1857 95.4922 52.5596 95.4083 52.897C95.3245 53.2341 95.1642 53.5164 94.9292 53.7436C94.694 53.9709 94.4462 54.169 94.187 54.3374C93.9281 54.5059 93.5851 54.6416 93.159 54.7441C92.733 54.8468 92.3596 54.9274 92.0393 54.9859C91.7187 55.0446 91.3131 55.0851 90.8223 55.1069C90.3314 55.1288 89.9593 55.1438 89.706 55.151C89.4525 55.1582 89.1046 55.1582 88.6617 55.151C88.2187 55.1438 87.9603 55.1399 87.8852 55.1399L86.8727 48.389L86.8725 48.3891ZM98.5614 63.364C98.4694 63.7014 98.3303 63.9947 98.1433 64.2441C97.9559 64.4929 97.6931 64.713 97.355 64.9033C97.0171 65.0942 96.6843 65.2479 96.3579 65.3652C96.031 65.4829 95.6307 65.585 95.1579 65.6732C94.6839 65.7613 94.2669 65.8232 93.9052 65.8601C93.5442 65.8968 93.1108 65.926 92.605 65.9482C92.0994 65.9698 91.7041 65.9809 91.4198 65.9809C91.1353 65.9809 90.7754 65.9769 90.3401 65.9698C89.9047 65.9629 89.6275 65.9592 89.5076 65.9592L88.3928 58.5263C88.5124 58.5263 88.8669 58.5192 89.4561 58.5042C90.0454 58.4894 90.5269 58.4826 90.9012 58.4826C91.2755 58.4826 91.7954 58.5042 92.461 58.5485C93.1258 58.5922 93.6896 58.6579 94.1523 58.7458C94.6145 58.834 95.1247 58.9694 95.6841 59.1528C96.2428 59.336 96.707 59.5595 97.076 59.8234C97.4451 60.0877 97.7723 60.4244 98.0584 60.835C98.345 61.2453 98.5276 61.7145 98.6068 62.2424C98.6683 62.6533 98.6533 63.0266 98.5614 63.364Z" fill="#BABABA"/>
</g>
</g>
</g>
<g id="_x35_9_3">
<g id="Group_67">
<g id="Group_68">
<g id="Group_69">
<g id="Group_70">
<g id="Group_71">
<g id="Group_72">
<g id="Group_73">
<path id="Vector_31" d="M112.899 97.9452C106.636 101.661 99.0888 103.435 90.9322 102.576C89.8341 102.462 88.7739 102.308 87.6728 102.116C81.1829 100.919 75.0228 98.1484 69.562 94.2571C66.0689 91.7743 62.8309 88.8132 60.0459 85.444C55.014 79.5053 51.1631 72.4021 49.1494 64.7073C48.3352 61.8094 47.8556 58.8462 47.5827 55.8105C47.5168 55.1101 47.4883 54.3691 47.4614 53.6669C47.2998 49.4553 47.6527 45.4189 48.5231 41.6364C50.9361 31.2331 57.0174 22.798 65.3424 17.8701L54.9189 24.0892C46.5939 29.0173 40.5123 37.4522 38.1386 47.854C37.2292 51.638 36.8763 55.6744 37.0379 59.8863C37.0648 60.5882 37.1308 61.2886 37.1968 61.9891C37.4303 65.0263 37.9745 68.0128 38.7108 70.9137C40.804 78.6445 44.5905 85.7246 49.6221 91.6631C52.4074 95.0323 55.6064 97.9951 59.0994 100.478C72.2199 109.918 89.1358 112.058 102.436 104.166L112.899 97.9452Z" fill="#4B5067"/>
</g>
</g>
</g>
<g id="Group_74">
<g id="Group_75">
<g id="Group_76">
<path id="Vector_32" d="M130.741 62.1499C129.755 37.4655 110.324 15.5588 87.3082 13.2001C64.3324 10.8789 46.4771 29.0218 47.4617 53.6669C48.4478 78.3513 67.9179 100.256 90.9325 102.576C113.91 104.936 131.727 86.834 130.741 62.1499Z" fill="#898D9E"/>
</g>
</g>
<g id="Group_77">
<g id="Group_78">
<path id="Vector_33" d="M87.0858 15.3008C66.671 12.8676 48.5751 29.2112 49.5578 53.5791C50.4876 77.2178 69.1467 98.2769 91.1359 100.497C113.483 102.628 129.556 85.1264 128.634 62.2484C127.704 38.6098 109.045 17.5507 87.0858 15.3008ZM90.2058 92.7272C72.3868 90.9274 57.2673 73.948 56.4873 54.8989C55.7508 36.0376 69.0857 21.416 88.016 23.0403C105.835 24.8702 120.924 41.8792 121.704 60.9287C122.492 80.9866 107.525 94.6529 90.2058 92.7272Z" fill="#6D738E"/>
</g>
</g>
</g>
<g id="Group_79">
<g id="Group_80">
<g id="Group_81">
<path id="Vector_34" d="M119.607 61.0147C118.873 42.921 104.627 26.869 87.8057 25.1319C70.9465 23.4355 57.8645 36.7083 58.5977 54.802C59.331 72.8956 73.5772 88.9477 90.4362 90.6442C107.258 92.3812 120.338 79.0693 119.607 61.0147Z" fill="#4B5067"/>
</g>
</g>
</g>
<g id="Group_82">
<g id="Group_83">
<g id="Group_84">
<path id="Vector_35" d="M119.606 61.0147C118.873 42.921 104.627 26.869 87.8051 25.1319C78.0032 24.1411 69.4501 28.2184 64.2178 35.3711C69.3584 30.9168 76.2224 28.6227 83.8672 29.3838C100.689 31.1208 114.935 47.1729 115.668 65.2665C115.957 72.7931 113.871 79.5126 110.046 84.6586C116.286 79.3418 120.024 70.8798 119.606 61.0147Z" fill="#5C6280"/>
</g>
</g>
</g>
<g id="Group_85">
<g id="Group_86">
<g id="Group_87">
<path id="Vector_36" d="M87.674 102.115C81.184 100.919 75.0239 98.1484 69.5631 94.2571L59.1006 100.478C64.5629 104.408 70.7213 107.14 77.2114 108.336L87.674 102.115Z" fill="#5C6280"/>
</g>
</g>
</g>
<g id="Group_88">
<g id="Group_89">
<g id="Group_90">
<path id="Vector_37" d="M60.045 85.444C55.0132 79.5052 51.1622 72.402 49.1486 64.7073L38.71 70.9136C40.8032 78.6444 44.5897 85.7246 49.6213 91.6631L60.045 85.444Z" fill="#5C6280"/>
</g>
</g>
</g>
<g id="Group_91">
<g id="Group_92">
<g id="Group_93">
<path id="Vector_38" d="M48.5231 41.6364L38.1386 47.854C37.2292 51.638 36.8763 55.6744 37.0379 59.8862C37.0648 60.5882 37.1308 61.2886 37.1968 61.9891L47.5827 55.8105C47.5168 55.1101 47.4883 54.3691 47.4614 53.6669C47.2998 49.4553 47.6527 45.4189 48.5231 41.6364Z" fill="#5C6280"/>
</g>
</g>
</g>
</g>
<g id="Group_94">
<g id="Group_95">
<path id="Vector_39" d="M61.6426 42.6326C61.8427 42.1981 62.46 42.2037 62.6586 42.6401C63.6829 44.891 64.5666 46.7214 64.7226 46.6577C64.8646 46.5999 64.226 44.6757 63.3976 42.3524C63.2368 41.9015 63.6742 41.467 64.1197 41.6374C68.6607 43.3746 72.8318 44.8847 72.9487 44.605C73.061 44.3361 69.0701 42.3734 64.6638 40.3137C64.2309 40.1113 64.2346 39.4914 64.6683 39.293C66.8927 38.2758 68.7091 37.3944 68.6452 37.2375C68.5872 37.0948 66.6738 37.7309 64.3638 38.5565C63.9154 38.7167 63.4817 38.2761 63.65 37.829C68.0475 26.1481 67.5013 26.0611 62.3311 37.2785C62.1309 37.7129 61.5138 37.7073 61.3152 37.271C60.2965 35.0331 59.4161 33.2048 59.2744 33.2626C59.1185 33.3262 59.7576 35.2568 60.5912 37.5634C60.7542 38.0146 60.3168 38.4512 59.8701 38.2805C55.3381 36.5488 51.149 35.0417 51.0367 35.3105C50.9198 35.5901 54.9252 37.5482 59.3249 39.6035C59.7575 39.8055 59.7544 40.4247 59.3215 40.6237C57.0911 41.6494 55.2704 42.5303 55.3285 42.673C55.3922 42.8296 57.3114 42.1933 59.6074 41.3553C60.0562 41.1915 60.4933 41.6324 60.3245 42.0812C55.977 53.641 56.4074 54.0013 61.6426 42.6326Z" fill="white"/>
</g>
</g>
</g>
</g>
<g id="Group_96" opacity="0.7">
<g id="Group_97">
<path id="Vector_40" d="M80.4344 81.1457C84.305 83.4466 87.7429 84.4746 86.9116 86.0486C86.089 87.6061 82.227 87.0556 78.3564 84.7546C74.4859 82.4537 72.6458 79.3154 73.4684 77.7579C74.2997 76.1838 76.5639 78.8447 80.4344 81.1457Z" fill="white"/>
</g>
</g>
<g id="Group_98" opacity="0.7">
<g id="Group_99">
<path id="Vector_41" d="M68.9796 73.2375C69.6771 72.6931 70.8555 73.0412 71.6134 73.9909C72.3712 74.9406 72.4274 76.1397 71.7299 76.684C71.0467 77.2172 69.8804 76.8846 69.1226 75.9348C68.3647 74.9851 68.2964 73.7706 68.9796 73.2375Z" fill="white"/>
</g>
</g>
<g id="Group 177_3">
<path id="Vector_42" d="M103.164 59.892L103.164 59.892C104.326 61.1293 104.922 62.8436 105.036 64.9487L105.036 64.9508C105.09 66.0383 104.98 67.0117 104.698 67.8636L104.697 67.8642C104.417 68.7069 104.003 69.4155 103.447 69.9777C102.896 70.5353 102.186 70.992 101.329 71.3535C100.481 71.7117 99.5765 71.9735 98.6176 72.141M103.164 59.892L98.4597 71.6537M103.164 59.892C102.267 58.9377 101.118 58.2368 99.7426 57.7727C100.369 57.2612 100.824 56.639 101.095 55.9032C101.482 54.8537 101.479 53.6141 101.128 52.2107C100.876 51.1777 100.445 50.2618 99.8219 49.4756L99.8218 49.4755C99.2009 48.6925 98.4277 48.0652 97.5095 47.5947C96.622 47.1391 95.6821 46.7939 94.6935 46.5567L94.6935 46.5567C93.8395 46.3518 92.8936 46.1975 91.858 46.0922L91.0942 41L91.02 40.5055H90.52H87.0622H86.5622L86.6363 41L87.3706 45.8957M103.164 59.892L87.3706 45.8957M98.6176 72.141L98.4597 71.6537M98.6176 72.141C98.6176 72.141 98.6176 72.141 98.6176 72.141L98.4597 71.6537M98.6176 72.141C97.7904 72.2855 96.8547 72.3884 95.8123 72.4517M98.4597 71.6537C97.5337 71.8155 96.4611 71.9249 95.2421 71.9834M95.8123 72.4517L95.7421 71.9834H95.2421M95.8123 72.4517L96.5831 77.5907L96.6573 78.0852H96.1573H92.6993H92.1993L92.1252 77.5907L91.3715 72.5655M95.8123 72.4517C95.6573 72.4611 95.4999 72.4696 95.3402 72.4773L95.2421 71.9834M95.2421 71.9834L87.3706 45.8957M87.3706 45.8957C86.908 45.9001 86.3294 45.91 85.6357 45.9254L84.897 41L84.8228 40.5055H84.3228H80.8645H80.3645L80.4387 41L81.1973 46.0581C80.7573 46.0654 80.1993 46.0692 79.5219 46.0692C79.5215 46.0692 79.5212 46.0692 79.5208 46.0692L74.7593 46.047L74.2566 46.0447L74.3311 46.5415L74.8721 50.1479L74.9462 50.6424H75.4462H77.9386C78.4375 50.6424 78.7867 50.7517 79.031 50.9161C79.2596 51.0699 79.455 51.3113 79.5947 51.6928L80.463 57.4821L80.5339 57.9544L80.5372 57.9766L80.608 58.4489L81.8568 66.7749C81.8483 67.0491 81.7755 67.1993 81.6896 67.2844C81.6011 67.3718 81.4453 67.4433 81.1548 67.4433H78.6625H78.2408L78.2313 67.8543L78.1387 71.8786L78.1254 72.4564H78.7182H83.2094C83.4904 72.4564 83.8996 72.4601 84.4394 72.4667M84.4394 72.4667C84.4393 72.4667 84.4392 72.4667 84.439 72.4667L84.3718 71.9723L84.4398 72.4667C84.4396 72.4667 84.4395 72.4667 84.4394 72.4667ZM84.4394 72.4667C84.7139 72.4705 84.954 72.4733 85.1597 72.4752M85.1597 72.4752L85.9269 77.5907L86.0011 78.0852H86.5011H89.96H90.46L90.3858 77.5907L89.6303 72.5533M85.1597 72.4752C85.3589 72.477 85.5257 72.4779 85.6601 72.4779L85.5859 71.9834H85.0859L85.1597 72.4752ZM89.6303 72.5533C90.1049 72.5602 90.6855 72.5642 91.3715 72.5655M89.6303 72.5533L89.5561 72.0588C90.1392 72.0674 90.8862 72.0715 91.7974 72.0715M89.6303 72.5533C89.4474 72.5506 89.2802 72.5475 89.1288 72.5439L89.8116 77.0962L89.8858 77.5907L91.7974 72.0715M91.3715 72.5655L91.2974 72.0715H91.7974M91.3715 72.5655C91.5323 72.5658 91.699 72.566 91.8715 72.566L92.551 77.0962L92.6252 77.5907H93.1252H95.5831L91.7974 72.0715M78.644 71.962L78.6554 71.4675H78.5699L78.644 71.962ZM78.644 71.962H79.1513L79.1494 72.0454L78.644 71.962ZM87.3121 56.652L86.4461 50.8782C86.5598 50.8766 86.691 50.8747 86.8397 50.8724L86.8398 50.8724C87.3259 50.8649 87.7303 50.8576 88.0529 50.8502M87.3121 56.652L89.2781 50.4109L89.3115 50.9038C88.7657 50.8604 88.3487 50.8435 88.0529 50.8502M87.3121 56.652C87.3967 56.6534 87.4913 56.6549 87.5958 56.6566C88.0357 56.6638 88.375 56.6637 88.6175 56.6567C88.8665 56.6496 89.2352 56.6348 89.7259 56.613C90.2038 56.5917 90.5857 56.5527 90.8776 56.4993L90.8778 56.4993C91.1873 56.4427 91.552 56.3641 91.9723 56.2628L91.9725 56.2627C92.3666 56.1679 92.6596 56.0478 92.8664 55.9133L92.8665 55.9132C93.1027 55.7597 93.3304 55.578 93.5481 55.3675L93.9292 55.7436L87.3121 56.652ZM88.0529 50.8502C88.0528 50.8502 88.0528 50.8502 88.0527 50.8502L87.9672 50.3558L88.0529 50.8502ZM96.0565 66.4658L96.057 66.4655C96.3563 66.297 96.5729 66.1111 96.7207 65.9152C96.8739 65.7107 96.9919 65.4653 97.0715 65.1735C97.1449 64.9035 97.1597 64.5961 97.1068 64.2424L96.0565 66.4658ZM96.0565 66.4658C95.737 66.6462 95.426 66.7895 95.1248 66.8977L95.1244 66.8978C94.8272 67.0049 94.4523 67.1014 93.9951 67.1868M96.0565 66.4658L96.355 66.9033C96.0171 67.0942 95.6843 67.2479 95.3579 67.3652C95.031 67.4829 94.6307 67.585 94.1579 67.6732M94.1579 67.6732L93.9951 67.1868M94.1579 67.6732C93.6839 67.7613 93.2669 67.8232 92.9052 67.8601L94.1579 67.6732ZM93.9951 67.1868C93.5302 67.2732 93.1263 67.3329 92.7809 67.3682M93.9951 67.1868L92.7809 67.3682M92.7809 67.3682C92.4322 67.4036 92.0091 67.4323 91.5095 67.4542C91.006 67.4757 90.6191 67.4865 90.3456 67.4865C90.0653 67.4865 89.7085 67.4825 89.2743 67.4754L89.2739 67.4754C89.1478 67.4734 89.0346 67.4716 88.9342 67.4702L87.9657 61.0124C88.1244 61.0089 88.3171 61.0043 88.543 60.9985C89.1297 60.9838 89.6067 60.9771 89.9754 60.9771C90.3332 60.9771 90.8401 60.9979 91.5011 61.0419L91.5015 61.0419C92.1534 61.0847 92.6941 61.1484 93.128 61.2309C93.5621 61.3137 94.0484 61.4423 94.5894 61.6197L94.5895 61.6197C95.1087 61.7899 95.5136 61.9893 95.819 62.2076C96.1248 62.4267 96.4035 62.7107 96.6538 63.0701L96.6542 63.0707C96.8838 63.3995 97.0382 63.7857 97.1067 64.2423L92.7809 67.3682Z" fill="#898D9E" stroke="#5C627F"/>
<path id="Vector_43" d="M102.816 59.1963C101.783 58.0971 100.359 57.342 98.5461 56.9317C100.61 55.8174 101.306 53.9263 100.637 51.2579C100.402 50.2903 100.003 49.4517 99.4396 48.7408C98.8759 48.0299 98.1733 47.4583 97.3295 47.0259C96.4862 46.593 95.5902 46.2634 94.6434 46.0362C93.6963 45.809 92.6234 45.644 91.4253 45.5415L90.5942 40H87.1363L87.9444 45.3875C87.3456 45.3875 86.4347 45.4021 85.2116 45.4315L84.397 40H80.9387L81.7698 45.5415C81.2778 45.5562 80.553 45.5637 79.595 45.5637L74.8311 45.5415L75.3721 49.1479H77.8645C79.0022 49.1479 79.7432 49.6464 80.0873 50.6432L81.0339 56.9544C81.1838 56.9544 81.3045 56.9619 81.3966 56.9766H81.0372L82.363 65.8162C82.3555 66.5636 81.9775 66.9377 81.2289 66.9377H78.7367L78.644 70.962H83.1352C83.4197 70.962 83.8317 70.9657 84.3718 70.9723C84.9118 70.9797 85.3164 70.9834 85.5859 70.9834L86.4269 76.5907H89.8858L89.0547 71.0493C89.6855 71.0643 90.5997 71.0715 91.7974 71.0715L92.6252 76.5907H96.0831L95.2421 70.9834C96.4611 70.9249 97.5337 70.8155 98.4597 70.6537C99.386 70.4918 100.258 70.2394 101.074 69.8946C101.891 69.5503 102.552 69.1213 103.059 68.6081C103.566 68.0955 103.951 67.4428 104.214 66.6511C104.477 65.8593 104.583 64.943 104.531 63.902C104.421 61.8648 103.849 60.296 102.816 59.1963ZM85.8725 49.3891C85.9773 49.3891 86.2724 49.3854 86.7578 49.378C87.2435 49.3705 87.6464 49.3632 87.9672 49.3558C88.288 49.3486 88.7249 49.3669 89.2781 49.4109C89.8311 49.4549 90.3002 49.5137 90.6853 49.5868C91.0705 49.66 91.5007 49.781 91.9747 49.9496C92.4494 50.118 92.8393 50.3234 93.1447 50.5652C93.4506 50.8071 93.7251 51.1151 93.968 51.4889C94.2114 51.8627 94.3693 52.2915 94.4418 52.7752C94.5034 53.1857 94.4922 53.5596 94.4083 53.897C94.3245 54.2341 94.1642 54.5164 93.9292 54.7436C93.694 54.9709 93.4462 55.169 93.187 55.3374C92.9281 55.5059 92.5851 55.6416 92.159 55.7441C91.733 55.8468 91.3596 55.9274 91.0393 55.9859C90.7187 56.0446 90.3131 56.0851 89.8223 56.1069C89.3314 56.1288 88.9593 56.1438 88.706 56.151C88.4525 56.1582 88.1046 56.1582 87.6617 56.151C87.2187 56.1438 86.9603 56.1399 86.8852 56.1399L85.8727 49.389L85.8725 49.3891ZM97.5614 64.364C97.4694 64.7014 97.3303 64.9947 97.1433 65.2441C96.9559 65.4929 96.6931 65.713 96.355 65.9033C96.0171 66.0942 95.6843 66.2479 95.3579 66.3652C95.031 66.4829 94.6307 66.585 94.1579 66.6732C93.6839 66.7613 93.2669 66.8232 92.9052 66.8601C92.5442 66.8968 92.1108 66.926 91.605 66.9482C91.0994 66.9698 90.7041 66.9809 90.4198 66.9809C90.1353 66.9809 89.7754 66.9769 89.3401 66.9698C88.9047 66.9629 88.6275 66.9592 88.5076 66.9592L87.3928 59.5263C87.5124 59.5263 87.8669 59.5192 88.4561 59.5042C89.0454 59.4894 89.5269 59.4826 89.9012 59.4826C90.2755 59.4826 90.7954 59.5042 91.461 59.5485C92.1258 59.5922 92.6896 59.6579 93.1523 59.7458C93.6145 59.834 94.1247 59.9694 94.6841 60.1528C95.2428 60.336 95.707 60.5595 96.076 60.8234C96.4451 61.0877 96.7723 61.4244 97.0584 61.835C97.345 62.2453 97.5276 62.7145 97.6068 63.2424C97.6683 63.6533 97.6533 64.0266 97.5614 64.364Z" fill="#898D9E"/>
<path id="Vector_44" d="M102.816 58.1963C101.783 57.0971 100.359 56.342 98.5461 55.9317C100.61 54.8174 101.306 52.9263 100.637 50.2579C100.402 49.2903 100.003 48.4517 99.4396 47.7408C98.8759 47.0299 98.1733 46.4583 97.3295 46.0259C96.4862 45.593 95.5902 45.2634 94.6434 45.0362C93.6963 44.809 92.6234 44.644 91.4253 44.5415L90.5942 39H87.1363L87.9444 44.3875C87.3456 44.3875 86.4347 44.4021 85.2116 44.4315L84.397 39H80.9387L81.7698 44.5415C81.2778 44.5562 80.553 44.5637 79.595 44.5637L74.8311 44.5415L75.3721 48.1479H77.8645C79.0022 48.1479 79.7432 48.6464 80.0873 49.6432L81.0339 55.9544C81.1838 55.9544 81.3045 55.9619 81.3966 55.9766H81.0372L82.363 64.8162C82.3555 65.5636 81.9775 65.9377 81.2289 65.9377H78.7367L78.644 69.962H83.1352C83.4197 69.962 83.8317 69.9657 84.3718 69.9723C84.9118 69.9797 85.3164 69.9834 85.5859 69.9834L86.4269 75.5907H89.8858L89.0547 70.0493C89.6855 70.0643 90.5997 70.0715 91.7974 70.0715L92.6252 75.5907H96.0831L95.2421 69.9834C96.4611 69.9249 97.5337 69.8155 98.4597 69.6537C99.386 69.4918 100.258 69.2394 101.074 68.8946C101.891 68.5503 102.552 68.1213 103.059 67.6081C103.566 67.0955 103.951 66.4428 104.214 65.6511C104.477 64.8593 104.583 63.943 104.531 62.902C104.421 60.8648 103.849 59.296 102.816 58.1963ZM85.8725 48.3891C85.9773 48.3891 86.2724 48.3854 86.7578 48.378C87.2435 48.3705 87.6464 48.3632 87.9672 48.3558C88.288 48.3486 88.7249 48.3669 89.2781 48.4109C89.8311 48.4549 90.3002 48.5137 90.6853 48.5868C91.0705 48.66 91.5007 48.781 91.9747 48.9496C92.4494 49.118 92.8393 49.3234 93.1447 49.5652C93.4506 49.8071 93.7251 50.1151 93.968 50.4889C94.2114 50.8627 94.3693 51.2915 94.4418 51.7752C94.5034 52.1857 94.4922 52.5596 94.4083 52.897C94.3245 53.2341 94.1642 53.5164 93.9292 53.7436C93.694 53.9709 93.4462 54.169 93.187 54.3374C92.9281 54.5059 92.5851 54.6416 92.159 54.7441C91.733 54.8468 91.3596 54.9274 91.0393 54.9859C90.7187 55.0446 90.3131 55.0851 89.8223 55.1069C89.3314 55.1288 88.9593 55.1438 88.706 55.151C88.4525 55.1582 88.1046 55.1582 87.6617 55.151C87.2187 55.1438 86.9603 55.1399 86.8852 55.1399L85.8727 48.389L85.8725 48.3891ZM97.5614 63.364C97.4694 63.7014 97.3303 63.9947 97.1433 64.2441C96.9559 64.4929 96.6931 64.713 96.355 64.9033C96.0171 65.0942 95.6843 65.2479 95.3579 65.3652C95.031 65.4829 94.6307 65.585 94.1579 65.6732C93.6839 65.7613 93.2669 65.8232 92.9052 65.8601C92.5442 65.8968 92.1108 65.926 91.605 65.9482C91.0994 65.9698 90.7041 65.9809 90.4198 65.9809C90.1353 65.9809 89.7754 65.9769 89.3401 65.9698C88.9047 65.9629 88.6275 65.9592 88.5076 65.9592L87.3928 58.5263C87.5124 58.5263 87.8669 58.5192 88.4561 58.5042C89.0454 58.4894 89.5269 58.4826 89.9012 58.4826C90.2755 58.4826 90.7954 58.5042 91.461 58.5485C92.1258 58.5922 92.6896 58.6579 93.1523 58.7458C93.6145 58.834 94.1247 58.9694 94.6841 59.1528C95.2428 59.336 95.707 59.5595 96.076 59.8234C96.4451 60.0877 96.7723 60.4244 97.0584 60.835C97.345 61.2453 97.5276 61.7145 97.6068 62.2424C97.6683 62.6533 97.6533 63.0266 97.5614 63.364Z" fill="#898D9E"/>
<path id="Vector_45" d="M103.816 58.1963C102.783 57.0971 101.359 56.342 99.5461 55.9317C101.61 54.8174 102.306 52.9263 101.637 50.2579C101.402 49.2903 101.003 48.4517 100.44 47.7408C99.8759 47.0299 99.1733 46.4583 98.3295 46.0259C97.4862 45.593 96.5902 45.2634 95.6434 45.0362C94.6963 44.809 93.6234 44.644 92.4253 44.5415L91.5942 39H88.1363L88.9444 44.3875C88.3456 44.3875 87.4347 44.4021 86.2116 44.4315L85.397 39H81.9387L82.7698 44.5415C82.2778 44.5562 81.553 44.5637 80.595 44.5637L75.8311 44.5415L76.3721 48.1479H78.8645C80.0022 48.1479 80.7432 48.6464 81.0873 49.6432L82.0339 55.9544C82.1838 55.9544 82.3045 55.9619 82.3966 55.9766H82.0372L83.363 64.8162C83.3555 65.5636 82.9775 65.9377 82.2289 65.9377H79.7367L79.644 69.962H84.1352C84.4197 69.962 84.8317 69.9657 85.3718 69.9723C85.9118 69.9797 86.3164 69.9834 86.5859 69.9834L87.4269 75.5907H90.8858L90.0547 70.0493C90.6855 70.0643 91.5997 70.0715 92.7974 70.0715L93.6252 75.5907H97.0831L96.2421 69.9834C97.4611 69.9249 98.5337 69.8155 99.4597 69.6537C100.386 69.4918 101.258 69.2394 102.074 68.8946C102.891 68.5503 103.552 68.1213 104.059 67.6081C104.566 67.0955 104.951 66.4428 105.214 65.6511C105.477 64.8593 105.583 63.943 105.531 62.902C105.421 60.8648 104.849 59.296 103.816 58.1963ZM86.8725 48.3891C86.9773 48.3891 87.2724 48.3854 87.7578 48.378C88.2435 48.3705 88.6464 48.3632 88.9672 48.3558C89.288 48.3486 89.7249 48.3669 90.2781 48.4109C90.8311 48.4549 91.3002 48.5137 91.6853 48.5868C92.0705 48.66 92.5007 48.781 92.9747 48.9496C93.4494 49.118 93.8393 49.3234 94.1447 49.5652C94.4506 49.8071 94.7251 50.1151 94.968 50.4889C95.2114 50.8627 95.3693 51.2915 95.4418 51.7752C95.5034 52.1857 95.4922 52.5596 95.4083 52.897C95.3245 53.2341 95.1642 53.5164 94.9292 53.7436C94.694 53.9709 94.4462 54.169 94.187 54.3374C93.9281 54.5059 93.5851 54.6416 93.159 54.7441C92.733 54.8468 92.3596 54.9274 92.0393 54.9859C91.7187 55.0446 91.3131 55.0851 90.8223 55.1069C90.3314 55.1288 89.9593 55.1438 89.706 55.151C89.4525 55.1582 89.1046 55.1582 88.6617 55.151C88.2187 55.1438 87.9603 55.1399 87.8852 55.1399L86.8727 48.389L86.8725 48.3891ZM98.5614 63.364C98.4694 63.7014 98.3303 63.9947 98.1433 64.2441C97.9559 64.4929 97.6931 64.713 97.355 64.9033C97.0171 65.0942 96.6843 65.2479 96.3579 65.3652C96.031 65.4829 95.6307 65.585 95.1579 65.6732C94.6839 65.7613 94.2669 65.8232 93.9052 65.8601C93.5442 65.8968 93.1108 65.926 92.605 65.9482C92.0994 65.9698 91.7041 65.9809 91.4198 65.9809C91.1353 65.9809 90.7754 65.9769 90.3401 65.9698C89.9047 65.9629 89.6275 65.9592 89.5076 65.9592L88.3928 58.5263C88.5124 58.5263 88.8669 58.5192 89.4561 58.5042C90.0454 58.4894 90.5269 58.4826 90.9012 58.4826C91.2755 58.4826 91.7954 58.5042 92.461 58.5485C93.1258 58.5922 93.6896 58.6579 94.1523 58.7458C94.6145 58.834 95.1247 58.9694 95.6841 59.1528C96.2428 59.336 96.707 59.5595 97.076 59.8234C97.4451 60.0877 97.7723 60.4244 98.0584 60.835C98.345 61.2453 98.5276 61.7145 98.6068 62.2424C98.6683 62.6533 98.6533 63.0266 98.5614 63.364Z" fill="#BABABA"/>
</g>
</g>
</g>
<g id="_x35_9_4">
<g id="Group_100">
<g id="Group_101">
<g id="Group_102">
<g id="Group_103">
<g id="Group_104">
<g id="Group_105">
<g id="Group_106">
<path id="Vector_46" d="M58.399 100.359C53.5803 103.219 47.773 104.583 41.4971 103.923C40.6522 103.835 39.8364 103.716 38.9892 103.568C33.9957 102.648 29.2559 100.516 25.0542 97.5217C22.3665 95.6113 19.8751 93.333 17.7322 90.7406C13.8605 86.1712 10.8975 80.7058 9.34811 74.7852C8.72168 72.5554 8.35261 70.2755 8.14268 67.9397C8.09192 67.4007 8.07005 66.8306 8.04932 66.2903C7.92499 63.0498 8.19651 59.9441 8.86619 57.0337C10.7228 49.0291 15.402 42.5389 21.8075 38.7472L13.7874 43.5324C7.38182 47.3242 2.70248 53.8142 0.876069 61.8177C0.17635 64.7293 -0.0951693 67.835 0.0291653 71.0757C0.0498871 71.6158 0.100644 72.1547 0.151401 72.6937C0.331117 75.0306 0.749789 77.3285 1.31634 79.5606C2.92694 85.5089 5.84039 90.9565 9.71186 95.5258C11.8549 98.1181 14.3163 100.398 17.004 102.308C27.0993 109.572 40.1149 111.219 50.3488 105.146L58.399 100.359Z" fill="#4B5067"/>
</g>
</g>
</g>
<g id="Group_107">
<g id="Group_108">
<g id="Group_109">
<path id="Vector_47" d="M72.1273 72.8174C71.3687 53.8245 56.4179 36.9688 38.7086 35.154C21.0303 33.368 7.29181 47.3277 8.04942 66.2904C8.80818 85.2833 23.789 102.138 41.4972 103.923C59.1764 105.739 72.886 91.8102 72.1273 72.8174Z" fill="#898D9E"/>
</g>
</g>
<g id="Group_110">
<g id="Group_111">
<path id="Vector_48" d="M38.5375 36.7702C22.8297 34.8981 8.90612 47.4733 9.66225 66.2228C10.3776 84.411 24.7345 100.615 41.6538 102.323C58.8482 103.962 71.2155 90.4962 70.5062 72.8932C69.7905 54.7049 55.4336 38.5013 38.5375 36.7702ZM40.9381 96.3445C27.2276 94.9596 15.5942 81.8952 14.994 67.2382C14.4274 52.7257 24.6876 41.4755 39.2531 42.7252C52.9637 44.1332 64.5739 57.2205 65.1741 71.8777C65.7799 87.3109 54.2637 97.8261 40.9381 96.3445Z" fill="#6D738E"/>
</g>
</g>
</g>
<g id="Group_112">
<g id="Group_113">
<g id="Group_114">
<path id="Vector_49" d="M63.5594 71.9441C62.9952 58.0223 52.0338 45.6713 39.0908 44.3348C26.1189 43.0295 16.0531 53.242 16.6173 67.1639C17.1815 81.0857 28.143 93.4366 41.1148 94.742C54.0577 96.0785 64.1225 85.8359 63.5594 71.9441Z" fill="#4B5067"/>
</g>
</g>
</g>
<g id="Group_115">
<g id="Group_116">
<g id="Group_117">
<path id="Vector_50" d="M63.5598 71.944C62.9956 58.0222 52.0341 45.6712 39.0912 44.3347C31.5493 43.5723 24.9683 46.7095 20.9424 52.213C24.8977 48.7857 30.1791 47.0206 36.0613 47.6062C49.0044 48.9427 59.9659 61.2937 60.5301 75.2155C60.7522 81.0067 59.1475 86.1769 56.2043 90.1363C61.0055 86.0454 63.8811 79.5345 63.5598 71.944Z" fill="#5C6280"/>
</g>
</g>
</g>
<g id="Group_118">
<g id="Group_119">
<g id="Group_120">
<path id="Vector_51" d="M38.9901 103.568C33.9966 102.648 29.2568 100.516 25.0551 97.5216L17.0049 102.308C21.2077 105.332 25.9462 107.434 30.9399 108.354L38.9901 103.568Z" fill="#5C6280"/>
</g>
</g>
</g>
<g id="Group_121">
<g id="Group_122">
<g id="Group_123">
<path id="Vector_52" d="M17.7323 90.7403C13.8606 86.1709 10.8976 80.7055 9.34818 74.7849L1.31641 79.5603C2.92701 85.5086 5.84046 90.9563 9.71193 95.5255L17.7323 90.7403Z" fill="#5C6280"/>
</g>
</g>
</g>
<g id="Group_124">
<g id="Group_125">
<g id="Group_126">
<path id="Vector_53" d="M8.8662 57.0337L0.876069 61.8177C0.17635 64.7293 -0.0951693 67.835 0.0291654 71.0757C0.0498865 71.6158 0.100643 72.1547 0.1514 72.6937L8.14268 67.9397C8.09192 67.4008 8.07005 66.8306 8.04932 66.2904C7.92499 63.0498 8.19651 59.9441 8.8662 57.0337Z" fill="#5C6280"/>
</g>
</g>
</g>
</g>
<g id="Group_127">
<g id="Group_128">
<path id="Vector_54" d="M18.9613 57.8002C19.1153 57.4658 19.5902 57.4702 19.743 57.806C20.5311 59.5378 21.2111 60.9462 21.3311 60.8972C21.4403 60.8527 20.949 59.3722 20.3116 57.5846C20.1879 57.2376 20.5244 56.9033 20.8672 57.0345C24.3612 58.3711 27.5706 59.533 27.6605 59.3178C27.747 59.1109 24.6762 57.6007 21.2859 56.0159C20.9528 55.8602 20.9556 55.3832 21.2893 55.2306C23.0008 54.4479 24.3984 53.7697 24.3493 53.649C24.3047 53.5392 22.8325 54.0286 21.055 54.6639C20.7101 54.7872 20.3763 54.4482 20.5058 54.1041C23.8894 45.1165 23.4691 45.0496 19.491 53.6805C19.337 54.0148 18.8622 54.0105 18.7094 53.6748C17.9256 51.9529 17.2481 50.5461 17.1391 50.5906C17.0192 50.6395 17.5109 52.125 18.1523 53.8997C18.2777 54.2469 17.9411 54.5828 17.5975 54.4515C14.1104 53.1191 10.8872 51.9595 10.8007 52.1663C10.7108 52.3815 13.7927 53.8881 17.178 55.4695C17.5108 55.6249 17.5084 56.1013 17.1754 56.2545C15.4592 57.0436 14.0583 57.7214 14.103 57.8312C14.152 57.9518 15.6287 57.4622 17.3953 56.8174C17.7407 56.6913 18.077 57.0306 17.9471 57.3759C14.602 66.2704 14.9331 66.5476 18.9613 57.8002Z" fill="white"/>
</g>
</g>
</g>
</g>
<g id="Group_129" opacity="0.7">
<g id="Group_130">
<path id="Vector_55" d="M33.4204 87.4334C36.3986 89.2038 39.0439 89.9947 38.4042 91.2059C37.7713 92.4043 34.7998 91.9806 31.8216 90.2102C28.8435 88.4398 27.4277 86.0251 28.0606 84.8267C28.7003 83.6155 30.4424 85.663 33.4204 87.4334Z" fill="white"/>
</g>
</g>
<g id="Group_131" opacity="0.7">
<g id="Group_132">
<path id="Vector_56" d="M24.6062 81.3485C25.1429 80.9297 26.0496 81.1975 26.6327 81.9282C27.2158 82.659 27.259 83.5816 26.7223 84.0004C26.1967 84.4107 25.2993 84.1547 24.7162 83.424C24.1331 82.6932 24.0805 81.7588 24.6062 81.3485Z" fill="white"/>
</g>
</g>
<g id="Group 177_4">
<path id="Vector_57" d="M50.9887 71.0098L50.9888 71.0099C51.913 71.9936 52.3767 73.3462 52.4651 74.9815L52.4652 74.9837C52.5073 75.8311 52.4217 76.5932 52.1999 77.2626L52.1997 77.2632C51.9798 77.9234 51.6545 78.4814 51.2152 78.9255C50.7814 79.3647 50.2245 79.7225 49.5556 80.0046C48.8955 80.2834 48.192 80.4869 47.4467 80.6171M50.9887 71.0098L47.2888 80.1298M50.9887 71.0098C50.3257 70.3042 49.4908 69.777 48.5052 69.4148C48.9236 69.0367 49.234 68.5868 49.427 68.0629C49.7334 67.2316 49.7293 66.2548 49.4548 65.1592C49.2578 64.3492 48.9183 63.6266 48.425 63.0042L48.4249 63.0041C47.934 62.385 47.3229 61.8895 46.5992 61.5187C45.9061 61.1629 45.1728 60.8937 44.4025 60.7089L44.4025 60.7088C43.768 60.5566 43.0696 60.4406 42.3091 60.3596L41.7368 56.5439L41.6627 56.0495H41.1627H38.5021H38.0021L38.0763 56.5439L38.6243 60.198M50.9887 71.0098L38.6243 60.198M47.4467 80.6171L47.2888 80.1298M47.4467 80.6171C47.4467 80.6171 47.4467 80.6171 47.4467 80.6171L47.2888 80.1298M47.4467 80.6171C46.834 80.7242 46.1456 80.8016 45.3831 80.8509M47.2888 80.1298C46.5763 80.2543 45.751 80.3385 44.813 80.3835M45.3831 80.8509L45.313 80.3835H44.813M45.3831 80.8509L45.9602 84.698L46.0343 85.1924H45.5343H42.8737H42.3737L42.2995 84.698L41.7367 80.9452M45.3831 80.8509C45.2289 80.8609 45.0715 80.8697 44.9112 80.8774L44.813 80.3835M44.813 80.3835L38.6243 60.198M38.6243 60.198C38.3159 60.2015 37.9475 60.2079 37.5194 60.2171L36.9685 56.5439L36.8943 56.0495H36.3943H33.7334H33.2334L33.3076 56.5439L33.8745 60.3235C33.556 60.328 33.165 60.3303 32.7007 60.3303L29.0365 60.3133L28.5337 60.3109L28.6083 60.8077L29.0245 63.5826L29.0986 64.0771H29.5986H31.5163C31.884 64.0771 32.1249 64.1577 32.2838 64.2646C32.4281 64.3616 32.5607 64.5178 32.66 64.7836L33.3092 69.1118L33.3808 69.5892L33.3834 69.6062L33.455 70.0836L34.3972 76.3656C34.3899 76.5521 34.3402 76.639 34.2967 76.682C34.2519 76.7263 34.161 76.7762 33.9567 76.7762H32.0391H31.6174L31.6079 77.1873L31.5367 80.2836L31.5234 80.8615H32.1162H35.5718C35.7873 80.8615 36.1015 80.8643 36.5167 80.8694M36.5167 80.8694C36.5166 80.8694 36.5165 80.8694 36.5164 80.8694L36.4491 80.375L36.5171 80.8694C36.517 80.8694 36.5169 80.8694 36.5167 80.8694ZM36.5167 80.8694C36.679 80.8716 36.8258 80.8734 36.957 80.8748M36.957 80.8748L37.5304 84.698L37.6046 85.1924H38.1046H40.7659H41.2659L41.1918 84.698L40.6278 80.9376M36.957 80.8748C37.1619 80.8769 37.3289 80.878 37.4575 80.878L37.3833 80.3835H36.8833L36.957 80.8748ZM40.6278 80.9376C40.9426 80.9416 41.3123 80.9441 41.7367 80.9452M40.6278 80.9376L40.5536 80.4431C40.984 80.4486 41.5203 80.4513 42.1626 80.4513M40.6278 80.9376C40.4414 80.9352 40.2743 80.9323 40.1265 80.9288L40.6176 84.2035L40.6918 84.698L42.1626 80.4513M41.7367 80.9452L41.6626 80.4513H42.1626M41.7367 80.9452C41.8957 80.9456 42.0624 80.9458 42.2367 80.9458L42.7254 84.2035L42.7995 84.698H43.2995H44.9602L42.1626 80.4513M32.042 80.367L32.0534 79.8726H31.9678L32.042 80.367ZM32.042 80.367H32.5493L32.5474 80.4504L32.042 80.367ZM38.8099 68.4749L38.1773 64.2569C38.2358 64.2561 38.299 64.2551 38.3669 64.2541L38.367 64.2541C38.741 64.2483 39.0524 64.2427 39.301 64.237C39.5228 64.232 39.8391 64.2446 40.2576 64.2778L38.8099 68.4749ZM38.8099 68.4749C38.8433 68.4754 38.8782 68.476 38.9146 68.4766C39.2524 68.4821 39.5115 68.482 39.6955 68.4767C39.8861 68.4713 40.169 68.46 40.5465 68.4431C40.9112 68.4269 41.1996 68.3973 41.4176 68.3574L41.4178 68.3573C41.6535 68.3143 41.932 68.2542 42.2542 68.1766L42.2543 68.1766C42.5502 68.1054 42.7641 68.0166 42.9112 67.9209L42.9114 67.9208C43.0877 67.8062 43.2583 67.6701 43.4218 67.512L43.4218 67.512C43.5467 67.3913 43.6328 67.2417 43.6791 67.0554L43.6792 67.0552C43.7276 66.8606 43.7366 66.6355 43.6973 66.3736C43.6511 66.0654 43.5539 65.8127 43.4177 65.6035L43.4173 65.6029C43.2609 65.3621 43.0933 65.1778 42.9183 65.0395L42.9179 65.0391C42.7494 64.9057 42.5131 64.7761 42.1912 64.6619L42.1907 64.6617C41.847 64.5394 41.5447 64.4552 41.2827 64.4054C41.0118 64.3539 40.6712 64.3107 40.2576 64.2778L38.8099 68.4749ZM45.3708 76.0372L45.3713 76.037C45.5929 75.9122 45.749 75.7769 45.8536 75.6382C45.9636 75.4913 46.0493 75.3137 46.1077 75.0999L45.3708 76.0372ZM45.3708 76.0372C45.1293 76.1737 44.895 76.2814 44.669 76.3626L44.6687 76.3628M45.3708 76.0372L44.6687 76.3628M44.6687 76.3628C44.4469 76.4427 44.1643 76.5157 43.816 76.5807C43.4604 76.6468 43.1527 76.6923 42.8907 76.719C42.6252 76.746 42.302 76.7679 41.919 76.7847C41.5321 76.8012 41.2364 76.8094 41.0285 76.8094C40.8137 76.8094 40.54 76.8064 40.2061 76.8009L40.2057 76.8009M44.6687 76.3628L40.2057 76.8009M40.2057 76.8009C40.1537 76.8001 40.1045 76.7993 40.058 76.7986L39.3464 72.0535C39.4441 72.0513 39.5549 72.0485 39.6785 72.0454M40.2057 76.8009L41.9443 72.0785M41.9443 72.0785L41.9438 72.0785C41.4364 72.0447 41.0493 72.0289 40.7778 72.0289C40.4954 72.0289 40.1294 72.0341 39.6785 72.0454M41.9443 72.0785C42.4427 72.1113 42.8534 72.1598 43.1805 72.222C43.5081 72.2845 43.8769 72.3819 44.2891 72.517L44.2892 72.5171M41.9443 72.0785L44.2892 72.5171M39.6785 72.0454L39.5917 71.5511L39.6786 72.0454C39.6786 72.0454 39.6785 72.0454 39.6785 72.0454ZM44.2892 72.5171C44.6792 72.6449 44.977 72.7927 45.1973 72.95C45.4181 73.1082 45.6215 73.3147 45.806 73.5796L45.8064 73.5801M44.2892 72.5171L45.8064 73.5801M45.8064 73.5801C45.9699 73.8143 46.0822 74.0923 46.1325 74.4273L45.8064 73.5801ZM46.1325 74.4274C46.1713 74.6862 46.16 74.9075 46.1077 75.0997L46.1325 74.4274Z" fill="#898D9E" stroke="#5C627F"/>
<path id="Vector_58" d="M50.6403 70.5448C49.8455 69.699 48.7505 69.118 47.3553 68.8023C48.9431 67.9449 49.4791 66.4898 48.9641 64.4367C48.7832 63.6922 48.4763 63.0469 48.0428 62.5C47.609 61.953 47.0684 61.5132 46.4192 61.1805C45.7703 60.8474 45.0809 60.5938 44.3524 60.419C43.6237 60.2441 42.7982 60.1172 41.8763 60.0383L41.2368 55.7745H38.5763L39.198 59.9199C38.7373 59.9199 38.0364 59.9311 37.0953 59.9537L36.4685 55.7745H33.8076L34.4471 60.0383C34.0685 60.0496 33.5108 60.0554 32.7737 60.0554L29.1083 60.0383L29.5245 62.8132H31.4422C32.3176 62.8132 32.8877 63.1968 33.1525 63.9637L33.8808 68.8198C33.9962 68.8198 34.0891 68.8256 34.1599 68.8368H33.8834L34.9035 75.6383C34.8977 76.2134 34.6069 76.5012 34.0309 76.5012H32.1133L32.042 79.5976H35.4977C35.7165 79.5976 36.0335 79.6005 36.4491 79.6056C36.8646 79.6113 37.1759 79.6141 37.3833 79.6141L38.0304 83.9286H40.6918L40.0523 79.6648C40.5377 79.6764 41.2411 79.6819 42.1626 79.6819L42.7995 83.9286H45.4602L44.813 79.6141C45.751 79.5691 46.5763 79.4849 47.2888 79.3604C48.0015 79.2359 48.6724 79.0416 49.3005 78.7764C49.9286 78.5115 50.4377 78.1813 50.8276 77.7865C51.2179 77.3921 51.5137 76.8899 51.7166 76.2807C51.9184 75.6715 52.0001 74.9665 51.9604 74.1654C51.8756 72.598 51.4353 71.3909 50.6403 70.5448ZM37.6038 62.9988C37.6845 62.9988 37.9115 62.996 38.285 62.9903C38.6587 62.9845 38.9687 62.9789 39.2155 62.9732C39.4624 62.9676 39.7985 62.9817 40.2242 63.0156C40.6497 63.0494 41.0106 63.0946 41.307 63.1509C41.6033 63.2072 41.9343 63.3003 42.299 63.4301C42.6643 63.5597 42.9642 63.7177 43.1992 63.9037C43.4347 64.0898 43.6458 64.3268 43.8327 64.6145C44.02 64.9021 44.1415 65.232 44.1973 65.6041C44.2447 65.92 44.2361 66.2077 44.1715 66.4673C44.107 66.7267 43.9837 66.9439 43.8028 67.1187C43.6219 67.2936 43.4313 67.446 43.2318 67.5756C43.0326 67.7052 42.7687 67.8096 42.4408 67.8885C42.1131 67.9675 41.8258 68.0296 41.5793 68.0746C41.3326 68.1198 41.0206 68.1509 40.6429 68.1677C40.2652 68.1845 39.9789 68.196 39.784 68.2016C39.589 68.2072 39.3212 68.2072 38.9805 68.2016C38.6397 68.196 38.4408 68.1931 38.383 68.1931L37.604 62.9988L37.6038 62.9988ZM46.5976 74.5209C46.5268 74.7805 46.4198 75.0062 46.2759 75.1981C46.1317 75.3895 45.9295 75.5589 45.6694 75.7054C45.4094 75.8522 45.1533 75.9704 44.9021 76.0607C44.6507 76.1513 44.3427 76.2298 43.9789 76.2977C43.6142 76.3655 43.2933 76.4131 43.015 76.4415C42.7372 76.4698 42.4038 76.4922 42.0146 76.5093C41.6256 76.5259 41.3214 76.5345 41.1026 76.5345C40.8838 76.5345 40.6068 76.5314 40.2719 76.5259C39.9369 76.5206 39.7236 76.5178 39.6313 76.5178L38.7735 70.7987C38.8656 70.7987 39.1384 70.7932 39.5917 70.7817C40.0452 70.7703 40.4157 70.765 40.7037 70.765C40.9916 70.765 41.3916 70.7817 41.9038 70.8158C42.4153 70.8494 42.8491 70.8999 43.2051 70.9676C43.5607 71.0354 43.9533 71.1396 44.3837 71.2807C44.8136 71.4217 45.1708 71.5936 45.4547 71.7967C45.7387 72.0001 45.9905 72.2591 46.2106 72.575C46.4311 72.8908 46.5716 73.2518 46.6325 73.658C46.6799 73.9741 46.6683 74.2613 46.5976 74.5209Z" fill="#898D9E"/>
<path id="Vector_59" d="M50.6403 69.7754C49.8455 68.9296 48.7505 68.3486 47.3553 68.0329C48.9431 67.1755 49.4791 65.7204 48.9641 63.6673C48.7832 62.9228 48.4763 62.2775 48.0428 61.7306C47.609 61.1835 47.0684 60.7438 46.4192 60.4111C45.7703 60.078 45.0809 59.8244 44.3524 59.6495C43.6237 59.4747 42.7982 59.3478 41.8763 59.2689L41.2368 55.0051H38.5763L39.198 59.1504C38.7373 59.1504 38.0364 59.1617 37.0953 59.1843L36.4685 55.0051H33.8076L34.4471 59.2689C34.0685 59.2802 33.5108 59.286 32.7737 59.286L29.1083 59.2689L29.5245 62.0438H31.4422C32.3176 62.0438 32.8877 62.4274 33.1525 63.1943L33.8808 68.0504C33.9962 68.0504 34.0891 68.0562 34.1599 68.0674H33.8834L34.9035 74.8689C34.8977 75.444 34.6069 75.7318 34.0309 75.7318H32.1133L32.042 78.8282H35.4977C35.7165 78.8282 36.0335 78.8311 36.4491 78.8362C36.8646 78.8418 37.1759 78.8447 37.3833 78.8447L38.0304 83.1591H40.6918L40.0523 78.8954C40.5377 78.907 41.2411 78.9125 42.1626 78.9125L42.7995 83.1591H45.4602L44.813 78.8447C45.751 78.7997 46.5763 78.7155 47.2888 78.591C48.0015 78.4665 48.6724 78.2722 49.3005 78.007C49.9286 77.7421 50.4377 77.4119 50.8276 77.0171C51.2179 76.6227 51.5137 76.1205 51.7166 75.5113C51.9184 74.902 52.0001 74.1971 51.9604 73.396C51.8756 71.8285 51.4353 70.6215 50.6403 69.7754ZM37.6038 62.2294C37.6845 62.2294 37.9115 62.2266 38.285 62.2209C38.6587 62.2151 38.9687 62.2095 39.2155 62.2038C39.4624 62.1982 39.7985 62.2123 40.2242 62.2462C40.6497 62.28 41.0106 62.3252 41.307 62.3815C41.6033 62.4378 41.9343 62.5309 42.299 62.6607C42.6643 62.7903 42.9642 62.9482 43.1992 63.1343C43.4347 63.3204 43.6458 63.5574 43.8327 63.8451C44.02 64.1327 44.1415 64.4626 44.1973 64.8347C44.2447 65.1506 44.2361 65.4383 44.1715 65.6979C44.107 65.9573 43.9837 66.1745 43.8028 66.3493C43.6219 66.5242 43.4313 66.6766 43.2318 66.8062C43.0326 66.9358 42.7687 67.0402 42.4408 67.1191C42.1131 67.1981 41.8258 67.2602 41.5793 67.3052C41.3326 67.3504 41.0206 67.3815 40.6429 67.3983C40.2652 67.4151 39.9789 67.4266 39.784 67.4322C39.589 67.4378 39.3212 67.4378 38.9805 67.4322C38.6397 67.4266 38.4408 67.4237 38.383 67.4237L37.604 62.2293L37.6038 62.2294ZM46.5976 73.7515C46.5268 74.0111 46.4198 74.2368 46.2759 74.4287C46.1317 74.6201 45.9295 74.7895 45.6694 74.9359C45.4094 75.0828 45.1533 75.201 44.9021 75.2913C44.6507 75.3819 44.3427 75.4604 43.9789 75.5283C43.6142 75.5961 43.2933 75.6437 43.015 75.6721C42.7372 75.7004 42.4038 75.7228 42.0146 75.7399C41.6256 75.7565 41.3214 75.7651 41.1026 75.7651C40.8838 75.7651 40.6068 75.762 40.2719 75.7565C39.9369 75.7512 39.7236 75.7484 39.6313 75.7484L38.7735 70.0293C38.8656 70.0293 39.1384 70.0238 39.5917 70.0123C40.0452 70.0009 40.4157 69.9956 40.7037 69.9956C40.9916 69.9956 41.3916 70.0123 41.9038 70.0464C42.4153 70.08 42.8491 70.1305 43.2051 70.1982C43.5607 70.266 43.9533 70.3702 44.3837 70.5113C44.8136 70.6523 45.1708 70.8242 45.4547 71.0273C45.7387 71.2306 45.9905 71.4897 46.2106 71.8056C46.4311 72.1214 46.5716 72.4824 46.6325 72.8886C46.6799 73.2047 46.6683 73.4919 46.5976 73.7515Z" fill="#898D9E"/>
<path id="Vector_60" d="M51.4099 69.7754C50.6151 68.9296 49.52 68.3486 48.1248 68.0329C49.7126 67.1755 50.2487 65.7204 49.7336 63.6673C49.5527 62.9228 49.2458 62.2775 48.8123 61.7306C48.3785 61.1835 47.838 60.7438 47.1887 60.4111C46.5399 60.078 45.8505 59.8244 45.1219 59.6495C44.3932 59.4747 43.5677 59.3478 42.6459 59.2689L42.0064 55.0051H39.3458L39.9675 59.1504C39.5068 59.1504 38.8059 59.1617 37.8649 59.1843L37.238 55.0051H34.5771L35.2166 59.2689C34.8381 59.2802 34.2804 59.286 33.5432 59.286L29.8778 59.2689L30.294 62.0438H32.2117C33.0872 62.0438 33.6573 62.4274 33.922 63.1943L34.6504 68.0504C34.7657 68.0504 34.8586 68.0562 34.9295 68.0674H34.6529L35.673 74.8689C35.6673 75.444 35.3764 75.7318 34.8004 75.7318H32.8828L32.8115 78.8282H36.2672C36.4861 78.8282 36.8031 78.8311 37.2187 78.8362C37.6341 78.8418 37.9454 78.8447 38.1528 78.8447L38.7999 83.1591H41.4613L40.8218 78.8954C41.3072 78.907 42.0106 78.9125 42.9321 78.9125L43.5691 83.1591H46.2297L45.5826 78.8447C46.5206 78.7997 47.3458 78.7155 48.0583 78.591C48.7711 78.4665 49.4419 78.2722 50.07 78.007C50.6982 77.7421 51.2072 77.4119 51.5972 77.0171C51.9874 76.6227 52.2832 76.1205 52.4861 75.5113C52.688 74.902 52.7697 74.1971 52.7299 73.396C52.6452 71.8285 52.2048 70.6215 51.4099 69.7754ZM38.3733 62.2294C38.454 62.2294 38.681 62.2266 39.0546 62.2209C39.4282 62.2151 39.7383 62.2095 39.985 62.2038C40.2319 62.1982 40.5681 62.2123 40.9937 62.2462C41.4192 62.28 41.7802 62.3252 42.0765 62.3815C42.3728 62.4378 42.7038 62.5309 43.0685 62.6607C43.4338 62.7903 43.7338 62.9482 43.9688 63.1343C44.2042 63.3204 44.4154 63.5574 44.6022 63.8451C44.7895 64.1327 44.911 64.4626 44.9668 64.8347C45.0142 65.1506 45.0056 65.4383 44.941 65.6979C44.8766 65.9573 44.7532 66.1745 44.5724 66.3493C44.3915 66.5242 44.2008 66.6766 44.0014 66.8062C43.8022 66.9358 43.5382 67.0402 43.2104 67.1191C42.8826 67.1981 42.5953 67.2602 42.3488 67.3052C42.1021 67.3504 41.7901 67.3815 41.4125 67.3983C41.0348 67.4151 40.7484 67.4266 40.5536 67.4322C40.3585 67.4378 40.0908 67.4378 39.75 67.4322C39.4092 67.4266 39.2103 67.4237 39.1526 67.4237L38.3735 62.2293L38.3733 62.2294ZM47.3672 73.7515C47.2964 74.0111 47.1894 74.2368 47.0455 74.4287C46.9012 74.6201 46.699 74.7895 46.4389 74.9359C46.1789 75.0828 45.9228 75.201 45.6717 75.2913C45.4202 75.3819 45.1122 75.4604 44.7484 75.5283C44.3837 75.5961 44.0628 75.6437 43.7846 75.6721C43.5067 75.7004 43.1733 75.7228 42.7841 75.7399C42.3951 75.7565 42.0909 75.7651 41.8722 75.7651C41.6533 75.7651 41.3763 75.762 41.0414 75.7565C40.7064 75.7512 40.4931 75.7484 40.4009 75.7484L39.5431 70.0293C39.6351 70.0293 39.9079 70.0238 40.3613 70.0123C40.8147 70.0009 41.1852 69.9956 41.4732 69.9956C41.7611 69.9956 42.1612 70.0123 42.6733 70.0464C43.1848 70.08 43.6187 70.1305 43.9747 70.1982C44.3303 70.266 44.7228 70.3702 45.1532 70.5113C45.5832 70.6523 45.9403 70.8242 46.2242 71.0273C46.5082 71.2306 46.76 71.4897 46.9801 71.8056C47.2006 72.1214 47.3411 72.4824 47.402 72.8886C47.4494 73.2047 47.4378 73.4919 47.3672 73.7515Z" fill="#BABABA"/>
</g>
</g>
</g>
<ellipse id="Ellipse 122" cx="77.5" cy="123.5" rx="73.5" ry="7.5" fill="#1A1D29"/>
</g>
</svg>
