<svg width="151" height="131" viewBox="0 0 151 131" fill="none" xmlns="http://www.w3.org/2000/svg">
<g id="Group 185">
<g id="_x35_9">
<g id="Group">
<g id="Group_2">
<g id="Group_3">
<g id="Group_4">
<g id="Group_5">
<g id="Group_6">
<g id="Group_7">
<path id="Vector" d="M139.197 43.8683C135.962 45.7875 132.065 46.7033 127.852 46.2599C127.285 46.201 126.738 46.1212 126.169 46.022C122.817 45.4043 119.636 43.9732 116.816 41.9636C115.012 40.6814 113.34 39.1522 111.902 37.4123C109.303 34.3453 107.314 30.677 106.274 26.7032C105.854 25.2066 105.606 23.6764 105.465 22.1086C105.431 21.7469 105.417 21.3642 105.403 21.0016C105.319 18.8266 105.501 16.7421 105.951 14.7886C107.197 9.41607 110.338 5.05993 114.637 2.51501L109.254 5.72675C104.955 8.27179 101.814 12.6278 100.588 17.9996C100.118 19.9538 99.9361 22.0383 100.02 24.2135C100.033 24.576 100.068 24.9377 100.102 25.2994C100.222 26.8679 100.503 28.4102 100.884 29.9084C101.965 33.9008 103.92 37.5572 106.518 40.624C107.957 42.3639 109.609 43.894 111.413 45.1762C118.189 50.0516 126.925 51.1568 133.793 47.0808L139.197 43.8683Z" fill="#4B5067"/>
</g>
</g>
</g>
<g id="Group_8">
<g id="Group_9">
<g id="Group_10">
<path id="Vector_2" d="M148.411 25.3827C147.902 12.6349 137.867 1.32157 125.981 0.103453C114.115 -1.09527 104.894 8.27428 105.403 21.0018C105.912 33.7495 115.967 45.0621 127.853 46.26C139.719 47.4789 148.92 38.1303 148.411 25.3827Z" fill="#898D9E"/>
</g>
</g>
<g id="Group_11">
<g id="Group_12">
<path id="Vector_3" d="M125.866 1.18813C115.323 -0.0684316 105.978 8.3719 106.486 20.9563C106.966 33.164 116.602 44.0396 127.958 45.186C139.498 46.2864 147.799 37.2483 147.323 25.4334C146.843 13.2256 137.207 2.35005 125.866 1.18813ZM127.477 41.1736C118.275 40.2441 110.467 31.4754 110.064 21.6378C109.684 11.8973 116.57 4.34623 126.347 5.18506C135.549 6.13007 143.342 14.9141 143.744 24.7518C144.151 35.1103 136.421 42.168 127.477 41.1736Z" fill="#6D738E"/>
</g>
</g>
</g>
<g id="Group_13">
<g id="Group_14">
<g id="Group_15">
<path id="Vector_4" d="M142.66 24.7964C142.281 15.4522 134.924 7.16244 126.237 6.26539C117.53 5.38928 110.774 12.2438 111.153 21.5879C111.532 30.9321 118.889 39.2218 127.595 40.098C136.282 40.995 143.038 34.1203 142.66 24.7964Z" fill="#4B5067"/>
<g id="Group 179">
<path id="Vector_5" d="M128.205 22.3481L126.886 22.7766L127.539 15.1185L127.592 14.4888H126.917H122.71H122.342L122.311 14.8315L121.415 24.554L119.272 25.2483L119.034 25.3255L119.015 25.576L118.874 27.4345L118.808 28.3082L119.639 28.0383L121.139 27.551L120.583 33.5706L120.524 34.2032H121.204H134.457H134.821L134.856 33.8651L135.209 30.4521L135.275 29.815H134.588H126.285L126.631 25.7688L128.572 25.138L128.81 25.0607L128.829 24.8104L128.97 22.9519L129.036 22.0782L128.205 22.3481Z" fill="#898D9E" stroke="#5C627F"/>
<path id="Vector_6" d="M125.72 29.7862L126.141 24.8633L128.318 24.156L128.459 22.2975L126.3 22.9987L127.028 14.4601H122.821L121.902 24.4275L119.526 25.1977L119.385 27.0562L121.731 26.2942L121.093 33.1992H134.346L134.699 29.7862H125.72Z" fill="#898D9E"/>
<path id="Vector_7" d="M126.237 29.2697L126.658 24.3468L128.835 23.6395L128.975 21.781L126.817 22.4822L127.545 13.9436H123.337L122.419 23.9111L120.042 24.6812L119.901 26.5397L122.248 25.7777L121.61 32.6828H134.863L135.216 29.2697H126.237Z" fill="#898D9E"/>
<path id="Vector_8" d="M126.968 28.9781L127.389 24.0552L129.566 23.3479L129.707 21.4893L127.548 22.1906L128.276 13.652H124.069L123.15 23.6194L120.774 24.3896L120.633 26.2481L122.979 25.4861L122.341 32.3911H135.594L135.947 28.9781H126.968Z" fill="#BABABA"/>
</g>
</g>
</g>
</g>
<g id="Group_16">
<g id="Group_17">
<g id="Group_18">
<path id="Vector_9" d="M142.662 24.7963C142.283 15.4522 134.926 7.1624 126.239 6.26535C121.177 5.75366 116.76 7.8593 114.058 11.5532C116.712 9.25281 120.257 8.0681 124.205 8.46113C132.892 9.35818 140.25 17.648 140.628 26.9921C140.777 30.8791 139.7 34.3492 137.725 37.0068C140.947 34.261 142.878 29.891 142.662 24.7963Z" fill="#5C6280"/>
</g>
</g>
</g>
<g id="Group_19">
<g id="Group_20">
<g id="Group_21">
<path id="Vector_10" d="M126.169 46.0219C122.818 45.4043 119.636 43.9732 116.816 41.9636L111.413 45.1761C114.234 47.2059 117.414 48.6168 120.766 49.2345L126.169 46.0219Z" fill="#5C6280"/>
</g>
</g>
</g>
<g id="Group_22">
<g id="Group_23">
<g id="Group_24">
<path id="Vector_11" d="M111.903 37.4124C109.304 34.3455 107.316 30.6772 106.276 26.7034L100.885 29.9085C101.966 33.901 103.921 37.5574 106.52 40.6242L111.903 37.4124Z" fill="#5C6280"/>
</g>
</g>
</g>
<g id="Group_25">
<g id="Group_26">
<g id="Group_27">
<path id="Vector_12" d="M105.951 14.7887L100.588 17.9997C100.118 19.9539 99.9361 22.0384 100.02 24.2135C100.033 24.576 100.068 24.9377 100.102 25.2995L105.465 22.1087C105.431 21.7469 105.417 21.3643 105.403 21.0016C105.319 18.8266 105.501 16.7421 105.951 14.7887Z" fill="#5C6280"/>
</g>
</g>
</g>
</g>
<g id="Group_28">
<g id="Group_29">
<path id="Vector_13" d="M112.727 15.3031C112.83 15.0787 113.149 15.0817 113.251 15.307C113.78 16.4694 114.237 17.4147 114.317 17.3818C114.39 17.352 114.061 16.3583 113.633 15.1584C113.55 14.9256 113.776 14.7012 114.006 14.7892C116.351 15.6863 118.505 16.4662 118.565 16.3218C118.623 16.1829 116.562 15.1693 114.287 14.1056C114.063 14.001 114.065 13.6809 114.289 13.5785C115.438 13.0531 116.376 12.598 116.343 12.517C116.313 12.4433 115.325 12.7717 114.132 13.1981C113.9 13.2808 113.676 13.0533 113.763 12.8224C116.034 6.79002 115.752 6.7451 113.082 12.5381C112.979 12.7625 112.66 12.7596 112.557 12.5342C112.031 11.3785 111.577 10.4343 111.504 10.4642C111.423 10.497 111.753 11.494 112.184 12.6852C112.268 12.9183 112.042 13.1437 111.811 13.0556C109.471 12.1613 107.307 11.3829 107.249 11.5218C107.189 11.6662 109.257 12.6774 111.53 13.7388C111.753 13.8432 111.751 14.1629 111.528 14.2657C110.376 14.7954 109.436 15.2503 109.466 15.324C109.499 15.4049 110.49 15.0763 111.676 14.6435C111.907 14.5589 112.133 14.7866 112.046 15.0184C109.801 20.9882 110.023 21.1743 112.727 15.3031Z" fill="white"/>
</g>
</g>
</g>
</g>
<g id="Group_30" opacity="0.7">
<g id="Group_31">
<path id="Vector_14" d="M122.431 35.1926C124.429 36.3809 126.205 36.9117 125.776 37.7246C125.351 38.529 123.356 38.2446 121.357 37.0563C119.359 35.8681 118.408 34.2473 118.833 33.443C119.262 32.6301 120.432 34.0043 122.431 35.1926Z" fill="white"/>
</g>
</g>
<g id="Group_32" opacity="0.7">
<g id="Group_33">
<path id="Vector_15" d="M116.514 31.1083C116.874 30.8272 117.483 31.0069 117.874 31.4974C118.266 31.9879 118.295 32.6071 117.934 32.8882C117.582 33.1636 116.979 32.9918 116.588 32.5013C116.197 32.0109 116.161 31.3837 116.514 31.1083Z" fill="white"/>
</g>
</g>
</g>
</g>
<g id="_x35_9_2">
<g id="Group_34">
<g id="Group_35">
<g id="Group_36">
<g id="Group_37">
<g id="Group_38">
<g id="Group_39">
<g id="Group_40">
<path id="Vector_16" d="M112.899 97.9452C106.636 101.661 99.0888 103.435 90.9322 102.576C89.8341 102.462 88.7739 102.308 87.6728 102.116C81.1829 100.919 75.0228 98.1484 69.562 94.2571C66.0689 91.7743 62.8309 88.8132 60.0459 85.444C55.014 79.5053 51.1631 72.4021 49.1494 64.7073C48.3352 61.8094 47.8556 58.8462 47.5827 55.8105C47.5168 55.1101 47.4883 54.3691 47.4614 53.6669C47.2998 49.4553 47.6527 45.4189 48.5231 41.6364C50.9361 31.2331 57.0174 22.798 65.3424 17.8701L54.9189 24.0892C46.5939 29.0173 40.5123 37.4522 38.1386 47.854C37.2292 51.638 36.8763 55.6744 37.0379 59.8863C37.0648 60.5882 37.1308 61.2886 37.1968 61.9891C37.4303 65.0263 37.9745 68.0128 38.7108 70.9137C40.804 78.6445 44.5905 85.7246 49.6221 91.6631C52.4074 95.0323 55.6064 97.9951 59.0994 100.478C72.2199 109.918 89.1358 112.058 102.436 104.166L112.899 97.9452Z" fill="#4B5067"/>
</g>
</g>
</g>
<g id="Group_41">
<g id="Group_42">
<g id="Group_43">
<path id="Vector_17" d="M130.741 62.1499C129.755 37.4655 110.324 15.5588 87.3082 13.2001C64.3324 10.8789 46.4771 29.0218 47.4617 53.6669C48.4478 78.3513 67.9179 100.256 90.9325 102.576C113.91 104.936 131.727 86.834 130.741 62.1499Z" fill="#898D9E"/>
</g>
</g>
<g id="Group_44">
<g id="Group_45">
<path id="Vector_18" d="M87.0858 15.3008C66.671 12.8676 48.5751 29.2112 49.5578 53.5791C50.4876 77.2178 69.1467 98.2769 91.1359 100.497C113.483 102.628 129.556 85.1264 128.634 62.2484C127.704 38.6098 109.045 17.5507 87.0858 15.3008ZM90.2058 92.7272C72.3868 90.9274 57.2673 73.948 56.4873 54.8989C55.7508 36.0376 69.0857 21.416 88.016 23.0403C105.835 24.8702 120.924 41.8792 121.704 60.9287C122.492 80.9866 107.525 94.6529 90.2058 92.7272Z" fill="#6D738E"/>
</g>
</g>
</g>
<g id="Group_46">
<g id="Group_47">
<g id="Group_48">
<path id="Vector_19" d="M119.607 61.0147C118.873 42.921 104.627 26.869 87.8057 25.1319C70.9465 23.4355 57.8645 36.7083 58.5977 54.802C59.331 72.8956 73.5772 88.9477 90.4362 90.6442C107.258 92.3812 120.338 79.0693 119.607 61.0147Z" fill="#4B5067"/>
<g id="Group 179_2">
<path id="Vector_20" d="M91.8534 56.7103L88.5131 57.7955L89.8474 42.142L89.9011 41.5124H89.2262H81.0797H80.7117L80.6801 41.8551L78.924 60.9107L74.556 62.3262L74.3176 62.4034L74.2987 62.6539L74.0261 66.2527L73.9599 67.1263L74.7908 66.8564L78.4877 65.6556L77.3346 78.1409L77.2762 78.7735H77.9556H103.619H103.983L104.018 78.4354L104.701 71.8265L104.767 71.1894H104.08H87.3687L88.1092 62.5336L92.0886 61.2405L92.3266 61.1631L92.3456 60.9128L92.6182 57.3141L92.6844 56.4404L91.8534 56.7103Z" fill="#898D9E" stroke="#5C627F"/>
<path id="Vector_21" d="M86.8043 70.677L87.6198 61.1444L91.8347 59.7748L92.1073 56.176L87.9275 57.5339L89.3369 41H81.1904L79.4117 60.3007L74.8096 61.792L74.537 65.3907L79.0798 63.9151L77.8449 77.2859H103.508L104.191 70.677H86.8043Z" fill="#898D9E"/>
<path id="Vector_22" d="M87.8043 69.677L88.6198 60.1444L92.8347 58.7748L93.1073 55.176L88.9275 56.5339L90.3369 40H82.1904L80.4117 59.3007L75.8096 60.792L75.537 64.3907L80.0798 62.9151L78.8449 76.2859H104.508L105.191 69.677H87.8043Z" fill="#898D9E"/>
<path id="Vector_23" d="M89.2223 69.1123L90.0378 59.5797L94.2527 58.2101L94.5253 54.6113L90.3454 55.9692L91.7548 39.4353H83.6084L81.8297 58.736L77.2275 60.2273L76.9549 63.826L81.4978 62.3504L80.2629 75.7212H105.926L106.609 69.1123H89.2223Z" fill="#BABABA"/>
</g>
</g>
</g>
</g>
<g id="Group_49">
<g id="Group_50">
<g id="Group_51">
<path id="Vector_24" d="M119.606 61.0147C118.873 42.921 104.627 26.869 87.8051 25.1319C78.0032 24.1411 69.4501 28.2184 64.2178 35.3711C69.3584 30.9168 76.2224 28.6227 83.8672 29.3838C100.689 31.1208 114.935 47.1729 115.668 65.2665C115.957 72.7931 113.871 79.5126 110.046 84.6586C116.286 79.3418 120.024 70.8798 119.606 61.0147Z" fill="#5C6280"/>
</g>
</g>
</g>
<g id="Group_52">
<g id="Group_53">
<g id="Group_54">
<path id="Vector_25" d="M87.674 102.115C81.184 100.919 75.0239 98.1484 69.5631 94.2571L59.1006 100.478C64.5629 104.408 70.7213 107.14 77.2114 108.336L87.674 102.115Z" fill="#5C6280"/>
</g>
</g>
</g>
<g id="Group_55">
<g id="Group_56">
<g id="Group_57">
<path id="Vector_26" d="M60.045 85.444C55.0132 79.5052 51.1622 72.402 49.1486 64.7073L38.71 70.9136C40.8032 78.6444 44.5897 85.7246 49.6213 91.6631L60.045 85.444Z" fill="#5C6280"/>
</g>
</g>
</g>
<g id="Group_58">
<g id="Group_59">
<g id="Group_60">
<path id="Vector_27" d="M48.5231 41.6364L38.1386 47.854C37.2292 51.638 36.8763 55.6744 37.0379 59.8862C37.0648 60.5882 37.1308 61.2886 37.1968 61.9891L47.5827 55.8105C47.5168 55.1101 47.4883 54.3691 47.4614 53.6669C47.2998 49.4553 47.6527 45.4189 48.5231 41.6364Z" fill="#5C6280"/>
</g>
</g>
</g>
</g>
<g id="Group_61">
<g id="Group_62">
<path id="Vector_28" d="M61.6426 42.6326C61.8427 42.1981 62.46 42.2037 62.6586 42.6401C63.6829 44.891 64.5666 46.7214 64.7226 46.6577C64.8646 46.5999 64.226 44.6757 63.3976 42.3524C63.2368 41.9015 63.6742 41.467 64.1197 41.6374C68.6607 43.3746 72.8318 44.8847 72.9487 44.605C73.061 44.3361 69.0701 42.3734 64.6638 40.3137C64.2309 40.1113 64.2346 39.4914 64.6683 39.293C66.8927 38.2758 68.7091 37.3944 68.6452 37.2375C68.5872 37.0948 66.6738 37.7309 64.3638 38.5565C63.9154 38.7167 63.4817 38.2761 63.65 37.829C68.0475 26.1481 67.5013 26.0611 62.3311 37.2785C62.1309 37.7129 61.5138 37.7073 61.3152 37.271C60.2965 35.0331 59.4161 33.2048 59.2744 33.2626C59.1185 33.3262 59.7576 35.2568 60.5912 37.5634C60.7542 38.0146 60.3168 38.4512 59.8701 38.2805C55.3381 36.5488 51.149 35.0417 51.0367 35.3105C50.9198 35.5901 54.9252 37.5482 59.3249 39.6035C59.7575 39.8055 59.7544 40.4247 59.3215 40.6237C57.0911 41.6494 55.2704 42.5303 55.3285 42.673C55.3922 42.8296 57.3114 42.1933 59.6074 41.3553C60.0562 41.1915 60.4933 41.6324 60.3245 42.0812C55.977 53.641 56.4074 54.0013 61.6426 42.6326Z" fill="white"/>
</g>
</g>
</g>
</g>
<g id="Group_63" opacity="0.7">
<g id="Group_64">
<path id="Vector_29" d="M80.4344 81.1457C84.305 83.4466 87.7429 84.4746 86.9116 86.0486C86.089 87.6061 82.227 87.0556 78.3564 84.7546C74.4859 82.4537 72.6458 79.3154 73.4684 77.7579C74.2997 76.1838 76.5639 78.8447 80.4344 81.1457Z" fill="white"/>
</g>
</g>
<g id="Group_65" opacity="0.7">
<g id="Group_66">
<path id="Vector_30" d="M68.9796 73.2375C69.6771 72.6931 70.8555 73.0412 71.6134 73.9909C72.3712 74.9406 72.4274 76.1397 71.7299 76.684C71.0467 77.2172 69.8804 76.8846 69.1226 75.9348C68.3647 74.9851 68.2964 73.7706 68.9796 73.2375Z" fill="white"/>
</g>
</g>
</g>
</g>
<g id="_x35_9_3">
<g id="Group_67">
<g id="Group_68">
<g id="Group_69">
<g id="Group_70">
<g id="Group_71">
<g id="Group_72">
<g id="Group_73">
<path id="Vector_31" d="M58.399 100.359C53.5803 103.219 47.773 104.583 41.4971 103.923C40.6522 103.835 39.8364 103.716 38.9892 103.568C33.9957 102.648 29.2559 100.516 25.0542 97.5217C22.3665 95.6113 19.8751 93.333 17.7322 90.7406C13.8605 86.1712 10.8975 80.7058 9.34811 74.7852C8.72168 72.5554 8.35261 70.2755 8.14268 67.9397C8.09192 67.4007 8.07005 66.8306 8.04932 66.2903C7.92499 63.0498 8.19651 59.9441 8.86619 57.0337C10.7228 49.0291 15.402 42.5389 21.8075 38.7472L13.7874 43.5324C7.38182 47.3242 2.70248 53.8142 0.876069 61.8177C0.17635 64.7293 -0.0951693 67.835 0.0291653 71.0757C0.0498871 71.6158 0.100644 72.1547 0.151401 72.6937C0.331117 75.0306 0.749789 77.3285 1.31634 79.5606C2.92694 85.5089 5.84039 90.9565 9.71186 95.5258C11.8549 98.1181 14.3163 100.398 17.004 102.308C27.0993 109.572 40.1149 111.219 50.3488 105.146L58.399 100.359Z" fill="#4B5067"/>
</g>
</g>
</g>
<g id="Group_74">
<g id="Group_75">
<g id="Group_76">
<path id="Vector_32" d="M72.1273 72.8174C71.3687 53.8245 56.4179 36.9688 38.7086 35.154C21.0303 33.368 7.29181 47.3277 8.04942 66.2904C8.80818 85.2833 23.789 102.138 41.4972 103.923C59.1764 105.739 72.886 91.8102 72.1273 72.8174Z" fill="#898D9E"/>
</g>
</g>
<g id="Group_77">
<g id="Group_78">
<path id="Vector_33" d="M38.5375 36.7702C22.8297 34.8981 8.90612 47.4733 9.66225 66.2228C10.3776 84.411 24.7345 100.615 41.6538 102.323C58.8482 103.962 71.2155 90.4962 70.5062 72.8932C69.7905 54.7049 55.4336 38.5013 38.5375 36.7702ZM40.9381 96.3445C27.2276 94.9596 15.5942 81.8952 14.994 67.2382C14.4274 52.7257 24.6876 41.4755 39.2531 42.7252C52.9637 44.1332 64.5739 57.2205 65.1741 71.8777C65.7799 87.3109 54.2637 97.8261 40.9381 96.3445Z" fill="#6D738E"/>
</g>
</g>
</g>
<g id="Group_79">
<g id="Group_80">
<g id="Group_81">
<path id="Vector_34" d="M63.5614 71.9441C62.9972 58.0223 52.0357 45.6713 39.0928 44.3348C26.1208 43.0295 16.0551 53.242 16.6193 67.1639C17.1835 81.0857 28.145 93.4366 41.1168 94.742C54.0597 96.0785 64.1244 85.8359 63.5614 71.9441Z" fill="#4B5067"/>
<g id="Group 179_3">
<path id="Vector_35" d="M42.1486 68.5248L39.772 69.2969L40.7814 57.4556L40.8351 56.826H40.1602H33.892H33.524L33.4924 57.1687L32.1464 71.7742L28.8395 72.8458L28.6012 72.923L28.5822 73.1735L28.3725 75.9425L28.3063 76.8162L29.1372 76.5463L31.7867 75.6857L30.9183 85.0881L30.8599 85.7207H31.5393H51.2853H51.6495L51.6844 85.3826L52.21 80.2975L52.2758 79.6604H51.5894H38.8867L39.4391 73.2025L42.4467 72.2252L42.6847 72.1478L42.7037 71.8976L42.9134 69.1286L42.9796 68.2549L42.1486 68.5248Z" fill="#898D9E" stroke="#5C627F"/>
<path id="Vector_36" d="M38.3222 79.3786L38.9497 72.0439L42.1928 70.9901L42.4025 68.2211L39.1864 69.2659L40.2709 56.5442H34.0027L32.6341 71.3947L29.0931 72.5422L28.8834 75.3112L32.3788 74.1758L31.4286 84.4636H51.1746L51.7001 79.3786H38.3222Z" fill="#898D9E"/>
<path id="Vector_37" d="M39.0918 78.6091L39.7192 71.2744L42.9623 70.2205L43.1721 67.4515L39.9559 68.4963L41.0404 55.7747H34.7722L33.4037 70.6252L29.8626 71.7726L29.6529 74.5416L33.1483 73.4063L32.1981 83.6941H51.9441L52.4696 78.6091H39.0918Z" fill="#898D9E"/>
<path id="Vector_38" d="M40.1826 78.1746L40.8101 70.8399L44.0531 69.7861L44.2629 67.0171L41.0468 68.0619L42.1312 55.3402H35.8631L34.4945 70.1907L30.9534 71.3382L30.7437 74.1072L34.2391 72.9718L33.289 83.2597H53.0349L53.5605 78.1746H40.1826Z" fill="#BABABA"/>
</g>
</g>
</g>
</g>
<g id="Group_82">
<g id="Group_83">
<g id="Group_84">
<path id="Vector_39" d="M63.5579 71.9439C62.9937 58.022 52.0322 45.6711 39.0893 44.3346C31.5474 43.5722 24.9663 46.7094 20.9404 52.2129C24.8958 48.7856 30.1771 47.0205 36.0593 47.6061C49.0024 48.9426 59.9639 61.2935 60.5281 75.2154C60.7503 81.0066 59.1455 86.1767 56.2023 90.1362C61.0036 86.0453 63.8792 79.5344 63.5579 71.9439Z" fill="#5C6280"/>
</g>
</g>
</g>
<g id="Group_85">
<g id="Group_86">
<g id="Group_87">
<path id="Vector_40" d="M38.9901 103.568C33.9966 102.648 29.2568 100.516 25.0551 97.5216L17.0049 102.308C21.2077 105.332 25.9462 107.434 30.9399 108.354L38.9901 103.568Z" fill="#5C6280"/>
</g>
</g>
</g>
<g id="Group_88">
<g id="Group_89">
<g id="Group_90">
<path id="Vector_41" d="M17.7313 90.7406C13.8596 86.1712 10.8966 80.7057 9.34721 74.7852L1.31543 79.5605C2.92604 85.5088 5.83948 90.9565 9.71095 95.5258L17.7313 90.7406Z" fill="#5C6280"/>
</g>
</g>
</g>
<g id="Group_91">
<g id="Group_92">
<g id="Group_93">
<path id="Vector_42" d="M8.8662 57.0337L0.876069 61.8177C0.17635 64.7293 -0.0951693 67.835 0.0291654 71.0757C0.0498865 71.6158 0.100643 72.1547 0.1514 72.6937L8.14268 67.9397C8.09192 67.4008 8.07005 66.8306 8.04932 66.2904C7.92499 63.0498 8.19651 59.9441 8.8662 57.0337Z" fill="#5C6280"/>
</g>
</g>
</g>
</g>
<g id="Group_94">
<g id="Group_95">
<path id="Vector_43" d="M18.9613 57.8002C19.1153 57.4658 19.5902 57.4702 19.743 57.806C20.5311 59.5378 21.2111 60.9462 21.3311 60.8972C21.4403 60.8527 20.949 59.3722 20.3116 57.5846C20.1879 57.2376 20.5244 56.9033 20.8672 57.0345C24.3612 58.3711 27.5706 59.533 27.6605 59.3178C27.747 59.1109 24.6762 57.6007 21.2859 56.0159C20.9528 55.8602 20.9556 55.3832 21.2893 55.2306C23.0008 54.4479 24.3984 53.7697 24.3493 53.649C24.3047 53.5392 22.8325 54.0286 21.055 54.6639C20.7101 54.7872 20.3763 54.4482 20.5058 54.1041C23.8894 45.1165 23.4691 45.0496 19.491 53.6805C19.337 54.0148 18.8622 54.0105 18.7094 53.6748C17.9256 51.9529 17.2481 50.5461 17.1391 50.5906C17.0192 50.6395 17.5109 52.125 18.1523 53.8997C18.2777 54.2469 17.9411 54.5828 17.5975 54.4515C14.1104 53.1191 10.8872 51.9595 10.8007 52.1663C10.7108 52.3815 13.7927 53.8881 17.178 55.4695C17.5108 55.6249 17.5084 56.1013 17.1754 56.2545C15.4592 57.0436 14.0583 57.7214 14.103 57.8312C14.152 57.9518 15.6287 57.4622 17.3953 56.8174C17.7407 56.6913 18.077 57.0306 17.9471 57.3759C14.602 66.2704 14.9331 66.5476 18.9613 57.8002Z" fill="white"/>
</g>
</g>
</g>
</g>
<g id="Group_96" opacity="0.7">
<g id="Group_97">
<path id="Vector_44" d="M33.4195 87.4332C36.3976 89.2037 39.0429 89.9946 38.4032 91.2057C37.7703 92.4041 34.7988 91.9805 31.8206 90.2101C28.8425 88.4397 27.4267 86.025 28.0596 84.8266C28.6993 83.6154 30.4414 85.6629 33.4195 87.4332Z" fill="white"/>
</g>
</g>
<g id="Group_98" opacity="0.7">
<g id="Group_99">
<path id="Vector_45" d="M24.6052 81.3484C25.1419 80.9295 26.0486 81.1974 26.6317 81.9281C27.2148 82.6588 27.258 83.5815 26.7213 84.0003C26.1957 84.4105 25.2983 84.1546 24.7152 83.4238C24.1321 82.6931 24.0796 81.7586 24.6052 81.3484Z" fill="white"/>
</g>
</g>
</g>
</g>
<ellipse id="Ellipse 122" cx="77.5" cy="123.5" rx="73.5" ry="7.5" fill="#1A1D29"/>
</g>
</svg>
