<svg width="153" height="131" viewBox="0 0 153 131" fill="none" xmlns="http://www.w3.org/2000/svg">
<ellipse cx="77.5" cy="123.5" rx="73.5" ry="7.5" fill="#1A1D29"/>
<path d="M143.195 43.8666C139.961 45.7857 136.063 46.7015 131.851 46.258C131.284 46.1992 130.737 46.1194 130.168 46.0202C126.817 45.4025 123.635 43.9715 120.815 41.962C119.011 40.6798 117.339 39.1507 115.901 37.4108C113.303 34.344 111.314 30.6758 110.274 26.7022C109.854 25.2057 109.606 23.6754 109.465 22.1078C109.431 21.746 109.416 21.3634 109.402 21.0008C109.319 18.8259 109.501 16.7414 109.951 14.7881C111.197 9.41573 114.337 5.05976 118.636 2.51495L113.254 5.72656C108.954 8.27149 105.814 12.6273 104.588 17.9989C104.118 19.9531 103.936 22.0375 104.02 24.2125C104.033 24.575 104.068 24.9367 104.102 25.2984C104.222 26.8669 104.503 28.4091 104.883 29.9072C105.964 33.8995 107.92 37.5557 110.518 40.6224C111.957 42.3623 113.609 43.8923 115.412 45.1744C122.188 50.0497 130.923 51.1548 137.792 47.0789L143.195 43.8666Z" fill="#F3A250"/>
<path d="M152.407 25.3815C151.898 12.6342 141.864 1.32133 129.978 0.103266C118.113 -1.09541 108.892 8.27377 109.401 21.0007C109.91 33.748 119.965 45.0601 131.85 46.258C143.715 47.4768 152.917 38.1286 152.407 25.3815Z" fill="#FFD475"/>
<path d="M129.865 1.18812C119.323 -0.068386 109.978 8.37161 110.486 20.9555C110.966 33.1627 120.601 44.0379 131.957 45.1842C143.497 46.2846 151.798 37.2468 151.322 25.4324C150.841 13.2252 141.205 2.35 129.865 1.18812ZM131.477 41.1719C122.275 40.2425 114.467 31.4742 114.064 21.637C113.684 11.8968 120.57 4.3461 130.346 5.1849C139.548 6.12987 147.34 14.9135 147.743 24.7508C148.149 35.109 140.42 42.1664 131.477 41.1719Z" fill="#FFB961"/>
<path d="M146.658 24.7952C146.279 15.4515 138.922 7.16204 130.235 6.26502C121.529 5.38894 114.773 12.2432 115.152 21.5869C115.531 30.9307 122.887 39.2201 131.594 40.0962C140.28 40.9932 147.035 34.1188 146.658 24.7952Z" fill="#F3A250"/>
<path d="M132.204 22.348L130.885 22.7765L131.538 15.1184L131.591 14.4887H130.916H126.709H126.341L126.31 14.8314L125.414 24.5539L123.271 25.2481L123.033 25.3254L123.014 25.5759L122.873 27.4344L122.807 28.308L123.638 28.0382L125.138 27.5509L124.582 33.5705L124.523 34.2031H125.203H138.456H138.82L138.855 33.865L139.208 30.452L139.274 29.8149H138.587H130.284L130.63 25.7687L132.571 25.1379L132.809 25.0605L132.828 24.8103L132.969 22.9518L133.035 22.0781L132.204 22.348Z" fill="#CF9DFF" stroke="#DD8536"/>
<path d="M129.719 29.7861L130.14 24.8632L132.317 24.1558L132.458 22.2973L130.299 22.9986L131.027 14.46H126.82L125.901 24.4274L123.525 25.1976L123.384 27.0561L125.73 26.294L125.092 33.1991H138.345L138.698 29.7861H129.719Z" fill="#CF9DFF"/>
<path d="M130.236 29.2697L130.657 24.3468L132.834 23.6394L132.974 21.7809L130.816 22.4822L131.544 13.9435H127.337L126.418 23.911L124.041 24.6812L123.9 26.5397L126.247 25.7776L125.609 32.6827H138.862L139.215 29.2697H130.236Z" fill="#CF9DFF"/>
<path d="M130.968 28.978L131.389 24.0551L133.566 23.3477L133.707 21.4892L131.548 22.1905L132.276 13.6519H128.069L127.15 23.6193L124.774 24.3895L124.633 26.248L126.979 25.4859L126.341 32.391H139.594L139.947 28.978H130.968Z" fill="#A140FD"/>
<path d="M146.658 24.7952C146.279 15.4514 138.922 7.16199 130.235 6.26498C125.174 5.75331 120.757 7.85886 118.055 11.5526C120.709 9.25232 124.254 8.06766 128.202 8.46068C136.889 9.35769 144.246 17.6471 144.624 26.9909C144.773 30.8777 143.696 34.3477 141.721 37.0052C144.943 34.2595 146.873 29.8897 146.658 24.7952Z" fill="#DD8536"/>
<path d="M130.17 46.0202C126.818 45.4025 123.637 43.9715 120.817 41.962L115.414 45.1744C118.235 47.2041 121.415 48.6149 124.767 49.2326L130.17 46.0202Z" fill="#DD8536"/>
<path d="M115.902 37.4109C113.304 34.3441 111.315 30.6759 110.275 26.7023L104.885 29.9073C105.966 33.8996 107.921 37.5558 110.519 40.6225L115.902 37.4109Z" fill="#DD8536"/>
<path d="M109.951 14.7881L104.588 17.9989C104.118 19.953 103.936 22.0375 104.02 24.2125C104.033 24.575 104.068 24.9367 104.102 25.2984L109.465 22.1078C109.431 21.746 109.416 21.3634 109.402 21.0008C109.319 18.8259 109.501 16.7414 109.951 14.7881Z" fill="#DD8536"/>
<path d="M116.725 15.3026C116.829 15.0781 117.147 15.0811 117.25 15.3064C117.779 16.4688 118.235 17.4141 118.316 17.3812C118.389 17.3513 118.059 16.3576 117.632 15.1579C117.549 14.925 117.774 14.7006 118.005 14.7886C120.35 15.6857 122.504 16.4656 122.564 16.3211C122.622 16.1823 120.561 15.1687 118.286 14.105C118.062 14.0005 118.064 13.6804 118.288 13.578C119.437 13.0526 120.375 12.5975 120.342 12.5165C120.312 12.4428 119.324 12.7713 118.131 13.1976C117.899 13.2803 117.675 13.0528 117.762 12.8219C120.033 6.78977 119.751 6.74486 117.081 12.5376C116.978 12.762 116.659 12.7591 116.556 12.5337C116.03 11.3781 115.576 10.4339 115.502 10.4638C115.422 10.4966 115.752 11.4936 116.182 12.6847C116.267 12.9178 116.041 13.1432 115.81 13.0551C113.47 12.1608 111.306 11.3825 111.248 11.5213C111.188 11.6657 113.256 12.6769 115.528 13.7383C115.752 13.8426 115.75 14.1624 115.527 14.2651C114.375 14.7948 113.435 15.2497 113.465 15.3234C113.498 15.4043 114.489 15.0757 115.674 14.6429C115.906 14.5583 116.132 14.786 116.045 15.0178C113.8 20.9874 114.022 21.1735 116.725 15.3026Z" fill="white"/>
<g opacity="0.7">
<path d="M126.43 35.191C128.429 36.3793 130.205 36.9101 129.775 37.723C129.35 38.5273 127.356 38.243 125.357 37.0547C123.359 35.8665 122.408 34.2458 122.833 33.4415C123.262 32.6286 124.432 34.0028 126.43 35.191Z" fill="white"/>
</g>
<g opacity="0.7">
<path d="M120.514 31.1072C120.874 30.8261 121.483 31.0058 121.874 31.4963C122.266 31.9867 122.295 32.606 121.934 32.8871C121.582 33.1624 120.979 32.9906 120.588 32.5002C120.197 32.0097 120.161 31.3826 120.514 31.1072Z" fill="white"/>
</g>
<path d="M112.896 95.9417C106.634 99.6578 99.0863 101.431 90.93 100.573C89.832 100.459 88.7718 100.304 87.6708 100.112C81.1811 98.9159 75.0212 96.145 69.5607 92.2538C66.0677 89.771 62.8299 86.8101 60.0449 83.4411C55.0133 77.5026 51.1625 70.3997 49.1489 62.7052C48.3348 59.8074 47.8551 56.8443 47.5823 53.8087C47.5163 53.1083 47.4879 52.3674 47.461 51.6652C47.2994 47.4538 47.6523 43.4176 48.5226 39.6352C50.9355 29.2323 57.0166 20.7976 65.3413 15.8699L54.9182 22.0887C46.5935 27.0166 40.5122 35.4512 38.1385 45.8525C37.2292 49.6364 36.8763 53.6726 37.0379 57.8843C37.0648 58.5862 37.1308 59.2866 37.1968 59.987C37.4303 63.0242 37.9744 66.0105 38.7107 68.9113C40.8039 76.6418 44.5902 83.7217 49.6216 89.6599C52.4068 93.0289 55.6056 95.9916 59.0985 98.4742C72.2185 107.914 89.1337 110.054 102.434 102.162L112.896 95.9417Z" fill="#F3A250"/>
<path d="M130.737 60.1479C129.751 35.4645 110.321 13.5587 87.3057 11.2001C64.3308 8.879 46.4761 27.0212 47.4607 51.6653C48.4468 76.3486 67.916 98.253 90.9297 100.573C113.906 102.933 131.723 84.831 130.737 60.1479Z" fill="#FFD475"/>
<path d="M87.0843 13.3007C66.6703 10.8676 48.5751 27.2106 49.5578 51.5775C50.4875 75.2152 69.1459 96.2735 91.1343 98.4933C113.48 100.624 129.553 83.1236 128.631 60.2465C127.701 36.6088 109.043 15.5505 87.0843 13.3007ZM90.2042 90.724C72.3858 88.9243 57.267 71.9456 56.487 52.8972C55.7506 34.0366 69.0849 19.4157 88.0144 21.0399C105.833 22.8697 120.922 39.8781 121.702 58.9268C122.489 78.9839 107.522 92.6496 90.2042 90.724Z" fill="#FFB961"/>
<path d="M119.602 59.0128C118.869 40.9199 104.623 24.8685 87.8026 23.1315C70.9441 21.4351 57.8625 34.7074 58.5958 52.8003C59.329 70.8933 73.5747 86.9447 90.433 88.6411C107.254 90.3781 120.334 77.0667 119.602 59.0128Z" fill="#F3A250"/>
<path d="M91.8534 54.7103L88.5131 55.7955L89.8474 40.142L89.9011 39.5124H89.2262H81.0797H80.7117L80.6801 39.8551L78.924 58.9107L74.556 60.3262L74.3176 60.4034L74.2987 60.6539L74.0261 64.2527L73.9599 65.1263L74.7908 64.8564L78.4877 63.6556L77.3346 76.1409L77.2762 76.7735H77.9556H103.619H103.983L104.018 76.4354L104.701 69.8265L104.767 69.1894H104.08H87.3687L88.1092 60.5336L92.0886 59.2405L92.3266 59.1631L92.3456 58.9128L92.6182 55.3141L92.6844 54.4404L91.8534 54.7103Z" fill="#CF9DFF" stroke="#DD8536"/>
<path d="M86.8043 68.677L87.6198 59.1444L91.8347 57.7748L92.1073 54.176L87.9275 55.5339L89.3369 39H81.1904L79.4117 58.3007L74.8096 59.792L74.537 63.3907L79.0798 61.9151L77.8449 75.2859H103.508L104.191 68.677H86.8043Z" fill="#CF9DFF"/>
<path d="M87.8043 67.677L88.6198 58.1444L92.8347 56.7748L93.1073 53.176L88.9275 54.5339L90.3369 38H82.1904L80.4117 57.3007L75.8096 58.792L75.537 62.3907L80.0798 60.9151L78.8449 74.2859H104.508L105.191 67.677H87.8043Z" fill="#CF9DFF"/>
<path d="M89.2223 67.1123L90.0378 57.5797L94.2527 56.21L94.5253 52.6113L90.3454 53.9691L91.7548 37.4352H83.6084L81.8297 56.7359L77.2275 58.2272L76.9549 61.826L81.4978 60.3504L80.2629 73.7211H105.926L106.609 67.1123H89.2223Z" fill="#A140FD"/>
<path d="M119.603 59.0128C118.87 40.9199 104.624 24.8685 87.8032 23.1315C78.0017 22.1407 69.4489 26.2178 64.2168 33.3703C69.3572 28.9161 76.2209 26.6221 83.8655 27.3832C100.686 29.1201 114.932 45.1715 115.665 63.2645C115.954 70.7908 113.869 77.51 110.043 82.6558C116.283 77.3392 120.02 68.8776 119.603 59.0128Z" fill="#DD8536"/>
<path d="M87.6709 100.112C81.1812 98.9159 75.0213 96.145 69.5608 92.2538L59.0986 98.4742C64.5607 102.404 70.7189 105.136 77.2087 106.332L87.6709 100.112Z" fill="#DD8536"/>
<path d="M60.0452 83.4411C55.0135 77.5026 51.1627 70.3997 49.1491 62.7053L38.7109 68.9114C40.8041 76.6419 44.5904 83.7217 49.6218 89.66L60.0452 83.4411Z" fill="#DD8536"/>
<path d="M48.5226 39.6352L38.1385 45.8525C37.2292 49.6365 36.8763 53.6727 37.0379 57.8843C37.0648 58.5863 37.1308 59.2867 37.1968 59.9871L47.5823 53.8088C47.5163 53.1084 47.4879 52.3674 47.461 51.6653C47.2994 47.4538 47.6523 43.4176 48.5226 39.6352Z" fill="#DD8536"/>
<path d="M61.6412 40.6315C61.8413 40.1969 62.4585 40.2026 62.6571 40.639C63.6814 42.8897 64.5651 44.7201 64.7211 44.6564C64.863 44.5985 64.2245 42.6744 63.3961 40.3513C63.2354 39.9004 63.6727 39.4659 64.1182 39.6363C68.659 41.3734 72.8299 42.8835 72.9468 42.6038C73.0592 42.3349 69.0684 40.3723 64.6623 38.3126C64.2294 38.1102 64.2331 37.4903 64.6667 37.292C66.8911 36.2748 68.7074 35.3934 68.6435 35.2366C68.5855 35.0939 66.6722 35.7299 64.3623 36.5555C63.9139 36.7157 63.4802 36.2751 63.6485 35.828C68.0458 24.1476 67.4996 24.0606 62.3297 35.2775C62.1294 35.7119 61.5124 35.7063 61.3138 35.27C60.2952 33.0322 59.4147 31.204 59.273 31.2618C59.1172 31.3254 59.7562 33.2559 60.5898 35.5624C60.7529 36.0136 60.3154 36.4502 59.8688 36.2795C55.337 34.5479 51.148 33.0408 51.0357 33.3096C50.9189 33.5892 54.924 35.5473 59.3236 37.6024C59.7561 37.8045 59.753 38.4236 59.3202 38.6226C57.0899 39.6482 55.2693 40.5291 55.3274 40.6718C55.3911 40.8285 57.3101 40.1922 59.606 39.3542C60.0549 39.1904 60.492 39.6313 60.3232 40.0801C55.9758 51.6394 56.4062 51.9997 61.6412 40.6315Z" fill="white"/>
<g opacity="0.7">
<path d="M80.4341 79.1428C84.3045 81.4437 87.7423 82.4716 86.911 84.0456C86.0885 85.603 82.2267 85.0525 78.3562 82.7516C74.4859 80.4508 72.6458 77.3126 73.4684 75.7552C74.2997 74.1811 76.5637 76.842 80.4341 79.1428Z" fill="white"/>
</g>
<g opacity="0.7">
<path d="M68.9786 71.235C69.6761 70.6907 70.8545 71.0387 71.6123 71.9884C72.3701 72.9381 72.4262 74.1371 71.7288 74.6815C71.0456 75.2146 69.8794 74.882 69.1216 73.9323C68.3638 72.9826 68.2955 71.7682 68.9786 71.235Z" fill="white"/>
</g>
<path d="M58.3966 98.2248C53.5782 101.084 47.7711 102.449 41.4954 101.788C40.6506 101.7 39.8348 101.581 38.9876 101.433C33.9943 100.513 29.2547 98.3812 25.0532 95.3872C22.3656 93.4769 19.8743 91.1986 17.7315 88.6064C13.86 84.0371 10.8971 78.5719 9.34774 72.6516C8.72133 70.4219 8.35228 68.1421 8.14235 65.8064C8.0916 65.2675 8.06972 64.6973 8.049 64.1571C7.92467 60.9167 8.19618 57.8111 8.86584 54.9008C10.7224 46.8965 15.4014 40.4066 21.8066 36.6151L13.7868 41.4C7.38153 45.1917 2.70237 51.6815 0.876034 59.6846C0.176342 62.5961 -0.0951655 65.7016 0.0291642 68.9422C0.0498851 69.4823 0.10064 70.0212 0.151395 70.5602C0.331103 72.897 0.749759 75.1948 1.31628 77.4268C2.92683 83.3748 5.84016 88.8223 9.71147 93.3914C11.8544 95.9836 14.3157 98.2632 17.0033 100.173C27.0982 107.437 40.1133 109.084 50.3468 103.011L58.3966 98.2248Z" fill="#F3A250"/>
<path d="M72.1237 70.6839C71.3651 51.6917 56.415 34.8367 38.7064 33.0219C21.0288 31.236 7.29087 45.1952 8.04844 64.1571C8.80717 83.1492 23.7874 100.003 41.4948 101.788C59.1734 103.604 72.8824 89.6758 72.1237 70.6839Z" fill="#FFD475"/>
<path d="M38.5363 34.6382C22.8291 32.7662 8.90615 45.3409 9.66225 64.0896C10.3776 82.2771 24.7339 98.48 41.6525 100.188C58.8462 101.827 71.213 88.3621 70.5037 70.7598C69.7881 52.5722 55.4317 36.3693 38.5363 34.6382ZM40.9368 94.2101C27.2268 92.8253 15.5939 79.7614 14.9938 65.105C14.4272 50.5931 24.687 39.3433 39.252 40.593C52.9619 42.0009 64.5717 55.0877 65.1719 69.7443C65.7776 85.1769 54.2619 95.6917 40.9368 94.2101Z" fill="#FFB961"/>
<path d="M63.5566 69.8106C62.9924 55.8893 52.0313 43.5388 39.089 42.2024C26.1175 40.8971 16.0522 51.1092 16.6164 65.0305C17.1805 78.9517 28.1416 91.3022 41.1129 92.6075C54.0552 93.9439 64.1196 83.7018 63.5566 69.8106Z" fill="#F3A250"/>
<path d="M42.1467 66.3927L39.7701 67.1647L40.7795 55.3235L40.8331 54.6939H40.1582H33.8901H33.522L33.4904 55.0366L32.1444 69.6421L28.8376 70.7136L28.5992 70.7909L28.5803 71.0414L28.3705 73.8104L28.3043 74.684L29.1353 74.4141L31.7847 73.5535L30.9163 82.9559L30.8579 83.5885H31.5373H51.2833H51.6475L51.6825 83.2504L52.208 78.1654L52.2738 77.5283H51.5875H38.8847L39.4372 71.0703L42.4447 70.093L42.6827 70.0157L42.7017 69.7654L42.9114 66.9964L42.9776 66.1227L42.1467 66.3927Z" fill="#CF9DFF" stroke="#DD8536"/>
<path d="M38.3203 77.2465L38.9478 69.9118L42.1908 68.8579L42.4006 66.0889L39.1845 67.1337L40.2689 54.412H34.0008L32.6322 69.2626L29.0911 70.41L28.8814 73.179L32.3768 72.0436L31.4266 82.3315H51.1726L51.6981 77.2465H38.3203Z" fill="#CF9DFF"/>
<path d="M39.0898 76.477L39.7173 69.1424L42.9604 68.0885L43.1701 65.3195L39.954 66.3643L41.0384 53.6426H34.7703L33.4017 68.4932L29.8607 69.6406L29.6509 72.4096L33.1463 71.2742L32.1962 81.5621H51.9421L52.4677 76.477H39.0898Z" fill="#CF9DFF"/>
<path d="M40.1806 76.0425L40.8081 68.7078L44.0512 67.654L44.2609 64.885L41.0448 65.9298L42.1293 53.2081H35.8611L34.4925 68.0586L30.9515 69.206L30.7418 71.975L34.2372 70.8397L33.287 81.1275H53.033L53.5585 76.0425H40.1806Z" fill="#A140FD"/>
<path d="M63.5571 69.8105C62.9929 55.8893 52.0319 43.5388 39.0895 42.2024C31.5479 41.44 24.9671 44.5771 20.9414 50.0804C24.8966 46.6532 30.1777 44.8882 36.0597 45.4737C49.0023 46.8102 59.9633 59.1606 60.5275 73.0819C60.7497 78.8729 59.1449 84.0428 56.2019 88.0021C61.0029 83.9114 63.8784 77.4008 63.5571 69.8105Z" fill="#DD8536"/>
<path d="M38.9883 101.433C33.9949 100.513 29.2553 98.3811 25.0538 95.3871L17.0039 100.173C21.2066 103.197 25.9449 105.299 30.9384 106.22L38.9883 101.433Z" fill="#DD8536"/>
<path d="M17.7316 88.6064C13.8601 84.0372 10.8972 78.572 9.34786 72.6516L1.31641 77.4268C2.92695 83.3749 5.84028 88.8223 9.71159 93.3914L17.7316 88.6064Z" fill="#DD8536"/>
<path d="M8.86584 54.9008L0.876034 59.6846C0.176343 62.5961 -0.0951655 65.7017 0.0291642 68.9423C0.0498844 69.4823 0.100639 70.0213 0.151394 70.5602L8.14235 65.8064C8.0916 65.2675 8.06972 64.6974 8.049 64.1571C7.92467 60.9167 8.19618 57.8111 8.86584 54.9008Z" fill="#DD8536"/>
<path d="M18.959 55.6673C19.113 55.333 19.5879 55.3373 19.7407 55.6731C20.5288 57.4049 21.2087 58.8132 21.3288 58.7642C21.438 58.7197 20.9467 57.2392 20.3093 55.4517C20.1856 55.1048 20.5221 54.7705 20.8649 54.9016C24.3587 56.2382 27.5679 57.4001 27.6579 57.1849C27.7443 56.978 24.6737 55.4679 21.2835 53.8831C20.9504 53.7274 20.9533 53.2504 21.2869 53.0978C22.9984 52.3151 24.3959 51.637 24.3468 51.5163C24.3022 51.4065 22.83 51.8959 21.0527 52.5311C20.7077 52.6544 20.374 52.3154 20.5035 51.9714C23.8869 42.9841 23.4666 42.9172 19.4887 51.5478C19.3347 51.8821 18.8599 51.8778 18.7071 51.5421C17.9233 49.8202 17.2459 48.4135 17.1369 48.458C17.017 48.5069 17.5086 49.9924 18.15 51.767C18.2755 52.1142 17.9389 52.4501 17.5953 52.3188C14.1083 50.9865 10.8852 49.8268 10.7988 50.0337C10.7089 50.2488 13.7906 51.7554 17.1757 53.3367C17.5086 53.4922 17.5062 53.9685 17.1732 54.1217C15.457 54.9108 14.0562 55.5886 14.1009 55.6984C14.15 55.8189 15.6265 55.3293 17.3931 54.6845C17.7384 54.5585 18.0747 54.8978 17.9449 55.2431C14.5999 64.1372 14.931 64.4144 18.959 55.6673Z" fill="white"/>
<g opacity="0.7">
<path d="M33.4192 85.2991C36.3973 87.0695 39.0424 87.8604 38.4028 89.0715C37.7699 90.2698 34.7985 89.8463 31.8205 88.0759C28.8425 86.3056 27.4267 83.8909 28.0596 82.6926C28.6992 81.4815 30.4413 83.5288 33.4192 85.2991Z" fill="white"/>
</g>
<g opacity="0.7">
<path d="M24.6052 79.2147C25.1418 78.7958 26.0485 79.0636 26.6316 79.7943C27.2147 80.5251 27.2579 81.4476 26.7212 81.8665C26.1956 82.2767 25.2983 82.0207 24.7152 81.29C24.1321 80.5593 24.0796 79.6249 24.6052 79.2147Z" fill="white"/>
</g>
</svg>
