<svg width="151" height="131" viewBox="0 0 151 131" fill="none" xmlns="http://www.w3.org/2000/svg">
<path d="M139.197 43.8682C135.962 45.7873 132.065 46.7032 127.852 46.2597C127.285 46.2009 126.738 46.121 126.169 46.0218C122.817 45.4042 119.636 43.9731 116.816 41.9635C115.012 40.6813 113.34 39.1521 111.902 37.4122C109.303 34.3452 107.314 30.6769 106.274 26.7031C105.854 25.2065 105.606 23.6762 105.465 22.1085C105.431 21.7468 105.417 21.3641 105.403 21.0015C105.319 18.8265 105.501 16.742 105.951 14.7885C107.197 9.41595 110.338 5.05981 114.637 2.51489L109.254 5.72663C104.955 8.27166 101.814 12.6277 100.588 17.9995C100.118 19.9537 99.9361 22.0382 100.02 24.2133C100.033 24.5758 100.068 24.9376 100.102 25.2993C100.222 26.8678 100.503 28.4101 100.884 29.9083C101.965 33.9007 103.92 37.5571 106.518 40.6239C107.957 42.3638 109.609 43.8939 111.413 45.176C118.189 50.0515 126.925 51.1567 133.793 47.0807L139.197 43.8682Z" fill="#4B5067"/>
<path d="M148.412 25.3825C147.903 12.6348 137.868 1.32145 125.982 0.103331C114.116 -1.0954 104.895 8.27416 105.404 21.0017C105.913 33.7494 115.968 45.062 127.854 46.2599C139.72 47.4788 148.921 38.1302 148.412 25.3825Z" fill="#898D9E"/>
<path d="M125.866 1.18813C115.323 -0.0684316 105.978 8.3719 106.486 20.9563C106.966 33.164 116.602 44.0396 127.958 45.186C139.498 46.2864 147.799 37.2483 147.323 25.4334C146.843 13.2256 137.207 2.35005 125.866 1.18813ZM127.477 41.1736C118.275 40.2441 110.467 31.4754 110.064 21.6378C109.684 11.8973 116.57 4.34623 126.347 5.18506C135.549 6.13007 143.342 14.9141 143.744 24.7518C144.151 35.1103 136.421 42.168 127.477 41.1736Z" fill="#6D738E"/>
<path d="M142.659 24.7961C142.28 15.452 134.923 7.1622 126.236 6.26515C117.529 5.38903 110.773 12.2435 111.152 21.5877C111.531 30.9318 118.888 39.2216 127.594 40.0977C136.281 40.9948 143.037 34.1201 142.659 24.7961Z" fill="#4B5067"/>
<path d="M142.659 24.7962C142.28 15.4521 134.923 7.16228 126.236 6.26523C121.174 5.75353 116.757 7.85917 114.055 11.5531C116.709 9.25269 120.254 8.06798 124.202 8.46101C132.89 9.35806 140.247 17.6478 140.625 26.992C140.775 30.879 139.697 34.3491 137.722 37.0066C140.945 34.2609 142.875 29.8909 142.659 24.7962Z" fill="#5C6280"/>
<path d="M126.17 46.0221C122.819 45.4044 119.637 43.9733 116.817 41.9637L111.414 45.1763C114.235 47.206 117.415 48.6169 120.767 49.2346L126.17 46.0221Z" fill="#5C6280"/>
<path d="M111.903 37.4123C109.304 34.3454 107.316 30.6771 106.276 26.7032L100.885 29.9084C101.966 33.9008 103.921 37.5572 106.52 40.6241L111.903 37.4123Z" fill="#5C6280"/>
<path d="M105.951 14.7886L100.588 17.9995C100.118 19.9537 99.9361 22.0382 100.02 24.2134C100.033 24.5759 100.068 24.9376 100.102 25.2993L105.465 22.1085C105.431 21.7468 105.417 21.3642 105.403 21.0015C105.319 18.8265 105.501 16.742 105.951 14.7886Z" fill="#5C6280"/>
<path d="M112.727 15.3031C112.83 15.0787 113.149 15.0817 113.251 15.307C113.78 16.4694 114.237 17.4147 114.317 17.3818C114.39 17.352 114.061 16.3583 113.633 15.1584C113.55 14.9256 113.776 14.7012 114.006 14.7892C116.351 15.6863 118.505 16.4662 118.565 16.3218C118.623 16.1829 116.562 15.1693 114.287 14.1056C114.063 14.001 114.065 13.6809 114.289 13.5785C115.438 13.0531 116.376 12.598 116.343 12.517C116.313 12.4433 115.325 12.7717 114.132 13.1981C113.9 13.2808 113.676 13.0533 113.763 12.8224C116.034 6.79002 115.752 6.7451 113.082 12.5381C112.979 12.7625 112.66 12.7596 112.557 12.5342C112.031 11.3785 111.577 10.4343 111.504 10.4642C111.423 10.497 111.753 11.494 112.184 12.6852C112.268 12.9183 112.042 13.1437 111.811 13.0556C109.471 12.1613 107.307 11.3829 107.249 11.5218C107.189 11.6662 109.257 12.6774 111.53 13.7388C111.753 13.8432 111.751 14.1629 111.528 14.2657C110.376 14.7954 109.436 15.2503 109.466 15.324C109.499 15.4049 110.49 15.0763 111.676 14.6435C111.907 14.5589 112.133 14.7866 112.046 15.0184C109.801 20.9882 110.023 21.1743 112.727 15.3031Z" fill="white"/>
<g opacity="0.7">
<path d="M122.431 35.1926C124.43 36.3809 126.206 36.9117 125.777 37.7246C125.352 38.529 123.357 38.2446 121.358 37.0563C119.36 35.8681 118.409 34.2473 118.834 33.443C119.263 32.6301 120.433 34.0043 122.431 35.1926Z" fill="white"/>
</g>
<g opacity="0.7">
<path d="M116.514 31.1087C116.874 30.8276 117.483 31.0073 117.874 31.4978C118.266 31.9882 118.295 32.6075 117.934 32.8886C117.582 33.164 116.979 32.9922 116.588 32.5017C116.197 32.0112 116.161 31.384 116.514 31.1087Z" fill="white"/>
</g>
<path d="M130.968 27.1287C131.079 28.0503 130.926 28.8402 130.509 29.4985C130.107 30.1568 129.508 30.5883 128.712 30.7931L128.857 32H126.947L126.803 30.7931C125.972 30.5883 125.277 30.1568 124.717 29.4985C124.158 28.8402 123.823 28.0503 123.712 27.1287L123.647 26.5801L125.782 26.3387L125.85 26.9092C125.917 27.4651 126.096 27.904 126.39 28.2258C126.683 28.5476 127.056 28.7086 127.508 28.7086C127.947 28.7086 128.277 28.5769 128.501 28.3136C128.738 28.0503 128.829 27.6919 128.775 27.2384C128.717 26.7556 128.484 26.2875 128.076 25.834C127.669 25.3806 127.075 24.8539 126.296 24.2541C125.362 23.5373 124.612 22.8279 124.047 22.1257C123.482 21.4235 123.147 20.6336 123.042 19.7558C122.928 18.805 123.045 18.0077 123.392 17.3641C123.738 16.7058 124.288 16.2816 125.043 16.0914L124.899 14.8845H126.809L126.953 16.0914C127.754 16.2816 128.412 16.6985 128.927 17.3421C129.443 17.9858 129.759 18.7977 129.876 19.7778L129.924 20.1728L127.789 20.4141L127.736 19.9753C127.666 19.3901 127.506 18.944 127.258 18.6368C127.009 18.3296 126.686 18.176 126.29 18.176C125.894 18.176 125.605 18.3003 125.422 18.549C125.24 18.7977 125.178 19.1634 125.236 19.6461C125.293 20.1289 125.517 20.5824 125.908 21.0066C126.312 21.4308 126.914 21.9721 127.714 22.6304C128.668 23.3911 129.42 24.1152 129.969 24.8027C130.53 25.4756 130.863 26.251 130.968 27.1287Z" fill="#5C627F"/>
<path d="M131.393 26.6864C131.503 27.608 131.35 28.398 130.934 29.0562C130.532 29.7145 129.933 30.1461 129.137 30.3509L129.281 31.5577H127.372L127.227 30.3509C126.397 30.1461 125.701 29.7145 125.142 29.0562C124.582 28.398 124.247 27.608 124.137 26.6864L124.071 26.1378L126.206 25.8965L126.274 26.467C126.341 27.0229 126.521 27.4617 126.814 27.7836C127.107 28.1054 127.48 28.2663 127.933 28.2663C128.371 28.2663 128.702 28.1346 128.925 27.8713C129.162 27.608 129.254 27.2496 129.199 26.7961C129.142 26.3134 128.909 25.8453 128.501 25.3918C128.093 24.9383 127.499 24.4117 126.721 23.8119C125.786 23.0951 125.036 22.3856 124.471 21.6834C123.906 20.9813 123.571 20.1913 123.466 19.3136C123.353 18.3627 123.469 17.5655 123.817 16.9218C124.162 16.2635 124.713 15.8393 125.468 15.6491L125.323 14.4423H127.233L127.377 15.6491C128.178 15.8393 128.836 16.2562 129.352 16.8999C129.867 17.5435 130.183 18.3554 130.301 19.3355L130.348 19.7305L128.213 19.9719L128.16 19.533C128.09 18.9479 127.931 18.5017 127.682 18.1945C127.433 17.8873 127.11 17.7337 126.714 17.7337C126.318 17.7337 126.029 17.858 125.847 18.1067C125.664 18.3554 125.602 18.7211 125.66 19.2039C125.718 19.6866 125.942 20.1401 126.332 20.5643C126.736 20.9886 127.338 21.5298 128.139 22.1881C129.092 22.9488 129.844 23.6729 130.393 24.3605C130.954 25.0334 131.288 25.8087 131.393 26.6864Z" fill="#898D9E"/>
<path d="M131.965 26.2442C132.076 27.1658 131.923 27.9557 131.506 28.614C131.104 29.2723 130.505 29.7038 129.709 29.9086L129.854 31.1155H127.944L127.8 29.9086C126.969 29.7038 126.274 29.2723 125.714 28.614C125.155 27.9557 124.82 27.1658 124.709 26.2442L124.644 25.6956L126.779 25.4542L126.847 26.0247C126.914 26.5806 127.093 27.0195 127.387 27.3413C127.68 27.6631 128.053 27.824 128.505 27.824C128.944 27.824 129.274 27.6924 129.498 27.4291C129.735 27.1658 129.826 26.8074 129.772 26.3539C129.714 25.8711 129.481 25.403 129.073 24.9495C128.666 24.496 128.072 23.9694 127.293 23.3696C126.359 22.6528 125.609 21.9433 125.044 21.2412C124.479 20.539 124.144 19.749 124.039 18.8713C123.925 17.9205 124.042 17.1232 124.389 16.4795C124.735 15.8213 125.285 15.397 126.04 15.2069L125.896 14H127.806L127.95 15.2069C128.751 15.397 129.409 15.8139 129.924 16.4576C130.44 17.1013 130.756 17.9132 130.873 18.8933L130.921 19.2882L128.786 19.5296L128.733 19.0908C128.663 18.5056 128.504 18.0594 128.255 17.7522C128.006 17.445 127.683 17.2914 127.287 17.2914C126.891 17.2914 126.602 17.4158 126.419 17.6645C126.237 17.9132 126.175 18.2789 126.233 18.7616C126.29 19.2444 126.514 19.6978 126.905 20.1221C127.309 20.5463 127.911 21.0876 128.711 21.7459C129.665 22.5065 130.417 23.2307 130.966 23.9182C131.527 24.5911 131.86 25.3664 131.965 26.2442Z" fill="#BABABA"/>
<path d="M112.899 97.9452C106.636 101.661 99.0888 103.435 90.9322 102.576C89.8341 102.462 88.7739 102.308 87.6728 102.116C81.1829 100.919 75.0228 98.1484 69.562 94.2571C66.0689 91.7742 62.8309 88.8132 60.0459 85.444C55.014 79.5053 51.1631 72.4021 49.1494 64.7073C48.3352 61.8094 47.8556 58.8462 47.5827 55.8105C47.5168 55.11 47.4883 54.3691 47.4614 53.6669C47.2998 49.4553 47.6527 45.4189 48.5231 41.6363C50.9361 31.2331 57.0174 22.798 65.3424 17.8701L54.9189 24.0892C46.5939 29.0173 40.5123 37.4522 38.1386 47.8539C37.2292 51.638 36.8763 55.6744 37.0379 59.8862C37.0648 60.5882 37.1308 61.2886 37.1968 61.989C37.4303 65.0263 37.9745 68.0128 38.7108 70.9137C40.804 78.6445 44.5905 85.7246 49.6221 91.6631C52.4074 95.0322 55.6064 97.9951 59.0994 100.478C72.2199 109.918 89.1358 112.058 102.436 104.166L112.899 97.9452Z" fill="#4B5067"/>
<path d="M130.741 62.1499C129.755 37.4655 110.324 15.5588 87.3081 13.2001C64.3323 10.8789 46.4769 29.0218 47.4616 53.6669C48.4477 78.3513 67.9177 100.256 90.9323 102.576C113.909 104.936 131.727 86.834 130.741 62.1499Z" fill="#898D9E"/>
<path d="M87.0854 15.3007C66.6705 12.8676 48.5746 29.2112 49.5573 53.5791C50.4871 77.2177 69.1462 98.2769 91.1355 100.497C113.482 102.628 129.556 85.1264 128.634 62.2484C127.704 38.6098 109.045 17.5506 87.0854 15.3007ZM90.2053 92.7272C72.3863 90.9274 57.2668 73.948 56.4868 54.8989C55.7504 36.0375 69.0852 21.416 88.0155 23.0403C105.835 24.8701 120.924 41.8792 121.704 60.9286C122.491 80.9866 107.524 94.6528 90.2053 92.7272Z" fill="#6D738E"/>
<path d="M119.607 61.0147C118.874 42.921 104.627 26.869 87.8059 25.1319C70.9467 23.4355 57.8647 36.7083 58.598 54.802C59.3312 72.8956 73.5775 88.9477 90.4364 90.6442C107.258 92.3812 120.339 79.0693 119.607 61.0147Z" fill="#4B5067"/>
<path d="M119.606 61.0148C118.873 42.9211 104.626 26.869 87.805 25.132C78.0031 24.1412 69.4499 28.2185 64.2176 35.3712C69.3582 30.9168 76.2222 28.6228 83.8671 29.3838C100.689 31.1209 114.935 47.1729 115.668 65.2666C115.957 72.7932 113.871 79.5127 110.046 84.6586C116.286 79.3419 120.023 70.8799 119.606 61.0148Z" fill="#5C6280"/>
<path d="M87.6737 102.116C81.1838 100.919 75.0237 98.1484 69.5629 94.2571L59.1004 100.478C64.5627 104.408 70.7211 107.14 77.2112 108.336L87.6737 102.116Z" fill="#5C6280"/>
<path d="M60.0455 85.444C55.0136 79.5053 51.1627 72.4021 49.149 64.7073L38.7104 70.9137C40.8036 78.6445 44.5901 85.7246 49.6217 91.6631L60.0455 85.444Z" fill="#5C6280"/>
<path d="M48.5231 41.6363L38.1386 47.8539C37.2292 51.638 36.8763 55.6744 37.0379 59.8862C37.0648 60.5882 37.1308 61.2886 37.1968 61.989L47.5827 55.8105C47.5168 55.11 47.4883 54.3691 47.4614 53.6669C47.2998 49.4553 47.6527 45.4189 48.5231 41.6363Z" fill="#5C6280"/>
<path d="M61.6424 42.6326C61.8426 42.1981 62.4598 42.2038 62.6584 42.6402C63.6827 44.891 64.5664 46.7215 64.7225 46.6578C64.8644 46.5999 64.2258 44.6757 63.3974 42.3525C63.2367 41.9015 63.674 41.467 64.1195 41.6375C68.6606 43.3747 72.8316 44.8847 72.9485 44.605C73.0609 44.3361 69.07 42.3734 64.6637 40.3137C64.2307 40.1113 64.2344 39.4914 64.6681 39.2931C66.8925 38.2758 68.7089 37.3944 68.6451 37.2376C68.587 37.0949 66.6737 37.7309 64.3636 38.5565C63.9153 38.7167 63.4815 38.2762 63.6498 37.829C68.0473 26.1481 67.5011 26.0611 62.3309 37.2785C62.1307 37.7129 61.5137 37.7073 61.3151 37.271C60.2964 35.0331 59.4159 33.2048 59.2742 33.2627C59.1183 33.3262 59.7574 35.2568 60.591 37.5634C60.7541 38.0146 60.3166 38.4512 59.87 38.2805C55.338 36.5489 51.1488 35.0417 51.0365 35.3105C50.9197 35.5902 54.925 37.5483 59.3247 39.6035C59.7573 39.8056 59.7542 40.4247 59.3214 40.6238C57.0909 41.6494 55.2702 42.5303 55.3283 42.673C55.3921 42.8297 57.3112 42.1934 59.6072 41.3553C60.056 41.1915 60.4932 41.6325 60.3244 42.0813C55.9768 53.6411 56.4072 54.0013 61.6424 42.6326Z" fill="white"/>
<g opacity="0.7">
<path d="M80.4339 81.1456C84.3045 83.4466 87.7425 84.4745 86.9111 86.0486C86.0885 87.6061 82.2266 87.0556 78.356 84.7546C74.4855 82.4537 72.6453 79.3153 73.4679 77.7578C74.2993 76.1837 76.5634 78.8447 80.4339 81.1456Z" fill="white"/>
</g>
<g opacity="0.7">
<path d="M68.9795 73.2374C69.677 72.6931 70.8555 73.0411 71.6133 73.9909C72.3712 74.9406 72.4273 76.1397 71.7298 76.684C71.0466 77.2172 69.8803 76.8845 69.1225 75.9348C68.3647 74.9851 68.2964 73.7706 68.9795 73.2374Z" fill="white"/>
</g>
<path d="M103.164 59.892L103.164 59.892C104.326 61.1293 104.922 62.8436 105.036 64.9487L105.036 64.9508C105.09 66.0383 104.98 67.0117 104.698 67.8636L104.697 67.8642C104.417 68.7069 104.003 69.4155 103.447 69.9777C102.896 70.5353 102.186 70.992 101.329 71.3535C100.481 71.7117 99.5765 71.9735 98.6176 72.141M103.164 59.892L98.4597 71.6537M103.164 59.892C102.267 58.9377 101.118 58.2368 99.7426 57.7727C100.369 57.2612 100.824 56.639 101.095 55.9032C101.482 54.8537 101.479 53.6141 101.128 52.2107C100.876 51.1777 100.445 50.2618 99.8219 49.4756L99.8218 49.4755C99.2009 48.6925 98.4277 48.0652 97.5095 47.5947C96.622 47.1391 95.6821 46.7939 94.6935 46.5567L94.6935 46.5567C93.8395 46.3518 92.8936 46.1975 91.858 46.0922L91.0942 41L91.02 40.5055H90.52H87.0622H86.5622L86.6363 41L87.3706 45.8957M103.164 59.892L87.3706 45.8957M98.6176 72.141L98.4597 71.6537M98.6176 72.141C98.6176 72.141 98.6176 72.141 98.6176 72.141L98.4597 71.6537M98.6176 72.141C97.7904 72.2855 96.8547 72.3884 95.8123 72.4517M98.4597 71.6537C97.5337 71.8155 96.4611 71.9249 95.2421 71.9834M95.8123 72.4517L95.7421 71.9834H95.2421M95.8123 72.4517L96.5831 77.5907L96.6573 78.0852H96.1573H92.6993H92.1993L92.1252 77.5907L91.3715 72.5655M95.8123 72.4517C95.6573 72.4611 95.4999 72.4696 95.3402 72.4773L95.2421 71.9834M95.2421 71.9834L87.3706 45.8957M87.3706 45.8957C86.908 45.9001 86.3294 45.91 85.6357 45.9254L84.897 41L84.8228 40.5055H84.3228H80.8645H80.3645L80.4387 41L81.1973 46.0581C80.7573 46.0654 80.1993 46.0692 79.5219 46.0692C79.5215 46.0692 79.5212 46.0692 79.5208 46.0692L74.7593 46.047L74.2566 46.0447L74.3311 46.5415L74.8721 50.1479L74.9462 50.6424H75.4462H77.9386C78.4375 50.6424 78.7867 50.7517 79.031 50.9161C79.2596 51.0699 79.455 51.3113 79.5947 51.6928L80.463 57.4821L80.5339 57.9544L80.5372 57.9766L80.608 58.4489L81.8568 66.7749C81.8483 67.0491 81.7755 67.1993 81.6896 67.2844C81.6011 67.3718 81.4453 67.4433 81.1548 67.4433H78.6625H78.2408L78.2313 67.8543L78.1387 71.8786L78.1254 72.4564H78.7182H83.2094C83.4904 72.4564 83.8996 72.4601 84.4394 72.4667M84.4394 72.4667C84.4393 72.4667 84.4392 72.4667 84.439 72.4667L84.3718 71.9723L84.4398 72.4667C84.4396 72.4667 84.4395 72.4667 84.4394 72.4667ZM84.4394 72.4667C84.7139 72.4705 84.954 72.4733 85.1597 72.4752M85.1597 72.4752L85.9269 77.5907L86.0011 78.0852H86.5011H89.96H90.46L90.3858 77.5907L89.6303 72.5533M85.1597 72.4752C85.3589 72.477 85.5257 72.4779 85.6601 72.4779L85.5859 71.9834H85.0859L85.1597 72.4752ZM89.6303 72.5533C90.1049 72.5602 90.6855 72.5642 91.3715 72.5655M89.6303 72.5533L89.5561 72.0588C90.1392 72.0674 90.8862 72.0715 91.7974 72.0715M89.6303 72.5533C89.4474 72.5506 89.2802 72.5475 89.1288 72.5439L89.8116 77.0962L89.8858 77.5907L91.7974 72.0715M91.3715 72.5655L91.2974 72.0715H91.7974M91.3715 72.5655C91.5323 72.5658 91.699 72.566 91.8715 72.566L92.551 77.0962L92.6252 77.5907H93.1252H95.5831L91.7974 72.0715M78.644 71.962L78.6554 71.4675H78.5699L78.644 71.962ZM78.644 71.962H79.1513L79.1494 72.0454L78.644 71.962ZM87.3121 56.652L86.4461 50.8782C86.5598 50.8766 86.691 50.8747 86.8397 50.8724L86.8398 50.8724C87.3259 50.8649 87.7303 50.8576 88.0529 50.8502M87.3121 56.652L89.2781 50.4109L89.3115 50.9038C88.7657 50.8604 88.3487 50.8435 88.0529 50.8502M87.3121 56.652C87.3967 56.6534 87.4913 56.6549 87.5958 56.6566C88.0357 56.6638 88.375 56.6637 88.6175 56.6567C88.8665 56.6496 89.2352 56.6348 89.7259 56.613C90.2038 56.5917 90.5857 56.5527 90.8776 56.4993L90.8778 56.4993C91.1873 56.4427 91.552 56.3641 91.9723 56.2628L91.9725 56.2627C92.3666 56.1679 92.6596 56.0478 92.8664 55.9133L92.8665 55.9132C93.1027 55.7597 93.3304 55.578 93.5481 55.3675L93.9292 55.7436L87.3121 56.652ZM88.0529 50.8502C88.0528 50.8502 88.0528 50.8502 88.0527 50.8502L87.9672 50.3558L88.0529 50.8502ZM96.0565 66.4658L96.057 66.4655C96.3563 66.297 96.5729 66.1111 96.7207 65.9152C96.8739 65.7107 96.9919 65.4653 97.0715 65.1735C97.1449 64.9035 97.1597 64.5961 97.1068 64.2424L96.0565 66.4658ZM96.0565 66.4658C95.737 66.6462 95.426 66.7895 95.1248 66.8977L95.1244 66.8978C94.8272 67.0049 94.4523 67.1014 93.9951 67.1868M96.0565 66.4658L96.355 66.9033C96.0171 67.0942 95.6843 67.2479 95.3579 67.3652C95.031 67.4829 94.6307 67.585 94.1579 67.6732M94.1579 67.6732L93.9951 67.1868M94.1579 67.6732C93.6839 67.7613 93.2669 67.8232 92.9052 67.8601L94.1579 67.6732ZM93.9951 67.1868C93.5302 67.2732 93.1263 67.3329 92.7809 67.3682M93.9951 67.1868L92.7809 67.3682M92.7809 67.3682C92.4322 67.4036 92.0091 67.4323 91.5095 67.4542C91.006 67.4757 90.6191 67.4865 90.3456 67.4865C90.0653 67.4865 89.7085 67.4825 89.2743 67.4754L89.2739 67.4754C89.1478 67.4734 89.0346 67.4716 88.9342 67.4702L87.9657 61.0124C88.1244 61.0089 88.3171 61.0043 88.543 60.9985C89.1297 60.9838 89.6067 60.9771 89.9754 60.9771C90.3332 60.9771 90.8401 60.9979 91.5011 61.0419L91.5015 61.0419C92.1534 61.0847 92.6941 61.1484 93.128 61.2309C93.5621 61.3137 94.0484 61.4423 94.5894 61.6197L94.5895 61.6197C95.1087 61.7899 95.5136 61.9893 95.819 62.2076C96.1248 62.4267 96.4035 62.7107 96.6538 63.0701L96.6542 63.0707C96.8838 63.3995 97.0382 63.7857 97.1067 64.2423L92.7809 67.3682Z" fill="#898D9E" stroke="#5C627F"/>
<path d="M102.816 59.1963C101.783 58.0971 100.359 57.342 98.5461 56.9317C100.61 55.8174 101.306 53.9263 100.637 51.2579C100.402 50.2903 100.003 49.4517 99.4396 48.7408C98.8759 48.0299 98.1733 47.4583 97.3295 47.0259C96.4862 46.593 95.5902 46.2634 94.6434 46.0362C93.6963 45.809 92.6234 45.644 91.4253 45.5415L90.5942 40H87.1363L87.9444 45.3875C87.3456 45.3875 86.4347 45.4021 85.2116 45.4315L84.397 40H80.9387L81.7698 45.5415C81.2778 45.5562 80.553 45.5637 79.595 45.5637L74.8311 45.5415L75.3721 49.1479H77.8645C79.0022 49.1479 79.7432 49.6464 80.0873 50.6432L81.0339 56.9544C81.1838 56.9544 81.3045 56.9619 81.3966 56.9766H81.0372L82.363 65.8162C82.3555 66.5636 81.9775 66.9377 81.2289 66.9377H78.7367L78.644 70.962H83.1352C83.4197 70.962 83.8317 70.9657 84.3718 70.9723C84.9118 70.9797 85.3164 70.9834 85.5859 70.9834L86.4269 76.5907H89.8858L89.0547 71.0493C89.6855 71.0643 90.5997 71.0715 91.7974 71.0715L92.6252 76.5907H96.0831L95.2421 70.9834C96.4611 70.9249 97.5337 70.8155 98.4597 70.6537C99.386 70.4918 100.258 70.2394 101.074 69.8946C101.891 69.5503 102.552 69.1213 103.059 68.6081C103.566 68.0955 103.951 67.4428 104.214 66.6511C104.477 65.8593 104.583 64.943 104.531 63.902C104.421 61.8648 103.849 60.296 102.816 59.1963ZM85.8725 49.3891C85.9773 49.3891 86.2724 49.3854 86.7578 49.378C87.2435 49.3705 87.6464 49.3632 87.9672 49.3558C88.288 49.3486 88.7249 49.3669 89.2781 49.4109C89.8311 49.4549 90.3002 49.5137 90.6853 49.5868C91.0705 49.66 91.5007 49.781 91.9747 49.9496C92.4494 50.118 92.8393 50.3234 93.1447 50.5652C93.4506 50.8071 93.7251 51.1151 93.968 51.4889C94.2114 51.8627 94.3693 52.2915 94.4418 52.7752C94.5034 53.1857 94.4922 53.5596 94.4083 53.897C94.3245 54.2341 94.1642 54.5164 93.9292 54.7436C93.694 54.9709 93.4462 55.169 93.187 55.3374C92.9281 55.5059 92.5851 55.6416 92.159 55.7441C91.733 55.8468 91.3596 55.9274 91.0393 55.9859C90.7187 56.0446 90.3131 56.0851 89.8223 56.1069C89.3314 56.1288 88.9593 56.1438 88.706 56.151C88.4525 56.1582 88.1046 56.1582 87.6617 56.151C87.2187 56.1438 86.9603 56.1399 86.8852 56.1399L85.8727 49.389L85.8725 49.3891ZM97.5614 64.364C97.4694 64.7014 97.3303 64.9947 97.1433 65.2441C96.9559 65.4929 96.6931 65.713 96.355 65.9033C96.0171 66.0942 95.6843 66.2479 95.3579 66.3652C95.031 66.4829 94.6307 66.585 94.1579 66.6732C93.6839 66.7613 93.2669 66.8232 92.9052 66.8601C92.5442 66.8968 92.1108 66.926 91.605 66.9482C91.0994 66.9698 90.7041 66.9809 90.4198 66.9809C90.1353 66.9809 89.7754 66.9769 89.3401 66.9698C88.9047 66.9629 88.6275 66.9592 88.5076 66.9592L87.3928 59.5263C87.5124 59.5263 87.8669 59.5192 88.4561 59.5042C89.0454 59.4894 89.5269 59.4826 89.9012 59.4826C90.2755 59.4826 90.7954 59.5042 91.461 59.5485C92.1258 59.5922 92.6896 59.6579 93.1523 59.7458C93.6145 59.834 94.1247 59.9694 94.6841 60.1528C95.2428 60.336 95.707 60.5595 96.076 60.8234C96.4451 61.0877 96.7723 61.4244 97.0584 61.835C97.345 62.2453 97.5276 62.7145 97.6068 63.2424C97.6683 63.6533 97.6533 64.0266 97.5614 64.364Z" fill="#898D9E"/>
<path d="M102.816 58.1963C101.783 57.0971 100.359 56.342 98.5461 55.9317C100.61 54.8174 101.306 52.9263 100.637 50.2579C100.402 49.2903 100.003 48.4517 99.4396 47.7408C98.8759 47.0299 98.1733 46.4583 97.3295 46.0259C96.4862 45.593 95.5902 45.2634 94.6434 45.0362C93.6963 44.809 92.6234 44.644 91.4253 44.5415L90.5942 39H87.1363L87.9444 44.3875C87.3456 44.3875 86.4347 44.4021 85.2116 44.4315L84.397 39H80.9387L81.7698 44.5415C81.2778 44.5562 80.553 44.5637 79.595 44.5637L74.8311 44.5415L75.3721 48.1479H77.8645C79.0022 48.1479 79.7432 48.6464 80.0873 49.6432L81.0339 55.9544C81.1838 55.9544 81.3045 55.9619 81.3966 55.9766H81.0372L82.363 64.8162C82.3555 65.5636 81.9775 65.9377 81.2289 65.9377H78.7367L78.644 69.962H83.1352C83.4197 69.962 83.8317 69.9657 84.3718 69.9723C84.9118 69.9797 85.3164 69.9834 85.5859 69.9834L86.4269 75.5907H89.8858L89.0547 70.0493C89.6855 70.0643 90.5997 70.0715 91.7974 70.0715L92.6252 75.5907H96.0831L95.2421 69.9834C96.4611 69.9249 97.5337 69.8155 98.4597 69.6537C99.386 69.4918 100.258 69.2394 101.074 68.8946C101.891 68.5503 102.552 68.1213 103.059 67.6081C103.566 67.0955 103.951 66.4428 104.214 65.6511C104.477 64.8593 104.583 63.943 104.531 62.902C104.421 60.8648 103.849 59.296 102.816 58.1963ZM85.8725 48.3891C85.9773 48.3891 86.2724 48.3854 86.7578 48.378C87.2435 48.3705 87.6464 48.3632 87.9672 48.3558C88.288 48.3486 88.7249 48.3669 89.2781 48.4109C89.8311 48.4549 90.3002 48.5137 90.6853 48.5868C91.0705 48.66 91.5007 48.781 91.9747 48.9496C92.4494 49.118 92.8393 49.3234 93.1447 49.5652C93.4506 49.8071 93.7251 50.1151 93.968 50.4889C94.2114 50.8627 94.3693 51.2915 94.4418 51.7752C94.5034 52.1857 94.4922 52.5596 94.4083 52.897C94.3245 53.2341 94.1642 53.5164 93.9292 53.7436C93.694 53.9709 93.4462 54.169 93.187 54.3374C92.9281 54.5059 92.5851 54.6416 92.159 54.7441C91.733 54.8468 91.3596 54.9274 91.0393 54.9859C90.7187 55.0446 90.3131 55.0851 89.8223 55.1069C89.3314 55.1288 88.9593 55.1438 88.706 55.151C88.4525 55.1582 88.1046 55.1582 87.6617 55.151C87.2187 55.1438 86.9603 55.1399 86.8852 55.1399L85.8727 48.389L85.8725 48.3891ZM97.5614 63.364C97.4694 63.7014 97.3303 63.9947 97.1433 64.2441C96.9559 64.4929 96.6931 64.713 96.355 64.9033C96.0171 65.0942 95.6843 65.2479 95.3579 65.3652C95.031 65.4829 94.6307 65.585 94.1579 65.6732C93.6839 65.7613 93.2669 65.8232 92.9052 65.8601C92.5442 65.8968 92.1108 65.926 91.605 65.9482C91.0994 65.9698 90.7041 65.9809 90.4198 65.9809C90.1353 65.9809 89.7754 65.9769 89.3401 65.9698C88.9047 65.9629 88.6275 65.9592 88.5076 65.9592L87.3928 58.5263C87.5124 58.5263 87.8669 58.5192 88.4561 58.5042C89.0454 58.4894 89.5269 58.4826 89.9012 58.4826C90.2755 58.4826 90.7954 58.5042 91.461 58.5485C92.1258 58.5922 92.6896 58.6579 93.1523 58.7458C93.6145 58.834 94.1247 58.9694 94.6841 59.1528C95.2428 59.336 95.707 59.5595 96.076 59.8234C96.4451 60.0877 96.7723 60.4244 97.0584 60.835C97.345 61.2453 97.5276 61.7145 97.6068 62.2424C97.6683 62.6533 97.6533 63.0266 97.5614 63.364Z" fill="#898D9E"/>
<path d="M103.816 58.1963C102.783 57.0971 101.359 56.342 99.5461 55.9317C101.61 54.8174 102.306 52.9263 101.637 50.2579C101.402 49.2903 101.003 48.4517 100.44 47.7408C99.8759 47.0299 99.1733 46.4583 98.3295 46.0259C97.4862 45.593 96.5902 45.2634 95.6434 45.0362C94.6963 44.809 93.6234 44.644 92.4253 44.5415L91.5942 39H88.1363L88.9444 44.3875C88.3456 44.3875 87.4347 44.4021 86.2116 44.4315L85.397 39H81.9387L82.7698 44.5415C82.2778 44.5562 81.553 44.5637 80.595 44.5637L75.8311 44.5415L76.3721 48.1479H78.8645C80.0022 48.1479 80.7432 48.6464 81.0873 49.6432L82.0339 55.9544C82.1838 55.9544 82.3045 55.9619 82.3966 55.9766H82.0372L83.363 64.8162C83.3555 65.5636 82.9775 65.9377 82.2289 65.9377H79.7367L79.644 69.962H84.1352C84.4197 69.962 84.8317 69.9657 85.3718 69.9723C85.9118 69.9797 86.3164 69.9834 86.5859 69.9834L87.4269 75.5907H90.8858L90.0547 70.0493C90.6855 70.0643 91.5997 70.0715 92.7974 70.0715L93.6252 75.5907H97.0831L96.2421 69.9834C97.4611 69.9249 98.5337 69.8155 99.4597 69.6537C100.386 69.4918 101.258 69.2394 102.074 68.8946C102.891 68.5503 103.552 68.1213 104.059 67.6081C104.566 67.0955 104.951 66.4428 105.214 65.6511C105.477 64.8593 105.583 63.943 105.531 62.902C105.421 60.8648 104.849 59.296 103.816 58.1963ZM86.8725 48.3891C86.9773 48.3891 87.2724 48.3854 87.7578 48.378C88.2435 48.3705 88.6464 48.3632 88.9672 48.3558C89.288 48.3486 89.7249 48.3669 90.2781 48.4109C90.8311 48.4549 91.3002 48.5137 91.6853 48.5868C92.0705 48.66 92.5007 48.781 92.9747 48.9496C93.4494 49.118 93.8393 49.3234 94.1447 49.5652C94.4506 49.8071 94.7251 50.1151 94.968 50.4889C95.2114 50.8627 95.3693 51.2915 95.4418 51.7752C95.5034 52.1857 95.4922 52.5596 95.4083 52.897C95.3245 53.2341 95.1642 53.5164 94.9292 53.7436C94.694 53.9709 94.4462 54.169 94.187 54.3374C93.9281 54.5059 93.5851 54.6416 93.159 54.7441C92.733 54.8468 92.3596 54.9274 92.0393 54.9859C91.7187 55.0446 91.3131 55.0851 90.8223 55.1069C90.3314 55.1288 89.9593 55.1438 89.706 55.151C89.4525 55.1582 89.1046 55.1582 88.6617 55.151C88.2187 55.1438 87.9603 55.1399 87.8852 55.1399L86.8727 48.389L86.8725 48.3891ZM98.5614 63.364C98.4694 63.7014 98.3303 63.9947 98.1433 64.2441C97.9559 64.4929 97.6931 64.713 97.355 64.9033C97.0171 65.0942 96.6843 65.2479 96.3579 65.3652C96.031 65.4829 95.6307 65.585 95.1579 65.6732C94.6839 65.7613 94.2669 65.8232 93.9052 65.8601C93.5442 65.8968 93.1108 65.926 92.605 65.9482C92.0994 65.9698 91.7041 65.9809 91.4198 65.9809C91.1353 65.9809 90.7754 65.9769 90.3401 65.9698C89.9047 65.9629 89.6275 65.9592 89.5076 65.9592L88.3928 58.5263C88.5124 58.5263 88.8669 58.5192 89.4561 58.5042C90.0454 58.4894 90.5269 58.4826 90.9012 58.4826C91.2755 58.4826 91.7954 58.5042 92.461 58.5485C93.1258 58.5922 93.6896 58.6579 94.1523 58.7458C94.6145 58.834 95.1247 58.9694 95.6841 59.1528C96.2428 59.336 96.707 59.5595 97.076 59.8234C97.4451 60.0877 97.7723 60.4244 98.0584 60.835C98.345 61.2453 98.5276 61.7145 98.6068 62.2424C98.6683 62.6533 98.6533 63.0266 98.5614 63.364Z" fill="#BABABA"/>
<path d="M112.899 97.9452C106.636 101.661 99.0888 103.435 90.9322 102.576C89.8341 102.462 88.7739 102.308 87.6728 102.116C81.1829 100.919 75.0228 98.1484 69.562 94.2571C66.0689 91.7742 62.8309 88.8132 60.0459 85.444C55.014 79.5053 51.1631 72.4021 49.1494 64.7073C48.3352 61.8094 47.8556 58.8462 47.5827 55.8105C47.5168 55.11 47.4883 54.3691 47.4614 53.6669C47.2998 49.4553 47.6527 45.4189 48.5231 41.6363C50.9361 31.2331 57.0174 22.798 65.3424 17.8701L54.9189 24.0892C46.5939 29.0173 40.5123 37.4522 38.1386 47.8539C37.2292 51.638 36.8763 55.6744 37.0379 59.8862C37.0648 60.5882 37.1308 61.2886 37.1968 61.989C37.4303 65.0263 37.9745 68.0128 38.7108 70.9137C40.804 78.6445 44.5905 85.7246 49.6221 91.6631C52.4074 95.0322 55.6064 97.9951 59.0994 100.478C72.2199 109.918 89.1358 112.058 102.436 104.166L112.899 97.9452Z" fill="#4B5067"/>
<path d="M130.741 62.1499C129.755 37.4655 110.324 15.5588 87.3081 13.2001C64.3323 10.8789 46.4769 29.0218 47.4616 53.6669C48.4477 78.3513 67.9177 100.256 90.9323 102.576C113.909 104.936 131.727 86.834 130.741 62.1499Z" fill="#898D9E"/>
<path d="M87.0854 15.3007C66.6705 12.8676 48.5746 29.2112 49.5573 53.5791C50.4871 77.2177 69.1462 98.2769 91.1355 100.497C113.482 102.628 129.556 85.1264 128.634 62.2484C127.704 38.6098 109.045 17.5506 87.0854 15.3007ZM90.2053 92.7272C72.3863 90.9274 57.2668 73.948 56.4868 54.8989C55.7504 36.0375 69.0852 21.416 88.0155 23.0403C105.835 24.8701 120.924 41.8792 121.704 60.9286C122.491 80.9866 107.524 94.6528 90.2053 92.7272Z" fill="#6D738E"/>
<path d="M119.607 61.0147C118.874 42.921 104.627 26.869 87.8059 25.1319C70.9467 23.4355 57.8647 36.7083 58.598 54.802C59.3312 72.8956 73.5775 88.9477 90.4364 90.6442C107.258 92.3812 120.339 79.0693 119.607 61.0147Z" fill="#4B5067"/>
<path d="M119.606 61.0148C118.873 42.9211 104.626 26.869 87.805 25.132C78.0031 24.1412 69.4499 28.2185 64.2176 35.3712C69.3582 30.9168 76.2222 28.6228 83.8671 29.3838C100.689 31.1209 114.935 47.1729 115.668 65.2666C115.957 72.7932 113.871 79.5127 110.046 84.6586C116.286 79.3419 120.023 70.8799 119.606 61.0148Z" fill="#5C6280"/>
<path d="M87.6737 102.116C81.1838 100.919 75.0237 98.1484 69.5629 94.2571L59.1004 100.478C64.5627 104.408 70.7211 107.14 77.2112 108.336L87.6737 102.116Z" fill="#5C6280"/>
<path d="M60.0455 85.444C55.0136 79.5053 51.1627 72.4021 49.149 64.7073L38.7104 70.9137C40.8036 78.6445 44.5901 85.7246 49.6217 91.6631L60.0455 85.444Z" fill="#5C6280"/>
<path d="M48.5231 41.6363L38.1386 47.8539C37.2292 51.638 36.8763 55.6744 37.0379 59.8862C37.0648 60.5882 37.1308 61.2886 37.1968 61.989L47.5827 55.8105C47.5168 55.11 47.4883 54.3691 47.4614 53.6669C47.2998 49.4553 47.6527 45.4189 48.5231 41.6363Z" fill="#5C6280"/>
<path d="M61.6424 42.6326C61.8426 42.1981 62.4598 42.2038 62.6584 42.6402C63.6827 44.891 64.5664 46.7215 64.7225 46.6578C64.8644 46.5999 64.2258 44.6757 63.3974 42.3525C63.2367 41.9015 63.674 41.467 64.1195 41.6375C68.6606 43.3747 72.8316 44.8847 72.9485 44.605C73.0609 44.3361 69.07 42.3734 64.6637 40.3137C64.2307 40.1113 64.2344 39.4914 64.6681 39.2931C66.8925 38.2758 68.7089 37.3944 68.6451 37.2376C68.587 37.0949 66.6737 37.7309 64.3636 38.5565C63.9153 38.7167 63.4815 38.2762 63.6498 37.829C68.0473 26.1481 67.5011 26.0611 62.3309 37.2785C62.1307 37.7129 61.5137 37.7073 61.3151 37.271C60.2964 35.0331 59.4159 33.2048 59.2742 33.2627C59.1183 33.3262 59.7574 35.2568 60.591 37.5634C60.7541 38.0146 60.3166 38.4512 59.87 38.2805C55.338 36.5489 51.1488 35.0417 51.0365 35.3105C50.9197 35.5902 54.925 37.5483 59.3247 39.6035C59.7573 39.8056 59.7542 40.4247 59.3214 40.6238C57.0909 41.6494 55.2702 42.5303 55.3283 42.673C55.3921 42.8297 57.3112 42.1934 59.6072 41.3553C60.056 41.1915 60.4932 41.6325 60.3244 42.0813C55.9768 53.6411 56.4072 54.0013 61.6424 42.6326Z" fill="white"/>
<g opacity="0.7">
<path d="M80.4339 81.1456C84.3045 83.4466 87.7425 84.4745 86.9111 86.0486C86.0885 87.6061 82.2266 87.0556 78.356 84.7546C74.4855 82.4537 72.6453 79.3153 73.4679 77.7578C74.2993 76.1837 76.5634 78.8447 80.4339 81.1456Z" fill="white"/>
</g>
<g opacity="0.7">
<path d="M68.9795 73.2374C69.677 72.6931 70.8555 73.0411 71.6133 73.9909C72.3712 74.9406 72.4273 76.1397 71.7298 76.684C71.0466 77.2172 69.8803 76.8845 69.1225 75.9348C68.3647 74.9851 68.2964 73.7706 68.9795 73.2374Z" fill="white"/>
</g>
<path d="M98.5531 67.6855C98.813 69.7693 98.4525 71.5555 97.4715 73.0439C96.5238 74.5324 95.1122 75.5082 93.2366 75.9713L93.577 78.7001H89.077L88.7366 75.9713C86.7789 75.5082 85.1405 74.5324 83.8215 73.0439C82.5025 71.5555 81.713 69.7693 81.4531 67.6855L81.2984 66.4451L86.3303 65.8993L86.4912 67.1893C86.648 68.4462 87.0718 69.4385 87.7625 70.1662C88.4533 70.8939 89.332 71.2578 90.3987 71.2578C91.432 71.2578 92.2116 70.9601 92.7373 70.3647C93.2964 69.7693 93.512 68.9589 93.3841 67.9335C93.2479 66.842 92.6992 65.7835 91.738 64.7581C90.7767 63.7328 89.3782 62.542 87.5424 61.1858C85.3402 59.5651 83.5734 57.9608 82.2421 56.3731C80.9107 54.7854 80.1212 52.9993 79.8737 51.0146C79.6055 48.8646 79.8807 47.0619 80.6991 45.6066C81.5135 44.1181 82.8105 43.1589 84.5902 42.7289L84.2498 40H88.7498L89.0902 42.7289C90.9771 43.1589 92.5281 44.1015 93.7429 45.5569C94.9578 47.0123 95.7035 48.8481 95.9799 51.0643L96.0913 51.9573L91.0594 52.5031L90.9356 51.5108C90.7705 50.1877 90.3947 49.1789 89.8081 48.4843C89.2214 47.7896 88.4614 47.4423 87.5281 47.4423C86.5948 47.4423 85.9132 47.7235 85.4833 48.2858C85.0535 48.8481 84.9066 49.675 85.0427 50.7666C85.1789 51.8581 85.7068 52.8835 86.6264 53.8427C87.5794 54.802 88.9988 56.0258 90.8844 57.5143C93.1323 59.2343 94.9032 60.8716 96.1971 62.4262C97.5202 63.9478 98.3056 65.7008 98.5531 67.6855Z" fill="#5C627F"/>
<path d="M99.5531 66.6855C99.813 68.7693 99.4525 70.5555 98.4715 72.0439C97.5238 73.5324 96.1122 74.5082 94.2366 74.9713L94.577 77.7001H90.077L89.7366 74.9713C87.7789 74.5082 86.1405 73.5324 84.8215 72.0439C83.5025 70.5555 82.713 68.7693 82.4531 66.6855L82.2984 65.4451L87.3303 64.8993L87.4912 66.1893C87.648 67.4462 88.0718 68.4385 88.7625 69.1662C89.4533 69.8939 90.332 70.2578 91.3987 70.2578C92.432 70.2578 93.2116 69.9601 93.7373 69.3647C94.2964 68.7693 94.512 67.9589 94.3841 66.9335C94.2479 65.842 93.6992 64.7835 92.738 63.7581C91.7767 62.7328 90.3782 61.542 88.5424 60.1858C86.3402 58.5651 84.5734 56.9608 83.2421 55.3731C81.9107 53.7854 81.1212 51.9993 80.8737 50.0146C80.6055 47.8646 80.8807 46.0619 81.6991 44.6066C82.5135 43.1181 83.8105 42.1589 85.5902 41.7289L85.2498 39H89.7498L90.0902 41.7289C91.9771 42.1589 93.5281 43.1015 94.7429 44.5569C95.9578 46.0123 96.7035 47.8481 96.9799 50.0643L97.0913 50.9573L92.0594 51.5031L91.9356 50.5108C91.7705 49.1877 91.3947 48.1789 90.8081 47.4843C90.2214 46.7896 89.4614 46.4423 88.5281 46.4423C87.5948 46.4423 86.9132 46.7235 86.4833 47.2858C86.0535 47.8481 85.9066 48.675 86.0427 49.7666C86.1789 50.8581 86.7068 51.8835 87.6264 52.8427C88.5794 53.802 89.9988 55.0258 91.8844 56.5143C94.1323 58.2343 95.9032 59.8716 97.1971 61.4262C98.5202 62.9478 99.3056 64.7008 99.5531 66.6855Z" fill="#898D9E"/>
<path d="M100.903 65.6855C101.163 67.7693 100.802 69.5555 99.8211 71.0439C98.8734 72.5324 97.4618 73.5082 95.5862 73.9713L95.9266 76.7001H91.4266L91.0862 73.9713C89.1285 73.5082 87.4901 72.5324 86.1711 71.0439C84.8521 69.5555 84.0626 67.7693 83.8027 65.6855L83.648 64.4451L88.6799 63.8993L88.8408 65.1893C88.9976 66.4462 89.4214 67.4385 90.1122 68.1662C90.8029 68.8939 91.6816 69.2578 92.7483 69.2578C93.7816 69.2578 94.5612 68.9601 95.0869 68.3647C95.646 67.7693 95.8616 66.9589 95.7337 65.9335C95.5975 64.842 95.0488 63.7835 94.0876 62.7581C93.1263 61.7328 91.7278 60.542 89.892 59.1858C87.6898 57.5651 85.9231 55.9608 84.5917 54.3731C83.2603 52.7854 82.4709 50.9993 82.2233 49.0146C81.9551 46.8646 82.2303 45.0619 83.0487 43.6066C83.8631 42.1181 85.1601 41.1589 86.9398 40.7289L86.5994 38H91.0994L91.4398 40.7289C93.3268 41.1589 94.8777 42.1015 96.0925 43.5569C97.3074 45.0123 98.0531 46.8481 98.3295 49.0643L98.4409 49.9573L93.409 50.5031L93.2852 49.5108C93.1202 48.1877 92.7443 47.1789 92.1577 46.4843C91.571 45.7896 90.811 45.4423 89.8777 45.4423C88.9444 45.4423 88.2628 45.7235 87.8329 46.2858C87.4031 46.8481 87.2562 47.675 87.3924 48.7666C87.5285 49.8581 88.0564 50.8835 88.9761 51.8427C89.929 52.802 91.3484 54.0258 93.234 55.5143C95.4819 57.2343 97.2528 58.8716 98.5467 60.4262C99.8698 61.9478 100.655 63.7008 100.903 65.6855Z" fill="#BABABA"/>
<path d="M58.399 100.359C53.5803 103.219 47.773 104.583 41.4971 103.923C40.6522 103.835 39.8364 103.716 38.9892 103.568C33.9957 102.648 29.2559 100.516 25.0542 97.5217C22.3665 95.6113 19.8751 93.3329 17.7322 90.7406C13.8605 86.1712 10.8975 80.7057 9.34811 74.7851C8.72168 72.5554 8.35261 70.2754 8.14268 67.9397C8.09192 67.4007 8.07005 66.8306 8.04932 66.2903C7.92499 63.0498 8.19651 59.9441 8.86619 57.0336C10.7228 49.029 15.402 42.5388 21.8075 38.7472L13.7874 43.5323C7.38182 47.3242 2.70248 53.8142 0.876069 61.8176C0.17635 64.7292 -0.0951693 67.8349 0.0291653 71.0757C0.0498871 71.6158 0.100644 72.1547 0.151401 72.6936C0.331117 75.0306 0.749789 77.3285 1.31634 79.5605C2.92694 85.5088 5.84039 90.9565 9.71186 95.5258C11.8549 98.1181 14.3163 100.398 17.004 102.308C27.0993 109.572 40.1149 111.219 50.3488 105.146L58.399 100.359Z" fill="#4B5067"/>
<path d="M72.1274 72.8174C71.3688 53.8245 56.418 36.9688 38.7087 35.1539C21.0304 33.3679 7.29194 47.3276 8.04955 66.2903C8.80831 85.2832 23.7891 102.138 41.4973 103.923C59.1766 105.739 72.8861 91.8101 72.1274 72.8174Z" fill="#898D9E"/>
<path d="M38.5377 36.7702C22.8299 34.898 8.90635 47.4733 9.66248 66.2227C10.3779 84.411 24.7348 100.615 41.654 102.323C58.8484 103.962 71.2157 90.4962 70.5064 72.8932C69.7907 54.7049 55.4338 38.5013 38.5377 36.7702ZM40.9383 96.3445C27.2278 94.9596 15.5944 81.8952 14.9943 67.2382C14.4276 52.7257 24.6878 41.4754 39.2534 42.7252C52.9639 44.1332 64.5742 57.2204 65.1743 71.8777C65.7801 87.3109 54.264 97.8261 40.9383 96.3445Z" fill="#6D738E"/>
<path d="M63.559 71.9441C62.9948 58.0223 52.0333 45.6713 39.0904 44.3348C26.1184 43.0295 16.0527 53.242 16.6169 67.1638C17.1811 81.0856 28.1426 93.4366 41.1144 94.7419C54.0573 96.0784 64.1221 85.8359 63.559 71.9441Z" fill="#4B5067"/>
<path d="M63.5596 71.9439C62.9954 58.0221 52.0339 45.6711 39.091 44.3346C31.5491 43.5723 24.9681 46.7095 20.9422 52.213C24.8975 48.7857 30.1789 47.0205 36.0611 47.6061C49.0042 48.9426 59.9657 61.2936 60.5299 75.2154C60.752 81.0066 59.1473 86.1768 56.2041 90.1363C61.0053 86.0454 63.8809 79.5345 63.5596 71.9439Z" fill="#5C6280"/>
<path d="M38.9901 103.568C33.9966 102.648 29.2568 100.516 25.0551 97.5216L17.0049 102.308C21.2077 105.332 25.9462 107.434 30.9399 108.354L38.9901 103.568Z" fill="#5C6280"/>
<path d="M17.7324 90.7404C13.8607 86.171 10.8977 80.7055 9.34828 74.7849L1.3165 79.5603C2.9271 85.5086 5.84055 90.9563 9.71202 95.5255L17.7324 90.7404Z" fill="#5C6280"/>
<path d="M8.8662 57.0336L0.876069 61.8176C0.17635 64.7292 -0.0951693 67.8349 0.0291654 71.0757C0.0498865 71.6157 0.100643 72.1547 0.1514 72.6936L8.14268 67.9396C8.09192 67.4007 8.07005 66.8306 8.04932 66.2903C7.92499 63.0498 8.19651 59.9441 8.8662 57.0336Z" fill="#5C6280"/>
<path d="M18.9617 57.8002C19.1157 57.4658 19.5906 57.4702 19.7434 57.806C20.5316 59.5379 21.2115 60.9463 21.3316 60.8973C21.4408 60.8527 20.9495 59.3722 20.3121 57.5846C20.1884 57.2377 20.5249 56.9033 20.8677 57.0345C24.3617 58.3711 27.571 59.533 27.6609 59.3178C27.7474 59.1109 24.6767 57.6008 21.2864 56.0159C20.9532 55.8602 20.9561 55.3832 21.2898 55.2306C23.0013 54.4479 24.3989 53.7697 24.3498 53.6491C24.3051 53.5393 22.8329 54.0287 21.0555 54.6639C20.7105 54.7872 20.3768 54.4482 20.5063 54.1041C23.8898 45.1165 23.4696 45.0496 19.4915 53.6806C19.3374 54.0148 18.8626 54.0105 18.7098 53.6748C17.926 51.9529 17.2486 50.5461 17.1395 50.5907C17.0196 50.6396 17.5113 52.125 18.1527 53.8998C18.2782 54.247 17.9416 54.5829 17.5979 54.4516C14.1109 53.1192 10.8876 51.9595 10.8012 52.1663C10.7113 52.3815 13.7931 53.8881 17.1784 55.4695C17.5112 55.625 17.5089 56.1014 17.1758 56.2545C15.4596 57.0437 14.0588 57.7215 14.1035 57.8313C14.1525 57.9518 15.6291 57.4622 17.3958 56.8174C17.7411 56.6913 18.0774 57.0306 17.9476 57.376C14.6024 66.2704 14.9336 66.5476 18.9617 57.8002Z" fill="white"/>
<g opacity="0.7">
<path d="M33.4202 87.4334C36.3984 89.2039 39.0437 89.9948 38.404 91.2059C37.7711 92.4043 34.7996 91.9807 31.8214 90.2102C28.8433 88.4399 27.4275 86.0251 28.0604 84.8267C28.7001 83.6156 30.4422 85.663 33.4202 87.4334Z" fill="white"/>
</g>
<g opacity="0.7">
<path d="M24.6061 81.3485C25.1428 80.9296 26.0495 81.1975 26.6326 81.9282C27.2157 82.6589 27.2589 83.5816 26.7222 84.0004C26.1966 84.4106 25.2992 84.1547 24.7161 83.4239C24.133 82.6932 24.0804 81.7587 24.6061 81.3485Z" fill="white"/>
</g>
<path d="M46.0513 78.3399C46.2596 79.9783 45.9707 81.3826 45.1844 82.5529C44.4248 83.7232 43.2934 84.4904 41.7901 84.8545L42.0629 87H38.4561L38.1833 84.8545C36.6141 84.4904 35.301 83.7232 34.2438 82.5529C33.1866 81.3826 32.5538 79.9783 32.3455 78.3399L32.2215 77.3646L36.2546 76.9355L36.3836 77.9498C36.5092 78.938 36.8489 79.7182 37.4026 80.2903C37.9562 80.8625 38.6605 81.1486 39.5155 81.1486C40.3437 81.1486 40.9685 80.9145 41.3899 80.4464C41.838 79.9783 42.0108 79.3411 41.9083 78.5349C41.7991 77.6767 41.3593 76.8445 40.5889 76.0383C39.8185 75.2321 38.6975 74.2959 37.2261 73.2296C35.461 71.9553 34.045 70.694 32.9779 69.4457C31.9107 68.1974 31.278 66.793 31.0796 65.2326C30.8646 63.5422 31.0852 62.1248 31.7412 60.9806C32.3939 59.8103 33.4334 59.0561 34.8599 58.718L34.5871 56.5725H38.1939L38.4667 58.718C39.9791 59.0561 41.2222 59.7973 42.1959 60.9416C43.1696 62.0858 43.7673 63.5292 43.9888 65.2716L44.0781 65.9738L40.045 66.4029L39.9458 65.6227C39.8135 64.5825 39.5123 63.7893 39.0421 63.2431C38.5719 62.697 37.9627 62.4239 37.2147 62.4239C36.4666 62.4239 35.9203 62.645 35.5757 63.0871C35.2312 63.5292 35.1135 64.1794 35.2226 65.0376C35.3317 65.8958 35.7549 66.702 36.492 67.4562C37.2558 68.2104 38.3934 69.1726 39.9048 70.3429C41.7065 71.6952 43.1259 72.9825 44.1629 74.2048C45.2234 75.4011 45.8529 76.7795 46.0513 78.3399Z" fill="#5C627F"/>
<path d="M46.8528 77.5536C47.0612 79.192 46.7722 80.5964 45.9859 81.7667C45.2263 82.9369 44.0949 83.7041 42.5916 84.0682L42.8644 86.2138H39.2576L38.9848 84.0682C37.4156 83.7041 36.1025 82.9369 35.0453 81.7667C33.9881 80.5964 33.3553 79.192 33.147 77.5536L33.023 76.5784L37.0561 76.1493L37.1851 77.1635C37.3108 78.1518 37.6504 78.932 38.2041 79.5041C38.7577 80.0762 39.462 80.3623 40.317 80.3623C41.1452 80.3623 41.77 80.1283 42.1914 79.6601C42.6395 79.192 42.8123 78.5549 42.7098 77.7487C42.6006 76.8905 42.1609 76.0583 41.3904 75.2521C40.62 74.4459 39.499 73.5096 38.0276 72.4434C36.2626 71.169 34.8465 69.9077 33.7794 68.6594C32.7123 67.4111 32.0795 66.0068 31.8811 64.4464C31.6661 62.756 31.8867 61.3386 32.5427 60.1943C33.1954 59.024 34.2349 58.2699 35.6614 57.9318L35.3886 55.7862H38.9954L39.2682 57.9318C40.7806 58.2699 42.0237 59.011 42.9974 60.1553C43.9711 61.2996 44.5688 62.743 44.7904 64.4854L44.8796 65.1876L40.8465 65.6167L40.7473 64.8365C40.615 63.7962 40.3138 63.003 39.8436 62.4569C39.3734 61.9108 38.7642 61.6377 38.0162 61.6377C37.2681 61.6377 36.7218 61.8587 36.3772 62.3008C36.0327 62.743 35.915 63.3931 36.0241 64.2513C36.1333 65.1095 36.5564 65.9157 37.2935 66.6699C38.0573 67.4241 39.1949 68.3864 40.7063 69.5566C42.508 70.909 43.9274 72.1963 44.9645 73.4186C46.025 74.6149 46.6544 75.9932 46.8528 77.5536Z" fill="#898D9E"/>
<path d="M47.9345 76.7674C48.1429 78.4058 47.8539 79.8101 47.0676 80.9804C46.308 82.1507 45.1766 82.9179 43.6733 83.282L43.9461 85.4275H40.3394L40.0665 83.282C38.4974 82.9179 37.1842 82.1507 36.127 80.9804C35.0698 79.8101 34.4371 78.4058 34.2287 76.7674L34.1047 75.7921L38.1379 75.363L38.2668 76.3773C38.3925 77.3655 38.7321 78.1457 39.2858 78.7179C39.8395 79.29 40.5438 79.5761 41.3987 79.5761C42.2269 79.5761 42.8517 79.342 43.2731 78.8739C43.7212 78.4058 43.894 77.7686 43.7915 76.9624C43.6824 76.1042 43.2426 75.272 42.4721 74.4658C41.7017 73.6596 40.5808 72.7234 39.1093 71.6571C37.3443 70.3828 35.9282 69.1215 34.8611 67.8732C33.794 66.6249 33.1612 65.2205 32.9628 63.6601C32.7479 61.9697 32.9684 60.5524 33.6244 59.4081C34.2771 58.2378 35.3167 57.4836 36.7431 57.1455L36.4703 55H40.0771L40.3499 57.1455C41.8623 57.4836 43.1054 58.2248 44.0791 59.3691C45.0529 60.5134 45.6505 61.9567 45.8721 63.6992L45.9614 64.4013L41.9282 64.8304L41.829 64.0502C41.6967 63.01 41.3955 62.2168 40.9253 61.6706C40.4551 61.1245 39.846 60.8514 39.0979 60.8514C38.3498 60.8514 37.8035 61.0725 37.459 61.5146C37.1144 61.9567 36.9967 62.6069 37.1059 63.4651C37.215 64.3233 37.6381 65.1295 38.3752 65.8837C39.139 66.6379 40.2766 67.6001 41.788 68.7704C43.5897 70.1227 45.0091 71.4101 46.0462 72.6324C47.1067 73.8287 47.7361 75.207 47.9345 76.7674Z" fill="#BABABA"/>
<ellipse cx="77.5" cy="123.5" rx="73.5" ry="7.5" fill="#1A1D29"/>
</svg>
