<svg width="155" height="131" viewBox="0 0 155 131" fill="none" xmlns="http://www.w3.org/2000/svg">
<ellipse cx="77.5" cy="123.5" rx="73.5" ry="7.5" fill="#1A1D29"/>
<path d="M145.195 43.8666C141.961 45.7857 138.063 46.7015 133.851 46.258C133.284 46.1992 132.737 46.1194 132.168 46.0202C128.817 45.4025 125.635 43.9715 122.815 41.962C121.011 40.6798 119.339 39.1507 117.901 37.4108C115.303 34.344 113.314 30.6758 112.274 26.7022C111.854 25.2057 111.606 23.6754 111.465 22.1078C111.431 21.746 111.416 21.3634 111.402 21.0008C111.319 18.8259 111.501 16.7414 111.951 14.7881C113.197 9.41573 116.337 5.05976 120.636 2.51495L115.254 5.72656C110.954 8.27149 107.814 12.6273 106.588 17.9989C106.118 19.9531 105.936 22.0375 106.02 24.2125C106.033 24.575 106.068 24.9367 106.102 25.2984C106.222 26.8669 106.503 28.4091 106.883 29.9072C107.964 33.8995 109.92 37.5557 112.518 40.6224C113.957 42.3623 115.609 43.8923 117.412 45.1744C124.188 50.0497 132.923 51.1548 139.792 47.0789L145.195 43.8666Z" fill="#F3A250"/>
<path d="M154.409 25.3814C153.9 12.6341 143.866 1.32127 131.98 0.103205C120.115 -1.09547 110.894 8.27371 111.403 21.0007C111.912 33.7479 121.967 45.06 133.852 46.2579C145.717 47.4768 154.919 38.1285 154.409 25.3814Z" fill="#FFD475"/>
<path d="M131.863 1.18806C121.32 -0.068447 111.975 8.37155 112.483 20.9554C112.963 33.1626 122.599 44.0378 133.954 45.1842C145.494 46.2845 153.795 37.2468 153.319 25.4323C152.838 13.2251 143.202 2.34994 131.863 1.18806ZM133.474 41.1719C124.272 40.2424 116.464 31.4741 116.061 21.637C115.681 11.8968 122.567 4.34604 132.343 5.18484C141.545 6.12981 149.337 14.9134 149.74 24.7508C150.147 35.1089 142.417 42.1663 133.474 41.1719Z" fill="#FFB961"/>
<path d="M148.658 24.7952C148.279 15.4515 140.922 7.16204 132.235 6.26502C123.529 5.38894 116.773 12.2432 117.152 21.5869C117.531 30.9307 124.887 39.2201 133.594 40.0962C142.28 40.9932 149.035 34.1188 148.658 24.7952Z" fill="#F3A250"/>
<path d="M134.626 24.4472L134.304 22.5164C135.888 22.6074 137.267 22.7832 138.282 23.0098C138.849 23.1365 139.273 23.273 139.549 23.4049C139.609 23.4337 139.657 23.4598 139.695 23.4827C139.641 23.5235 139.561 23.5724 139.448 23.6261C139.111 23.7862 138.578 23.9425 137.87 24.0781C136.992 24.2462 135.884 24.3756 134.627 24.4492L134.626 24.4472ZM129.757 24.4472L129.758 24.448C128.479 24.3737 127.329 24.2434 126.397 24.0749C125.643 23.9388 125.057 23.7822 124.664 23.6221C124.534 23.5691 124.438 23.5208 124.37 23.4802C124.4 23.4579 124.438 23.4326 124.487 23.4049C124.719 23.273 125.098 23.1365 125.623 23.0098C126.561 22.7832 127.882 22.6074 129.435 22.5164L129.757 24.4472ZM124.255 23.3963C124.255 23.3963 124.256 23.3969 124.257 23.3981C124.255 23.3969 124.255 23.3963 124.255 23.3963ZM124.488 19.9255H129.007L129.208 21.1345C127.299 21.2497 125.638 21.4988 124.436 21.8415C123.789 22.0258 123.248 22.2446 122.87 22.5018C122.519 22.7415 122.176 23.1087 122.263 23.6305C122.35 24.1523 122.815 24.5191 123.247 24.7585C123.709 25.0153 124.324 25.2336 125.031 25.4176C126.348 25.7596 128.091 26.0087 130.041 26.1259L131.158 32.8192L131.24 33.3124H131.74H135.609H136.109L136.026 32.8192L134.91 26.1266C136.82 26.0121 138.48 25.7634 139.683 25.4208C140.329 25.2365 140.871 25.0175 141.248 24.76C141.6 24.5199 141.942 24.1523 141.855 23.6305C141.768 23.1087 141.304 22.7413 140.872 22.5012C140.409 22.2438 139.795 22.025 139.087 21.8408C137.77 21.4983 136.027 21.2496 134.077 21.1345L133.876 19.9255H138.38H138.88L138.798 19.4323L138.227 16.0093L138.145 15.5161H137.645H123.752H123.252L123.335 16.0093L123.906 19.4323L123.988 19.9255H124.488Z" fill="#CF9DFF" stroke="#DD8536"/>
<path d="M133.655 21.0852L133.293 18.9159H138.298L137.727 15.4929H123.835L124.406 18.9159H129.425L129.786 21.0852C125.615 21.2846 122.597 22.117 122.763 23.114C122.93 24.1111 126.221 24.9383 130.463 25.1429L131.658 32.3028H135.526L134.332 25.1429C138.504 24.9452 141.522 24.1129 141.355 23.114C141.188 22.1152 137.897 21.2846 133.655 21.0852ZM132.289 24.4944C127.737 24.4944 123.93 23.8007 123.79 22.9649C123.67 22.2453 126.258 21.6418 129.849 21.4806L130.257 23.9308C130.885 23.9585 131.534 23.9741 132.199 23.9741C132.864 23.9741 133.512 23.9585 134.126 23.9308L133.718 21.4806C137.362 21.6418 140.151 22.2453 140.271 22.9649C140.419 23.8094 136.842 24.4944 132.289 24.4944Z" fill="#CF9DFF"/>
<path d="M133.655 20.5687L133.293 18.3994H138.298L137.727 14.9764H123.835L124.406 18.3994H129.425L129.786 20.5687C125.615 20.7681 122.597 21.6005 122.763 22.5976C122.93 23.5947 126.221 24.4218 130.463 24.6264L131.658 31.7864H135.526L134.332 24.6264C138.504 24.4287 141.522 23.5964 141.355 22.5976C141.188 21.5988 137.897 20.7681 133.655 20.5687ZM132.289 23.9779C127.737 23.9779 123.93 23.2843 123.79 22.4484C123.67 21.7288 126.258 21.1254 129.849 20.9641L130.257 23.4143C130.885 23.4421 131.534 23.4577 132.199 23.4577C132.864 23.4577 133.512 23.4421 134.126 23.4143L133.718 20.9641C137.362 21.1254 140.151 21.7288 140.271 22.4484C140.419 23.2929 136.842 23.9779 132.289 23.9779Z" fill="#CF9DFF"/>
<path d="M134.688 20.5687L134.327 18.3994H139.331L138.76 14.9764H124.868L125.439 18.3994H130.458L130.82 20.5687C126.648 20.7681 123.63 21.6005 123.797 22.5976C123.963 23.5947 127.254 24.4218 131.496 24.6264L132.691 31.7864H136.56L135.365 24.6264C139.537 24.4287 142.555 23.5964 142.388 22.5976C142.222 21.5988 138.93 20.7681 134.688 20.5687ZM133.323 23.9779C128.77 23.9779 124.963 23.2843 124.823 22.4484C124.703 21.7288 127.292 21.1254 130.882 20.9641L131.291 23.4143C131.918 23.4421 132.568 23.4577 133.232 23.4577C133.897 23.4577 134.545 23.4421 135.16 23.4143L134.751 20.9641C138.395 21.1254 141.185 21.7288 141.305 22.4484C141.453 23.2929 137.876 23.9779 133.323 23.9779Z" fill="#A140FD"/>
<path d="M148.657 24.7953C148.278 15.4516 140.921 7.16212 132.234 6.2651C127.173 5.75343 122.756 7.85899 120.054 11.5527C122.708 9.25244 126.253 8.06778 130.201 8.4608C138.888 9.35781 146.245 17.6473 146.623 26.991C146.772 30.8778 145.695 34.3479 143.72 37.0053C146.942 34.2596 148.872 29.8898 148.657 24.7953Z" fill="#DD8536"/>
<path d="M132.169 46.0202C128.817 45.4025 125.636 43.9715 122.816 41.962L117.413 45.1744C120.234 47.2041 123.414 48.6149 126.766 49.2326L132.169 46.0202Z" fill="#DD8536"/>
<path d="M117.899 37.4108C115.3 34.344 113.311 30.6759 112.271 26.7022L106.881 29.9072C107.962 33.8995 109.917 37.5558 112.516 40.6225L117.899 37.4108Z" fill="#DD8536"/>
<path d="M111.951 14.7881L106.588 17.9989C106.118 19.953 105.936 22.0375 106.02 24.2125C106.033 24.575 106.068 24.9367 106.102 25.2984L111.465 22.1078C111.431 21.746 111.416 21.3634 111.402 21.0008C111.319 18.8259 111.501 16.7414 111.951 14.7881Z" fill="#DD8536"/>
<path d="M118.724 15.3025C118.828 15.0781 119.146 15.081 119.249 15.3064C119.778 16.4687 120.234 17.414 120.315 17.3811C120.388 17.3512 120.058 16.3576 119.631 15.1578C119.548 14.9249 119.774 14.7005 120.004 14.7886C122.349 15.6857 124.503 16.4655 124.563 16.3211C124.621 16.1822 122.56 15.1686 120.285 14.105C120.061 14.0004 120.063 13.6803 120.287 13.5779C121.436 13.0526 122.374 12.5974 122.341 12.5164C122.311 12.4427 121.323 12.7712 120.13 13.1975C119.898 13.2803 119.674 13.0528 119.761 12.8218C122.032 6.78971 121.75 6.7448 119.08 12.5376C118.977 12.7619 118.658 12.759 118.555 12.5337C118.029 11.378 117.575 10.4339 117.501 10.4637C117.421 10.4966 117.751 11.4935 118.181 12.6847C118.266 12.9177 118.04 13.1432 117.809 13.055C115.469 12.1608 113.305 11.3825 113.247 11.5213C113.187 11.6657 115.255 12.6769 117.528 13.7382C117.751 13.8426 117.749 14.1623 117.526 14.2651C116.374 14.7947 115.434 15.2496 115.464 15.3233C115.497 15.4042 116.488 15.0756 117.673 14.6429C117.905 14.5583 118.131 14.786 118.044 15.0178C115.799 20.9874 116.021 21.1734 118.724 15.3025Z" fill="white"/>
<g opacity="0.7">
<path d="M128.428 35.1911C130.427 36.3793 132.203 36.9101 131.773 37.723C131.349 38.5273 129.354 38.243 127.355 37.0548C125.357 35.8666 124.406 34.2459 124.831 33.4416C125.26 32.6287 126.43 34.0029 128.428 35.1911Z" fill="white"/>
</g>
<g opacity="0.7">
<path d="M122.512 31.1072C122.872 30.826 123.481 31.0058 123.872 31.4962C124.264 31.9867 124.293 32.6059 123.932 32.887C123.58 33.1623 122.977 32.9906 122.586 32.5001C122.195 32.0097 122.159 31.3825 122.512 31.1072Z" fill="white"/>
</g>
<path d="M112.896 92.9417C106.634 96.6578 99.0863 98.4312 90.93 97.5725C89.832 97.4585 88.7718 97.304 87.6708 97.1119C81.1811 95.9159 75.0212 93.145 69.5607 89.2538C66.0677 86.771 62.8299 83.8101 60.0449 80.4411C55.0133 74.5026 51.1625 67.3997 49.1489 59.7052C48.3348 56.8074 47.8551 53.8443 47.5823 50.8087C47.5163 50.1083 47.4879 49.3674 47.461 48.6652C47.2994 44.4538 47.6523 40.4176 48.5226 36.6352C50.9355 26.2323 57.0166 17.7976 65.3413 12.8699L54.9182 19.0887C46.5935 24.0166 40.5122 32.4512 38.1385 42.8525C37.2292 46.6364 36.8763 50.6726 37.0379 54.8843C37.0648 55.5862 37.1308 56.2866 37.1968 56.987C37.4303 60.0242 37.9744 63.0105 38.7107 65.9113C40.8039 73.6418 44.5902 80.7217 49.6216 86.6599C52.4068 90.0289 55.6056 92.9916 59.0985 95.4742C72.2185 104.914 89.1337 107.054 102.434 99.1621L112.896 92.9417Z" fill="#F3A250"/>
<path d="M130.737 57.1479C129.751 32.4645 110.321 10.5587 87.3057 8.20008C64.3308 5.879 46.4761 24.0212 47.4607 48.6653C48.4468 73.3486 67.916 95.253 90.9297 97.5726C113.906 99.9327 131.723 81.831 130.737 57.1479Z" fill="#FFD475"/>
<path d="M87.0843 10.3007C66.6703 7.86763 48.5751 24.2106 49.5578 48.5775C50.4875 72.2152 69.1459 93.2735 91.1343 95.4933C113.48 97.624 129.553 80.1236 128.631 57.2465C127.701 33.6088 109.043 12.5505 87.0843 10.3007ZM90.2042 87.724C72.3858 85.9243 57.267 68.9456 56.487 49.8972C55.7506 31.0366 69.0849 16.4157 88.0144 18.0399C105.833 19.8697 120.922 36.8781 121.702 55.9268C122.489 75.9839 107.522 89.6496 90.2042 87.724Z" fill="#FFB961"/>
<path d="M119.602 56.0128C118.869 37.9199 104.623 21.8685 87.8026 20.1315C70.9441 18.4351 57.8625 31.7074 58.5958 49.8003C59.329 67.8933 73.5747 83.9447 90.433 85.6411C107.254 87.3781 120.334 74.0667 119.602 56.0128Z" fill="#F3A250"/>
<path d="M74.8159 52.1061C76.7662 51.6352 79.532 51.2798 82.7678 51.1121L83.4729 55.3389L83.5515 55.8103L84.0325 55.8316C85.2541 55.8857 86.5198 55.9161 87.8149 55.9161C89.1099 55.9161 90.3723 55.8857 91.5692 55.8316L92.043 55.8102L91.9643 55.3389L91.2593 51.1121C94.551 51.2798 97.4355 51.6352 99.5428 52.1061C100.657 52.355 101.525 52.63 102.115 52.912C102.41 53.0532 102.609 53.1836 102.73 53.2933C102.849 53.4004 102.862 53.457 102.863 53.4687L102.864 53.4727C102.866 53.4852 102.875 53.5616 102.743 53.7033C102.612 53.8445 102.381 54.0043 102.03 54.1708C101.332 54.5022 100.26 54.8128 98.8756 55.078C96.1154 55.6068 92.212 55.937 87.8252 55.937C83.4388 55.937 79.4245 55.6026 76.4857 55.0717C75.0121 54.8055 73.8346 54.4944 73.023 54.1634C72.6152 53.9971 72.3294 53.8375 72.1493 53.6964C71.9676 53.5541 71.9514 53.4783 71.9498 53.4687C71.9478 53.457 71.9416 53.4004 72.0245 53.2933C72.1093 53.1836 72.2645 53.0532 72.5128 52.912C73.0086 52.63 73.7851 52.355 74.8159 52.1061ZM94.6753 71.5503L92.4408 58.1547C96.3021 57.9468 99.6453 57.4569 102.025 56.7789C103.259 56.4272 104.261 56.0173 104.943 55.5523C105.598 55.1047 106.088 54.5131 105.962 53.7574C105.836 53.0019 105.15 52.4105 104.345 51.963C103.509 51.4983 102.371 51.0887 101.019 50.7372C98.4146 50.0596 94.9079 49.5697 90.9739 49.3603L90.4336 46.1214H99.6249H100.125L100.043 45.6282L98.937 39L98.8547 38.5068H98.3547H71.4535H70.9535L71.0358 39L72.1414 45.6282L72.2236 46.1214H72.7236H81.9421L82.4824 49.3603C78.6214 49.5698 75.2783 50.0605 72.899 50.7385C71.6648 51.0902 70.6624 51.4998 69.9811 51.9643C69.3255 52.4113 68.8356 53.0022 68.9616 53.7574C69.0876 54.5126 69.7741 55.103 70.5784 55.5492C71.414 56.0129 72.5522 56.4216 73.9032 56.7726C76.5077 57.4494 80.0145 57.9401 83.9492 58.154L86.1838 71.5503L86.2661 72.0435H86.7661H94.2575H94.7575L94.6753 71.5503Z" fill="#CF9DFF" stroke="#DD8536"/>
<path d="M90.552 48.8288L89.8514 44.6282H99.5426L98.437 38H71.5358L72.6414 44.6282H82.3599L83.0606 48.8288C74.9831 49.215 69.1395 50.8267 69.4616 52.7574C69.7837 54.6881 76.1564 56.2898 84.3712 56.686L86.6838 70.5503H94.1753L91.8627 56.686C99.9407 56.3032 105.784 54.6915 105.462 52.7574C105.139 50.8233 98.7651 49.215 90.552 48.8288ZM87.9074 55.4302C79.0913 55.4302 71.7197 54.0871 71.4498 52.4687C71.2173 51.0752 76.229 49.9067 83.1814 49.5944L83.9729 54.3389C85.1873 54.3927 86.4454 54.4229 87.7326 54.4229C89.0198 54.4229 90.2747 54.3927 91.4643 54.3389L90.6729 49.5944C97.7296 49.9067 103.131 51.0752 103.363 52.4687C103.65 54.1039 96.7236 55.4302 87.9074 55.4302Z" fill="#CF9DFF"/>
<path d="M90.552 47.8288L89.8514 43.6282H99.5426L98.437 37H71.5358L72.6414 43.6282H82.3599L83.0606 47.8288C74.9831 48.215 69.1395 49.8267 69.4616 51.7574C69.7837 53.6881 76.1564 55.2898 84.3712 55.686L86.6838 69.5503H94.1753L91.8627 55.686C99.9407 55.3032 105.784 53.6915 105.462 51.7574C105.139 49.8233 98.7651 48.215 90.552 47.8288ZM87.9074 54.4302C79.0913 54.4302 71.7197 53.0871 71.4498 51.4687C71.2173 50.0752 76.229 48.9067 83.1814 48.5944L83.9729 53.3389C85.1873 53.3927 86.4454 53.4229 87.7326 53.4229C89.0198 53.4229 90.2747 53.3927 91.4643 53.3389L90.6729 48.5944C97.7296 48.9067 103.131 50.0752 103.363 51.4687C103.65 53.1039 96.7236 54.4302 87.9074 54.4302Z" fill="#CF9DFF"/>
<path d="M92.552 47.8288L91.8514 43.6282H101.543L100.437 37H73.5358L74.6414 43.6282H84.3599L85.0606 47.8288C76.9831 48.215 71.1395 49.8267 71.4616 51.7574C71.7837 53.6881 78.1564 55.2898 86.3712 55.686L88.6838 69.5503H96.1753L93.8627 55.686C101.941 55.3032 107.784 53.6915 107.462 51.7574C107.139 49.8233 100.765 48.215 92.552 47.8288ZM89.9074 54.4302C81.0913 54.4302 73.7197 53.0871 73.4498 51.4687C73.2173 50.0752 78.229 48.9067 85.1814 48.5944L85.9729 53.3389C87.1873 53.3927 88.4454 53.4229 89.7326 53.4229C91.0198 53.4229 92.2747 53.3927 93.4643 53.3389L92.6729 48.5944C99.7296 48.9067 105.131 50.0752 105.363 51.4687C105.65 53.1039 98.7236 54.4302 89.9074 54.4302Z" fill="#A140FD"/>
<path d="M119.603 56.0128C118.87 37.9199 104.624 21.8685 87.8032 20.1315C78.0017 19.1407 69.4489 23.2178 64.2168 30.3703C69.3572 25.9161 76.2209 23.6221 83.8655 24.3832C100.686 26.1201 114.932 42.1715 115.665 60.2645C115.954 67.7908 113.869 74.51 110.043 79.6558C116.283 74.3392 120.02 65.8776 119.603 56.0128Z" fill="#DD8536"/>
<path d="M87.6709 97.1119C81.1812 95.9159 75.0213 93.145 69.5608 89.2538L59.0986 95.4742C64.5607 99.4044 70.7189 102.136 77.2087 103.332L87.6709 97.1119Z" fill="#DD8536"/>
<path d="M60.0452 80.4411C55.0135 74.5026 51.1627 67.3997 49.1491 59.7053L38.7109 65.9114C40.8041 73.6419 44.5904 80.7217 49.6218 86.66L60.0452 80.4411Z" fill="#DD8536"/>
<path d="M48.5226 36.6352L38.1385 42.8525C37.2292 46.6365 36.8763 50.6727 37.0379 54.8843C37.0648 55.5863 37.1308 56.2867 37.1968 56.9871L47.5823 50.8088C47.5163 50.1084 47.4879 49.3674 47.461 48.6653C47.2994 44.4538 47.6523 40.4176 48.5226 36.6352Z" fill="#DD8536"/>
<path d="M61.6412 37.6315C61.8413 37.1969 62.4585 37.2026 62.6571 37.639C63.6814 39.8897 64.5651 41.7201 64.7211 41.6564C64.863 41.5985 64.2245 39.6744 63.3961 37.3513C63.2354 36.9004 63.6727 36.4659 64.1182 36.6363C68.659 38.3734 72.8299 39.8835 72.9468 39.6038C73.0592 39.3349 69.0684 37.3723 64.6623 35.3126C64.2294 35.1102 64.2331 34.4903 64.6667 34.292C66.8911 33.2748 68.7074 32.3934 68.6435 32.2366C68.5855 32.0939 66.6722 32.7299 64.3623 33.5555C63.9139 33.7157 63.4802 33.2751 63.6485 32.828C68.0458 21.1476 67.4996 21.0606 62.3297 32.2775C62.1294 32.7119 61.5124 32.7063 61.3138 32.27C60.2952 30.0322 59.4147 28.204 59.273 28.2618C59.1172 28.3254 59.7562 30.2559 60.5898 32.5624C60.7529 33.0136 60.3154 33.4502 59.8688 33.2795C55.337 31.5479 51.148 30.0408 51.0357 30.3096C50.9189 30.5892 54.924 32.5473 59.3236 34.6024C59.7561 34.8045 59.753 35.4236 59.3202 35.6226C57.0899 36.6482 55.2693 37.5291 55.3274 37.6718C55.3911 37.8285 57.3101 37.1922 59.606 36.3542C60.0549 36.1904 60.492 36.6313 60.3232 37.0801C55.9758 48.6394 56.4062 48.9997 61.6412 37.6315Z" fill="white"/>
<g opacity="0.7">
<path d="M80.4341 76.1428C84.3045 78.4437 87.7423 79.4716 86.911 81.0456C86.0885 82.603 82.2267 82.0525 78.3562 79.7516C74.4859 77.4508 72.6458 74.3126 73.4684 72.7552C74.2997 71.1811 76.5637 73.842 80.4341 76.1428Z" fill="white"/>
</g>
<g opacity="0.7">
<path d="M68.9786 68.235C69.6761 67.6907 70.8545 68.0387 71.6123 68.9884C72.3701 69.9381 72.4262 71.1371 71.7288 71.6815C71.0456 72.2146 69.8794 71.882 69.1216 70.9323C68.3638 69.9826 68.2955 68.7682 68.9786 68.235Z" fill="white"/>
</g>
<path d="M58.3966 95.2248C53.5782 98.0841 47.7711 99.4485 41.4954 98.7879C40.6506 98.7001 39.8348 98.5812 38.9876 98.4334C33.9943 97.5132 29.2547 95.3812 25.0532 92.3872C22.3656 90.4769 19.8743 88.1986 17.7315 85.6064C13.86 81.0371 10.8971 75.5719 9.34774 69.6516C8.72133 67.4219 8.35228 65.1421 8.14235 62.8064C8.0916 62.2675 8.06972 61.6973 8.049 61.1571C7.92467 57.9167 8.19618 54.8111 8.86584 51.9008C10.7224 43.8965 15.4014 37.4066 21.8066 33.6151L13.7868 38.4C7.38153 42.1917 2.70237 48.6815 0.876034 56.6846C0.176342 59.5961 -0.0951655 62.7016 0.0291642 65.9422C0.0498851 66.4823 0.10064 67.0212 0.151395 67.5602C0.331103 69.897 0.749759 72.1948 1.31628 74.4268C2.92683 80.3748 5.84016 85.8223 9.71147 90.3914C11.8544 92.9836 14.3157 95.2632 17.0033 97.1733C27.0982 104.437 40.1133 106.084 50.3468 100.011L58.3966 95.2248Z" fill="#F3A250"/>
<path d="M72.1247 67.684C71.3661 48.6918 56.4159 31.8368 38.7073 30.022C21.0297 28.2361 7.29184 42.1952 8.04942 61.1571C8.80815 80.1493 23.7884 97.0031 41.4958 98.7879C59.1744 100.604 72.8834 86.6759 72.1247 67.684Z" fill="#FFD475"/>
<path d="M38.5363 31.6382C22.8291 29.7662 8.90615 42.3409 9.66225 61.0896C10.3776 79.2771 24.7339 95.48 41.6525 97.188C58.8462 98.8274 71.213 85.3621 70.5037 67.7598C69.7881 49.5722 55.4317 33.3693 38.5363 31.6382ZM40.9368 91.2101C27.2268 89.8253 15.5939 76.7614 14.9938 62.105C14.4272 47.5931 24.687 36.3433 39.252 37.593C52.9619 39.0009 64.5717 52.0877 65.1719 66.7443C65.7776 82.1769 54.2619 92.6917 40.9368 91.2101Z" fill="#FFB961"/>
<path d="M63.5566 66.8106C62.9924 52.8893 52.0313 40.5388 39.089 39.2024C26.1175 37.8971 16.0522 48.1092 16.6164 62.0305C17.1805 75.9517 28.1416 88.3022 41.1129 89.6075C54.0552 90.9439 64.1196 80.7018 63.5566 66.8106Z" fill="#F3A250"/>
<path d="M29.1416 63.9153C30.6096 63.5609 32.6862 63.291 35.12 63.1597L35.6424 66.292L35.6853 66.549C33.6665 66.4407 31.8499 66.2394 30.3844 65.9747C29.2542 65.7705 28.3585 65.5331 27.7467 65.2836C27.4389 65.158 27.2325 65.0412 27.1088 64.9443C27.0513 64.8992 27.0238 64.8685 27.0114 64.852C27.0162 64.8404 27.0261 64.8217 27.0464 64.7954C27.1016 64.724 27.2098 64.6307 27.3953 64.5252C27.7652 64.3149 28.3522 64.1059 29.1416 63.9153ZM47.5691 65.9795C46.1902 66.2436 44.437 66.4434 42.4497 66.5505L42.4066 66.292L41.8841 63.1597C44.3617 63.291 46.5283 63.5609 48.1145 63.9153C48.9676 64.1059 49.6243 64.3149 50.0644 64.5252C50.285 64.6307 50.4243 64.724 50.5034 64.7954C50.5349 64.8239 50.5513 64.8436 50.5592 64.8548C50.5535 64.8705 50.5373 64.9021 50.4928 64.95C50.4029 65.0468 50.2371 65.1637 49.9722 65.2893C49.4457 65.5391 48.6307 65.7761 47.5691 65.9795ZM50.566 64.8661C50.5659 64.8661 50.5655 64.8653 50.5648 64.8635C50.5658 64.8652 50.5661 64.8661 50.566 64.8661ZM50.5618 64.8458C50.5619 64.8441 50.5621 64.8432 50.5621 64.8432C50.5622 64.8432 50.5622 64.8441 50.5618 64.8458ZM27.0024 64.8377C27.0025 64.8377 27.0029 64.8385 27.0035 64.84C27.0026 64.8385 27.0023 64.8377 27.0024 64.8377ZM27.0077 64.8636C27.0076 64.8653 27.0074 64.8661 27.0074 64.8661C27.0073 64.8661 27.0073 64.8653 27.0077 64.8636ZM44.4925 78.7655L42.7912 68.5662C45.7216 68.4027 48.2625 68.0278 50.0809 67.5096C51.0351 67.2377 51.8178 66.9188 52.3541 66.5528C52.865 66.2041 53.284 65.7194 53.1765 65.0751C53.0691 64.4311 52.4889 63.9465 51.862 63.5979C51.2039 63.232 50.3153 62.9134 49.2709 62.6417C47.2801 62.1238 44.6141 61.7489 41.6266 61.5843L41.2478 59.3135H48.2046H48.7046L48.6223 58.8203L47.7716 53.7203L47.6893 53.2272H47.1893H26.4907H25.9907L26.073 53.7203L26.9237 58.8203L27.0059 59.3135H27.5059H34.4836L34.8624 61.5843C31.9321 61.749 29.3914 62.1245 27.573 62.6427C26.6189 62.9145 25.8362 63.2332 25.2999 63.5988C24.7892 63.947 24.3696 64.4313 24.477 65.0751C24.5844 65.7191 25.1652 66.2029 25.7917 66.5505C26.4495 66.9155 27.3379 67.2334 28.3822 67.5048C30.3727 68.022 33.0389 68.3975 36.0269 68.5655L37.7283 78.7655L37.8106 79.2587H38.3106H44.0748H44.5748L44.4925 78.7655Z" fill="#CF9DFF" stroke="#DD8536"/>
<path d="M41.2047 61.283L40.6655 58.0509H48.1223L47.2716 52.9509H26.573L27.4237 58.0509H34.9014L35.4405 61.283C29.2254 61.5801 24.7292 62.8202 24.977 64.3057C25.2248 65.7913 30.1282 67.0237 36.4489 67.3285L38.2283 77.9961H43.9925L42.2131 67.3285C48.4286 67.034 52.9248 65.7939 52.6765 64.3057C52.4283 62.8176 47.5241 61.5801 41.2047 61.283ZM39.1698 66.3623C32.3864 66.3623 26.7145 65.3288 26.5068 64.0836C26.3279 63.0114 30.1841 62.1123 35.5335 61.872L36.1424 65.5226C37.0768 65.5639 38.0449 65.5872 39.0353 65.5872C40.0257 65.5872 40.9912 65.5639 41.9066 65.5226L41.2977 61.872C46.7273 62.1123 50.8833 63.0114 51.0622 64.0836C51.2825 65.3418 45.9532 66.3623 39.1698 66.3623Z" fill="#CF9DFF"/>
<path d="M41.2047 60.5135L40.6655 57.2814H48.1223L47.2716 52.1815H26.573L27.4237 57.2814H34.9014L35.4405 60.5135C29.2254 60.8106 24.7292 62.0507 24.977 63.5363C25.2248 65.0218 30.1282 66.2542 36.4489 66.5591L38.2283 77.2266H43.9925L42.2131 66.5591C48.4286 66.2645 52.9248 65.0244 52.6765 63.5363C52.4283 62.0481 47.5241 60.8106 41.2047 60.5135ZM39.1698 65.5928C32.3864 65.5928 26.7145 64.5594 26.5068 63.3141C26.3279 62.2419 30.1841 61.3428 35.5335 61.1025L36.1424 64.7531C37.0768 64.7945 38.0449 64.8177 39.0353 64.8177C40.0257 64.8177 40.9912 64.7945 41.9066 64.7531L41.2977 61.1025C46.7273 61.3428 50.8833 62.2419 51.0622 63.3141C51.2825 64.5723 45.9532 65.5928 39.1698 65.5928Z" fill="#CF9DFF"/>
<path d="M42.7437 60.5135L42.2046 57.2814H49.6614L48.8107 52.1815H28.112L28.9627 57.2814H36.4404L36.9796 60.5135C30.7645 60.8106 26.2683 62.0507 26.5161 63.5363C26.7639 65.0218 31.6673 66.2542 37.988 66.5591L39.7674 77.2266H45.5316L43.7522 66.5591C49.9676 66.2645 54.4638 65.0244 54.2156 63.5363C53.9674 62.0481 49.0631 60.8106 42.7437 60.5135ZM40.7089 65.5928C33.9255 65.5928 28.2536 64.5594 28.0458 63.3141C27.867 62.2419 31.7231 61.3428 37.0726 61.1025L37.6815 64.7531C38.6159 64.7945 39.584 64.8177 40.5744 64.8177C41.5648 64.8177 42.5303 64.7945 43.4457 64.7531L42.8367 61.1025C48.2663 61.3428 52.4224 62.2419 52.6013 63.3141C52.8216 64.5723 47.4923 65.5928 40.7089 65.5928Z" fill="#A140FD"/>
<path d="M63.5571 66.8105C62.9929 52.8893 52.0319 40.5388 39.0895 39.2024C31.5479 38.44 24.9671 41.5771 20.9414 47.0804C24.8966 43.6532 30.1777 41.8882 36.0597 42.4737C49.0023 43.8102 59.9633 56.1606 60.5275 70.0819C60.7497 75.8729 59.1449 81.0428 56.2019 85.0021C61.0029 80.9114 63.8784 74.4008 63.5571 66.8105Z" fill="#DD8536"/>
<path d="M38.9883 98.4334C33.9949 97.5131 29.2553 95.3811 25.0538 92.3871L17.0039 97.1733C21.2066 100.197 25.9449 102.299 30.9384 103.22L38.9883 98.4334Z" fill="#DD8536"/>
<path d="M17.7316 85.6064C13.8601 81.0372 10.8972 75.572 9.34786 69.6516L1.31641 74.4268C2.92695 80.3749 5.84028 85.8223 9.71159 90.3914L17.7316 85.6064Z" fill="#DD8536"/>
<path d="M8.86584 51.9008L0.876034 56.6846C0.176343 59.5961 -0.0951655 62.7017 0.0291642 65.9423C0.0498844 66.4823 0.100639 67.0213 0.151394 67.5602L8.14235 62.8064C8.0916 62.2675 8.06972 61.6974 8.049 61.1571C7.92467 57.9167 8.19618 54.8111 8.86584 51.9008Z" fill="#DD8536"/>
<path d="M18.959 52.6673C19.113 52.333 19.5879 52.3373 19.7407 52.6731C20.5288 54.4049 21.2087 55.8132 21.3288 55.7642C21.438 55.7197 20.9467 54.2392 20.3093 52.4517C20.1856 52.1048 20.5221 51.7705 20.8649 51.9016C24.3587 53.2382 27.5679 54.4001 27.6579 54.1849C27.7443 53.978 24.6737 52.4679 21.2835 50.8831C20.9504 50.7274 20.9533 50.2504 21.2869 50.0978C22.9984 49.3151 24.3959 48.637 24.3468 48.5163C24.3022 48.4065 22.83 48.8959 21.0527 49.5311C20.7077 49.6544 20.374 49.3154 20.5035 48.9714C23.8869 39.9841 23.4666 39.9172 19.4887 48.5478C19.3347 48.8821 18.8599 48.8778 18.7071 48.5421C17.9233 46.8202 17.2459 45.4135 17.1369 45.458C17.017 45.5069 17.5086 46.9924 18.15 48.767C18.2755 49.1142 17.9389 49.4501 17.5953 49.3188C14.1083 47.9865 10.8852 46.8268 10.7988 47.0337C10.7089 47.2488 13.7906 48.7554 17.1757 50.3367C17.5086 50.4922 17.5062 50.9685 17.1732 51.1217C15.457 51.9108 14.0562 52.5886 14.1009 52.6984C14.15 52.8189 15.6265 52.3293 17.3931 51.6845C17.7384 51.5585 18.0747 51.8978 17.9449 52.2431C14.5999 61.1372 14.931 61.4144 18.959 52.6673Z" fill="white"/>
<g opacity="0.7">
<path d="M33.4192 82.2991C36.3973 84.0695 39.0424 84.8604 38.4028 86.0715C37.7699 87.2698 34.7985 86.8463 31.8205 85.0759C28.8425 83.3056 27.4267 80.8909 28.0596 79.6926C28.6992 78.4815 30.4413 80.5288 33.4192 82.2991Z" fill="white"/>
</g>
<g opacity="0.7">
<path d="M24.6052 76.2147C25.1418 75.7958 26.0485 76.0636 26.6316 76.7943C27.2147 77.5251 27.2579 78.4476 26.7212 78.8665C26.1956 79.2767 25.2983 79.0207 24.7152 78.29C24.1321 77.5593 24.0796 76.6249 24.6052 76.2147Z" fill="white"/>
</g>
</svg>
