<svg width="151" height="131" viewBox="0 0 151 131" fill="none" xmlns="http://www.w3.org/2000/svg">
<g id="Group 187">
<g id="_x35_9">
<g id="Group">
<g id="Group_2">
<g id="Group_3">
<g id="Group_4">
<g id="Group_5">
<g id="Group_6">
<g id="Group_7">
<path id="Vector" d="M141.197 44.5398C137.962 46.459 134.065 47.3748 129.852 46.9314C129.285 46.8725 128.738 46.7927 128.169 46.6935C124.817 46.0758 121.636 44.6447 118.816 42.6352C117.012 41.3529 115.34 39.8237 113.902 38.0838C111.303 35.0169 109.314 31.3485 108.274 27.3747C107.854 25.8781 107.606 24.3479 107.465 22.7801C107.431 22.4184 107.417 22.0357 107.403 21.6731C107.319 19.4981 107.501 17.4136 107.951 15.4602C109.197 10.0876 112.338 5.73144 116.637 3.18652L111.254 6.39826C106.955 8.9433 103.814 13.2993 102.588 18.6711C102.118 20.6253 101.936 22.7098 102.02 24.885C102.033 25.2475 102.068 25.6092 102.102 25.9709C102.222 27.5394 102.503 29.0818 102.884 30.5799C103.965 34.5723 105.92 38.2287 108.518 41.2955C109.957 43.0355 111.609 44.5655 113.413 45.8477C120.189 50.7231 128.925 51.8283 135.793 47.7523L141.197 44.5398Z" fill="#4B5067"/>
</g>
</g>
</g>
<g id="Group_8">
<g id="Group_9">
<g id="Group_10">
<path id="Vector_2" d="M150.411 26.054C149.902 13.3063 139.867 1.99296 127.981 0.77484C116.115 -0.423887 106.894 8.94567 107.403 21.6732C107.912 34.4209 117.967 45.7335 129.853 46.9314C141.719 48.1503 150.92 38.8017 150.411 26.054Z" fill="#898D9E"/>
</g>
</g>
<g id="Group_11">
<g id="Group_12">
<path id="Vector_3" d="M127.863 1.85964C117.32 0.603077 107.975 9.04341 108.483 21.6278C108.963 33.8355 118.599 44.7111 129.955 45.8575C141.496 46.9579 149.796 37.9198 149.32 26.1049C148.84 13.8972 139.204 3.02156 127.863 1.85964ZM129.475 41.8451C120.272 40.9156 112.464 32.1469 112.061 22.3093C111.681 12.5688 118.567 5.01774 128.344 5.85657C137.546 6.80158 145.339 15.5856 145.741 25.4233C146.148 35.7819 138.419 42.8395 129.475 41.8451Z" fill="#6D738E"/>
</g>
</g>
</g>
<g id="Group_13">
<g id="Group_14">
<g id="Group_15">
<path id="Vector_4" d="M144.659 25.468C144.28 16.1239 136.923 7.83407 128.236 6.93702C119.529 6.06091 112.773 12.9154 113.152 22.2596C113.531 31.6037 120.888 39.8935 129.594 40.7696C138.281 41.6666 145.037 34.792 144.659 25.468Z" fill="#4B5067"/>
<g id="Group 178">
<path id="Vector_5" d="M130.625 24.6026L130.303 22.6718C131.887 22.7628 133.266 22.9386 134.281 23.1652C134.848 23.2919 135.272 23.4284 135.548 23.5603C135.608 23.5891 135.656 23.6152 135.694 23.6381C135.64 23.6789 135.56 23.7278 135.447 23.7815C135.11 23.9416 134.577 24.0979 133.869 24.2335C132.991 24.4016 131.883 24.531 130.626 24.6046L130.625 24.6026ZM125.757 24.6026L125.757 24.6034C124.478 24.529 123.328 24.3988 122.396 24.2303C121.642 24.0942 121.056 23.9376 120.663 23.7775C120.533 23.7245 120.437 23.6762 120.369 23.6356C120.399 23.6133 120.437 23.588 120.486 23.5603C120.718 23.4284 121.097 23.2919 121.622 23.1652C122.561 22.9386 123.881 22.7628 125.434 22.6718L125.757 24.6026ZM120.254 23.5517C120.254 23.5517 120.255 23.5523 120.256 23.5535C120.254 23.5523 120.254 23.5517 120.254 23.5517ZM120.487 20.0809H125.006L125.207 21.2899C123.298 21.4051 121.637 21.6542 120.435 21.9969C119.788 22.1811 119.247 22.4 118.869 22.6572C118.518 22.8969 118.175 23.2641 118.262 23.7859C118.349 24.3077 118.814 24.6745 119.246 24.9139C119.708 25.1707 120.323 25.389 121.03 25.5729C122.347 25.915 124.09 26.164 126.04 26.2813L127.157 32.9746L127.239 33.4678H127.739H131.608H132.108L132.025 32.9746L130.909 26.282C132.819 26.1675 134.479 25.9188 135.682 25.5762C136.328 25.3919 136.87 25.1729 137.247 24.9154C137.599 24.6753 137.941 24.3077 137.854 23.7859C137.767 23.2641 137.303 22.8967 136.871 22.6566C136.408 22.3992 135.794 22.1804 135.086 21.9962C133.769 21.6537 132.026 21.405 130.076 21.2899L129.875 20.0809H134.379H134.879L134.797 19.5877L134.226 16.1647L134.144 15.6715H133.644H119.751H119.251L119.334 16.1647L119.905 19.5877L119.987 20.0809H120.487Z" fill="#898D9E" stroke="#5C627F"/>
<path id="Vector_6" d="M129.654 21.2405L129.292 19.0712H134.297L133.726 15.6482H119.834L120.405 19.0712H125.424L125.785 21.2405C121.614 21.44 118.596 22.2723 118.762 23.2694C118.929 24.2665 122.22 25.0936 126.462 25.2982L127.657 32.4582H131.525L130.331 25.2982C134.503 25.1006 137.521 24.2682 137.354 23.2694C137.187 22.2706 133.896 21.44 129.654 21.2405ZM128.288 24.6497C123.736 24.6497 119.929 23.9561 119.789 23.1203C119.669 22.4006 122.257 21.7972 125.848 21.6359L126.257 24.0861C126.884 24.1139 127.533 24.1295 128.198 24.1295C128.863 24.1295 129.511 24.1139 130.125 24.0861L129.717 21.6359C133.361 21.7972 136.15 22.4006 136.27 23.1203C136.418 23.9647 132.841 24.6497 128.288 24.6497Z" fill="#898D9E"/>
<path id="Vector_7" d="M129.654 20.7241L129.292 18.5547H134.297L133.726 15.1317H119.834L120.405 18.5547H125.424L125.785 20.7241C121.614 20.9235 118.596 21.7558 118.762 22.7529C118.929 23.75 122.22 24.5771 126.462 24.7818L127.657 31.9417H131.525L130.331 24.7818C134.503 24.5841 137.521 23.7517 137.354 22.7529C137.187 21.7541 133.896 20.9235 129.654 20.7241ZM128.288 24.1332C123.736 24.1332 119.929 23.4396 119.789 22.6038C119.669 21.8841 122.257 21.2807 125.848 21.1194L126.257 23.5696C126.884 23.5974 127.533 23.613 128.198 23.613C128.863 23.613 129.511 23.5974 130.125 23.5696L129.717 21.1194C133.361 21.2807 136.15 21.8841 136.27 22.6038C136.418 23.4483 132.841 24.1332 128.288 24.1332Z" fill="#898D9E"/>
<path id="Vector_8" d="M130.687 20.7241L130.326 18.5547H135.33L134.759 15.1317H120.867L121.438 18.5547H126.457L126.819 20.7241C122.647 20.9235 119.629 21.7558 119.796 22.7529C119.962 23.75 123.253 24.5771 127.495 24.7818L128.69 31.9417H132.559L131.364 24.7818C135.536 24.5841 138.554 23.7517 138.387 22.7529C138.221 21.7541 134.929 20.9235 130.687 20.7241ZM129.322 24.1332C124.769 24.1332 120.962 23.4396 120.822 22.6038C120.702 21.8841 123.291 21.2807 126.881 21.1194L127.29 23.5696C127.917 23.5974 128.567 23.613 129.231 23.613C129.896 23.613 130.544 23.5974 131.159 23.5696L130.75 21.1194C134.394 21.2807 137.184 21.8841 137.304 22.6038C137.452 23.4483 133.875 24.1332 129.322 24.1332Z" fill="#BABABA"/>
</g>
</g>
</g>
</g>
<g id="Group_16">
<g id="Group_17">
<g id="Group_18">
<path id="Vector_9" d="M144.658 25.4676C144.279 16.1235 136.922 7.83366 128.235 6.93661C123.173 6.42492 118.756 8.53056 116.054 12.2244C118.708 9.92408 122.253 8.73936 126.201 9.1324C134.889 10.0294 142.246 18.3192 142.624 27.6634C142.774 31.5503 141.696 35.0205 139.721 37.678C142.944 34.9323 144.874 30.5623 144.658 25.4676Z" fill="#5C6280"/>
</g>
</g>
</g>
<g id="Group_19">
<g id="Group_20">
<g id="Group_21">
<path id="Vector_10" d="M128.166 46.6933C124.815 46.0756 121.633 44.6446 118.813 42.635L113.41 45.8475C116.231 47.8773 119.411 49.2882 122.763 49.9058L128.166 46.6933Z" fill="#5C6280"/>
</g>
</g>
</g>
<g id="Group_22">
<g id="Group_23">
<g id="Group_24">
<path id="Vector_11" d="M113.899 38.0836C111.3 35.0166 109.312 31.3483 108.272 27.3745L102.881 30.5797C103.962 34.5721 105.917 38.2285 108.516 41.2953L113.899 38.0836Z" fill="#5C6280"/>
</g>
</g>
</g>
<g id="Group_25">
<g id="Group_26">
<g id="Group_27">
<path id="Vector_12" d="M107.951 15.4601L102.588 18.671C102.118 20.6253 101.936 22.7098 102.02 24.8849C102.033 25.2474 102.068 25.6091 102.102 25.9709L107.465 22.7801C107.431 22.4183 107.417 22.0357 107.403 21.673C107.319 19.498 107.501 17.4135 107.951 15.4601Z" fill="#5C6280"/>
</g>
</g>
</g>
</g>
<g id="Group_28">
<g id="Group_29">
<path id="Vector_13" d="M114.725 15.9744C114.828 15.75 115.147 15.7529 115.249 15.9783C115.778 17.1407 116.235 18.086 116.315 18.0531C116.389 18.0232 116.059 17.0295 115.631 15.8297C115.548 15.5968 115.774 15.3724 116.004 15.4605C118.349 16.3576 120.503 17.1375 120.563 16.993C120.621 16.8541 118.56 15.8406 116.285 14.7768C116.061 14.6723 116.063 14.3522 116.287 14.2498C117.436 13.7244 118.374 13.2692 118.341 13.1882C118.311 13.1145 117.323 13.443 116.13 13.8694C115.898 13.9521 115.674 13.7246 115.761 13.4937C118.032 7.46128 117.75 7.41637 115.08 13.2094C114.977 13.4337 114.658 13.4308 114.556 13.2055C114.029 12.0498 113.575 11.1056 113.502 11.1355C113.421 11.1683 113.751 12.1653 114.182 13.3565C114.266 13.5895 114.04 13.815 113.809 13.7269C111.469 12.8326 109.305 12.0542 109.247 12.193C109.187 12.3374 111.256 13.3487 113.528 14.4101C113.751 14.5144 113.749 14.8342 113.526 14.937C112.374 15.4666 111.434 15.9216 111.464 15.9953C111.497 16.0762 112.488 15.7476 113.674 15.3148C113.905 15.2302 114.131 15.4579 114.044 15.6897C111.799 21.6595 112.021 21.8455 114.725 15.9744Z" fill="white"/>
</g>
</g>
</g>
</g>
<g id="Group_30" opacity="0.7">
<g id="Group_31">
<path id="Vector_14" d="M124.429 35.8638C126.427 37.0521 128.203 37.583 127.774 38.3959C127.349 39.2002 125.354 38.9159 123.355 37.7276C121.357 36.5393 120.406 34.9186 120.831 34.1143C121.26 33.3014 122.43 34.6756 124.429 35.8638Z" fill="white"/>
</g>
</g>
<g id="Group_32" opacity="0.7">
<g id="Group_33">
<path id="Vector_15" d="M118.513 31.7798C118.873 31.4987 119.482 31.6785 119.873 32.1689C120.265 32.6594 120.294 33.2786 119.933 33.5598C119.581 33.8351 118.978 33.6633 118.587 33.1728C118.196 32.6824 118.16 32.0552 118.513 31.7798Z" fill="white"/>
</g>
</g>
</g>
</g>
<g id="_x35_9_2">
<g id="Group_34">
<g id="Group_35">
<g id="Group_36">
<g id="Group_37">
<g id="Group_38">
<g id="Group_39">
<g id="Group_40">
<path id="Vector_16" d="M112.899 97.9454C106.636 101.662 99.0888 103.435 90.9322 102.576C89.8341 102.462 88.7739 102.308 87.6728 102.116C81.1829 100.92 75.0228 98.1486 69.562 94.2573C66.0689 91.7744 62.8309 88.8133 60.0459 85.4441C55.014 79.5054 51.1631 72.4022 49.1494 64.7075C48.3352 61.8095 47.8556 58.8464 47.5827 55.8106C47.5168 55.1102 47.4883 54.3692 47.4614 53.667C47.2998 49.4554 47.6527 45.4191 48.5231 41.6365C50.9361 31.2332 57.0174 22.7981 65.3424 17.8702L54.9189 24.0893C46.5939 29.0175 40.5123 37.4523 38.1386 47.8541C37.2292 51.6381 36.8763 55.6745 37.0379 59.8864C37.0648 60.5883 37.1308 61.2888 37.1968 61.9892C37.4303 65.0264 37.9745 68.0129 38.7108 70.9138C40.804 78.6446 44.5905 85.7248 49.6221 91.6633C52.4074 95.0324 55.6064 97.9952 59.0994 100.478C72.2199 109.919 89.1358 112.059 102.436 104.166L112.899 97.9454Z" fill="#4B5067"/>
</g>
</g>
</g>
<g id="Group_41">
<g id="Group_42">
<g id="Group_43">
<path id="Vector_17" d="M130.741 62.15C129.755 37.4657 110.324 15.5589 87.3082 13.2002C64.3324 10.879 46.4771 29.0219 47.4617 53.667C48.4478 78.3514 67.9179 100.257 90.9325 102.576C113.91 104.937 131.727 86.8341 130.741 62.15Z" fill="#898D9E"/>
</g>
</g>
<g id="Group_44">
<g id="Group_45">
<path id="Vector_18" d="M87.0858 15.3009C66.671 12.8677 48.5751 29.2113 49.5578 53.5793C50.4876 77.2179 69.1467 98.277 91.1359 100.497C113.483 102.628 129.556 85.1266 128.634 62.2486C127.704 38.6099 109.045 17.5508 87.0858 15.3009ZM90.2058 92.7274C72.3868 90.9275 57.2673 73.9481 56.4873 54.899C55.7508 36.0377 69.0857 21.4161 88.016 23.0404C105.835 24.8703 120.924 41.8793 121.704 60.9288C122.492 80.9867 107.525 94.653 90.2058 92.7274Z" fill="#6D738E"/>
</g>
</g>
</g>
<g id="Group_46">
<g id="Group_47">
<g id="Group_48">
<path id="Vector_19" d="M119.607 61.0148C118.873 42.9211 104.627 26.8691 87.8057 25.1321C70.9465 23.4356 57.8645 36.7084 58.5977 54.8021C59.331 72.8958 73.5772 88.9478 90.4362 90.6443C107.258 92.3813 120.338 79.0695 119.607 61.0148Z" fill="#4B5067"/>
<g id="Group 178_2">
<path id="Vector_20" d="M74.8159 56.1063C76.7662 55.6354 79.532 55.2799 82.7678 55.1123L83.4729 59.3391L83.5515 59.8105L84.0325 59.8317C85.2541 59.8858 86.5198 59.9162 87.8149 59.9162C89.1099 59.9162 90.3723 59.8858 91.5692 59.8317L92.043 59.8103L91.9643 59.3391L91.2593 55.1123C94.551 55.2799 97.4355 55.6354 99.5428 56.1063C100.657 56.3551 101.525 56.6302 102.115 56.9121C102.41 57.0533 102.609 57.1838 102.73 57.2934C102.849 57.4006 102.862 57.4571 102.863 57.4688L102.864 57.4728C102.866 57.4853 102.875 57.5617 102.743 57.7034C102.612 57.8446 102.381 58.0044 102.03 58.1709C101.332 58.5024 100.26 58.8129 98.8756 59.0781C96.1154 59.6069 92.212 59.9371 87.8252 59.9371C83.4388 59.9371 79.4245 59.6027 76.4857 59.0719C75.0121 58.8057 73.8346 58.4945 73.023 58.1635C72.6152 57.9972 72.3294 57.8376 72.1493 57.6966C71.9676 57.5543 71.9514 57.4784 71.9498 57.4688C71.9478 57.4571 71.9416 57.4006 72.0245 57.2934C72.1093 57.1838 72.2645 57.0533 72.5128 56.9121C73.0086 56.6302 73.7851 56.3551 74.8159 56.1063ZM94.6753 75.5504L92.4408 62.1549C96.3021 61.9469 99.6453 61.457 102.025 60.779C103.259 60.4273 104.261 60.0174 104.943 59.5524C105.598 59.1049 106.088 58.5132 105.962 57.7575C105.836 57.002 105.15 56.4106 104.345 55.9631C103.509 55.4984 102.371 55.0888 101.019 54.7373C98.4146 54.0597 94.9079 53.5698 90.9739 53.3604L90.4336 50.1216H99.6249H100.125L100.043 49.6284L98.937 43.0001L98.8547 42.5069H98.3547H71.4535H70.9535L71.0358 43.0001L72.1414 49.6284L72.2236 50.1216H72.7236H81.9421L82.4824 53.3604C78.6214 53.5699 75.2783 54.0606 72.899 54.7386C71.6648 55.0903 70.6624 55.5 69.9811 55.9644C69.3255 56.4114 68.8356 57.0024 68.9616 57.7575C69.0876 58.5128 69.7741 59.1031 70.5784 59.5494C71.414 60.013 72.5522 60.4217 73.9032 60.7728C76.5077 61.4495 80.0145 61.9402 83.9492 62.1541L86.1838 75.5504L86.2661 76.0436H86.7661H94.2575H94.7575L94.6753 75.5504Z" fill="#898D9E" stroke="#5C627F"/>
<path id="Vector_21" d="M90.552 52.8289L89.8514 48.6284H99.5426L98.437 42.0001H71.5358L72.6414 48.6284H82.3599L83.0606 52.8289C74.9831 53.2151 69.1395 54.8268 69.4616 56.7575C69.7837 58.6883 76.1564 60.2899 84.3712 60.6861L86.6838 74.5504H94.1753L91.8627 60.6861C99.9407 60.3034 105.784 58.6916 105.462 56.7575C105.139 54.8235 98.7651 53.2151 90.552 52.8289ZM87.9074 59.4303C79.0913 59.4303 71.7197 58.0872 71.4498 56.4688C71.2173 55.0753 76.229 53.9068 83.1814 53.5945L83.9729 58.3391C85.1873 58.3928 86.4454 58.423 87.7326 58.423C89.0198 58.423 90.2747 58.3928 91.4643 58.3391L90.6729 53.5945C97.7296 53.9068 103.131 55.0753 103.363 56.4688C103.65 58.104 96.7236 59.4303 87.9074 59.4303Z" fill="#898D9E"/>
<path id="Vector_22" d="M90.552 51.8289L89.8514 47.6284H99.5426L98.437 41.0001H71.5358L72.6414 47.6284H82.3599L83.0606 51.8289C74.9831 52.2151 69.1395 53.8268 69.4616 55.7575C69.7837 57.6883 76.1564 59.2899 84.3712 59.6861L86.6838 73.5504H94.1753L91.8627 59.6861C99.9407 59.3034 105.784 57.6916 105.462 55.7575C105.139 53.8235 98.7651 52.2151 90.552 51.8289ZM87.9074 58.4303C79.0913 58.4303 71.7197 57.0872 71.4498 55.4688C71.2173 54.0753 76.229 52.9068 83.1814 52.5945L83.9729 57.3391C85.1873 57.3928 86.4454 57.423 87.7326 57.423C89.0198 57.423 90.2747 57.3928 91.4643 57.3391L90.6729 52.5945C97.7296 52.9068 103.131 54.0753 103.363 55.4688C103.65 57.104 96.7236 58.4303 87.9074 58.4303Z" fill="#898D9E"/>
<path id="Vector_23" d="M92.552 51.8289L91.8514 47.6284H101.543L100.437 41.0001H73.5358L74.6414 47.6284H84.3599L85.0606 51.8289C76.9831 52.2151 71.1395 53.8268 71.4616 55.7575C71.7837 57.6883 78.1564 59.2899 86.3712 59.6861L88.6838 73.5504H96.1753L93.8627 59.6861C101.941 59.3034 107.784 57.6916 107.462 55.7575C107.139 53.8235 100.765 52.2151 92.552 51.8289ZM89.9074 58.4303C81.0913 58.4303 73.7197 57.0872 73.4498 55.4688C73.2173 54.0753 78.229 52.9068 85.1814 52.5945L85.9729 57.3391C87.1873 57.3928 88.4454 57.423 89.7326 57.423C91.0198 57.423 92.2747 57.3928 93.4643 57.3391L92.6729 52.5945C99.7296 52.9068 105.131 54.0753 105.363 55.4688C105.65 57.104 98.7236 58.4303 89.9074 58.4303Z" fill="#BABABA"/>
</g>
</g>
</g>
</g>
<g id="Group_49">
<g id="Group_50">
<g id="Group_51">
<path id="Vector_24" d="M119.606 61.0148C118.873 42.9212 104.627 26.8691 87.8051 25.1321C78.0032 24.1412 69.4501 28.2185 64.2178 35.3712C69.3584 30.9169 76.2224 28.6228 83.8672 29.3839C100.689 31.1209 114.935 47.173 115.668 65.2667C115.957 72.7933 113.871 79.5128 110.046 84.6587C116.286 79.3419 120.024 70.88 119.606 61.0148Z" fill="#5C6280"/>
</g>
</g>
</g>
<g id="Group_52">
<g id="Group_53">
<g id="Group_54">
<path id="Vector_25" d="M87.674 102.116C81.184 100.92 75.0239 98.1485 69.5631 94.2572L59.1006 100.478C64.5629 104.408 70.7213 107.14 77.2114 108.336L87.674 102.116Z" fill="#5C6280"/>
</g>
</g>
</g>
<g id="Group_55">
<g id="Group_56">
<g id="Group_57">
<path id="Vector_26" d="M60.045 85.4441C55.0132 79.5054 51.1622 72.4022 49.1486 64.7074L38.71 70.9138C40.8032 78.6446 44.5897 85.7247 49.6213 91.6632L60.045 85.4441Z" fill="#5C6280"/>
</g>
</g>
</g>
<g id="Group_58">
<g id="Group_59">
<g id="Group_60">
<path id="Vector_27" d="M48.5231 41.6365L38.1386 47.8541C37.2292 51.6381 36.8763 55.6745 37.0379 59.8864C37.0648 60.5883 37.1308 61.2887 37.1968 61.9892L47.5827 55.8106C47.5168 55.1102 47.4883 54.3692 47.4614 53.667C47.2998 49.4554 47.6527 45.419 48.5231 41.6365Z" fill="#5C6280"/>
</g>
</g>
</g>
</g>
<g id="Group_61">
<g id="Group_62">
<path id="Vector_28" d="M61.6426 42.6327C61.8427 42.1982 62.46 42.2039 62.6586 42.6403C63.6829 44.8911 64.5666 46.7215 64.7226 46.6579C64.8646 46.6 64.226 44.6758 63.3976 42.3525C63.2368 41.9016 63.6742 41.4671 64.1197 41.6376C68.6607 43.3747 72.8318 44.8848 72.9487 44.6051C73.061 44.3362 69.0701 42.3735 64.6638 40.3138C64.2309 40.1114 64.2346 39.4915 64.6683 39.2932C66.8927 38.2759 68.7091 37.3945 68.6452 37.2376C68.5872 37.095 66.6738 37.731 64.3638 38.5566C63.9154 38.7168 63.4817 38.2762 63.65 37.8291C68.0475 26.1482 67.5013 26.0612 62.3311 37.2786C62.1309 37.713 61.5138 37.7074 61.3152 37.2711C60.2965 35.0332 59.4161 33.2049 59.2744 33.2627C59.1185 33.3263 59.7576 35.2569 60.5912 37.5635C60.7542 38.0147 60.3168 38.4513 59.8701 38.2806C55.3381 36.549 51.149 35.0418 51.0367 35.3106C50.9198 35.5902 54.9252 37.5483 59.3249 39.6036C59.7575 39.8057 59.7544 40.4248 59.3215 40.6238C57.0911 41.6495 55.2704 42.5304 55.3285 42.6731C55.3922 42.8298 57.3114 42.1935 59.6074 41.3554C60.0562 41.1916 60.4933 41.6325 60.3245 42.0814C55.977 53.6412 56.4074 54.0014 61.6426 42.6327Z" fill="white"/>
</g>
</g>
</g>
</g>
<g id="Group_63" opacity="0.7">
<g id="Group_64">
<path id="Vector_29" d="M80.4344 81.1458C84.305 83.4468 87.7429 84.4747 86.9116 86.0488C86.089 87.6063 82.227 87.0557 78.3564 84.7547C74.4859 82.4538 72.6458 79.3155 73.4684 77.758C74.2997 76.1839 76.5639 78.8449 80.4344 81.1458Z" fill="white"/>
</g>
</g>
<g id="Group_65" opacity="0.7">
<g id="Group_66">
<path id="Vector_30" d="M68.9796 73.2376C69.6771 72.6932 70.8555 73.0413 71.6134 73.991C72.3712 74.9407 72.4274 76.1398 71.7299 76.6842C71.0467 77.2173 69.8804 76.8847 69.1226 75.935C68.3647 74.9852 68.2964 73.7708 68.9796 73.2376Z" fill="white"/>
</g>
</g>
</g>
</g>
<g id="_x35_9_3">
<g id="Group_67">
<g id="Group_68">
<g id="Group_69">
<g id="Group_70">
<g id="Group_71">
<g id="Group_72">
<g id="Group_73">
<path id="Vector_31" d="M58.399 101.36C53.5803 104.219 47.773 105.583 41.4971 104.923C40.6522 104.835 39.8364 104.716 38.9892 104.568C33.9957 103.648 29.2559 101.516 25.0542 98.5218C22.3665 96.6114 19.8751 94.3331 17.7322 91.7407C13.8605 87.1713 10.8975 81.7059 9.34811 75.7853C8.72168 73.5555 8.35261 71.2756 8.14268 68.9398C8.09192 68.4009 8.07005 67.8307 8.04932 67.2905C7.92499 64.0499 8.19651 60.9442 8.86619 58.0338C10.7228 50.0292 15.402 43.539 21.8075 39.7473L13.7874 44.5325C7.38182 48.3243 2.70248 54.8144 0.876069 62.8178C0.17635 65.7294 -0.0951693 68.8351 0.0291653 72.0758C0.0498871 72.6159 0.100644 73.1548 0.151401 73.6938C0.331117 76.0307 0.749789 78.3286 1.31634 80.5607C2.92694 86.509 5.84039 91.9567 9.71186 96.5259C11.8549 99.1182 14.3163 101.398 17.004 103.308C27.0993 110.572 40.1149 112.219 50.3488 106.146L58.399 101.36Z" fill="#4B5067"/>
</g>
</g>
</g>
<g id="Group_74">
<g id="Group_75">
<g id="Group_76">
<path id="Vector_32" d="M72.1273 73.8176C71.3687 54.8246 56.4179 37.9689 38.7086 36.1541C21.0303 34.3681 7.29181 48.3278 8.04942 67.2905C8.80818 86.2834 23.789 103.138 41.4972 104.923C59.1764 106.739 72.886 92.8103 72.1273 73.8176Z" fill="#898D9E"/>
</g>
</g>
<g id="Group_77">
<g id="Group_78">
<path id="Vector_33" d="M38.5375 37.7703C22.8297 35.8982 8.90612 48.4734 9.66225 67.2229C10.3776 85.4112 24.7345 101.615 41.6538 103.323C58.8482 104.962 71.2155 91.4963 70.5062 73.8933C69.7905 55.705 55.4336 39.5015 38.5375 37.7703ZM40.9381 97.3446C27.2276 95.9598 15.5942 82.8953 14.994 68.2383C14.4274 53.7258 24.6876 42.4756 39.2531 43.7254C52.9637 45.1333 64.5739 58.2206 65.1741 72.8778C65.7799 88.311 54.2637 98.8262 40.9381 97.3446Z" fill="#6D738E"/>
</g>
</g>
</g>
<g id="Group_79">
<g id="Group_80">
<g id="Group_81">
<path id="Vector_34" d="M63.5585 72.9442C62.9943 59.0224 52.0328 46.6715 39.0899 45.3349C26.1179 44.0296 16.0522 54.2422 16.6164 68.164C17.1806 82.0858 28.142 94.4368 41.1138 95.7421C54.0568 97.0786 64.1215 86.836 63.5585 72.9442Z" fill="#4B5067"/>
<g id="Group 178_3">
<path id="Vector_35" d="M29.1397 69.2782C30.6076 68.9238 32.6843 68.6539 35.118 68.5226L35.6405 71.6549L35.6834 71.9119C33.6645 71.8036 31.8479 71.6023 30.3824 71.3376C29.2522 71.1334 28.3565 70.896 27.7447 70.6465C27.4369 70.5209 27.2306 70.4041 27.1068 70.3072C27.0493 70.2621 27.0218 70.2314 27.0095 70.2149C27.0142 70.2033 27.0241 70.1846 27.0445 70.1583C27.0997 70.0869 27.2078 69.9936 27.3933 69.8882C27.7632 69.6778 28.3502 69.4688 29.1397 69.2782ZM47.5671 71.3424C46.1883 71.6065 44.4351 71.8064 42.4478 71.9135L42.4047 71.6549L41.8822 68.5226C44.3597 68.6539 46.5264 68.9238 48.1126 69.2782C48.9656 69.4688 49.6223 69.6778 50.0624 69.8882C50.2831 69.9936 50.4223 70.0869 50.5014 70.1583C50.533 70.1868 50.5493 70.2065 50.5573 70.2177C50.5516 70.2334 50.5354 70.265 50.4909 70.3129C50.4009 70.4097 50.2351 70.5266 49.9702 70.6523C49.4438 70.902 48.6287 71.139 47.5671 71.3424ZM50.5641 70.229C50.564 70.2291 50.5635 70.2282 50.5629 70.2264C50.5638 70.2281 50.5641 70.229 50.5641 70.229ZM50.5599 70.2088C50.5599 70.207 50.5601 70.2061 50.5602 70.2061C50.5603 70.2061 50.5602 70.207 50.5599 70.2088ZM27.0005 70.2006C27.0005 70.2006 27.0009 70.2014 27.0015 70.2029C27.0007 70.2014 27.0004 70.2006 27.0005 70.2006ZM27.0057 70.2265C27.0057 70.2282 27.0055 70.229 27.0054 70.229C27.0053 70.229 27.0054 70.2282 27.0057 70.2265ZM44.4905 84.1284L42.7893 73.9291C45.7197 73.7656 48.2605 73.3907 50.079 72.8725C51.0331 72.6006 51.8158 72.2817 52.3522 71.9157C52.863 71.5671 53.282 71.0823 53.1746 70.4381C53.0672 69.794 52.487 69.3094 51.86 68.9608C51.202 68.5949 50.3134 68.2763 49.2689 68.0046C47.2782 67.4867 44.6121 67.1118 41.6246 66.9472L41.2459 64.6764H48.2026H48.7026L48.6203 64.1832L47.7696 59.0833L47.6874 58.5901H47.1874H26.4887H25.9887L26.071 59.0833L26.9217 64.1832L27.004 64.6764H27.504H34.4817L34.8605 66.9472C31.9302 67.1119 29.3894 67.4874 27.571 68.0056C26.6169 68.2774 25.8343 68.5961 25.2979 68.9618C24.7873 69.3099 24.3677 69.7942 24.4751 70.4381C24.5825 71.082 25.1632 71.5658 25.7897 71.9134C26.4476 72.2784 27.336 72.5963 28.3802 72.8677C30.3708 73.3849 33.0369 73.7604 36.025 73.9284L37.7264 84.1284L37.8086 84.6216H38.3086H44.0728H44.5728L44.4905 84.1284Z" fill="#898D9E" stroke="#5C627F"/>
<path id="Vector_36" d="M41.2027 66.6459L40.6636 63.4138H48.1203L47.2696 58.3138H26.571L27.4217 63.4138H34.8994L35.4385 66.6459C29.2235 66.943 24.7273 68.1831 24.9751 69.6687C25.2229 71.1542 30.1263 72.3866 36.447 72.6914L38.2264 83.359H43.9905L42.2111 72.6914C48.4266 72.3969 52.9228 71.1568 52.6746 69.6687C52.4264 68.1805 47.5221 66.943 41.2027 66.6459ZM39.1679 71.7252C32.3845 71.7252 26.7126 70.6917 26.5048 69.4465C26.326 68.3743 30.1821 67.4752 35.5316 67.2349L36.1405 70.8855C37.0749 70.9269 38.043 70.9501 39.0333 70.9501C40.0237 70.9501 40.9893 70.9269 41.9047 70.8855L41.2957 67.2349C46.7253 67.4752 50.8814 68.3743 51.0602 69.4465C51.2806 70.7047 45.9513 71.7252 39.1679 71.7252Z" fill="#898D9E"/>
<path id="Vector_37" d="M41.2027 65.8763L40.6636 62.6443H48.1203L47.2696 57.5443H26.571L27.4217 62.6443H34.8994L35.4385 65.8763C29.2235 66.1735 24.7273 67.4136 24.9751 68.8991C25.2229 70.3847 30.1263 71.617 36.447 71.9219L38.2264 82.5895H43.9905L42.2111 71.9219C48.4266 71.6274 52.9228 70.3873 52.6746 68.8991C52.4264 67.411 47.5221 66.1735 41.2027 65.8763ZM39.1679 70.9556C32.3845 70.9556 26.7126 69.9222 26.5048 68.6769C26.326 67.6048 30.1821 66.7057 35.5316 66.4654L36.1405 70.116C37.0749 70.1573 38.043 70.1806 39.0333 70.1806C40.0237 70.1806 40.9893 70.1573 41.9047 70.116L41.2957 66.4654C46.7253 66.7057 50.8814 67.6048 51.0602 68.6769C51.2806 69.9351 45.9513 70.9556 39.1679 70.9556Z" fill="#898D9E"/>
<path id="Vector_38" d="M42.7418 65.8763L42.2027 62.6443H49.6594L48.8087 57.5443H28.1101L28.9608 62.6443H36.4385L36.9776 65.8763C30.7625 66.1735 26.2664 67.4136 26.5141 68.8991C26.7619 70.3847 31.6653 71.617 37.986 71.9219L39.7654 82.5895H45.5296L43.7502 71.9219C49.9657 71.6274 54.4619 70.3873 54.2136 68.8991C53.9654 67.411 49.0612 66.1735 42.7418 65.8763ZM40.7069 70.9556C33.9235 70.9556 28.2516 69.9222 28.0439 68.6769C27.8651 67.6048 31.7212 66.7057 37.0706 66.4654L37.6795 70.116C38.614 70.1573 39.582 70.1806 40.5724 70.1806C41.5628 70.1806 42.5284 70.1573 43.4437 70.116L42.8348 66.4654C48.2644 66.7057 52.4205 67.6048 52.5993 68.6769C52.8197 69.9351 47.4903 70.9556 40.7069 70.9556Z" fill="#BABABA"/>
</g>
</g>
</g>
</g>
<g id="Group_82">
<g id="Group_83">
<g id="Group_84">
<path id="Vector_39" d="M63.5588 72.944C62.9946 59.0222 52.0332 46.6712 39.0902 45.3347C31.5484 44.5723 24.9673 47.7095 20.9414 53.213C24.8967 49.7857 30.1781 48.0206 36.0603 48.6062C49.0034 49.9427 59.9649 62.2937 60.5291 76.2155C60.7513 82.0067 59.1465 87.1769 56.2033 91.1363C61.0046 87.0454 63.8801 80.5345 63.5588 72.944Z" fill="#5C6280"/>
</g>
</g>
</g>
<g id="Group_85">
<g id="Group_86">
<g id="Group_87">
<path id="Vector_40" d="M38.9901 104.568C33.9966 103.648 29.2568 101.516 25.0551 98.5217L17.0049 103.308C21.2077 106.332 25.9462 108.434 30.9399 109.355L38.9901 104.568Z" fill="#5C6280"/>
</g>
</g>
</g>
<g id="Group_88">
<g id="Group_89">
<g id="Group_90">
<path id="Vector_41" d="M17.7313 91.7407C13.8596 87.1713 10.8966 81.7059 9.34721 75.7853L1.31543 80.5606C2.92604 86.509 5.83948 91.9566 9.71095 96.5259L17.7313 91.7407Z" fill="#5C6280"/>
</g>
</g>
</g>
<g id="Group_91">
<g id="Group_92">
<g id="Group_93">
<path id="Vector_42" d="M8.8662 58.0338L0.876069 62.8178C0.17635 65.7294 -0.0951693 68.8351 0.0291654 72.0758C0.0498865 72.6159 0.100643 73.1549 0.1514 73.6938L8.14268 68.9398C8.09192 68.4009 8.07005 67.8308 8.04932 67.2905C7.92499 64.0499 8.19651 60.9442 8.8662 58.0338Z" fill="#5C6280"/>
</g>
</g>
</g>
</g>
<g id="Group_94">
<g id="Group_95">
<path id="Vector_43" d="M18.9613 58.8003C19.1153 58.4659 19.5902 58.4703 19.743 58.8061C20.5311 60.5379 21.2111 61.9464 21.3311 61.8974C21.4403 61.8528 20.949 60.3723 20.3116 58.5847C20.1879 58.2378 20.5244 57.9034 20.8672 58.0346C24.3612 59.3712 27.5706 60.5331 27.6605 60.3179C27.747 60.111 24.6762 58.6009 21.2859 57.016C20.9528 56.8603 20.9556 56.3833 21.2893 56.2307C23.0008 55.448 24.3984 54.7698 24.3493 54.6492C24.3047 54.5394 22.8325 55.0288 21.055 55.664C20.7101 55.7873 20.3763 55.4483 20.5058 55.1042C23.8894 46.1166 23.4691 46.0497 19.491 54.6807C19.337 55.0149 18.8622 55.0106 18.7094 54.6749C17.9256 52.953 17.2481 51.5462 17.1391 51.5907C17.0192 51.6396 17.5109 53.1251 18.1523 54.8999C18.2777 55.247 17.9411 55.583 17.5975 55.4517C14.1104 54.1193 10.8872 52.9596 10.8007 53.1664C10.7108 53.3816 13.7927 54.8882 17.178 56.4696C17.5108 56.6251 17.5084 57.1015 17.1754 57.2546C15.4592 58.0438 14.0583 58.7216 14.103 58.8314C14.152 58.9519 15.6287 58.4623 17.3953 57.8175C17.7407 57.6914 18.077 58.0307 17.9471 58.376C14.602 67.2705 14.9331 67.5477 18.9613 58.8003Z" fill="white"/>
</g>
</g>
</g>
</g>
<g id="Group_96" opacity="0.7">
<g id="Group_97">
<path id="Vector_44" d="M33.4195 88.4334C36.3976 90.2038 39.0429 90.9947 38.4032 92.2059C37.7703 93.4043 34.7988 92.9806 31.8206 91.2102C28.8425 89.4398 27.4267 87.0251 28.0596 85.8267C28.6993 84.6155 30.4414 86.663 33.4195 88.4334Z" fill="white"/>
</g>
</g>
<g id="Group_98" opacity="0.7">
<g id="Group_99">
<path id="Vector_45" d="M24.6062 82.3486C25.1429 81.9298 26.0496 82.1976 26.6327 82.9283C27.2158 83.6591 27.259 84.5817 26.7223 85.0005C26.1967 85.4108 25.2993 85.1548 24.7162 84.4241C24.1331 83.6933 24.0805 82.7589 24.6062 82.3486Z" fill="white"/>
</g>
</g>
</g>
</g>
<ellipse id="Ellipse 122" cx="77.5" cy="123.5" rx="73.5" ry="7.5" fill="#1A1D29"/>
</g>
</svg>
