<svg width="231" height="142" viewBox="0 0 231 142" fill="none" xmlns="http://www.w3.org/2000/svg">
<ellipse cx="115.501" cy="106" rx="54.5" ry="8.5" fill="#31384F" stroke="#3C4666" stroke-width="2"/>
<path d="M115.143 112C76.3428 113.2 66.9762 107.167 67.1428 104C71.1428 102 70.6429 97 67.1428 91C64.3428 86.2 68.3095 79.3333 70.6429 76.5C67.3095 70.8333 61.5429 55.5 65.1429 39.5C70.7429 10.3 100.81 1 115.143 0V112Z" fill="#5C2095"/>
<path d="M115.143 112C153.943 113.2 163.309 107.167 163.143 104C159.143 102 159.643 97 163.143 91C165.943 86.2 161.976 79.3333 159.643 76.5C162.976 70.8333 168.743 55.5 165.143 39.5C159.543 10.3 129.476 1 115.143 0V112Z" fill="#5C2095"/>
<mask id="mask0_45_5370" style="mask-type:alpha" maskUnits="userSpaceOnUse" x="64" y="0" width="103" height="113">
<path d="M115.143 112C76.3428 113.2 66.9762 107.167 67.1428 104C71.1428 102 70.6429 97 67.1428 91C64.3428 86.2 68.3095 79.3333 70.6429 76.5C67.3095 70.8333 61.5429 55.5 65.1429 39.5C70.7429 10.3 100.81 1 115.143 0V112Z" fill="#5C2095"/>
<path d="M115.143 112C153.943 113.2 163.309 107.167 163.143 104C159.143 102 159.643 97 163.143 91C165.943 86.2 161.976 79.3333 159.643 76.5C162.976 70.8333 168.743 55.5 165.143 39.5C159.543 10.3 129.476 1 115.143 0V112Z" fill="#5C2095"/>
</mask>
<g mask="url(#mask0_45_5370)">
<circle cx="86.501" cy="15" r="5.5" fill="#954A83"/>
<circle cx="97.501" cy="19" r="3.5" fill="#954A83"/>
<circle cx="82.501" cy="25" r="3.5" fill="#954A83"/>
<circle cx="1.5" cy="1.5" r="1.5" transform="matrix(-1 0 0 1 93.001 21.5)" fill="#954A83"/>
<circle cx="0.5" cy="0.5" r="0.5" transform="matrix(-1 0 0 1 98.001 13.5)" fill="#954A83"/>
<circle cx="0.5" cy="0.5" r="0.5" transform="matrix(-1 0 0 1 98.001 9.5)" fill="#954A83"/>
<circle cx="1.5" cy="1.5" r="1.5" transform="matrix(-1 0 0 1 80.001 30.5)" fill="#954A83"/>
<circle cx="1.5" cy="1.5" r="1.5" transform="matrix(-1 0 0 1 88.001 28.5)" fill="#954A83"/>
<path d="M157.501 35.5C112.301 12.7 81.3348 32.6666 71.5014 45.5C67.1681 53.1666 57.8014 74.3999 55.0014 97.9999C52.2014 121.6 126.835 119.833 164.501 116C181.001 98.6666 202.701 58.3 157.501 35.5Z" fill="#58218C"/>
<path d="M77.001 113.5C90.1676 107.333 124.001 99 154.001 115C152.401 116.6 102.001 114.667 77.001 113.5Z" fill="#5E2A8E"/>
<path d="M151.501 62C124.301 72.8 84.5014 57.5 68.0014 48.5L67.0014 47.5C62.3347 47.1666 54.3014 50.9 59.5014 68.5C64.7014 86.1 125.335 87.5 155.001 86C165.168 73.5 178.701 51.2 151.501 62Z" fill="#542481"/>
<path d="M100.001 -1C87.1676 8.16667 65.201 31.5 80.001 51.5C85.001 58.5 75.001 62.5 81.501 68C86.1272 71.9145 88.7272 77.0953 95.0693 81.0189C98.7767 82.3541 102.222 83.7608 105.001 85C100.821 83.991 97.6382 82.6081 95.0693 81.0189C82.3223 76.428 66.48 72.6827 64.001 79.5C60.801 88.3 59.3343 50.1667 59.001 30C66.501 20.8333 81.801 2.5 83.001 2.5C84.201 2.5 94.1676 -0.5 99.001 -2L100.001 -1Z" fill="#4F227A"/>
<path d="M130.001 -0.5C142.834 8.66667 164.801 32 150.001 52C145.001 59 155.001 63 148.501 68.5C143.875 72.4145 141.275 77.5953 134.933 81.5189C131.225 82.8541 127.78 84.2608 125.001 85.5C129.181 84.491 132.364 83.1081 134.933 81.5189C147.68 76.928 163.522 73.1827 166.001 80C169.201 88.8 170.668 50.6667 171.001 30.5C163.501 21.3333 148.201 3 147.001 3C145.801 3 135.834 0 131.001 -1.5L130.001 -0.5Z" fill="#4F227A"/>
<circle cx="1.5" cy="1.5" r="1.5" transform="matrix(-1 0 0 1 97.001 27.5)" fill="#954A83"/>
<circle cx="1.5" cy="1.5" r="1.5" transform="matrix(-1 0 0 1 94.001 7.5)" fill="#954A83"/>
<circle cx="2.5" cy="2.5" r="2.5" transform="matrix(-1 0 0 1 96.001 32.5)" fill="#954A83"/>
<circle cx="2.5" cy="2.5" r="2.5" transform="matrix(-1 0 0 1 98.001 1.5)" fill="#954A83"/>
<circle cx="2.5" cy="2.5" r="2.5" transform="matrix(-1 0 0 1 85.001 34.5)" fill="#954A83"/>
<circle cx="0.5" cy="0.5" r="0.5" transform="matrix(-1 0 0 1 78.001 35.5)" fill="#954A83"/>
<circle cx="0.5" cy="0.5" r="0.5" transform="matrix(-1 0 0 1 95.001 13.5)" fill="#954A83"/>
<circle cx="0.5" cy="0.5" r="0.5" transform="matrix(-1 0 0 1 78.001 40.5)" fill="#954A83"/>
</g>
<path d="M73.0014 69.5C73.0014 69.5 101.501 85 115.001 85V100.5C90.0013 99.5 75.5014 107.5 75.5014 107.5C75.5014 107.5 71.0305 96.4652 70.5014 89C69.9586 81.3417 73.0014 69.5 73.0014 69.5Z" fill="#3E304A"/>
<path d="M157.001 69.5C157.001 69.5 130.001 86 115.001 85V100.5C140.001 99.5 154.501 107.5 154.501 107.5C154.501 107.5 158.972 96.4652 159.501 89C160.044 81.3417 157.001 69.5 157.001 69.5Z" fill="#3E304A"/>
<mask id="mask1_45_5370" style="mask-type:alpha" maskUnits="userSpaceOnUse" x="70" y="69" width="90" height="39">
<path d="M73.0014 69.5C73.0014 69.5 101.501 85 115.001 85V100.5C90.0013 99.5 75.5014 107.5 75.5014 107.5C75.5014 107.5 71.0305 96.4652 70.5014 89C69.9586 81.3417 73.0014 69.5 73.0014 69.5Z" fill="#3E304A"/>
<path d="M157.001 69.5C157.001 69.5 130.001 86 115.001 85V100.5C140.001 99.5 154.501 107.5 154.501 107.5C154.501 107.5 158.972 96.4652 159.501 89C160.044 81.3417 157.001 69.5 157.001 69.5Z" fill="#3E304A"/>
</mask>
<g mask="url(#mask1_45_5370)">
<path d="M86.501 82.5C77.301 78.9 71.001 85.6667 69.001 89.5L68.501 90L66.501 86L71.501 64.5L115.501 81.5V96.5C115.501 96.5 131.501 94 114.001 96.5C96.501 99 98.001 87 86.501 82.5Z" fill="#3A2A47"/>
<path d="M144.001 82.5C153.201 78.9 159.501 85.6667 161.501 89.5L162.001 90L164.001 86L159.001 64.5L115.001 81.5V96.5C115.001 96.5 99.001 94 116.501 96.5C134.001 99 132.501 87 144.001 82.5Z" fill="#3A2A47"/>
</g>
<path d="M97.4147 95.4583C94.6993 89.0387 86.5204 77.9027 75.5277 84.7149C75.8625 90.259 80.7087 100.169 97.4147 95.4583Z" fill="#372B41"/>
<path d="M95.4916 94.3088C93.2659 89.1641 86.5253 80.255 77.3686 85.7763C77.6219 90.2284 81.601 98.1678 95.4916 94.3088Z" fill="#C09808"/>
<path d="M133.04 95.4583C135.756 89.0387 143.935 77.9027 154.927 84.7149C154.593 90.259 149.746 100.169 133.04 95.4583Z" fill="#372B41"/>
<path d="M134.963 94.3088C137.189 89.1641 143.93 80.255 153.086 85.7763C152.833 90.2284 148.854 98.1678 134.963 94.3088Z" fill="#C09808"/>
<path d="M97.4147 96.5527C94.6993 90.1332 86.5204 78.9971 75.5277 85.8094C75.8625 91.3535 80.7087 101.264 97.4147 96.5527Z" fill="#302639"/>
<path d="M95.4916 95.4033C93.2659 90.2586 86.5253 81.3495 77.3686 86.8708C77.6219 91.3229 81.601 99.2623 95.4916 95.4033Z" fill="#120F02"/>
<path d="M133.04 96.5528C135.756 90.1332 143.935 78.9971 154.927 85.8094C154.593 91.3535 149.746 101.264 133.04 96.5528Z" fill="#302639"/>
<path d="M134.963 95.4033C137.189 90.2586 143.93 81.3495 153.086 86.8708C152.833 91.3229 148.854 99.2623 134.963 95.4033Z" fill="#120F02"/>
<path d="M97.4147 95.4583C94.6993 89.0387 86.5204 77.9027 75.5277 84.7149C75.8625 90.259 80.7087 100.169 97.4147 95.4583Z" fill="#372B41"/>
<path d="M95.4916 94.3088C93.2659 89.1641 86.5253 80.255 77.3686 85.7763C77.6219 90.2284 81.601 98.1678 95.4916 94.3088Z" fill="#C09808"/>
<path d="M133.04 95.4583C135.756 89.0387 143.935 77.9027 154.927 84.7149C154.593 90.259 149.746 100.169 133.04 95.4583Z" fill="#372B41"/>
<path d="M134.963 94.3088C137.189 89.1641 143.93 80.255 153.086 85.7763C152.833 90.2284 148.854 98.1678 134.963 94.3088Z" fill="#C09808"/>
<ellipse cx="10.5" cy="3.5" rx="10.5" ry="3.5" transform="matrix(-1 0 0 1 51 62)" fill="#31384F" stroke="#3C4666" stroke-width="2"/>
<path d="M34.4558 66.0189C40.3085 68.5941 45.8686 67.0919 47.9171 66.0189C47.4293 64.1655 44.1127 62.2146 45.2833 56.0692C46.1334 51.6065 66.6169 40.4409 63.7195 28.5613C60.7931 16.5632 42.9422 18.6116 41.7717 25.9276C40.8353 31.7803 45.0882 33.6337 47.3318 33.8288C43.8202 30.9355 43.5275 23.0012 50.8434 25.3423C60.2078 30.3171 49.9655 38.511 40.3085 45.2416C30.6515 51.9723 34.1631 65.7262 34.4558 66.0189Z" fill="#431D67"/>
<mask id="mask2_45_5370" style="mask-type:alpha" maskUnits="userSpaceOnUse" x="33" y="20" width="31" height="48">
<path d="M34.4558 66.0189C40.3085 68.5941 45.8686 67.0919 47.9171 66.0189C47.4293 64.1655 44.1127 62.2146 45.2833 56.0692C46.1334 51.6065 66.6169 40.4409 63.7195 28.5613C60.7931 16.5632 42.9422 18.6116 41.7717 25.9276C40.8353 31.7803 45.0882 33.6337 47.3318 33.8288C43.8202 30.9355 43.5275 23.0012 50.8434 25.3423C60.2078 30.3171 49.9655 38.511 40.3085 45.2416C30.6515 51.9723 34.1631 65.7262 34.4558 66.0189Z" fill="#5C2095"/>
</mask>
<g mask="url(#mask2_45_5370)">
<ellipse cx="1.46319" cy="0.877911" rx="1.46319" ry="0.877911" transform="matrix(-0.979379 -0.202032 -0.202032 0.979379 36.6396 63.0387)" fill="#623557"/>
<ellipse cx="1.46319" cy="0.877911" rx="1.46319" ry="0.877911" transform="matrix(-0.993434 0.114408 0.114408 0.993434 36.292 57.4575)" fill="#623557"/>
<ellipse cx="1.46319" cy="0.877911" rx="1.46319" ry="0.877911" transform="matrix(-0.993434 0.114408 0.114408 0.993434 40.3887 52.7753)" fill="#623557"/>
<ellipse cx="1.46319" cy="0.877911" rx="1.46319" ry="0.877911" transform="matrix(-0.885506 -0.464628 -0.464628 0.885506 38.834 50.6234)" fill="#623557"/>
<ellipse cx="2.06749" cy="1.24049" rx="2.06749" ry="1.24049" transform="matrix(-0.885506 -0.464628 -0.464628 0.885506 44.1006 50.0144)" fill="#623557"/>
<ellipse cx="1.91294" cy="1.14776" rx="1.91294" ry="1.14776" transform="matrix(-0.984784 -0.17378 -0.17378 0.984784 42.3447 45.2465)" fill="#623557"/>
<ellipse cx="1.196" cy="0.717597" rx="1.196" ry="0.717597" transform="matrix(-0.984784 -0.17378 -0.17378 0.984784 47.0273 46.1677)" fill="#623557"/>
<ellipse cx="0.503637" cy="0.302182" rx="0.503637" ry="0.302182" transform="matrix(-0.984784 -0.17378 -0.17378 0.984784 46.4424 44.7566)" fill="#623557"/>
<ellipse cx="0.503637" cy="0.302182" rx="0.503637" ry="0.302182" transform="matrix(-0.984784 -0.17378 -0.17378 0.984784 47.0273 43.0007)" fill="#623557"/>
<ellipse cx="0.503637" cy="0.302182" rx="0.503637" ry="0.302182" transform="matrix(-0.984784 -0.17378 -0.17378 0.984784 43.5156 48.2682)" fill="#623557"/>
<ellipse cx="0.503637" cy="0.302182" rx="0.503637" ry="0.302182" transform="matrix(-0.984784 -0.17378 -0.17378 0.984784 43.5156 45.3418)" fill="#623557"/>
<ellipse cx="1.196" cy="0.717597" rx="1.196" ry="0.717597" transform="matrix(-0.984784 -0.17378 -0.17378 0.984784 45.2715 42.656)" fill="#623557"/>
<ellipse cx="1.196" cy="0.717597" rx="1.196" ry="0.717597" transform="matrix(-0.960533 -0.278166 -0.278166 0.960533 49.9541 44.0763)" fill="#623557"/>
<ellipse cx="2.11277" cy="1.26766" rx="2.11277" ry="1.26766" transform="matrix(-0.960533 -0.278166 -0.278166 0.960533 49.3682 39.9042)" fill="#623557"/>
<ellipse cx="2.11277" cy="1.26766" rx="2.11277" ry="1.26766" transform="matrix(-0.99549 -0.0948635 -0.0948635 0.99549 52.6045 35.8802)" fill="#623557"/>
<ellipse cx="2.11277" cy="1.26766" rx="2.11277" ry="1.26766" transform="matrix(-0.99549 -0.0948635 -0.0948635 0.99549 55.5723 31.7434)" fill="#623557"/>
<ellipse cx="1.71423" cy="1.02854" rx="1.71423" ry="1.02854" transform="matrix(-0.99549 -0.0948635 -0.0948635 0.99549 55.9727 28.7949)" fill="#623557"/>
<ellipse cx="1.71423" cy="1.02854" rx="1.71423" ry="1.02854" transform="matrix(-0.880771 0.473542 0.473542 0.880771 54.2471 25.2675)" fill="#623557"/>
<ellipse cx="1.71423" cy="1.02854" rx="1.71423" ry="1.02854" transform="matrix(-0.880771 0.473542 0.473542 0.880771 58.3438 22.3411)" fill="#623557"/>
<ellipse cx="2.11277" cy="1.26766" rx="2.11277" ry="1.26766" transform="matrix(-0.960533 -0.278166 -0.278166 0.960533 54.6357 41.66)" fill="#623557"/>
<ellipse cx="2.11277" cy="1.26766" rx="2.11277" ry="1.26766" transform="matrix(-0.99549 -0.0948635 -0.0948635 0.99549 58.1064 36.6268)" fill="#623557"/>
<ellipse cx="2.11277" cy="1.26766" rx="2.11277" ry="1.26766" transform="matrix(-0.99549 -0.0948635 -0.0948635 0.99549 61.0742 32.49)" fill="#623557"/>
<ellipse cx="2.11277" cy="1.26766" rx="2.11277" ry="1.26766" transform="matrix(-0.941516 0.336969 0.336969 0.941516 60.8047 27.0233)" fill="#623557"/>
<ellipse cx="0.763852" cy="0.458311" rx="0.763852" ry="0.458311" transform="matrix(-0.960533 -0.278166 -0.278166 0.960533 51.124 39.1537)" fill="#623557"/>
<ellipse cx="0.763852" cy="0.458311" rx="0.763852" ry="0.458311" transform="matrix(-0.99549 -0.0948635 -0.0948635 0.99549 54.1904 34.8167)" fill="#623557"/>
<ellipse cx="0.763852" cy="0.458311" rx="0.763852" ry="0.458311" transform="matrix(-0.99549 -0.0948635 -0.0948635 0.99549 56.9766 34.1915)" fill="#623557"/>
<ellipse cx="0.763852" cy="0.458311" rx="0.763852" ry="0.458311" transform="matrix(-0.99549 -0.0948635 -0.0948635 0.99549 57.5625 31.2651)" fill="#623557"/>
<ellipse cx="0.763852" cy="0.458311" rx="0.763852" ry="0.458311" transform="matrix(-0.941516 0.336969 0.336969 0.941516 57.1055 27.406)" fill="#623557"/>
<ellipse cx="0.763852" cy="0.692265" rx="0.763852" ry="0.692265" transform="matrix(-0.941516 0.336969 0.336969 0.941516 54.7549 23.5117)" fill="#623557"/>
<ellipse cx="1.1983" cy="1.086" rx="1.1983" ry="1.086" transform="matrix(-0.941516 0.336969 0.336969 0.941516 53.8604 20.0682)" fill="#623557"/>
<ellipse cx="1.1983" cy="1.086" rx="1.1983" ry="1.086" transform="matrix(-0.941516 0.336969 0.336969 0.941516 50.9775 23.5117)" fill="#623557"/>
<ellipse cx="0.711245" cy="0.644588" rx="0.711245" ry="0.644588" transform="matrix(-0.941516 0.336969 0.336969 0.941516 49.5195 21.7557)" fill="#623557"/>
<ellipse cx="0.711245" cy="0.644588" rx="0.711245" ry="0.644588" transform="matrix(-0.941516 0.336969 0.336969 0.941516 46.5928 21.1705)" fill="#623557"/>
<ellipse cx="0.711245" cy="0.644588" rx="0.711245" ry="0.644588" transform="matrix(-0.941516 0.336969 0.336969 0.941516 47.7637 24.0969)" fill="#623557"/>
<ellipse cx="0.711245" cy="0.644588" rx="0.711245" ry="0.644588" transform="matrix(-0.941516 0.336969 0.336969 0.941516 46.0078 23.5117)" fill="#623557"/>
<ellipse cx="0.711245" cy="0.644588" rx="0.711245" ry="0.644588" transform="matrix(-0.941516 0.336969 0.336969 0.941516 46.0078 25.8528)" fill="#623557"/>
<ellipse cx="0.376934" cy="0.341608" rx="0.376934" ry="0.341608" transform="matrix(-0.941516 0.336969 0.336969 0.941516 44.4561 25.2675)" fill="#623557"/>
<ellipse cx="0.376934" cy="0.341608" rx="0.376934" ry="0.341608" transform="matrix(-0.941516 0.336969 0.336969 0.941516 43.2852 27.6086)" fill="#623557"/>
<ellipse cx="0.376934" cy="0.341608" rx="0.376934" ry="0.341608" transform="matrix(-0.941516 0.336969 0.336969 0.941516 45.041 28.1938)" fill="#623557"/>
<ellipse cx="0.376934" cy="0.341608" rx="0.376934" ry="0.341608" transform="matrix(-0.941516 0.336969 0.336969 0.941516 44.4561 29.9497)" fill="#623557"/>
<ellipse cx="0.376934" cy="0.341608" rx="0.376934" ry="0.341608" transform="matrix(-0.941516 0.336969 0.336969 0.941516 45.627 31.1202)" fill="#623557"/>
<ellipse cx="0.376934" cy="0.341608" rx="0.376934" ry="0.341608" transform="matrix(-0.941516 0.336969 0.336969 0.941516 46.2119 32.2908)" fill="#623557"/>
<ellipse cx="0.902225" cy="0.541335" rx="0.902225" ry="0.541335" transform="matrix(-0.993434 0.114408 0.114408 0.993434 38.71 58.0427)" fill="#623557"/>
<ellipse cx="0.902225" cy="0.541335" rx="0.902225" ry="0.541335" transform="matrix(-0.954482 -0.298269 -0.298269 0.954482 37.0781 52.7283)" fill="#623557"/>
<ellipse cx="2.39818" cy="1.43891" rx="2.39818" ry="1.43891" transform="matrix(-0.979379 -0.202032 -0.202032 0.979379 40.0039 60.1824)" fill="#623557"/>
<ellipse cx="2.39818" cy="1.43891" rx="2.39818" ry="1.43891" transform="matrix(-0.986159 0.165801 0.165801 0.986159 37.1855 53.9459)" fill="#623557"/>
<path d="M42.6675 52.4827C38.2194 56.6966 41.2043 64.1882 43.2528 67.4072L50.5687 66.5292C47.1546 64.9685 42.609 59.9742 51.7393 52.4827C60.8695 44.9912 63.9325 36.2901 64.3227 32.876C64.6153 29.9496 63.6789 21.8143 55.2509 19.7073C46.823 17.6003 42.8626 22.6337 41.7896 26.1453C43.2528 22.1459 48.7544 17.1906 57.8846 23.5116C69.2975 31.4128 48.2276 47.2152 42.6675 52.4827Z" fill="#34194C"/>
</g>
<path d="M51.9206 20.3226C54.4697 20.1811 60.1306 21.2802 62.3814 26.8082C61.2141 25.0775 57.4876 21.3574 51.9206 20.3226Z" fill="#441E69"/>
<ellipse cx="8.90099" cy="2.58416" rx="8.90099" ry="2.58416" transform="matrix(-1 0 0 1 19.4053 104.832)" fill="#31384F" stroke="#3C4666" stroke-width="2"/>
<path d="M2.04147 107.671C9.12175 110.786 15.848 108.969 18.3261 107.671C17.7361 105.429 13.7239 103.069 15.14 95.6342C16.1684 90.2355 40.948 76.7282 37.4429 62.3569C33.9028 47.8424 12.3079 50.3204 10.8918 59.1708C9.75898 66.2511 14.904 68.4932 17.6181 68.7292C13.3699 65.229 13.0158 55.6307 21.8663 58.4628C33.1946 64.481 20.8042 74.3934 9.12175 82.5357C-2.56071 90.678 1.68745 107.317 2.04147 107.671Z" fill="#5C2095"/>
<mask id="mask3_45_5370" style="mask-type:alpha" maskUnits="userSpaceOnUse" x="1" y="52" width="37" height="58">
<path d="M2.04049 107.671C9.12077 110.786 15.847 108.969 18.3251 107.671C17.7351 105.429 13.7229 103.069 15.139 95.6342C16.1674 90.2355 40.947 76.7282 37.4419 62.3569C33.9018 47.8424 12.3069 50.3204 10.8908 59.1708C9.758 66.2511 14.903 68.4932 17.6171 68.7292C13.3689 65.229 13.0149 55.6307 21.8653 58.4628C33.1937 64.481 20.8032 74.3934 9.12078 82.5357C-2.56169 90.678 1.68648 107.317 2.04049 107.671Z" fill="#5C2095"/>
</mask>
<g mask="url(#mask3_45_5370)">
<ellipse cx="1.77007" cy="1.06204" rx="1.77007" ry="1.06204" transform="matrix(-0.979379 -0.202032 -0.202032 0.979379 4.68262 104.066)" fill="#954A83"/>
<ellipse cx="1.77007" cy="1.06204" rx="1.77007" ry="1.06204" transform="matrix(-0.993434 0.114408 0.114408 0.993434 4.26172 97.3138)" fill="#954A83"/>
<ellipse cx="1.77007" cy="1.06204" rx="1.77007" ry="1.06204" transform="matrix(-0.993434 0.114408 0.114408 0.993434 9.21777 91.6495)" fill="#954A83"/>
<ellipse cx="1.77007" cy="1.06204" rx="1.77007" ry="1.06204" transform="matrix(-0.885506 -0.464628 -0.464628 0.885506 7.33691 89.0463)" fill="#954A83"/>
<ellipse cx="2.50111" cy="1.50067" rx="2.50111" ry="1.50067" transform="matrix(-0.885506 -0.464628 -0.464628 0.885506 13.709 88.3094)" fill="#954A83"/>
<ellipse cx="2.31416" cy="1.38849" rx="2.31416" ry="1.38849" transform="matrix(-0.984784 -0.17378 -0.17378 0.984784 11.585 82.5415)" fill="#954A83"/>
<ellipse cx="1.44684" cy="0.868104" rx="1.44684" ry="0.868104" transform="matrix(-0.984784 -0.17378 -0.17378 0.984784 17.249 83.656)" fill="#954A83"/>
<ellipse cx="0.609268" cy="0.365561" rx="0.609268" ry="0.365561" transform="matrix(-0.984784 -0.17378 -0.17378 0.984784 16.541 81.9489)" fill="#954A83"/>
<ellipse cx="0.609268" cy="0.365561" rx="0.609268" ry="0.365561" transform="matrix(-0.984784 -0.17378 -0.17378 0.984784 17.249 79.8248)" fill="#954A83"/>
<ellipse cx="0.609268" cy="0.365561" rx="0.609268" ry="0.365561" transform="matrix(-0.984784 -0.17378 -0.17378 0.984784 13.001 86.1971)" fill="#954A83"/>
<ellipse cx="0.609268" cy="0.365561" rx="0.609268" ry="0.365561" transform="matrix(-0.984784 -0.17378 -0.17378 0.984784 13.001 82.6569)" fill="#954A83"/>
<ellipse cx="1.44684" cy="0.868104" rx="1.44684" ry="0.868104" transform="matrix(-0.984784 -0.17378 -0.17378 0.984784 15.125 79.408)" fill="#954A83"/>
<ellipse cx="1.44684" cy="0.868104" rx="1.44684" ry="0.868104" transform="matrix(-0.960533 -0.278166 -0.278166 0.960533 20.7891 81.126)" fill="#954A83"/>
<ellipse cx="2.5559" cy="1.53354" rx="2.5559" ry="1.53354" transform="matrix(-0.960533 -0.278166 -0.278166 0.960533 20.0811 76.0789)" fill="#954A83"/>
<ellipse cx="2.5559" cy="1.53354" rx="2.5559" ry="1.53354" transform="matrix(-0.99549 -0.0948635 -0.0948635 0.99549 23.9951 71.2111)" fill="#954A83"/>
<ellipse cx="2.5559" cy="1.53354" rx="2.5559" ry="1.53354" transform="matrix(-0.99549 -0.0948635 -0.0948635 0.99549 27.5859 66.2064)" fill="#954A83"/>
<ellipse cx="2.07377" cy="1.24426" rx="2.07377" ry="1.24426" transform="matrix(-0.99549 -0.0948635 -0.0948635 0.99549 28.0703 62.6395)" fill="#954A83"/>
<ellipse cx="2.07377" cy="1.24426" rx="2.07377" ry="1.24426" transform="matrix(-0.880771 0.473542 0.473542 0.880771 25.9834 58.3722)" fill="#954A83"/>
<ellipse cx="2.07377" cy="1.24426" rx="2.07377" ry="1.24426" transform="matrix(-0.880771 0.473542 0.473542 0.880771 30.9395 54.832)" fill="#954A83"/>
<ellipse cx="2.5559" cy="1.53354" rx="2.5559" ry="1.53354" transform="matrix(-0.960533 -0.278166 -0.278166 0.960533 26.4531 78.2029)" fill="#954A83"/>
<ellipse cx="2.5559" cy="1.53354" rx="2.5559" ry="1.53354" transform="matrix(-0.99549 -0.0948635 -0.0948635 0.99549 30.6514 72.1141)" fill="#954A83"/>
<ellipse cx="2.5559" cy="1.53354" rx="2.5559" ry="1.53354" transform="matrix(-0.99549 -0.0948635 -0.0948635 0.99549 34.2412 67.1097)" fill="#954A83"/>
<ellipse cx="2.5559" cy="1.53354" rx="2.5559" ry="1.53354" transform="matrix(-0.941516 0.336969 0.336969 0.941516 33.916 60.4965)" fill="#954A83"/>
<ellipse cx="0.92406" cy="0.554436" rx="0.92406" ry="0.554436" transform="matrix(-0.960533 -0.278166 -0.278166 0.960533 22.2051 75.1709)" fill="#954A83"/>
<ellipse cx="0.92406" cy="0.554436" rx="0.92406" ry="0.554436" transform="matrix(-0.99549 -0.0948635 -0.0948635 0.99549 25.9141 69.9243)" fill="#954A83"/>
<ellipse cx="0.92406" cy="0.554436" rx="0.92406" ry="0.554436" transform="matrix(-0.99549 -0.0948635 -0.0948635 0.99549 29.2852 69.1681)" fill="#954A83"/>
<ellipse cx="0.92406" cy="0.554436" rx="0.92406" ry="0.554436" transform="matrix(-0.99549 -0.0948635 -0.0948635 0.99549 29.9932 65.6278)" fill="#954A83"/>
<ellipse cx="0.92406" cy="0.554436" rx="0.92406" ry="0.554436" transform="matrix(-0.941516 0.336969 0.336969 0.941516 29.4404 60.9592)" fill="#954A83"/>
<ellipse cx="0.92406" cy="0.837458" rx="0.92406" ry="0.837458" transform="matrix(-0.941516 0.336969 0.336969 0.941516 26.5967 56.2482)" fill="#954A83"/>
<ellipse cx="1.44963" cy="1.31377" rx="1.44963" ry="1.31377" transform="matrix(-0.941516 0.336969 0.336969 0.941516 25.5156 52.0825)" fill="#954A83"/>
<ellipse cx="1.44963" cy="1.31377" rx="1.44963" ry="1.31377" transform="matrix(-0.941516 0.336969 0.336969 0.941516 22.0283 56.2482)" fill="#954A83"/>
<ellipse cx="0.860419" cy="0.779782" rx="0.860419" ry="0.779782" transform="matrix(-0.941516 0.336969 0.336969 0.941516 20.2637 54.124)" fill="#954A83"/>
<ellipse cx="0.860419" cy="0.779782" rx="0.860419" ry="0.779782" transform="matrix(-0.941516 0.336969 0.336969 0.941516 16.7236 53.416)" fill="#954A83"/>
<ellipse cx="0.860419" cy="0.779782" rx="0.860419" ry="0.779782" transform="matrix(-0.941516 0.336969 0.336969 0.941516 18.1396 56.9562)" fill="#954A83"/>
<ellipse cx="0.860419" cy="0.779782" rx="0.860419" ry="0.779782" transform="matrix(-0.941516 0.336969 0.336969 0.941516 16.0156 56.2482)" fill="#954A83"/>
<ellipse cx="0.860419" cy="0.779782" rx="0.860419" ry="0.779782" transform="matrix(-0.941516 0.336969 0.336969 0.941516 16.0156 59.0802)" fill="#954A83"/>
<ellipse cx="0.455991" cy="0.413256" rx="0.455991" ry="0.413256" transform="matrix(-0.941516 0.336969 0.336969 0.941516 14.1387 58.3722)" fill="#954A83"/>
<ellipse cx="0.455991" cy="0.413256" rx="0.455991" ry="0.413256" transform="matrix(-0.941516 0.336969 0.336969 0.941516 12.7227 61.2045)" fill="#954A83"/>
<ellipse cx="0.455991" cy="0.413256" rx="0.455991" ry="0.413256" transform="matrix(-0.941516 0.336969 0.336969 0.941516 14.8467 61.9125)" fill="#954A83"/>
<ellipse cx="0.455991" cy="0.413256" rx="0.455991" ry="0.413256" transform="matrix(-0.941516 0.336969 0.336969 0.941516 14.1387 64.0365)" fill="#954A83"/>
<ellipse cx="0.455991" cy="0.413256" rx="0.455991" ry="0.413256" transform="matrix(-0.941516 0.336969 0.336969 0.941516 15.5547 65.4526)" fill="#954A83"/>
<ellipse cx="0.455991" cy="0.413256" rx="0.455991" ry="0.413256" transform="matrix(-0.941516 0.336969 0.336969 0.941516 16.2627 66.8687)" fill="#954A83"/>
<ellipse cx="1.09145" cy="0.654873" rx="1.09145" ry="0.654873" transform="matrix(-0.993434 0.114408 0.114408 0.993434 7.18652 98.0219)" fill="#954A83"/>
<ellipse cx="1.09145" cy="0.654873" rx="1.09145" ry="0.654873" transform="matrix(-0.954482 -0.298269 -0.298269 0.954482 5.21289 91.5927)" fill="#954A83"/>
<ellipse cx="2.90117" cy="1.7407" rx="2.90117" ry="1.7407" transform="matrix(-0.979379 -0.202032 -0.202032 0.979379 8.75293 100.61)" fill="#954A83"/>
<ellipse cx="2.90117" cy="1.7407" rx="2.90117" ry="1.7407" transform="matrix(-0.986159 0.165801 0.165801 0.986159 5.34375 93.0656)" fill="#954A83"/>
<path d="M11.9743 91.2956C6.59329 96.3934 10.2042 105.456 12.6823 109.35L21.5327 108.288C17.4025 106.4 11.9035 100.358 22.9487 91.2956C33.994 82.2328 37.6993 71.7068 38.1713 67.5766C38.5253 64.0365 37.3925 54.1949 27.1969 51.646C17.0013 49.0971 12.2103 55.1861 10.9122 59.4343C12.6823 54.5961 19.3378 48.6015 30.383 56.2482C44.1896 65.8066 18.7006 84.9233 11.9743 91.2956Z" fill="#4F227A"/>
</g>
<path d="M23.169 52.3901C26.2527 52.219 33.1009 53.5486 35.8238 60.236C34.4116 58.1423 29.9036 53.642 23.169 52.3901Z" fill="#7330B3"/>
<ellipse cx="220.278" cy="107.416" rx="8.90099" ry="2.58416" fill="#31384F" stroke="#3C4666" stroke-width="2"/>
<path d="M228.741 107.671C221.66 110.786 214.934 108.969 212.456 107.671C213.046 105.429 217.058 103.069 215.642 95.6342C214.614 90.2355 189.834 76.7282 193.339 62.3569C196.879 47.8424 218.474 50.3204 219.89 59.1708C221.023 66.2511 215.878 68.4932 213.164 68.7292C217.412 65.229 217.766 55.6307 208.916 58.4628C197.588 64.481 209.978 74.3934 221.66 82.5357C233.343 90.678 229.095 107.317 228.741 107.671Z" fill="#5C2095"/>
<mask id="mask4_45_5370" style="mask-type:alpha" maskUnits="userSpaceOnUse" x="193" y="52" width="37" height="58">
<path d="M228.742 107.671C221.661 110.786 214.935 108.969 212.457 107.671C213.047 105.429 217.059 103.069 215.643 95.6342C214.615 90.2355 189.835 76.7282 193.34 62.3569C196.88 47.8424 218.475 50.3204 219.891 59.1708C221.024 66.2511 215.879 68.4932 213.165 68.7292C217.413 65.229 217.767 55.6307 208.917 58.4628C197.589 64.481 209.979 74.3934 221.661 82.5357C233.344 90.678 229.096 107.317 228.742 107.671Z" fill="#5C2095"/>
</mask>
<g mask="url(#mask4_45_5370)">
<ellipse cx="228.048" cy="104.748" rx="1.77007" ry="1.06204" transform="rotate(-11.6558 228.048 104.748)" fill="#954A83"/>
<ellipse cx="228.157" cy="98.5714" rx="1.77007" ry="1.06204" transform="rotate(6.56946 228.157 98.5714)" fill="#954A83"/>
<ellipse cx="223.201" cy="92.9071" rx="1.77007" ry="1.06204" transform="rotate(6.56946 223.201 92.9071)" fill="#954A83"/>
<ellipse cx="225.506" cy="89.1643" rx="1.77007" ry="1.06204" transform="rotate(-27.6861 225.506 89.1643)" fill="#954A83"/>
<ellipse cx="219.985" cy="88.4762" rx="2.50111" ry="1.50067" transform="rotate(-27.6861 219.985 88.4762)" fill="#954A83"/>
<ellipse cx="221.717" cy="83.5067" rx="2.31416" ry="1.38849" transform="rotate(-10.0077 221.717 83.5067)" fill="#954A83"/>
<ellipse cx="215.109" cy="84.2595" rx="1.44684" ry="0.868104" transform="rotate(-10.0077 215.109 84.2595)" fill="#954A83"/>
<ellipse cx="214.905" cy="82.203" rx="0.609268" ry="0.365561" transform="rotate(-10.0077 214.905 82.203)" fill="#954A83"/>
<ellipse cx="214.197" cy="80.0789" rx="0.609268" ry="0.365561" transform="rotate(-10.0077 214.197 80.0789)" fill="#954A83"/>
<ellipse cx="218.445" cy="86.4513" rx="0.609268" ry="0.365561" transform="rotate(-10.0077 218.445 86.4513)" fill="#954A83"/>
<ellipse cx="218.445" cy="82.911" rx="0.609268" ry="0.365561" transform="rotate(-10.0077 218.445 82.911)" fill="#954A83"/>
<ellipse cx="217.233" cy="80.0114" rx="1.44684" ry="0.868104" transform="rotate(-10.0077 217.233 80.0114)" fill="#954A83"/>
<ellipse cx="211.624" cy="81.5574" rx="1.44684" ry="0.868104" transform="rotate(-16.1508 211.624 81.5574)" fill="#954A83"/>
<ellipse cx="213.583" cy="76.8409" rx="2.5559" ry="1.53354" transform="rotate(-16.1508 213.583 76.8409)" fill="#954A83"/>
<ellipse cx="209.477" cy="72.4952" rx="2.5559" ry="1.53354" transform="rotate(-5.44346 209.477 72.4952)" fill="#954A83"/>
<ellipse cx="205.886" cy="67.4906" rx="2.5559" ry="1.53354" transform="rotate(-5.44346 205.886 67.4906)" fill="#954A83"/>
<ellipse cx="204.894" cy="63.6814" rx="2.07377" ry="1.24426" transform="rotate(-5.44346 204.894 63.6814)" fill="#954A83"/>
<ellipse cx="206.036" cy="60.4501" rx="2.07377" ry="1.24426" transform="rotate(28.2645 206.036 60.4501)" fill="#954A83"/>
<ellipse cx="201.08" cy="56.91" rx="2.07377" ry="1.24426" transform="rotate(28.2645 201.08 56.91)" fill="#954A83"/>
<ellipse cx="207.211" cy="78.9649" rx="2.5559" ry="1.53354" transform="rotate(-16.1508 207.211 78.9649)" fill="#954A83"/>
<ellipse cx="202.821" cy="73.3983" rx="2.5559" ry="1.53354" transform="rotate(-5.44346 202.821 73.3983)" fill="#954A83"/>
<ellipse cx="199.231" cy="68.3939" rx="2.5559" ry="1.53354" transform="rotate(-5.44346 199.231 68.3939)" fill="#954A83"/>
<ellipse cx="198.756" cy="62.8016" rx="2.5559" ry="1.53354" transform="rotate(19.6923 198.756 62.8016)" fill="#954A83"/>
<ellipse cx="209.619" cy="75.4464" rx="0.92406" ry="0.554436" transform="rotate(-16.1508 209.619 75.4464)" fill="#954A83"/>
<ellipse cx="205.841" cy="70.3886" rx="0.92406" ry="0.554436" transform="rotate(-5.44346 205.841 70.3886)" fill="#954A83"/>
<ellipse cx="202.47" cy="69.6324" rx="0.92406" ry="0.554436" transform="rotate(-5.44346 202.47 69.6324)" fill="#954A83"/>
<ellipse cx="201.762" cy="66.0921" rx="0.92406" ry="0.554436" transform="rotate(-5.44346 201.762 66.0921)" fill="#954A83"/>
<ellipse cx="202.025" cy="61.7926" rx="0.92406" ry="0.554436" transform="rotate(19.6923 202.025 61.7926)" fill="#954A83"/>
<ellipse cx="204.773" cy="57.348" rx="0.92406" ry="0.837458" transform="rotate(19.6923 204.773 57.348)" fill="#954A83"/>
<ellipse cx="206.189" cy="53.8079" rx="1.44963" ry="1.31377" transform="rotate(19.6923 206.189 53.8079)" fill="#954A83"/>
<ellipse cx="209.676" cy="57.9736" rx="1.44963" ry="1.31377" transform="rotate(19.6923 209.676 57.9736)" fill="#954A83"/>
<ellipse cx="211.066" cy="55.1481" rx="0.860419" ry="0.779782" transform="rotate(19.6923 211.066 55.1481)" fill="#954A83"/>
<ellipse cx="214.606" cy="54.4401" rx="0.860419" ry="0.779782" transform="rotate(19.6923 214.606 54.4401)" fill="#954A83"/>
<ellipse cx="213.19" cy="57.9803" rx="0.860419" ry="0.779782" transform="rotate(19.6923 213.19 57.9803)" fill="#954A83"/>
<ellipse cx="215.314" cy="57.2723" rx="0.860419" ry="0.779782" transform="rotate(19.6923 215.314 57.2723)" fill="#954A83"/>
<ellipse cx="215.314" cy="60.1043" rx="0.860419" ry="0.779782" transform="rotate(19.6923 215.314 60.1043)" fill="#954A83"/>
<ellipse cx="216.934" cy="58.9149" rx="0.455991" ry="0.413256" transform="rotate(19.6923 216.934 58.9149)" fill="#954A83"/>
<ellipse cx="218.35" cy="61.7472" rx="0.455991" ry="0.413256" transform="rotate(19.6923 218.35 61.7472)" fill="#954A83"/>
<ellipse cx="216.226" cy="62.4552" rx="0.455991" ry="0.413256" transform="rotate(19.6923 216.226 62.4552)" fill="#954A83"/>
<ellipse cx="216.934" cy="64.5792" rx="0.455991" ry="0.413256" transform="rotate(19.6923 216.934 64.5792)" fill="#954A83"/>
<ellipse cx="215.518" cy="65.9954" rx="0.455991" ry="0.413256" transform="rotate(19.6923 215.518 65.9954)" fill="#954A83"/>
<ellipse cx="214.81" cy="67.4114" rx="0.455991" ry="0.413256" transform="rotate(19.6923 214.81 67.4114)" fill="#954A83"/>
<ellipse cx="224.605" cy="98.7973" rx="1.09145" ry="0.654873" transform="rotate(6.56946 224.605 98.7973)" fill="#954A83"/>
<ellipse cx="226.806" cy="91.8922" rx="1.09145" ry="0.654873" transform="rotate(-17.3536 226.806 91.8922)" fill="#954A83"/>
<ellipse cx="225.222" cy="101.729" rx="2.90117" ry="1.7407" transform="rotate(-11.6558 225.222 101.729)" fill="#954A83"/>
<ellipse cx="228.011" cy="95.2632" rx="2.90117" ry="1.7407" transform="rotate(9.54376 228.011 95.2632)" fill="#954A83"/>
<path d="M218.808 91.2956C224.189 96.3934 220.578 105.456 218.1 109.35L209.25 108.288C213.38 106.4 218.879 100.358 207.834 91.2956C196.788 82.2328 193.083 71.7068 192.611 67.5766C192.257 64.0365 193.39 54.1949 203.585 51.646C213.781 49.0971 218.572 55.1861 219.87 59.4343C218.1 54.5961 211.444 48.6015 200.399 56.2482C186.593 65.8066 212.082 84.9233 218.808 91.2956Z" fill="#4F227A"/>
</g>
<path d="M207.613 52.3901C204.53 52.219 197.681 53.5486 194.958 60.236C196.371 58.1423 200.879 53.642 207.613 52.3901Z" fill="#7330B3"/>
<ellipse cx="10.5" cy="3.5" rx="10.5" ry="3.5" transform="matrix(-1 0 0 1 201.405 61)" fill="#31384F" stroke="#3C4666" stroke-width="2"/>
<path d="M196.545 65.0189C190.692 67.5941 185.132 66.0919 183.084 65.0189C183.572 63.1655 186.888 61.2146 185.718 55.0692C184.868 50.6065 164.384 39.4409 167.281 27.5613C170.208 15.5632 188.059 17.6116 189.229 24.9276C190.166 30.7803 185.913 32.6337 183.669 32.8288C187.181 29.9355 187.474 22.0012 180.158 24.3423C170.793 29.3171 181.035 37.511 190.692 44.2416C200.349 50.9723 196.838 64.7262 196.545 65.0189Z" fill="#431D67"/>
<mask id="mask5_45_5370" style="mask-type:alpha" maskUnits="userSpaceOnUse" x="167" y="19" width="31" height="48">
<path d="M196.545 65.0189C190.692 67.5941 185.132 66.0919 183.084 65.0189C183.572 63.1655 186.888 61.2146 185.718 55.0692C184.868 50.6065 164.384 39.4409 167.281 27.5613C170.208 15.5632 188.059 17.6116 189.229 24.9276C190.166 30.7803 185.913 32.6337 183.669 32.8288C187.181 29.9355 187.474 22.0012 180.158 24.3423C170.793 29.3171 181.035 37.511 190.692 44.2416C200.349 50.9723 196.838 64.7262 196.545 65.0189Z" fill="#5C2095"/>
</mask>
<g mask="url(#mask5_45_5370)">
<ellipse cx="195.972" cy="62.6029" rx="1.46319" ry="0.877911" transform="rotate(-11.6558 195.972 62.6029)" fill="#623557"/>
<ellipse cx="196.062" cy="57.4971" rx="1.46319" ry="0.877911" transform="rotate(6.56946 196.062 57.4971)" fill="#623557"/>
<ellipse cx="191.965" cy="52.8148" rx="1.46319" ry="0.877911" transform="rotate(6.56946 191.965 52.8148)" fill="#623557"/>
<ellipse cx="193.871" cy="49.721" rx="1.46319" ry="0.877911" transform="rotate(-27.6861 193.871 49.721)" fill="#623557"/>
<ellipse cx="189.308" cy="49.1523" rx="2.06749" ry="1.24049" transform="rotate(-27.6861 189.308 49.1523)" fill="#623557"/>
<ellipse cx="190.74" cy="45.0443" rx="1.91294" ry="1.14776" transform="rotate(-10.0077 190.74 45.0443)" fill="#623557"/>
<ellipse cx="185.276" cy="45.6666" rx="1.196" ry="0.717597" transform="rotate(-10.0077 185.276 45.6666)" fill="#623557"/>
<ellipse cx="185.107" cy="43.9667" rx="0.503637" ry="0.302182" transform="rotate(-10.0077 185.107 43.9667)" fill="#623557"/>
<ellipse cx="184.522" cy="42.2108" rx="0.503637" ry="0.302182" transform="rotate(-10.0077 184.522 42.2108)" fill="#623557"/>
<ellipse cx="188.034" cy="47.4783" rx="0.503637" ry="0.302182" transform="rotate(-10.0077 188.034 47.4783)" fill="#623557"/>
<ellipse cx="188.034" cy="44.5519" rx="0.503637" ry="0.302182" transform="rotate(-10.0077 188.034 44.5519)" fill="#623557"/>
<ellipse cx="187.032" cy="42.1548" rx="1.196" ry="0.717597" transform="rotate(-10.0077 187.032 42.1548)" fill="#623557"/>
<ellipse cx="182.395" cy="43.4329" rx="1.196" ry="0.717597" transform="rotate(-16.1508 182.395 43.4329)" fill="#623557"/>
<ellipse cx="184.015" cy="39.5341" rx="2.11277" ry="1.26766" transform="rotate(-16.1508 184.015 39.5341)" fill="#623557"/>
<ellipse cx="180.62" cy="35.9418" rx="2.11277" ry="1.26766" transform="rotate(-5.44346 180.62 35.9418)" fill="#623557"/>
<ellipse cx="177.652" cy="31.8049" rx="2.11277" ry="1.26766" transform="rotate(-5.44346 177.652 31.8049)" fill="#623557"/>
<ellipse cx="176.832" cy="28.6562" rx="1.71423" ry="1.02854" transform="rotate(-5.44346 176.832 28.6562)" fill="#623557"/>
<ellipse cx="177.777" cy="25.9851" rx="1.71423" ry="1.02854" transform="rotate(28.2645 177.777 25.9851)" fill="#623557"/>
<ellipse cx="173.68" cy="23.0587" rx="1.71423" ry="1.02854" transform="rotate(28.2645 173.68 23.0587)" fill="#623557"/>
<ellipse cx="178.747" cy="41.29" rx="2.11277" ry="1.26766" transform="rotate(-16.1508 178.747 41.29)" fill="#623557"/>
<ellipse cx="175.118" cy="36.6884" rx="2.11277" ry="1.26766" transform="rotate(-5.44346 175.118 36.6884)" fill="#623557"/>
<ellipse cx="172.15" cy="32.5515" rx="2.11277" ry="1.26766" transform="rotate(-5.44346 172.15 32.5515)" fill="#623557"/>
<ellipse cx="171.758" cy="27.9288" rx="2.11277" ry="1.26766" transform="rotate(19.6923 171.758 27.9288)" fill="#623557"/>
<ellipse cx="180.738" cy="38.3814" rx="0.763852" ry="0.458311" transform="rotate(-16.1508 180.738 38.3814)" fill="#623557"/>
<ellipse cx="177.614" cy="34.2004" rx="0.763852" ry="0.458311" transform="rotate(-5.44346 177.614 34.2004)" fill="#623557"/>
<ellipse cx="174.828" cy="33.5753" rx="0.763852" ry="0.458311" transform="rotate(-5.44346 174.828 33.5753)" fill="#623557"/>
<ellipse cx="174.242" cy="30.6489" rx="0.763852" ry="0.458311" transform="rotate(-5.44346 174.242 30.6489)" fill="#623557"/>
<ellipse cx="174.46" cy="27.0949" rx="0.763852" ry="0.458311" transform="rotate(19.6923 174.46 27.0949)" fill="#623557"/>
<ellipse cx="176.732" cy="23.4209" rx="0.763852" ry="0.692265" transform="rotate(19.6923 176.732 23.4209)" fill="#623557"/>
<ellipse cx="177.903" cy="20.4945" rx="1.1983" ry="1.086" transform="rotate(19.6923 177.903 20.4945)" fill="#623557"/>
<ellipse cx="180.786" cy="23.938" rx="1.1983" ry="1.086" transform="rotate(19.6923 180.786 23.938)" fill="#623557"/>
<ellipse cx="181.934" cy="21.6023" rx="0.711245" ry="0.644588" transform="rotate(19.6923 181.934 21.6023)" fill="#623557"/>
<ellipse cx="184.861" cy="21.0171" rx="0.711245" ry="0.644588" transform="rotate(19.6923 184.861 21.0171)" fill="#623557"/>
<ellipse cx="183.69" cy="23.9435" rx="0.711245" ry="0.644588" transform="rotate(19.6923 183.69 23.9435)" fill="#623557"/>
<ellipse cx="185.446" cy="23.3583" rx="0.711245" ry="0.644588" transform="rotate(19.6923 185.446 23.3583)" fill="#623557"/>
<ellipse cx="185.446" cy="25.6993" rx="0.711245" ry="0.644588" transform="rotate(19.6923 185.446 25.6993)" fill="#623557"/>
<ellipse cx="186.785" cy="24.7161" rx="0.376934" ry="0.341608" transform="rotate(19.6923 186.785 24.7161)" fill="#623557"/>
<ellipse cx="187.956" cy="27.0573" rx="0.376934" ry="0.341608" transform="rotate(19.6923 187.956 27.0573)" fill="#623557"/>
<ellipse cx="186.2" cy="27.6425" rx="0.376934" ry="0.341608" transform="rotate(19.6923 186.2 27.6425)" fill="#623557"/>
<ellipse cx="186.785" cy="29.3984" rx="0.376934" ry="0.341608" transform="rotate(19.6923 186.785 29.3984)" fill="#623557"/>
<ellipse cx="185.614" cy="30.5689" rx="0.376934" ry="0.341608" transform="rotate(19.6923 185.614 30.5689)" fill="#623557"/>
<ellipse cx="185.029" cy="31.7394" rx="0.376934" ry="0.341608" transform="rotate(19.6923 185.029 31.7394)" fill="#623557"/>
<ellipse cx="193.125" cy="57.6837" rx="0.902225" ry="0.541335" transform="rotate(6.56946 193.125 57.6837)" fill="#623557"/>
<ellipse cx="194.945" cy="51.9759" rx="0.902225" ry="0.541335" transform="rotate(-17.3536 194.945 51.9759)" fill="#623557"/>
<ellipse cx="193.637" cy="60.1071" rx="2.39818" ry="1.43891" transform="rotate(-11.6558 193.637 60.1071)" fill="#623557"/>
<ellipse cx="195.942" cy="54.7625" rx="2.39818" ry="1.43891" transform="rotate(9.54376 195.942 54.7625)" fill="#623557"/>
<path d="M188.333 51.4827C192.782 55.6966 189.797 63.1882 187.748 66.4072L180.432 65.5292C183.846 63.9685 188.392 58.9742 179.262 51.4827C170.131 43.9912 167.069 35.2901 166.678 31.876C166.386 28.9496 167.322 20.8143 175.75 18.7073C184.178 16.6003 188.138 21.6337 189.211 25.1453C187.748 21.1459 182.247 16.1906 173.116 22.5116C161.703 30.4128 182.773 46.2152 188.333 51.4827Z" fill="#34194C"/>
</g>
<path d="M179.08 19.3226C176.531 19.1811 170.87 20.2802 168.62 25.8082C169.787 24.0775 173.513 20.3574 179.08 19.3226Z" fill="#441E69"/>
<ellipse cx="15.5" cy="4.5" rx="15.5" ry="4.5" transform="matrix(-1 0 0 1 88.0508 131)" fill="#31384F" stroke="#3C4666" stroke-width="2"/>
<path d="M86.2382 135.944C73.9088 141.369 62.1958 138.204 57.8805 135.944C58.9079 132.04 65.8947 127.93 63.4287 114.984C61.638 105.583 18.4871 82.0611 24.591 57.0353C30.7556 31.76 68.3605 36.0753 70.8264 51.4871C72.7991 63.8165 63.8397 67.7209 59.1134 68.1319C66.5111 62.0368 67.1277 45.3224 51.7157 50.2541C31.9887 60.7342 53.5652 77.9954 73.9088 92.1743C94.2523 106.353 86.8547 135.327 86.2382 135.944Z" fill="#5C2095"/>
<mask id="mask6_45_5370" style="mask-type:alpha" maskUnits="userSpaceOnUse" x="24" y="39" width="65" height="100">
<path d="M86.2382 135.944C73.9088 141.369 62.1958 138.204 57.8805 135.944C58.9079 132.04 65.8947 127.93 63.4287 114.984C61.638 105.583 18.4871 82.0611 24.591 57.0353C30.7556 31.76 68.3605 36.0753 70.8264 51.4871C72.7991 63.8165 63.8397 67.7209 59.1134 68.1319C66.5111 62.0368 67.1277 45.3224 51.7157 50.2541C31.9887 60.7342 53.5652 77.9954 73.9088 92.1743C94.2523 106.353 86.8547 135.327 86.2382 135.944Z" fill="#5C2095"/>
</mask>
<g mask="url(#mask6_45_5370)">
<ellipse cx="85.0311" cy="130.854" rx="3.08236" ry="1.84942" transform="rotate(-11.6558 85.0311 130.854)" fill="#954A83"/>
<ellipse cx="85.2226" cy="120.098" rx="3.08236" ry="1.84942" transform="rotate(6.56946 85.2226 120.098)" fill="#954A83"/>
<ellipse cx="76.5918" cy="110.235" rx="3.08236" ry="1.84942" transform="rotate(6.56946 76.5918 110.235)" fill="#954A83"/>
<ellipse cx="80.6053" cy="103.717" rx="3.08236" ry="1.84942" transform="rotate(-27.6861 80.6053 103.717)" fill="#954A83"/>
<ellipse cx="70.9908" cy="102.519" rx="4.35539" ry="2.61323" transform="rotate(-27.6861 70.9908 102.519)" fill="#954A83"/>
<ellipse cx="74.0078" cy="93.8651" rx="4.02982" ry="2.41789" transform="rotate(-10.0077 74.0078 93.8651)" fill="#954A83"/>
<ellipse cx="62.4997" cy="95.1761" rx="2.5195" ry="1.5117" transform="rotate(-10.0077 62.4997 95.1761)" fill="#954A83"/>
<ellipse cx="62.1437" cy="91.595" rx="1.06097" ry="0.63658" transform="rotate(-10.0077 62.1437 91.595)" fill="#954A83"/>
<ellipse cx="60.9113" cy="87.8961" rx="1.06097" ry="0.63658" transform="rotate(-10.0077 60.9113 87.8961)" fill="#954A83"/>
<ellipse cx="68.3088" cy="98.9927" rx="1.06097" ry="0.63658" transform="rotate(-10.0077 68.3088 98.9927)" fill="#954A83"/>
<ellipse cx="68.3088" cy="92.8279" rx="1.06097" ry="0.63658" transform="rotate(-10.0077 68.3088 92.8279)" fill="#954A83"/>
<ellipse cx="66.198" cy="87.7784" rx="2.5195" ry="1.5117" transform="rotate(-10.0077 66.198 87.7784)" fill="#954A83"/>
<ellipse cx="56.4314" cy="90.4707" rx="2.5195" ry="1.5117" transform="rotate(-16.1508 56.4314 90.4707)" fill="#954A83"/>
<ellipse cx="59.8422" cy="82.2574" rx="4.45078" ry="2.67047" transform="rotate(-16.1508 59.8422 82.2574)" fill="#954A83"/>
<ellipse cx="52.6909" cy="74.6898" rx="4.45079" ry="2.67047" transform="rotate(-5.44346 52.6909 74.6898)" fill="#954A83"/>
<ellipse cx="46.4399" cy="65.9751" rx="4.45079" ry="2.67047" transform="rotate(-5.44346 46.4399 65.9751)" fill="#954A83"/>
<ellipse cx="44.7126" cy="59.3419" rx="3.61122" ry="2.16673" transform="rotate(-5.44346 44.7126 59.3419)" fill="#954A83"/>
<ellipse cx="46.7015" cy="53.715" rx="3.61122" ry="2.16673" transform="rotate(28.2645 46.7015 53.715)" fill="#954A83"/>
<ellipse cx="38.0706" cy="47.5502" rx="3.61122" ry="2.16673" transform="rotate(28.2645 38.0706 47.5502)" fill="#954A83"/>
<ellipse cx="48.7455" cy="85.9563" rx="4.45078" ry="2.67047" transform="rotate(-16.1508 48.7455 85.9563)" fill="#954A83"/>
<ellipse cx="41.1001" cy="76.2626" rx="4.45079" ry="2.67047" transform="rotate(-5.44346 41.1001 76.2626)" fill="#954A83"/>
<ellipse cx="34.8491" cy="67.5479" rx="4.45079" ry="2.67047" transform="rotate(-5.44346 34.8491 67.5479)" fill="#954A83"/>
<ellipse cx="34.0221" cy="57.8095" rx="4.45079" ry="2.67047" transform="rotate(19.6923 34.0221 57.8095)" fill="#954A83"/>
<ellipse cx="52.9392" cy="79.8293" rx="1.60914" ry="0.965483" transform="rotate(-16.1508 52.9392 79.8293)" fill="#954A83"/>
<ellipse cx="46.3595" cy="71.0215" rx="1.60914" ry="0.965483" transform="rotate(-5.44346 46.3595 71.0215)" fill="#954A83"/>
<ellipse cx="40.4894" cy="69.7045" rx="1.60914" ry="0.965483" transform="rotate(-5.44346 40.4894 69.7045)" fill="#954A83"/>
<ellipse cx="39.256" cy="63.5398" rx="1.60914" ry="0.965483" transform="rotate(-5.44346 39.256 63.5398)" fill="#954A83"/>
<ellipse cx="39.7141" cy="56.0528" rx="1.60914" ry="0.965483" transform="rotate(19.6923 39.7141 56.0528)" fill="#954A83"/>
<ellipse cx="44.5012" cy="48.313" rx="1.60914" ry="1.45833" transform="rotate(19.6923 44.5012 48.313)" fill="#954A83"/>
<ellipse cx="46.9662" cy="42.1482" rx="2.52435" ry="2.28777" transform="rotate(19.6923 46.9662 42.1482)" fill="#954A83"/>
<ellipse cx="53.0394" cy="49.4023" rx="2.52435" ry="2.28777" transform="rotate(19.6923 53.0394 49.4023)" fill="#954A83"/>
<ellipse cx="55.459" cy="44.4822" rx="1.49832" ry="1.3579" transform="rotate(19.6923 55.459 44.4822)" fill="#954A83"/>
<ellipse cx="61.624" cy="43.2493" rx="1.49832" ry="1.3579" transform="rotate(19.6923 61.624 43.2493)" fill="#954A83"/>
<ellipse cx="59.1582" cy="49.414" rx="1.49832" ry="1.3579" transform="rotate(19.6923 59.1582 49.414)" fill="#954A83"/>
<ellipse cx="62.8564" cy="48.1811" rx="1.49832" ry="1.3579" transform="rotate(19.6923 62.8564 48.1811)" fill="#954A83"/>
<ellipse cx="62.8564" cy="53.1128" rx="1.49832" ry="1.3579" transform="rotate(19.6923 62.8564 53.1128)" fill="#954A83"/>
<ellipse cx="65.677" cy="51.0417" rx="0.794053" ry="0.719635" transform="rotate(19.6923 65.677 51.0417)" fill="#954A83"/>
<ellipse cx="68.1428" cy="55.9734" rx="0.794053" ry="0.719635" transform="rotate(19.6923 68.1428 55.9734)" fill="#954A83"/>
<ellipse cx="64.4446" cy="57.2063" rx="0.794053" ry="0.719635" transform="rotate(19.6923 64.4446 57.2063)" fill="#954A83"/>
<ellipse cx="65.677" cy="60.9052" rx="0.794053" ry="0.719635" transform="rotate(19.6923 65.677 60.9052)" fill="#954A83"/>
<ellipse cx="63.2112" cy="63.3711" rx="0.794053" ry="0.719635" transform="rotate(19.6923 63.2112 63.3711)" fill="#954A83"/>
<ellipse cx="61.9788" cy="65.837" rx="0.794053" ry="0.719635" transform="rotate(19.6923 61.9788 65.837)" fill="#954A83"/>
<ellipse cx="79.035" cy="120.492" rx="1.90064" ry="1.14038" transform="rotate(6.56946 79.035 120.492)" fill="#954A83"/>
<ellipse cx="82.8701" cy="108.467" rx="1.90064" ry="1.14038" transform="rotate(-17.3536 82.8701 108.467)" fill="#954A83"/>
<ellipse cx="80.111" cy="125.597" rx="5.05204" ry="3.03122" transform="rotate(-11.6558 80.111 125.597)" fill="#954A83"/>
<ellipse cx="84.9678" cy="114.338" rx="5.05204" ry="3.03122" transform="rotate(9.54376 84.9678 114.338)" fill="#954A83"/>
<path d="M68.9401 107.429C78.3105 116.306 72.0225 132.087 67.7072 138.869L52.2954 137.019C59.4876 133.731 69.0635 123.21 49.8295 107.429C30.5956 91.6468 24.1432 73.317 23.3212 66.1248C22.7047 59.9601 24.6774 42.8221 42.4319 38.3835C60.1863 33.9449 68.5292 44.5482 70.7896 51.9459C67.7072 43.5208 56.1175 33.0819 36.8836 46.3977C12.8412 63.0424 57.2272 96.332 68.9401 107.429Z" fill="#4F227A"/>
</g>
<path d="M49.4462 39.6794C44.0762 39.3814 32.1509 41.6967 27.4094 53.3421C29.8685 49.6962 37.7187 41.8595 49.4462 39.6794Z" fill="#7330B3"/>
<ellipse cx="15.5" cy="4.5" rx="15.5" ry="4.5" transform="matrix(-1 0 0 1 171.051 132)" fill="#31384F" stroke="#3C4666" stroke-width="2"/>
<path d="M140.813 136.944C153.142 142.369 164.855 139.204 169.17 136.944C168.143 133.04 161.156 128.93 163.622 115.984C165.413 106.583 208.564 83.0611 202.46 58.0353C196.295 32.76 158.69 37.0753 156.224 52.4871C154.252 64.8165 163.211 68.7209 167.937 69.1319C160.54 63.0368 159.923 46.3224 175.335 51.2541C195.062 61.7342 173.486 78.9954 153.142 93.1743C132.798 107.353 140.196 136.327 140.813 136.944Z" fill="#5C2095"/>
<mask id="mask7_45_5370" style="mask-type:alpha" maskUnits="userSpaceOnUse" x="139" y="40" width="65" height="100">
<path d="M140.813 136.944C153.142 142.369 164.855 139.204 169.17 136.944C168.143 133.04 161.156 128.93 163.622 115.984C165.413 106.583 208.564 83.0611 202.46 58.0353C196.295 32.76 158.69 37.0753 156.224 52.4871C154.252 64.8165 163.211 68.7209 167.937 69.1319C160.54 63.0368 159.923 46.3224 175.335 51.2541C195.062 61.7342 173.486 78.9954 153.142 93.1743C132.798 107.353 140.196 136.327 140.813 136.944Z" fill="#5C2095"/>
</mask>
<g mask="url(#mask7_45_5370)">
<ellipse cx="3.08236" cy="1.84942" rx="3.08236" ry="1.84942" transform="matrix(-0.979379 -0.202032 -0.202032 0.979379 145.412 130.666)" fill="#954A83"/>
<ellipse cx="3.08236" cy="1.84942" rx="3.08236" ry="1.84942" transform="matrix(-0.993434 0.114408 0.114408 0.993434 144.679 118.909)" fill="#954A83"/>
<ellipse cx="3.08236" cy="1.84942" rx="3.08236" ry="1.84942" transform="matrix(-0.993434 0.114408 0.114408 0.993434 153.31 109.045)" fill="#954A83"/>
<ellipse cx="3.08236" cy="1.84942" rx="3.08236" ry="1.84942" transform="matrix(-0.885506 -0.464628 -0.464628 0.885506 150.034 104.512)" fill="#954A83"/>
<ellipse cx="4.35539" cy="2.61323" rx="4.35539" ry="2.61323" transform="matrix(-0.885506 -0.464628 -0.464628 0.885506 161.131 103.229)" fill="#954A83"/>
<ellipse cx="4.02982" cy="2.41789" rx="4.02982" ry="2.41789" transform="matrix(-0.984784 -0.17378 -0.17378 0.984784 157.432 93.1843)" fill="#954A83"/>
<ellipse cx="2.5195" cy="1.5117" rx="2.5195" ry="1.5117" transform="matrix(-0.984784 -0.17378 -0.17378 0.984784 167.295 95.1252)" fill="#954A83"/>
<ellipse cx="1.06097" cy="0.63658" rx="1.06097" ry="0.63658" transform="matrix(-0.984784 -0.17378 -0.17378 0.984784 166.062 92.1525)" fill="#954A83"/>
<ellipse cx="1.06097" cy="0.63658" rx="1.06097" ry="0.63658" transform="matrix(-0.984784 -0.17378 -0.17378 0.984784 167.295 88.4536)" fill="#954A83"/>
<ellipse cx="1.06097" cy="0.63658" rx="1.06097" ry="0.63658" transform="matrix(-0.984784 -0.17378 -0.17378 0.984784 159.897 99.5502)" fill="#954A83"/>
<ellipse cx="1.06097" cy="0.63658" rx="1.06097" ry="0.63658" transform="matrix(-0.984784 -0.17378 -0.17378 0.984784 159.897 93.3854)" fill="#954A83"/>
<ellipse cx="2.5195" cy="1.5117" rx="2.5195" ry="1.5117" transform="matrix(-0.984784 -0.17378 -0.17378 0.984784 163.597 87.7275)" fill="#954A83"/>
<ellipse cx="2.5195" cy="1.5117" rx="2.5195" ry="1.5117" transform="matrix(-0.960533 -0.278166 -0.278166 0.960533 173.46 90.7195)" fill="#954A83"/>
<ellipse cx="4.45079" cy="2.67047" rx="4.45079" ry="2.67047" transform="matrix(-0.960533 -0.278166 -0.278166 0.960533 172.227 81.9304)" fill="#954A83"/>
<ellipse cx="4.45079" cy="2.67047" rx="4.45079" ry="2.67047" transform="matrix(-0.99549 -0.0948635 -0.0948635 0.99549 179.044 73.4536)" fill="#954A83"/>
<ellipse cx="4.45079" cy="2.67047" rx="4.45079" ry="2.67047" transform="matrix(-0.99549 -0.0948635 -0.0948635 0.99549 185.295 64.7389)" fill="#954A83"/>
<ellipse cx="3.61122" cy="2.16673" rx="3.61122" ry="2.16673" transform="matrix(-0.99549 -0.0948635 -0.0948635 0.99549 186.139 58.5275)" fill="#954A83"/>
<ellipse cx="3.61122" cy="2.16673" rx="3.61122" ry="2.16673" transform="matrix(-0.880771 0.473542 0.473542 0.880771 182.504 51.0966)" fill="#954A83"/>
<ellipse cx="3.61122" cy="2.16673" rx="3.61122" ry="2.16673" transform="matrix(-0.880771 0.473542 0.473542 0.880771 191.135 44.9318)" fill="#954A83"/>
<ellipse cx="4.45079" cy="2.67047" rx="4.45079" ry="2.67047" transform="matrix(-0.960533 -0.278166 -0.278166 0.960533 183.323 85.6293)" fill="#954A83"/>
<ellipse cx="4.45079" cy="2.67047" rx="4.45079" ry="2.67047" transform="matrix(-0.99549 -0.0948635 -0.0948635 0.99549 190.635 75.0264)" fill="#954A83"/>
<ellipse cx="4.45079" cy="2.67047" rx="4.45079" ry="2.67047" transform="matrix(-0.99549 -0.0948635 -0.0948635 0.99549 196.886 66.3116)" fill="#954A83"/>
<ellipse cx="4.45079" cy="2.67047" rx="4.45079" ry="2.67047" transform="matrix(-0.941516 0.336969 0.336969 0.941516 196.319 54.7954)" fill="#954A83"/>
<ellipse cx="1.60914" cy="0.965483" rx="1.60914" ry="0.965483" transform="matrix(-0.960533 -0.278166 -0.278166 0.960533 175.926 80.3495)" fill="#954A83"/>
<ellipse cx="1.60914" cy="0.965483" rx="1.60914" ry="0.965483" transform="matrix(-0.99549 -0.0948635 -0.0948635 0.99549 182.385 71.213)" fill="#954A83"/>
<ellipse cx="1.60914" cy="0.965483" rx="1.60914" ry="0.965483" transform="matrix(-0.99549 -0.0948635 -0.0948635 0.99549 188.255 69.896)" fill="#954A83"/>
<ellipse cx="1.60914" cy="0.965483" rx="1.60914" ry="0.965483" transform="matrix(-0.99549 -0.0948635 -0.0948635 0.99549 189.488 63.7313)" fill="#954A83"/>
<ellipse cx="1.60914" cy="0.965483" rx="1.60914" ry="0.965483" transform="matrix(-0.941516 0.336969 0.336969 0.941516 188.526 55.6016)" fill="#954A83"/>
<ellipse cx="1.60914" cy="1.45833" rx="1.60914" ry="1.45833" transform="matrix(-0.941516 0.336969 0.336969 0.941516 183.573 47.3977)" fill="#954A83"/>
<ellipse cx="2.52435" cy="2.28777" rx="2.52435" ry="2.28777" transform="matrix(-0.941516 0.336969 0.336969 0.941516 181.69 40.1436)" fill="#954A83"/>
<ellipse cx="2.52435" cy="2.28777" rx="2.52435" ry="2.28777" transform="matrix(-0.941516 0.336969 0.336969 0.941516 175.617 47.3977)" fill="#954A83"/>
<ellipse cx="1.49832" cy="1.3579" rx="1.49832" ry="1.3579" transform="matrix(-0.941516 0.336969 0.336969 0.941516 172.545 43.6989)" fill="#954A83"/>
<ellipse cx="1.49832" cy="1.3579" rx="1.49832" ry="1.3579" transform="matrix(-0.941516 0.336969 0.336969 0.941516 166.38 42.4659)" fill="#954A83"/>
<ellipse cx="1.49832" cy="1.3579" rx="1.49832" ry="1.3579" transform="matrix(-0.941516 0.336969 0.336969 0.941516 168.846 48.6306)" fill="#954A83"/>
<ellipse cx="1.49832" cy="1.3579" rx="1.49832" ry="1.3579" transform="matrix(-0.941516 0.336969 0.336969 0.941516 165.147 47.3977)" fill="#954A83"/>
<ellipse cx="1.49832" cy="1.3579" rx="1.49832" ry="1.3579" transform="matrix(-0.941516 0.336969 0.336969 0.941516 165.147 52.3295)" fill="#954A83"/>
<ellipse cx="0.794053" cy="0.719635" rx="0.794053" ry="0.719635" transform="matrix(-0.941516 0.336969 0.336969 0.941516 161.879 51.0966)" fill="#954A83"/>
<ellipse cx="0.794053" cy="0.719635" rx="0.794053" ry="0.719635" transform="matrix(-0.941516 0.336969 0.336969 0.941516 159.413 56.0283)" fill="#954A83"/>
<ellipse cx="0.794053" cy="0.719635" rx="0.794053" ry="0.719635" transform="matrix(-0.941516 0.336969 0.336969 0.941516 163.111 57.2612)" fill="#954A83"/>
<ellipse cx="0.794053" cy="0.719635" rx="0.794053" ry="0.719635" transform="matrix(-0.941516 0.336969 0.336969 0.941516 161.879 60.9601)" fill="#954A83"/>
<ellipse cx="0.794053" cy="0.719635" rx="0.794053" ry="0.719635" transform="matrix(-0.941516 0.336969 0.336969 0.941516 164.345 63.426)" fill="#954A83"/>
<ellipse cx="0.794053" cy="0.719635" rx="0.794053" ry="0.719635" transform="matrix(-0.941516 0.336969 0.336969 0.941516 165.577 65.8918)" fill="#954A83"/>
<ellipse cx="1.90064" cy="1.14038" rx="1.90064" ry="1.14038" transform="matrix(-0.993434 0.114408 0.114408 0.993434 149.773 120.141)" fill="#954A83"/>
<ellipse cx="1.90064" cy="1.14038" rx="1.90064" ry="1.14038" transform="matrix(-0.954482 -0.298269 -0.298269 0.954482 146.335 108.946)" fill="#954A83"/>
<ellipse cx="5.05204" cy="3.03122" rx="5.05204" ry="3.03122" transform="matrix(-0.979379 -0.202032 -0.202032 0.979379 152.5 124.649)" fill="#954A83"/>
<ellipse cx="5.05204" cy="3.03122" rx="5.05204" ry="3.03122" transform="matrix(-0.986159 0.165801 0.165801 0.986159 146.562 111.511)" fill="#954A83"/>
<path d="M158.111 108.429C148.74 117.306 155.028 133.087 159.344 139.869L174.755 138.019C167.563 134.731 157.987 124.21 177.221 108.429C196.455 92.6468 202.908 74.317 203.73 67.1248C204.346 60.9601 202.373 43.8221 184.619 39.3835C166.865 34.9449 158.522 45.5482 156.261 52.9459C159.344 44.5208 170.933 34.0819 190.167 47.3977C214.21 64.0424 169.824 97.332 158.111 108.429Z" fill="#4F227A"/>
</g>
<path d="M177.605 40.6794C182.975 40.3814 194.9 42.6967 199.641 54.3421C197.182 50.6962 189.332 42.8595 177.605 40.6794Z" fill="#7330B3"/>
</svg>
