<svg width="159" height="104" viewBox="0 0 159 104" fill="none" xmlns="http://www.w3.org/2000/svg">
<g id="Group 505">
<g id="_x35_9">
<g id="Group">
<g id="Group_2">
<g id="Group_3">
<g id="Group_4">
<g id="Group_5">
<g id="Group_6">
<g id="Group_7">
<path id="Vector" d="M108.896 84.9417C102.634 88.6578 95.0863 90.4312 86.93 89.5725C85.832 89.4585 84.7718 89.304 83.6708 89.1119C77.1811 87.9159 71.0212 85.145 65.5607 81.2538C62.0677 78.771 58.8299 75.8101 56.0449 72.4411C51.0133 66.5026 47.1625 59.3997 45.1489 51.7052C44.3348 48.8074 43.8551 45.8443 43.5823 42.8087C43.5163 42.1083 43.4879 41.3674 43.461 40.6652C43.2994 36.4538 43.6523 32.4176 44.5226 28.6352C46.9355 18.2323 53.0166 9.79756 61.3413 4.86987L50.9182 11.0887C42.5935 16.0166 36.5122 24.4512 34.1385 34.8525C33.2292 38.6364 32.8763 42.6726 33.0379 46.8843C33.0648 47.5862 33.1308 48.2866 33.1968 48.987C33.4303 52.0242 33.9744 55.0105 34.7107 57.9113C36.8039 65.6418 40.5902 72.7217 45.6216 78.6599C48.4068 82.0289 51.6056 84.9916 55.0985 87.4742C68.2185 96.9145 85.1337 99.0544 98.4338 91.1621L108.896 84.9417Z" fill="#F3A250"/>
</g>
</g>
</g>
<g id="Group_8">
<g id="Group_9">
<g id="Group_10">
<path id="Vector_2" d="M126.737 49.1479C125.751 24.4645 106.321 2.55871 83.3057 0.200078C60.3308 -2.121 42.4761 16.0212 43.4607 40.6653C44.4468 65.3486 63.916 87.253 86.9297 89.5726C109.906 91.9327 127.723 73.831 126.737 49.1479Z" fill="#FFD475"/>
</g>
</g>
<g id="Group_11">
<g id="Group_12">
<path id="Vector_3" d="M83.0843 2.30075C62.6703 -0.132313 44.5751 16.2106 45.5578 40.5776C46.4875 64.2153 65.1459 85.2736 87.1343 87.4934C109.48 89.624 125.553 72.1236 124.631 49.2465C123.701 25.6089 105.043 4.55057 83.0843 2.30075ZM86.2042 79.7241C68.3858 77.9243 53.267 60.9456 52.487 41.8973C51.7506 23.0367 65.0849 8.41575 84.0144 10.04C101.833 11.8698 116.922 28.8781 117.702 47.9268C118.489 67.984 103.522 81.6496 86.2042 79.7241Z" fill="#FFB961"/>
</g>
</g>
</g>
<g id="Group_13">
<g id="Group_14">
<g id="Group_15">
<path id="Vector_4" d="M115.602 48.0128C114.869 29.9198 100.623 13.8684 83.8026 12.1314C66.9441 10.435 53.8625 23.7073 54.5958 41.8003C55.329 59.8932 69.5747 75.9446 86.433 77.6411C103.254 79.378 116.334 66.0667 115.602 48.0128Z" fill="#F3A250"/>
</g>
</g>
</g>
<g id="Group_16">
<g id="Group_17">
<g id="Group_18">
<path id="Vector_5" d="M115.603 48.0129C114.87 29.9199 100.624 13.8685 83.8032 12.1316C74.0017 11.1408 65.4489 15.2179 60.2168 22.3703C65.3572 17.9162 72.2209 15.6222 79.8655 16.3832C96.6864 18.1202 110.932 34.1716 111.665 52.2646C111.954 59.7909 109.869 66.5101 106.043 71.6558C112.283 66.3392 116.02 57.8776 115.603 48.0129Z" fill="#DD8536"/>
</g>
</g>
</g>
<g id="Group_19">
<g id="Group_20">
<g id="Group_21">
<path id="Vector_6" d="M83.6709 89.112C77.1812 87.916 71.0213 85.145 65.5608 81.2539L55.0986 87.4743C60.5607 91.4044 66.7189 94.1363 73.2087 95.3323L83.6709 89.112Z" fill="#DD8536"/>
</g>
</g>
</g>
<g id="Group_22">
<g id="Group_23">
<g id="Group_24">
<path id="Vector_7" d="M56.0452 72.4412C51.0135 66.5027 47.1627 59.3998 45.1491 51.7053L34.7109 57.9114C36.8041 65.6419 40.5904 72.7218 45.6218 78.66L56.0452 72.4412Z" fill="#DD8536"/>
</g>
</g>
</g>
<g id="Group_25">
<g id="Group_26">
<g id="Group_27">
<path id="Vector_8" d="M44.5226 28.6353L34.1385 34.8526C33.2292 38.6365 32.8763 42.6727 33.0379 46.8844C33.0648 47.5863 33.1308 48.2867 33.1968 48.9871L43.5823 42.8088C43.5163 42.1084 43.4879 41.3675 43.461 40.6653C43.2994 36.4539 43.6523 32.4177 44.5226 28.6353Z" fill="#DD8536"/>
</g>
</g>
</g>
</g>
<g id="Group_28">
<g id="Group_29">
<path id="Vector_9" d="M57.6412 29.6315C57.8413 29.1969 58.4585 29.2026 58.6571 29.639C59.6814 31.8897 60.5651 33.7201 60.7211 33.6564C60.863 33.5985 60.2245 31.6744 59.3961 29.3513C59.2354 28.9004 59.6727 28.4659 60.1182 28.6363C64.659 30.3734 68.8299 31.8835 68.9468 31.6038C69.0592 31.3349 65.0684 29.3723 60.6623 27.3126C60.2294 27.1102 60.2331 26.4903 60.6667 26.292C62.8911 25.2748 64.7074 24.3934 64.6435 24.2366C64.5855 24.0939 62.6722 24.7299 60.3623 25.5555C59.9139 25.7157 59.4802 25.2751 59.6485 24.828C64.0458 13.1476 63.4996 13.0606 58.3297 24.2775C58.1294 24.7119 57.5124 24.7063 57.3138 24.27C56.2952 22.0322 55.4147 20.204 55.273 20.2618C55.1172 20.3254 55.7562 22.2559 56.5898 24.5624C56.7529 25.0136 56.3154 25.4502 55.8688 25.2795C51.337 23.5479 47.148 22.0408 47.0357 22.3096C46.9189 22.5892 50.924 24.5473 55.3236 26.6024C55.7561 26.8045 55.753 27.4236 55.3202 27.6226C53.0899 28.6482 51.2693 29.5291 51.3274 29.6718C51.3911 29.8285 53.3101 29.1922 55.606 28.3542C56.0549 28.1904 56.492 28.6313 56.3232 29.0801C51.9758 40.6394 52.4062 40.9997 57.6412 29.6315Z" fill="white"/>
</g>
</g>
</g>
</g>
<g id="Group_30" opacity="0.7">
<g id="Group_31">
<path id="Vector_10" d="M76.4341 68.1428C80.3045 70.4437 83.7423 71.4716 82.911 73.0456C82.0885 74.603 78.2267 74.0525 74.3562 71.7516C70.4859 69.4508 68.6458 66.3126 69.4684 64.7552C70.2997 63.1811 72.5637 65.842 76.4341 68.1428Z" fill="white"/>
</g>
</g>
<g id="Group_32" opacity="0.7">
<g id="Group_33">
<path id="Vector_11" d="M64.9786 60.235C65.6761 59.6907 66.8545 60.0387 67.6123 60.9884C68.3701 61.9381 68.4262 63.1371 67.7288 63.6815C67.0456 64.2146 65.8794 63.882 65.1216 62.9323C64.3638 61.9826 64.2955 60.7682 64.9786 60.235Z" fill="white"/>
</g>
</g>
</g>
<g id="Group_34">
<g id="Group_35">
<g id="Group_36">
<path id="Vector_12" d="M69.5781 37.5768C69.8034 36.0101 70.9972 33.9922 72.4914 33.3142C73.0167 35.5702 71.7215 37.2735 69.5781 37.5768Z" fill="#DD8536"/>
</g>
</g>
<g id="Group_37">
<g id="Group_38">
<path id="Vector_13" d="M101.069 52.2483C101.069 52.2483 101.496 56.8527 97.7403 58.1523C93.985 59.4519 101.069 52.2483 101.069 52.2483Z" fill="#DD8536"/>
</g>
</g>
<g id="Group_39">
<g id="Group_40">
<path id="Vector_14" d="M99.8091 55.7361C99.6744 56.2668 99.4224 56.7576 99.0587 57.1483C98.7223 57.5722 98.2713 57.9254 97.7405 58.1522C92.3093 60.1062 86.5347 61.851 80.5079 63.3641C78.003 63.8592 76.1303 62.1415 75.6907 60.132C74.1507 53.3505 72.1348 46.4995 69.7701 39.86C68.9152 37.5816 70.0874 35.4813 72.178 34.8235C78.1669 33.3976 83.7203 31.7846 88.7475 29.9773C90.3755 29.3863 92.6374 30.4897 93.4854 32.7214C95.9972 39.4034 98.1374 46.2049 99.9194 52.9762C100.174 54.0884 100.109 54.6515 99.8091 55.7361Z" fill="#DD8536"/>
</g>
</g>
<g id="Group_41">
<g id="Group_42">
<path id="Vector_15" d="M98.7013 56.3828C93.2701 58.3367 87.4955 60.0815 81.4688 61.5947C79.1218 62.0586 77.1256 60.5296 76.6516 58.3626C75.1115 51.5811 73.0956 44.73 70.7309 38.0905C69.8819 35.8276 71.0293 33.7178 73.1388 33.0541C79.1278 31.6282 84.6811 30.0152 89.7083 28.2079C91.308 27.6272 93.5778 28.6665 94.4462 30.952C96.958 37.6339 99.0983 44.4355 100.88 51.2067C101.421 53.5719 100.395 55.6591 98.7013 56.3828Z" fill="#D7ACFF"/>
</g>
</g>
<g id="Group_43">
<g id="Group_44">
<g id="Group_45">
<g id="Group_46">
<path id="Vector_16" d="M79.3408 60.1656C82.1112 55.0965 84.5498 49.9821 86.6555 44.822C91.1697 47.7398 95.4931 50.6733 99.6323 53.6277C99.4025 54.406 98.89 54.9874 98.2282 55.2682C92.9072 57.1826 87.2275 58.9073 81.1827 60.4305C80.5428 60.5723 79.907 60.5116 79.3408 60.1656Z" fill="#A140FD"/>
</g>
</g>
<g id="Group_47">
<g id="Group_48">
<path id="Vector_17" d="M86.6562 44.822C88.6867 39.8105 90.4139 34.7349 91.8368 29.5962C92.4449 29.9194 92.9976 30.5489 93.3465 31.4015C95.7957 37.9736 97.9231 44.6764 99.7061 51.509C99.9052 52.2728 99.877 53.0066 99.6331 53.6276C95.4937 50.6747 91.1704 47.7402 86.6562 44.822Z" fill="#AD5AFD"/>
</g>
</g>
<g id="Group_49">
<g id="Group_50">
<path id="Vector_18" d="M91.8417 29.5827C90.429 34.7315 88.6719 39.816 86.6593 44.8284C81.9425 41.759 77.0065 38.7274 71.8076 35.6973C72.1317 34.9351 72.7189 34.4339 73.5001 34.1855C79.4109 32.792 84.9599 31.1822 90.1062 29.3512C90.6745 29.1574 91.2632 29.2468 91.8417 29.5827Z" fill="#BC75FF"/>
</g>
</g>
<g id="Group_51">
<g id="Group_52">
<path id="Vector_19" d="M71.8173 35.6934C76.9931 38.7236 81.9356 41.7678 86.6561 44.822C84.5496 49.9814 82.1121 55.0961 79.3414 60.1656C78.639 59.7741 78.0268 59.053 77.8385 58.1191C76.2368 51.1453 74.2326 44.3322 71.854 37.6771C71.5805 36.9795 71.5894 36.278 71.8173 35.6934Z" fill="#AD5AFD"/>
</g>
</g>
</g>
<g id="Group_53">
<g id="Group_54">
<path id="Vector_20" d="M84.967 48.7897C84.967 48.7897 86.6688 44.7491 90.7722 47.523C90.7722 47.523 86.7806 44.8488 88.2759 40.6296C88.2759 40.6296 86.6466 44.7457 82.6523 42.2681C85.3516 43.9128 86.1601 46.0537 84.967 48.7897Z" fill="#CF9DFF"/>
</g>
</g>
</g>
</g>
</g>
<g id="_x35_9_2">
<g id="Group_55">
<g id="Group_56">
<g id="Group_57">
<g id="Group_58">
<g id="Group_59">
<g id="Group_60">
<g id="Group_61">
<path id="Vector_21" d="M9.57601 97.4923C12.9299 99.4825 16.9721 100.432 21.3403 99.9724C21.9284 99.9113 22.4962 99.8286 23.0859 99.7257C26.5615 99.0852 29.8606 97.6011 32.7851 95.5172C34.6558 94.1874 36.3899 92.6016 37.8814 90.7973C40.5762 87.6168 42.6386 83.8127 43.717 79.6918C44.1531 78.1398 44.4099 76.5529 44.5561 74.9271C44.5914 74.552 44.6066 74.1551 44.621 73.7791C44.7076 71.5236 44.5186 69.3619 44.0525 67.3361C42.7602 61.7647 39.5033 57.2473 35.0449 54.6082L40.6272 57.9388C45.0856 60.578 48.3426 65.0953 49.6139 70.666C50.1009 72.6925 50.2899 74.8542 50.2033 77.1099C50.1889 77.4858 50.1536 77.8609 50.1183 78.236C49.9932 79.8626 49.7018 81.462 49.3074 83.0156C48.1864 87.1558 46.1585 90.9476 43.4639 94.1279C41.9722 95.9323 40.259 97.519 38.3883 98.8486C31.3616 103.905 22.3023 105.051 15.1792 100.824L9.57601 97.4923Z" fill="#F3A250"/>
</g>
</g>
</g>
<g id="Group_62">
<g id="Group_63">
<g id="Group_64">
<path id="Vector_22" d="M0.0205154 78.3222C0.548515 65.1025 10.9548 53.3704 23.281 52.1072C35.5857 50.8641 45.1481 60.5805 44.6208 73.7791C44.0927 86.9988 33.6655 98.7301 21.3401 99.9724C9.03471 101.236 -0.507603 91.5417 0.0205154 78.3222Z" fill="#FFD475"/>
</g>
</g>
<g id="Group_65">
<g id="Group_66">
<path id="Vector_23" d="M23.399 53.2323C34.3321 51.9292 44.0234 60.682 43.4971 73.7322C42.9992 86.3919 33.0063 97.6701 21.2299 98.8589C9.26207 100 0.653999 90.6273 1.14772 78.375C1.64585 65.7154 11.6387 54.4372 23.399 53.2323ZM21.7281 94.6979C31.2711 93.734 39.3683 84.6407 39.786 74.439C40.1804 64.3378 33.0389 56.5073 22.9009 57.3772C13.3579 58.3571 5.27674 67.4663 4.85901 77.6682C4.43736 88.4103 12.453 95.7292 21.7281 94.6979Z" fill="#FFB961"/>
</g>
</g>
</g>
<g id="Group_67">
<g id="Group_68">
<g id="Group_69">
<path id="Vector_24" d="M5.98484 77.7142C6.37754 68.0241 14.0071 59.4274 23.0158 58.4972C32.0447 57.5886 39.0508 64.6969 38.6581 74.3869C38.2654 84.077 30.6358 92.6737 21.607 93.5822C12.5983 94.5125 5.59293 87.3833 5.98484 77.7142Z" fill="#F3A250"/>
</g>
</g>
</g>
<g id="Group_70">
<g id="Group_71">
<g id="Group_72">
<path id="Vector_25" d="M5.98432 77.7143C6.37702 68.0242 14.0066 59.4275 23.0153 58.4973C28.2647 57.9667 32.8453 60.1502 35.6475 63.9809C32.8944 61.5953 29.2184 60.3668 25.1242 60.7744C16.1154 61.7046 8.48584 70.3013 8.09313 79.9913C7.93849 84.0222 9.05547 87.6208 11.104 90.3767C7.76218 87.5293 5.76068 82.9975 5.98432 77.7143Z" fill="#DD8536"/>
</g>
</g>
</g>
<g id="Group_73">
<g id="Group_74">
<g id="Group_75">
<path id="Vector_26" d="M23.0862 99.7256C26.5619 99.0851 29.8609 97.6011 32.7855 95.5171L38.3887 98.8485C35.4633 100.953 32.1652 102.417 28.6894 103.057L23.0862 99.7256Z" fill="#DD8536"/>
</g>
</g>
</g>
<g id="Group_76">
<g id="Group_77">
<g id="Group_78">
<path id="Vector_27" d="M37.8816 90.7974C40.5764 87.6169 42.6388 83.8128 43.7172 79.6919L49.3076 83.0157C48.1866 87.1559 46.1587 90.9477 43.4641 94.128L37.8816 90.7974Z" fill="#DD8536"/>
</g>
</g>
</g>
<g id="Group_79">
<g id="Group_80">
<g id="Group_81">
<path id="Vector_28" d="M44.0525 67.3362L49.6139 70.666C50.1009 72.6926 50.2899 74.8542 50.2033 77.1099C50.1889 77.4858 50.1536 77.8609 50.1183 78.2361L44.5561 74.9271C44.5914 74.552 44.6066 74.1552 44.621 73.7791C44.7076 71.5236 44.5186 69.3619 44.0525 67.3362Z" fill="#DD8536"/>
</g>
</g>
</g>
</g>
<g id="Group_82">
<g id="Group_83">
<path id="Vector_29" d="M37.0267 67.8699C36.9195 67.6371 36.5889 67.6402 36.4826 67.8739C35.934 69.0793 35.4607 70.0596 35.3772 70.0255C35.3012 69.9945 35.6431 68.964 36.0868 67.7198C36.1729 67.4783 35.9387 67.2456 35.7001 67.3369C33.2681 68.2672 31.0343 69.076 30.9717 68.9262C30.9115 68.7822 33.0489 67.731 35.4087 66.6279C35.6405 66.5196 35.6386 66.1876 35.4063 66.0814C34.215 65.5366 33.2422 65.0645 33.2764 64.9805C33.3075 64.9041 34.3322 65.2447 35.5694 65.6869C35.8095 65.7727 36.0418 65.5367 35.9516 65.2973C33.5966 59.0416 33.8891 58.995 36.658 65.0025C36.7652 65.2351 37.0956 65.2321 37.202 64.9984C37.7476 63.7999 38.2191 62.8208 38.295 62.8518C38.3785 62.8858 38.0362 63.9197 37.5898 65.155C37.5024 65.3967 37.7367 65.6305 37.9759 65.5391C40.403 64.6117 42.6465 63.8045 42.7067 63.9485C42.7693 64.0983 40.6242 65.1469 38.2679 66.2476C38.0363 66.3558 38.0379 66.6874 38.2697 66.794C39.4642 67.3433 40.4393 67.815 40.4082 67.8915C40.3741 67.9754 39.3463 67.6346 38.1166 67.1858C37.8763 67.0981 37.6422 67.3342 37.7326 67.5746C40.0609 73.7654 39.8304 73.9583 37.0267 67.8699Z" fill="white"/>
</g>
</g>
</g>
</g>
<g id="Group_84" opacity="0.7">
<g id="Group_85">
<path id="Vector_30" d="M26.9619 88.4954C24.889 89.7277 23.0478 90.2782 23.4931 91.1212C23.9336 91.9553 26.0019 91.6604 28.0748 90.4282C30.1476 89.1959 31.1331 87.5152 30.6925 86.6811C30.2473 85.8381 29.0348 87.2631 26.9619 88.4954Z" fill="white"/>
</g>
</g>
<g id="Group_86" opacity="0.7">
<g id="Group_87">
<path id="Vector_31" d="M33.0969 84.2602C32.7234 83.9687 32.0923 84.1551 31.6864 84.6637C31.2806 85.1723 31.2505 85.8145 31.624 86.106C31.9899 86.3916 32.6145 86.2134 33.0204 85.7048C33.4262 85.1962 33.4628 84.5458 33.0969 84.2602Z" fill="white"/>
</g>
</g>
</g>
<g id="Group_88">
<g id="Group_89">
<g id="Group_90">
<path id="Vector_32" d="M30.6338 72.125C30.5131 71.2859 29.8738 70.2052 29.0735 69.842C28.7922 71.0503 29.4859 71.9625 30.6338 72.125Z" fill="#DD8536"/>
</g>
</g>
<g id="Group_91">
<g id="Group_92">
<path id="Vector_33" d="M13.7678 79.9824C13.7678 79.9824 13.5395 82.4484 15.5507 83.1444C17.562 83.8405 13.7678 79.9824 13.7678 79.9824Z" fill="#DD8536"/>
</g>
</g>
<g id="Group_93">
<g id="Group_94">
<path id="Vector_34" d="M14.4427 81.8506C14.5149 82.1348 14.6498 82.3977 14.8446 82.6069C15.0248 82.8339 15.2663 83.0231 15.5506 83.1446C18.4594 84.1911 21.5521 85.1255 24.7798 85.9359C26.1214 86.2011 27.1244 85.2811 27.3598 84.2049C28.1846 80.5729 29.2643 76.9037 30.5307 73.3478C30.9885 72.1276 30.3608 71.0027 29.2411 70.6504C26.0336 69.8867 23.0594 69.0229 20.367 68.0549C19.495 67.7384 18.2836 68.3294 17.8295 69.5246C16.4842 73.1033 15.338 76.746 14.3836 80.3724C14.2473 80.9681 14.2819 81.2697 14.4427 81.8506Z" fill="#DD8536"/>
</g>
</g>
<g id="Group_95">
<g id="Group_96">
<path id="Vector_35" d="M15.036 82.1969C17.9448 83.2434 21.0375 84.1778 24.2652 84.9883C25.5222 85.2367 26.5913 84.4178 26.8452 83.2572C27.67 79.6253 28.7497 75.956 30.0161 72.4001C30.4709 71.1881 29.8563 70.0582 28.7265 69.7027C25.519 68.9391 22.5448 68.0752 19.8524 67.1073C18.9956 66.7963 17.78 67.3529 17.3149 68.5769C15.9697 72.1556 14.8234 75.7983 13.8691 79.4248C13.5792 80.6915 14.1289 81.8093 15.036 82.1969Z" fill="#D7ACFF"/>
</g>
</g>
<g id="Group_97">
<g id="Group_98">
<g id="Group_99">
<g id="Group_100">
<path id="Vector_36" d="M25.4053 84.2229C23.9216 81.5081 22.6155 78.769 21.4877 76.0054C19.0701 77.568 16.7546 79.1391 14.5377 80.7214C14.6608 81.1383 14.9353 81.4497 15.2898 81.6001C18.1395 82.6253 21.1814 83.549 24.4188 84.3648C24.7615 84.4408 25.102 84.4082 25.4053 84.2229Z" fill="#A140FD"/>
</g>
</g>
<g id="Group_101">
<g id="Group_102">
<path id="Vector_37" d="M21.4873 76.0053C20.3999 73.3213 19.4748 70.603 18.7128 67.8508C18.3871 68.0239 18.0911 68.3611 17.9042 68.8177C16.5925 72.3375 15.4531 75.9273 14.4982 79.5867C14.3916 79.9957 14.4067 80.3888 14.5373 80.7213C16.7542 79.1399 19.0697 77.5682 21.4873 76.0053Z" fill="#AD5AFD"/>
</g>
</g>
<g id="Group_103">
<g id="Group_104">
<path id="Vector_38" d="M18.7098 67.8436C19.4664 70.6011 20.4075 73.3242 21.4853 76.0087C24.0115 74.3649 26.6551 72.7412 29.4395 71.1184C29.2659 70.7102 28.9514 70.4417 28.533 70.3087C25.3674 69.5624 22.3955 68.7002 19.6393 67.7196C19.3349 67.6158 19.0196 67.6637 18.7098 67.8436Z" fill="#BC75FF"/>
</g>
</g>
<g id="Group_105">
<g id="Group_106">
<path id="Vector_39" d="M29.4344 71.1162C26.6624 72.7391 24.0154 74.3695 21.4872 76.0053C22.6154 78.7685 23.9209 81.5077 25.4048 84.2228C25.7809 84.0131 26.1088 83.627 26.2096 83.1268C27.0675 79.3918 28.1409 75.7429 29.4148 72.1786C29.5612 71.805 29.5565 71.4293 29.4344 71.1162Z" fill="#AD5AFD"/>
</g>
</g>
</g>
<g id="Group_107">
<g id="Group_108">
<path id="Vector_40" d="M22.3922 78.1303C22.3922 78.1303 21.4808 75.9663 19.2831 77.4519C19.2831 77.4519 21.4209 76.0197 20.62 73.76C20.62 73.76 21.4926 75.9644 23.6318 74.6375C22.1862 75.5184 21.7532 76.665 22.3922 78.1303Z" fill="#CF9DFF"/>
</g>
</g>
</g>
</g>
</g>
<g id="_x35_9_3">
<g id="Group_109">
<g id="Group_110">
<g id="Group_111">
<g id="Group_112">
<g id="Group_113">
<g id="Group_114">
<g id="Group_115">
<path id="Vector_41" d="M137.106 48.2568C138.894 49.318 141.049 49.8244 143.378 49.5792C143.692 49.5467 143.995 49.5025 144.309 49.4477C146.162 49.1061 147.922 48.3148 149.481 47.2036C150.478 46.4946 151.403 45.6491 152.198 44.687C153.635 42.9911 154.735 40.9627 155.31 38.7654C155.542 37.9379 155.679 37.0917 155.757 36.2248C155.776 36.0248 155.784 35.8132 155.792 35.6127C155.838 34.4101 155.737 33.2574 155.489 32.1773C154.8 29.2065 153.063 26.7978 150.686 25.3906L153.662 27.1665C156.04 28.5738 157.776 30.9825 158.454 33.9528C158.714 35.0334 158.815 36.186 158.768 37.3887C158.761 37.5892 158.742 37.7892 158.723 37.9892C158.656 38.8565 158.501 39.7093 158.291 40.5377C157.693 42.7453 156.612 44.7671 155.175 46.4629C154.38 47.425 153.466 48.271 152.469 48.98C148.722 51.6759 143.891 52.287 140.093 50.0332L137.106 48.2568Z" fill="#F3A250"/>
</g>
</g>
</g>
<g id="Group_116">
<g id="Group_117">
<g id="Group_118">
<path id="Vector_42" d="M132.011 38.0352C132.293 30.9864 137.842 24.7307 144.414 24.0571C150.975 23.3943 156.074 28.5752 155.793 35.6128C155.511 42.6616 149.951 48.9169 143.379 49.5793C136.818 50.2533 131.73 45.084 132.011 38.0352Z" fill="#FFD475"/>
</g>
</g>
<g id="Group_119">
<g id="Group_120">
<path id="Vector_43" d="M144.477 24.657C150.306 23.9622 155.474 28.6293 155.193 35.5877C154.928 42.338 149.599 48.3516 143.32 48.9855C136.939 49.594 132.349 44.5964 132.612 38.0633C132.878 31.3131 138.206 25.2995 144.477 24.657ZM143.586 46.7668C148.674 46.2529 152.992 41.4043 153.214 35.9646C153.425 30.5786 149.617 26.4033 144.211 26.8671C139.123 27.3896 134.814 32.2467 134.591 37.6865C134.366 43.4142 138.64 47.3167 143.586 46.7668Z" fill="#FFB961"/>
</g>
</g>
</g>
<g id="Group_121">
<g id="Group_122">
<g id="Group_123">
<path id="Vector_44" d="M135.191 37.711C135.4 32.5442 139.469 27.9603 144.272 27.4643C149.086 26.9799 152.822 30.7701 152.613 35.9369C152.403 41.1037 148.335 45.6875 143.521 46.172C138.717 46.668 134.982 42.8666 135.191 37.711Z" fill="#F3A250"/>
</g>
</g>
</g>
<g id="Group_124">
<g id="Group_125">
<g id="Group_126">
<path id="Vector_45" d="M135.19 37.711C135.4 32.5442 139.468 27.9604 144.271 27.4644C147.07 27.1815 149.513 28.3458 151.007 30.3883C149.539 29.1163 147.579 28.4612 145.396 28.6786C140.592 29.1746 136.524 33.7584 136.315 38.9252C136.232 41.0745 136.828 42.9933 137.92 44.4628C136.138 42.9445 135.071 40.5281 135.19 37.711Z" fill="#DD8536"/>
</g>
</g>
</g>
<g id="Group_127">
<g id="Group_128">
<g id="Group_129">
<path id="Vector_46" d="M144.309 49.4476C146.163 49.1061 147.922 48.3148 149.481 47.2036L152.469 48.98C150.909 50.1023 149.15 50.8825 147.297 51.224L144.309 49.4476Z" fill="#DD8536"/>
</g>
</g>
</g>
<g id="Group_130">
<g id="Group_131">
<g id="Group_132">
<path id="Vector_47" d="M152.199 44.6869C153.635 42.9911 154.735 40.9627 155.31 38.7654L158.291 40.5377C157.693 42.7453 156.612 44.7671 155.175 46.4629L152.199 44.6869Z" fill="#DD8536"/>
</g>
</g>
</g>
<g id="Group_133">
<g id="Group_134">
<g id="Group_135">
<path id="Vector_48" d="M155.489 32.1775L158.454 33.953C158.714 35.0336 158.815 36.1862 158.768 37.3889C158.761 37.5894 158.742 37.7894 158.723 37.9894L155.757 36.225C155.776 36.025 155.784 35.8134 155.792 35.6129C155.838 34.4103 155.737 33.2576 155.489 32.1775Z" fill="#DD8536"/>
</g>
</g>
</g>
</g>
<g id="Group_136">
<g id="Group_137">
<path id="Vector_49" d="M151.743 32.4619C151.686 32.3378 151.51 32.3395 151.453 32.4641C151.161 33.1068 150.908 33.6295 150.864 33.6113C150.823 33.5948 151.005 33.0454 151.242 32.3819C151.288 32.2532 151.163 32.1291 151.036 32.1777C149.739 32.6738 148.548 33.105 148.515 33.0252C148.482 32.9484 149.622 32.3879 150.88 31.7997C151.004 31.7419 151.003 31.5649 150.879 31.5083C150.244 31.2178 149.725 30.9661 149.743 30.9213C149.76 30.8806 150.306 31.0622 150.966 31.298C151.094 31.3437 151.218 31.2179 151.17 31.0902C149.914 27.7546 150.07 27.7298 151.547 30.933C151.604 31.0571 151.78 31.0555 151.837 30.9309C152.128 30.2918 152.379 29.7697 152.419 29.7862C152.464 29.8044 152.281 30.3557 152.043 31.0144C151.997 31.1432 152.122 31.2679 152.249 31.2192C153.543 30.7247 154.74 30.2943 154.772 30.371C154.805 30.4509 153.661 31.01 152.405 31.5969C152.281 31.6546 152.282 31.8314 152.406 31.8883C153.043 32.1812 153.563 32.4327 153.546 32.4735C153.528 32.5182 152.98 32.3365 152.324 32.0972C152.196 32.0504 152.071 32.1763 152.12 32.3045C153.361 35.6055 153.238 35.7084 151.743 32.4619Z" fill="white"/>
</g>
</g>
</g>
</g>
<g id="Group_138" opacity="0.7">
<g id="Group_139">
<path id="Vector_50" d="M146.377 43.4597C145.271 44.1167 144.29 44.4103 144.527 44.8598C144.762 45.3045 145.865 45.1473 146.97 44.4903C148.075 43.8332 148.601 42.937 148.366 42.4923C148.128 42.0428 147.482 42.8026 146.377 43.4597Z" fill="white"/>
</g>
</g>
<g id="Group_140" opacity="0.7">
<g id="Group_141">
<path id="Vector_51" d="M149.648 41.2014C149.448 41.0459 149.112 41.1453 148.895 41.4165C148.679 41.6877 148.663 42.0301 148.862 42.1856C149.057 42.3378 149.39 42.2428 149.607 41.9716C149.823 41.7004 149.843 41.3536 149.648 41.2014Z" fill="white"/>
</g>
</g>
</g>
<g id="Group_142">
<g id="Group_143">
<g id="Group_144">
<path id="Vector_52" d="M148.334 34.7309C148.27 34.2836 147.929 33.7073 147.502 33.5137C147.352 34.1579 147.722 34.6443 148.334 34.7309Z" fill="#DD8536"/>
</g>
</g>
<g id="Group_145">
<g id="Group_146">
<path id="Vector_53" d="M139.341 38.9207C139.341 38.9207 139.22 40.2355 140.292 40.6067C141.364 40.9778 139.341 38.9207 139.341 38.9207Z" fill="#DD8536"/>
</g>
</g>
<g id="Group_147">
<g id="Group_148">
<path id="Vector_54" d="M139.701 39.9166C139.739 40.0682 139.811 40.2083 139.915 40.3199C140.011 40.4409 140.14 40.5418 140.291 40.6066C141.842 41.1646 143.491 41.6628 145.212 42.095C145.928 42.2363 146.463 41.7458 146.588 41.172C147.028 39.2354 147.604 37.2789 148.279 35.3829C148.523 34.7322 148.188 34.1325 147.591 33.9446C145.881 33.5374 144.295 33.0768 142.859 32.5607C142.395 32.3919 141.749 32.707 141.507 33.3443C140.789 35.2525 140.178 37.1948 139.669 39.1285C139.596 39.4461 139.615 39.6069 139.701 39.9166Z" fill="#DD8536"/>
</g>
</g>
<g id="Group_149">
<g id="Group_150">
<path id="Vector_55" d="M140.017 40.1014C141.568 40.6594 143.217 41.1576 144.938 41.5898C145.608 41.7222 146.178 41.2856 146.314 40.6668C146.754 38.7302 147.329 36.7737 148.005 34.8777C148.247 34.2314 147.919 33.6289 147.317 33.4394C145.607 33.0322 144.021 32.5716 142.585 32.0555C142.128 31.8896 141.48 32.1864 141.232 32.8391C140.515 34.7473 139.904 36.6896 139.395 38.6233C139.24 39.2987 139.533 39.8947 140.017 40.1014Z" fill="#D7ACFF"/>
</g>
</g>
<g id="Group_151">
<g id="Group_152">
<g id="Group_153">
<g id="Group_154">
<path id="Vector_56" d="M145.546 41.1815C144.755 39.7339 144.058 38.2734 143.457 36.7998C142.168 37.633 140.933 38.4708 139.751 39.3144C139.817 39.5367 139.963 39.7027 140.152 39.7829C141.672 40.3296 143.294 40.8221 145.02 41.2571C145.203 41.2976 145.384 41.2803 145.546 41.1815Z" fill="#A140FD"/>
</g>
</g>
<g id="Group_155">
<g id="Group_156">
<path id="Vector_57" d="M143.457 36.7999C142.877 35.3688 142.384 33.9194 141.978 32.4519C141.804 32.5442 141.646 32.724 141.546 32.9675C140.847 34.8442 140.24 36.7584 139.73 38.7096C139.674 38.9277 139.682 39.1372 139.751 39.3146C140.933 38.4713 142.168 37.6333 143.457 36.7999Z" fill="#AD5AFD"/>
</g>
</g>
<g id="Group_157">
<g id="Group_158">
<path id="Vector_58" d="M141.976 32.448C142.38 33.9183 142.881 35.3703 143.456 36.8017C144.803 35.9252 146.213 35.0594 147.697 34.1941C147.605 33.9765 147.437 33.8333 147.214 33.7624C145.526 33.3644 143.941 32.9047 142.472 32.3819C142.309 32.3265 142.141 32.3521 141.976 32.448Z" fill="#BC75FF"/>
</g>
</g>
<g id="Group_159">
<g id="Group_160">
<path id="Vector_59" d="M147.695 34.1931C146.217 35.0585 144.805 35.9278 143.457 36.8C144.059 38.2734 144.755 39.734 145.546 41.1817C145.747 41.0699 145.921 40.8639 145.975 40.5972C146.433 38.6057 147.005 36.6601 147.684 34.7596C147.762 34.5604 147.76 34.3601 147.695 34.1931Z" fill="#AD5AFD"/>
</g>
</g>
</g>
<g id="Group_161">
<g id="Group_162">
<path id="Vector_60" d="M143.94 37.9328C143.94 37.9328 143.454 36.7789 142.282 37.5711C142.282 37.5711 143.422 36.8074 142.995 35.6025C142.995 35.6025 143.46 36.778 144.601 36.0704C143.83 36.5401 143.599 37.1515 143.94 37.9328Z" fill="#CF9DFF"/>
</g>
</g>
</g>
</g>
</g>
</g>
</svg>
