<svg width="117" height="76" viewBox="0 0 117 76" fill="none" xmlns="http://www.w3.org/2000/svg">
<g id="Group 129">
<g id="_x35_9">
<g id="Group">
<g id="Group_2">
<g id="Group_3">
<g id="Group_4">
<g id="Group_5">
<g id="Group_6">
<g id="Group_7">
<path id="Vector" d="M79.9738 62.136C75.3928 64.8544 69.8719 66.1516 63.9055 65.5235C63.1023 65.4401 62.3267 65.327 61.5213 65.1865C56.7741 64.3116 52.2681 62.2846 48.2736 59.4382C45.7185 57.622 43.3499 55.4561 41.3127 52.9916C37.632 48.6475 34.8151 43.4517 33.3421 37.8231C32.7466 35.7033 32.3957 33.5358 32.1962 31.3152C32.1479 30.8028 32.1271 30.2608 32.1074 29.7472C31.9892 26.6665 32.2473 23.714 32.884 20.9471C34.6491 13.3373 39.0974 7.16716 45.187 3.5625L37.5624 8.11166C31.4728 11.7165 27.0243 17.8864 25.2879 25.4951C24.6227 28.2631 24.3646 31.2156 24.4828 34.2965C24.5025 34.81 24.5508 35.3224 24.599 35.8347C24.7699 38.0564 25.1679 40.241 25.7065 42.3629C27.2377 48.0179 30.0074 53.1969 33.6879 57.5407C35.7253 60.0052 38.0653 62.1725 40.6204 63.9885C50.2178 70.8942 62.5915 72.4595 72.3206 66.6862L79.9738 62.136Z" fill="#4B5067"/>
</g>
</g>
</g>
<g id="Group_8">
<g id="Group_9">
<g id="Group_10">
<path id="Vector_2" d="M93.025 35.9523C92.3038 17.8961 78.0904 1.87172 61.2545 0.14636C44.4481 -1.55154 31.3873 11.7197 32.1075 29.7471C32.8289 47.8033 47.0708 63.8265 63.9056 65.5233C80.7129 67.2498 93.7463 54.0083 93.025 35.9523Z" fill="#898D9E"/>
</g>
</g>
<g id="Group_11">
<g id="Group_12">
<path id="Vector_3" d="M61.0923 1.68299C46.1593 -0.0968249 32.9224 11.8582 33.6413 29.6829C34.3214 46.9742 47.9702 62.3785 64.0549 64.0023C80.4013 65.5609 92.1587 52.7592 91.4843 36.0244C90.8039 18.7331 77.1551 3.32875 61.0923 1.68299ZM63.3746 58.319C50.3402 57.0025 39.2806 44.5824 38.7101 30.6483C38.1714 16.8516 47.9256 6.15618 61.7727 7.34432C74.807 8.68284 85.8447 21.1246 86.4152 35.059C86.9912 49.731 76.043 59.7276 63.3746 58.319Z" fill="#6D738E"/>
</g>
</g>
</g>
<g id="Group_13">
<g id="Group_14">
<g id="Group_15">
<path id="Vector_4" d="M84.8798 35.122C84.3435 21.8868 73.9226 10.145 61.618 8.87445C49.2858 7.6335 39.7166 17.3423 40.2529 30.5775C40.7893 43.8127 51.2102 55.5545 63.5422 56.7955C75.8468 58.0661 85.4151 48.3287 84.8798 35.122Z" fill="#4B5067"/>
</g>
</g>
</g>
<g id="Group_16">
<g id="Group_17">
<g id="Group_18">
<path id="Vector_5" d="M84.8798 35.1219C84.3434 21.8867 73.9226 10.1449 61.618 8.87427C54.4481 8.1495 48.1916 11.132 44.3643 16.3641C48.1245 13.1058 53.1454 11.4277 58.7375 11.9844C71.0422 13.255 81.4631 24.9968 81.9995 38.232C82.2107 43.7376 80.685 48.6528 77.887 52.4169C82.4515 48.5278 85.1852 42.338 84.8798 35.1219Z" fill="#5C6280"/>
</g>
</g>
</g>
<g id="Group_19">
<g id="Group_20">
<g id="Group_21">
<path id="Vector_6" d="M61.522 65.1863C56.7747 64.3114 52.2687 62.2844 48.2743 59.438L40.6211 63.9882C44.6167 66.8632 49.1214 68.8616 53.8688 69.7365L61.522 65.1863Z" fill="#5C6280"/>
</g>
</g>
</g>
<g id="Group_22">
<g id="Group_23">
<g id="Group_24">
<path id="Vector_7" d="M41.3133 52.9915C37.6326 48.6474 34.8156 43.4516 33.3427 37.823L25.707 42.3628C27.2382 48.0178 30.008 53.1968 33.6885 57.5407L41.3133 52.9915Z" fill="#5C6280"/>
</g>
</g>
</g>
<g id="Group_25">
<g id="Group_26">
<g id="Group_27">
<path id="Vector_8" d="M32.884 20.947L25.2879 25.4951C24.6227 28.2631 24.3646 31.2156 24.4828 34.2965C24.5025 34.8099 24.5508 35.3223 24.599 35.8347L32.1962 31.3151C32.1479 30.8028 32.1271 30.2608 32.1074 29.7472C31.9892 26.6664 32.2473 23.7139 32.884 20.947Z" fill="#5C6280"/>
</g>
</g>
</g>
</g>
<g id="Group_28">
<g id="Group_29">
<path id="Vector_9" d="M42.4806 21.6757C42.627 21.3578 43.0785 21.362 43.2237 21.6812C43.973 23.3276 44.6194 24.6666 44.7336 24.62C44.8374 24.5777 44.3703 23.1701 43.7643 21.4707C43.6467 21.1409 43.9666 20.823 44.2925 20.9477C47.6142 22.2184 50.6653 23.3231 50.7507 23.1185C50.8329 22.9218 47.9137 21.4861 44.6905 19.9794C44.3738 19.8314 44.3766 19.3779 44.6938 19.2328C46.3209 18.4887 47.6496 17.844 47.6029 17.7293C47.5604 17.6249 46.1608 18.0902 44.4711 18.6941C44.1431 18.8113 43.8258 18.489 43.949 18.1619C47.1656 9.61754 46.7661 9.55392 42.9842 17.7592C42.8377 18.077 42.3864 18.0729 42.2411 17.7537C41.4959 16.1168 40.8519 14.7794 40.7482 14.8217C40.6342 14.8682 41.1017 16.2804 41.7115 17.9676C41.8307 18.2977 41.5107 18.617 41.1841 18.4922C37.869 17.2255 34.8047 16.123 34.7225 16.3197C34.6371 16.5242 37.5669 17.9565 40.7852 19.4599C41.1016 19.6077 41.0994 20.0606 40.7828 20.2062C39.1512 20.9564 37.8194 21.6008 37.8619 21.7052C37.9085 21.8198 39.3124 21.3544 40.9918 20.7413C41.3202 20.6215 41.6399 20.9441 41.5164 21.2724C38.3363 29.7281 38.6511 29.9917 42.4806 21.6757Z" fill="white"/>
</g>
</g>
</g>
</g>
<g id="Group_30" opacity="0.7">
<g id="Group_31">
<path id="Vector_10" d="M56.2269 49.8472C59.0582 51.5304 61.573 52.2823 60.9648 53.4337C60.3631 54.573 57.5382 54.1703 54.7069 52.4871C51.8757 50.804 50.5297 48.5084 51.1314 47.3691C51.7395 46.2177 53.3957 48.1642 56.2269 49.8472Z" fill="white"/>
</g>
</g>
<g id="Group_32" opacity="0.7">
<g id="Group_33">
<path id="Vector_11" d="M47.848 44.0625C48.3582 43.6643 49.2202 43.9189 49.7746 44.6136C50.3289 45.3083 50.37 46.1854 49.8598 46.5836C49.3601 46.9736 48.507 46.7303 47.9526 46.0356C47.3983 45.3409 47.3483 44.4525 47.848 44.0625Z" fill="white"/>
</g>
</g>
</g>
<g id="Group_34">
<g id="Group_35">
<g id="Group_36">
<path id="Vector_12" d="M51.2129 27.4878C51.3777 26.3417 52.251 24.8656 53.344 24.3696C53.7283 26.0199 52.7808 27.2659 51.2129 27.4878Z" fill="#5C6280"/>
</g>
</g>
<g id="Group_37">
<g id="Group_38">
<path id="Vector_13" d="M74.2491 38.2202C74.2491 38.2202 74.5609 41.5884 71.8138 42.5391C69.0667 43.4897 74.2491 38.2202 74.2491 38.2202Z" fill="#5C6280"/>
</g>
</g>
<g id="Group_39">
<g id="Group_40">
<path id="Vector_14" d="M73.3265 40.7715C73.228 41.1597 73.0437 41.5187 72.7776 41.8045C72.5315 42.1146 72.2016 42.373 71.8133 42.5389C67.8403 43.9682 63.6161 45.2446 59.2075 46.3515C57.3751 46.7136 56.0052 45.4571 55.6837 43.9871C54.5571 39.0264 53.0824 34.0148 51.3526 29.1579C50.7273 27.4912 51.5847 25.9549 53.114 25.4737C57.495 24.4306 61.5574 23.2507 65.2348 21.9286C66.4258 21.4963 68.0803 22.3034 68.7006 23.936C70.5381 28.8239 72.1037 33.7993 73.4072 38.7525C73.5934 39.5662 73.5461 39.9781 73.3265 40.7715Z" fill="#5C6280"/>
</g>
</g>
<g id="Group_41">
<g id="Group_42">
<path id="Vector_15" d="M72.5163 41.2447C68.5433 42.674 64.3192 43.9503 59.9105 45.0572C58.1937 45.3965 56.7335 44.2781 56.3867 42.6929C55.2602 37.7321 53.7855 32.7205 52.0557 27.8636C51.4346 26.2083 52.2739 24.665 53.8171 24.1794C58.1981 23.1363 62.2604 21.9564 65.9379 20.6344C67.108 20.2096 68.7684 20.9699 69.4037 22.6417C71.2411 27.5296 72.8067 32.5051 74.1102 37.4583C74.5061 39.1884 73.7554 40.7152 72.5163 41.2447Z" fill="#BFBFBF"/>
</g>
</g>
<g id="Group_43">
<g id="Group_44">
<g id="Group_45">
<g id="Group_46">
<path id="Vector_16" d="M58.3545 44.0119C60.381 40.3038 62.1649 36.5625 63.7053 32.7878C67.0074 34.9222 70.1701 37.0681 73.198 39.2293C73.0299 39.7986 72.6549 40.224 72.1708 40.4294C68.2785 41.8297 64.1237 43.0914 59.7018 44.2056C59.2338 44.3093 58.7687 44.2649 58.3545 44.0119Z" fill="#4B5067"/>
</g>
</g>
<g id="Group_47">
<g id="Group_48">
<path id="Vector_17" d="M63.7051 32.788C65.1904 29.122 66.4539 25.4092 67.4947 21.6501C67.9395 21.8866 68.3439 22.3471 68.5991 22.9708C70.3907 27.7783 71.9469 32.6815 73.2512 37.6796C73.3968 38.2383 73.3762 38.7751 73.1978 39.2294C70.1698 37.0693 67.0072 34.9227 63.7051 32.788Z" fill="#898D9E"/>
</g>
</g>
<g id="Group_49">
<g id="Group_50">
<path id="Vector_18" d="M67.4989 21.6402C66.4655 25.4066 65.1801 29.126 63.7079 32.7926C60.2576 30.5473 56.6468 28.3296 52.8438 26.1131C53.0808 25.5555 53.5104 25.1889 54.0818 25.0072C58.4056 23.9878 62.4648 22.8102 66.2294 21.4709C66.6451 21.3291 67.0758 21.3945 67.4989 21.6402Z" fill="#5C627F"/>
</g>
</g>
<g id="Group_51">
<g id="Group_52">
<path id="Vector_19" d="M52.8508 26.1101C56.637 28.3268 60.2524 30.5537 63.7055 32.7878C62.1646 36.562 60.3815 40.3034 58.3547 44.0119C57.841 43.7254 57.3931 43.198 57.2554 42.5148C56.0837 37.4134 54.6176 32.4295 52.8776 27.5612C52.6776 27.0509 52.6841 26.5378 52.8508 26.1101Z" fill="#898D9E"/>
</g>
</g>
</g>
<g id="Group_53">
<g id="Group_54">
<path id="Vector_20" d="M62.4695 35.6903C62.4695 35.6903 63.7144 32.7346 66.7162 34.7638C66.7162 34.7638 63.7962 32.8076 64.8901 29.7212C64.8901 29.7212 63.6982 32.7321 60.7764 30.9197C62.7509 32.1229 63.3424 33.689 62.4695 35.6903Z" fill="#BABABA"/>
</g>
</g>
</g>
</g>
</g>
<g id="_x35_9_2">
<g id="Group_55">
<g id="Group_56">
<g id="Group_57">
<g id="Group_58">
<g id="Group_59">
<g id="Group_60">
<g id="Group_61">
<path id="Vector_21" d="M7.31951 71.3168C9.77295 72.7726 12.7298 73.4674 15.9252 73.131C16.3554 73.0863 16.7708 73.0258 17.2021 72.9505C19.7446 72.482 22.1579 71.3964 24.2972 69.8719C25.6657 68.8992 26.9342 67.7392 28.0253 66.4193C29.9965 64.0927 31.5052 61.31 32.2941 58.2955C32.613 57.1602 32.8009 55.9993 32.9078 54.8101C32.9337 54.5357 32.9448 54.2454 32.9554 53.9703C33.0187 52.3203 32.8804 50.7391 32.5394 49.2572C31.5941 45.1816 29.2117 41.8771 25.9503 39.9465L30.0338 42.3829C33.2952 44.3136 35.6777 47.618 36.6077 51.693C36.9639 53.1755 37.1022 54.7567 37.0389 56.4068C37.0283 56.6818 37.0025 56.9562 36.9766 57.2306C36.8851 58.4205 36.672 59.5904 36.3835 60.7269C35.5634 63.7555 34.08 66.5292 32.1089 68.8557C31.0177 70.1756 29.7645 71.3363 28.396 72.3089C23.2559 76.0074 16.629 76.8458 11.4183 73.7538L7.31951 71.3168Z" fill="#4B5067"/>
</g>
</g>
</g>
<g id="Group_62">
<g id="Group_63">
<g id="Group_64">
<path id="Vector_22" d="M0.329876 57.2936C0.716114 47.6232 8.3284 39.041 17.3452 38.117C26.3462 37.2076 33.3412 44.3153 32.9555 53.9702C32.5692 63.6406 24.9416 72.2222 15.9254 73.131C6.92386 74.0556 -0.0564499 66.9638 0.329876 57.2936Z" fill="#898D9E"/>
</g>
</g>
<g id="Group_65">
<g id="Group_66">
<path id="Vector_23" d="M17.4315 38.94C25.4292 37.9868 32.5184 44.3896 32.1335 53.936C31.7692 63.1966 24.4593 71.4468 15.8448 72.3164C7.09015 73.1512 0.793245 66.2949 1.15441 57.3322C1.5188 48.0716 8.8287 39.8214 17.4315 38.94ZM16.2092 69.2726C23.19 68.5675 29.1132 61.9157 29.4187 54.453C29.7073 47.0639 24.4832 41.3357 17.0671 41.9721C10.0863 42.6889 4.17483 49.3524 3.86926 56.8152C3.56081 64.6731 9.42434 70.027 16.2092 69.2726Z" fill="#6D738E"/>
</g>
</g>
</g>
<g id="Group_67">
<g id="Group_68">
<g id="Group_69">
<path id="Vector_24" d="M4.69213 56.8488C4.97939 49.7604 10.5605 43.4719 17.1505 42.7914C23.7552 42.1268 28.8802 47.3265 28.593 54.4149C28.3057 61.5033 22.7246 67.7918 16.1199 68.4565C9.52998 69.137 4.40544 63.9219 4.69213 56.8488Z" fill="#4B5067"/>
</g>
</g>
</g>
<g id="Group_70">
<g id="Group_71">
<g id="Group_72">
<path id="Vector_25" d="M4.69268 56.8487C4.97995 49.7604 10.561 43.4718 17.151 42.7913C20.991 42.4031 24.3418 44.0005 26.3916 46.8026C24.3777 45.0576 21.6887 44.1589 18.6937 44.457C12.1037 45.1375 6.52257 51.4261 6.2353 58.5144C6.12217 61.4631 6.93926 64.0955 8.43781 66.1115C5.99321 64.0286 4.52909 60.7135 4.69268 56.8487Z" fill="#5C6280"/>
</g>
</g>
</g>
<g id="Group_73">
<g id="Group_74">
<g id="Group_75">
<path id="Vector_26" d="M17.2016 72.9504C19.7441 72.4819 22.1574 71.3963 24.2967 69.8718L28.3955 72.3088C26.2556 73.8486 23.843 74.9188 21.3004 75.3874L17.2016 72.9504Z" fill="#5C6280"/>
</g>
</g>
</g>
<g id="Group_76">
<g id="Group_77">
<g id="Group_78">
<path id="Vector_27" d="M28.0256 66.4192C29.9968 64.0927 31.5055 61.3099 32.2944 58.2954L36.3838 60.7268C35.5637 63.7554 34.0803 66.5292 32.1092 68.8556L28.0256 66.4192Z" fill="#5C6280"/>
</g>
</g>
</g>
<g id="Group_79">
<g id="Group_80">
<g id="Group_81">
<path id="Vector_28" d="M32.5394 49.2571L36.6077 51.6929C36.9639 53.1753 37.1022 54.7566 37.0389 56.4067C37.0283 56.6817 37.0025 56.9561 36.9766 57.2305L32.9078 54.8099C32.9337 54.5355 32.9448 54.2453 32.9554 53.9702C33.0187 52.3202 32.8804 50.7389 32.5394 49.2571Z" fill="#5C6280"/>
</g>
</g>
</g>
</g>
<g id="Group_82">
<g id="Group_83">
<path id="Vector_29" d="M27.3997 49.6476C27.3213 49.4773 27.0795 49.4795 27.0017 49.6505C26.6004 50.5323 26.2542 51.2494 26.1931 51.2244C26.1375 51.2018 26.3876 50.448 26.7122 49.5378C26.7752 49.3611 26.6038 49.1909 26.4293 49.2577C24.6503 49.9382 23.0162 50.5298 22.9704 50.4203C22.9264 50.3149 24.4899 49.546 26.2161 48.7391C26.3857 48.6598 26.3843 48.4169 26.2144 48.3392C25.3429 47.9407 24.6313 47.5954 24.6564 47.534C24.6791 47.4781 25.4287 47.7273 26.3337 48.0507C26.5093 48.1135 26.6792 47.9409 26.6133 47.7657C24.8905 43.1896 25.1045 43.1555 27.13 47.55C27.2084 47.7202 27.4502 47.718 27.528 47.5471C27.927 46.6704 28.272 45.9541 28.3275 45.9768C28.3885 46.0017 28.1382 46.758 27.8116 47.6616C27.7477 47.8384 27.9191 48.0094 28.0941 47.9426C29.8695 47.2642 31.5107 46.6737 31.5547 46.779C31.6005 46.8886 30.0313 47.6557 28.3077 48.4609C28.1382 48.54 28.1394 48.7826 28.309 48.8606C29.1828 49.2624 29.8961 49.6075 29.8733 49.6634C29.8484 49.7247 29.0965 49.4755 28.197 49.1472C28.0212 49.083 27.8499 49.2557 27.9161 49.4315C29.6193 53.9602 29.4507 54.1013 27.3997 49.6476Z" fill="white"/>
</g>
</g>
</g>
</g>
<g id="Group_84" opacity="0.7">
<g id="Group_85">
<path id="Vector_30" d="M20.0372 64.7353C18.5208 65.6367 17.174 66.0394 17.4997 66.6561C17.8219 67.2662 19.3349 67.0506 20.8513 66.1491C22.3676 65.2477 23.0884 64.0182 22.7662 63.4081C22.4405 62.7914 21.5535 63.8339 20.0372 64.7353Z" fill="white"/>
</g>
</g>
<g id="Group_86" opacity="0.7">
<g id="Group_87">
<path id="Vector_31" d="M24.5251 61.6372C24.2519 61.4239 23.7902 61.5603 23.4933 61.9324C23.1964 62.3044 23.1744 62.7742 23.4477 62.9874C23.7153 63.1963 24.1722 63.066 24.4691 62.6939C24.766 62.3219 24.7928 61.8461 24.5251 61.6372Z" fill="white"/>
</g>
</g>
</g>
<g id="Group_88">
<g id="Group_89">
<g id="Group_90">
<path id="Vector_32" d="M22.7236 52.7603C22.6354 52.1465 22.1677 51.356 21.5823 51.0903C21.3765 51.9742 21.8839 52.6415 22.7236 52.7603Z" fill="#5C6280"/>
</g>
</g>
<g id="Group_91">
<g id="Group_92">
<path id="Vector_33" d="M10.3858 58.5083C10.3858 58.5083 10.2188 60.3122 11.69 60.8214C13.1613 61.3305 10.3858 58.5083 10.3858 58.5083Z" fill="#5C6280"/>
</g>
</g>
<g id="Group_93">
<g id="Group_94">
<path id="Vector_34" d="M10.8798 59.8747C10.9326 60.0826 11.0313 60.2749 11.1738 60.4279C11.3056 60.594 11.4823 60.7324 11.6903 60.8212C13.8181 61.5867 16.0804 62.2703 18.4415 62.8631C19.4229 63.0571 20.1566 62.3841 20.3288 61.5969C20.9322 58.9401 21.722 56.256 22.6484 53.6548C22.9833 52.7622 22.5241 51.9393 21.705 51.6816C19.3587 51.123 17.183 50.491 15.2135 49.783C14.5757 49.5515 13.6895 49.9837 13.3573 50.8581C12.3732 53.4759 11.5347 56.1406 10.8366 58.7934C10.7369 59.2291 10.7622 59.4497 10.8798 59.8747Z" fill="#5C6280"/>
</g>
</g>
<g id="Group_95">
<g id="Group_96">
<path id="Vector_35" d="M11.3134 60.1281C13.4412 60.8936 15.7035 61.5772 18.0646 62.17C18.9841 62.3517 19.7662 61.7527 19.9519 60.9038C20.5553 58.2469 21.345 55.5628 22.2715 52.9616C22.6041 52.0751 22.1546 51.2485 21.3281 50.9885C18.9818 50.4298 16.8061 49.7979 14.8366 49.0899C14.2099 48.8624 13.3206 49.2695 12.9804 50.1649C11.9963 52.7828 11.1578 55.4474 10.4597 58.1003C10.2477 59.0269 10.6498 59.8446 11.3134 60.1281Z" fill="#BFBFBF"/>
</g>
</g>
<g id="Group_97">
<g id="Group_98">
<g id="Group_99">
<g id="Group_100">
<path id="Vector_36" d="M18.8994 61.6101C17.8141 59.6242 16.8587 57.6205 16.0337 55.5989C14.2652 56.742 12.5713 57.8913 10.9497 59.0487C11.0397 59.3536 11.2405 59.5814 11.4998 59.6915C13.5844 60.4415 15.8096 61.1171 18.1778 61.7139C18.4285 61.7695 18.6776 61.7457 18.8994 61.6101Z" fill="#4B5067"/>
</g>
</g>
<g id="Group_101">
<g id="Group_102">
<path id="Vector_37" d="M16.0332 55.5989C15.2377 53.6355 14.561 51.647 14.0036 49.6338C13.7653 49.7604 13.5488 50.007 13.4121 50.3411C12.4526 52.9159 11.6191 55.5419 10.9206 58.2187C10.8426 58.5179 10.8536 58.8054 10.9492 59.0487C12.5709 57.8919 14.2647 56.7422 16.0332 55.5989Z" fill="#898D9E"/>
</g>
</g>
<g id="Group_103">
<g id="Group_104">
<path id="Vector_38" d="M14.0017 49.6286C14.5552 51.6457 15.2436 53.6377 16.032 55.6014C17.88 54.3989 19.8138 53.2112 21.8506 52.0241C21.7236 51.7255 21.4936 51.5291 21.1875 51.4318C18.8718 50.8859 16.6979 50.2552 14.6816 49.5379C14.459 49.4619 14.2283 49.497 14.0017 49.6286Z" fill="#5C627F"/>
</g>
</g>
<g id="Group_105">
<g id="Group_106">
<path id="Vector_39" d="M21.8466 52.0225C19.8188 53.2096 17.8825 54.4023 16.0331 55.5989C16.8583 57.6202 17.8133 59.624 18.8988 61.6101C19.174 61.4567 19.4138 61.1742 19.4876 60.8083C20.1151 58.0762 20.9003 55.4069 21.8322 52.7996C21.9393 52.5263 21.9358 52.2515 21.8466 52.0225Z" fill="#898D9E"/>
</g>
</g>
</g>
<g id="Group_107">
<g id="Group_108">
<path id="Vector_40" d="M16.6948 57.1534C16.6948 57.1534 16.028 55.5704 14.4204 56.6572C14.4204 56.6572 15.9842 55.6095 15.3984 53.9565C15.3984 53.9565 16.0367 55.5691 17.6016 54.5985C16.5441 55.2428 16.2273 56.0816 16.6948 57.1534Z" fill="#BABABA"/>
</g>
</g>
</g>
</g>
</g>
<g id="_x35_9_3">
<g id="Group_109">
<g id="Group_110">
<g id="Group_111">
<g id="Group_112">
<g id="Group_113">
<g id="Group_114">
<g id="Group_115">
<path id="Vector_41" d="M100.609 35.3004C101.918 36.0766 103.494 36.4471 105.198 36.2677C105.427 36.2439 105.649 36.2116 105.879 36.1715C107.235 35.9216 108.521 35.3428 109.662 34.53C110.392 34.0113 111.068 33.3928 111.65 32.689C112.701 31.4484 113.505 29.9647 113.926 28.3573C114.096 27.752 114.196 27.133 114.253 26.4988C114.267 26.3525 114.273 26.1977 114.279 26.0511C114.312 25.1713 114.239 24.3282 114.057 23.538C113.553 21.3649 112.282 19.6029 110.543 18.5735L112.721 19.8726C114.46 20.902 115.73 22.664 116.226 24.8368C116.416 25.6273 116.49 26.4704 116.456 27.3502C116.45 27.4969 116.437 27.6432 116.423 27.7895C116.374 28.4239 116.26 29.0478 116.106 29.6537C115.669 31.2686 114.878 32.7476 113.827 33.9881C113.245 34.6919 112.577 35.3108 111.848 35.8294C109.107 37.8014 105.573 38.2485 102.795 36.5998L100.609 35.3004Z" fill="#4B5067"/>
</g>
</g>
</g>
<g id="Group_116">
<g id="Group_117">
<g id="Group_118">
<path id="Vector_42" d="M96.8818 27.8231C97.0877 22.6668 101.147 18.0907 105.954 17.5979C110.754 17.1131 114.484 20.9029 114.278 26.051C114.072 31.2074 110.005 35.7831 105.197 36.2677C100.398 36.7607 96.6758 32.9793 96.8818 27.8231Z" fill="#898D9E"/>
</g>
</g>
<g id="Group_119">
<g id="Group_120">
<path id="Vector_43" d="M106.001 18.0368C110.266 17.5286 114.046 20.9426 113.841 26.0328C113.646 30.9707 109.749 35.3697 105.155 35.8334C100.487 36.2785 97.1298 32.6227 97.3224 27.8437C97.5167 22.9059 101.414 18.5068 106.001 18.0368ZM105.35 34.2104C109.072 33.8345 112.23 30.2877 112.393 26.3085C112.547 22.3685 109.761 19.3143 105.807 19.6536C102.085 20.0358 98.9329 23.5888 98.7699 27.568C98.6055 31.7579 101.732 34.6127 105.35 34.2104Z" fill="#6D738E"/>
</g>
</g>
</g>
<g id="Group_121">
<g id="Group_122">
<g id="Group_123">
<path id="Vector_44" d="M99.2077 27.5859C99.3609 23.8063 102.337 20.4532 105.851 20.0903C109.372 19.736 112.105 22.5085 111.952 26.2881C111.799 30.0677 108.823 33.4208 105.301 33.7752C101.787 34.138 99.0549 31.3573 99.2077 27.5859Z" fill="#4B5067"/>
</g>
</g>
</g>
<g id="Group_124">
<g id="Group_125">
<g id="Group_126">
<path id="Vector_45" d="M99.2083 27.5859C99.3615 23.8063 102.337 20.4532 105.851 20.0903C107.899 19.8833 109.685 20.735 110.778 22.2292C109.704 21.2987 108.271 20.8195 106.674 20.9785C103.16 21.3413 100.184 24.6944 100.031 28.474C99.9705 30.0463 100.406 31.4499 101.205 32.5248C99.9017 31.4142 99.121 29.6466 99.2083 27.5859Z" fill="#5C6280"/>
</g>
</g>
</g>
<g id="Group_127">
<g id="Group_128">
<g id="Group_129">
<path id="Vector_46" d="M105.879 36.1716C107.235 35.9217 108.521 35.3429 109.662 34.53L111.848 35.8294C110.707 36.6505 109.42 37.2211 108.064 37.471L105.879 36.1716Z" fill="#5C6280"/>
</g>
</g>
</g>
<g id="Group_130">
<g id="Group_131">
<g id="Group_132">
<path id="Vector_47" d="M111.65 32.6889C112.701 31.4483 113.505 29.9645 113.926 28.3572L116.106 29.6536C115.669 31.2685 114.878 32.7475 113.827 33.988L111.65 32.6889Z" fill="#5C6280"/>
</g>
</g>
</g>
<g id="Group_133">
<g id="Group_134">
<g id="Group_135">
<path id="Vector_48" d="M114.057 23.5381L116.226 24.8369C116.416 25.6273 116.49 26.4705 116.456 27.3503C116.45 27.4969 116.437 27.6432 116.423 27.7896L114.253 26.4989C114.267 26.3526 114.273 26.1978 114.279 26.0511C114.312 25.1714 114.239 24.3282 114.057 23.5381Z" fill="#5C6280"/>
</g>
</g>
</g>
</g>
<g id="Group_136">
<g id="Group_137">
<path id="Vector_49" d="M111.316 23.7461C111.274 23.6553 111.145 23.6565 111.104 23.7477C110.89 24.2178 110.705 24.6002 110.673 24.5869C110.643 24.5748 110.777 24.1729 110.95 23.6876C110.983 23.5934 110.892 23.5026 110.799 23.5382C109.85 23.9011 108.979 24.2165 108.955 24.1581C108.931 24.1019 109.765 23.6919 110.685 23.2617C110.776 23.2194 110.775 23.0899 110.684 23.0485C110.22 22.836 109.84 22.6519 109.853 22.6191C109.866 22.5893 110.265 22.7222 110.748 22.8946C110.841 22.9281 110.932 22.8361 110.897 22.7427C109.978 20.3026 110.092 20.2845 111.172 22.6277C111.214 22.7184 111.343 22.7172 111.385 22.6261C111.597 22.1586 111.781 21.7767 111.811 21.7888C111.843 21.8021 111.71 22.2054 111.536 22.6872C111.502 22.7814 111.593 22.8726 111.686 22.837C112.633 22.4753 113.508 22.1604 113.532 22.2166C113.556 22.275 112.719 22.684 111.8 23.1133C111.71 23.1555 111.711 23.2849 111.801 23.3265C112.267 23.5407 112.647 23.7247 112.635 23.7545C112.622 23.7873 112.221 23.6543 111.741 23.4793C111.648 23.4451 111.556 23.5372 111.592 23.6309C112.5 26.0456 112.41 26.1209 111.316 23.7461Z" fill="white"/>
</g>
</g>
</g>
</g>
<g id="Group_138" opacity="0.7">
<g id="Group_139">
<path id="Vector_50" d="M107.39 31.791C106.582 32.2717 105.864 32.4864 106.037 32.8152C106.209 33.1406 107.016 33.0256 107.824 32.5449C108.633 32.0643 109.017 31.4087 108.845 31.0834C108.672 30.7546 108.199 31.3104 107.39 31.791Z" fill="white"/>
</g>
</g>
<g id="Group_140" opacity="0.7">
<g id="Group_141">
<path id="Vector_51" d="M109.783 30.1391C109.638 30.0254 109.391 30.0981 109.233 30.2965C109.075 30.4949 109.063 30.7453 109.209 30.859C109.351 30.9704 109.595 30.9009 109.753 30.7025C109.912 30.5042 109.926 30.2505 109.783 30.1391Z" fill="white"/>
</g>
</g>
</g>
<g id="Group_142">
<g id="Group_143">
<g id="Group_144">
<path id="Vector_52" d="M108.823 25.4061C108.776 25.0788 108.527 24.6573 108.215 24.5156C108.105 24.9869 108.375 25.3427 108.823 25.4061Z" fill="#5C6280"/>
</g>
</g>
<g id="Group_145">
<g id="Group_146">
<path id="Vector_53" d="M102.244 28.4707C102.244 28.4707 102.155 29.4326 102.94 29.704C103.724 29.9755 102.244 28.4707 102.244 28.4707Z" fill="#5C6280"/>
</g>
</g>
<g id="Group_147">
<g id="Group_148">
<path id="Vector_54" d="M102.508 29.1993C102.536 29.3102 102.589 29.4127 102.665 29.4943C102.735 29.5829 102.829 29.6567 102.94 29.704C104.075 30.1122 105.281 30.4767 106.54 30.7928C107.063 30.8962 107.454 30.5374 107.546 30.1176C107.868 28.701 108.289 27.2698 108.783 25.8828C108.962 25.4069 108.717 24.9681 108.28 24.8307C107.029 24.5328 105.869 24.1959 104.819 23.8184C104.478 23.6949 104.006 23.9254 103.829 24.3916C103.304 25.7874 102.857 27.2083 102.485 28.6228C102.432 28.8551 102.445 28.9727 102.508 29.1993Z" fill="#5C6280"/>
</g>
</g>
<g id="Group_149">
<g id="Group_150">
<path id="Vector_55" d="M102.74 29.3345C103.874 29.7427 105.081 30.1072 106.34 30.4233C106.83 30.5202 107.247 30.2008 107.346 29.7481C107.668 28.3315 108.089 26.9003 108.583 25.5133C108.76 25.0406 108.52 24.5999 108.08 24.4612C106.829 24.1633 105.669 23.8264 104.618 23.4488C104.284 23.3275 103.81 23.5447 103.629 24.0221C103.104 25.4179 102.657 26.8388 102.285 28.2533C102.172 28.7473 102.386 29.1834 102.74 29.3345Z" fill="#BFBFBF"/>
</g>
</g>
<g id="Group_151">
<g id="Group_152">
<g id="Group_153">
<g id="Group_154">
<path id="Vector_56" d="M106.783 30.1247C106.204 29.0658 105.695 27.9974 105.255 26.9194C104.312 27.5289 103.409 28.1417 102.544 28.7589C102.592 28.9215 102.699 29.043 102.838 29.1016C103.949 29.5015 105.136 29.8618 106.398 30.18C106.532 30.2096 106.665 30.1969 106.783 30.1247Z" fill="#4B5067"/>
</g>
</g>
<g id="Group_155">
<g id="Group_156">
<path id="Vector_57" d="M105.256 26.9194C104.832 25.8725 104.471 24.8122 104.174 23.7388C104.047 23.8063 103.931 23.9378 103.858 24.1159C103.347 25.4888 102.902 26.889 102.53 28.3163C102.488 28.4759 102.494 28.6292 102.545 28.7589C103.41 28.142 104.313 27.529 105.256 26.9194Z" fill="#898D9E"/>
</g>
</g>
<g id="Group_157">
<g id="Group_158">
<path id="Vector_58" d="M104.172 23.736C104.467 24.8115 104.835 25.8737 105.255 26.9208C106.24 26.2796 107.271 25.6463 108.357 25.0133C108.29 24.8541 108.167 24.7494 108.004 24.6975C106.769 24.4064 105.61 24.0701 104.535 23.6876C104.416 23.6471 104.293 23.6658 104.172 23.736Z" fill="#5C627F"/>
</g>
</g>
<g id="Group_159">
<g id="Group_160">
<path id="Vector_59" d="M108.355 25.0125C107.274 25.6455 106.241 26.2814 105.255 26.9194C105.695 27.9972 106.205 29.0656 106.783 30.1247C106.93 30.0429 107.058 29.8922 107.097 29.6971C107.432 28.2403 107.851 26.8171 108.347 25.4268C108.405 25.2811 108.403 25.1346 108.355 25.0125Z" fill="#898D9E"/>
</g>
</g>
</g>
<g id="Group_161">
<g id="Group_162">
<path id="Vector_60" d="M105.608 27.7483C105.608 27.7483 105.253 26.9042 104.396 27.4837C104.396 27.4837 105.229 26.9251 104.917 26.0437C104.917 26.0437 105.257 26.9035 106.092 26.386C105.528 26.7295 105.359 27.1768 105.608 27.7483Z" fill="#BABABA"/>
</g>
</g>
</g>
</g>
</g>
</g>
</svg>
