<svg width="135" height="72" viewBox="0 0 135 72" fill="none" xmlns="http://www.w3.org/2000/svg">
<g id="Group 114">
<g id="Start ICo">
<path id="Vector" d="M121.39 64.5708C110.111 63.575 99.5235 60.1056 89.8343 54.23C88.3896 53.3539 87.7372 51.5984 88.2599 49.9916L99.837 14.4004C109.714 20.9096 120.574 24.8432 132.186 26.1259C134.286 26.3579 135.336 28.7828 134.059 30.4655C131.458 33.8902 128.84 37.302 126.206 40.7014C124.08 43.4461 123.061 46.8888 123.349 50.349C123.662 54.1088 123.986 57.8679 124.32 61.626C124.469 63.3048 123.068 64.719 121.39 64.5708Z" fill="url(#paint0_linear_45_21845)"/>
<path id="Vector_2" d="M94.0595 41.2398C92.6148 40.3638 91.9624 38.6082 92.4851 37.0015L88.2599 49.9914C87.7372 51.5981 88.3896 53.3535 89.8343 54.2297C96.2558 58.1239 103.072 60.9599 110.222 62.7204L114.447 49.7305C107.297 47.9699 100.481 45.134 94.0595 41.2398Z" fill="url(#paint1_linear_45_21845)"/>
<path id="Vector_3" d="M98.5226 27.5181C104.521 31.1557 111.694 34.1387 118.883 36.0943L122.673 24.4406H122.674C114.607 22.4544 106.966 19.0987 99.8365 14.4001L96.9484 23.2795C96.4257 24.8864 97.0781 26.6419 98.5226 27.5181Z" fill="url(#paint2_linear_45_21845)"/>
<path id="Vector_4" d="M123.434 51.3559C120.384 50.9974 117.387 50.4546 114.447 49.7305L110.222 62.7204C113.86 63.6163 117.585 64.2348 121.389 64.5705C123.068 64.7187 124.468 63.3045 124.319 61.6259C124.015 58.2033 123.721 54.7799 123.434 51.3559Z" fill="#A140FD"/>
<path id="Vector_5" d="M123.349 50.3489C123.06 46.8887 124.079 43.446 126.206 40.7013C126.891 39.8168 127.573 38.929 128.256 38.0427C125.194 37.6126 122.037 36.9524 118.883 36.0942L114.447 49.7306C117.388 50.4547 120.385 50.9973 123.434 51.356C123.406 51.0203 123.377 50.6846 123.349 50.3489Z" fill="url(#paint3_linear_45_21845)"/>
<path id="Vector_6" d="M116.51 22.6277C110.695 20.6308 105.125 17.8852 99.837 14.4004L88.2599 49.9916C87.7372 51.5984 88.3896 53.3538 89.8343 54.23C99.5234 60.1059 110.111 63.575 121.39 64.5708C123.068 64.719 124.469 63.3048 124.32 61.6262C123.986 57.8679 123.662 54.1088 123.349 50.3491C123.074 47.053 123.988 43.774 125.914 41.0977L116.51 22.6277Z" fill="url(#paint4_linear_45_21845)"/>
<path id="Vector_7" d="M98.5223 27.5179C97.0776 26.6419 96.4252 24.8863 96.9479 23.2795L92.4845 37.0013C91.9618 38.6081 92.6141 40.3635 94.0589 41.2397C100.48 45.1339 107.297 47.9699 114.447 49.7304L118.882 36.094C111.694 34.1384 104.521 31.1554 98.5223 27.5179Z" fill="url(#paint5_linear_45_21845)"/>
<path id="Vector_8" d="M134.058 30.4654C135.336 28.7829 134.286 26.3579 132.186 26.1259C128.955 25.7691 125.783 25.2063 122.673 24.4407L118.883 36.0944C122.037 36.9523 125.193 37.6127 128.256 38.0428C130.198 35.5232 132.134 32.999 134.058 30.4654Z" fill="#A140FD"/>
<path id="Vector_9" d="M118.883 36.0945L114.447 49.7302C107.298 47.9695 100.481 45.1342 94.0593 41.2388C92.6146 40.3629 91.9629 38.6075 92.4855 37.0014L96.9487 23.28C96.4263 24.8862 97.0778 26.6416 98.5225 27.5175C104.522 31.1553 111.694 34.138 118.883 36.0945Z" fill="#6C2CA8"/>
<path id="Vector_10" d="M123.982 37.3076C122.291 36.9642 120.586 36.5573 118.882 36.0945L120.63 30.7202L123.982 37.3076Z" fill="#8C48CD"/>
<path id="Vector_11" d="M106.803 51.7239C106.803 51.7239 102.349 48.2461 90.1233 44.2612L88.2595 49.9913C87.7348 51.6041 88.3978 53.3592 89.8482 54.2382C92.9723 56.1318 96.1899 57.7748 99.4938 59.1655C101.805 60.1385 104.455 58.9433 105.231 56.5584L106.803 51.7239Z" fill="url(#paint6_linear_45_21845)"/>
<path id="Vector_12" d="M103.701 51.8533C93.1209 45.4574 81.4714 41.9271 69.0225 41.3509C73.1731 28.5908 77.3235 15.8307 81.4742 3.07056C92.8 3.59494 103.464 6.5639 113.263 11.9117C116.46 13.6567 117.956 17.4359 116.829 20.8997C114.091 29.3192 105.332 56.2457 105.332 56.2457C105.874 54.5806 105.199 52.7591 103.701 51.8533Z" fill="url(#paint7_linear_45_21845)"/>
<path id="Vector_13" d="M110.022 21.8773C108.41 20.9979 106.775 20.1842 105.118 19.4336L100.775 32.7835C102.433 33.5341 104.068 34.3477 105.679 35.2272C108.876 36.9722 110.373 40.7514 109.246 44.2152C111.004 38.8108 112.65 33.751 113.589 30.8653C114.715 27.4015 113.219 23.6221 110.022 21.8773Z" fill="url(#paint8_linear_45_21845)"/>
<path id="Vector_14" d="M91.824 14.9124L87.4814 28.2623C92.0527 29.3336 96.4889 30.8428 100.775 32.7836L105.117 19.4337C100.831 17.4929 96.3952 15.9837 91.824 14.9124Z" fill="url(#paint9_linear_45_21845)"/>
<path id="Vector_15" d="M78.2331 13.0361C76.7856 17.4861 75.3381 21.9361 73.8906 26.3861C78.5373 26.6012 83.0722 27.2285 87.482 28.2622L91.8245 14.9123C87.4148 13.8787 82.8797 13.2513 78.2331 13.0361Z" fill="url(#paint10_linear_45_21845)"/>
<path id="Vector_16" d="M87.4817 28.2622L82.6143 43.2265C87.185 44.2977 91.6215 45.8064 95.908 47.7464L100.775 32.7835C96.489 30.8427 92.0528 29.3335 87.4817 28.2622Z" fill="url(#paint11_linear_45_21845)"/>
<path id="Vector_17" d="M105.118 19.4337L108.359 9.46836C104.073 7.52561 99.6369 6.01685 95.0657 4.94702L91.8242 14.9122C96.3955 15.9835 100.831 17.4928 105.118 19.4337Z" fill="url(#paint12_linear_45_21845)"/>
<path id="Vector_18" d="M105.332 56.2457C105.332 56.2457 106.068 53.9842 107.179 50.5703L83.0414 3.16079C82.5203 3.12613 81.9983 3.09476 81.4742 3.07056C77.3235 15.8307 73.1731 28.5908 69.0225 41.3509C81.4714 41.9271 93.1209 45.4572 103.701 51.8533C105.199 52.7591 105.874 54.5806 105.332 56.2457Z" fill="url(#paint13_linear_45_21845)"/>
<path id="Vector_19" d="M78.2325 13.0362C82.8791 13.2513 87.4141 13.8788 91.8239 14.9123L95.0653 4.94713C90.6556 3.9139 86.1204 3.28584 81.4734 3.07056L69.0215 41.3515C73.6686 41.5668 78.2041 42.1933 82.6139 43.2266L87.4814 28.2623C83.0716 27.2287 78.5366 26.6014 73.89 26.3861C75.3375 21.9361 76.785 17.4861 78.2325 13.0362Z" fill="#A140FD"/>
<path id="Vector_20" d="M113.593 30.8518C114.916 26.7835 116.091 23.1694 116.83 20.9002C117.957 17.4354 116.46 13.6564 113.264 11.9122C111.652 11.0318 110.017 10.2178 108.36 9.46826L105.118 19.4336C106.775 20.1842 108.411 20.9978 110.022 21.8773C113.215 23.6199 114.711 27.3918 113.593 30.8518Z" fill="#A140FD"/>
<path id="Vector_21" d="M105.679 35.2271C104.068 34.3478 102.433 33.534 100.775 32.7834L95.9082 47.7463C98.5648 48.9506 101.163 50.3189 103.701 51.8535C104.449 52.3069 104.993 52.9877 105.281 53.7647C105.57 54.5423 105.603 55.413 105.332 56.2459C105.332 56.2459 107.076 50.8863 109.25 44.2017C110.369 40.7417 108.872 36.9697 105.679 35.2271Z" fill="#A140FD"/>
<path id="Vector_22" d="M91.824 14.9124L87.4814 28.2623C92.0527 29.3336 96.4889 30.8428 100.775 32.7836L105.117 19.4337C100.831 17.4929 96.3952 15.9837 91.824 14.9124Z" fill="#A140FD"/>
<path id="Vector_23" d="M88.6873 14.2518C85.2724 13.6065 81.7855 13.2004 78.2334 13.0356L81.4749 3.07056C81.766 3.084 82.0547 3.09894 82.3446 3.11582C82.5771 3.13151 82.81 3.14555 83.0425 3.16124L83.0437 3.16348L88.6873 14.2518Z" fill="#8642C8"/>
<path id="Vector_24" d="M107.178 50.5706L105.332 56.2447C105.552 55.5688 105.572 54.8665 105.417 54.2098C105.393 54.1094 105.364 54.0093 105.333 53.9101C105.317 53.8626 105.3 53.8127 105.282 53.7641C105.174 53.4722 105.03 53.1957 104.853 52.939C104.794 52.8524 104.731 52.7681 104.664 52.6883C104.631 52.6484 104.597 52.6087 104.562 52.5684C104.457 52.4512 104.345 52.3393 104.223 52.234C104.063 52.0951 103.889 51.9669 103.701 51.8539C103.351 51.6415 103 51.4344 102.647 51.2292C102.25 50.9957 101.851 50.7692 101.449 50.5439C101.401 50.5186 101.352 50.4911 101.303 50.4637C101.028 50.3105 100.753 50.1592 100.477 50.0114C100.322 49.9284 100.168 49.8453 100.011 49.7634C99.8565 49.6804 99.7014 49.5991 99.5445 49.5172C99.3894 49.436 99.2321 49.3557 99.0747 49.2757C98.9738 49.2237 98.8695 49.1702 98.7669 49.1176C98.6393 49.0529 98.5098 48.9876 98.3798 48.9241C98.2352 48.852 98.0889 48.7792 97.9422 48.7082C97.6927 48.5847 97.441 48.4622 97.1897 48.3437C96.8739 48.1927 96.5567 48.0451 96.2393 47.8993C96.1286 47.8479 96.0195 47.7968 95.9082 47.7472L99.741 35.9641L107.178 50.5706Z" fill="#B05EFF"/>
<path id="Vector_25" d="M97.397 31.3564C94.1715 30.0871 90.863 29.0554 87.4824 28.2627L90.7334 18.2681L97.397 31.3564Z" fill="#924BD6"/>
<path id="Vector_26" d="M113.589 30.8652C113.59 30.8609 113.591 30.8564 113.593 30.8521C112.197 35.1441 110.636 39.9419 109.25 44.202C109.249 44.2063 109.248 44.2108 109.246 44.2151C111.004 38.8107 112.65 33.7508 113.589 30.8652Z" fill="url(#paint14_linear_45_21845)"/>
<path id="Vector_27" d="M110.022 21.8773C108.41 20.9979 106.775 20.1842 105.118 19.4336L100.775 32.7835C102.433 33.5341 104.068 34.3477 105.679 35.2272C108.872 36.9699 110.369 40.7417 109.25 44.2019C110.636 39.9419 112.196 35.144 113.593 30.852C114.711 27.3918 113.215 23.6198 110.022 21.8773Z" fill="url(#paint15_linear_45_21845)"/>
<path id="Vector_28" d="M59.0747 71.9323C58.3513 71.697 57.9557 70.92 58.191 70.1965L80.7146 0.951623C80.9499 0.228096 81.7271 -0.167357 82.4504 0.0679424C83.1738 0.303242 83.5694 1.08025 83.3341 1.80378L60.8105 71.0485C60.5752 71.7719 59.798 72.1676 59.0747 71.9323Z" fill="#FFEFB7"/>
</g>
<g id="Start ICo_2">
<path id="Vector_29" d="M13.5976 64.5708C24.8762 63.575 35.4638 60.1056 45.1531 54.23C46.5977 53.3539 47.2501 51.5984 46.7274 49.9916L35.1503 14.4004C25.2733 20.9096 14.4135 24.8432 2.8012 26.1259C0.701134 26.3579 -0.349121 28.7828 0.928669 30.4655C3.52966 33.8902 6.14709 37.302 8.78111 40.7014C10.9078 43.4461 11.9266 46.8888 11.6383 50.349C11.3249 54.1088 11.001 57.8679 10.6677 61.626C10.5187 63.3048 11.919 64.719 13.5976 64.5708Z" fill="url(#paint16_linear_45_21845)"/>
<path id="Vector_30" d="M40.9278 41.2398C42.3725 40.3638 43.0249 38.6082 42.5022 37.0015L46.7274 49.9914C47.2501 51.5981 46.5977 53.3535 45.1531 54.2297C38.7315 58.1239 31.9153 60.9599 24.765 62.7204L20.5398 49.7305C27.6899 47.9699 34.5065 45.134 40.9278 41.2398Z" fill="url(#paint17_linear_45_21845)"/>
<path id="Vector_31" d="M36.4647 27.5181C30.4663 31.1557 23.2932 34.1387 16.1045 36.0943L12.3139 24.4406H12.3136C20.3801 22.4544 28.0216 19.0987 35.1508 14.4001L38.0389 23.2795C38.5617 24.8864 37.9092 26.6419 36.4647 27.5181Z" fill="url(#paint18_linear_45_21845)"/>
<path id="Vector_32" d="M11.5537 51.3559C14.6031 50.9974 17.6 50.4546 20.5404 49.7305L24.7656 62.7204C21.1269 63.6163 17.402 64.2348 13.5982 64.5705C11.9196 64.7187 10.5195 63.3045 10.6683 61.6259C10.972 58.2033 11.2666 54.7799 11.5537 51.3559Z" fill="#A140FD"/>
<path id="Vector_33" d="M11.6387 50.3489C11.9272 46.8887 10.9083 43.446 8.78148 40.7013C8.09605 39.8168 7.4148 38.929 6.73176 38.0427C9.79379 37.6126 12.9504 36.9524 16.1045 36.0942L20.54 49.7306C17.5995 50.4547 14.6027 50.9973 11.5534 51.356C11.5815 51.0203 11.6108 50.6846 11.6387 50.3489Z" fill="url(#paint19_linear_45_21845)"/>
<path id="Vector_34" d="M18.4769 22.6277C24.2928 20.6308 29.8626 17.8852 35.1503 14.4004L46.7274 49.9916C47.2501 51.5984 46.5977 53.3538 45.1531 54.23C35.4639 60.1059 24.8762 63.575 13.5976 64.5708C11.919 64.719 10.5187 63.3048 10.6677 61.6262C11.0011 57.8679 11.3249 54.1088 11.6383 50.3491C11.9131 47.053 10.999 43.774 9.07362 41.0977L18.4769 22.6277Z" fill="url(#paint20_linear_45_21845)"/>
<path id="Vector_35" d="M36.4651 27.5179C37.9097 26.6419 38.5621 24.8863 38.0394 23.2795L42.5028 37.0013C43.0255 38.6081 42.3732 40.3635 40.9284 41.2397C34.5069 45.1339 27.6907 47.9699 20.5404 49.7304L16.1048 36.094C23.2933 34.1384 30.4665 31.1554 36.4651 27.5179Z" fill="url(#paint21_linear_45_21845)"/>
<path id="Vector_36" d="M0.929081 30.4654C-0.348709 28.7829 0.701703 26.3579 2.80162 26.1259C6.03218 25.7691 9.20446 25.2063 12.3139 24.4407L16.1045 36.0944C12.9504 36.9523 9.79398 37.6127 6.7318 38.0428C4.78949 35.5232 2.85316 32.999 0.929081 30.4654Z" fill="#A140FD"/>
<path id="Vector_37" d="M16.1045 36.0945L20.5399 49.7302C27.6893 47.9695 34.5067 45.1342 40.928 41.2388C42.3727 40.3629 43.0244 38.6075 42.5018 37.0014L38.0386 23.28C38.561 24.8862 37.9095 26.6416 36.4648 27.5175C30.4652 31.1553 23.2928 34.138 16.1045 36.0945Z" fill="#6C2CA8"/>
<path id="Vector_38" d="M11.0049 37.3076C12.6965 36.9642 14.4013 36.5573 16.1055 36.0945L14.3574 30.7202L11.0049 37.3076Z" fill="#8C48CD"/>
<path id="Vector_39" d="M28.1838 51.7239C28.1838 51.7239 32.6384 48.2461 44.864 44.2612L46.7278 49.9913C47.2525 51.6041 46.5895 53.3592 45.1392 54.2382C42.015 56.1318 38.7974 57.7748 35.4935 59.1655C33.182 60.1385 30.532 58.9433 29.7564 56.5584L28.1838 51.7239Z" fill="url(#paint22_linear_45_21845)"/>
<path id="Vector_40" d="M31.2868 51.8533C41.8664 45.4574 53.5159 41.9271 65.9648 41.3509C61.8142 28.5908 57.6638 15.8307 53.5131 3.07056C42.1873 3.59494 31.5234 6.5639 21.7248 11.9117C18.5275 13.6567 17.0312 17.4359 18.1579 20.8997C20.8967 29.3192 29.6552 56.2457 29.6552 56.2457C29.1133 54.5806 29.7883 52.7591 31.2868 51.8533Z" fill="url(#paint23_linear_45_21845)"/>
<path id="Vector_41" d="M24.9656 21.8773C26.577 20.9979 28.2121 20.1842 29.8694 19.4336L34.2119 32.7835C32.5547 33.5341 30.9195 34.3477 29.3081 35.2272C26.1109 36.9722 24.6145 40.7514 25.7413 44.2152C23.9833 38.8108 22.3376 33.751 21.3988 30.8653C20.272 27.4015 21.7684 23.6221 24.9656 21.8773Z" fill="url(#paint24_linear_45_21845)"/>
<path id="Vector_42" d="M43.1634 14.9124L47.5059 28.2623C42.9346 29.3336 38.4984 30.8428 34.2125 32.7836L29.87 19.4337C34.1561 17.4929 38.5921 15.9837 43.1634 14.9124Z" fill="url(#paint25_linear_45_21845)"/>
<path id="Vector_43" d="M56.7542 13.0361C58.2017 17.4861 59.6492 21.9361 61.0967 26.3861C56.45 26.6012 51.9151 27.2285 47.5053 28.2622L43.1628 14.9123C47.5726 13.8787 52.1076 13.2513 56.7542 13.0361Z" fill="url(#paint26_linear_45_21845)"/>
<path id="Vector_44" d="M47.5056 28.2622L52.373 43.2265C47.8023 44.2977 43.3658 45.8064 39.0793 47.7464L34.2122 32.7835C38.4983 30.8427 42.9345 29.3335 47.5056 28.2622Z" fill="url(#paint27_linear_45_21845)"/>
<path id="Vector_45" d="M29.8698 19.4337L26.6283 9.46836C30.9139 7.52561 35.3504 6.01685 39.9216 4.94702L43.1631 14.9122C38.5918 15.9835 34.1558 17.4928 29.8698 19.4337Z" fill="url(#paint28_linear_45_21845)"/>
<path id="Vector_46" d="M29.6549 56.2457C29.6549 56.2457 28.9193 53.9842 27.8088 50.5703L51.9459 3.16079C52.467 3.12613 52.989 3.09476 53.5131 3.07056C57.6638 15.8307 61.8142 28.5908 65.9648 41.3509C53.5159 41.9271 41.8664 45.4572 31.2868 51.8533C29.788 52.7591 29.113 54.5806 29.6549 56.2457Z" fill="url(#paint29_linear_45_21845)"/>
<path id="Vector_47" d="M56.7548 13.0362C52.1082 13.2513 47.5732 13.8788 43.1634 14.9123L39.922 4.94713C44.3317 3.9139 48.8669 3.28584 53.5139 3.07056L65.9658 41.3515C61.3187 41.5668 56.7832 42.1933 52.3734 43.2266L47.5059 28.2623C51.9157 27.2287 56.4508 26.6014 61.0973 26.3861C59.6498 21.9361 58.2023 17.4861 56.7548 13.0362Z" fill="#A140FD"/>
<path id="Vector_48" d="M21.3946 30.8518C20.0713 26.7835 18.8958 23.1694 18.1575 20.9002C17.0306 17.4354 18.5272 13.6564 21.7237 11.9122C23.3354 11.0318 24.9703 10.2178 26.6277 9.46826L29.8691 19.4336C28.2119 20.1842 26.5767 20.9978 24.9653 21.8773C21.7723 23.6199 20.2759 27.3918 21.3946 30.8518Z" fill="#A140FD"/>
<path id="Vector_49" d="M29.3083 35.2271C30.9197 34.3478 32.5548 33.534 34.2121 32.7834L39.0791 47.7463C36.4225 48.9506 33.8239 50.3189 31.2858 51.8535C30.5379 52.3069 29.9941 52.9877 29.7063 53.7647C29.4169 54.5423 29.3842 55.413 29.655 56.2459C29.655 56.2459 27.9116 50.8863 25.7374 44.2017C24.6187 40.7417 26.1151 36.9697 29.3083 35.2271Z" fill="#A140FD"/>
<path id="Vector_50" d="M43.1634 14.9124L47.5059 28.2623C42.9346 29.3336 38.4984 30.8428 34.2125 32.7836L29.87 19.4337C34.1561 17.4929 38.5921 15.9837 43.1634 14.9124Z" fill="#A140FD"/>
<path id="Vector_51" d="M46.3 14.2518C49.7149 13.6065 53.2019 13.2004 56.7539 13.0356L53.5124 3.07056C53.2213 3.084 52.9326 3.09894 52.6427 3.11582C52.4102 3.13151 52.1773 3.14555 51.9448 3.16124L51.9436 3.16348L46.3 14.2518Z" fill="#8642C8"/>
<path id="Vector_52" d="M27.8095 50.5706L29.6552 56.2447C29.4353 55.5688 29.4155 54.8665 29.5706 54.2098C29.5941 54.1094 29.6232 54.0093 29.6547 53.9101C29.6701 53.8626 29.6868 53.8127 29.7057 53.7641C29.8135 53.4722 29.9572 53.1957 30.1344 52.939C30.1931 52.8524 30.2565 52.7681 30.3233 52.6883C30.3567 52.6484 30.39 52.6087 30.4253 52.5684C30.5302 52.4512 30.6425 52.3393 30.7646 52.234C30.9241 52.0951 31.0988 51.9669 31.286 51.8539C31.636 51.6415 31.9877 51.4344 32.34 51.2292C32.7371 50.9957 33.1367 50.7692 33.5384 50.5439C33.5862 50.5186 33.6352 50.4911 33.6842 50.4637C33.9588 50.3105 34.234 50.1592 34.5106 50.0114C34.665 49.9284 34.8195 49.8453 34.9764 49.7634C35.1308 49.6804 35.2859 49.5991 35.4428 49.5172C35.5979 49.436 35.7552 49.3557 35.9126 49.2757C36.0135 49.2237 36.1178 49.1702 36.2204 49.1176C36.348 49.0529 36.4775 48.9876 36.6075 48.9241C36.7521 48.852 36.8984 48.7792 37.0451 48.7082C37.2946 48.5847 37.5463 48.4622 37.7976 48.3437C38.1134 48.1927 38.4306 48.0451 38.748 47.8993C38.8587 47.8479 38.9678 47.7968 39.0791 47.7472L35.2463 35.9641L27.8095 50.5706Z" fill="#B05EFF"/>
<path id="Vector_53" d="M37.5903 31.3564C40.8158 30.0871 44.1243 29.0554 47.5049 28.2627L44.2539 18.2681L37.5903 31.3564Z" fill="#924BD6"/>
<path id="Vector_54" d="M21.3987 30.8652C21.3972 30.8609 21.3962 30.8564 21.3947 30.8521C22.7908 35.1441 24.3514 39.9419 25.7372 44.202C25.7385 44.2063 25.7397 44.2108 25.7412 44.2151C23.9831 38.8107 22.3374 33.7508 21.3987 30.8652Z" fill="url(#paint30_linear_45_21845)"/>
<path id="Vector_55" d="M24.9656 21.8773C26.577 20.9979 28.2121 20.1842 29.8694 19.4336L34.2119 32.7835C32.5547 33.5341 30.9195 34.3477 29.3081 35.2272C26.1149 36.9699 24.6186 40.7417 25.7372 44.2019C24.3516 39.9419 22.791 35.144 21.3947 30.852C20.2762 27.3918 21.7726 23.6198 24.9656 21.8773Z" fill="url(#paint31_linear_45_21845)"/>
<path id="Vector_56" d="M75.9126 71.9323C76.636 71.697 77.0316 70.92 76.7963 70.1965L54.2727 0.951623C54.0374 0.228096 53.2602 -0.167357 52.5369 0.0679424C51.8135 0.303242 51.4179 1.08025 51.6532 1.80378L74.1768 71.0485C74.4121 71.7719 75.1893 72.1676 75.9126 71.9323Z" fill="#FFEFB7"/>
</g>
</g>
<defs>
<linearGradient id="paint0_linear_45_21845" x1="113.497" y1="41.4174" x2="130.797" y2="47.0446" gradientUnits="userSpaceOnUse">
<stop stop-color="#E2EDF2"/>
<stop offset="1" stop-color="#9FC7E2"/>
</linearGradient>
<linearGradient id="paint1_linear_45_21845" x1="109.511" y1="52.6133" x2="105.436" y2="51.289" gradientUnits="userSpaceOnUse">
<stop stop-color="#E2EDF2"/>
<stop offset="1" stop-color="#9FC7E2"/>
</linearGradient>
<linearGradient id="paint2_linear_45_21845" x1="117.529" y1="27.9601" x2="113.454" y2="26.6343" gradientUnits="userSpaceOnUse">
<stop stop-color="#E2EDF2"/>
<stop offset="1" stop-color="#9FC7E2"/>
</linearGradient>
<linearGradient id="paint3_linear_45_21845" x1="113.21" y1="41.239" x2="109.135" y2="39.9132" gradientUnits="userSpaceOnUse">
<stop stop-color="#E2EDF2"/>
<stop offset="1" stop-color="#9FC7E2"/>
</linearGradient>
<linearGradient id="paint4_linear_45_21845" x1="112.727" y1="57.7959" x2="97.6327" y2="28.154" gradientUnits="userSpaceOnUse">
<stop stop-color="#9FC7E2" stop-opacity="0"/>
<stop offset="1" stop-color="#9FC7E2"/>
</linearGradient>
<linearGradient id="paint5_linear_45_21845" x1="107.088" y1="37.0595" x2="118.357" y2="40.725" gradientUnits="userSpaceOnUse">
<stop stop-color="#654E48"/>
<stop offset="1" stop-color="#503837"/>
</linearGradient>
<linearGradient id="paint6_linear_45_21845" x1="94.7307" y1="59.4684" x2="99.8599" y2="43.6951" gradientUnits="userSpaceOnUse">
<stop stop-color="#E2EDF2"/>
<stop offset="1" stop-color="#9FC7E2"/>
</linearGradient>
<linearGradient id="paint7_linear_45_21845" x1="96.0551" y1="29.1147" x2="113.822" y2="34.8934" gradientUnits="userSpaceOnUse">
<stop stop-color="#E2EDF2"/>
<stop offset="1" stop-color="#9FC7E2"/>
</linearGradient>
<linearGradient id="paint8_linear_45_21845" x1="96.3225" y1="28.2935" x2="114.089" y2="34.0722" gradientUnits="userSpaceOnUse">
<stop stop-color="#E2EDF2"/>
<stop offset="1" stop-color="#9FC7E2"/>
</linearGradient>
<linearGradient id="paint9_linear_45_21845" x1="97.1422" y1="23.9892" x2="103.516" y2="26.062" gradientUnits="userSpaceOnUse">
<stop stop-color="#E2EDF2"/>
<stop offset="1" stop-color="#9FC7E2"/>
</linearGradient>
<linearGradient id="paint10_linear_45_21845" x1="96.0991" y1="24.9573" x2="110.703" y2="29.7072" gradientUnits="userSpaceOnUse">
<stop stop-color="#E2EDF2"/>
<stop offset="1" stop-color="#9FC7E2"/>
</linearGradient>
<linearGradient id="paint11_linear_45_21845" x1="91.8797" y1="37.931" x2="106.483" y2="42.6809" gradientUnits="userSpaceOnUse">
<stop stop-color="#E2EDF2"/>
<stop offset="1" stop-color="#9FC7E2"/>
</linearGradient>
<linearGradient id="paint12_linear_45_21845" x1="100.276" y1="12.1168" x2="114.879" y2="16.8667" gradientUnits="userSpaceOnUse">
<stop stop-color="#E2EDF2"/>
<stop offset="1" stop-color="#9FC7E2"/>
</linearGradient>
<linearGradient id="paint13_linear_45_21845" x1="86.304" y1="42.4327" x2="67.3787" y2="5.26186" gradientUnits="userSpaceOnUse">
<stop stop-color="#9FC7E2" stop-opacity="0"/>
<stop offset="1" stop-color="#9FC7E2"/>
</linearGradient>
<linearGradient id="paint14_linear_45_21845" x1="110.253" y1="37.1553" x2="112.591" y2="37.9157" gradientUnits="userSpaceOnUse">
<stop stop-color="#E2EDF2"/>
<stop offset="1" stop-color="#9FC7E2"/>
</linearGradient>
<linearGradient id="paint15_linear_45_21845" x1="95.1421" y1="27.9023" x2="109.746" y2="32.6521" gradientUnits="userSpaceOnUse">
<stop stop-color="#E2EDF2"/>
<stop offset="1" stop-color="#9FC7E2"/>
</linearGradient>
<linearGradient id="paint16_linear_45_21845" x1="21.4907" y1="41.4174" x2="4.19058" y2="47.0446" gradientUnits="userSpaceOnUse">
<stop stop-color="#E2EDF2"/>
<stop offset="1" stop-color="#9FC7E2"/>
</linearGradient>
<linearGradient id="paint17_linear_45_21845" x1="25.4763" y1="52.6133" x2="29.5513" y2="51.289" gradientUnits="userSpaceOnUse">
<stop stop-color="#E2EDF2"/>
<stop offset="1" stop-color="#9FC7E2"/>
</linearGradient>
<linearGradient id="paint18_linear_45_21845" x1="17.4582" y1="27.9601" x2="21.5331" y2="26.6343" gradientUnits="userSpaceOnUse">
<stop stop-color="#E2EDF2"/>
<stop offset="1" stop-color="#9FC7E2"/>
</linearGradient>
<linearGradient id="paint19_linear_45_21845" x1="21.7771" y1="41.239" x2="25.852" y2="39.9132" gradientUnits="userSpaceOnUse">
<stop stop-color="#E2EDF2"/>
<stop offset="1" stop-color="#9FC7E2"/>
</linearGradient>
<linearGradient id="paint20_linear_45_21845" x1="22.2607" y1="57.7959" x2="37.3546" y2="28.154" gradientUnits="userSpaceOnUse">
<stop stop-color="#9FC7E2" stop-opacity="0"/>
<stop offset="1" stop-color="#9FC7E2"/>
</linearGradient>
<linearGradient id="paint21_linear_45_21845" x1="27.8996" y1="37.0595" x2="16.6302" y2="40.725" gradientUnits="userSpaceOnUse">
<stop stop-color="#654E48"/>
<stop offset="1" stop-color="#503837"/>
</linearGradient>
<linearGradient id="paint22_linear_45_21845" x1="40.2567" y1="59.4684" x2="35.1274" y2="43.6951" gradientUnits="userSpaceOnUse">
<stop stop-color="#E2EDF2"/>
<stop offset="1" stop-color="#9FC7E2"/>
</linearGradient>
<linearGradient id="paint23_linear_45_21845" x1="38.9322" y1="29.1147" x2="21.1657" y2="34.8934" gradientUnits="userSpaceOnUse">
<stop stop-color="#E2EDF2"/>
<stop offset="1" stop-color="#9FC7E2"/>
</linearGradient>
<linearGradient id="paint24_linear_45_21845" x1="38.6648" y1="28.2935" x2="20.8983" y2="34.0722" gradientUnits="userSpaceOnUse">
<stop stop-color="#E2EDF2"/>
<stop offset="1" stop-color="#9FC7E2"/>
</linearGradient>
<linearGradient id="paint25_linear_45_21845" x1="37.8451" y1="23.9892" x2="31.471" y2="26.062" gradientUnits="userSpaceOnUse">
<stop stop-color="#E2EDF2"/>
<stop offset="1" stop-color="#9FC7E2"/>
</linearGradient>
<linearGradient id="paint26_linear_45_21845" x1="38.8882" y1="24.9573" x2="24.2847" y2="29.7072" gradientUnits="userSpaceOnUse">
<stop stop-color="#E2EDF2"/>
<stop offset="1" stop-color="#9FC7E2"/>
</linearGradient>
<linearGradient id="paint27_linear_45_21845" x1="43.1077" y1="37.931" x2="28.5042" y2="42.6809" gradientUnits="userSpaceOnUse">
<stop stop-color="#E2EDF2"/>
<stop offset="1" stop-color="#9FC7E2"/>
</linearGradient>
<linearGradient id="paint28_linear_45_21845" x1="34.7118" y1="12.1168" x2="20.1083" y2="16.8667" gradientUnits="userSpaceOnUse">
<stop stop-color="#E2EDF2"/>
<stop offset="1" stop-color="#9FC7E2"/>
</linearGradient>
<linearGradient id="paint29_linear_45_21845" x1="48.6833" y1="42.4327" x2="67.6086" y2="5.26186" gradientUnits="userSpaceOnUse">
<stop stop-color="#9FC7E2" stop-opacity="0"/>
<stop offset="1" stop-color="#9FC7E2"/>
</linearGradient>
<linearGradient id="paint30_linear_45_21845" x1="24.7346" y1="37.1553" x2="22.3964" y2="37.9157" gradientUnits="userSpaceOnUse">
<stop stop-color="#E2EDF2"/>
<stop offset="1" stop-color="#9FC7E2"/>
</linearGradient>
<linearGradient id="paint31_linear_45_21845" x1="39.8452" y1="27.9023" x2="25.2418" y2="32.6521" gradientUnits="userSpaceOnUse">
<stop stop-color="#E2EDF2"/>
<stop offset="1" stop-color="#9FC7E2"/>
</linearGradient>
</defs>
</svg>
