<svg width="179" height="96" viewBox="0 0 179 96" fill="none" xmlns="http://www.w3.org/2000/svg">
<g id="Group 114">
<g id="Start ICo">
<path id="Vector" d="M161.355 86.0942C146.317 84.7666 132.2 80.1407 119.281 72.3065C117.355 71.1384 116.485 68.7977 117.182 66.6553L132.618 19.2004C145.787 27.8794 160.267 33.1242 175.75 34.8345C178.55 35.1438 179.95 38.377 178.247 40.6205C174.779 45.1869 171.289 49.7359 167.777 54.2684C164.941 57.928 163.583 62.5183 163.967 67.1318C164.385 72.145 164.817 77.1571 165.261 82.1679C165.46 84.4062 163.593 86.2918 161.355 86.0942Z" fill="url(#paint0_linear_45_21781)"/>
<path id="Vector_2" d="M124.915 54.9864C122.988 53.8183 122.118 51.4776 122.815 49.3352L117.182 66.655C116.485 68.7974 117.355 71.1379 119.281 72.3062C127.843 77.4984 136.931 81.2798 146.465 83.6271L152.099 66.3072C142.565 63.9597 133.476 60.1786 124.915 54.9864Z" fill="url(#paint1_linear_45_21781)"/>
<path id="Vector_3" d="M130.866 36.6907C138.864 41.5409 148.428 45.5183 158.013 48.1257L163.067 32.5875H163.067C152.312 29.9392 142.123 25.4649 132.618 19.2002L128.767 31.0394C128.07 33.1819 128.94 35.5225 130.866 36.6907Z" fill="url(#paint2_linear_45_21781)"/>
<path id="Vector_4" d="M164.081 68.4744C160.015 67.9963 156.019 67.2726 152.098 66.3071L146.465 83.627C151.316 84.8215 156.283 85.6462 161.355 86.0938C163.593 86.2914 165.46 84.4058 165.261 82.1677C164.856 77.6043 164.464 73.0397 164.081 68.4744Z" fill="#A140FD"/>
<path id="Vector_5" d="M163.967 67.1317C163.582 62.5181 164.941 57.9279 167.777 54.2683C168.691 53.0888 169.599 51.9052 170.51 50.7234C166.427 50.1499 162.218 49.2697 158.013 48.1255L152.099 66.3072C156.019 67.2727 160.015 67.9962 164.081 68.4745C164.043 68.0269 164.004 67.5793 163.967 67.1317Z" fill="url(#paint3_linear_45_21781)"/>
<path id="Vector_6" d="M154.849 30.1701C147.095 27.5077 139.668 23.8469 132.618 19.2004L117.182 66.6553C116.485 68.7977 117.355 71.1382 119.281 72.3065C132.2 80.1411 146.317 84.7666 161.355 86.0942C163.593 86.2918 165.46 84.4062 165.261 82.1681C164.817 77.1571 164.385 72.145 163.967 67.132C163.601 62.7372 164.82 58.3652 167.387 54.7968L154.849 30.1701Z" fill="url(#paint4_linear_45_21781)"/>
<path id="Vector_7" d="M130.866 36.6907C128.94 35.5226 128.07 33.1819 128.767 31.0396L122.816 49.3352C122.119 51.4776 122.988 53.8181 124.915 54.9864C133.477 60.1786 142.565 63.96 152.099 66.3073L158.013 48.1255C148.428 45.5181 138.864 41.5407 130.866 36.6907Z" fill="url(#paint5_linear_45_21781)"/>
<path id="Vector_8" d="M178.247 40.6203C179.95 38.377 178.55 35.1437 175.75 34.8343C171.442 34.3586 167.213 33.6083 163.067 32.5874L158.013 48.1256C162.218 49.2696 166.427 50.1501 170.51 50.7235C173.099 47.3641 175.681 43.9985 178.247 40.6203Z" fill="#A140FD"/>
<path id="Vector_9" d="M158.012 48.1263L152.098 66.3072C142.566 63.9595 133.476 60.1792 124.914 54.9853C122.988 53.8175 122.119 51.4769 122.816 49.3354L128.767 31.0403C128.07 33.1818 128.939 35.5224 130.865 36.6903C138.864 41.5407 148.428 45.5176 158.012 48.1263Z" fill="#6C2CA8"/>
<path id="Vector_10" d="M164.812 49.7433C162.557 49.2856 160.284 48.743 158.012 48.1259L160.343 40.9602L164.812 49.7433Z" fill="#8C48CD"/>
<path id="Vector_11" d="M141.908 68.9651C141.908 68.9651 135.968 64.328 119.667 59.0149L117.182 66.655C116.483 68.8053 117.367 71.1455 119.3 72.3176C123.466 74.8424 127.756 77.0329 132.161 78.8872C135.243 80.1846 138.777 78.591 139.811 75.4111L141.908 68.9651Z" fill="url(#paint6_linear_45_21781)"/>
<path id="Vector_12" d="M137.771 69.1379C123.664 60.6099 108.132 55.9029 91.5332 55.1346C97.0674 38.1212 102.601 21.1077 108.136 4.09424C123.237 4.79341 137.455 8.75202 150.52 15.8824C154.783 18.209 156.778 23.2481 155.276 27.8664C151.624 39.0925 139.946 74.9944 139.946 74.9944C140.669 72.7742 139.769 70.3456 137.771 69.1379Z" fill="url(#paint7_linear_45_21781)"/>
<path id="Vector_13" d="M146.199 29.1696C144.05 27.9972 141.87 26.9121 139.66 25.9114L133.87 43.7113C136.08 44.712 138.26 45.7968 140.409 46.9695C144.671 49.2961 146.667 54.3352 145.164 58.9535C147.508 51.7476 149.703 45.0013 150.954 41.1536C152.457 36.5353 150.461 31.496 146.199 29.1696Z" fill="url(#paint8_linear_45_21781)"/>
<path id="Vector_14" d="M121.936 19.8831L116.146 37.6829C122.24 39.1114 128.155 41.1237 133.87 43.7114L139.66 25.9115C133.945 23.3238 128.03 21.3115 121.936 19.8831Z" fill="url(#paint9_linear_45_21781)"/>
<path id="Vector_15" d="M103.813 17.3813C101.883 23.3146 99.9534 29.248 98.0234 35.1812C104.219 35.4681 110.266 36.3045 116.145 37.6827L121.935 19.8828C116.056 18.5048 110.009 17.6682 103.813 17.3813Z" fill="url(#paint10_linear_45_21781)"/>
<path id="Vector_16" d="M116.145 37.6829L109.655 57.6353C115.75 59.0635 121.665 61.0752 127.38 63.6617L133.87 43.7113C128.155 41.1236 122.24 39.1113 116.145 37.6829Z" fill="url(#paint11_linear_45_21781)"/>
<path id="Vector_17" d="M139.66 25.9115L143.982 12.6244C138.268 10.0341 132.352 8.02238 126.257 6.59595L121.936 19.8829C128.031 21.3113 133.945 23.3236 139.66 25.9115Z" fill="url(#paint12_linear_45_21781)"/>
<path id="Vector_18" d="M139.946 74.9944C139.946 74.9944 140.927 71.979 142.408 67.4272L110.225 4.21455C109.53 4.16834 108.834 4.12651 108.136 4.09424C102.601 21.1077 97.0674 38.1212 91.5332 55.1346C108.132 55.9029 123.664 60.6097 137.771 69.1379C139.769 70.3456 140.669 72.7742 139.946 74.9944Z" fill="url(#paint13_linear_45_21781)"/>
<path id="Vector_19" d="M103.814 17.3815C110.009 17.6684 116.056 18.505 121.935 19.883L126.257 6.59609C120.378 5.21845 114.331 4.38103 108.135 4.09399L91.5322 55.1352C97.7284 55.4222 103.776 56.2577 109.655 57.6353L116.145 37.6829C110.266 36.3049 104.219 35.4685 98.0236 35.1814C99.9536 29.248 101.884 23.3147 103.814 17.3815Z" fill="#A140FD"/>
<path id="Vector_20" d="M150.959 41.1357C152.723 35.7112 154.29 30.8925 155.275 27.8669C156.777 23.2472 154.782 18.2085 150.52 15.8829C148.371 14.709 146.191 13.6236 143.981 12.6243L139.659 25.9114C141.869 26.9121 144.049 27.997 146.198 29.1696C150.455 31.493 152.45 36.5223 150.959 41.1357Z" fill="#A140FD"/>
<path id="Vector_21" d="M140.408 46.9697C138.259 45.7972 136.079 44.7122 133.869 43.7114L127.38 63.6618C130.922 65.2675 134.387 67.092 137.771 69.1381C138.768 69.7427 139.493 70.6504 139.877 71.6864C140.263 72.7232 140.306 73.8841 139.945 74.9947C139.945 74.9947 142.27 67.8485 145.169 58.9357C146.66 54.3224 144.665 49.2931 140.408 46.9697Z" fill="#A140FD"/>
<path id="Vector_22" d="M121.936 19.8831L116.146 37.6829C122.24 39.1114 128.155 41.1237 133.87 43.7114L139.66 25.9115C133.945 23.3238 128.03 21.3115 121.936 19.8831Z" fill="#A140FD"/>
<path id="Vector_23" d="M117.752 19.0024C113.199 18.1418 108.55 17.6004 103.813 17.3807L108.135 4.09399C108.524 4.11192 108.908 4.13184 109.295 4.15435C109.605 4.17527 109.916 4.19399 110.226 4.21491L110.227 4.21789L117.752 19.0024Z" fill="#8642C8"/>
<path id="Vector_24" d="M142.406 67.4275L139.945 74.9929C140.238 74.0918 140.265 73.1553 140.058 72.2797C140.027 72.1458 139.988 72.0124 139.946 71.8801C139.925 71.8167 139.903 71.7502 139.878 71.6855C139.734 71.2962 139.542 70.9275 139.306 70.5853C139.228 70.4698 139.143 70.3574 139.054 70.2511C139.01 70.1979 138.965 70.1449 138.918 70.0911C138.778 69.9349 138.629 69.7857 138.466 69.6453C138.253 69.4601 138.02 69.2892 137.771 69.1386C137.304 68.8553 136.835 68.5792 136.365 68.3055C135.836 67.9942 135.303 67.6922 134.767 67.3918C134.704 67.3582 134.638 67.3215 134.573 67.2849C134.207 67.0807 133.84 66.8789 133.471 66.6819C133.265 66.5711 133.059 66.4604 132.85 66.3512C132.644 66.2405 132.437 66.1321 132.228 66.023C132.022 65.9146 131.812 65.8076 131.602 65.7009C131.467 65.6315 131.328 65.5602 131.191 65.4901C131.021 65.4038 130.849 65.3168 130.675 65.2321C130.483 65.1359 130.288 65.0389 130.092 64.9443C129.759 64.7796 129.424 64.6162 129.089 64.4583C128.667 64.2569 128.245 64.0601 127.821 63.8657C127.674 63.7971 127.528 63.729 127.38 63.6629L132.49 47.9521L142.406 67.4275Z" fill="#B05EFF"/>
<path id="Vector_25" d="M129.365 41.8085C125.064 40.1162 120.653 38.7405 116.146 37.6836L120.48 24.3574L129.365 41.8085Z" fill="#924BD6"/>
<path id="Vector_26" d="M150.953 41.1535C150.955 41.1477 150.956 41.1418 150.958 41.136C149.097 46.8587 147.016 53.2558 145.168 58.9359C145.167 58.9417 145.165 58.9476 145.163 58.9534C147.507 51.7475 149.702 45.001 150.953 41.1535Z" fill="url(#paint14_linear_45_21781)"/>
<path id="Vector_27" d="M146.199 29.1696C144.05 27.9972 141.87 26.9121 139.66 25.9114L133.87 43.7113C136.08 44.712 138.26 45.7968 140.409 46.9695C144.666 49.2931 146.661 54.3222 145.17 58.9358C147.017 53.2557 149.098 46.8586 150.96 41.1359C152.451 36.5223 150.456 31.493 146.199 29.1696Z" fill="url(#paint15_linear_45_21781)"/>
<path id="Vector_28" d="M78.2688 95.9097C77.3043 95.596 76.7768 94.56 77.0906 93.5953L107.122 1.26883C107.436 0.304127 108.472 -0.223143 109.437 0.0905898C110.401 0.404322 110.928 1.44034 110.615 2.40504L80.5833 94.7313C80.2695 95.6958 79.2333 96.2234 78.2688 95.9097Z" fill="#FFEFB7"/>
</g>
<g id="Start ICo_2">
<path id="Vector_29" d="M17.6335 86.0942C32.6715 84.7666 46.7883 80.1407 59.7073 72.3065C61.6335 71.1384 62.5034 68.7977 61.8064 66.6553L46.3704 19.2004C33.201 27.8794 18.7213 33.1242 3.23824 34.8345C0.438156 35.1438 -0.962185 38.377 0.741531 40.6205C4.20952 45.1869 7.69942 49.7359 11.2114 54.2684C14.047 57.928 15.4055 62.5183 15.021 67.1318C14.6031 72.145 14.1713 77.1571 13.7269 82.1679C13.5283 84.4062 15.3953 86.2918 17.6335 86.0942Z" fill="url(#paint16_linear_45_21781)"/>
<path id="Vector_30" d="M54.0737 54.9864C55.9999 53.8183 56.8698 51.4776 56.1728 49.3352L61.8064 66.655C62.5034 68.7974 61.6335 71.1379 59.7073 72.3062C51.1453 77.4984 42.057 81.2798 32.5233 83.6271L26.8897 66.3072C36.4232 63.9597 45.5119 60.1786 54.0737 54.9864Z" fill="url(#paint17_linear_45_21781)"/>
<path id="Vector_31" d="M48.1226 36.6907C40.1247 41.5409 30.5605 45.5183 20.9756 48.1257L15.9214 32.5875H15.921C26.6764 29.9392 36.865 25.4649 46.3706 19.2002L50.2215 31.0394C50.9185 33.1819 50.0486 35.5225 48.1226 36.6907Z" fill="url(#paint18_linear_45_21781)"/>
<path id="Vector_32" d="M14.9076 68.4744C18.9734 67.9963 22.9692 67.2726 26.8898 66.3071L32.5234 83.627C27.6718 84.8215 22.7053 85.6462 17.6336 86.0938C15.3954 86.2914 13.5286 84.4058 13.727 82.1677C14.1319 77.6043 14.5247 73.0397 14.9076 68.4744Z" fill="#A140FD"/>
<path id="Vector_33" d="M15.0212 67.1317C15.4058 62.5181 14.0473 57.9279 11.2116 54.2683C10.2977 53.0888 9.38934 51.9052 8.47862 50.7234C12.5613 50.1499 16.7701 49.2697 20.9755 48.1255L26.8896 66.3072C22.9689 67.2727 18.9732 67.9962 14.9074 68.4745C14.9449 68.0269 14.9839 67.5793 15.0212 67.1317Z" fill="url(#paint19_linear_45_21781)"/>
<path id="Vector_34" d="M24.1392 30.1701C31.8937 27.5077 39.3201 23.8469 46.3704 19.2004L61.8064 66.6553C62.5034 68.7977 61.6335 71.1382 59.7073 72.3065C46.7885 80.1411 32.6715 84.7666 17.6335 86.0942C15.3953 86.2918 13.5283 84.4062 13.7269 82.1681C14.1715 77.1571 14.6031 72.145 15.021 67.132C15.3874 62.7372 14.1687 58.3652 11.6015 54.7968L24.1392 30.1701Z" fill="url(#paint20_linear_45_21781)"/>
<path id="Vector_35" d="M48.1224 36.6907C50.0486 35.5226 50.9185 33.1819 50.2215 31.0396L56.1726 49.3352C56.8696 51.4776 55.9999 53.8181 54.0735 54.9864C45.5115 60.1786 36.4232 63.96 26.8895 66.3073L20.9754 48.1255C30.5601 45.5181 40.1243 41.5407 48.1224 36.6907Z" fill="url(#paint21_linear_45_21781)"/>
<path id="Vector_36" d="M0.741722 40.6203C-0.961994 38.377 0.438553 35.1437 3.23844 34.8343C7.54584 34.3586 11.7756 33.6083 15.9214 32.5874L20.9756 48.1256C16.7702 49.2696 12.5616 50.1501 8.47867 50.7235C5.88893 47.3641 3.30716 43.9985 0.741722 40.6203Z" fill="#A140FD"/>
<path id="Vector_37" d="M20.9762 48.1263L26.8901 66.3072C36.4226 63.9595 45.5125 60.1792 54.0743 54.9853C56.0005 53.8175 56.8694 51.4769 56.1726 49.3354L50.2217 31.0403C50.9183 33.1818 50.0496 35.5224 48.1234 36.6903C40.1239 41.5407 30.5607 45.5176 20.9762 48.1263Z" fill="#6C2CA8"/>
<path id="Vector_38" d="M14.1758 49.7433C16.4313 49.2856 18.7043 48.743 20.9766 48.1259L18.6458 40.9602L14.1758 49.7433Z" fill="#8C48CD"/>
<path id="Vector_39" d="M37.0807 68.9651C37.0807 68.9651 43.0201 64.328 59.3209 59.0149L61.8061 66.655C62.5056 68.8053 61.6216 71.1455 59.6878 72.3176C55.5222 74.8424 51.2322 77.0329 46.827 78.8872C43.745 80.1846 40.2117 78.591 39.1775 75.4111L37.0807 68.9651Z" fill="url(#paint22_linear_45_21781)"/>
<path id="Vector_40" d="M41.2177 69.1379C55.3239 60.6099 70.8565 55.9029 87.4551 55.1346C81.9208 38.1212 76.387 21.1077 70.8527 4.09424C55.7518 4.79341 41.5332 8.75202 28.4684 15.8824C24.2054 18.209 22.2103 23.2481 23.7126 27.8664C27.3642 39.0925 39.0423 74.9944 39.0423 74.9944C38.3198 72.7742 39.2197 70.3456 41.2177 69.1379Z" fill="url(#paint23_linear_45_21781)"/>
<path id="Vector_41" d="M32.7898 29.1696C34.9383 27.9972 37.1185 26.9121 39.3282 25.9114L45.1182 43.7113C42.9085 44.712 40.7283 45.7968 38.5798 46.9695C34.3168 49.2961 32.3217 54.3352 33.824 58.9535C31.4801 51.7476 29.2857 45.0013 28.034 41.1536C26.5317 36.5353 28.5268 31.496 32.7898 29.1696Z" fill="url(#paint24_linear_45_21781)"/>
<path id="Vector_42" d="M57.0528 19.8831L62.8428 37.6829C56.7478 39.1114 50.8329 41.1237 45.1184 43.7114L39.3284 25.9115C45.0431 23.3238 50.9578 21.3115 57.0528 19.8831Z" fill="url(#paint25_linear_45_21781)"/>
<path id="Vector_43" d="M75.1748 17.3813C77.1048 23.3146 79.0348 29.248 80.9648 35.1812C74.7693 35.4681 68.7227 36.3045 62.8431 37.6827L57.053 19.8828C62.9327 18.5048 68.9795 17.6682 75.1748 17.3813Z" fill="url(#paint26_linear_45_21781)"/>
<path id="Vector_44" d="M62.843 37.6829L69.333 57.6353C63.2386 59.0635 57.3233 61.0752 51.608 63.6617L45.1186 43.7113C50.8333 41.1236 56.7482 39.1113 62.843 37.6829Z" fill="url(#paint27_linear_45_21781)"/>
<path id="Vector_45" d="M39.3283 25.9115L35.0064 12.6244C40.7205 10.0341 46.6358 8.02238 52.7308 6.59595L57.0527 19.8829C50.9578 21.3113 45.0431 23.3236 39.3283 25.9115Z" fill="url(#paint28_linear_45_21781)"/>
<path id="Vector_46" d="M39.0419 74.9944C39.0419 74.9944 38.061 71.979 36.5804 67.4272L68.7632 4.21455C69.458 4.16834 70.154 4.12651 70.8527 4.09424C76.387 21.1077 81.9208 38.1212 87.4551 55.1346C70.8565 55.9029 55.3239 60.6097 41.2177 69.1379C39.2193 70.3456 38.3194 72.7742 39.0419 74.9944Z" fill="url(#paint29_linear_45_21781)"/>
<path id="Vector_47" d="M75.1747 17.3815C68.9793 17.6684 62.9325 18.505 57.0529 19.883L52.7309 6.59609C58.6106 5.21845 64.6576 4.38103 70.8535 4.09399L87.4561 55.1352C81.2599 55.4222 75.2125 56.2577 69.3329 57.6353L62.8429 37.6829C68.7225 36.3049 74.7693 35.4685 80.9647 35.1814C79.0347 29.248 77.1047 23.3147 75.1747 17.3815Z" fill="#A140FD"/>
<path id="Vector_48" d="M28.0297 41.1357C26.2653 35.7112 24.698 30.8925 23.7136 27.8669C22.2111 23.2472 24.2066 18.2085 28.4686 15.8829C30.6175 14.709 32.7973 13.6236 35.0072 12.6243L39.3291 25.9114C37.1194 26.9121 34.9392 27.997 32.7907 29.1696C28.5333 31.493 26.5382 36.5223 28.0297 41.1357Z" fill="#A140FD"/>
<path id="Vector_49" d="M38.5806 46.9697C40.7291 45.7972 42.9093 44.7122 45.119 43.7114L51.6084 63.6618C48.0663 65.2675 44.6015 67.092 41.2174 69.1381C40.2202 69.7427 39.4951 70.6504 39.1113 71.6864C38.7254 72.7232 38.6818 73.8841 39.043 74.9947C39.043 74.9947 36.7184 67.8485 33.8195 58.9357C32.3279 54.3224 34.323 49.2931 38.5806 46.9697Z" fill="#A140FD"/>
<path id="Vector_50" d="M57.0528 19.8831L62.8428 37.6829C56.7478 39.1114 50.8329 41.1237 45.1184 43.7114L39.3284 25.9115C45.0431 23.3238 50.9578 21.3115 57.0528 19.8831Z" fill="#A140FD"/>
<path id="Vector_51" d="M61.2363 19.0024C65.7895 18.1418 70.4387 17.6004 75.1748 17.3807L70.8529 4.09399C70.4646 4.11192 70.0798 4.13184 69.6931 4.15435C69.3832 4.17527 69.0727 4.19399 68.7627 4.21491L68.7611 4.21789L61.2363 19.0024Z" fill="#8642C8"/>
<path id="Vector_52" d="M36.5823 67.4275L39.0432 74.9929C38.7499 74.0918 38.7236 73.1553 38.9304 72.2797C38.9617 72.1458 39.0005 72.0124 39.0426 71.8801C39.0631 71.8167 39.0854 71.7502 39.1105 71.6855C39.2543 71.2962 39.4459 70.9275 39.6822 70.5853C39.7605 70.4698 39.8449 70.3574 39.934 70.2511C39.9786 70.1979 40.023 70.1449 40.07 70.0911C40.2098 69.9349 40.3596 69.7857 40.5224 69.6453C40.7351 69.4601 40.968 69.2892 41.2176 69.1386C41.6843 68.8553 42.1532 68.5792 42.6229 68.3055C43.1524 67.9942 43.6852 67.6922 44.2208 67.3918C44.2846 67.3582 44.3499 67.3215 44.4153 67.2849C44.7814 67.0807 45.1483 66.8789 45.517 66.6819C45.723 66.5711 45.9289 66.4604 46.1381 66.3512C46.3441 66.2405 46.5508 66.1321 46.76 66.023C46.9668 65.9146 47.1765 65.8076 47.3865 65.7009C47.5209 65.6315 47.66 65.5602 47.7968 65.4901C47.9669 65.4038 48.1396 65.3168 48.3129 65.2321C48.5057 65.1359 48.7007 65.0389 48.8964 64.9443C49.229 64.7796 49.5647 64.6162 49.8997 64.4583C50.3208 64.2569 50.7437 64.0601 51.167 63.8657C51.3146 63.7971 51.46 63.729 51.6084 63.6629L46.498 47.9521L36.5823 67.4275Z" fill="#B05EFF"/>
<path id="Vector_53" d="M49.6234 41.8085C53.924 40.1162 58.3354 38.7405 62.8428 37.6836L58.5081 24.3574L49.6234 41.8085Z" fill="#924BD6"/>
<path id="Vector_54" d="M28.0352 41.1535C28.0332 41.1477 28.0318 41.1418 28.0298 41.136C29.8913 46.8587 31.9721 53.2558 33.8198 58.9359C33.8216 58.9417 33.8232 58.9476 33.8252 58.9534C31.4811 51.7475 29.2867 45.001 28.0352 41.1535Z" fill="url(#paint30_linear_45_21781)"/>
<path id="Vector_55" d="M32.7898 29.1696C34.9383 27.9972 37.1185 26.9121 39.3282 25.9114L45.1182 43.7113C42.9085 44.712 40.7283 45.7968 38.5798 46.9695C34.3222 49.2931 32.327 54.3222 33.8186 58.9358C31.9711 53.2557 29.8903 46.8586 28.0286 41.1359C26.5372 36.5223 28.5324 31.493 32.7898 29.1696Z" fill="url(#paint31_linear_45_21781)"/>
<path id="Vector_56" d="M100.719 95.9097C101.684 95.596 102.211 94.56 101.898 93.5953L71.8662 1.26883C71.5525 0.304127 70.5163 -0.223143 69.5518 0.0905898C68.5873 0.404322 68.0598 1.44034 68.3735 2.40504L98.405 94.7313C98.7188 95.6958 99.755 96.2234 100.719 95.9097Z" fill="#FFEFB7"/>
</g>
</g>
<defs>
<linearGradient id="paint0_linear_45_21781" x1="150.831" y1="55.2231" x2="173.898" y2="62.726" gradientUnits="userSpaceOnUse">
<stop stop-color="#E2EDF2"/>
<stop offset="1" stop-color="#9FC7E2"/>
</linearGradient>
<linearGradient id="paint1_linear_45_21781" x1="145.517" y1="70.151" x2="140.083" y2="68.3852" gradientUnits="userSpaceOnUse">
<stop stop-color="#E2EDF2"/>
<stop offset="1" stop-color="#9FC7E2"/>
</linearGradient>
<linearGradient id="paint2_linear_45_21781" x1="156.208" y1="37.2801" x2="150.775" y2="35.5124" gradientUnits="userSpaceOnUse">
<stop stop-color="#E2EDF2"/>
<stop offset="1" stop-color="#9FC7E2"/>
</linearGradient>
<linearGradient id="paint3_linear_45_21781" x1="150.449" y1="54.9851" x2="145.016" y2="53.2174" gradientUnits="userSpaceOnUse">
<stop stop-color="#E2EDF2"/>
<stop offset="1" stop-color="#9FC7E2"/>
</linearGradient>
<linearGradient id="paint4_linear_45_21781" x1="149.804" y1="77.0611" x2="129.679" y2="37.5386" gradientUnits="userSpaceOnUse">
<stop stop-color="#9FC7E2" stop-opacity="0"/>
<stop offset="1" stop-color="#9FC7E2"/>
</linearGradient>
<linearGradient id="paint5_linear_45_21781" x1="142.286" y1="49.4128" x2="157.312" y2="54.3001" gradientUnits="userSpaceOnUse">
<stop stop-color="#654E48"/>
<stop offset="1" stop-color="#503837"/>
</linearGradient>
<linearGradient id="paint6_linear_45_21781" x1="125.81" y1="79.2911" x2="132.65" y2="58.26" gradientUnits="userSpaceOnUse">
<stop stop-color="#E2EDF2"/>
<stop offset="1" stop-color="#9FC7E2"/>
</linearGradient>
<linearGradient id="paint7_linear_45_21781" x1="127.577" y1="38.8198" x2="151.265" y2="46.5247" gradientUnits="userSpaceOnUse">
<stop stop-color="#E2EDF2"/>
<stop offset="1" stop-color="#9FC7E2"/>
</linearGradient>
<linearGradient id="paint8_linear_45_21781" x1="127.933" y1="37.7246" x2="151.622" y2="45.4295" gradientUnits="userSpaceOnUse">
<stop stop-color="#E2EDF2"/>
<stop offset="1" stop-color="#9FC7E2"/>
</linearGradient>
<linearGradient id="paint9_linear_45_21781" x1="129.027" y1="31.9856" x2="137.525" y2="34.7492" gradientUnits="userSpaceOnUse">
<stop stop-color="#E2EDF2"/>
<stop offset="1" stop-color="#9FC7E2"/>
</linearGradient>
<linearGradient id="paint10_linear_45_21781" x1="127.635" y1="33.2762" x2="147.106" y2="39.6094" gradientUnits="userSpaceOnUse">
<stop stop-color="#E2EDF2"/>
<stop offset="1" stop-color="#9FC7E2"/>
</linearGradient>
<linearGradient id="paint11_linear_45_21781" x1="122.009" y1="50.5746" x2="141.48" y2="56.9078" gradientUnits="userSpaceOnUse">
<stop stop-color="#E2EDF2"/>
<stop offset="1" stop-color="#9FC7E2"/>
</linearGradient>
<linearGradient id="paint12_linear_45_21781" x1="133.204" y1="16.1557" x2="152.675" y2="22.4888" gradientUnits="userSpaceOnUse">
<stop stop-color="#E2EDF2"/>
<stop offset="1" stop-color="#9FC7E2"/>
</linearGradient>
<linearGradient id="paint13_linear_45_21781" x1="114.575" y1="56.5771" x2="89.3415" y2="7.01597" gradientUnits="userSpaceOnUse">
<stop stop-color="#9FC7E2" stop-opacity="0"/>
<stop offset="1" stop-color="#9FC7E2"/>
</linearGradient>
<linearGradient id="paint14_linear_45_21781" x1="146.505" y1="49.5403" x2="149.623" y2="50.5542" gradientUnits="userSpaceOnUse">
<stop stop-color="#E2EDF2"/>
<stop offset="1" stop-color="#9FC7E2"/>
</linearGradient>
<linearGradient id="paint15_linear_45_21781" x1="126.359" y1="37.203" x2="145.83" y2="43.5361" gradientUnits="userSpaceOnUse">
<stop stop-color="#E2EDF2"/>
<stop offset="1" stop-color="#9FC7E2"/>
</linearGradient>
<linearGradient id="paint16_linear_45_21781" x1="28.1575" y1="55.2231" x2="5.09074" y2="62.726" gradientUnits="userSpaceOnUse">
<stop stop-color="#E2EDF2"/>
<stop offset="1" stop-color="#9FC7E2"/>
</linearGradient>
<linearGradient id="paint17_linear_45_21781" x1="33.4717" y1="70.151" x2="38.905" y2="68.3852" gradientUnits="userSpaceOnUse">
<stop stop-color="#E2EDF2"/>
<stop offset="1" stop-color="#9FC7E2"/>
</linearGradient>
<linearGradient id="paint18_linear_45_21781" x1="22.7805" y1="37.2801" x2="28.2138" y2="35.5124" gradientUnits="userSpaceOnUse">
<stop stop-color="#E2EDF2"/>
<stop offset="1" stop-color="#9FC7E2"/>
</linearGradient>
<linearGradient id="paint19_linear_45_21781" x1="28.539" y1="54.9851" x2="33.9722" y2="53.2174" gradientUnits="userSpaceOnUse">
<stop stop-color="#E2EDF2"/>
<stop offset="1" stop-color="#9FC7E2"/>
</linearGradient>
<linearGradient id="paint20_linear_45_21781" x1="29.1843" y1="77.0611" x2="49.3095" y2="37.5386" gradientUnits="userSpaceOnUse">
<stop stop-color="#9FC7E2" stop-opacity="0"/>
<stop offset="1" stop-color="#9FC7E2"/>
</linearGradient>
<linearGradient id="paint21_linear_45_21781" x1="36.7018" y1="49.4128" x2="21.6759" y2="54.3001" gradientUnits="userSpaceOnUse">
<stop stop-color="#654E48"/>
<stop offset="1" stop-color="#503837"/>
</linearGradient>
<linearGradient id="paint22_linear_45_21781" x1="53.1778" y1="79.2911" x2="46.3388" y2="58.26" gradientUnits="userSpaceOnUse">
<stop stop-color="#E2EDF2"/>
<stop offset="1" stop-color="#9FC7E2"/>
</linearGradient>
<linearGradient id="paint23_linear_45_21781" x1="51.4116" y1="38.8198" x2="27.7229" y2="46.5247" gradientUnits="userSpaceOnUse">
<stop stop-color="#E2EDF2"/>
<stop offset="1" stop-color="#9FC7E2"/>
</linearGradient>
<linearGradient id="paint24_linear_45_21781" x1="51.0554" y1="37.7246" x2="27.3667" y2="45.4295" gradientUnits="userSpaceOnUse">
<stop stop-color="#E2EDF2"/>
<stop offset="1" stop-color="#9FC7E2"/>
</linearGradient>
<linearGradient id="paint25_linear_45_21781" x1="49.9618" y1="31.9856" x2="41.463" y2="34.7492" gradientUnits="userSpaceOnUse">
<stop stop-color="#E2EDF2"/>
<stop offset="1" stop-color="#9FC7E2"/>
</linearGradient>
<linearGradient id="paint26_linear_45_21781" x1="51.3536" y1="33.2762" x2="31.8823" y2="39.6094" gradientUnits="userSpaceOnUse">
<stop stop-color="#E2EDF2"/>
<stop offset="1" stop-color="#9FC7E2"/>
</linearGradient>
<linearGradient id="paint27_linear_45_21781" x1="56.9792" y1="50.5746" x2="37.5079" y2="56.9078" gradientUnits="userSpaceOnUse">
<stop stop-color="#E2EDF2"/>
<stop offset="1" stop-color="#9FC7E2"/>
</linearGradient>
<linearGradient id="paint28_linear_45_21781" x1="45.7843" y1="16.1557" x2="26.313" y2="22.4888" gradientUnits="userSpaceOnUse">
<stop stop-color="#E2EDF2"/>
<stop offset="1" stop-color="#9FC7E2"/>
</linearGradient>
<linearGradient id="paint29_linear_45_21781" x1="64.4131" y1="56.5771" x2="89.6468" y2="7.01597" gradientUnits="userSpaceOnUse">
<stop stop-color="#9FC7E2" stop-opacity="0"/>
<stop offset="1" stop-color="#9FC7E2"/>
</linearGradient>
<linearGradient id="paint30_linear_45_21781" x1="32.483" y1="49.5403" x2="29.3654" y2="50.5542" gradientUnits="userSpaceOnUse">
<stop stop-color="#E2EDF2"/>
<stop offset="1" stop-color="#9FC7E2"/>
</linearGradient>
<linearGradient id="paint31_linear_45_21781" x1="52.6293" y1="37.203" x2="33.158" y2="43.5361" gradientUnits="userSpaceOnUse">
<stop stop-color="#E2EDF2"/>
<stop offset="1" stop-color="#9FC7E2"/>
</linearGradient>
</defs>
</svg>
