<svg width="94" height="73" viewBox="0 0 94 73" fill="none" xmlns="http://www.w3.org/2000/svg">
<g id="Group 119">
<g id="Group 117">
<g id="B1">
<path id="Vector 6" d="M25.6612 45.755C22.284 48.2549 18.5025 48.0992 17.034 47.7089C17.0775 46.4503 18.9199 44.7186 17.2777 40.95C16.0851 38.2132 1.33674 34.0306 1.46934 25.9964C1.60327 17.8822 13.3411 16.6039 15.1532 21.1227C16.6029 24.7378 14.1462 26.5429 12.7366 26.9936C14.5672 24.6296 13.6032 19.5021 9.25423 22.0644C3.97481 26.612 11.7283 30.3767 18.8944 33.2886C26.0604 36.2004 25.8063 45.5249 25.6612 45.755Z" fill="#898D9E"/>
<g id="Mask group">
<mask id="mask0_45_25631" style="mask-type:alpha" maskUnits="userSpaceOnUse" x="1" y="18" width="25" height="30">
<path id="Vector 12" d="M25.6612 45.7547C22.284 48.2547 18.5025 48.099 17.034 47.7086C17.0775 46.45 18.9199 44.7183 17.2777 40.9497C16.0851 38.213 1.33674 34.0303 1.46934 25.9962C1.60327 17.882 13.3411 16.6037 15.1532 21.1225C16.6029 24.7375 14.1462 26.5427 12.7366 26.9934C14.5672 24.6294 13.6032 19.5019 9.25423 22.0642C3.97481 26.6118 11.7283 30.3764 18.8944 33.2883C26.0604 36.2002 25.8063 45.5247 25.6612 45.7547Z" fill="#5C2095"/>
</mask>
<g mask="url(#mask0_45_25631)">
<ellipse id="Ellipse 9" cx="24.9431" cy="44.2897" rx="0.961492" ry="0.576895" transform="rotate(-24.417 24.9431 44.2897)" fill="#BABABA"/>
<ellipse id="Ellipse 11" cx="24.2603" cy="41.0042" rx="0.961492" ry="0.576895" transform="rotate(-6.19179 24.2603 41.0042)" fill="#BABABA"/>
<ellipse id="Ellipse 14" cx="20.9556" cy="38.598" rx="0.961492" ry="0.576895" transform="rotate(-6.19179 20.9556 38.598)" fill="#BABABA"/>
<ellipse id="Ellipse 16" cx="21.7271" cy="36.3387" rx="0.961492" ry="0.576895" transform="rotate(-40.4474 21.7271 36.3387)" fill="#BABABA"/>
<ellipse id="Ellipse 17" cx="18.7199" cy="36.6367" rx="1.35859" ry="0.815154" transform="rotate(-40.4474 18.7199 36.6367)" fill="#BABABA"/>
<ellipse id="Ellipse 18" cx="19.0408" cy="33.7961" rx="1.25704" ry="0.754221" transform="rotate(-22.7689 19.0408 33.7961)" fill="#BABABA"/>
<ellipse id="Ellipse 19" cx="15.6298" cy="34.9878" rx="0.785915" ry="0.471549" transform="rotate(-22.7689 15.6298 34.9878)" fill="#BABABA"/>
<ellipse id="Ellipse 23" cx="15.2756" cy="33.9229" rx="0.330951" ry="0.198571" transform="rotate(-22.7689 15.2756 33.9229)" fill="#BABABA"/>
<ellipse id="Ellipse 24" cx="14.6457" cy="32.8824" rx="0.330951" ry="0.198571" transform="rotate(-22.7689 14.6457 32.8824)" fill="#BABABA"/>
<ellipse id="Ellipse 25" cx="17.6603" cy="35.7486" rx="0.330951" ry="0.198571" transform="rotate(-22.7689 17.6603 35.7486)" fill="#BABABA"/>
<ellipse id="Ellipse 26" cx="17.2355" cy="33.8731" rx="0.330951" ry="0.198571" transform="rotate(-22.7689 17.2355 33.8731)" fill="#BABABA"/>
<ellipse id="Ellipse 20" cx="16.246" cy="32.4824" rx="0.785915" ry="0.471549" transform="rotate(-22.7689 16.246 32.4824)" fill="#BABABA"/>
<ellipse id="Ellipse 21" cx="13.4599" cy="33.9745" rx="0.785915" ry="0.471549" transform="rotate(-28.912 13.4599 33.9745)" fill="#BABABA"/>
<ellipse id="Ellipse 22" cx="13.9315" cy="31.2408" rx="1.38835" ry="0.833009" transform="rotate(-28.912 13.9315 31.2408)" fill="#BABABA"/>
<ellipse id="Ellipse 29" cx="11.2344" cy="29.4311" rx="1.38835" ry="0.833009" transform="rotate(-18.2047 11.2344 29.4311)" fill="#BABABA"/>
<ellipse id="Ellipse 32" cx="8.73242" cy="27.2106" rx="1.38835" ry="0.833009" transform="rotate(-18.2047 8.73242 27.2106)" fill="#BABABA"/>
<ellipse id="Ellipse 38" cx="7.74998" cy="25.3116" rx="1.12646" ry="0.675875" transform="rotate(-18.2047 7.74998 25.3116)" fill="#BABABA"/>
<ellipse id="Ellipse 39" cx="7.96732" cy="23.4626" rx="1.12646" ry="0.675875" transform="rotate(15.5032 7.96732 23.4626)" fill="#BABABA"/>
<ellipse id="Ellipse 40" cx="4.91654" cy="22.1819" rx="1.12646" ry="0.675875" transform="rotate(15.5032 4.91654 22.1819)" fill="#BABABA"/>
<ellipse id="Ellipse 27" cx="10.8104" cy="33.1307" rx="1.38835" ry="0.833009" transform="rotate(-28.912 10.8104 33.1307)" fill="#BABABA"/>
<ellipse id="Ellipse 30" cx="7.8164" cy="30.7082" rx="1.38835" ry="0.833009" transform="rotate(-18.2047 7.8164 30.7082)" fill="#BABABA"/>
<ellipse id="Ellipse 33" cx="5.31445" cy="28.4877" rx="1.38835" ry="0.833009" transform="rotate(-18.2047 5.31445 28.4877)" fill="#BABABA"/>
<ellipse id="Ellipse 36" cx="4.39194" cy="25.5821" rx="1.38835" ry="0.833009" transform="rotate(6.93109 4.39194 25.5821)" fill="#BABABA"/>
<ellipse id="Ellipse 28" cx="11.6641" cy="30.9775" rx="0.501944" ry="0.301166" transform="rotate(-28.912 11.6641 30.9775)" fill="#BABABA"/>
<ellipse id="Ellipse 31" cx="9.05528" cy="28.7513" rx="0.501944" ry="0.301166" transform="rotate(-18.2047 9.05528 28.7513)" fill="#BABABA"/>
<ellipse id="Ellipse 34" cx="7.17931" cy="28.7553" rx="0.501944" ry="0.301166" transform="rotate(-18.2047 7.17931 28.7553)" fill="#BABABA"/>
<ellipse id="Ellipse 35" cx="6.37853" cy="26.9647" rx="0.501944" ry="0.301166" transform="rotate(-18.2047 6.37853 26.9647)" fill="#BABABA"/>
<ellipse id="Ellipse 37" cx="6.00295" cy="24.6554" rx="0.501944" ry="0.301166" transform="rotate(6.93109 6.00295 24.6554)" fill="#BABABA"/>
<ellipse id="Ellipse 41" cx="6.9258" cy="21.9709" rx="0.501944" ry="0.454902" transform="rotate(6.93109 6.9258 21.9709)" fill="#BABABA"/>
<ellipse id="Ellipse 42" cx="7.25122" cy="19.9255" rx="0.787429" ry="0.713632" transform="rotate(6.93109 7.25122 19.9255)" fill="#BABABA"/>
<ellipse id="Ellipse 43" cx="9.5979" cy="21.7138" rx="0.787429" ry="0.713632" transform="rotate(6.93109 9.5979 21.7138)" fill="#BABABA"/>
<ellipse id="Ellipse 44" cx="9.99585" cy="20.0504" rx="0.467375" ry="0.423573" transform="rotate(6.93109 9.99585 20.0504)" fill="#BABABA"/>
<ellipse id="Ellipse 45" cx="11.7859" cy="19.2506" rx="0.467375" ry="0.423573" transform="rotate(6.93109 11.7859 19.2506)" fill="#BABABA"/>
<ellipse id="Ellipse 46" cx="11.4597" cy="21.296" rx="0.467375" ry="0.423573" transform="rotate(6.93109 11.4597 21.296)" fill="#BABABA"/>
<ellipse id="Ellipse 47" cx="12.5007" cy="20.6661" rx="0.467375" ry="0.423573" transform="rotate(6.93109 12.5007 20.6661)" fill="#BABABA"/>
<ellipse id="Ellipse 48" cx="12.8406" cy="22.1663" rx="0.467375" ry="0.423573" transform="rotate(6.93109 12.8406 22.1663)" fill="#BABABA"/>
<ellipse id="Ellipse 49" cx="13.5557" cy="21.3418" rx="0.247691" ry="0.224478" transform="rotate(6.93109 13.5557 21.3418)" fill="#BABABA"/>
<ellipse id="Ellipse 50" cx="14.6455" cy="22.6724" rx="0.247691" ry="0.224478" transform="rotate(6.93109 14.6455 22.6724)" fill="#BABABA"/>
<ellipse id="Ellipse 51" cx="13.6055" cy="23.3023" rx="0.247691" ry="0.224478" transform="rotate(6.93109 13.6055 23.3023)" fill="#BABABA"/>
<ellipse id="Ellipse 52" cx="14.2354" cy="24.3426" rx="0.247691" ry="0.224478" transform="rotate(6.93109 14.2354 24.3426)" fill="#BABABA"/>
<ellipse id="Ellipse 53" cx="13.6553" cy="25.2627" rx="0.247691" ry="0.224478" transform="rotate(6.93109 13.6553 25.2627)" fill="#BABABA"/>
<ellipse id="Ellipse 54" cx="13.4502" cy="26.0979" rx="0.247691" ry="0.224478" transform="rotate(6.93109 13.4502 26.0979)" fill="#BABABA"/>
<ellipse id="Ellipse 12" cx="22.4051" cy="41.5502" rx="0.592872" ry="0.355723" transform="rotate(-6.19179 22.4051 41.5502)" fill="#BABABA"/>
<ellipse id="Ellipse 15" cx="22.7431" cy="37.6279" rx="0.592872" ry="0.355723" transform="rotate(-30.1149 22.7431 37.6279)" fill="#BABABA"/>
<ellipse id="Ellipse 10" cx="23.0836" cy="43.0291" rx="1.5759" ry="0.94554" transform="rotate(-24.417 23.0836 43.0291)" fill="#BABABA"/>
<ellipse id="Ellipse 13" cx="23.7857" cy="39.2692" rx="1.5759" ry="0.94554" transform="rotate(-3.21749 23.7857 39.2692)" fill="#BABABA"/>
<path id="Vector 11" d="M18.4342 38.2717C21.8966 40.3267 21.071 45.5612 20.2254 47.9216L15.4093 48.4208C17.3708 46.925 19.5591 43.0644 12.6202 39.5884C5.6813 36.1125 2.45532 30.9806 1.7097 28.8492C1.09738 27.0162 0.516689 21.6664 5.61225 19.0927C10.7078 16.5191 13.9766 19.17 15.174 21.2649C13.6557 18.9141 9.41053 16.5368 4.47651 21.9132C-1.69101 28.6335 14.1062 35.7029 18.4342 38.2717Z" fill="#1B1D24"/>
</g>
</g>
<path id="Vector 13" d="M7.83503 19.0036C6.1808 19.283 2.71233 20.8091 2.07221 24.6786C2.56914 23.4 4.41741 20.4749 7.83503 19.0036Z" fill="#6D738E"/>
</g>
</g>
<g id="Group 118">
<g id="B1_2">
<path id="Vector 6_2" d="M67.6582 29.618C71.0353 32.118 74.8168 31.9623 76.2854 31.5719C76.2418 30.3133 74.3994 28.5816 76.0417 24.813C77.2342 22.0763 91.9826 17.8936 91.85 9.85946C91.7161 1.74523 79.9783 0.466983 78.1662 4.98579C76.7165 8.60083 79.1732 10.406 80.5827 10.8567C78.7521 8.49264 79.7162 3.36516 84.0651 5.92747C89.3445 10.475 81.591 14.2397 74.425 17.1516C67.2589 20.0635 67.5131 29.388 67.6582 29.618Z" fill="#898D9E"/>
<g id="Mask group_2">
<mask id="mask1_45_25631" style="mask-type:alpha" maskUnits="userSpaceOnUse" x="67" y="2" width="25" height="30">
<path id="Vector 12_2" d="M67.6582 29.6178C71.0353 32.1177 74.8168 31.962 76.2854 31.5717C76.2418 30.3131 74.3994 28.5813 76.0417 24.8127C77.2342 22.076 91.9826 17.8933 91.85 9.85922C91.7161 1.74499 79.9783 0.466739 78.1662 4.98554C76.7165 8.60058 79.1732 10.4057 80.5827 10.8564C78.7521 8.4924 79.7162 3.36492 84.0651 5.92723C89.3445 10.4748 81.591 14.2395 74.425 17.1514C67.2589 20.0632 67.5131 29.3877 67.6582 29.6178Z" fill="#5C2095"/>
</mask>
<g mask="url(#mask1_45_25631)">
<ellipse id="Ellipse 9_2" cx="0.961492" cy="0.576895" rx="0.961492" ry="0.576895" transform="matrix(-0.910561 -0.413375 -0.413375 0.910561 69.4902 28.0249)" fill="#BABABA"/>
<ellipse id="Ellipse 11_2" cx="0.961492" cy="0.576895" rx="0.961492" ry="0.576895" transform="matrix(-0.994166 -0.107857 -0.107857 0.994166 70.0771 24.3975)" fill="#BABABA"/>
<ellipse id="Ellipse 14_2" cx="0.961492" cy="0.576895" rx="0.961492" ry="0.576895" transform="matrix(-0.994166 -0.107857 -0.107857 0.994166 73.3818 21.9912)" fill="#BABABA"/>
<ellipse id="Ellipse 16_2" cx="0.961492" cy="0.576895" rx="0.961492" ry="0.576895" transform="matrix(-0.761002 -0.64875 -0.64875 0.761002 72.6982 20.3865)" fill="#BABABA"/>
<ellipse id="Ellipse 17_2" cx="1.35859" cy="0.815154" rx="1.35859" ry="0.815154" transform="matrix(-0.761002 -0.64875 -0.64875 0.761002 76.1621 20.7607)" fill="#BABABA"/>
<ellipse id="Ellipse 18_2" cx="1.25704" cy="0.754221" rx="1.25704" ry="0.754221" transform="matrix(-0.922073 -0.387016 -0.387016 0.922073 75.7295 17.4502)" fill="#BABABA"/>
<ellipse id="Ellipse 19_2" cx="0.785915" cy="0.471549" rx="0.785915" ry="0.471549" transform="matrix(-0.922073 -0.387016 -0.387016 0.922073 78.5967 18.7202)" fill="#BABABA"/>
<ellipse id="Ellipse 23_2" cx="0.330951" cy="0.198571" rx="0.330951" ry="0.198571" transform="matrix(-0.922073 -0.387016 -0.387016 0.922073 78.4258 17.731)" fill="#BABABA"/>
<ellipse id="Ellipse 24_2" cx="0.330951" cy="0.198571" rx="0.330951" ry="0.198571" transform="matrix(-0.922073 -0.387016 -0.387016 0.922073 79.0557 16.6904)" fill="#BABABA"/>
<ellipse id="Ellipse 25_2" cx="0.330951" cy="0.198571" rx="0.330951" ry="0.198571" transform="matrix(-0.922073 -0.387016 -0.387016 0.922073 76.041 19.5566)" fill="#BABABA"/>
<ellipse id="Ellipse 26_2" cx="0.330951" cy="0.198571" rx="0.330951" ry="0.198571" transform="matrix(-0.922073 -0.387016 -0.387016 0.922073 76.4658 17.6812)" fill="#BABABA"/>
<ellipse id="Ellipse 20_2" cx="0.785915" cy="0.471549" rx="0.785915" ry="0.471549" transform="matrix(-0.922073 -0.387016 -0.387016 0.922073 77.9805 16.2148)" fill="#BABABA"/>
<ellipse id="Ellipse 21_2" cx="0.785915" cy="0.471549" rx="0.785915" ry="0.471549" transform="matrix(-0.875363 -0.483466 -0.483466 0.875363 80.7754 17.8047)" fill="#BABABA"/>
<ellipse id="Ellipse 22_2" cx="1.38835" cy="0.833009" rx="1.38835" ry="0.833009" transform="matrix(-0.875363 -0.483466 -0.483466 0.875363 81.0059 15.0459)" fill="#BABABA"/>
<ellipse id="Ellipse 29_2" cx="1.38835" cy="0.833009" rx="1.38835" ry="0.833009" transform="matrix(-0.949946 -0.312413 -0.312413 0.949946 83.6641 12.9365)" fill="#BABABA"/>
<ellipse id="Ellipse 32_2" cx="1.38835" cy="0.833009" rx="1.38835" ry="0.833009" transform="matrix(-0.949946 -0.312413 -0.312413 0.949946 86.166 10.7161)" fill="#BABABA"/>
<ellipse id="Ellipse 38_2" cx="1.12646" cy="0.675875" rx="1.12646" ry="0.675875" transform="matrix(-0.949946 -0.312413 -0.312413 0.949946 86.8506 8.88452)" fill="#BABABA"/>
<ellipse id="Ellipse 39_2" cx="1.12646" cy="0.675875" rx="1.12646" ry="0.675875" transform="matrix(-0.963615 0.267293 0.267293 0.963615 86.2568 6.37329)" fill="#BABABA"/>
<ellipse id="Ellipse 40_2" cx="1.12646" cy="0.675875" rx="1.12646" ry="0.675875" transform="matrix(-0.963615 0.267293 0.267293 0.963615 89.3076 5.09253)" fill="#BABABA"/>
<ellipse id="Ellipse 27_2" cx="1.38835" cy="0.833009" rx="1.38835" ry="0.833009" transform="matrix(-0.875363 -0.483466 -0.483466 0.875363 84.127 16.9358)" fill="#BABABA"/>
<ellipse id="Ellipse 30_2" cx="1.38835" cy="0.833009" rx="1.38835" ry="0.833009" transform="matrix(-0.949946 -0.312413 -0.312413 0.949946 87.082 14.2136)" fill="#BABABA"/>
<ellipse id="Ellipse 33_2" cx="1.38835" cy="0.833009" rx="1.38835" ry="0.833009" transform="matrix(-0.949946 -0.312413 -0.312413 0.949946 89.584 11.9932)" fill="#BABABA"/>
<ellipse id="Ellipse 36_2" cx="1.38835" cy="0.833009" rx="1.38835" ry="0.833009" transform="matrix(-0.992692 0.120675 0.120675 0.992692 90.2051 8.45068)" fill="#BABABA"/>
<ellipse id="Ellipse 28_2" cx="0.501944" cy="0.301166" rx="0.501944" ry="0.301166" transform="matrix(-0.875363 -0.483466 -0.483466 0.875363 82.2402 14.8196)" fill="#BABABA"/>
<ellipse id="Ellipse 31_2" cx="0.501944" cy="0.301166" rx="0.501944" ry="0.301166" transform="matrix(-0.949946 -0.312413 -0.312413 0.949946 84.835 12.4851)" fill="#BABABA"/>
<ellipse id="Ellipse 34_2" cx="0.501944" cy="0.301166" rx="0.501944" ry="0.301166" transform="matrix(-0.949946 -0.312413 -0.312413 0.949946 86.7109 12.489)" fill="#BABABA"/>
<ellipse id="Ellipse 35_2" cx="0.501944" cy="0.301166" rx="0.501944" ry="0.301166" transform="matrix(-0.949946 -0.312413 -0.312413 0.949946 87.5117 10.6985)" fill="#BABABA"/>
<ellipse id="Ellipse 37_2" cx="0.501944" cy="0.301166" rx="0.501944" ry="0.301166" transform="matrix(-0.992692 0.120675 0.120675 0.992692 87.7783 8.15894)" fill="#BABABA"/>
<ellipse id="Ellipse 41_2" cx="0.501944" cy="0.454902" rx="0.501944" ry="0.454902" transform="matrix(-0.992692 0.120675 0.120675 0.992692 86.8369 5.32178)" fill="#BABABA"/>
<ellipse id="Ellipse 42_2" cx="0.787429" cy="0.713632" rx="0.787429" ry="0.713632" transform="matrix(-0.992692 0.120675 0.120675 0.992692 86.7637 2.98511)" fill="#BABABA"/>
<ellipse id="Ellipse 43_2" cx="0.787429" cy="0.713632" rx="0.787429" ry="0.713632" transform="matrix(-0.992692 0.120675 0.120675 0.992692 84.417 4.77344)" fill="#BABABA"/>
<ellipse id="Ellipse 44_2" cx="0.467375" cy="0.423573" rx="0.467375" ry="0.423573" transform="matrix(-0.992692 0.120675 0.120675 0.992692 83.7363 3.43652)" fill="#BABABA"/>
<ellipse id="Ellipse 45_2" cx="0.467375" cy="0.423573" rx="0.467375" ry="0.423573" transform="matrix(-0.992692 0.120675 0.120675 0.992692 81.9463 2.63672)" fill="#BABABA"/>
<ellipse id="Ellipse 46_2" cx="0.467375" cy="0.423573" rx="0.467375" ry="0.423573" transform="matrix(-0.992692 0.120675 0.120675 0.992692 82.2725 4.68213)" fill="#BABABA"/>
<ellipse id="Ellipse 47_2" cx="0.467375" cy="0.423573" rx="0.467375" ry="0.423573" transform="matrix(-0.992692 0.120675 0.120675 0.992692 81.2314 4.05225)" fill="#BABABA"/>
<ellipse id="Ellipse 48_2" cx="0.467375" cy="0.423573" rx="0.467375" ry="0.423573" transform="matrix(-0.992692 0.120675 0.120675 0.992692 80.8916 5.55249)" fill="#BABABA"/>
<ellipse id="Ellipse 49_2" cx="0.247691" cy="0.224478" rx="0.247691" ry="0.224478" transform="matrix(-0.992692 0.120675 0.120675 0.992692 79.9824 4.95215)" fill="#BABABA"/>
<ellipse id="Ellipse 50_2" cx="0.247691" cy="0.224478" rx="0.247691" ry="0.224478" transform="matrix(-0.992692 0.120675 0.120675 0.992692 78.8926 6.28271)" fill="#BABABA"/>
<ellipse id="Ellipse 51_2" cx="0.247691" cy="0.224478" rx="0.247691" ry="0.224478" transform="matrix(-0.992692 0.120675 0.120675 0.992692 79.9326 6.9126)" fill="#BABABA"/>
<ellipse id="Ellipse 52_2" cx="0.247691" cy="0.224478" rx="0.247691" ry="0.224478" transform="matrix(-0.992692 0.120675 0.120675 0.992692 79.3027 7.95288)" fill="#BABABA"/>
<ellipse id="Ellipse 53_2" cx="0.247691" cy="0.224478" rx="0.247691" ry="0.224478" transform="matrix(-0.992692 0.120675 0.120675 0.992692 79.8828 8.87305)" fill="#BABABA"/>
<ellipse id="Ellipse 54_2" cx="0.247691" cy="0.224478" rx="0.247691" ry="0.224478" transform="matrix(-0.992692 0.120675 0.120675 0.992692 80.0879 9.70825)" fill="#BABABA"/>
<ellipse id="Ellipse 12_2" cx="0.592872" cy="0.355723" rx="0.592872" ry="0.355723" transform="matrix(-0.994166 -0.107857 -0.107857 0.994166 71.542 25.1235)" fill="#BABABA"/>
<ellipse id="Ellipse 15_2" cx="0.592872" cy="0.355723" rx="0.592872" ry="0.355723" transform="matrix(-0.865021 -0.501736 -0.501736 0.865021 71.2676 21.4807)" fill="#BABABA"/>
<ellipse id="Ellipse 10_2" cx="1.5759" cy="0.94554" rx="1.5759" ry="0.94554" transform="matrix(-0.910561 -0.413375 -0.413375 0.910561 72.0615 26.6826)" fill="#BABABA"/>
<ellipse id="Ellipse 13_2" cx="1.5759" cy="0.94554" rx="1.5759" ry="0.94554" transform="matrix(-0.998424 -0.0561264 -0.0561264 0.998424 71.1602 22.2766)" fill="#BABABA"/>
<path id="Vector 11_2" d="M74.8851 22.1347C71.4227 24.1898 72.2483 29.4243 73.0939 31.7846L77.9101 32.2839C75.9485 30.7881 73.7602 26.9274 80.6991 23.4515C87.638 19.9755 90.864 14.8437 91.6096 12.7122C92.222 10.8792 92.8026 5.52945 87.7071 2.95577C82.6115 0.382098 79.3428 3.03307 78.1454 5.12791C79.6636 2.77713 83.9088 0.399876 88.8428 5.77619C95.0103 12.4966 79.2131 19.5659 74.8851 22.1347Z" fill="#1B1D24"/>
</g>
</g>
<path id="Vector 13_2" d="M85.4843 2.86668C87.1385 3.14602 90.607 4.67209 91.2471 8.54164C90.7502 7.26302 88.9019 4.33797 85.4843 2.86668Z" fill="#6D738E"/>
</g>
</g>
<g id="Group 115">
<path id="Vector" d="M81.5333 65.8815C81.7894 61.95 67.4965 57.8184 49.6092 56.6533C31.7218 55.4882 17.0137 57.7308 16.7576 61.6622C16.5015 65.5937 30.7945 69.7253 48.6818 70.8904C66.5691 72.0555 81.2773 69.813 81.5333 65.8815Z" fill="#898D9E"/>
<path id="Vector_2" d="M64.4569 62.564C64.6223 60.0241 55.897 57.3629 44.6141 56.4094C34.5503 56.0972 25.9457 56.8984 21.0624 58.4669C20.541 58.8387 20.2478 59.2463 20.2191 59.6847C20.0444 62.3698 29.8056 65.1912 42.0217 65.9863C54.2378 66.7814 64.2823 65.2493 64.4569 62.564Z" fill="#4F5571"/>
<path id="Vector_3" d="M80.0302 17.6308C79.6255 15.9736 78.7223 14.4802 77.4424 13.352L65.9364 5.40886C64.413 4.06639 62.4521 3.32544 60.4215 3.32544L48.8213 3.79582C47.6917 3.79582 46.574 4.02535 45.5357 4.47022L33.3456 7.85793L17.1619 29.5099L16.1169 59.2582C15.9976 60.175 16.5868 61.0348 17.4847 61.2547L26.5854 64.021C27.2654 64.1876 27.9228 63.9496 28.3491 63.4901L40.6809 59.9276L53.8045 61.6038L53.347 65.0079C53.2047 66.1741 54.5047 66.2253 55.6717 66.0896L78.3515 63.398C79.2328 63.2954 79.9108 62.5706 79.9541 61.6842L84.7395 27.6284L80.0302 17.6308Z" fill="#2B3045"/>
<path id="Vector_4" d="M53.8045 61.6039L53.3469 65.0081C53.2622 65.7004 53.6232 65.8962 54.165 66.0427C54.5529 66.1476 54.967 66.1781 55.3659 66.1293L56.0751 66.0427L78.3514 63.3982C79.2327 63.2956 79.9108 62.5708 79.9541 61.6843L84.7395 27.6286L80.0303 17.631C79.6255 15.9737 78.7224 14.4803 77.4425 13.3522L65.9365 5.40901C64.4131 4.06639 62.4522 3.32544 60.4216 3.32544L48.8215 3.79582C47.692 3.79582 46.574 4.02535 45.5358 4.47022L33.3457 7.85793L27.04 16.3392L38.0155 22.6111L42.2489 38.604L40.681 59.9278L53.8045 61.6039Z" fill="#25293C"/>
<path id="Vector_5" d="M60.4215 3.32544L48.8213 3.79582C47.6917 3.79582 46.574 4.02535 45.5357 4.47022L33.3456 7.85793L17.1619 29.5099L16.1169 59.2582C15.9976 60.175 16.5868 61.0348 17.4847 61.2547L26.5854 64.021C27.802 64.3189 28.9473 63.3241 28.8226 62.0779L28.229 43.5971C27.9652 40.9597 28.521 42.6951 29.8204 40.385L31.6325 33.8186C33.3121 30.8328 36.6293 29.1579 40.0293 29.5793L48.7061 30.655C51.5293 31.0049 53.8546 33.0392 54.577 35.7908L56.6736 43.778L53.3468 65.0079C53.1956 66.172 54.4937 66.2229 55.6715 66.0896L78.3513 63.398C79.2326 63.2954 79.9107 62.5706 79.954 61.6843L84.7394 27.6284L80.0302 17.6308C79.6255 15.9736 78.7223 14.4802 77.4424 13.352L65.9364 5.40886C64.413 4.06639 62.4521 3.32544 60.4215 3.32544Z" fill="#4F5571"/>
<path id="Vector_6" d="M30.1754 21.5136L33.3452 7.85815L18.4961 27.767L30.1754 21.5136Z" fill="#898D9E"/>
<g id="Group">
<path id="Vector_7" d="M16.1169 59.2581C15.9976 60.1749 16.5868 61.0348 17.4847 61.2546L25.6287 63.7301V41.4261L27.8238 36.2519L30.1757 21.5134L18.4964 27.7669L17.1617 29.5098L16.1169 59.2581Z" fill="#3C4157"/>
<path id="Vector_8" d="M33.3456 7.85798L30.1758 21.5134L38.0154 18.2208L46.7958 19.7887L54.6354 13.0465L44.7213 4.71851L33.3456 7.85798Z" fill="#4F5571"/>
</g>
<path id="Vector_9" d="M79.9015 17.1707C79.948 17.3228 79.9917 17.4758 80.0296 17.631C79.6249 15.9737 78.7217 14.4803 77.4419 13.3522L65.9358 5.40901C64.4124 4.06639 62.4515 3.32544 60.4209 3.32544L48.8207 3.79582C47.6912 3.79582 46.5734 4.02535 45.5351 4.47022L44.7207 4.71861L54.6348 13.0467L61.0635 21.5135L79.9015 17.1707Z" fill="#898D9E"/>
<path id="Vector_10" d="M27.8232 36.2521L30.8023 30.4508L36.4467 27.3149H45.8544L46.7951 19.7889L38.0147 18.2209L30.1751 21.5136L27.8232 36.2521Z" fill="#898D9E"/>
<path id="Vector_11" d="M61.0634 21.5134L54.6347 13.0466L49.5739 17.3991L46.7951 19.7889L45.8545 27.3149L50.8213 29.3061C52.8193 30.1071 54.4417 31.6325 55.3642 33.5775L55.8892 34.6841L58.5547 30.2939L59.4422 27.1877L61.0634 21.5134Z" fill="#3C4157"/>
<path id="Vector_12" d="M55.8896 34.6841L56.6736 43.7782L62.0046 39.3879L58.5551 30.2939L55.8896 34.6841Z" fill="#898D9E"/>
<path id="Vector_13" d="M56.6738 43.7781L53.347 65.008C53.1958 66.1721 54.4939 66.223 55.6717 66.0897L55.9296 66.0591L62.0047 39.3879L56.6738 43.7781Z" fill="#898D9E"/>
<path id="Vector_14" d="M79.9633 17.3916L79.2514 26.6878L71.5685 33.7434L70.3141 38.6041L68.4326 50.5204L72.4741 64.0958L78.3508 63.3983C79.2321 63.2957 79.9101 62.5709 79.9535 61.6845L84.7389 27.6287L80.0297 17.6311C80.0101 17.5504 79.9856 17.4714 79.9633 17.3916Z" fill="#3C4157"/>
<path id="Vector_15" d="M68.3818 51.0832L67.5535 51.51C66.5572 52.0231 65.7799 52.879 65.3647 53.9201L64.358 56.444C63.913 57.5602 63.9172 58.8051 64.3703 59.9181L66.2991 64.6578C67.0431 66.4857 68.8605 67.6445 70.8316 67.5479L81.1558 67.0424C82.6212 66.9707 83.9667 66.2114 84.7856 64.994L85.7188 63.6065C87.2745 61.2936 86.4584 58.141 83.9759 56.8731L72.6246 51.0757C71.2916 50.3951 69.7124 50.3977 68.3818 51.0832Z" fill="#5C627F"/>
<path id="Vector_16" d="M70.942 62.1796L81.2663 61.6741C82.7318 61.6023 84.0771 60.8429 84.8959 59.6257L85.7128 58.411C85.2889 57.782 84.7046 57.2457 83.975 56.8731L72.6236 51.0757C71.2906 50.395 69.7114 50.3977 68.3808 51.0833L67.5525 51.5101C66.5562 52.0231 65.7789 52.8791 65.3637 53.9202L64.7998 55.334L66.4097 59.2893C67.1537 61.1172 68.9709 62.2761 70.942 62.1796Z" fill="#898D9E"/>
<path id="Vector_17" d="M61.6712 60.4843L57.8043 61.1287C57.2111 61.2277 56.6869 61.5717 56.3602 62.0767L54.9148 64.3105C54.2627 65.3185 54.5672 66.6653 55.5896 67.2943L58.2115 68.9076C58.8845 69.3219 59.7311 69.3312 60.4132 68.9319L63.7686 66.9677C64.597 66.4827 65.0011 65.5054 64.7568 64.5772L64.0917 62.0498C63.8774 61.2355 63.2053 60.6225 62.3747 60.4841C62.1417 60.4454 61.904 60.4454 61.6712 60.4843Z" fill="#5C627F"/>
<path id="Vector_18" d="M62.3376 63.6777C63.166 63.1928 63.57 62.2155 63.3257 61.2871L63.2 60.8094C62.9548 60.6476 62.675 60.5344 62.3741 60.4842C62.1412 60.4454 61.9035 60.4454 61.6707 60.4842L57.8039 61.1287C57.2106 61.2277 56.6864 61.5717 56.3597 62.0767L54.9143 64.3106C54.8895 64.3489 54.8687 64.3886 54.8467 64.4277L56.7804 65.6177C57.4534 66.0318 58.3 66.0413 58.9821 65.642L62.3376 63.6777Z" fill="#898D9E"/>
<path id="Vector_19" d="M17.0044 57.2092L15.0525 58.5827C14.5766 58.9176 14.2557 59.4302 14.1626 60.0049L13.9073 61.5798C13.6941 62.8949 14.7092 64.088 16.0416 64.088H19.6057C20.2576 64.088 20.8747 63.7939 21.2851 63.2876L22.7931 61.4278C23.7206 60.2841 23.2581 58.5681 21.8817 58.0449L19.0169 56.9563C18.3455 56.7011 17.5915 56.796 17.0044 57.2092Z" fill="#5C627F"/>
<path id="Vector_20" d="M21.8821 58.0448L19.0172 56.9562C18.3462 56.7012 17.5922 56.7959 17.0049 57.2093L15.0531 58.5828C14.5771 58.9177 14.2563 59.4303 14.1632 60.005L14.127 60.2286C14.4857 60.9109 15.2004 61.3874 16.042 61.3874H19.6061C20.258 61.3874 20.8751 61.0935 21.2855 60.587L22.7935 58.7272C22.7967 58.7232 22.7997 58.7186 22.803 58.7146C22.5723 58.4251 22.2622 58.1894 21.8821 58.0448Z" fill="#898D9E"/>
</g>
<g id="Group 116">
<g id="B1_3">
<path id="Vector 6_3" d="M53.5139 32.2598C55.9983 35.6484 55.8252 39.4291 55.428 40.8959C54.1697 40.8465 52.4464 38.9962 48.6703 40.621C45.9281 41.8009 41.6775 56.5299 33.644 56.3602C25.5305 56.1889 24.3064 44.4453 28.8335 42.6541C32.4552 41.2211 34.249 43.686 34.6932 45.0977C32.3376 43.2562 27.2058 44.1966 29.748 48.5573C34.2712 53.8576 38.0716 46.1216 41.0164 38.969C43.9613 31.8165 53.2846 32.1136 53.5139 32.2598Z" fill="#898D9E"/>
<g id="Mask group_3">
<mask id="mask2_45_25631" style="mask-type:alpha" maskUnits="userSpaceOnUse" x="26" y="32" width="30" height="25">
<path id="Vector 12_3" d="M53.5139 32.2595C55.9983 35.6482 55.8252 39.4289 55.428 40.8956C54.1697 40.8463 52.4464 38.9959 48.6703 40.6208C45.9281 41.8007 41.6775 56.5296 33.644 56.36C25.5305 56.1886 24.3064 44.4451 28.8335 42.6538C32.4552 41.2208 34.249 43.6858 34.6932 45.0974C32.3376 43.2559 27.2058 44.1964 29.748 48.5571C34.2712 53.8574 38.0716 46.1213 41.0164 38.9688C43.9613 31.8162 53.2846 32.1134 53.5139 32.2595Z" fill="#5C2095"/>
</mask>
<g mask="url(#mask2_45_25631)">
<ellipse id="Ellipse 9_3" cx="52.0451" cy="32.9709" rx="0.961492" ry="0.576895" transform="rotate(-114.153 52.0451 32.9709)" fill="#BABABA"/>
<ellipse id="Ellipse 11_3" cx="48.7567" cy="33.6386" rx="0.961492" ry="0.576895" transform="rotate(-95.9276 48.7567 33.6386)" fill="#BABABA"/>
<ellipse id="Ellipse 14_3" cx="46.3358" cy="36.9328" rx="0.961492" ry="0.576895" transform="rotate(-95.9276 46.3358 36.9328)" fill="#BABABA"/>
<ellipse id="Ellipse 16_3" cx="44.0801" cy="36.1505" rx="0.961492" ry="0.576895" transform="rotate(-130.183 44.0801 36.1505)" fill="#BABABA"/>
<ellipse id="Ellipse 17_3" cx="44.3643" cy="39.1592" rx="1.35859" ry="0.815154" transform="rotate(-130.183 44.3643 39.1592)" fill="#BABABA"/>
<ellipse id="Ellipse 18_3" cx="41.5252" cy="38.8247" rx="1.25704" ry="0.754221" transform="rotate(-112.505 41.5252 38.8247)" fill="#BABABA"/>
<ellipse id="Ellipse 19_3" cx="42.7012" cy="42.2409" rx="0.785915" ry="0.471549" transform="rotate(-112.505 42.7012 42.2409)" fill="#BABABA"/>
<ellipse id="Ellipse 23_3" cx="41.6339" cy="42.5909" rx="0.330951" ry="0.198571" transform="rotate(-112.505 41.6339 42.5909)" fill="#BABABA"/>
<ellipse id="Ellipse 24_3" cx="40.591" cy="43.2161" rx="0.330951" ry="0.198571" transform="rotate(-112.505 40.591 43.2161)" fill="#BABABA"/>
<ellipse id="Ellipse 25_3" cx="43.4708" cy="40.2142" rx="0.330951" ry="0.198571" transform="rotate(-112.505 43.4708 40.2142)" fill="#BABABA"/>
<ellipse id="Ellipse 26_3" cx="41.5939" cy="40.6302" rx="0.330951" ry="0.198571" transform="rotate(-112.505 41.5939 40.6302)" fill="#BABABA"/>
<ellipse id="Ellipse 20_3" cx="40.1983" cy="41.6137" rx="0.785915" ry="0.471549" transform="rotate(-112.505 40.1983 41.6137)" fill="#BABABA"/>
<ellipse id="Ellipse 21_3" cx="41.6777" cy="44.4065" rx="0.785915" ry="0.471549" transform="rotate(-118.648 41.6777 44.4065)" fill="#BABABA"/>
<ellipse id="Ellipse 22_3" cx="38.9463" cy="43.9223" rx="1.38835" ry="0.833009" transform="rotate(-118.648 38.9463 43.9223)" fill="#BABABA"/>
<ellipse id="Ellipse 29_3" cx="37.1236" cy="46.6108" rx="1.38835" ry="0.833009" transform="rotate(-107.941 37.1236 46.6108)" fill="#BABABA"/>
<ellipse id="Ellipse 32_3" cx="34.8922" cy="49.103" rx="1.38835" ry="0.833009" transform="rotate(-107.941 34.8922 49.103)" fill="#BABABA"/>
<ellipse id="Ellipse 38_3" cx="32.9884" cy="50.0766" rx="1.12646" ry="0.675875" transform="rotate(-107.941 32.9884 50.0766)" fill="#BABABA"/>
<ellipse id="Ellipse 39_3" cx="31.1401" cy="49.8508" rx="1.12646" ry="0.675875" transform="rotate(-74.2326 31.1401 49.8508)" fill="#BABABA"/>
<ellipse id="Ellipse 40_3" cx="29.8452" cy="52.8952" rx="1.12646" ry="0.675875" transform="rotate(-74.2326 29.8452 52.8952)" fill="#BABABA"/>
<ellipse id="Ellipse 27_3" cx="40.8213" cy="47.0522" rx="1.38835" ry="0.833009" transform="rotate(-118.648 40.8213 47.0522)" fill="#BABABA"/>
<ellipse id="Ellipse 30_3" cx="38.3854" cy="50.0344" rx="1.38835" ry="0.833009" transform="rotate(-107.941 38.3854 50.0344)" fill="#BABABA"/>
<ellipse id="Ellipse 33_3" cx="36.1529" cy="52.5266" rx="1.38835" ry="0.833009" transform="rotate(-107.941 36.1529 52.5266)" fill="#BABABA"/>
<ellipse id="Ellipse 36_3" cx="33.2435" cy="53.4357" rx="1.38835" ry="0.833009" transform="rotate(-82.8047 33.2435 53.4357)" fill="#BABABA"/>
<ellipse id="Ellipse 28_3" cx="38.6721" cy="46.1883" rx="0.501944" ry="0.301166" transform="rotate(-118.648 38.6721 46.1883)" fill="#BABABA"/>
<ellipse id="Ellipse 31_3" cx="36.4346" cy="48.7866" rx="0.501944" ry="0.301166" transform="rotate(-107.941 36.4346 48.7866)" fill="#BABABA"/>
<ellipse id="Ellipse 34_3" cx="36.4298" cy="50.6633" rx="0.501944" ry="0.301166" transform="rotate(-107.941 36.4298 50.6633)" fill="#BABABA"/>
<ellipse id="Ellipse 35_3" cx="34.6348" cy="51.4551" rx="0.501944" ry="0.301166" transform="rotate(-107.941 34.6348 51.4551)" fill="#BABABA"/>
<ellipse id="Ellipse 37_3" cx="32.3246" cy="51.8207" rx="0.501944" ry="0.301166" transform="rotate(-82.8047 32.3246 51.8207)" fill="#BABABA"/>
<ellipse id="Ellipse 41_3" cx="29.6441" cy="50.8856" rx="0.501944" ry="0.454902" transform="rotate(-82.8047 29.6441 50.8856)" fill="#BABABA"/>
<ellipse id="Ellipse 42_3" cx="27.5996" cy="50.5506" rx="0.787429" ry="0.713632" transform="rotate(-82.8047 27.5996 50.5506)" fill="#BABABA"/>
<ellipse id="Ellipse 43_3" cx="29.3994" cy="48.2117" rx="0.787429" ry="0.713632" transform="rotate(-82.8047 29.3994 48.2117)" fill="#BABABA"/>
<ellipse id="Ellipse 44_3" cx="27.7376" cy="47.8069" rx="0.467374" ry="0.423573" transform="rotate(-82.8047 27.7376 47.8069)" fill="#BABABA"/>
<ellipse id="Ellipse 45_3" cx="26.9456" cy="46.0127" rx="0.467374" ry="0.423573" transform="rotate(-82.8047 26.9456 46.0127)" fill="#BABABA"/>
<ellipse id="Ellipse 46_3" cx="28.9905" cy="46.3477" rx="0.467374" ry="0.423573" transform="rotate(-82.8047 28.9905 46.3477)" fill="#BABABA"/>
<ellipse id="Ellipse 47_3" cx="28.3645" cy="45.3044" rx="0.467374" ry="0.423573" transform="rotate(-82.8047 28.3645 45.3044)" fill="#BABABA"/>
<ellipse id="Ellipse 48_3" cx="29.8665" cy="44.9714" rx="0.467374" ry="0.423573" transform="rotate(-82.8047 29.8665 44.9714)" fill="#BABABA"/>
<ellipse id="Ellipse 49_3" cx="29.0457" cy="44.2521" rx="0.247691" ry="0.224478" transform="rotate(-82.8047 29.0457 44.2521)" fill="#BABABA"/>
<ellipse id="Ellipse 50_3" cx="30.3807" cy="43.1684" rx="0.247691" ry="0.224478" transform="rotate(-82.8047 30.3807 43.1684)" fill="#BABABA"/>
<ellipse id="Ellipse 51_3" cx="31.0057" cy="44.2116" rx="0.247691" ry="0.224478" transform="rotate(-82.8047 31.0057 44.2116)" fill="#BABABA"/>
<ellipse id="Ellipse 52_3" cx="32.0496" cy="43.5863" rx="0.247691" ry="0.224478" transform="rotate(-82.8047 32.0496 43.5863)" fill="#BABABA"/>
<ellipse id="Ellipse 53_3" cx="32.9666" cy="44.1708" rx="0.247691" ry="0.224478" transform="rotate(-82.8047 32.9666 44.1708)" fill="#BABABA"/>
<ellipse id="Ellipse 54_3" cx="33.8006" cy="44.3798" rx="0.247691" ry="0.224478" transform="rotate(-82.8047 33.8006 44.3798)" fill="#BABABA"/>
<ellipse id="Ellipse 12_3" cx="49.2945" cy="35.4961" rx="0.592872" ry="0.355723" transform="rotate(-95.9276 49.2945 35.4961)" fill="#BABABA"/>
<ellipse id="Ellipse 15_3" cx="45.3738" cy="35.14" rx="0.592872" ry="0.355723" transform="rotate(-119.851 45.3738 35.14)" fill="#BABABA"/>
<ellipse id="Ellipse 10_3" cx="50.7765" cy="34.8241" rx="1.5759" ry="0.94554" transform="rotate(-114.153 50.7765 34.8241)" fill="#BABABA"/>
<ellipse id="Ellipse 13_3" cx="47.0203" cy="34.1053" rx="1.5759" ry="0.94554" transform="rotate(-92.9533 47.0203 34.1053)" fill="#BABABA"/>
<path id="Vector 11_3" d="M45.9968 39.4526C48.0678 35.9997 53.2985 36.8494 55.6549 37.7059L56.132 42.5243C54.6452 40.5559 50.7947 38.3498 47.2868 45.2726C43.7789 52.1954 38.6322 55.3977 36.4973 56.1335C34.6615 56.7373 29.3091 57.2933 26.759 52.186C24.2088 47.0786 26.8749 43.8221 28.9752 42.6344C26.6174 44.1418 24.2206 48.3759 29.5741 53.3347C36.266 59.5331 43.4081 43.7687 45.9968 39.4526Z" fill="#1B1D24"/>
</g>
</g>
<path id="Vector 13_3" d="M26.6804 49.962C26.9522 51.6175 28.4622 55.093 32.3288 55.7509C31.0525 55.2481 28.136 53.3864 26.6804 49.962Z" fill="#6D738E"/>
</g>
</g>
</g>
</svg>
