<svg width="122" height="95" viewBox="0 0 122 95" fill="none" xmlns="http://www.w3.org/2000/svg">
<g id="Group 119">
<g id="Group 117">
<g id="B1">
<path id="Vector 6" d="M33.3337 59.544C28.9387 62.7974 24.0177 62.5948 22.1065 62.0868C22.1632 60.4489 24.5608 58.1953 22.4237 53.2909C20.8717 49.7294 1.67859 44.2862 1.85115 33.8308C2.02544 23.2712 17.3007 21.6078 19.6589 27.4884C21.5455 32.1929 18.3484 34.542 16.5141 35.1286C18.8964 32.0521 17.6417 25.3794 11.9822 28.7139C5.1117 34.6319 15.2019 39.5312 24.5276 43.3206C33.8533 47.1101 33.5225 59.2447 33.3337 59.544Z" fill="#5C2095"/>
<g id="Mask group">
<mask id="mask0_45_25443" style="mask-type:alpha" maskUnits="userSpaceOnUse" x="1" y="24" width="33" height="39">
<path id="Vector 12" d="M33.3337 59.5438C28.9387 62.7971 24.0177 62.5945 22.1065 62.0866C22.1632 60.4486 24.5608 58.195 22.4237 53.2907C20.8717 49.7292 1.67859 44.286 1.85115 33.8306C2.02544 23.271 17.3007 21.6075 19.6589 27.4881C21.5455 32.1926 18.3484 34.5418 16.5141 35.1283C18.8964 32.0519 17.6417 25.3791 11.9822 28.7136C5.1117 34.6317 15.2019 39.5309 24.5276 43.3204C33.8533 47.1098 33.5225 59.2444 33.3337 59.5438Z" fill="#5C2095"/>
</mask>
<g mask="url(#mask0_45_25443)">
<ellipse id="Ellipse 9" cx="32.3989" cy="57.6371" rx="1.25126" ry="0.750754" transform="rotate(-24.417 32.3989 57.6371)" fill="#954A83"/>
<ellipse id="Ellipse 11" cx="31.5105" cy="53.3617" rx="1.25126" ry="0.750754" transform="rotate(-6.19179 31.5105 53.3617)" fill="#954A83"/>
<ellipse id="Ellipse 14" cx="27.2087" cy="50.2303" rx="1.25126" ry="0.750754" transform="rotate(-6.19179 27.2087 50.2303)" fill="#954A83"/>
<ellipse id="Ellipse 16" cx="28.2137" cy="47.2901" rx="1.25126" ry="0.750754" transform="rotate(-40.4474 28.2137 47.2901)" fill="#954A83"/>
<ellipse id="Ellipse 17" cx="24.3003" cy="47.6779" rx="1.76803" ry="1.06082" transform="rotate(-40.4474 24.3003 47.6779)" fill="#954A83"/>
<ellipse id="Ellipse 18" cx="24.7183" cy="43.9812" rx="1.63587" ry="0.981521" transform="rotate(-22.7689 24.7183 43.9812)" fill="#954A83"/>
<ellipse id="Ellipse 19" cx="20.2792" cy="45.5321" rx="1.02277" ry="0.61366" transform="rotate(-22.7689 20.2792 45.5321)" fill="#954A83"/>
<ellipse id="Ellipse 23" cx="19.8174" cy="44.1461" rx="0.43069" ry="0.258414" transform="rotate(-22.7689 19.8174 44.1461)" fill="#954A83"/>
<ellipse id="Ellipse 24" cx="18.9971" cy="42.7923" rx="0.43069" ry="0.258414" transform="rotate(-22.7689 18.9971 42.7923)" fill="#954A83"/>
<ellipse id="Ellipse 25" cx="22.9219" cy="46.522" rx="0.43069" ry="0.258414" transform="rotate(-22.7689 22.9219 46.522)" fill="#954A83"/>
<ellipse id="Ellipse 26" cx="22.3692" cy="44.0814" rx="0.43069" ry="0.258414" transform="rotate(-22.7689 22.3692 44.0814)" fill="#954A83"/>
<ellipse id="Ellipse 20" cx="21.081" cy="42.2716" rx="1.02277" ry="0.61366" transform="rotate(-22.7689 21.081 42.2716)" fill="#954A83"/>
<ellipse id="Ellipse 21" cx="17.4547" cy="44.2131" rx="1.02277" ry="0.61366" transform="rotate(-28.912 17.4547 44.2131)" fill="#954A83"/>
<ellipse id="Ellipse 22" cx="18.0686" cy="40.6558" rx="1.80675" ry="1.08405" transform="rotate(-28.912 18.0686 40.6558)" fill="#954A83"/>
<ellipse id="Ellipse 29" cx="14.5589" cy="38.3008" rx="1.80675" ry="1.08405" transform="rotate(-18.2047 14.5589 38.3008)" fill="#954A83"/>
<ellipse id="Ellipse 32" cx="11.303" cy="35.4111" rx="1.80675" ry="1.08405" transform="rotate(-18.2047 11.303 35.4111)" fill="#954A83"/>
<ellipse id="Ellipse 38" cx="10.0238" cy="32.9396" rx="1.46594" ry="0.879564" transform="rotate(-18.2047 10.0238 32.9396)" fill="#954A83"/>
<ellipse id="Ellipse 39" cx="10.3064" cy="30.5336" rx="1.46594" ry="0.879564" transform="rotate(15.5032 10.3064 30.5336)" fill="#954A83"/>
<ellipse id="Ellipse 40" cx="6.33668" cy="28.8668" rx="1.46594" ry="0.879564" transform="rotate(15.5032 6.33668 28.8668)" fill="#954A83"/>
<ellipse id="Ellipse 27" cx="14.007" cy="43.115" rx="1.80675" ry="1.08405" transform="rotate(-28.912 14.007 43.115)" fill="#954A83"/>
<ellipse id="Ellipse 30" cx="10.1116" cy="39.9627" rx="1.80675" ry="1.08405" transform="rotate(-18.2047 10.1116 39.9627)" fill="#954A83"/>
<ellipse id="Ellipse 33" cx="6.8548" cy="37.073" rx="1.80675" ry="1.08405" transform="rotate(-18.2047 6.8548 37.073)" fill="#954A83"/>
<ellipse id="Ellipse 36" cx="5.65394" cy="33.2915" rx="1.80675" ry="1.08405" transform="rotate(6.93109 5.65394 33.2915)" fill="#954A83"/>
<ellipse id="Ellipse 28" cx="15.1177" cy="40.3132" rx="0.653215" ry="0.391929" transform="rotate(-28.912 15.1177 40.3132)" fill="#954A83"/>
<ellipse id="Ellipse 31" cx="11.7234" cy="37.416" rx="0.653215" ry="0.391929" transform="rotate(-18.2047 11.7234 37.416)" fill="#954A83"/>
<ellipse id="Ellipse 34" cx="9.28105" cy="37.4212" rx="0.653215" ry="0.391929" transform="rotate(-18.2047 9.28105 37.4212)" fill="#954A83"/>
<ellipse id="Ellipse 35" cx="8.24003" cy="35.0908" rx="0.653215" ry="0.391929" transform="rotate(-18.2047 8.24003 35.0908)" fill="#954A83"/>
<ellipse id="Ellipse 37" cx="7.75056" cy="32.0856" rx="0.653215" ry="0.391929" transform="rotate(6.93109 7.75056 32.0856)" fill="#954A83"/>
<ellipse id="Ellipse 41" cx="8.95103" cy="28.5923" rx="0.653215" ry="0.591996" transform="rotate(6.93109 8.95103 28.5923)" fill="#954A83"/>
<ellipse id="Ellipse 42" cx="9.3749" cy="25.9303" rx="1.02474" ry="0.928699" transform="rotate(6.93109 9.3749 25.9303)" fill="#954A83"/>
<ellipse id="Ellipse 43" cx="12.4296" cy="28.2577" rx="1.02474" ry="0.928699" transform="rotate(6.93109 12.4296 28.2577)" fill="#954A83"/>
<ellipse id="Ellipse 44" cx="12.9464" cy="26.093" rx="0.608227" ry="0.551225" transform="rotate(6.93109 12.9464 26.093)" fill="#954A83"/>
<ellipse id="Ellipse 45" cx="15.2765" cy="25.052" rx="0.608227" ry="0.551225" transform="rotate(6.93109 15.2765 25.052)" fill="#954A83"/>
<ellipse id="Ellipse 46" cx="14.8527" cy="27.7139" rx="0.608227" ry="0.551225" transform="rotate(6.93109 14.8527 27.7139)" fill="#954A83"/>
<ellipse id="Ellipse 47" cx="16.2072" cy="26.894" rx="0.608227" ry="0.551225" transform="rotate(6.93109 16.2072 26.894)" fill="#954A83"/>
<ellipse id="Ellipse 48" cx="16.6486" cy="28.8467" rx="0.608227" ry="0.551225" transform="rotate(6.93109 16.6486 28.8467)" fill="#954A83"/>
<ellipse id="Ellipse 49" cx="17.5806" cy="27.7737" rx="0.322338" ry="0.292129" transform="rotate(6.93109 17.5806 27.7737)" fill="#954A83"/>
<ellipse id="Ellipse 50" cx="18.9986" cy="29.5052" rx="0.322338" ry="0.292129" transform="rotate(6.93109 18.9986 29.5052)" fill="#954A83"/>
<ellipse id="Ellipse 51" cx="17.6451" cy="30.325" rx="0.322338" ry="0.292129" transform="rotate(6.93109 17.6451 30.325)" fill="#954A83"/>
<ellipse id="Ellipse 52" cx="18.4644" cy="31.6787" rx="0.322338" ry="0.292129" transform="rotate(6.93109 18.4644 31.6787)" fill="#954A83"/>
<ellipse id="Ellipse 53" cx="17.7095" cy="32.876" rx="0.322338" ry="0.292129" transform="rotate(6.93109 17.7095 32.876)" fill="#954A83"/>
<ellipse id="Ellipse 54" cx="17.442" cy="33.9629" rx="0.322338" ry="0.292129" transform="rotate(6.93109 17.442 33.9629)" fill="#954A83"/>
<ellipse id="Ellipse 12" cx="29.0963" cy="54.0721" rx="0.771546" ry="0.462927" transform="rotate(-6.19179 29.0963 54.0721)" fill="#954A83"/>
<ellipse id="Ellipse 15" cx="29.5364" cy="48.9677" rx="0.771546" ry="0.462927" transform="rotate(-30.1149 29.5364 48.9677)" fill="#954A83"/>
<ellipse id="Ellipse 10" cx="29.9796" cy="55.9968" rx="2.05083" ry="1.2305" transform="rotate(-24.417 29.9796 55.9968)" fill="#954A83"/>
<ellipse id="Ellipse 13" cx="30.893" cy="51.1037" rx="2.05083" ry="1.2305" transform="rotate(-3.21749 30.893 51.1037)" fill="#954A83"/>
<path id="Vector 11" d="M23.9279 49.8053C28.4338 52.4797 27.3594 59.2917 26.259 62.3634L19.9914 63.0131C22.5441 61.0665 25.3919 56.0424 16.3618 51.5189C7.3317 46.9954 3.13351 40.3169 2.16317 37.5432C1.36632 35.1577 0.610626 28.1957 7.24184 24.8464C13.873 21.4971 18.1269 24.947 19.6852 27.6732C17.7093 24.6139 12.1848 21.5202 5.76382 28.5168C-2.2624 37.2625 18.2956 46.4623 23.9279 49.8053Z" fill="#4F227A"/>
</g>
</g>
<path id="Vector 13" d="M10.1349 24.7307C7.98211 25.0942 3.46834 27.0802 2.63531 32.1159C3.282 30.4519 5.68728 26.6454 10.1349 24.7307Z" fill="#7330B3"/>
</g>
</g>
<g id="Group 118">
<g id="B1_2">
<path id="Vector 6_2" d="M87.9866 38.544C92.3816 41.7974 97.3027 41.5948 99.2138 41.0868C99.1571 39.4489 96.7595 37.1953 98.8967 32.2909C100.449 28.7294 119.642 23.2862 119.469 12.8308C119.295 2.27123 104.02 0.607752 101.661 6.48839C99.7748 11.1929 102.972 13.542 104.806 14.1286C102.424 11.0521 103.679 4.37935 109.338 7.71387C116.209 13.6319 106.118 18.5312 96.7927 22.3206C87.4671 26.1101 87.7978 38.2447 87.9866 38.544Z" fill="#5C2095"/>
<g id="Mask group_2">
<mask id="mask1_45_25443" style="mask-type:alpha" maskUnits="userSpaceOnUse" x="87" y="3" width="33" height="39">
<path id="Vector 12_2" d="M87.9866 38.5438C92.3816 41.7971 97.3027 41.5945 99.2138 41.0866C99.1571 39.4486 96.7595 37.195 98.8967 32.2907C100.449 28.7292 119.642 23.286 119.469 12.8306C119.295 2.27098 104.02 0.607508 101.661 6.48814C99.7748 11.1926 102.972 13.5418 104.806 14.1283C102.424 11.0519 103.679 4.37911 109.338 7.71362C116.209 13.6317 106.118 18.5309 96.7927 22.3204C87.4671 26.1098 87.7978 38.2444 87.9866 38.5438Z" fill="#5C2095"/>
</mask>
<g mask="url(#mask1_45_25443)">
<ellipse id="Ellipse 9_2" cx="1.25126" cy="0.750754" rx="1.25126" ry="0.750754" transform="matrix(-0.910561 -0.413375 -0.413375 0.910561 90.3711 36.4707)" fill="#954A83"/>
<ellipse id="Ellipse 11_2" cx="1.25126" cy="0.750754" rx="1.25126" ry="0.750754" transform="matrix(-0.994166 -0.107857 -0.107857 0.994166 91.1348 31.7502)" fill="#954A83"/>
<ellipse id="Ellipse 14_2" cx="1.25126" cy="0.750754" rx="1.25126" ry="0.750754" transform="matrix(-0.994166 -0.107857 -0.107857 0.994166 95.4365 28.6189)" fill="#954A83"/>
<ellipse id="Ellipse 16_2" cx="1.25126" cy="0.750754" rx="1.25126" ry="0.750754" transform="matrix(-0.761002 -0.64875 -0.64875 0.761002 94.5459 26.5305)" fill="#954A83"/>
<ellipse id="Ellipse 17_2" cx="1.76803" cy="1.06082" rx="1.76803" ry="1.06082" transform="matrix(-0.761002 -0.64875 -0.64875 0.761002 99.0537 27.0176)" fill="#954A83"/>
<ellipse id="Ellipse 18_2" cx="1.63587" cy="0.981521" rx="1.63587" ry="0.981521" transform="matrix(-0.922073 -0.387016 -0.387016 0.922073 98.4902 22.7092)" fill="#954A83"/>
<ellipse id="Ellipse 19_2" cx="1.02277" cy="0.61366" rx="1.02277" ry="0.61366" transform="matrix(-0.922073 -0.387016 -0.387016 0.922073 102.222 24.3621)" fill="#954A83"/>
<ellipse id="Ellipse 23_2" cx="0.43069" cy="0.258414" rx="0.43069" ry="0.258414" transform="matrix(-0.922073 -0.387016 -0.387016 0.922073 102 23.0745)" fill="#954A83"/>
<ellipse id="Ellipse 24_2" cx="0.43069" cy="0.258414" rx="0.43069" ry="0.258414" transform="matrix(-0.922073 -0.387016 -0.387016 0.922073 102.82 21.7207)" fill="#954A83"/>
<ellipse id="Ellipse 25_2" cx="0.43069" cy="0.258414" rx="0.43069" ry="0.258414" transform="matrix(-0.922073 -0.387016 -0.387016 0.922073 98.8955 25.4504)" fill="#954A83"/>
<ellipse id="Ellipse 26_2" cx="0.43069" cy="0.258414" rx="0.43069" ry="0.258414" transform="matrix(-0.922073 -0.387016 -0.387016 0.922073 99.4482 23.0098)" fill="#954A83"/>
<ellipse id="Ellipse 20_2" cx="1.02277" cy="0.61366" rx="1.02277" ry="0.61366" transform="matrix(-0.922073 -0.387016 -0.387016 0.922073 101.42 21.1016)" fill="#954A83"/>
<ellipse id="Ellipse 21_2" cx="1.02277" cy="0.61366" rx="1.02277" ry="0.61366" transform="matrix(-0.875363 -0.483466 -0.483466 0.875363 105.058 23.1704)" fill="#954A83"/>
<ellipse id="Ellipse 22_2" cx="1.80675" cy="1.08405" rx="1.80675" ry="1.08405" transform="matrix(-0.875363 -0.483466 -0.483466 0.875363 105.357 19.5803)" fill="#954A83"/>
<ellipse id="Ellipse 29_2" cx="1.80675" cy="1.08405" rx="1.80675" ry="1.08405" transform="matrix(-0.949946 -0.312413 -0.312413 0.949946 108.816 16.8354)" fill="#954A83"/>
<ellipse id="Ellipse 32_2" cx="1.80675" cy="1.08405" rx="1.80675" ry="1.08405" transform="matrix(-0.949946 -0.312413 -0.312413 0.949946 112.072 13.9458)" fill="#954A83"/>
<ellipse id="Ellipse 38_2" cx="1.46594" cy="0.879564" rx="1.46594" ry="0.879564" transform="matrix(-0.949946 -0.312413 -0.312413 0.949946 112.964 11.562)" fill="#954A83"/>
<ellipse id="Ellipse 39_2" cx="1.46594" cy="0.879564" rx="1.46594" ry="0.879564" transform="matrix(-0.963615 0.267293 0.267293 0.963615 112.191 8.29419)" fill="#954A83"/>
<ellipse id="Ellipse 40_2" cx="1.46594" cy="0.879564" rx="1.46594" ry="0.879564" transform="matrix(-0.963615 0.267293 0.267293 0.963615 116.161 6.62744)" fill="#954A83"/>
<ellipse id="Ellipse 27_2" cx="1.80675" cy="1.08405" rx="1.80675" ry="1.08405" transform="matrix(-0.875363 -0.483466 -0.483466 0.875363 109.419 22.0396)" fill="#954A83"/>
<ellipse id="Ellipse 30_2" cx="1.80675" cy="1.08405" rx="1.80675" ry="1.08405" transform="matrix(-0.949946 -0.312413 -0.312413 0.949946 113.264 18.4973)" fill="#954A83"/>
<ellipse id="Ellipse 33_2" cx="1.80675" cy="1.08405" rx="1.80675" ry="1.08405" transform="matrix(-0.949946 -0.312413 -0.312413 0.949946 116.521 15.6077)" fill="#954A83"/>
<ellipse id="Ellipse 36_2" cx="1.80675" cy="1.08405" rx="1.80675" ry="1.08405" transform="matrix(-0.992692 0.120675 0.120675 0.992692 117.329 10.9973)" fill="#954A83"/>
<ellipse id="Ellipse 28_2" cx="0.653215" cy="0.391929" rx="0.653215" ry="0.391929" transform="matrix(-0.875363 -0.483466 -0.483466 0.875363 106.964 19.2859)" fill="#954A83"/>
<ellipse id="Ellipse 31_2" cx="0.653215" cy="0.391929" rx="0.653215" ry="0.391929" transform="matrix(-0.949946 -0.312413 -0.312413 0.949946 110.34 16.2478)" fill="#954A83"/>
<ellipse id="Ellipse 34_2" cx="0.653215" cy="0.391929" rx="0.653215" ry="0.391929" transform="matrix(-0.949946 -0.312413 -0.312413 0.949946 112.782 16.2529)" fill="#954A83"/>
<ellipse id="Ellipse 35_2" cx="0.653215" cy="0.391929" rx="0.653215" ry="0.391929" transform="matrix(-0.949946 -0.312413 -0.312413 0.949946 113.823 13.9226)" fill="#954A83"/>
<ellipse id="Ellipse 37_2" cx="0.653215" cy="0.391929" rx="0.653215" ry="0.391929" transform="matrix(-0.992692 0.120675 0.120675 0.992692 114.171 10.6177)" fill="#954A83"/>
<ellipse id="Ellipse 41_2" cx="0.653215" cy="0.591996" rx="0.653215" ry="0.591996" transform="matrix(-0.992692 0.120675 0.120675 0.992692 112.946 6.92578)" fill="#954A83"/>
<ellipse id="Ellipse 42_2" cx="1.02474" cy="0.928699" rx="1.02474" ry="0.928699" transform="matrix(-0.992692 0.120675 0.120675 0.992692 112.851 3.88477)" fill="#954A83"/>
<ellipse id="Ellipse 43_2" cx="1.02474" cy="0.928699" rx="1.02474" ry="0.928699" transform="matrix(-0.992692 0.120675 0.120675 0.992692 109.796 6.21216)" fill="#954A83"/>
<ellipse id="Ellipse 44_2" cx="0.608227" cy="0.551225" rx="0.608227" ry="0.551225" transform="matrix(-0.992692 0.120675 0.120675 0.992692 108.911 4.47241)" fill="#954A83"/>
<ellipse id="Ellipse 45_2" cx="0.608227" cy="0.551225" rx="0.608227" ry="0.551225" transform="matrix(-0.992692 0.120675 0.120675 0.992692 106.581 3.4314)" fill="#954A83"/>
<ellipse id="Ellipse 46_2" cx="0.608227" cy="0.551225" rx="0.608227" ry="0.551225" transform="matrix(-0.992692 0.120675 0.120675 0.992692 107.005 6.09326)" fill="#954A83"/>
<ellipse id="Ellipse 47_2" cx="0.608227" cy="0.551225" rx="0.608227" ry="0.551225" transform="matrix(-0.992692 0.120675 0.120675 0.992692 105.65 5.27344)" fill="#954A83"/>
<ellipse id="Ellipse 48_2" cx="0.608227" cy="0.551225" rx="0.608227" ry="0.551225" transform="matrix(-0.992692 0.120675 0.120675 0.992692 105.209 7.22607)" fill="#954A83"/>
<ellipse id="Ellipse 49_2" cx="0.322338" cy="0.292129" rx="0.322338" ry="0.292129" transform="matrix(-0.992692 0.120675 0.120675 0.992692 104.024 6.44482)" fill="#954A83"/>
<ellipse id="Ellipse 50_2" cx="0.322338" cy="0.292129" rx="0.322338" ry="0.292129" transform="matrix(-0.992692 0.120675 0.120675 0.992692 102.606 8.17627)" fill="#954A83"/>
<ellipse id="Ellipse 51_2" cx="0.322338" cy="0.292129" rx="0.322338" ry="0.292129" transform="matrix(-0.992692 0.120675 0.120675 0.992692 103.96 8.99609)" fill="#954A83"/>
<ellipse id="Ellipse 52_2" cx="0.322338" cy="0.292129" rx="0.322338" ry="0.292129" transform="matrix(-0.992692 0.120675 0.120675 0.992692 103.141 10.3499)" fill="#954A83"/>
<ellipse id="Ellipse 53_2" cx="0.322338" cy="0.292129" rx="0.322338" ry="0.292129" transform="matrix(-0.992692 0.120675 0.120675 0.992692 103.896 11.5471)" fill="#954A83"/>
<ellipse id="Ellipse 54_2" cx="0.322338" cy="0.292129" rx="0.322338" ry="0.292129" transform="matrix(-0.992692 0.120675 0.120675 0.992692 104.163 12.634)" fill="#954A83"/>
<ellipse id="Ellipse 12_2" cx="0.771546" cy="0.462927" rx="0.771546" ry="0.462927" transform="matrix(-0.994166 -0.107857 -0.107857 0.994166 93.041 32.6951)" fill="#954A83"/>
<ellipse id="Ellipse 15_2" cx="0.771546" cy="0.462927" rx="0.771546" ry="0.462927" transform="matrix(-0.865021 -0.501736 -0.501736 0.865021 92.6836 27.9543)" fill="#954A83"/>
<ellipse id="Ellipse 10_2" cx="2.05083" cy="1.2305" rx="2.05083" ry="1.2305" transform="matrix(-0.910561 -0.413375 -0.413375 0.910561 93.7168 34.7241)" fill="#954A83"/>
<ellipse id="Ellipse 13_2" cx="2.05083" cy="1.2305" rx="2.05083" ry="1.2305" transform="matrix(-0.998424 -0.0561264 -0.0561264 0.998424 92.5439 28.9902)" fill="#954A83"/>
<path id="Vector 11_2" d="M97.3924 28.8053C92.8865 31.4797 93.9609 38.2917 95.0614 41.3634L101.329 42.0131C98.7763 40.0665 95.9284 35.0424 104.959 30.5189C113.989 25.9954 118.187 19.3169 119.157 16.5432C119.954 14.1577 120.71 7.19572 114.078 3.84642C107.447 0.497114 103.193 3.94701 101.635 6.67317C103.611 3.61393 109.136 0.520249 115.556 7.51682C123.583 16.2625 103.025 25.4623 97.3924 28.8053Z" fill="#4F227A"/>
</g>
</g>
<path id="Vector 13_2" d="M111.185 3.73066C113.338 4.09419 117.852 6.08017 118.685 11.1159C118.038 9.45193 115.633 5.64535 111.185 3.73066Z" fill="#7330B3"/>
</g>
</g>
<g id="Group 115">
<path id="Vector" d="M106.042 85.736C106.375 80.6197 87.775 75.243 64.497 73.7267C41.219 72.2105 22.0783 75.1289 21.745 80.2452C21.4118 85.3615 40.0122 90.7382 63.2902 92.2545C86.5682 93.7707 105.709 90.8523 106.042 85.736Z" fill="#E2E0E1"/>
<path id="Vector_2" d="M83.8208 81.4189C84.036 78.1135 72.6812 74.6503 57.998 73.4095C44.9012 73.0032 33.7035 74.0458 27.3485 76.087C26.6699 76.5709 26.2884 77.1013 26.2511 77.6718C26.0236 81.1661 38.7267 84.8378 54.6243 85.8725C70.5219 86.9073 83.5936 84.9134 83.8208 81.4189Z" fill="#BCBBBB"/>
<path id="Vector_3" d="M104.087 22.944C103.561 20.7873 102.385 18.8438 100.72 17.3757L85.7461 7.0387C83.7636 5.29165 81.2118 4.32739 78.5692 4.32739L63.473 4.93953C62.0031 4.93953 60.5484 5.23823 59.1973 5.81718L43.3335 10.2258L22.2725 38.4031L20.9125 77.1166C20.7573 78.3097 21.524 79.4287 22.6925 79.7148L34.536 83.3148C35.4209 83.5316 36.2763 83.2219 36.8311 82.6239L52.8794 77.9878L69.9581 80.169L69.3626 84.5991C69.1774 86.1168 70.8693 86.1834 72.388 86.0068L101.903 82.5041C103.05 82.3705 103.932 81.4273 103.988 80.2737L110.216 35.9545L104.087 22.944Z" fill="#6F8A96"/>
<path id="Vector_4" d="M69.9574 80.1693L69.3619 84.5993C69.2517 85.5003 69.7215 85.7551 70.4265 85.9457C70.9314 86.0822 71.4703 86.1219 71.9894 86.0585L72.9124 85.9457L101.902 82.5043C103.049 82.3707 103.931 81.4275 103.988 80.2739L110.215 35.9547L104.087 22.9442C103.56 20.7875 102.385 18.844 100.719 17.3759L85.7456 7.03889C83.7631 5.29165 81.2112 4.32739 78.5687 4.32739L63.4727 4.93953C62.0027 4.93953 60.5479 5.23823 59.1968 5.81718L43.3329 10.2258L35.127 21.2631L49.4101 29.4251L54.9193 50.2379L52.8789 77.988L69.9574 80.1693Z" fill="#5B7481"/>
<path id="Vector_5" d="M78.5692 4.32739L63.473 4.93953C62.0031 4.93953 60.5484 5.23823 59.1973 5.81718L43.3335 10.2258L22.2725 38.4031L20.9125 77.1166C20.7573 78.3097 21.524 79.4287 22.6925 79.7148L34.536 83.3148C36.1192 83.7024 37.6096 82.4078 37.4474 80.7861L36.6748 56.7357C36.3315 53.3035 37.0548 55.5619 38.7459 52.5556L41.1041 44.0103C43.2899 40.1246 47.6068 37.9449 52.0314 38.4934L63.3232 39.8933C66.9972 40.3487 70.0233 42.996 70.9634 46.5769L73.6918 56.9712L69.3624 84.5991C69.1657 86.114 70.855 86.1802 72.3878 86.0068L101.903 82.5041C103.049 82.3705 103.932 81.4273 103.988 80.2739L110.216 35.9545L104.087 22.944C103.561 20.7873 102.385 18.8438 100.72 17.3757L85.7461 7.0387C83.7636 5.29165 81.2118 4.32739 78.5692 4.32739Z" fill="#8096A0"/>
<path id="Vector_6" d="M39.2079 27.9968L43.333 10.2261L24.0088 36.1349L39.2079 27.9968Z" fill="#E4ECEF"/>
<g id="Group">
<path id="Vector_7" d="M20.9125 77.1166C20.7573 78.3097 21.524 79.4287 22.6925 79.7148L33.2909 82.9363V53.9105L36.1475 47.177L39.2082 27.9968L24.0091 36.1349L22.2723 38.4031L20.9125 77.1166Z" fill="#B4C1C7"/>
<path id="Vector_8" d="M43.3331 10.226L39.208 27.9967L49.4103 23.7118L60.8368 25.7523L71.039 16.9781L58.137 6.14038L43.3331 10.226Z" fill="#B4C1C7"/>
</g>
<path id="Vector_9" d="M103.92 22.3452C103.98 22.5432 104.037 22.7423 104.087 22.9442C103.56 20.7875 102.385 18.844 100.719 17.3759L85.7454 7.03889C83.7629 5.29165 81.2111 4.32739 78.5685 4.32739L63.4723 4.93953C62.0024 4.93953 60.5477 5.23823 59.1966 5.81718L58.1367 6.14043L71.0387 16.9784L79.4047 27.9968L103.92 22.3452Z" fill="#91A3AA"/>
<path id="Vector_10" d="M36.1475 47.1771L40.0243 39.6274L47.3697 35.5465H59.6126L60.8369 25.7524L49.4104 23.7119L39.2081 27.9969L36.1475 47.1771Z" fill="#A6B6BC"/>
<path id="Vector_11" d="M79.4047 27.9967L71.0386 16.9783L64.4526 22.6424L60.8364 25.7524L59.6123 35.5466L66.076 38.1379C68.6761 39.1803 70.7874 41.1653 71.988 43.6966L72.6712 45.1367L76.1399 39.4234L77.2949 35.381L79.4047 27.9967Z" fill="#9DAEB2"/>
<path id="Vector_12" d="M72.6709 45.1366L73.6911 56.9714L80.6287 51.2579L76.1397 39.4233L72.6709 45.1366Z" fill="#A6B6BC"/>
<path id="Vector_13" d="M73.6917 56.9713L69.3624 84.5993C69.1656 86.1142 70.8549 86.1804 72.3877 86.007L72.7233 85.9671L80.6292 51.2581L73.6917 56.9713Z" fill="#B4C1C7"/>
<path id="Vector_14" d="M104 22.6326L103.073 34.7303L93.075 43.9123L91.4427 50.2379L88.9941 65.7453L94.2535 83.412L101.901 82.5043C103.048 82.3708 103.931 81.4275 103.987 80.274L110.215 35.9548L104.086 22.9442C104.061 22.8392 104.029 22.7365 104 22.6326Z" fill="#6F8A96"/>
<path id="Vector_15" d="M88.9275 66.478L87.8496 67.0334C86.553 67.7011 85.5414 68.815 85.0012 70.1699L83.6911 73.4544C83.1119 74.9069 83.1174 76.5271 83.707 77.9754L86.2172 84.1435C87.1854 86.5223 89.5504 88.0304 92.1156 87.9047L105.551 87.2468C107.458 87.1535 109.209 86.1653 110.275 84.5811L111.489 82.7755C113.514 79.7655 112.452 75.6628 109.221 74.0128L94.4489 66.4682C92.7142 65.5825 90.6591 65.5858 88.9275 66.478Z" fill="#B0C4CC"/>
<path id="Vector_16" d="M92.2609 80.9185L105.697 80.2606C107.604 80.1672 109.354 79.179 110.42 77.5949L111.483 76.0142C110.931 75.1957 110.171 74.4977 109.222 74.0128L94.4492 66.4683C92.7145 65.5824 90.6593 65.5859 88.9278 66.4781L87.8499 67.0335C86.5533 67.7012 85.5417 68.8151 85.0015 70.17L84.2676 72.0099L86.3626 77.1572C87.3308 79.536 89.6957 81.044 92.2609 80.9185Z" fill="#D3DEE2"/>
<path id="Vector_17" d="M80.1947 78.7123L75.1625 79.5509C74.3905 79.6797 73.7082 80.1275 73.2831 80.7846L71.4021 83.6917C70.5535 85.0034 70.9498 86.7561 72.2803 87.5746L75.6923 89.6742C76.5682 90.2133 77.6699 90.2255 78.5576 89.7058L82.9242 87.1497C84.0022 86.5185 84.5281 85.2467 84.2102 84.0387L83.3447 80.7497C83.0658 79.69 82.1911 78.8922 81.1102 78.7121C80.807 78.6617 80.4977 78.6617 80.1947 78.7123Z" fill="#B0C4CC"/>
<path id="Vector_18" d="M81.0619 82.8681C82.14 82.2371 82.6658 80.9653 82.3478 79.7571L82.1842 79.1354C81.8651 78.9249 81.501 78.7776 81.1094 78.7122C80.8064 78.6617 80.4971 78.6617 80.194 78.7122L75.1619 79.5509C74.3899 79.6798 73.7076 80.1275 73.2824 80.7846L71.4015 83.6917C71.3692 83.7416 71.3421 83.7933 71.3135 83.8441L73.83 85.3928C74.7058 85.9317 75.8076 85.9441 76.6952 85.4244L81.0619 82.8681Z" fill="#D3DEE2"/>
<path id="Vector_19" d="M22.0674 74.45L19.5273 76.2375C18.9079 76.6733 18.4904 77.3404 18.3692 78.0882L18.0369 80.1377C17.7594 81.8492 19.0805 83.4019 20.8144 83.4019H25.4527C26.3011 83.4019 27.1041 83.0191 27.6382 82.3602L29.6007 79.94C30.8077 78.4516 30.2058 76.2185 28.4146 75.5376L24.6864 74.1209C23.8126 73.7888 22.8315 73.9123 22.0674 74.45Z" fill="#B0C4CC"/>
<path id="Vector_20" d="M28.4145 75.5375L24.6863 74.1208C23.813 73.7889 22.8319 73.9122 22.0675 74.4501L19.5275 76.2376C18.9081 76.6734 18.4906 77.3405 18.3694 78.0883L18.3223 78.3794C18.7891 79.2672 19.7192 79.8874 20.8144 79.8874H25.4526C26.301 79.8874 27.1041 79.5049 27.6382 78.8458L29.6007 76.4255C29.6048 76.4202 29.6088 76.4143 29.6131 76.409C29.3128 76.0324 28.9092 75.7256 28.4145 75.5375Z" fill="#D3DEE2"/>
</g>
<g id="Group 116">
<g id="B1_3">
<path id="Vector 6_3" d="M69.5809 41.9817C72.814 46.3916 72.5887 51.3117 72.0719 53.2205C70.4343 53.1563 68.1917 50.7483 63.2776 52.8628C59.709 54.3983 54.1773 73.5661 43.7228 73.3454C33.1641 73.1224 31.5711 57.8397 37.4626 55.5086C42.1757 53.6437 44.5101 56.8516 45.0882 58.6886C42.0227 56.2921 35.3443 57.516 38.6526 63.1909C44.539 70.0885 49.4847 60.0211 53.3171 50.7129C57.1495 41.4048 69.2824 41.7916 69.5809 41.9817Z" fill="#5C2095"/>
<g id="Mask group_3">
<mask id="mask2_45_25443" style="mask-type:alpha" maskUnits="userSpaceOnUse" x="34" y="41" width="39" height="33">
<path id="Vector 12_3" d="M69.5809 41.9815C72.814 46.3914 72.5887 51.3115 72.0719 53.2203C70.4343 53.1561 68.1917 50.7481 63.2776 52.8626C59.709 54.3981 54.1773 73.5659 43.7228 73.3451C33.1641 73.1221 31.5711 57.8394 37.4626 55.5083C42.1757 53.6435 44.5101 56.8513 45.0882 58.6884C42.0227 56.2919 35.3443 57.5157 38.6526 63.1906C44.539 70.0883 49.4847 60.0208 53.3171 50.7127C57.1495 41.4046 69.2824 41.7913 69.5809 41.9815Z" fill="#5C2095"/>
</mask>
<g mask="url(#mask2_45_25443)">
<ellipse id="Ellipse 9_3" cx="67.6701" cy="42.9071" rx="1.25126" ry="0.750754" transform="rotate(-114.153 67.6701 42.9071)" fill="#954A83"/>
<ellipse id="Ellipse 11_3" cx="63.391" cy="43.7763" rx="1.25126" ry="0.750754" transform="rotate(-95.9276 63.391 43.7763)" fill="#954A83"/>
<ellipse id="Ellipse 14_3" cx="60.2396" cy="48.0629" rx="1.25126" ry="0.750754" transform="rotate(-95.9276 60.2396 48.0629)" fill="#954A83"/>
<ellipse id="Ellipse 16_3" cx="57.3043" cy="47.045" rx="1.25126" ry="0.750754" transform="rotate(-130.183 57.3043 47.045)" fill="#954A83"/>
<ellipse id="Ellipse 17_3" cx="57.6736" cy="50.9604" rx="1.76803" ry="1.06082" transform="rotate(-130.183 57.6736 50.9604)" fill="#954A83"/>
<ellipse id="Ellipse 18_3" cx="53.9789" cy="50.5251" rx="1.63587" ry="0.981521" transform="rotate(-112.505 53.9789 50.5251)" fill="#954A83"/>
<ellipse id="Ellipse 19_3" cx="55.5094" cy="54.9711" rx="1.02277" ry="0.61366" transform="rotate(-112.505 55.5094 54.9711)" fill="#954A83"/>
<ellipse id="Ellipse 23_3" cx="54.1217" cy="55.4265" rx="0.43069" ry="0.258414" transform="rotate(-112.505 54.1217 55.4265)" fill="#954A83"/>
<ellipse id="Ellipse 24_3" cx="52.7633" cy="56.24" rx="0.43069" ry="0.258414" transform="rotate(-112.505 52.7633 56.24)" fill="#954A83"/>
<ellipse id="Ellipse 25_3" cx="56.5114" cy="52.3333" rx="0.43069" ry="0.258414" transform="rotate(-112.505 56.5114 52.3333)" fill="#954A83"/>
<ellipse id="Ellipse 26_3" cx="54.068" cy="52.8748" rx="0.43069" ry="0.258414" transform="rotate(-112.505 54.068 52.8748)" fill="#954A83"/>
<ellipse id="Ellipse 20_3" cx="52.2526" cy="54.1547" rx="1.02277" ry="0.61366" transform="rotate(-112.505 52.2526 54.1547)" fill="#954A83"/>
<ellipse id="Ellipse 21_3" cx="54.1771" cy="57.7892" rx="1.02277" ry="0.61366" transform="rotate(-118.648 54.1771 57.7892)" fill="#954A83"/>
<ellipse id="Ellipse 22_3" cx="50.6232" cy="57.1591" rx="1.80675" ry="1.08405" transform="rotate(-118.648 50.6232 57.1591)" fill="#954A83"/>
<ellipse id="Ellipse 29_3" cx="48.2522" cy="60.6579" rx="1.80675" ry="1.08405" transform="rotate(-107.941 48.2522 60.6579)" fill="#954A83"/>
<ellipse id="Ellipse 32_3" cx="45.3469" cy="63.901" rx="1.80675" ry="1.08405" transform="rotate(-107.941 45.3469 63.901)" fill="#954A83"/>
<ellipse id="Ellipse 38_3" cx="42.8696" cy="65.1679" rx="1.46594" ry="0.879564" transform="rotate(-107.941 42.8696 65.1679)" fill="#954A83"/>
<ellipse id="Ellipse 39_3" cx="40.4655" cy="64.8741" rx="1.46594" ry="0.879564" transform="rotate(-74.2326 40.4655 64.8741)" fill="#954A83"/>
<ellipse id="Ellipse 40_3" cx="38.78" cy="68.836" rx="1.46594" ry="0.879564" transform="rotate(-74.2326 38.78 68.836)" fill="#954A83"/>
<ellipse id="Ellipse 27_3" cx="53.0637" cy="61.2321" rx="1.80675" ry="1.08405" transform="rotate(-118.648 53.0637 61.2321)" fill="#954A83"/>
<ellipse id="Ellipse 30_3" cx="49.8928" cy="65.1132" rx="1.80675" ry="1.08405" transform="rotate(-107.941 49.8928 65.1132)" fill="#954A83"/>
<ellipse id="Ellipse 33_3" cx="46.9885" cy="68.3564" rx="1.80675" ry="1.08405" transform="rotate(-107.941 46.9885 68.3564)" fill="#954A83"/>
<ellipse id="Ellipse 36_3" cx="43.2012" cy="69.5395" rx="1.80675" ry="1.08405" transform="rotate(-82.8047 43.2012 69.5395)" fill="#954A83"/>
<ellipse id="Ellipse 28_3" cx="50.2671" cy="60.108" rx="0.653215" ry="0.391929" transform="rotate(-118.648 50.2671 60.108)" fill="#954A83"/>
<ellipse id="Ellipse 31_3" cx="47.3543" cy="63.4893" rx="0.653215" ry="0.391929" transform="rotate(-107.941 47.3543 63.4893)" fill="#954A83"/>
<ellipse id="Ellipse 34_3" cx="47.3474" cy="65.9316" rx="0.653215" ry="0.391929" transform="rotate(-107.941 47.3474 65.9316)" fill="#954A83"/>
<ellipse id="Ellipse 35_3" cx="45.0125" cy="66.9619" rx="0.653215" ry="0.391929" transform="rotate(-107.941 45.0125 66.9619)" fill="#954A83"/>
<ellipse id="Ellipse 37_3" cx="42.0048" cy="67.4376" rx="0.653215" ry="0.391929" transform="rotate(-82.8047 42.0048 67.4376)" fill="#954A83"/>
<ellipse id="Ellipse 41_3" cx="38.5178" cy="66.2208" rx="0.653215" ry="0.591996" transform="rotate(-82.8047 38.5178 66.2208)" fill="#954A83"/>
<ellipse id="Ellipse 42_3" cx="35.8574" cy="65.785" rx="1.02474" ry="0.928699" transform="rotate(-82.8047 35.8574 65.785)" fill="#954A83"/>
<ellipse id="Ellipse 43_3" cx="38.1992" cy="62.741" rx="1.02474" ry="0.928699" transform="rotate(-82.8047 38.1992 62.741)" fill="#954A83"/>
<ellipse id="Ellipse 44_3" cx="36.0362" cy="62.2141" rx="0.608227" ry="0.551225" transform="rotate(-82.8047 36.0362 62.2141)" fill="#954A83"/>
<ellipse id="Ellipse 45_3" cx="35.0069" cy="59.8794" rx="0.608227" ry="0.551225" transform="rotate(-82.8047 35.0069 59.8794)" fill="#954A83"/>
<ellipse id="Ellipse 46_3" cx="37.666" cy="60.3152" rx="0.608227" ry="0.551225" transform="rotate(-82.8047 37.666 60.3152)" fill="#954A83"/>
<ellipse id="Ellipse 47_3" cx="36.8526" cy="58.9575" rx="0.608227" ry="0.551225" transform="rotate(-82.8047 36.8526 58.9575)" fill="#954A83"/>
<ellipse id="Ellipse 48_3" cx="38.8076" cy="58.5244" rx="0.608227" ry="0.551225" transform="rotate(-82.8047 38.8076 58.5244)" fill="#954A83"/>
<ellipse id="Ellipse 49_3" cx="37.7384" cy="57.5881" rx="0.322338" ry="0.292129" transform="rotate(-82.8047 37.7384 57.5881)" fill="#954A83"/>
<ellipse id="Ellipse 50_3" cx="39.4767" cy="56.1777" rx="0.322338" ry="0.292129" transform="rotate(-82.8047 39.4767 56.1777)" fill="#954A83"/>
<ellipse id="Ellipse 51_3" cx="40.2902" cy="57.5354" rx="0.322338" ry="0.292129" transform="rotate(-82.8047 40.2902 57.5354)" fill="#954A83"/>
<ellipse id="Ellipse 52_3" cx="41.6476" cy="56.7217" rx="0.322338" ry="0.292129" transform="rotate(-82.8047 41.6476 56.7217)" fill="#954A83"/>
<ellipse id="Ellipse 53_3" cx="42.8419" cy="57.4824" rx="0.322338" ry="0.292129" transform="rotate(-82.8047 42.8419 57.4824)" fill="#954A83"/>
<ellipse id="Ellipse 54_3" cx="43.9269" cy="57.7544" rx="0.322338" ry="0.292129" transform="rotate(-82.8047 43.9269 57.7544)" fill="#954A83"/>
<ellipse id="Ellipse 12_3" cx="64.0898" cy="46.1936" rx="0.771546" ry="0.462927" transform="rotate(-95.9276 64.0898 46.1936)" fill="#954A83"/>
<ellipse id="Ellipse 15_3" cx="58.9872" cy="45.73" rx="0.771546" ry="0.462927" transform="rotate(-119.851 58.9872 45.73)" fill="#954A83"/>
<ellipse id="Ellipse 10_3" cx="66.019" cy="45.3188" rx="2.05083" ry="1.2305" transform="rotate(-114.153 66.019 45.3188)" fill="#954A83"/>
<ellipse id="Ellipse 13_3" cx="61.13" cy="44.3831" rx="2.05083" ry="1.2305" transform="rotate(-92.9533 61.13 44.3831)" fill="#954A83"/>
<path id="Vector 11_3" d="M59.7997 51.342C62.4948 46.8485 69.3018 47.9543 72.3684 49.0689L72.9893 55.3394C71.0544 52.7778 66.0435 49.9068 61.4784 58.9159C56.9133 67.9251 50.2156 72.0924 47.4373 73.05C45.0483 73.8358 38.0828 74.5594 34.7641 67.9128C31.4455 61.2662 34.9149 57.0283 37.6482 55.4827C34.5799 57.4443 31.4608 62.9546 38.4277 69.4077C47.1363 77.4742 56.4308 56.9588 59.7997 51.342Z" fill="#4F227A"/>
</g>
</g>
<path id="Vector 13_3" d="M34.6614 65.0189C35.015 67.1733 36.9801 71.6962 42.0119 72.5524C40.351 71.8981 36.5555 69.4753 34.6614 65.0189Z" fill="#7330B3"/>
</g>
</g>
</g>
</svg>
