<svg width="119" height="98" viewBox="0 0 119 98" fill="none" xmlns="http://www.w3.org/2000/svg">
<g id="Group 506">
<g id="_x35_9">
<g id="Group">
<g id="Group_2">
<g id="Group_3">
<g id="Group_4">
<g id="Group_5">
<g id="Group_6">
<g id="Group_7">
<path id="Vector" d="M5.10565 94.2568C6.894 95.318 9.04929 95.8244 11.3785 95.5792C11.692 95.5467 11.9948 95.5025 12.3092 95.4477C14.1625 95.1061 15.9215 94.3148 17.4809 93.2036C18.4784 92.4946 19.403 91.6491 20.1983 90.687C21.6352 88.9911 22.7349 86.9627 23.3099 84.7654C23.5424 83.9379 23.6794 83.0917 23.7573 82.2248C23.7761 82.0248 23.7843 81.8132 23.7919 81.6127C23.8381 80.4101 23.7373 79.2574 23.4888 78.1773C22.7997 75.2065 21.0632 72.7978 18.6859 71.3906L21.6624 73.1665C24.0397 74.5738 25.7763 76.9825 26.4542 79.9528C26.7138 81.0334 26.8146 82.186 26.7685 83.3887C26.7608 83.5892 26.7419 83.7892 26.7231 83.9892C26.6564 84.8565 26.501 85.7093 26.2908 86.5377C25.693 88.7453 24.6117 90.7671 23.1749 92.4629C22.3796 93.425 21.4661 94.271 20.4686 94.98C16.7219 97.6759 11.8914 98.287 8.09333 96.0332L5.10565 94.2568Z" fill="#F3A250"/>
</g>
</g>
</g>
<g id="Group_8">
<g id="Group_9">
<g id="Group_10">
<path id="Vector_2" d="M0.011385 84.0352C0.292917 76.9864 5.84161 70.7307 12.4141 70.0571C18.975 69.3943 24.0738 74.5752 23.7926 81.6128C23.511 88.6616 17.9512 94.9169 11.3791 95.5793C4.81783 96.2533 -0.270212 91.084 0.011385 84.0352Z" fill="#FFD475"/>
</g>
</g>
<g id="Group_11">
<g id="Group_12">
<path id="Vector_3" d="M12.4767 70.657C18.3063 69.9622 23.4738 74.6293 23.1932 81.5877C22.9277 88.338 17.5994 94.3516 11.3202 94.9855C4.93878 95.594 0.348892 90.5964 0.612146 84.0633C0.877756 77.3131 6.20604 71.2995 12.4767 70.657ZM11.5858 92.7668C16.6742 92.2529 20.9917 87.4043 21.2144 81.9646C21.4247 76.5786 17.6168 72.4033 12.2111 72.8671C7.1227 73.3896 2.81377 78.2467 2.59104 83.6865C2.36621 89.4142 6.64021 93.3167 11.5858 92.7668Z" fill="#FFB961"/>
</g>
</g>
</g>
<g id="Group_13">
<g id="Group_14">
<g id="Group_15">
<path id="Vector_4" d="M3.19106 83.711C3.40045 78.5442 7.46859 73.9603 12.2721 73.4643C17.0864 72.9799 20.8221 76.7701 20.6127 81.9369C20.4033 87.1037 16.3352 91.6875 11.5209 92.172C6.71743 92.668 2.98209 88.8666 3.19106 83.711Z" fill="#F3A250"/>
</g>
</g>
</g>
<g id="Group_16">
<g id="Group_17">
<g id="Group_18">
<path id="Vector_5" d="M3.19021 83.711C3.3996 78.5442 7.46774 73.9604 12.2712 73.4644C15.0703 73.1815 17.5127 74.3458 19.0068 76.3883C17.5389 75.1163 15.5788 74.4612 13.3958 74.6786C8.59218 75.1746 4.52404 79.7584 4.31464 84.9252C4.23218 87.0745 4.82777 88.9933 5.92008 90.4628C4.13818 88.9445 3.07096 86.5281 3.19021 83.711Z" fill="#DD8536"/>
</g>
</g>
</g>
<g id="Group_19">
<g id="Group_20">
<g id="Group_21">
<path id="Vector_6" d="M12.3094 95.4476C14.1626 95.1061 15.9217 94.3148 17.4811 93.2036L20.4688 94.98C18.9089 96.1023 17.1504 96.8825 15.297 97.224L12.3094 95.4476Z" fill="#DD8536"/>
</g>
</g>
</g>
<g id="Group_22">
<g id="Group_23">
<g id="Group_24">
<path id="Vector_7" d="M20.1986 90.6869C21.6355 88.9911 22.7352 86.9627 23.3102 84.7654L26.291 86.5377C25.6933 88.7453 24.612 90.7671 23.1752 92.4629L20.1986 90.6869Z" fill="#DD8536"/>
</g>
</g>
</g>
<g id="Group_25">
<g id="Group_26">
<g id="Group_27">
<path id="Vector_8" d="M23.4888 78.1775L26.4542 79.953C26.7138 81.0336 26.8146 82.1862 26.7685 83.3889C26.7608 83.5894 26.7419 83.7894 26.7231 83.9894L23.7573 82.225C23.7761 82.025 23.7843 81.8134 23.7919 81.6129C23.8381 80.4103 23.7373 79.2576 23.4888 78.1775Z" fill="#DD8536"/>
</g>
</g>
</g>
</g>
<g id="Group_28">
<g id="Group_29">
<path id="Vector_9" d="M19.7431 78.4619C19.686 78.3378 19.5097 78.3395 19.453 78.4641C19.1605 79.1068 18.9082 79.6295 18.8636 79.6113C18.8231 79.5948 19.0054 79.0454 19.242 78.3819C19.2879 78.2532 19.163 78.1291 19.0358 78.1777C17.739 78.6738 16.548 79.105 16.5146 79.0252C16.4825 78.9484 17.6221 78.3879 18.8804 77.7997C19.004 77.7419 19.003 77.5649 18.8791 77.5083C18.2439 77.2178 17.7252 76.9661 17.7435 76.9213C17.76 76.8806 18.3064 77.0622 18.9661 77.298C19.0941 77.3437 19.218 77.2179 19.1699 77.0902C17.9142 73.7546 18.0701 73.7298 19.5465 76.933C19.6037 77.0571 19.7799 77.0555 19.8366 76.9309C20.1275 76.2918 20.3789 75.7697 20.4194 75.7862C20.4639 75.8044 20.2814 76.3557 20.0434 77.0144C19.9968 77.1432 20.1217 77.2679 20.2493 77.2192C21.5434 76.7247 22.7397 76.2943 22.7717 76.371C22.8051 76.4509 21.6614 77.01 20.405 77.5969C20.2814 77.6546 20.2823 77.8314 20.4059 77.8883C21.0429 78.1812 21.5628 78.4327 21.5462 78.4735C21.528 78.5182 20.98 78.3365 20.3243 78.0972C20.1961 78.0504 20.0713 78.1763 20.1195 78.3045C21.361 81.6055 21.2381 81.7084 19.7431 78.4619Z" fill="white"/>
</g>
</g>
</g>
</g>
<g id="Group_30" opacity="0.7">
<g id="Group_31">
<path id="Vector_10" d="M14.3766 89.4597C13.2713 90.1167 12.2896 90.4103 12.527 90.8598C12.7619 91.3045 13.8647 91.1473 14.97 90.4903C16.0752 89.8332 16.6007 88.937 16.3658 88.4923C16.1284 88.0428 15.4818 88.8026 14.3766 89.4597Z" fill="white"/>
</g>
</g>
<g id="Group_32" opacity="0.7">
<g id="Group_33">
<path id="Vector_11" d="M17.6475 87.2014C17.4483 87.0459 17.1118 87.1453 16.8954 87.4165C16.679 87.6877 16.663 88.0301 16.8621 88.1856C17.0572 88.3378 17.3903 88.2428 17.6067 87.9716C17.8231 87.7004 17.8426 87.3536 17.6475 87.2014Z" fill="white"/>
</g>
</g>
</g>
<g id="Group_34">
<g id="Group_35">
<g id="Group_36">
<path id="Vector_12" d="M16.334 80.7309C16.2696 80.2836 15.9287 79.7073 15.502 79.5137C15.352 80.1579 15.7219 80.6443 16.334 80.7309Z" fill="#DD8536"/>
</g>
</g>
<g id="Group_37">
<g id="Group_38">
<path id="Vector_13" d="M7.34128 84.9207C7.34128 84.9207 7.21956 86.2355 8.29198 86.6067C9.3644 86.9778 7.34128 84.9207 7.34128 84.9207Z" fill="#DD8536"/>
</g>
</g>
<g id="Group_39">
<g id="Group_40">
<path id="Vector_14" d="M7.70063 85.9166C7.73911 86.0682 7.81106 86.2083 7.91494 86.3199C8.011 86.4409 8.13979 86.5418 8.29138 86.6066C9.84237 87.1646 11.4914 87.6628 13.2125 88.095C13.9278 88.2363 14.4626 87.7458 14.5881 87.172C15.0279 85.2354 15.6036 83.2789 16.2789 81.3829C16.523 80.7322 16.1883 80.1325 15.5913 79.9446C13.881 79.5374 12.2951 79.0768 10.8595 78.5607C10.3946 78.3919 9.74866 78.707 9.50651 79.3443C8.78921 81.2525 8.17802 83.1948 7.66915 85.1285C7.59646 85.4461 7.61492 85.6069 7.70063 85.9166Z" fill="#DD8536"/>
</g>
</g>
<g id="Group_41">
<g id="Group_42">
<path id="Vector_15" d="M8.017 86.1014C9.56799 86.6594 11.217 87.1576 12.9381 87.5898C13.6083 87.7222 14.1784 87.2856 14.3138 86.6668C14.7535 84.7302 15.3292 82.7737 16.0045 80.8777C16.247 80.2314 15.9193 79.6289 15.3169 79.4394C13.6066 79.0322 12.0208 78.5716 10.5851 78.0555C10.1283 77.8896 9.48011 78.1864 9.23213 78.8391C8.51483 80.7473 7.90364 82.6896 7.39477 84.6233C7.24021 85.2987 7.5333 85.8947 8.017 86.1014Z" fill="#D7ACFF"/>
</g>
</g>
<g id="Group_43">
<g id="Group_44">
<g id="Group_45">
<g id="Group_46">
<path id="Vector_16" d="M13.5459 87.1815C12.7548 85.7339 12.0584 84.2734 11.457 82.7998C10.1679 83.633 8.93328 84.4708 7.75124 85.3144C7.81686 85.5367 7.96323 85.7027 8.15223 85.7829C9.67174 86.3296 11.2937 86.8221 13.0199 87.2571C13.2026 87.2976 13.3842 87.2803 13.5459 87.1815Z" fill="#A140FD"/>
</g>
</g>
<g id="Group_47">
<g id="Group_48">
<path id="Vector_17" d="M11.457 82.7999C10.8772 81.3688 10.3839 79.9194 9.97763 78.4519C9.80396 78.5442 9.64612 78.724 9.54649 78.9675C8.84708 80.8442 8.23956 82.7584 7.73037 84.7096C7.67353 84.9277 7.68158 85.1372 7.75123 85.3146C8.93331 84.4713 10.1679 83.6333 11.457 82.7999Z" fill="#AD5AFD"/>
</g>
</g>
<g id="Group_49">
<g id="Group_50">
<path id="Vector_18" d="M9.97613 78.448C10.3795 79.9183 10.8813 81.3703 11.4561 82.8017C12.803 81.9252 14.2126 81.0594 15.6973 80.1941C15.6047 79.9765 15.437 79.8333 15.2139 79.7624C13.526 79.3644 11.9414 78.9047 10.4717 78.3819C10.3094 78.3265 10.1413 78.3521 9.97613 78.448Z" fill="#BC75FF"/>
</g>
</g>
<g id="Group_51">
<g id="Group_52">
<path id="Vector_19" d="M15.6947 80.1931C14.2166 81.0585 12.8052 81.9278 11.4572 82.8C12.0587 84.2734 12.7548 85.734 13.546 87.1817C13.7466 87.0699 13.9214 86.8639 13.9752 86.5972C14.4326 84.6057 15.0049 82.6601 15.6842 80.7596C15.7623 80.5604 15.7598 80.3601 15.6947 80.1931Z" fill="#AD5AFD"/>
</g>
</g>
</g>
<g id="Group_53">
<g id="Group_54">
<path id="Vector_20" d="M11.9396 83.9328C11.9396 83.9328 11.4536 82.7789 10.2818 83.5711C10.2818 83.5711 11.4217 82.8074 10.9947 81.6025C10.9947 81.6025 11.46 82.778 12.6006 82.0704C11.8298 82.5401 11.5989 83.1515 11.9396 83.9328Z" fill="#CF9DFF"/>
</g>
</g>
</g>
</g>
</g>
<g id="_x35_9_2">
<g id="Group_55">
<g id="Group_56">
<g id="Group_57">
<g id="Group_58">
<g id="Group_59">
<g id="Group_60">
<g id="Group_61">
<path id="Vector_21" d="M113.674 87.2568C111.885 88.318 109.73 88.8244 107.401 88.5792C107.087 88.5467 106.785 88.5025 106.47 88.4477C104.617 88.1061 102.858 87.3148 101.298 86.2036C100.301 85.4946 99.3762 84.6491 98.581 83.687C97.1441 81.9911 96.0444 79.9627 95.4694 77.7654C95.2369 76.9379 95.0999 76.0917 95.022 75.2248C95.0032 75.0248 94.995 74.8132 94.9873 74.6127C94.9412 73.4101 95.042 72.2574 95.2905 71.1773C95.9796 68.2065 97.7161 65.7978 100.093 64.3906L97.1169 66.1665C94.7396 67.5738 93.003 69.9825 92.3251 72.9528C92.0654 74.0334 91.9647 75.186 92.0108 76.3887C92.0185 76.5892 92.0374 76.7892 92.0562 76.9892C92.1229 77.8565 92.2783 78.7093 92.4885 79.5377C93.0863 81.7453 94.1675 83.7671 95.6044 85.4629C96.3997 86.425 97.3132 87.271 98.3107 87.98C102.057 90.6759 106.888 91.287 110.686 89.0332L113.674 87.2568Z" fill="#F3A250"/>
</g>
</g>
</g>
<g id="Group_62">
<g id="Group_63">
<g id="Group_64">
<path id="Vector_22" d="M118.768 77.0352C118.486 69.9864 112.938 63.7307 106.365 63.0571C99.8043 62.3943 94.7055 67.5752 94.9867 74.6128C95.2683 81.6616 100.828 87.9169 107.4 88.5793C113.961 89.2533 119.05 84.084 118.768 77.0352Z" fill="#FFD475"/>
</g>
</g>
<g id="Group_65">
<g id="Group_66">
<path id="Vector_23" d="M106.303 63.657C100.473 62.9622 95.3055 67.6293 95.5861 74.5877C95.8516 81.338 101.18 87.3516 107.459 87.9855C113.841 88.594 118.43 83.5964 118.167 77.0633C117.902 70.3131 112.573 64.2995 106.303 63.657ZM107.194 85.7668C102.105 85.2529 97.7876 80.4043 97.5649 74.9646C97.3546 69.5786 101.162 65.4033 106.568 65.8671C111.657 66.3896 115.966 71.2467 116.188 76.6865C116.413 82.4142 112.139 86.3167 107.194 85.7668Z" fill="#FFB961"/>
</g>
</g>
</g>
<g id="Group_67">
<g id="Group_68">
<g id="Group_69">
<path id="Vector_24" d="M115.588 76.711C115.379 71.5442 111.311 66.9603 106.507 66.4643C101.693 65.9799 97.9572 69.7701 98.1666 74.9369C98.376 80.1037 102.444 84.6875 107.258 85.172C112.062 85.668 115.797 81.8666 115.588 76.711Z" fill="#F3A250"/>
</g>
</g>
</g>
<g id="Group_70">
<g id="Group_71">
<g id="Group_72">
<path id="Vector_25" d="M115.589 76.711C115.38 71.5442 111.312 66.9604 106.508 66.4644C103.709 66.1815 101.267 67.3458 99.7725 69.3883C101.24 68.1163 103.2 67.4612 105.384 67.6786C110.187 68.1746 114.255 72.7584 114.465 77.9252C114.547 80.0745 113.952 81.9933 112.859 83.4628C114.641 81.9445 115.708 79.5281 115.589 76.711Z" fill="#DD8536"/>
</g>
</g>
</g>
<g id="Group_73">
<g id="Group_74">
<g id="Group_75">
<path id="Vector_26" d="M106.47 88.4476C104.617 88.1061 102.858 87.3148 101.298 86.2036L98.3105 87.98C99.8704 89.1023 101.629 89.8825 103.482 90.224L106.47 88.4476Z" fill="#DD8536"/>
</g>
</g>
</g>
<g id="Group_76">
<g id="Group_77">
<g id="Group_78">
<path id="Vector_27" d="M98.5807 83.6869C97.1438 81.9911 96.0441 79.9627 95.4691 77.7654L92.4883 79.5377C93.086 81.7453 94.1673 83.7671 95.6041 85.4629L98.5807 83.6869Z" fill="#DD8536"/>
</g>
</g>
</g>
<g id="Group_79">
<g id="Group_80">
<g id="Group_81">
<path id="Vector_28" d="M95.2905 71.1775L92.3251 72.953C92.0654 74.0336 91.9647 75.1862 92.0108 76.3889C92.0185 76.5894 92.0374 76.7894 92.0562 76.9894L95.022 75.225C95.0032 75.025 94.995 74.8134 94.9873 74.6129C94.9412 73.4103 95.042 72.2576 95.2905 71.1775Z" fill="#DD8536"/>
</g>
</g>
</g>
</g>
<g id="Group_82">
<g id="Group_83">
<path id="Vector_29" d="M99.0362 71.4619C99.0933 71.3378 99.2696 71.3395 99.3263 71.4641C99.6188 72.1068 99.8711 72.6295 99.9157 72.6113C99.9562 72.5948 99.7739 72.0454 99.5373 71.3819C99.4914 71.2532 99.6163 71.1291 99.7435 71.1777C101.04 71.6738 102.231 72.105 102.265 72.0252C102.297 71.9484 101.157 71.3879 99.8989 70.7997C99.7753 70.7419 99.7763 70.5649 99.9002 70.5083C100.535 70.2178 101.054 69.9661 101.036 69.9213C101.019 69.8806 100.473 70.0622 99.8132 70.298C99.6852 70.3437 99.5613 70.2179 99.6094 70.0902C100.865 66.7546 100.709 66.7298 99.2328 69.933C99.1756 70.0571 98.9994 70.0555 98.9427 69.9309C98.6518 69.2918 98.4004 68.7697 98.3599 68.7862C98.3154 68.8044 98.4979 69.3557 98.7359 70.0144C98.7825 70.1432 98.6576 70.2679 98.53 70.2192C97.2359 69.7247 96.0396 69.2943 96.0075 69.371C95.9742 69.4509 97.1179 70.01 98.3743 70.5969C98.4978 70.6546 98.497 70.8314 98.3734 70.8883C97.7364 71.1812 97.2165 71.4327 97.2331 71.4735C97.2513 71.5182 97.7993 71.3365 98.455 71.0972C98.5832 71.0504 98.708 71.1763 98.6598 71.3045C97.4183 74.6055 97.5412 74.7084 99.0362 71.4619Z" fill="white"/>
</g>
</g>
</g>
</g>
<g id="Group_84" opacity="0.7">
<g id="Group_85">
<path id="Vector_30" d="M104.403 82.4597C105.508 83.1167 106.49 83.4103 106.252 83.8598C106.017 84.3045 104.915 84.1473 103.809 83.4903C102.704 82.8332 102.179 81.937 102.414 81.4923C102.651 81.0428 103.297 81.8026 104.403 82.4597Z" fill="white"/>
</g>
</g>
<g id="Group_86" opacity="0.7">
<g id="Group_87">
<path id="Vector_31" d="M101.132 80.2014C101.331 80.0459 101.667 80.1453 101.884 80.4165C102.1 80.6877 102.116 81.0301 101.917 81.1856C101.722 81.3378 101.389 81.2428 101.173 80.9716C100.956 80.7004 100.937 80.3536 101.132 80.2014Z" fill="white"/>
</g>
</g>
</g>
<g id="Group_88">
<g id="Group_89">
<g id="Group_90">
<path id="Vector_32" d="M102.445 73.7309C102.51 73.2836 102.851 72.7073 103.277 72.5137C103.427 73.1579 103.057 73.6443 102.445 73.7309Z" fill="#DD8536"/>
</g>
</g>
<g id="Group_91">
<g id="Group_92">
<path id="Vector_33" d="M111.438 77.9207C111.438 77.9207 111.56 79.2355 110.487 79.6067C109.415 79.9778 111.438 77.9207 111.438 77.9207Z" fill="#DD8536"/>
</g>
</g>
<g id="Group_93">
<g id="Group_94">
<path id="Vector_34" d="M111.079 78.9166C111.04 79.0682 110.968 79.2083 110.864 79.3199C110.768 79.4409 110.64 79.5418 110.488 79.6066C108.937 80.1646 107.288 80.6628 105.567 81.095C104.851 81.2363 104.317 80.7458 104.191 80.172C103.751 78.2354 103.176 76.2789 102.5 74.3829C102.256 73.7322 102.591 73.1325 103.188 72.9446C104.898 72.5374 106.484 72.0768 107.92 71.5607C108.385 71.3919 109.031 71.707 109.273 72.3443C109.99 74.2525 110.601 76.1948 111.11 78.1285C111.183 78.4461 111.164 78.6069 111.079 78.9166Z" fill="#DD8536"/>
</g>
</g>
<g id="Group_95">
<g id="Group_96">
<path id="Vector_35" d="M110.762 79.1014C109.211 79.6594 107.562 80.1576 105.841 80.5898C105.171 80.7222 104.601 80.2856 104.466 79.6668C104.026 77.7302 103.45 75.7737 102.775 73.8777C102.532 73.2314 102.86 72.6289 103.462 72.4394C105.173 72.0322 106.759 71.5716 108.194 71.0555C108.651 70.8896 109.299 71.1864 109.547 71.8391C110.264 73.7473 110.876 75.6896 111.385 77.6233C111.539 78.2987 111.246 78.8947 110.762 79.1014Z" fill="#D7ACFF"/>
</g>
</g>
<g id="Group_97">
<g id="Group_98">
<g id="Group_99">
<g id="Group_100">
<path id="Vector_36" d="M105.233 80.1815C106.025 78.7339 106.721 77.2734 107.322 75.7998C108.611 76.633 109.846 77.4708 111.028 78.3144C110.962 78.5367 110.816 78.7027 110.627 78.7829C109.108 79.3296 107.486 79.8221 105.759 80.2571C105.577 80.2976 105.395 80.2803 105.233 80.1815Z" fill="#A140FD"/>
</g>
</g>
<g id="Group_101">
<g id="Group_102">
<path id="Vector_37" d="M107.322 75.7999C107.902 74.3688 108.395 72.9194 108.802 71.4519C108.975 71.5442 109.133 71.724 109.233 71.9675C109.932 73.8442 110.54 75.7584 111.049 77.7096C111.106 77.9277 111.098 78.1372 111.028 78.3146C109.846 77.4713 108.611 76.6333 107.322 75.7999Z" fill="#AD5AFD"/>
</g>
</g>
<g id="Group_103">
<g id="Group_104">
<path id="Vector_38" d="M108.803 71.448C108.4 72.9183 107.898 74.3703 107.323 75.8017C105.976 74.9252 104.567 74.0594 103.082 73.1941C103.175 72.9765 103.342 72.8333 103.565 72.7624C105.253 72.3644 106.838 71.9047 108.308 71.3819C108.47 71.3265 108.638 71.3521 108.803 71.448Z" fill="#BC75FF"/>
</g>
</g>
<g id="Group_105">
<g id="Group_106">
<path id="Vector_39" d="M103.085 73.1931C104.563 74.0585 105.974 74.9278 107.322 75.8C106.721 77.2734 106.025 78.734 105.233 80.1817C105.033 80.0699 104.858 79.8639 104.804 79.5972C104.347 77.6057 103.774 75.6601 103.095 73.7596C103.017 73.5604 103.02 73.3601 103.085 73.1931Z" fill="#AD5AFD"/>
</g>
</g>
</g>
<g id="Group_107">
<g id="Group_108">
<path id="Vector_40" d="M106.84 76.9328C106.84 76.9328 107.326 75.7789 108.498 76.5711C108.498 76.5711 107.358 75.8074 107.785 74.6025C107.785 74.6025 107.319 75.778 106.179 75.0704C106.95 75.5401 107.18 76.1515 106.84 76.9328Z" fill="#CF9DFF"/>
</g>
</g>
</g>
</g>
</g>
<g id="_x32_4">
<g id="Group_109">
<g id="Group_110">
<g id="Group_111">
<path id="Vector_41" d="M101.045 33.3942V81.5305C101.045 85.7295 97.6466 89.1127 93.4628 89.1127H37.8649C33.681 89.1127 30.2826 85.7295 30.2826 81.5305V40.5082H26.3407C22.2928 40.5082 19 37.2156 19 33.1525C19 31.1286 19.8157 29.3009 21.1448 27.9718C22.474 26.6428 24.3166 25.812 26.3407 25.812H93.4628C97.6466 25.812 101.045 29.2104 101.045 33.3942Z" fill="#7C3EB7"/>
</g>
</g>
<g id="Group_112">
<g id="Group_113">
<path id="Vector_42" d="M89.7022 25.812C88.4031 30.2374 85.8809 34.3005 82.6185 37.5781C81.6214 38.5899 80.5642 39.5264 79.4163 40.3872C78.1779 41.3087 76.8789 42.1545 75.4893 42.8945C71.7436 44.8882 67.59 46.0512 63.3609 46.0512C62.1072 46.0512 60.9139 45.9607 59.766 45.7492C53.6188 44.7222 48.8912 41.0368 46.5046 35.8863C45.1303 32.9411 44.5261 29.5124 44.8737 25.812H89.7022Z" fill="#6628A2"/>
</g>
</g>
<g id="Group_114">
<g id="Group_115">
<path id="Vector_43" d="M108.012 50.3447L107.866 51.3718C107.156 55.0838 104.589 57.1215 101.037 58.267L101.034 58.2642V45.7213C101.034 45.7213 107.541 44.2977 108.012 50.3447Z" fill="#522E75"/>
</g>
</g>
<g id="_x35_9_3">
<g id="Group_116">
<g id="Group_117">
<g id="Group_118">
<g id="Group_119">
<g id="Group_120">
<g id="Group_121">
<g id="Group_122">
<path id="Vector_44" d="M75.1103 46.0102C71.7182 48.0231 67.6301 48.9837 63.2121 48.5185C62.6173 48.4568 62.043 48.3731 61.4467 48.269C57.9314 47.6212 54.5948 46.1203 51.637 44.0126C49.745 42.6677 47.9912 41.0639 46.4827 39.239C43.7572 36.0223 41.6714 32.1749 40.5807 28.0071C40.1397 26.4374 39.8799 24.8324 39.7321 23.1882C39.6964 22.8088 39.681 22.4074 39.6664 22.0271C39.5788 19.7459 39.77 17.5596 40.2414 15.5108C41.5484 9.87593 44.8423 5.3071 49.3515 2.63794L43.7057 6.00648C39.1965 8.67578 35.9024 13.2445 34.6167 18.8785C34.1241 20.9282 33.933 23.1144 34.0205 25.3958C34.0351 25.776 34.0708 26.1554 34.1066 26.5347C34.2331 28.1798 34.5278 29.7975 34.9266 31.3687C36.0604 35.5561 38.1114 39.391 40.8367 42.6075C42.3453 44.4324 44.078 46.0372 45.97 47.3819C53.0767 52.4954 62.2391 53.6546 69.4433 49.3796L75.1103 46.0102Z" fill="#F3A250"/>
</g>
</g>
</g>
<g id="Group_123">
<g id="Group_124">
<g id="Group_125">
<path id="Vector_45" d="M84.7745 26.6218C84.2405 13.2516 73.7158 1.38597 61.2492 0.108376C48.8045 -1.14888 39.1332 8.67813 39.6665 22.027C40.2007 35.3972 50.7465 47.262 63.2123 48.5185C75.6577 49.7969 85.3086 39.9918 84.7745 26.6218Z" fill="#FFD475"/>
</g>
</g>
<g id="Group_126">
<g id="Group_127">
<path id="Vector_46" d="M61.1298 1.24617C50.0722 -0.0717407 40.2707 8.78068 40.8029 21.9795C41.3066 34.7832 51.4132 46.1898 63.3235 47.3922C75.4276 48.5463 84.1337 39.0669 83.6343 26.6751C83.1305 13.8714 73.0239 2.46482 61.1298 1.24617ZM62.8197 43.1838C53.1681 42.2089 44.9788 33.0122 44.5563 22.6943C44.1574 12.4781 51.3801 4.55846 61.6336 5.43825C71.2852 6.42939 79.4583 15.6422 79.8808 25.9603C80.3073 36.8246 72.2004 44.2268 62.8197 43.1838Z" fill="#FFB961"/>
</g>
</g>
</g>
<g id="Group_128">
<g id="Group_129">
<g id="Group_130">
<path id="Vector_47" d="M78.7427 26.007C78.3455 16.2067 70.6291 7.51217 61.5179 6.57132C52.3862 5.65243 45.3004 12.8416 45.6976 22.6419C46.0947 32.4423 53.8111 41.1368 62.9427 42.0557C72.0539 42.9965 79.1391 35.7862 78.7427 26.007Z" fill="#F3A250"/>
</g>
</g>
</g>
<g id="Group_131">
<g id="Group_132">
<g id="Group_133">
<path id="Vector_48" d="M78.743 26.0069C78.3458 16.2066 70.6294 7.51203 61.5182 6.57118C56.209 6.03451 51.5762 8.24295 48.7422 12.1172C51.5266 9.7045 55.2444 8.46195 59.3852 8.87417C68.4966 9.81502 76.213 18.5095 76.6101 28.3099C76.7666 32.3866 75.6369 36.0262 73.565 38.8135C76.9449 35.9337 78.9691 31.3503 78.743 26.0069Z" fill="#DD8536"/>
</g>
</g>
</g>
<g id="Group_134">
<g id="Group_135">
<g id="Group_136">
<path id="Vector_49" d="M61.4473 48.2689C57.9321 47.6211 54.5955 46.1201 51.6377 44.0125L45.9707 47.3818C48.9293 49.5106 52.265 50.9904 55.7803 51.6383L61.4473 48.2689Z" fill="#DD8536"/>
</g>
</g>
</g>
<g id="Group_137">
<g id="Group_138">
<g id="Group_139">
<path id="Vector_50" d="M46.4828 39.239C43.7573 36.0223 41.6715 32.1749 40.5808 28.0071L34.9268 31.3687C36.0606 35.5561 38.1115 39.391 40.8368 42.6075L46.4828 39.239Z" fill="#DD8536"/>
</g>
</g>
</g>
<g id="Group_140">
<g id="Group_141">
<g id="Group_142">
<path id="Vector_51" d="M40.2414 15.5107L34.6167 18.8785C34.1241 20.9281 33.933 23.1144 34.0205 25.3957C34.0351 25.7759 34.0708 26.1553 34.1066 26.5347L39.7321 23.1881C39.6964 22.8087 39.681 22.4074 39.6664 22.027C39.5788 19.7458 39.77 17.5595 40.2414 15.5107Z" fill="#DD8536"/>
</g>
</g>
</g>
</g>
<g id="Group_143">
<g id="Group_144">
<path id="Vector_52" d="M47.3476 16.0503C47.456 15.815 47.7903 15.818 47.8979 16.0544C48.4527 17.2736 48.9313 18.265 49.0158 18.2305C49.0927 18.1992 48.7469 17.157 48.2981 15.8986C48.2111 15.6543 48.4479 15.419 48.6893 15.5113C51.1489 16.4522 53.4081 17.2702 53.4714 17.1187C53.5323 16.973 51.3706 15.9099 48.984 14.7943C48.7495 14.6847 48.7515 14.3489 48.9864 14.2415C50.1912 13.6905 51.1751 13.2131 51.1405 13.1281C51.1091 13.0508 50.0727 13.3953 48.8215 13.8425C48.5786 13.9293 48.3437 13.6907 48.4349 13.4485C50.8167 7.12158 50.5209 7.07447 47.7205 13.1503C47.612 13.3856 47.2778 13.3826 47.1702 13.1462C46.6185 11.9341 46.1416 10.9438 46.0648 10.9751C45.9804 11.0096 46.3265 12.0553 46.7781 13.3046C46.8664 13.549 46.6294 13.7855 46.3875 13.693C43.9328 12.7551 41.6638 11.9387 41.6029 12.0843C41.5396 12.2358 43.7091 13.2964 46.0922 14.4096C46.3265 14.5191 46.3248 14.8544 46.0904 14.9622C44.8822 15.5178 43.8961 15.9949 43.9276 16.0722C43.9621 16.1571 45.0016 15.8124 46.2452 15.3585C46.4883 15.2698 46.7251 15.5086 46.6336 15.7517C44.2788 22.013 44.5119 22.2081 47.3476 16.0503Z" fill="white"/>
</g>
</g>
</g>
</g>
<g id="Group_145" opacity="0.7">
<g id="Group_146">
<path id="Vector_53" d="M57.527 36.9108C59.6235 38.1571 61.4857 38.7139 61.0354 39.5665C60.5898 40.4101 58.498 40.1119 56.4015 38.8655C54.3051 37.6193 53.3084 35.9194 53.7539 35.0758C54.2042 34.2232 55.4306 35.6645 57.527 36.9108Z" fill="white"/>
</g>
</g>
<g id="Group_147" opacity="0.7">
<g id="Group_148">
<path id="Vector_54" d="M51.322 32.6273C51.6997 32.3324 52.338 32.521 52.7485 33.0354C53.159 33.5498 53.1894 34.1993 52.8116 34.4941C52.4416 34.7829 51.8099 34.6027 51.3994 34.0883C50.9889 33.5739 50.9519 32.9161 51.322 32.6273Z" fill="white"/>
</g>
</g>
</g>
<g id="Group_149">
<g id="Group_150">
<g id="Group_151">
<path id="Vector_55" d="M53.8135 20.3541C53.9355 19.5055 54.5821 18.4124 55.3915 18.0452C55.676 19.2672 54.9745 20.1898 53.8135 20.3541Z" fill="#DD8536"/>
</g>
</g>
<g id="Group_152">
<g id="Group_153">
<path id="Vector_56" d="M70.8715 28.3013C70.8715 28.3013 71.1024 30.7953 69.0683 31.4993C67.0341 32.2032 70.8715 28.3013 70.8715 28.3013Z" fill="#DD8536"/>
</g>
</g>
<g id="Group_154">
<g id="Group_155">
<path id="Vector_57" d="M70.1885 30.1905C70.1155 30.4779 69.979 30.7438 69.782 30.9554C69.5997 31.185 69.3554 31.3763 69.0679 31.4992C66.126 32.5576 62.9981 33.5027 59.7336 34.3223C58.3768 34.5905 57.3624 33.66 57.1243 32.5716C56.2901 28.8983 55.1982 25.1873 53.9173 21.5909C53.4543 20.3568 54.0892 19.2191 55.2216 18.8628C58.4656 18.0904 61.4737 17.2167 64.1967 16.2378C65.0786 15.9177 66.3038 16.5153 66.7631 17.7242C68.1236 21.3436 69.2829 25.0277 70.2482 28.6955C70.386 29.298 70.351 29.603 70.1885 30.1905Z" fill="#DD8536"/>
</g>
</g>
<g id="Group_156">
<g id="Group_157">
<path id="Vector_58" d="M69.5884 30.5408C66.6465 31.5992 63.5186 32.5443 60.2541 33.3639C58.9828 33.6152 57.9015 32.787 57.6448 31.6132C56.8106 27.9399 55.7186 24.2289 54.4377 20.6325C53.9778 19.4067 54.5994 18.2639 55.742 17.9044C58.986 17.132 61.9941 16.2583 64.7172 15.2794C65.5837 14.9648 66.8132 15.5278 67.2835 16.7658C68.6441 20.3851 69.8034 24.0693 70.7686 27.7371C71.0618 29.0182 70.5058 30.1488 69.5884 30.5408Z" fill="#D7ACFF"/>
</g>
</g>
<g id="Group_158">
<g id="Group_159">
<g id="Group_160">
<g id="Group_161">
<path id="Vector_59" d="M59.1016 32.5899C60.6022 29.8442 61.9231 27.0739 63.0637 24.2788C65.5089 25.8593 67.8507 27.4482 70.0928 29.0485C69.9683 29.4701 69.6907 29.7851 69.3322 29.9372C66.45 30.9741 63.3735 31.9083 60.0992 32.7334C59.7526 32.8102 59.4083 32.7773 59.1016 32.5899Z" fill="#A140FD"/>
</g>
</g>
<g id="Group_162">
<g id="Group_163">
<path id="Vector_60" d="M63.0635 24.2788C64.1633 21.5643 65.0989 18.815 65.8696 16.0315C66.199 16.2066 66.4984 16.5475 66.6874 17.0094C68.014 20.5693 69.1663 24.1999 70.1322 27.9009C70.24 28.3146 70.2247 28.7121 70.0926 29.0485C67.8504 27.449 65.5086 25.8595 63.0635 24.2788Z" fill="#AD5AFD"/>
</g>
</g>
<g id="Group_164">
<g id="Group_165">
<path id="Vector_61" d="M65.8733 16.0241C65.1081 18.813 64.1563 21.5671 63.0662 24.2822C60.5112 22.6196 57.8375 20.9775 55.0215 19.3362C55.197 18.9233 55.5151 18.6518 55.9382 18.5173C59.1399 17.7624 62.1456 16.8905 64.9332 15.8987C65.2411 15.7937 65.5599 15.8422 65.8733 16.0241Z" fill="#BC75FF"/>
</g>
</g>
<g id="Group_166">
<g id="Group_167">
<path id="Vector_62" d="M55.0265 19.334C57.8301 20.9754 60.5073 22.6243 63.0642 24.2787C61.9232 27.0733 60.6029 29.8438 59.1021 32.5898C58.7217 32.3777 58.39 31.9871 58.2881 31.4812C57.4204 27.7038 56.3349 24.0133 55.0464 20.4085C54.8983 20.0306 54.9031 19.6507 55.0265 19.334Z" fill="#AD5AFD"/>
</g>
</g>
</g>
<g id="Group_168">
<g id="Group_169">
<path id="Vector_63" d="M62.1493 26.4278C62.1493 26.4278 63.0711 24.2392 65.2938 25.7417C65.2938 25.7417 63.1316 24.2932 63.9416 22.0078C63.9416 22.0078 63.0591 24.2373 60.8955 22.8953C62.3576 23.7862 62.7956 24.9459 62.1493 26.4278Z" fill="#CF9DFF"/>
</g>
</g>
</g>
</g>
</g>
<g id="Group_170">
<g id="Group_171">
<g id="Group_172">
<path id="Vector_64" d="M92.0342 48.0868V89.4147C92.0342 93.6041 88.6384 96.9999 84.449 96.9999H26.5852C22.3959 96.9999 19 93.6041 19 89.4147V33.1584C19 37.2136 22.2879 40.5015 26.3431 40.5015H84.449C88.6384 40.5015 92.0342 43.8974 92.0342 48.0868Z" fill="#AD5AFD"/>
</g>
</g>
<g id="Group_173">
<g id="Group_174">
<g id="Group_175">
<g id="Group_176">
<path id="Vector_65" d="M30.5999 48.544H27.8812C27.2433 48.544 26.7256 48.0276 26.7256 47.3891C26.7256 46.7505 27.2433 46.2341 27.8812 46.2341H30.5999C31.2378 46.2341 31.7555 46.7505 31.7555 47.3891C31.7555 48.0276 31.2378 48.544 30.5999 48.544Z" fill="#BC75FF"/>
</g>
</g>
</g>
<g id="Group_177">
<g id="Group_178">
<g id="Group_179">
<path id="Vector_66" d="M83.0049 91.2672H80.6074C79.9695 91.2672 79.4518 90.7508 79.4518 90.1123C79.4518 89.4738 79.9695 88.9573 80.6074 88.9573H83.0049C83.3374 88.9573 83.6082 88.6865 83.6082 88.3547V87.9843C83.6082 87.3458 84.126 86.8294 84.7638 86.8294C85.4017 86.8294 85.9194 87.3458 85.9194 87.9843V88.3547C85.9194 89.9609 84.6118 91.2672 83.0049 91.2672ZM75.0777 91.2672H69.5479C68.9101 91.2672 68.3923 90.7508 68.3923 90.1123C68.3923 89.4738 68.9101 88.9573 69.5479 88.9573H75.0777C75.7155 88.9573 76.2333 89.4738 76.2333 90.1123C76.2333 90.7508 75.7155 91.2672 75.0777 91.2672ZM64.0182 91.2672H58.4885C57.8506 91.2672 57.3329 90.7508 57.3329 90.1123C57.3329 89.4738 57.8506 88.9573 58.4885 88.9573H64.0182C64.6561 88.9573 65.1738 89.4738 65.1738 90.1123C65.1738 90.7508 64.6561 91.2672 64.0182 91.2672ZM52.9587 91.2672H47.429C46.7911 91.2672 46.2734 90.7508 46.2734 90.1123C46.2734 89.4738 46.7911 88.9573 47.429 88.9573H52.9587C53.5966 88.9573 54.1143 89.4738 54.1143 90.1123C54.1143 90.7508 53.5966 91.2672 52.9587 91.2672ZM41.8992 91.2672H36.3695C35.7316 91.2672 35.2139 90.7508 35.2139 90.1123C35.2139 89.4738 35.7316 88.9573 36.3695 88.9573H41.8992C42.5371 88.9573 43.0548 89.4738 43.0548 90.1123C43.0548 90.7508 42.5371 91.2672 41.8992 91.2672ZM84.7638 83.6101C84.126 83.6101 83.6082 83.0937 83.6082 82.4552V76.9248C83.6082 76.2863 84.126 75.7699 84.7638 75.7699C85.4017 75.7699 85.9194 76.2863 85.9194 76.9248V82.4552C85.9194 83.0937 85.4017 83.6101 84.7638 83.6101ZM84.7638 72.5507C84.126 72.5507 83.6082 72.0343 83.6082 71.3957V65.8653C83.6082 65.2268 84.126 64.7104 84.7638 64.7104C85.4017 64.7104 85.9194 65.2268 85.9194 65.8653V71.3957C85.9194 72.0343 85.4017 72.5507 84.7638 72.5507ZM84.7638 61.4912C84.126 61.4912 83.6082 60.9748 83.6082 60.3363V54.8059C83.6082 54.1673 84.126 53.6509 84.7638 53.6509C85.4017 53.6509 85.9194 54.1673 85.9194 54.8059V60.3363C85.9194 60.9748 85.4017 61.4912 84.7638 61.4912ZM84.7638 50.3667C84.126 50.3667 83.6082 49.9153 83.6082 49.2768C83.6082 48.8148 83.3374 48.544 83.0049 48.544H80.3671C79.7293 48.544 79.2115 48.0276 79.2115 47.3891C79.2115 46.7505 79.7293 46.2341 80.3671 46.2341H83.0049C84.6118 46.2341 85.9194 47.5404 85.9194 49.1467C85.9194 49.7852 85.4017 50.3667 84.7638 50.3667ZM74.8374 48.544H69.3077C68.6698 48.544 68.1521 48.0276 68.1521 47.3891C68.1521 46.7505 68.6698 46.2341 69.3077 46.2341H74.8374C75.4753 46.2341 75.993 46.7505 75.993 47.3891C75.993 48.0276 75.4753 48.544 74.8374 48.544ZM63.7779 48.544H58.2482C57.6103 48.544 57.0926 48.0276 57.0926 47.3891C57.0926 46.7505 57.6103 46.2341 58.2482 46.2341H63.7779C64.4158 46.2341 64.9335 46.7505 64.9335 47.3891C64.9335 48.0276 64.4158 48.544 63.7779 48.544ZM52.7184 48.544H47.1887C46.5508 48.544 46.0331 48.0276 46.0331 47.3891C46.0331 46.7505 46.5508 46.2341 47.1887 46.2341H52.7184C53.3563 46.2341 53.874 46.7505 53.874 47.3891C53.874 48.0276 53.3563 48.544 52.7184 48.544ZM41.659 48.544H36.1292C35.4914 48.544 34.9736 48.0276 34.9736 47.3891C34.9736 46.7505 35.4914 46.2341 36.1292 46.2341H41.659C42.2968 46.2341 42.8146 46.7505 42.8146 47.3891C42.8146 48.0276 42.2968 48.544 41.659 48.544Z" fill="#BC75FF"/>
</g>
</g>
</g>
<g id="Group_180">
<g id="Group_181">
<g id="Group_182">
<path id="Vector_67" d="M30.8294 91.2671H28.1107C27.4728 91.2671 26.9551 90.7507 26.9551 90.1122C26.9551 89.4737 27.4728 88.9573 28.1107 88.9573H30.8294C31.4673 88.9573 31.985 89.4737 31.985 90.1122C31.985 90.7507 31.4673 91.2671 30.8294 91.2671Z" fill="#BC75FF"/>
</g>
</g>
</g>
</g>
<g id="Group_183">
<g id="Group_184">
<path id="Vector_68" d="M108.013 50.3447V67.7754C107.324 75.1222 100.167 76.6284 91.8568 77.091H71.4302C66.6168 77.091 62.7148 73.1891 62.7148 68.3757C62.7148 65.969 63.6897 63.7909 65.2675 62.213C66.8453 60.6352 69.0235 59.6604 71.4302 59.6604H91.8568C95.2246 59.4731 98.3995 59.1151 101.038 58.267C104.59 57.1215 107.156 55.0838 107.867 51.3718C107.93 51.0442 107.98 50.6999 108.013 50.3447Z" fill="#CF9DFF"/>
</g>
</g>
<g id="Group_185">
<g id="Group_186">
<path id="Vector_69" d="M74.5417 68.3757C74.5417 70.1904 73.0713 71.6636 71.2566 71.6636C69.4392 71.6636 67.9688 70.1904 67.9688 68.3757C67.9688 66.5611 69.4392 65.0879 71.2566 65.0879C73.0713 65.0879 74.5417 66.5611 74.5417 68.3757Z" fill="#A140FD"/>
</g>
</g>
<g id="Group_187">
<g id="Group_188">
<path id="Vector_70" d="M105.814 67.1702C104.873 70.8542 100.778 74.4406 95.417 73.7212C99.2678 72.728 102.623 71.5753 105.814 67.1702Z" fill="#F8F9FE"/>
</g>
</g>
<g id="Group_189">
<g id="Group_190">
<path id="Vector_71" d="M23.4777 60.3079C24.0412 64.0543 24.1706 67.8008 24.1937 71.5472C24.1736 75.2936 24.0446 79.0401 23.4777 82.7865C22.9109 79.0401 22.7819 75.2936 22.7617 71.5472C22.7849 67.8008 22.9143 64.0543 23.4777 60.3079Z" fill="#F8F9FE"/>
</g>
</g>
</g>
</g>
</g>
</g>
</svg>
