<svg width="89" height="73" viewBox="0 0 89 73" fill="none" xmlns="http://www.w3.org/2000/svg">
<g id="Group 130">
<g id="_x35_9">
<g id="Group">
<g id="Group_2">
<g id="Group_3">
<g id="Group_4">
<g id="Group_5">
<g id="Group_6">
<g id="Group_7">
<path id="Vector" d="M4.1345 70.4611C5.45383 71.244 7.04388 71.6176 8.76221 71.4367C8.99354 71.4127 9.2169 71.3801 9.44886 71.3397C10.8161 71.0877 12.1138 70.5039 13.2642 69.6841C14.0001 69.1611 14.6823 68.5373 15.269 67.8275C16.329 66.5764 17.1403 65.08 17.5645 63.4589C17.736 62.8484 17.8371 62.2242 17.8946 61.5846C17.9085 61.4371 17.9145 61.281 17.9201 61.1331C17.9542 60.2458 17.8798 59.3955 17.6965 58.5986C17.1881 56.407 15.907 54.6299 14.1532 53.5918L16.3491 54.902C18.1029 55.9402 19.3841 57.7171 19.8842 59.9084C20.0757 60.7056 20.1501 61.556 20.116 62.4433C20.1104 62.5912 20.0965 62.7387 20.0826 62.8863C20.0334 63.5261 19.9187 64.1553 19.7636 64.7664C19.3226 66.395 18.5249 67.8866 17.4649 69.1377C16.8782 69.8474 16.2042 70.4716 15.4684 70.9946C12.7043 72.9835 9.14065 73.4343 6.33863 71.7716L4.1345 70.4611Z" fill="#4B5067"/>
</g>
</g>
</g>
<g id="Group_8">
<g id="Group_9">
<g id="Group_10">
<path id="Vector_2" d="M0.375172 62.9203C0.58287 57.72 4.67637 53.105 9.52514 52.6081C14.3654 52.1191 18.127 55.9412 17.9196 61.1332C17.7118 66.3334 13.6101 70.9481 8.76163 71.4368C3.92108 71.934 0.167427 68.1204 0.375172 62.9203Z" fill="#898D9E"/>
</g>
</g>
<g id="Group_11">
<g id="Group_12">
<path id="Vector_3" d="M9.57229 53.0507C13.8731 52.5381 17.6853 55.9812 17.4783 61.1147C17.2824 66.0947 13.3515 70.5312 8.71906 70.9988C4.01127 71.4477 0.625116 67.7608 0.81933 62.9411C1.01528 57.9612 4.94617 53.5247 9.57229 53.0507ZM8.91501 69.362C12.6689 68.9828 15.8541 65.4058 16.0184 61.3928C16.1736 57.4193 13.3644 54.339 9.37634 54.6812C5.62243 55.0667 2.44356 58.6499 2.27924 62.6631C2.11337 66.8886 5.26647 69.7677 8.91501 69.362Z" fill="#6D738E"/>
</g>
</g>
</g>
<g id="Group_13">
<g id="Group_14">
<g id="Group_15">
<path id="Vector_4" d="M2.72221 62.6812C2.87669 58.8694 5.87792 55.4878 9.42167 55.1218C12.9734 54.7644 15.7293 57.5606 15.5749 61.3724C15.4204 65.1842 12.4192 68.5658 8.8675 68.9232C5.32376 69.2891 2.56805 66.4848 2.72221 62.6812Z" fill="#4B5067"/>
</g>
</g>
</g>
<g id="Group_16">
<g id="Group_17">
<g id="Group_18">
<path id="Vector_5" d="M2.72108 62.6812C2.87556 58.8694 5.87679 55.4878 9.42053 55.1218C11.4855 54.9131 13.2874 55.7721 14.3896 57.2789C13.3067 56.3405 11.8607 55.8572 10.2501 56.0176C6.70633 56.3835 3.7051 59.7652 3.55062 63.5769C3.48979 65.1625 3.92918 66.5781 4.73502 67.6622C3.42044 66.5421 2.63311 64.7595 2.72108 62.6812Z" fill="#5C6280"/>
</g>
</g>
</g>
<g id="Group_19">
<g id="Group_20">
<g id="Group_21">
<path id="Vector_6" d="M9.44924 71.3398C10.8165 71.0879 12.1142 70.5041 13.2646 69.6843L15.4688 70.9948C14.318 71.8228 13.0206 72.3984 11.6534 72.6503L9.44924 71.3398Z" fill="#5C6280"/>
</g>
</g>
</g>
<g id="Group_22">
<g id="Group_23">
<g id="Group_24">
<path id="Vector_7" d="M15.269 67.8275C16.3291 66.5765 17.1404 65.08 17.5646 63.459L19.7637 64.7665C19.3227 66.3951 18.525 67.8867 17.465 69.1377L15.269 67.8275Z" fill="#5C6280"/>
</g>
</g>
</g>
<g id="Group_25">
<g id="Group_26">
<g id="Group_27">
<path id="Vector_8" d="M17.6965 58.5986L19.8842 59.9085C20.0757 60.7057 20.1501 61.556 20.116 62.4433C20.1104 62.5912 20.0965 62.7387 20.0826 62.8863L17.8946 61.5847C17.9085 61.4371 17.9145 61.281 17.9201 61.1331C17.9542 60.2458 17.8798 59.3955 17.6965 58.5986Z" fill="#5C6280"/>
</g>
</g>
</g>
</g>
<g id="Group_28">
<g id="Group_29">
<path id="Vector_9" d="M14.9331 58.8087C14.8909 58.7172 14.7609 58.7184 14.7191 58.8103C14.5033 59.2845 14.3171 59.6701 14.2842 59.6567C14.2543 59.6445 14.3889 59.2391 14.5634 58.7497C14.5973 58.6547 14.5051 58.5632 14.4113 58.5991C13.4546 58.9651 12.5759 59.2832 12.5513 59.2243C12.5276 59.1676 13.3684 58.7541 14.2966 58.3202C14.3878 58.2776 14.3871 58.147 14.2957 58.1052C13.8271 57.8909 13.4444 57.7052 13.4579 57.6722C13.4701 57.6421 13.8732 57.7761 14.3598 57.95C14.4543 57.9838 14.5457 57.891 14.5102 57.7968C13.5838 55.336 13.6989 55.3176 14.7881 57.6808C14.8302 57.7723 14.9602 57.7711 15.0021 57.6792C15.2167 57.2078 15.4022 56.8226 15.432 56.8348C15.4649 56.8482 15.3302 57.2549 15.1546 57.7408C15.1203 57.8359 15.2124 57.9278 15.3065 57.8919C16.2613 57.5271 17.1438 57.2096 17.1674 57.2662C17.1921 57.3251 16.3483 57.7376 15.4214 58.1706C15.3302 58.2132 15.3309 58.3436 15.4221 58.3855C15.892 58.6016 16.2755 58.7872 16.2633 58.8172C16.2499 58.8502 15.8456 58.7162 15.3619 58.5396C15.2673 58.5051 15.1752 58.598 15.2108 58.6926C16.1267 61.1279 16.036 61.2038 14.9331 58.8087Z" fill="white"/>
</g>
</g>
</g>
</g>
<g id="Group_30" opacity="0.7">
<g id="Group_31">
<path id="Vector_10" d="M10.9733 66.9222C10.1579 67.4069 9.4336 67.6235 9.60873 67.9551C9.78202 68.2832 10.5956 68.1672 11.411 67.6825C12.2264 67.1977 12.6141 66.5366 12.4408 66.2085C12.2657 65.8769 11.7887 66.4375 10.9733 66.9222Z" fill="white"/>
</g>
</g>
<g id="Group_32" opacity="0.7">
<g id="Group_33">
<path id="Vector_11" d="M13.3869 65.256C13.24 65.1413 12.9917 65.2147 12.8321 65.4147C12.6724 65.6148 12.6606 65.8674 12.8075 65.9821C12.9515 66.0944 13.1972 66.0243 13.3568 65.8243C13.5165 65.6242 13.5309 65.3683 13.3869 65.256Z" fill="white"/>
</g>
</g>
</g>
<g id="Group_34">
<g id="Group_35">
<g id="Group_36">
<path id="Vector_12" d="M12.417 60.4825C12.3695 60.1524 12.118 59.7273 11.8032 59.5845C11.6926 60.0598 11.9654 60.4186 12.417 60.4825Z" fill="#5C6280"/>
</g>
</g>
<g id="Group_37">
<g id="Group_38">
<path id="Vector_13" d="M5.7822 63.5735C5.7822 63.5735 5.6924 64.5435 6.48357 64.8173C7.27474 65.0911 5.7822 63.5735 5.7822 63.5735Z" fill="#5C6280"/>
</g>
</g>
<g id="Group_39">
<g id="Group_40">
<path id="Vector_14" d="M6.04861 64.3082C6.07701 64.42 6.13009 64.5234 6.20672 64.6057C6.27759 64.695 6.3726 64.7694 6.48444 64.8172C7.62867 65.2288 8.84524 65.5964 10.1149 65.9152C10.6427 66.0195 11.0372 65.6576 11.1298 65.2343C11.4543 63.8056 11.879 62.3622 12.3772 60.9634C12.5572 60.4834 12.3103 60.0409 11.8699 59.9024C10.6081 59.602 9.43817 59.2621 8.37904 58.8814C8.03606 58.7569 7.55953 58.9893 7.38089 59.4595C6.85171 60.8672 6.40081 62.3002 6.02539 63.7267C5.97177 63.961 5.98538 64.0797 6.04861 64.3082Z" fill="#5C6280"/>
</g>
</g>
<g id="Group_41">
<g id="Group_42">
<path id="Vector_15" d="M6.28231 64.4445C7.42654 64.8562 8.64311 65.2237 9.91281 65.5425C10.4073 65.6403 10.8278 65.3181 10.9277 64.8616C11.2521 63.4329 11.6768 61.9895 12.175 60.5907C12.3539 60.114 12.1122 59.6695 11.6677 59.5297C10.406 59.2293 9.23604 58.8895 8.17692 58.5087C7.83991 58.3864 7.36171 58.6053 7.17876 59.0868C6.64958 60.4946 6.19868 61.9275 5.82327 63.354C5.70924 63.8523 5.92547 64.292 6.28231 64.4445Z" fill="#BFBFBF"/>
</g>
</g>
<g id="Group_43">
<g id="Group_44">
<g id="Group_45">
<g id="Group_46">
<path id="Vector_16" d="M10.3604 65.2416C9.7767 64.1736 9.26293 63.0961 8.81932 62.009C7.86828 62.6237 6.95744 63.2418 6.0854 63.8642C6.13381 64.0282 6.24179 64.1507 6.38122 64.2098C7.50223 64.6131 8.6988 64.9765 9.97231 65.2974C10.1071 65.3273 10.2411 65.3145 10.3604 65.2416Z" fill="#4B5067"/>
</g>
</g>
<g id="Group_47">
<g id="Group_48">
<path id="Vector_17" d="M8.81934 62.009C8.39157 60.9532 8.02768 59.8839 7.72792 58.8013C7.5998 58.8694 7.48336 59.002 7.40985 59.1816C6.89387 60.5662 6.44567 61.9783 6.07003 63.4178C6.0281 63.5787 6.03403 63.7333 6.08542 63.8641C6.95749 63.242 7.86831 62.6238 8.81934 62.009Z" fill="#898D9E"/>
</g>
</g>
<g id="Group_49">
<g id="Group_50">
<path id="Vector_18" d="M7.72655 58.7983C8.02417 59.883 8.39436 60.9542 8.81835 62.0102C9.81207 61.3636 10.852 60.7249 11.9473 60.0865C11.879 59.9259 11.7553 59.8203 11.5907 59.768C10.3454 59.4744 9.17639 59.1353 8.09217 58.7496C7.97244 58.7087 7.84842 58.7276 7.72655 58.7983Z" fill="#5C627F"/>
</g>
</g>
<g id="Group_51">
<g id="Group_52">
<path id="Vector_19" d="M11.9457 60.0857C10.8552 60.7241 9.81398 61.3654 8.81948 62.0089C9.26326 63.0959 9.77679 64.1734 10.3605 65.2414C10.5085 65.1589 10.6375 65.007 10.6771 64.8103C11.0146 63.3411 11.4368 61.9057 11.9379 60.5036C11.9956 60.3567 11.9937 60.2089 11.9457 60.0857Z" fill="#898D9E"/>
</g>
</g>
</g>
<g id="Group_53">
<g id="Group_54">
<path id="Vector_20" d="M9.17545 62.8449C9.17545 62.8449 8.81692 61.9936 7.95241 62.578C7.95241 62.578 8.79337 62.0146 8.47833 61.1257C8.47833 61.1257 8.82159 61.9929 9.66309 61.4709C9.09442 61.8174 8.92408 62.2685 9.17545 62.8449Z" fill="#BABABA"/>
</g>
</g>
</g>
</g>
</g>
<g id="_x35_9_2">
<g id="Group_55">
<g id="Group_56">
<g id="Group_57">
<g id="Group_58">
<g id="Group_59">
<g id="Group_60">
<g id="Group_61">
<path id="Vector_21" d="M84.9895 65.4611C83.6702 66.244 82.0801 66.6176 80.3618 66.4367C80.1305 66.4127 79.9071 66.3801 79.6752 66.3397C78.3079 66.0877 77.0102 65.5039 75.8598 64.6841C75.1239 64.1611 74.4418 63.5373 73.855 62.8275C72.795 61.5764 71.9837 60.08 71.5595 58.4589C71.388 57.8484 71.2869 57.2242 71.2294 56.5846C71.2156 56.4371 71.2096 56.281 71.2039 56.1331C71.1698 55.2458 71.2442 54.3955 71.4275 53.5986C71.9359 51.407 73.217 49.6299 74.9709 48.5918L72.7749 49.902C71.0211 50.9402 69.7399 52.7171 69.2399 54.9084C69.0483 55.7056 68.9739 56.556 69.008 57.4433C69.0137 57.5912 69.0276 57.7387 69.0415 57.8863C69.0907 58.5261 69.2053 59.1553 69.3604 59.7664C69.8014 61.395 70.5991 62.8866 71.6591 64.1377C72.2459 64.8474 72.9198 65.4716 73.6557 65.9946C76.4197 67.9835 79.9834 68.4343 82.7854 66.7716L84.9895 65.4611Z" fill="#4B5067"/>
</g>
</g>
</g>
<g id="Group_62">
<g id="Group_63">
<g id="Group_64">
<path id="Vector_22" d="M88.7489 57.9203C88.5412 52.72 84.4477 48.105 79.5989 47.6081C74.7586 47.1191 70.997 50.9412 71.2045 56.1332C71.4122 61.3334 75.5139 65.9481 80.3624 66.4368C85.2029 66.934 88.9566 63.1204 88.7489 57.9203Z" fill="#898D9E"/>
</g>
</g>
<g id="Group_65">
<g id="Group_66">
<path id="Vector_23" d="M79.5517 48.0507C75.251 47.5381 71.4387 50.9812 71.6458 56.1147C71.8416 61.0947 75.7725 65.5312 80.405 65.9988C85.1128 66.4477 88.4989 62.7608 88.3047 57.9411C88.1087 52.9612 84.1779 48.5247 79.5517 48.0507ZM80.209 64.362C76.4551 63.9828 73.2699 60.4058 73.1056 56.3928C72.9504 52.4193 75.7597 49.339 79.7477 49.6812C83.5016 50.0667 86.6805 53.6499 86.8448 57.6631C87.0107 61.8886 83.8576 64.7677 80.209 64.362Z" fill="#6D738E"/>
</g>
</g>
</g>
<g id="Group_67">
<g id="Group_68">
<g id="Group_69">
<path id="Vector_24" d="M86.4018 57.6812C86.2473 53.8694 83.2461 50.4878 79.7024 50.1218C76.1507 49.7644 73.3947 52.5606 73.5492 56.3724C73.7036 60.1842 76.7049 63.5658 80.2565 63.9232C83.8003 64.2891 86.556 61.4848 86.4018 57.6812Z" fill="#4B5067"/>
</g>
</g>
</g>
<g id="Group_70">
<g id="Group_71">
<g id="Group_72">
<path id="Vector_25" d="M86.4029 57.6812C86.2485 53.8694 83.2472 50.4878 79.7035 50.1218C77.6385 49.9131 75.8367 50.7721 74.7344 52.2789C75.8173 51.3405 77.2634 50.8572 78.8739 51.0176C82.4177 51.3835 85.4189 54.7652 85.5734 58.5769C85.6342 60.1625 85.1948 61.5781 84.389 62.6622C85.7036 61.5421 86.4909 59.7595 86.4029 57.6812Z" fill="#5C6280"/>
</g>
</g>
</g>
<g id="Group_73">
<g id="Group_74">
<g id="Group_75">
<path id="Vector_26" d="M79.6748 66.3398C78.3076 66.0879 77.0098 65.5041 75.8594 64.6843L73.6553 65.9948C74.806 66.8228 76.1034 67.3984 77.4707 67.6503L79.6748 66.3398Z" fill="#5C6280"/>
</g>
</g>
</g>
<g id="Group_76">
<g id="Group_77">
<g id="Group_78">
<path id="Vector_27" d="M73.855 62.8275C72.7949 61.5765 71.9837 60.08 71.5594 58.459L69.3604 59.7665C69.8013 61.3951 70.599 62.8867 71.659 64.1377L73.855 62.8275Z" fill="#5C6280"/>
</g>
</g>
</g>
<g id="Group_79">
<g id="Group_80">
<g id="Group_81">
<path id="Vector_28" d="M71.4275 53.5986L69.2399 54.9085C69.0483 55.7057 68.9739 56.556 69.008 57.4433C69.0137 57.5912 69.0276 57.7387 69.0415 57.8863L71.2294 56.5847C71.2156 56.4371 71.2096 56.281 71.2039 56.1331C71.1698 55.2458 71.2442 54.3955 71.4275 53.5986Z" fill="#5C6280"/>
</g>
</g>
</g>
</g>
<g id="Group_82">
<g id="Group_83">
<path id="Vector_29" d="M74.1909 53.8087C74.2331 53.7172 74.3631 53.7184 74.4049 53.8103C74.6207 54.2845 74.8069 54.6701 74.8398 54.6567C74.8697 54.6445 74.7352 54.2391 74.5606 53.7497C74.5268 53.6547 74.6189 53.5632 74.7128 53.5991C75.6694 53.9651 76.5481 54.2832 76.5727 54.2243C76.5964 54.1676 75.7557 53.7541 74.8274 53.3202C74.7362 53.2776 74.737 53.147 74.8283 53.1052C75.2969 52.8909 75.6796 52.7052 75.6661 52.6722C75.6539 52.6421 75.2508 52.7761 74.7642 52.95C74.6697 52.9838 74.5783 52.891 74.6138 52.7968C75.5402 50.336 75.4252 50.3176 74.336 52.6808C74.2938 52.7723 74.1638 52.7711 74.1219 52.6792C73.9073 52.2078 73.7219 51.8226 73.692 51.8348C73.6592 51.8482 73.7938 52.2549 73.9694 52.7408C74.0038 52.8359 73.9116 52.9278 73.8175 52.8919C72.8628 52.5271 71.9802 52.2096 71.9566 52.2662C71.932 52.3251 72.7758 52.7376 73.7026 53.1706C73.7938 53.2132 73.7931 53.3436 73.7019 53.3855C73.2321 53.6016 72.8485 53.7872 72.8607 53.8172C72.8742 53.8502 73.2785 53.7162 73.7622 53.5396C73.8567 53.5051 73.9488 53.598 73.9132 53.6926C72.9974 56.1279 73.088 56.2038 74.1909 53.8087Z" fill="white"/>
</g>
</g>
</g>
</g>
<g id="Group_84" opacity="0.7">
<g id="Group_85">
<path id="Vector_30" d="M78.1507 61.9222C78.9662 62.4069 79.6904 62.6235 79.5153 62.9551C79.342 63.2832 78.5284 63.1672 77.713 62.6825C76.8976 62.1977 76.5099 61.5366 76.6832 61.2085C76.8584 60.8769 77.3354 61.4375 78.1507 61.9222Z" fill="white"/>
</g>
</g>
<g id="Group_86" opacity="0.7">
<g id="Group_87">
<path id="Vector_31" d="M75.7371 60.256C75.884 60.1413 76.1323 60.2147 76.2919 60.4147C76.4516 60.6148 76.4634 60.8674 76.3165 60.9821C76.1726 61.0944 75.9269 61.0243 75.7672 60.8243C75.6076 60.6242 75.5932 60.3683 75.7371 60.256Z" fill="white"/>
</g>
</g>
</g>
<g id="Group_88">
<g id="Group_89">
<g id="Group_90">
<path id="Vector_32" d="M76.707 55.4825C76.7545 55.1524 77.006 54.7273 77.3208 54.5845C77.4315 55.0598 77.1586 55.4186 76.707 55.4825Z" fill="#5C6280"/>
</g>
</g>
<g id="Group_91">
<g id="Group_92">
<path id="Vector_33" d="M83.3418 58.5735C83.3418 58.5735 83.4316 59.5435 82.6405 59.8173C81.8493 60.0911 83.3418 58.5735 83.3418 58.5735Z" fill="#5C6280"/>
</g>
</g>
<g id="Group_93">
<g id="Group_94">
<path id="Vector_34" d="M83.0754 59.3082C83.047 59.42 82.9939 59.5234 82.9173 59.6057C82.8464 59.695 82.7514 59.7694 82.6396 59.8172C81.4954 60.2288 80.2788 60.5964 79.0091 60.9152C78.4813 61.0195 78.0868 60.6576 77.9942 60.2343C77.6698 58.8056 77.2451 57.3622 76.7469 55.9634C76.5668 55.4834 76.8137 55.0409 77.2542 54.9024C78.5159 54.602 79.6859 54.2621 80.745 53.8814C81.088 53.7569 81.5645 53.9893 81.7431 54.4595C82.2723 55.8672 82.7232 57.3002 83.0986 58.7267C83.1523 58.961 83.1386 59.0797 83.0754 59.3082Z" fill="#5C6280"/>
</g>
</g>
<g id="Group_95">
<g id="Group_96">
<path id="Vector_35" d="M82.8417 59.4445C81.6975 59.8562 80.4809 60.2237 79.2112 60.5425C78.7168 60.6403 78.2962 60.3181 78.1963 59.8616C77.8719 58.4329 77.4472 56.9895 76.949 55.5907C76.7701 55.114 77.0119 54.6695 77.4563 54.5297C78.718 54.2293 79.888 53.8895 80.9471 53.5087C81.2841 53.3864 81.7623 53.6053 81.9453 54.0868C82.4744 55.4946 82.9253 56.9275 83.3008 58.354C83.4148 58.8523 83.1986 59.292 82.8417 59.4445Z" fill="#BFBFBF"/>
</g>
</g>
<g id="Group_97">
<g id="Group_98">
<g id="Group_99">
<g id="Group_100">
<path id="Vector_36" d="M78.7637 60.2416C79.3473 59.1736 79.8611 58.0961 80.3047 57.009C81.2557 57.6237 82.1666 58.2418 83.0386 58.8642C82.9902 59.0282 82.8822 59.1507 82.7428 59.2098C81.6218 59.6131 80.4252 59.9765 79.1517 60.2974C79.0169 60.3273 78.883 60.3145 78.7637 60.2416Z" fill="#4B5067"/>
</g>
</g>
<g id="Group_101">
<g id="Group_102">
<path id="Vector_37" d="M80.3047 57.009C80.7324 55.9532 81.0963 54.8839 81.3961 53.8013C81.5242 53.8694 81.6407 54.002 81.7142 54.1816C82.2302 55.5662 82.6783 56.9783 83.054 58.4178C83.0959 58.5787 83.09 58.7333 83.0386 58.8641C82.1665 58.242 81.2557 57.6238 80.3047 57.009Z" fill="#898D9E"/>
</g>
</g>
<g id="Group_103">
<g id="Group_104">
<path id="Vector_38" d="M81.3975 53.7983C81.0999 54.883 80.7297 55.9542 80.3057 57.0102C79.312 56.3636 78.272 55.7249 77.1768 55.0865C77.245 54.9259 77.3687 54.8203 77.5333 54.768C78.7786 54.4744 79.9476 54.1353 81.0319 53.7496C81.1516 53.7087 81.2756 53.7276 81.3975 53.7983Z" fill="#5C627F"/>
</g>
</g>
<g id="Group_105">
<g id="Group_106">
<path id="Vector_39" d="M77.1784 55.0857C78.2688 55.7241 79.31 56.3654 80.3045 57.0089C79.8608 58.0959 79.3472 59.1734 78.7635 60.2414C78.6155 60.1589 78.4866 60.007 78.4469 59.8103C78.1094 58.3411 77.6872 56.9057 77.1861 55.5036C77.1285 55.3567 77.1303 55.2089 77.1784 55.0857Z" fill="#898D9E"/>
</g>
</g>
</g>
<g id="Group_107">
<g id="Group_108">
<path id="Vector_40" d="M79.9486 57.8449C79.9486 57.8449 80.3071 56.9936 81.1716 57.578C81.1716 57.578 80.3307 57.0146 80.6457 56.1257C80.6457 56.1257 80.3024 56.9929 79.4609 56.4709C80.0296 56.8174 80.1999 57.2685 79.9486 57.8449Z" fill="#BABABA"/>
</g>
</g>
</g>
</g>
</g>
<g id="_x32_4">
<g id="Group_109">
<g id="Group_110">
<g id="Group_111">
<g id="Vector_41">
<path d="M75.6792 24.6497V60.8068C75.6792 63.9608 73.1265 66.5021 69.9838 66.5021H28.2219C25.0793 66.5021 22.5266 63.9608 22.5266 60.8068V29.9932H19.5657C16.5251 29.9932 14.0518 27.5201 14.0518 24.4681C14.0518 22.9479 14.6644 21.575 15.6628 20.5766C16.6612 19.5784 18.0453 18.9543 19.5657 18.9543H69.9838C73.1265 18.9543 75.6792 21.507 75.6792 24.6497Z" fill="#7C3EB7"/>
<path d="M75.6792 24.6497V60.8068C75.6792 63.9608 73.1265 66.5021 69.9838 66.5021H28.2219C25.0793 66.5021 22.5266 63.9608 22.5266 60.8068V29.9932H19.5657C16.5251 29.9932 14.0518 27.5201 14.0518 24.4681C14.0518 22.9479 14.6644 21.575 15.6628 20.5766C16.6612 19.5784 18.0453 18.9543 19.5657 18.9543H69.9838C73.1265 18.9543 75.6792 21.507 75.6792 24.6497Z" fill="#2C2E3A"/>
</g>
</g>
</g>
<g id="Group_112">
<g id="Group_113">
<path id="Vector_42" d="M67.159 18.9543C66.1832 22.2784 64.2886 25.3304 61.8382 27.7923C61.0892 28.5524 60.2951 29.2558 59.4328 29.9024C58.5026 30.5946 57.5269 31.2298 56.4831 31.7857C53.6695 33.2832 50.5496 34.1569 47.373 34.1569C46.4312 34.1569 45.5349 34.0889 44.6727 33.93C40.0552 33.1586 36.5041 30.3903 34.7115 26.5215C33.6792 24.3093 33.2254 21.7339 33.4864 18.9543H67.159Z" fill="#1B1D24"/>
</g>
</g>
<g id="Group_114">
<g id="Group_115">
<g id="Vector_43">
<path d="M80.9122 37.382L80.8026 38.1535C80.2689 40.9417 78.3412 42.4723 75.673 43.3327L75.6709 43.3306V33.9091C75.6709 33.9091 80.5585 32.8398 80.9122 37.382Z" fill="#522E75"/>
<path d="M80.9122 37.382L80.8026 38.1535C80.2689 40.9417 78.3412 42.4723 75.673 43.3327L75.6709 43.3306V33.9091C75.6709 33.9091 80.5585 32.8398 80.9122 37.382Z" fill="#1B1D24"/>
</g>
</g>
</g>
<g id="_x35_9_3">
<g id="Group_116">
<g id="Group_117">
<g id="Group_118">
<g id="Group_119">
<g id="Group_120">
<g id="Group_121">
<g id="Group_122">
<path id="Vector_44" d="M52.5337 33.0537C50.0968 34.4997 47.1598 35.1898 43.986 34.8557C43.5587 34.8113 43.1461 34.7512 42.7177 34.6764C40.1924 34.211 37.7953 33.1328 35.6705 31.6186C34.3112 30.6524 33.0513 29.5002 31.9676 28.1892C30.0096 25.8784 28.5111 23.1144 27.7275 20.1202C27.4107 18.9926 27.2241 17.8396 27.1179 16.6583C27.0923 16.3858 27.0812 16.0974 27.0707 15.8242C27.0078 14.1854 27.1452 12.6148 27.4838 11.1429C28.4228 7.09479 30.7891 3.81255 34.0285 1.89502L29.9726 4.31498C26.7332 6.2326 24.3667 9.51476 23.443 13.5623C23.0892 15.0347 22.9519 16.6053 23.0147 18.2443C23.0252 18.5174 23.0509 18.7899 23.0766 19.0625C23.1675 20.2443 23.3792 21.4064 23.6657 22.5352C24.4802 25.5434 25.9536 28.2984 27.9115 30.6092C28.9953 31.9202 30.2401 33.0731 31.5993 34.0391C36.7047 37.7127 43.287 38.5454 48.4625 35.4742L52.5337 33.0537Z" fill="#4B5067"/>
</g>
</g>
</g>
<g id="Group_123">
<g id="Group_124">
<g id="Group_125">
<path id="Vector_45" d="M59.4763 19.1251C59.0927 9.51998 51.5318 0.995679 42.5758 0.0778572C33.6355 -0.825354 26.6876 6.23437 27.0708 15.8242C27.4545 25.4293 35.0306 33.9531 43.986 34.8557C52.9268 35.7741 59.8601 28.7301 59.4763 19.1251Z" fill="#898D9E"/>
</g>
</g>
<g id="Group_126">
<g id="Group_127">
<path id="Vector_46" d="M42.4898 0.895433C34.546 -0.0513543 27.5046 6.30823 27.887 15.7902C28.2487 24.9885 35.5093 33.1829 44.0658 34.0467C52.7614 34.8759 59.0158 28.0659 58.6571 19.1636C58.2951 9.9654 51.0345 1.77091 42.4898 0.895433ZM43.7038 31.0235C36.7701 30.3231 30.8869 23.7161 30.5834 16.3038C30.2968 8.96449 35.4856 3.27498 42.8517 3.90702C49.7854 4.61906 55.657 11.2376 55.9605 18.6501C56.2669 26.455 50.4429 31.7728 43.7038 31.0235Z" fill="#6D738E"/>
</g>
</g>
</g>
<g id="Group_128">
<g id="Group_129">
<g id="Group_130">
<path id="Vector_47" d="M55.1437 18.6835C54.8583 11.643 49.3149 5.39682 42.7694 4.72091C36.2091 4.06078 31.1187 9.22548 31.404 16.2661C31.6893 23.3066 37.2328 29.5528 43.7929 30.2129C50.3384 30.8888 55.4284 25.7089 55.1437 18.6835Z" fill="#4B5067"/>
</g>
</g>
</g>
<g id="Group_131">
<g id="Group_132">
<g id="Group_133">
<path id="Vector_48" d="M55.1434 18.6835C54.8581 11.6429 49.3146 5.39676 42.7691 4.72085C38.955 4.3353 35.6268 5.92185 33.5908 8.7051C35.5911 6.97183 38.262 6.07918 41.2368 6.37532C47.7824 7.05122 53.3258 13.2974 53.6112 20.3379C53.7235 23.2667 52.912 25.8814 51.4235 27.8837C53.8516 25.8149 55.3059 22.5222 55.1434 18.6835Z" fill="#5C6280"/>
</g>
</g>
</g>
<g id="Group_134">
<g id="Group_135">
<g id="Group_136">
<path id="Vector_49" d="M42.718 34.6765C40.1927 34.2111 37.7957 33.1328 35.6708 31.6187L31.5996 34.0392C33.7251 35.5686 36.1214 36.6316 38.6469 37.097L42.718 34.6765Z" fill="#5C6280"/>
</g>
</g>
</g>
<g id="Group_137">
<g id="Group_138">
<g id="Group_139">
<path id="Vector_50" d="M31.9679 28.1894C30.0099 25.8785 28.5114 23.1145 27.7279 20.1204L23.666 22.5354C24.4805 25.5436 25.9539 28.2986 27.9118 30.6093L31.9679 28.1894Z" fill="#5C6280"/>
</g>
</g>
</g>
<g id="Group_140">
<g id="Group_141">
<g id="Group_142">
<path id="Vector_51" d="M27.4838 11.1431L23.443 13.5624C23.0892 15.0349 22.9519 16.6055 23.0147 18.2444C23.0252 18.5176 23.0509 18.7901 23.0766 19.0627L27.1179 16.6585C27.0923 16.3859 27.0812 16.0976 27.0707 15.8244C27.0078 14.1856 27.1452 12.6149 27.4838 11.1431Z" fill="#5C6280"/>
</g>
</g>
</g>
</g>
<g id="Group_143">
<g id="Group_144">
<path id="Vector_52" d="M32.5889 11.5306C32.6667 11.3615 32.9069 11.3638 32.9842 11.5336C33.3828 12.4094 33.7267 13.1217 33.7874 13.0969C33.8426 13.0744 33.5941 12.3256 33.2718 11.4216C33.2092 11.2461 33.3794 11.0771 33.5528 11.1434C35.3197 11.8194 36.9428 12.407 36.9883 12.2981C37.032 12.1935 35.479 11.4298 33.7645 10.6283C33.596 10.5495 33.5974 10.3083 33.7662 10.2311C34.6318 9.83531 35.3386 9.49234 35.3137 9.43131C35.2911 9.37579 34.5466 9.62329 33.6477 9.94453C33.4733 10.0069 33.3045 9.83545 33.37 9.66145C35.0811 5.11621 34.8686 5.08236 32.8568 9.44724C32.7789 9.61629 32.5388 9.61411 32.4615 9.44432C32.0651 8.57352 31.7225 7.8621 31.6673 7.8846C31.6067 7.90933 31.8554 8.66057 32.1797 9.55809C32.2432 9.73368 32.073 9.90356 31.8992 9.83716C30.1357 9.16333 28.5056 8.57686 28.4619 8.68146C28.4164 8.79027 29.975 9.55221 31.687 10.3519C31.8553 10.4306 31.8541 10.6715 31.6857 10.7489C30.8178 11.148 30.1093 11.4908 30.1319 11.5463C30.1567 11.6073 30.9035 11.3597 31.7969 11.0336C31.9716 10.9699 32.1417 11.1414 32.076 11.3161C30.3843 15.8142 30.5517 15.9544 32.5889 11.5306Z" fill="white"/>
</g>
</g>
</g>
</g>
<g id="Group_145" opacity="0.7">
<g id="Group_146">
<path id="Vector_53" d="M39.9019 26.5168C41.408 27.4122 42.7458 27.8122 42.4223 28.4247C42.1022 29.0307 40.5995 28.8165 39.0933 27.9211C37.5872 27.0258 36.8712 25.8046 37.1913 25.1986C37.5148 24.5861 38.3958 25.6215 39.9019 26.5168Z" fill="white"/>
</g>
</g>
<g id="Group_147" opacity="0.7">
<g id="Group_148">
<path id="Vector_54" d="M35.4443 23.4395C35.7157 23.2277 36.1743 23.3631 36.4692 23.7327C36.7641 24.1022 36.7859 24.5688 36.5145 24.7806C36.2487 24.9881 35.7948 24.8586 35.5 24.4891C35.2051 24.1195 35.1785 23.647 35.4443 23.4395Z" fill="white"/>
</g>
</g>
</g>
<g id="Group_149">
<g id="Group_150">
<g id="Group_151">
<path id="Vector_55" d="M37.2334 14.6223C37.3211 14.0127 37.7856 13.2275 38.367 12.9636C38.5715 13.8415 38.0675 14.5043 37.2334 14.6223Z" fill="#5C6280"/>
</g>
</g>
<g id="Group_152">
<g id="Group_153">
<path id="Vector_56" d="M49.4883 20.3315C49.4883 20.3315 49.6541 22.1233 48.1928 22.629C46.7315 23.1347 49.4883 20.3315 49.4883 20.3315Z" fill="#5C6280"/>
</g>
</g>
<g id="Group_154">
<g id="Group_155">
<path id="Vector_57" d="M48.9971 21.6887C48.9447 21.8953 48.8466 22.0863 48.7051 22.2383C48.5742 22.4032 48.3987 22.5407 48.1921 22.629C46.0787 23.3893 43.8316 24.0682 41.4864 24.6571C40.5116 24.8497 39.7829 24.1813 39.6118 23.3994C39.0126 20.7604 38.2281 18.0945 37.3079 15.5108C36.9753 14.6242 37.4314 13.8069 38.2449 13.551C40.5754 12.9961 42.7364 12.3684 44.6927 11.6651C45.3262 11.4352 46.2064 11.8645 46.5363 12.733C47.5138 15.3331 48.3466 17.9798 49.04 20.6148C49.139 21.0476 49.1139 21.2667 48.9971 21.6887Z" fill="#5C6280"/>
</g>
</g>
<g id="Group_156">
<g id="Group_157">
<path id="Vector_58" d="M48.5661 21.9405C46.4526 22.7008 44.2056 23.3798 41.8603 23.9686C40.947 24.1491 40.1703 23.5541 39.9858 22.7109C39.3865 20.072 38.6021 17.406 37.6819 14.8223C37.3515 13.9417 37.798 13.1208 38.6189 12.8625C40.9494 12.3076 43.1104 11.6799 45.0666 10.9767C45.6891 10.7507 46.5724 11.1551 46.9103 12.0445C47.8877 14.6446 48.7206 17.2914 49.414 19.9263C49.6246 20.8466 49.2252 21.6588 48.5661 21.9405Z" fill="#BFBFBF"/>
</g>
</g>
<g id="Group_158">
<g id="Group_159">
<g id="Group_160">
<g id="Group_161">
<path id="Vector_59" d="M41.0332 23.4126C42.1112 21.4401 43.0602 19.4499 43.8796 17.4419C45.6362 18.5773 47.3186 19.7188 48.9293 20.8685C48.8399 21.1713 48.6404 21.3976 48.3829 21.5069C46.3123 22.2518 44.1022 22.9229 41.7499 23.5157C41.5009 23.5709 41.2535 23.5472 41.0332 23.4126Z" fill="#4B5067"/>
</g>
</g>
<g id="Group_162">
<g id="Group_163">
<path id="Vector_60" d="M43.8789 17.4419C44.669 15.4918 45.3411 13.5167 45.8948 11.5171C46.1315 11.6429 46.3465 11.8878 46.4823 12.2196C47.4354 14.777 48.2632 17.3853 48.9571 20.0441C49.0345 20.3413 49.0235 20.6269 48.9286 20.8685C47.3179 19.7195 45.6355 18.5775 43.8789 17.4419Z" fill="#898D9E"/>
</g>
</g>
<g id="Group_164">
<g id="Group_165">
<path id="Vector_61" d="M45.8975 11.5117C45.3478 13.5153 44.664 15.4938 43.8809 17.4443C42.0454 16.2499 40.1246 15.0702 38.1016 13.8911C38.2277 13.5945 38.4562 13.3995 38.7602 13.3028C41.0603 12.7605 43.2195 12.1341 45.2222 11.4216C45.4433 11.3462 45.6724 11.381 45.8975 11.5117Z" fill="#5C627F"/>
</g>
</g>
<g id="Group_166">
<g id="Group_167">
<path id="Vector_62" d="M38.1051 13.8896C40.1192 15.0688 42.0425 16.2534 43.8794 17.4419C43.0597 19.4496 42.1112 21.4399 41.033 23.4126C40.7597 23.2603 40.5215 22.9797 40.4482 22.6162C39.8249 19.9025 39.045 17.2513 38.1194 14.6616C38.013 14.3901 38.0165 14.1172 38.1051 13.8896Z" fill="#898D9E"/>
</g>
</g>
</g>
<g id="Group_168">
<g id="Group_169">
<path id="Vector_63" d="M43.222 18.9856C43.222 18.9856 43.8842 17.4133 45.481 18.4928C45.481 18.4928 43.9277 17.4521 44.5096 15.8103C44.5096 15.8103 43.8756 17.412 42.3213 16.4479C43.3716 17.0879 43.6863 17.921 43.222 18.9856Z" fill="#BABABA"/>
</g>
</g>
</g>
</g>
</g>
<g id="Group_170">
<g id="Group_171">
<g id="Group_172">
<path id="Vector_64" d="M68.9108 35.6859V66.729C68.9108 69.8759 66.36 72.4266 63.2132 72.4266H19.7493C16.6025 72.4266 14.0518 69.8759 14.0518 66.729V24.4727C14.0518 27.5187 16.5214 29.9883 19.5675 29.9883H63.2132C66.36 29.9883 68.9108 32.5391 68.9108 35.6859Z" fill="#3C4157"/>
</g>
</g>
<g id="Group_173">
<g id="Group_174">
<g id="Group_175">
<g id="Group_176">
<g id="Vector_65">
<path d="M22.7656 36.0295H20.7235C20.2444 36.0295 19.8555 35.6416 19.8555 35.1619C19.8555 34.6823 20.2444 34.2944 20.7235 34.2944H22.7656C23.2448 34.2944 23.6337 34.6823 23.6337 35.1619C23.6337 35.6416 23.2448 36.0295 22.7656 36.0295Z" fill="#522E75"/>
<path d="M22.7656 36.0295H20.7235C20.2444 36.0295 19.8555 35.6416 19.8555 35.1619C19.8555 34.6823 20.2444 34.2944 20.7235 34.2944H22.7656C23.2448 34.2944 23.6337 34.6823 23.6337 35.1619C23.6337 35.6416 23.2448 36.0295 22.7656 36.0295Z" fill="#1B1D24"/>
</g>
</g>
</g>
</g>
<g id="Group_177">
<g id="Group_178">
<g id="Group_179">
<g id="Vector_66">
<path d="M62.13 68.1206H60.3292C59.85 68.1206 59.4612 67.7327 59.4612 67.2531C59.4612 66.7735 59.85 66.3856 60.3292 66.3856H62.13C62.3798 66.3856 62.5832 66.1822 62.5832 65.9329V65.6547C62.5832 65.1751 62.9721 64.7872 63.4512 64.7872C63.9304 64.7872 64.3193 65.1751 64.3193 65.6547V65.9329C64.3193 67.1394 63.3371 68.1206 62.13 68.1206ZM56.1756 68.1206H52.0219C51.5428 68.1206 51.1539 67.7327 51.1539 67.2531C51.1539 66.7735 51.5428 66.3856 52.0219 66.3856H56.1756C56.6547 66.3856 57.0436 66.7735 57.0436 67.2531C57.0436 67.7327 56.6547 68.1206 56.1756 68.1206ZM47.8683 68.1206H43.7147C43.2356 68.1206 42.8467 67.7327 42.8467 67.2531C42.8467 66.7735 43.2356 66.3856 43.7147 66.3856H47.8683C48.3475 66.3856 48.7364 66.7735 48.7364 67.2531C48.7364 67.7327 48.3475 68.1206 47.8683 68.1206ZM39.5611 68.1206H35.4075C34.9284 68.1206 34.5395 67.7327 34.5395 67.2531C34.5395 66.7735 34.9284 66.3856 35.4075 66.3856H39.5611C40.0402 66.3856 40.4291 66.7735 40.4291 67.2531C40.4291 67.7327 40.0402 68.1206 39.5611 68.1206ZM31.2539 68.1206H27.1003C26.6211 68.1206 26.2322 67.7327 26.2322 67.2531C26.2322 66.7735 26.6211 66.3856 27.1003 66.3856H31.2539C31.733 66.3856 32.1219 66.7735 32.1219 67.2531C32.1219 67.7327 31.733 68.1206 31.2539 68.1206ZM63.4512 62.3691C62.9721 62.3691 62.5832 61.9812 62.5832 61.5016V57.3475C62.5832 56.8678 62.9721 56.4799 63.4512 56.4799C63.9304 56.4799 64.3193 56.8678 64.3193 57.3475V61.5016C64.3193 61.9812 63.9304 62.3691 63.4512 62.3691ZM63.4512 54.0619C62.9721 54.0619 62.5832 53.674 62.5832 53.1944V49.0402C62.5832 48.5606 62.9721 48.1727 63.4512 48.1727C63.9304 48.1727 64.3193 48.5606 64.3193 49.0402V53.1944C64.3193 53.674 63.9304 54.0619 63.4512 54.0619ZM63.4512 45.7546C62.9721 45.7546 62.5832 45.3668 62.5832 44.8871V40.733C62.5832 40.2534 62.9721 39.8655 63.4512 39.8655C63.9304 39.8655 64.3193 40.2534 64.3193 40.733V44.8871C64.3193 45.3668 63.9304 45.7546 63.4512 45.7546ZM63.4512 37.3986C62.9721 37.3986 62.5832 37.0595 62.5832 36.5799C62.5832 36.2329 62.3798 36.0295 62.13 36.0295H60.1487C59.6696 36.0295 59.2807 35.6416 59.2807 35.1619C59.2807 34.6823 59.6696 34.2944 60.1487 34.2944H62.13C63.3371 34.2944 64.3193 35.2756 64.3193 36.4822C64.3193 36.9618 63.9304 37.3986 63.4512 37.3986ZM55.9951 36.0295H51.8415C51.3623 36.0295 50.9734 35.6416 50.9734 35.1619C50.9734 34.6823 51.3623 34.2944 51.8415 34.2944H55.9951C56.4742 34.2944 56.8631 34.6823 56.8631 35.1619C56.8631 35.6416 56.4742 36.0295 55.9951 36.0295ZM47.6878 36.0295H43.5342C43.0551 36.0295 42.6662 35.6416 42.6662 35.1619C42.6662 34.6823 43.0551 34.2944 43.5342 34.2944H47.6878C48.167 34.2944 48.5559 34.6823 48.5559 35.1619C48.5559 35.6416 48.167 36.0295 47.6878 36.0295ZM39.3806 36.0295H35.227C34.7479 36.0295 34.359 35.6416 34.359 35.1619C34.359 34.6823 34.7479 34.2944 35.227 34.2944H39.3806C39.8597 34.2944 40.2486 34.6823 40.2486 35.1619C40.2486 35.6416 39.8597 36.0295 39.3806 36.0295ZM31.0734 36.0295H26.9198C26.4406 36.0295 26.0518 35.6416 26.0518 35.1619C26.0518 34.6823 26.4406 34.2944 26.9198 34.2944H31.0734C31.5525 34.2944 31.9414 34.6823 31.9414 35.1619C31.9414 35.6416 31.5525 36.0295 31.0734 36.0295Z" fill="#522E75"/>
<path d="M62.13 68.1206H60.3292C59.85 68.1206 59.4612 67.7327 59.4612 67.2531C59.4612 66.7735 59.85 66.3856 60.3292 66.3856H62.13C62.3798 66.3856 62.5832 66.1822 62.5832 65.9329V65.6547C62.5832 65.1751 62.9721 64.7872 63.4512 64.7872C63.9304 64.7872 64.3193 65.1751 64.3193 65.6547V65.9329C64.3193 67.1394 63.3371 68.1206 62.13 68.1206ZM56.1756 68.1206H52.0219C51.5428 68.1206 51.1539 67.7327 51.1539 67.2531C51.1539 66.7735 51.5428 66.3856 52.0219 66.3856H56.1756C56.6547 66.3856 57.0436 66.7735 57.0436 67.2531C57.0436 67.7327 56.6547 68.1206 56.1756 68.1206ZM47.8683 68.1206H43.7147C43.2356 68.1206 42.8467 67.7327 42.8467 67.2531C42.8467 66.7735 43.2356 66.3856 43.7147 66.3856H47.8683C48.3475 66.3856 48.7364 66.7735 48.7364 67.2531C48.7364 67.7327 48.3475 68.1206 47.8683 68.1206ZM39.5611 68.1206H35.4075C34.9284 68.1206 34.5395 67.7327 34.5395 67.2531C34.5395 66.7735 34.9284 66.3856 35.4075 66.3856H39.5611C40.0402 66.3856 40.4291 66.7735 40.4291 67.2531C40.4291 67.7327 40.0402 68.1206 39.5611 68.1206ZM31.2539 68.1206H27.1003C26.6211 68.1206 26.2322 67.7327 26.2322 67.2531C26.2322 66.7735 26.6211 66.3856 27.1003 66.3856H31.2539C31.733 66.3856 32.1219 66.7735 32.1219 67.2531C32.1219 67.7327 31.733 68.1206 31.2539 68.1206ZM63.4512 62.3691C62.9721 62.3691 62.5832 61.9812 62.5832 61.5016V57.3475C62.5832 56.8678 62.9721 56.4799 63.4512 56.4799C63.9304 56.4799 64.3193 56.8678 64.3193 57.3475V61.5016C64.3193 61.9812 63.9304 62.3691 63.4512 62.3691ZM63.4512 54.0619C62.9721 54.0619 62.5832 53.674 62.5832 53.1944V49.0402C62.5832 48.5606 62.9721 48.1727 63.4512 48.1727C63.9304 48.1727 64.3193 48.5606 64.3193 49.0402V53.1944C64.3193 53.674 63.9304 54.0619 63.4512 54.0619ZM63.4512 45.7546C62.9721 45.7546 62.5832 45.3668 62.5832 44.8871V40.733C62.5832 40.2534 62.9721 39.8655 63.4512 39.8655C63.9304 39.8655 64.3193 40.2534 64.3193 40.733V44.8871C64.3193 45.3668 63.9304 45.7546 63.4512 45.7546ZM63.4512 37.3986C62.9721 37.3986 62.5832 37.0595 62.5832 36.5799C62.5832 36.2329 62.3798 36.0295 62.13 36.0295H60.1487C59.6696 36.0295 59.2807 35.6416 59.2807 35.1619C59.2807 34.6823 59.6696 34.2944 60.1487 34.2944H62.13C63.3371 34.2944 64.3193 35.2756 64.3193 36.4822C64.3193 36.9618 63.9304 37.3986 63.4512 37.3986ZM55.9951 36.0295H51.8415C51.3623 36.0295 50.9734 35.6416 50.9734 35.1619C50.9734 34.6823 51.3623 34.2944 51.8415 34.2944H55.9951C56.4742 34.2944 56.8631 34.6823 56.8631 35.1619C56.8631 35.6416 56.4742 36.0295 55.9951 36.0295ZM47.6878 36.0295H43.5342C43.0551 36.0295 42.6662 35.6416 42.6662 35.1619C42.6662 34.6823 43.0551 34.2944 43.5342 34.2944H47.6878C48.167 34.2944 48.5559 34.6823 48.5559 35.1619C48.5559 35.6416 48.167 36.0295 47.6878 36.0295ZM39.3806 36.0295H35.227C34.7479 36.0295 34.359 35.6416 34.359 35.1619C34.359 34.6823 34.7479 34.2944 35.227 34.2944H39.3806C39.8597 34.2944 40.2486 34.6823 40.2486 35.1619C40.2486 35.6416 39.8597 36.0295 39.3806 36.0295ZM31.0734 36.0295H26.9198C26.4406 36.0295 26.0518 35.6416 26.0518 35.1619C26.0518 34.6823 26.4406 34.2944 26.9198 34.2944H31.0734C31.5525 34.2944 31.9414 34.6823 31.9414 35.1619C31.9414 35.6416 31.5525 36.0295 31.0734 36.0295Z" fill="#1B1D24"/>
</g>
</g>
</g>
</g>
<g id="Group_180">
<g id="Group_181">
<g id="Group_182">
<g id="Vector_67">
<path d="M22.9385 68.1205H20.8963C20.4172 68.1205 20.0283 67.7326 20.0283 67.253C20.0283 66.7734 20.4172 66.3855 20.8963 66.3855H22.9385C23.4176 66.3855 23.8065 66.7734 23.8065 67.253C23.8065 67.7326 23.4176 68.1205 22.9385 68.1205Z" fill="#522E75"/>
<path d="M22.9385 68.1205H20.8963C20.4172 68.1205 20.0283 67.7326 20.0283 67.253C20.0283 66.7734 20.4172 66.3855 20.8963 66.3855H22.9385C23.4176 66.3855 23.8065 66.7734 23.8065 67.253C23.8065 67.7326 23.4176 68.1205 22.9385 68.1205Z" fill="#1B1D24"/>
</g>
</g>
</g>
</g>
</g>
<g id="Group_183">
<g id="Group_184">
<path id="Vector_68" d="M80.9127 37.3821V50.475C80.3956 55.9934 75.0198 57.1249 68.7774 57.4723H53.4341C49.8186 57.4723 46.8877 54.5414 46.8877 50.9259C46.8877 49.1181 47.6199 47.482 48.8051 46.2968C49.9903 45.1116 51.6264 44.3794 53.4341 44.3794H68.7774C71.3071 44.2388 73.6919 43.9699 75.6735 43.3328C78.3417 42.4724 80.2694 40.9418 80.8031 38.1536C80.8506 37.9074 80.8879 37.6489 80.9127 37.3821Z" fill="#4F5571"/>
</g>
</g>
<g id="Group_185">
<g id="Group_186">
<g id="Vector_69">
<path d="M55.7712 50.9257C55.7712 52.2888 54.6667 53.3954 53.3036 53.3954C51.9385 53.3954 50.834 52.2888 50.834 50.9257C50.834 49.5627 51.9385 48.4561 53.3036 48.4561C54.6667 48.4561 55.7712 49.5627 55.7712 50.9257Z" fill="#522E75"/>
<path d="M55.7712 50.9257C55.7712 52.2888 54.6667 53.3954 53.3036 53.3954C51.9385 53.3954 50.834 52.2888 50.834 50.9257C50.834 49.5627 51.9385 48.4561 53.3036 48.4561C54.6667 48.4561 55.7712 49.5627 55.7712 50.9257Z" fill="#1B1D24"/>
</g>
</g>
</g>
<g id="Group_187">
<g id="Group_188">
<path id="Vector_70" d="M79.2619 50.0203C78.5548 52.7875 75.4793 55.4814 71.4521 54.941C74.3446 54.195 76.8649 53.3291 79.2619 50.0203Z" fill="#F8F9FE"/>
</g>
</g>
<g id="Group_189">
<g id="Group_190">
<path id="Vector_71" d="M17.4148 44.8657C17.838 47.6798 17.9352 50.494 17.9526 53.308C17.9375 56.1221 17.8406 58.9363 17.4148 61.7503C16.989 58.9363 16.8921 56.1221 16.877 53.308C16.8943 50.494 16.9916 47.6798 17.4148 44.8657Z" fill="#F8F9FE"/>
</g>
</g>
</g>
</g>
</g>
</g>
</svg>
